<?xml version="1.0" encoding="UTF-8" standalone="no"?>
<!DOCTYPE svg PUBLIC "-//W3C//DTD SVG 1.1//EN"
 "http://www.w3.org/Graphics/SVG/1.1/DTD/svg11.dtd">
<!-- Generated by graphviz version 2.43.0 (0)
 -->
<!-- Title: Ogre::RTShader::FunctionAtom Pages: 1 -->
<svg width="565pt" height="154pt"
 viewBox="0.00 0.00 565.00 154.00" xmlns="http://www.w3.org/2000/svg" xmlns:xlink="http://www.w3.org/1999/xlink">
<g id="graph0" class="graph" transform="scale(1 1) rotate(0) translate(4 150)">
<title>Ogre::RTShader::FunctionAtom</title>
<!-- Node1 -->
<g id="node1" class="node">
<title>Node1</title>
<g id="a_node1"><a xlink:title="A class that represents an atomic code section of shader based program function.">
<polygon fill="#bfbfbf" stroke="black" points="159,-66.5 159,-85.5 324,-85.5 324,-66.5 159,-66.5"/>
<text text-anchor="middle" x="241.5" y="-73.5" font-family="Helvetica,sans-Serif" font-size="10.00">Ogre::RTShader::FunctionAtom</text>
</a>
</g>
</g>
<!-- Node3 -->
<g id="node3" class="node">
<title>Node3</title>
<g id="a_node3"><a xlink:href="class_ogre_1_1_r_t_shader_1_1_assignment_atom.html" target="_top" xlink:title="shorthand for &quot;lhs = rhs;&quot; insted of using FFP_Assign(rhs, lhs)">
<polygon fill="none" stroke="black" points="367.5,-126.5 367.5,-145.5 549.5,-145.5 549.5,-126.5 367.5,-126.5"/>
<text text-anchor="middle" x="458.5" y="-133.5" font-family="Helvetica,sans-Serif" font-size="10.00">Ogre::RTShader::AssignmentAtom</text>
</a>
</g>
</g>
<!-- Node1&#45;&gt;Node3 -->
<g id="edge2" class="edge">
<title>Node1&#45;&gt;Node3</title>
<path fill="none" stroke="midnightblue" d="M275.91,-89.09C299.21,-97.87 331.17,-109.2 360,-117 373.23,-120.58 387.65,-123.77 401.24,-126.46"/>
<polygon fill="midnightblue" stroke="midnightblue" points="277.08,-85.79 266.49,-85.51 274.59,-92.34 277.08,-85.79"/>
</g>
<!-- Node4 -->
<g id="node4" class="node">
<title>Node4</title>
<g id="a_node4"><a xlink:href="class_ogre_1_1_r_t_shader_1_1_binary_op_atom.html" target="_top" xlink:title="shorthand for &quot;dst = a OP b;&quot;">
<polygon fill="none" stroke="black" points="374,-88.5 374,-107.5 543,-107.5 543,-88.5 374,-88.5"/>
<text text-anchor="middle" x="458.5" y="-95.5" font-family="Helvetica,sans-Serif" font-size="10.00">Ogre::RTShader::BinaryOpAtom</text>
</a>
</g>
</g>
<!-- Node1&#45;&gt;Node4 -->
<g id="edge3" class="edge">
<title>Node1&#45;&gt;Node4</title>
<path fill="none" stroke="midnightblue" d="M334.1,-85.37C347.29,-86.72 360.8,-88.11 373.82,-89.44"/>
<polygon fill="midnightblue" stroke="midnightblue" points="334.39,-81.88 324.09,-84.35 333.68,-88.85 334.39,-81.88"/>
</g>
<!-- Node5 -->
<g id="node5" class="node">
<title>Node5</title>
<g id="a_node5"><a xlink:href="class_ogre_1_1_r_t_shader_1_1_function_invocation.html" target="_top" xlink:title="A class that represents function invocation code from shader based program function.">
<polygon fill="none" stroke="black" points="389,-39 389,-69 528,-69 528,-39 389,-39"/>
<text text-anchor="start" x="397" y="-57" font-family="Helvetica,sans-Serif" font-size="10.00">Ogre::RTShader::Function</text>
<text text-anchor="middle" x="458.5" y="-46" font-family="Helvetica,sans-Serif" font-size="10.00">Invocation</text>
</a>
</g>
</g>
<!-- Node1&#45;&gt;Node5 -->
<g id="edge4" class="edge">
<title>Node1&#45;&gt;Node5</title>
<path fill="none" stroke="midnightblue" d="M334.2,-66.62C352.55,-64.74 371.53,-62.8 388.93,-61.02"/>
<polygon fill="midnightblue" stroke="midnightblue" points="333.68,-63.15 324.09,-67.65 334.39,-70.12 333.68,-63.15"/>
</g>
<!-- Node6 -->
<g id="node6" class="node">
<title>Node6</title>
<g id="a_node6"><a xlink:href="class_ogre_1_1_r_t_shader_1_1_sample_texture_atom.html" target="_top" xlink:title="shorthand for &quot;dst = texture(sampler, uv);&quot; instead of using FFP_SampleTexture">
<polygon fill="none" stroke="black" points="360,-0.5 360,-19.5 557,-19.5 557,-0.5 360,-0.5"/>
<text text-anchor="middle" x="458.5" y="-7.5" font-family="Helvetica,sans-Serif" font-size="10.00">Ogre::RTShader::SampleTextureAtom</text>
</a>
</g>
</g>
<!-- Node1&#45;&gt;Node6 -->
<g id="edge5" class="edge">
<title>Node1&#45;&gt;Node6</title>
<path fill="none" stroke="midnightblue" d="M272.26,-62.29C295.69,-51.93 329.39,-38.02 360,-29 372.49,-25.32 386.09,-22.16 399.07,-19.53"/>
<polygon fill="midnightblue" stroke="midnightblue" points="270.58,-59.2 262.88,-66.48 273.44,-65.59 270.58,-59.2"/>
</g>
<!-- Node2 -->
<g id="node2" class="node">
<title>Node2</title>
<g id="a_node2"><a xlink:title=" ">
<polygon fill="none" stroke="#bfbfbf" points="0,-66.5 0,-85.5 123,-85.5 123,-66.5 0,-66.5"/>
<text text-anchor="middle" x="61.5" y="-73.5" font-family="Helvetica,sans-Serif" font-size="10.00">RTShaderSystemAlloc</text>
</a>
</g>
</g>
<!-- Node2&#45;&gt;Node1 -->
<g id="edge1" class="edge">
<title>Node2&#45;&gt;Node1</title>
<path fill="none" stroke="midnightblue" d="M133.37,-76C141.77,-76 150.39,-76 158.92,-76"/>
<polygon fill="midnightblue" stroke="midnightblue" points="133.26,-72.5 123.26,-76 133.26,-79.5 133.26,-72.5"/>
</g>
</g>
</svg>
