<?xml version="1.0" encoding="UTF-8" standalone="no"?>
<!DOCTYPE svg PUBLIC "-//W3C//DTD SVG 1.1//EN"
 "http://www.w3.org/Graphics/SVG/1.1/DTD/svg11.dtd">
<!-- Generated by graphviz version 2.43.0 (0)
 -->
<!-- Title: Ogre::ShadowCaster Pages: 1 -->
<svg width="836pt" height="522pt"
 viewBox="0.00 0.00 836.00 522.00" xmlns="http://www.w3.org/2000/svg" xmlns:xlink="http://www.w3.org/1999/xlink">
<g id="graph0" class="graph" transform="scale(1 1) rotate(0) translate(4 518)">
<title>Ogre::ShadowCaster</title>
<!-- Node1 -->
<g id="node1" class="node">
<title>Node1</title>
<g id="a_node1"><a xlink:title="This class defines the interface that must be implemented by shadow casters.">
<polygon fill="#bfbfbf" stroke="black" points="0,-266.5 0,-285.5 116,-285.5 116,-266.5 0,-266.5"/>
<text text-anchor="middle" x="58" y="-273.5" font-family="Helvetica,sans-Serif" font-size="10.00">Ogre::ShadowCaster</text>
</a>
</g>
</g>
<!-- Node2 -->
<g id="node2" class="node">
<title>Node2</title>
<g id="a_node2"><a xlink:href="class_ogre_1_1_movable_object.html" target="_top" xlink:title="Abstract class defining a movable object in a scene.">
<polygon fill="none" stroke="black" points="152,-266.5 152,-285.5 271,-285.5 271,-266.5 152,-266.5"/>
<text text-anchor="middle" x="211.5" y="-273.5" font-family="Helvetica,sans-Serif" font-size="10.00">Ogre::MovableObject</text>
</a>
</g>
</g>
<!-- Node1&#45;&gt;Node2 -->
<g id="edge1" class="edge">
<title>Node1&#45;&gt;Node2</title>
<path fill="none" stroke="midnightblue" d="M126.5,-276C134.97,-276 143.57,-276 151.88,-276"/>
<polygon fill="midnightblue" stroke="midnightblue" points="126.28,-272.5 116.28,-276 126.28,-279.5 126.28,-272.5"/>
</g>
<!-- Node3 -->
<g id="node3" class="node">
<title>Node3</title>
<g id="a_node3"><a xlink:href="class_ogre_1_1_billboard_chain.html" target="_top" xlink:title="Allows the rendering of a chain of connected billboards.">
<polygon fill="none" stroke="black" points="316,-494.5 316,-513.5 433,-513.5 433,-494.5 316,-494.5"/>
<text text-anchor="middle" x="374.5" y="-501.5" font-family="Helvetica,sans-Serif" font-size="10.00">Ogre::BillboardChain</text>
</a>
</g>
</g>
<!-- Node2&#45;&gt;Node3 -->
<g id="edge2" class="edge">
<title>Node2&#45;&gt;Node3</title>
<path fill="none" stroke="midnightblue" d="M215.68,-295.48C223.46,-336.76 247.36,-433.51 307,-485 311.45,-488.84 316.64,-491.91 322.11,-494.36"/>
<polygon fill="midnightblue" stroke="midnightblue" points="219.12,-294.83 213.93,-285.6 212.23,-296.05 219.12,-294.83"/>
</g>
<!-- Node5 -->
<g id="node5" class="node">
<title>Node5</title>
<g id="a_node5"><a xlink:href="class_ogre_1_1_billboard_set.html" target="_top" xlink:title="A collection of billboards (faces which are always facing the given direction) with the same (default...">
<polygon fill="none" stroke="black" points="322,-456.5 322,-475.5 427,-475.5 427,-456.5 322,-456.5"/>
<text text-anchor="middle" x="374.5" y="-463.5" font-family="Helvetica,sans-Serif" font-size="10.00">Ogre::BillboardSet</text>
</a>
</g>
</g>
<!-- Node2&#45;&gt;Node5 -->
<g id="edge4" class="edge">
<title>Node2&#45;&gt;Node5</title>
<path fill="none" stroke="midnightblue" d="M217.84,-295.55C228.59,-331.15 256.25,-406.62 307,-447 311.89,-450.89 317.53,-453.98 323.42,-456.44"/>
<polygon fill="midnightblue" stroke="midnightblue" points="221.18,-294.5 215.04,-285.86 214.46,-296.44 221.18,-294.5"/>
</g>
<!-- Node6 -->
<g id="node6" class="node">
<title>Node6</title>
<g id="a_node6"><a xlink:href="class_ogre_1_1_entity.html" target="_top" xlink:title="Defines an instance of a discrete, movable object based on a Mesh.">
<polygon fill="none" stroke="black" points="337.5,-418.5 337.5,-437.5 411.5,-437.5 411.5,-418.5 337.5,-418.5"/>
<text text-anchor="middle" x="374.5" y="-425.5" font-family="Helvetica,sans-Serif" font-size="10.00">Ogre::Entity</text>
</a>
</g>
</g>
<!-- Node2&#45;&gt;Node6 -->
<g id="edge5" class="edge">
<title>Node2&#45;&gt;Node6</title>
<path fill="none" stroke="midnightblue" d="M220.94,-295.17C234.71,-324.22 264.78,-379.13 307,-409 315.92,-415.31 326.9,-419.53 337.35,-422.36"/>
<polygon fill="midnightblue" stroke="midnightblue" points="223.96,-293.37 216.61,-285.74 217.6,-296.29 223.96,-293.37"/>
</g>
<!-- Node7 -->
<g id="node7" class="node">
<title>Node7</title>
<g id="a_node7"><a xlink:href="class_ogre_1_1_frustum.html" target="_top" xlink:title="A frustum represents a pyramid, capped at the near and far end which is used to represent either a vi...">
<polygon fill="none" stroke="black" points="331.5,-380.5 331.5,-399.5 417.5,-399.5 417.5,-380.5 331.5,-380.5"/>
<text text-anchor="middle" x="374.5" y="-387.5" font-family="Helvetica,sans-Serif" font-size="10.00">Ogre::Frustum</text>
</a>
</g>
</g>
<!-- Node2&#45;&gt;Node7 -->
<g id="edge6" class="edge">
<title>Node2&#45;&gt;Node7</title>
<path fill="none" stroke="midnightblue" d="M225.61,-293.92C242.22,-315.34 272.82,-350.83 307,-371 314.45,-375.39 322.96,-378.82 331.36,-381.47"/>
<polygon fill="midnightblue" stroke="midnightblue" points="228.21,-291.55 219.39,-285.68 222.63,-295.77 228.21,-291.55"/>
</g>
<!-- Node11 -->
<g id="node11" class="node">
<title>Node11</title>
<g id="a_node11"><a xlink:href="class_ogre_1_1_instance_batch.html" target="_top" xlink:title="InstanceBatch forms part of the new Instancing system This is an abstract class that must be derived ...">
<polygon fill="none" stroke="black" points="317,-342.5 317,-361.5 432,-361.5 432,-342.5 317,-342.5"/>
<text text-anchor="middle" x="374.5" y="-349.5" font-family="Helvetica,sans-Serif" font-size="10.00">Ogre::InstanceBatch</text>
</a>
</g>
</g>
<!-- Node2&#45;&gt;Node11 -->
<g id="edge10" class="edge">
<title>Node2&#45;&gt;Node11</title>
<path fill="none" stroke="midnightblue" d="M234.31,-291.44C252.91,-304.04 280.73,-321.57 307,-333 315.37,-336.64 324.63,-339.8 333.51,-342.43"/>
<polygon fill="midnightblue" stroke="midnightblue" points="236.19,-288.49 225.97,-285.7 232.22,-294.26 236.19,-288.49"/>
</g>
<!-- Node17 -->
<g id="node17" class="node">
<title>Node17</title>
<g id="a_node17"><a xlink:href="class_ogre_1_1_instanced_entity.html" target="_top" xlink:title=" ">
<polygon fill="none" stroke="black" points="313.5,-304.5 313.5,-323.5 435.5,-323.5 435.5,-304.5 313.5,-304.5"/>
<text text-anchor="middle" x="374.5" y="-311.5" font-family="Helvetica,sans-Serif" font-size="10.00">Ogre::InstancedEntity</text>
</a>
</g>
</g>
<!-- Node2&#45;&gt;Node17 -->
<g id="edge16" class="edge">
<title>Node2&#45;&gt;Node17</title>
<path fill="none" stroke="midnightblue" d="M262.9,-287.9C285.53,-293.24 311.87,-299.45 333.17,-304.48"/>
<polygon fill="midnightblue" stroke="midnightblue" points="263.66,-284.48 253.13,-285.59 262.06,-291.29 263.66,-284.48"/>
</g>
<!-- Node18 -->
<g id="node18" class="node">
<title>Node18</title>
<g id="a_node18"><a xlink:href="class_ogre_1_1_light.html" target="_top" xlink:title="Representation of a dynamic light source in the scene.">
<polygon fill="none" stroke="black" points="339.5,-266.5 339.5,-285.5 409.5,-285.5 409.5,-266.5 339.5,-266.5"/>
<text text-anchor="middle" x="374.5" y="-273.5" font-family="Helvetica,sans-Serif" font-size="10.00">Ogre::Light</text>
</a>
</g>
</g>
<!-- Node2&#45;&gt;Node18 -->
<g id="edge17" class="edge">
<title>Node2&#45;&gt;Node18</title>
<path fill="none" stroke="midnightblue" d="M281.12,-276C301.14,-276 322.16,-276 339.09,-276"/>
<polygon fill="midnightblue" stroke="midnightblue" points="281.08,-272.5 271.08,-276 281.08,-279.5 281.08,-272.5"/>
</g>
<!-- Node20 -->
<g id="node20" class="node">
<title>Node20</title>
<g id="a_node20"><a xlink:href="class_ogre_1_1_manual_object.html" target="_top" xlink:title="Class providing a much simplified interface to generating manual objects with custom geometry.">
<polygon fill="none" stroke="black" points="318,-228.5 318,-247.5 431,-247.5 431,-228.5 318,-228.5"/>
<text text-anchor="middle" x="374.5" y="-235.5" font-family="Helvetica,sans-Serif" font-size="10.00">Ogre::ManualObject</text>
</a>
</g>
</g>
<!-- Node2&#45;&gt;Node20 -->
<g id="edge19" class="edge">
<title>Node2&#45;&gt;Node20</title>
<path fill="none" stroke="midnightblue" d="M262.9,-264.1C285.53,-258.76 311.87,-252.55 333.17,-247.52"/>
<polygon fill="midnightblue" stroke="midnightblue" points="262.06,-260.71 253.13,-266.41 263.66,-267.52 262.06,-260.71"/>
</g>
<!-- Node21 -->
<g id="node21" class="node">
<title>Node21</title>
<g id="a_node21"><a xlink:href="class_ogre_1_1_movable_plane.html" target="_top" xlink:title="Definition of a Plane that may be attached to a node, and the derived details of it retrieved simply.">
<polygon fill="none" stroke="black" points="317,-190.5 317,-209.5 432,-209.5 432,-190.5 317,-190.5"/>
<text text-anchor="middle" x="374.5" y="-197.5" font-family="Helvetica,sans-Serif" font-size="10.00">Ogre::MovablePlane</text>
</a>
</g>
</g>
<!-- Node2&#45;&gt;Node21 -->
<g id="edge20" class="edge">
<title>Node2&#45;&gt;Node21</title>
<path fill="none" stroke="midnightblue" d="M234.31,-260.56C252.91,-247.96 280.73,-230.43 307,-219 315.37,-215.36 324.63,-212.2 333.51,-209.57"/>
<polygon fill="midnightblue" stroke="midnightblue" points="232.22,-257.74 225.97,-266.3 236.19,-263.51 232.22,-257.74"/>
</g>
<!-- Node22 -->
<g id="node22" class="node">
<title>Node22</title>
<g id="a_node22"><a xlink:href="class_ogre_1_1_particle_system.html" target="_top" xlink:title="Class defining particle system based special effects.">
<polygon fill="none" stroke="black" points="315,-152.5 315,-171.5 434,-171.5 434,-152.5 315,-152.5"/>
<text text-anchor="middle" x="374.5" y="-159.5" font-family="Helvetica,sans-Serif" font-size="10.00">Ogre::ParticleSystem</text>
</a>
</g>
</g>
<!-- Node2&#45;&gt;Node22 -->
<g id="edge21" class="edge">
<title>Node2&#45;&gt;Node22</title>
<path fill="none" stroke="midnightblue" d="M225.61,-258.08C242.22,-236.66 272.82,-201.17 307,-181 313.51,-177.16 320.85,-174.05 328.21,-171.56"/>
<polygon fill="midnightblue" stroke="midnightblue" points="222.63,-256.23 219.39,-266.32 228.21,-260.45 222.63,-256.23"/>
</g>
<!-- Node23 -->
<g id="node23" class="node">
<title>Node23</title>
<g id="a_node23"><a xlink:href="class_ogre_1_1_portal_base.html" target="_top" xlink:title="PortalBase &#45; Base class to Portal and AntiPortal classes.">
<polygon fill="none" stroke="black" points="325.5,-114.5 325.5,-133.5 423.5,-133.5 423.5,-114.5 325.5,-114.5"/>
<text text-anchor="middle" x="374.5" y="-121.5" font-family="Helvetica,sans-Serif" font-size="10.00">Ogre::PortalBase</text>
</a>
</g>
</g>
<!-- Node2&#45;&gt;Node23 -->
<g id="edge22" class="edge">
<title>Node2&#45;&gt;Node23</title>
<path fill="none" stroke="midnightblue" d="M220.94,-256.83C234.71,-227.78 264.78,-172.87 307,-143 312.49,-139.12 318.76,-136.02 325.21,-133.56"/>
<polygon fill="midnightblue" stroke="midnightblue" points="217.6,-255.71 216.61,-266.26 223.96,-258.63 217.6,-255.71"/>
</g>
<!-- Node26 -->
<g id="node26" class="node">
<title>Node26</title>
<g id="a_node26"><a xlink:href="class_ogre_1_1_simple_renderable.html" target="_top" xlink:title="Simple implementation of MovableObject and Renderable for single&#45;part custom objects.">
<polygon fill="none" stroke="black" points="307,-76.5 307,-95.5 442,-95.5 442,-76.5 307,-76.5"/>
<text text-anchor="middle" x="374.5" y="-83.5" font-family="Helvetica,sans-Serif" font-size="10.00">Ogre::SimpleRenderable</text>
</a>
</g>
</g>
<!-- Node2&#45;&gt;Node26 -->
<g id="edge25" class="edge">
<title>Node2&#45;&gt;Node26</title>
<path fill="none" stroke="midnightblue" d="M217.84,-256.45C228.59,-220.85 256.25,-145.38 307,-105 311.89,-101.11 317.53,-98.02 323.42,-95.56"/>
<polygon fill="midnightblue" stroke="midnightblue" points="214.46,-255.56 215.04,-266.14 221.18,-257.5 214.46,-255.56"/>
</g>
<!-- Node30 -->
<g id="node30" class="node">
<title>Node30</title>
<g id="a_node30"><a xlink:href="class_ogre_1_1_static_geometry_1_1_region.html" target="_top" xlink:title="The details of a topological region which is the highest level of partitioning for this class.">
<polygon fill="none" stroke="black" points="313.5,-27 313.5,-57 435.5,-57 435.5,-27 313.5,-27"/>
<text text-anchor="start" x="321.5" y="-45" font-family="Helvetica,sans-Serif" font-size="10.00">Ogre::StaticGeometry</text>
<text text-anchor="middle" x="374.5" y="-34" font-family="Helvetica,sans-Serif" font-size="10.00">::Region</text>
</a>
</g>
</g>
<!-- Node2&#45;&gt;Node30 -->
<g id="edge29" class="edge">
<title>Node2&#45;&gt;Node30</title>
<path fill="none" stroke="midnightblue" d="M216.13,-256.33C224.67,-215.43 249.77,-120.62 307,-67 311.14,-63.12 315.94,-59.83 321.03,-57.04"/>
<polygon fill="midnightblue" stroke="midnightblue" points="212.7,-255.65 214.19,-266.14 219.56,-257.01 212.7,-255.65"/>
</g>
<!-- Node4 -->
<g id="node4" class="node">
<title>Node4</title>
<g id="a_node4"><a xlink:href="class_ogre_1_1_ribbon_trail.html" target="_top" xlink:title="Subclass of BillboardChain which automatically leaves a trail behind one or more Node instances.">
<polygon fill="none" stroke="black" points="507,-494.5 507,-513.5 607,-513.5 607,-494.5 507,-494.5"/>
<text text-anchor="middle" x="557" y="-501.5" font-family="Helvetica,sans-Serif" font-size="10.00">Ogre::RibbonTrail</text>
</a>
</g>
</g>
<!-- Node3&#45;&gt;Node4 -->
<g id="edge3" class="edge">
<title>Node3&#45;&gt;Node4</title>
<path fill="none" stroke="midnightblue" d="M443.3,-504C464.4,-504 487.25,-504 506.82,-504"/>
<polygon fill="midnightblue" stroke="midnightblue" points="443.11,-500.5 433.11,-504 443.11,-507.5 443.11,-500.5"/>
</g>
<!-- Node8 -->
<g id="node8" class="node">
<title>Node8</title>
<g id="a_node8"><a xlink:href="class_ogre_1_1_camera.html" target="_top" xlink:title="A viewpoint from which the scene will be rendered.">
<polygon fill="none" stroke="black" points="515,-418.5 515,-437.5 599,-437.5 599,-418.5 515,-418.5"/>
<text text-anchor="middle" x="557" y="-425.5" font-family="Helvetica,sans-Serif" font-size="10.00">Ogre::Camera</text>
</a>
</g>
</g>
<!-- Node7&#45;&gt;Node8 -->
<g id="edge7" class="edge">
<title>Node7&#45;&gt;Node8</title>
<path fill="none" stroke="midnightblue" d="M427.74,-401C455.46,-406.83 489.04,-413.9 514.88,-419.34"/>
<polygon fill="midnightblue" stroke="midnightblue" points="428.33,-397.54 417.82,-398.91 426.88,-404.39 428.33,-397.54"/>
</g>
<!-- Node9 -->
<g id="node9" class="node">
<title>Node9</title>
<g id="a_node9"><a xlink:href="class_ogre_1_1_octree_camera.html" target="_top" xlink:title="Specialized viewpoint from which an Octree can be rendered.">
<polygon fill="none" stroke="black" points="692,-456.5 692,-475.5 808,-475.5 808,-456.5 692,-456.5"/>
<text text-anchor="middle" x="750" y="-463.5" font-family="Helvetica,sans-Serif" font-size="10.00">Ogre::OctreeCamera</text>
</a>
</g>
</g>
<!-- Node8&#45;&gt;Node9 -->
<g id="edge8" class="edge">
<title>Node8&#45;&gt;Node9</title>
<path fill="none" stroke="midnightblue" d="M609.63,-438.27C638.15,-443.95 673.35,-450.95 701.24,-456.5"/>
<polygon fill="midnightblue" stroke="midnightblue" points="609.93,-434.76 599.44,-436.25 608.57,-441.63 609.93,-434.76"/>
</g>
<!-- Node10 -->
<g id="node10" class="node">
<title>Node10</title>
<g id="a_node10"><a xlink:href="class_ogre_1_1_p_c_z_camera.html" target="_top" xlink:title="Specialized viewpoint from which an PCZone Scene can be rendered.">
<polygon fill="none" stroke="black" points="698,-418.5 698,-437.5 802,-437.5 802,-418.5 698,-418.5"/>
<text text-anchor="middle" x="750" y="-425.5" font-family="Helvetica,sans-Serif" font-size="10.00">Ogre::PCZCamera</text>
</a>
</g>
</g>
<!-- Node8&#45;&gt;Node10 -->
<g id="edge9" class="edge">
<title>Node8&#45;&gt;Node10</title>
<path fill="none" stroke="midnightblue" d="M609.6,-428C636.96,-428 670.46,-428 697.76,-428"/>
<polygon fill="midnightblue" stroke="midnightblue" points="609.44,-424.5 599.44,-428 609.44,-431.5 609.44,-424.5"/>
</g>
<!-- Node12 -->
<g id="node12" class="node">
<title>Node12</title>
<g id="a_node12"><a xlink:href="class_ogre_1_1_base_instance_batch_v_t_f.html" target="_top" xlink:title="Instancing implementation using vertex texture through Vertex Texture Fetch (VTF) This implementation...">
<polygon fill="none" stroke="black" points="478,-380.5 478,-399.5 636,-399.5 636,-380.5 478,-380.5"/>
<text text-anchor="middle" x="557" y="-387.5" font-family="Helvetica,sans-Serif" font-size="10.00">Ogre::BaseInstanceBatchVTF</text>
</a>
</g>
</g>
<!-- Node11&#45;&gt;Node12 -->
<g id="edge11" class="edge">
<title>Node11&#45;&gt;Node12</title>
<path fill="none" stroke="midnightblue" d="M430.98,-363.68C456.58,-369.07 486.58,-375.39 510.78,-380.48"/>
<polygon fill="midnightblue" stroke="midnightblue" points="431.55,-360.22 421.05,-361.59 430.11,-367.07 431.55,-360.22"/>
</g>
<!-- Node15 -->
<g id="node15" class="node">
<title>Node15</title>
<g id="a_node15"><a xlink:href="class_ogre_1_1_instance_batch_h_w.html" target="_top" xlink:title="This is technique requires true instancing hardware support.">
<polygon fill="none" stroke="black" points="491,-342.5 491,-361.5 623,-361.5 623,-342.5 491,-342.5"/>
<text text-anchor="middle" x="557" y="-349.5" font-family="Helvetica,sans-Serif" font-size="10.00">Ogre::InstanceBatchHW</text>
</a>
</g>
</g>
<!-- Node11&#45;&gt;Node15 -->
<g id="edge14" class="edge">
<title>Node11&#45;&gt;Node15</title>
<path fill="none" stroke="midnightblue" d="M442.34,-352C458.16,-352 475.01,-352 490.76,-352"/>
<polygon fill="midnightblue" stroke="midnightblue" points="442.12,-348.5 432.12,-352 442.12,-355.5 442.12,-348.5"/>
</g>
<!-- Node16 -->
<g id="node16" class="node">
<title>Node16</title>
<g id="a_node16"><a xlink:href="class_ogre_1_1_instance_batch_shader.html" target="_top" xlink:title="This is the same technique the old &quot;InstancedGeometry&quot; implementation used (with improvements).">
<polygon fill="none" stroke="black" points="482.5,-304.5 482.5,-323.5 631.5,-323.5 631.5,-304.5 482.5,-304.5"/>
<text text-anchor="middle" x="557" y="-311.5" font-family="Helvetica,sans-Serif" font-size="10.00">Ogre::InstanceBatchShader</text>
</a>
</g>
</g>
<!-- Node11&#45;&gt;Node16 -->
<g id="edge15" class="edge">
<title>Node11&#45;&gt;Node16</title>
<path fill="none" stroke="midnightblue" d="M430.98,-340.32C456.58,-334.93 486.58,-328.61 510.78,-323.52"/>
<polygon fill="midnightblue" stroke="midnightblue" points="430.11,-336.93 421.05,-342.41 431.55,-343.78 430.11,-336.93"/>
</g>
<!-- Node13 -->
<g id="node13" class="node">
<title>Node13</title>
<g id="a_node13"><a xlink:href="class_ogre_1_1_instance_batch_h_w___v_t_f.html" target="_top" xlink:title="Instancing implementation using vertex texture through Vertex Texture Fetch (VTF) and hardware instan...">
<polygon fill="none" stroke="black" points="672,-380.5 672,-399.5 828,-399.5 828,-380.5 672,-380.5"/>
<text text-anchor="middle" x="750" y="-387.5" font-family="Helvetica,sans-Serif" font-size="10.00">Ogre::InstanceBatchHW_VTF</text>
</a>
</g>
</g>
<!-- Node12&#45;&gt;Node13 -->
<g id="edge12" class="edge">
<title>Node12&#45;&gt;Node13</title>
<path fill="none" stroke="midnightblue" d="M646.5,-390C654.95,-390 663.48,-390 671.81,-390"/>
<polygon fill="midnightblue" stroke="midnightblue" points="646.24,-386.5 636.24,-390 646.24,-393.5 646.24,-386.5"/>
</g>
<!-- Node14 -->
<g id="node14" class="node">
<title>Node14</title>
<g id="a_node14"><a xlink:href="class_ogre_1_1_instance_batch_v_t_f.html" target="_top" xlink:title=" ">
<polygon fill="none" stroke="black" points="683,-342.5 683,-361.5 817,-361.5 817,-342.5 683,-342.5"/>
<text text-anchor="middle" x="750" y="-349.5" font-family="Helvetica,sans-Serif" font-size="10.00">Ogre::InstanceBatchVTF</text>
</a>
</g>
</g>
<!-- Node12&#45;&gt;Node14 -->
<g id="edge13" class="edge">
<title>Node12&#45;&gt;Node14</title>
<path fill="none" stroke="midnightblue" d="M616.35,-378.39C643.52,-372.99 675.43,-366.64 701.15,-361.52"/>
<polygon fill="midnightblue" stroke="midnightblue" points="615.32,-375.03 606.2,-380.41 616.69,-381.89 615.32,-375.03"/>
</g>
<!-- Node19 -->
<g id="node19" class="node">
<title>Node19</title>
<g id="a_node19"><a xlink:href="class_ogre_1_1_p_c_z_light.html" target="_top" xlink:title="Specialized version of Ogre::Light which caches which zones the light affects.">
<polygon fill="none" stroke="black" points="512.5,-266.5 512.5,-285.5 601.5,-285.5 601.5,-266.5 512.5,-266.5"/>
<text text-anchor="middle" x="557" y="-273.5" font-family="Helvetica,sans-Serif" font-size="10.00">Ogre::PCZLight</text>
</a>
</g>
</g>
<!-- Node18&#45;&gt;Node19 -->
<g id="edge18" class="edge">
<title>Node18&#45;&gt;Node19</title>
<path fill="none" stroke="midnightblue" d="M420.24,-276C448.4,-276 484.57,-276 512.49,-276"/>
<polygon fill="midnightblue" stroke="midnightblue" points="419.88,-272.5 409.88,-276 419.88,-279.5 419.88,-272.5"/>
</g>
<!-- Node24 -->
<g id="node24" class="node">
<title>Node24</title>
<g id="a_node24"><a xlink:href="class_ogre_1_1_anti_portal.html" target="_top" xlink:title="AntiPortal datastructure for occlusion culling.">
<polygon fill="none" stroke="black" points="510,-152.5 510,-171.5 604,-171.5 604,-152.5 510,-152.5"/>
<text text-anchor="middle" x="557" y="-159.5" font-family="Helvetica,sans-Serif" font-size="10.00">Ogre::AntiPortal</text>
</a>
</g>
</g>
<!-- Node23&#45;&gt;Node24 -->
<g id="edge23" class="edge">
<title>Node23&#45;&gt;Node24</title>
<path fill="none" stroke="midnightblue" d="M430.98,-135.68C456.58,-141.07 486.58,-147.39 510.78,-152.48"/>
<polygon fill="midnightblue" stroke="midnightblue" points="431.55,-132.22 421.05,-133.59 430.11,-139.07 431.55,-132.22"/>
</g>
<!-- Node25 -->
<g id="node25" class="node">
<title>Node25</title>
<g id="a_node25"><a xlink:href="class_ogre_1_1_portal.html" target="_top" xlink:title="Portal datastructure for connecting zones.">
<polygon fill="none" stroke="black" points="520,-114.5 520,-133.5 594,-133.5 594,-114.5 520,-114.5"/>
<text text-anchor="middle" x="557" y="-121.5" font-family="Helvetica,sans-Serif" font-size="10.00">Ogre::Portal</text>
</a>
</g>
</g>
<!-- Node23&#45;&gt;Node25 -->
<g id="edge24" class="edge">
<title>Node23&#45;&gt;Node25</title>
<path fill="none" stroke="midnightblue" d="M434.04,-124C462.28,-124 495.27,-124 519.81,-124"/>
<polygon fill="midnightblue" stroke="midnightblue" points="433.87,-120.5 423.87,-124 433.87,-127.5 433.87,-120.5"/>
</g>
<!-- Node27 -->
<g id="node27" class="node">
<title>Node27</title>
<g id="a_node27"><a xlink:href="class_ogre_1_1_rectangle2_d.html" target="_top" xlink:title="Allows the rendering of a simple 2D rectangle This class renders a simple 2D rectangle; this rectangl...">
<polygon fill="none" stroke="black" points="503,-76.5 503,-95.5 611,-95.5 611,-76.5 503,-76.5"/>
<text text-anchor="middle" x="557" y="-83.5" font-family="Helvetica,sans-Serif" font-size="10.00">Ogre::Rectangle2D</text>
</a>
</g>
</g>
<!-- Node26&#45;&gt;Node27 -->
<g id="edge26" class="edge">
<title>Node26&#45;&gt;Node27</title>
<path fill="none" stroke="midnightblue" d="M452.63,-86C469.54,-86 487.09,-86 502.82,-86"/>
<polygon fill="midnightblue" stroke="midnightblue" points="452.2,-82.5 442.2,-86 452.2,-89.5 452.2,-82.5"/>
</g>
<!-- Node28 -->
<g id="node28" class="node">
<title>Node28</title>
<g id="a_node28"><a xlink:href="class_ogre_1_1_volume_1_1_chunk.html" target="_top" xlink:title="A single volume chunk mesh.">
<polygon fill="none" stroke="black" points="497.5,-38.5 497.5,-57.5 616.5,-57.5 616.5,-38.5 497.5,-38.5"/>
<text text-anchor="middle" x="557" y="-45.5" font-family="Helvetica,sans-Serif" font-size="10.00">Ogre::Volume::Chunk</text>
</a>
</g>
</g>
<!-- Node26&#45;&gt;Node28 -->
<g id="edge27" class="edge">
<title>Node26&#45;&gt;Node28</title>
<path fill="none" stroke="midnightblue" d="M430.98,-74.32C456.58,-68.93 486.58,-62.61 510.78,-57.52"/>
<polygon fill="midnightblue" stroke="midnightblue" points="430.11,-70.93 421.05,-76.41 431.55,-77.78 430.11,-70.93"/>
</g>
<!-- Node29 -->
<g id="node29" class="node">
<title>Node29</title>
<g id="a_node29"><a xlink:href="class_ogre_1_1_wire_bounding_box.html" target="_top" xlink:title="Allows the rendering of a wireframe bounding box.">
<polygon fill="none" stroke="black" points="490.5,-0.5 490.5,-19.5 623.5,-19.5 623.5,-0.5 490.5,-0.5"/>
<text text-anchor="middle" x="557" y="-7.5" font-family="Helvetica,sans-Serif" font-size="10.00">Ogre::WireBoundingBox</text>
</a>
</g>
</g>
<!-- Node26&#45;&gt;Node29 -->
<g id="edge28" class="edge">
<title>Node26&#45;&gt;Node29</title>
<path fill="none" stroke="midnightblue" d="M430.62,-72.82C434.58,-71.11 438.42,-69.17 442,-67 461.89,-54.93 457.88,-40.67 478,-29 484.63,-25.15 492.01,-22.08 499.52,-19.63"/>
<polygon fill="midnightblue" stroke="midnightblue" points="429.29,-69.59 421.22,-76.46 431.81,-76.12 429.29,-69.59"/>
</g>
</g>
</svg>
