<?xml version="1.0" encoding="UTF-8" standalone="no"?>
<!DOCTYPE svg PUBLIC "-//W3C//DTD SVG 1.1//EN"
 "http://www.w3.org/Graphics/SVG/1.1/DTD/svg11.dtd">
<!-- Generated by graphviz version 2.43.0 (0)
 -->
<!-- Title: Ogre::GpuProgramUsage Pages: 1 -->
<svg width="224pt" height="84pt"
 viewBox="0.00 0.00 224.00 84.00" xmlns="http://www.w3.org/2000/svg" xmlns:xlink="http://www.w3.org/1999/xlink">
<g id="graph0" class="graph" transform="scale(1 1) rotate(0) translate(4 80)">
<title>Ogre::GpuProgramUsage</title>
<!-- Node1 -->
<g id="node1" class="node">
<title>Node1</title>
<g id="a_node1"><a xlink:title="This class makes the usage of a vertex and fragment programs (low&#45;level or high&#45;level),...">
<polygon fill="#bfbfbf" stroke="black" points="57.5,-0.5 57.5,-19.5 194.5,-19.5 194.5,-0.5 57.5,-0.5"/>
<text text-anchor="middle" x="126" y="-7.5" font-family="Helvetica,sans-Serif" font-size="10.00">Ogre::GpuProgramUsage</text>
</a>
</g>
</g>
<!-- Node2 -->
<g id="node2" class="node">
<title>Node2</title>
<g id="a_node2"><a xlink:href="class_ogre_1_1_resource_1_1_listener.html" target="_top" xlink:title=" ">
<polygon fill="none" stroke="black" points="0,-56.5 0,-75.5 136,-75.5 136,-56.5 0,-56.5"/>
<text text-anchor="middle" x="68" y="-63.5" font-family="Helvetica,sans-Serif" font-size="10.00">Ogre::Resource::Listener</text>
</a>
</g>
</g>
<!-- Node2&#45;&gt;Node1 -->
<g id="edge1" class="edge">
<title>Node2&#45;&gt;Node1</title>
<path fill="none" stroke="midnightblue" d="M84.91,-49.25C95.2,-39.67 107.97,-27.79 116.51,-19.83"/>
<polygon fill="midnightblue" stroke="midnightblue" points="82.25,-46.95 77.32,-56.32 87.02,-52.07 82.25,-46.95"/>
</g>
<!-- Node3 -->
<g id="node3" class="node">
<title>Node3</title>
<g id="a_node3"><a xlink:title=" ">
<polygon fill="none" stroke="#bfbfbf" points="154,-56.5 154,-75.5 216,-75.5 216,-56.5 154,-56.5"/>
<text text-anchor="middle" x="185" y="-63.5" font-family="Helvetica,sans-Serif" font-size="10.00">PassAlloc</text>
</a>
</g>
</g>
<!-- Node3&#45;&gt;Node1 -->
<g id="edge2" class="edge">
<title>Node3&#45;&gt;Node1</title>
<path fill="none" stroke="midnightblue" d="M168.11,-49.54C157.59,-39.91 144.43,-27.87 135.65,-19.83"/>
<polygon fill="midnightblue" stroke="midnightblue" points="165.78,-52.15 175.52,-56.32 170.51,-46.99 165.78,-52.15"/>
</g>
</g>
</svg>
