<?xml version="1.0" encoding="UTF-8" standalone="no"?>
<!DOCTYPE svg PUBLIC "-//W3C//DTD SVG 1.1//EN"
 "http://www.w3.org/Graphics/SVG/1.1/DTD/svg11.dtd">
<!-- Generated by graphviz version 2.43.0 (0)
 -->
<!-- Title: Ogre::ParticleAffector Pages: 1 -->
<svg width="473pt" height="356pt"
 viewBox="0.00 0.00 473.00 356.00" xmlns="http://www.w3.org/2000/svg" xmlns:xlink="http://www.w3.org/1999/xlink">
<g id="graph0" class="graph" transform="scale(1 1) rotate(0) translate(4 352)">
<title>Ogre::ParticleAffector</title>
<!-- Node1 -->
<g id="node1" class="node">
<title>Node1</title>
<g id="a_node1"><a xlink:title="Abstract class defining the interface to be implemented by particle affectors.">
<polygon fill="#bfbfbf" stroke="black" points="154,-164.5 154,-183.5 274,-183.5 274,-164.5 154,-164.5"/>
<text text-anchor="middle" x="214" y="-171.5" font-family="Helvetica,sans-Serif" font-size="10.00">Ogre::ParticleAffector</text>
</a>
</g>
</g>
<!-- Node4 -->
<g id="node4" class="node">
<title>Node4</title>
<g id="a_node4"><a xlink:href="class_ogre_1_1_colour_fader_affector.html" target="_top" xlink:title="This plugin subclass of ParticleAffector allows you to alter the colour of particles.">
<polygon fill="none" stroke="black" points="316.5,-328.5 316.5,-347.5 458.5,-347.5 458.5,-328.5 316.5,-328.5"/>
<text text-anchor="middle" x="387.5" y="-335.5" font-family="Helvetica,sans-Serif" font-size="10.00">Ogre::ColourFaderAffector</text>
</a>
</g>
</g>
<!-- Node1&#45;&gt;Node4 -->
<g id="edge3" class="edge">
<title>Node1&#45;&gt;Node4</title>
<path fill="none" stroke="midnightblue" d="M222.01,-192.89C234.61,-224.16 264.13,-286.45 310,-319 315.47,-322.88 321.65,-325.97 328.06,-328.43"/>
<polygon fill="midnightblue" stroke="midnightblue" points="225.27,-191.61 218.38,-183.56 218.74,-194.15 225.27,-191.61"/>
</g>
<!-- Node5 -->
<g id="node5" class="node">
<title>Node5</title>
<g id="a_node5"><a xlink:href="class_ogre_1_1_colour_fader_affector2.html" target="_top" xlink:title="This plugin subclass of ParticleAffector allows you to alter the colour of particles.">
<polygon fill="none" stroke="black" points="313.5,-290.5 313.5,-309.5 461.5,-309.5 461.5,-290.5 313.5,-290.5"/>
<text text-anchor="middle" x="387.5" y="-297.5" font-family="Helvetica,sans-Serif" font-size="10.00">Ogre::ColourFaderAffector2</text>
</a>
</g>
</g>
<!-- Node1&#45;&gt;Node5 -->
<g id="edge4" class="edge">
<title>Node1&#45;&gt;Node5</title>
<path fill="none" stroke="midnightblue" d="M226.16,-192.32C241.83,-216.43 272.66,-258.41 310,-281 316.44,-284.9 323.64,-288 330.99,-290.46"/>
<polygon fill="midnightblue" stroke="midnightblue" points="229.04,-190.33 220.74,-183.75 223.13,-194.07 229.04,-190.33"/>
</g>
<!-- Node6 -->
<g id="node6" class="node">
<title>Node6</title>
<g id="a_node6"><a xlink:href="class_ogre_1_1_colour_image_affector.html" target="_top" xlink:title=" ">
<polygon fill="none" stroke="black" points="314.5,-252.5 314.5,-271.5 460.5,-271.5 460.5,-252.5 314.5,-252.5"/>
<text text-anchor="middle" x="387.5" y="-259.5" font-family="Helvetica,sans-Serif" font-size="10.00">Ogre::ColourImageAffector</text>
</a>
</g>
</g>
<!-- Node1&#45;&gt;Node6 -->
<g id="edge5" class="edge">
<title>Node1&#45;&gt;Node6</title>
<path fill="none" stroke="midnightblue" d="M233.23,-190.58C251.41,-206.27 280.78,-229.39 310,-243 318.19,-246.81 327.24,-249.92 336.16,-252.44"/>
<polygon fill="midnightblue" stroke="midnightblue" points="235.06,-187.53 225.25,-183.55 230.44,-192.78 235.06,-187.53"/>
</g>
<!-- Node7 -->
<g id="node7" class="node">
<title>Node7</title>
<g id="a_node7"><a xlink:href="class_ogre_1_1_colour_interpolator_affector.html" target="_top" xlink:title=" ">
<polygon fill="none" stroke="black" points="320.5,-203 320.5,-233 454.5,-233 454.5,-203 320.5,-203"/>
<text text-anchor="start" x="328.5" y="-221" font-family="Helvetica,sans-Serif" font-size="10.00">Ogre::ColourInterpolator</text>
<text text-anchor="middle" x="387.5" y="-210" font-family="Helvetica,sans-Serif" font-size="10.00">Affector</text>
</a>
</g>
</g>
<!-- Node1&#45;&gt;Node7 -->
<g id="edge6" class="edge">
<title>Node1&#45;&gt;Node7</title>
<path fill="none" stroke="midnightblue" d="M262.15,-186.1C282.44,-191.3 306.36,-197.44 327.78,-202.93"/>
<polygon fill="midnightblue" stroke="midnightblue" points="262.77,-182.64 252.21,-183.55 261.03,-189.42 262.77,-182.64"/>
</g>
<!-- Node8 -->
<g id="node8" class="node">
<title>Node8</title>
<g id="a_node8"><a xlink:href="class_ogre_1_1_deflector_plane_affector.html" target="_top" xlink:title="This class defines a ParticleAffector which deflects particles.">
<polygon fill="none" stroke="black" points="310,-164.5 310,-183.5 465,-183.5 465,-164.5 310,-164.5"/>
<text text-anchor="middle" x="387.5" y="-171.5" font-family="Helvetica,sans-Serif" font-size="10.00">Ogre::DeflectorPlaneAffector</text>
</a>
</g>
</g>
<!-- Node1&#45;&gt;Node8 -->
<g id="edge7" class="edge">
<title>Node1&#45;&gt;Node8</title>
<path fill="none" stroke="midnightblue" d="M284.18,-174C292.61,-174 301.27,-174 309.8,-174"/>
<polygon fill="midnightblue" stroke="midnightblue" points="284.02,-170.5 274.02,-174 284.02,-177.5 284.02,-170.5"/>
</g>
<!-- Node9 -->
<g id="node9" class="node">
<title>Node9</title>
<g id="a_node9"><a xlink:href="class_ogre_1_1_direction_randomiser_affector.html" target="_top" xlink:title="This class defines a ParticleAffector which applies randomness to the movement of the particles.">
<polygon fill="none" stroke="black" points="313,-115 313,-145 462,-145 462,-115 313,-115"/>
<text text-anchor="start" x="321" y="-133" font-family="Helvetica,sans-Serif" font-size="10.00">Ogre::DirectionRandomiser</text>
<text text-anchor="middle" x="387.5" y="-122" font-family="Helvetica,sans-Serif" font-size="10.00">Affector</text>
</a>
</g>
</g>
<!-- Node1&#45;&gt;Node9 -->
<g id="edge8" class="edge">
<title>Node1&#45;&gt;Node9</title>
<path fill="none" stroke="midnightblue" d="M262.15,-161.9C282.44,-156.7 306.36,-150.56 327.78,-145.07"/>
<polygon fill="midnightblue" stroke="midnightblue" points="261.03,-158.58 252.21,-164.45 262.77,-165.36 261.03,-158.58"/>
</g>
<!-- Node10 -->
<g id="node10" class="node">
<title>Node10</title>
<g id="a_node10"><a xlink:href="class_ogre_1_1_linear_force_affector.html" target="_top" xlink:title="This class defines a ParticleAffector which applies a linear force to particles in a system.">
<polygon fill="none" stroke="black" points="317.5,-76.5 317.5,-95.5 457.5,-95.5 457.5,-76.5 317.5,-76.5"/>
<text text-anchor="middle" x="387.5" y="-83.5" font-family="Helvetica,sans-Serif" font-size="10.00">Ogre::LinearForceAffector</text>
</a>
</g>
</g>
<!-- Node1&#45;&gt;Node10 -->
<g id="edge9" class="edge">
<title>Node1&#45;&gt;Node10</title>
<path fill="none" stroke="midnightblue" d="M233.23,-157.42C251.41,-141.73 280.78,-118.61 310,-105 318.19,-101.19 327.24,-98.08 336.16,-95.56"/>
<polygon fill="midnightblue" stroke="midnightblue" points="230.44,-155.22 225.25,-164.45 235.06,-160.47 230.44,-155.22"/>
</g>
<!-- Node11 -->
<g id="node11" class="node">
<title>Node11</title>
<g id="a_node11"><a xlink:href="class_ogre_1_1_rotation_affector.html" target="_top" xlink:title="This plugin subclass of ParticleAffector allows you to alter the rotation of particles.">
<polygon fill="none" stroke="black" points="325,-38.5 325,-57.5 450,-57.5 450,-38.5 325,-38.5"/>
<text text-anchor="middle" x="387.5" y="-45.5" font-family="Helvetica,sans-Serif" font-size="10.00">Ogre::RotationAffector</text>
</a>
</g>
</g>
<!-- Node1&#45;&gt;Node11 -->
<g id="edge10" class="edge">
<title>Node1&#45;&gt;Node11</title>
<path fill="none" stroke="midnightblue" d="M226.16,-155.68C241.83,-131.57 272.66,-89.59 310,-67 316.44,-63.1 323.64,-60 330.99,-57.54"/>
<polygon fill="midnightblue" stroke="midnightblue" points="223.13,-153.93 220.74,-164.25 229.04,-157.67 223.13,-153.93"/>
</g>
<!-- Node12 -->
<g id="node12" class="node">
<title>Node12</title>
<g id="a_node12"><a xlink:href="class_ogre_1_1_scale_affector.html" target="_top" xlink:title="This plugin subclass of ParticleAffector allows you to alter the scale of particles.">
<polygon fill="none" stroke="black" points="332.5,-0.5 332.5,-19.5 442.5,-19.5 442.5,-0.5 332.5,-0.5"/>
<text text-anchor="middle" x="387.5" y="-7.5" font-family="Helvetica,sans-Serif" font-size="10.00">Ogre::ScaleAffector</text>
</a>
</g>
</g>
<!-- Node1&#45;&gt;Node12 -->
<g id="edge11" class="edge">
<title>Node1&#45;&gt;Node12</title>
<path fill="none" stroke="midnightblue" d="M222.01,-155.11C234.61,-123.84 264.13,-61.55 310,-29 316.7,-24.25 324.46,-20.68 332.41,-18"/>
<polygon fill="midnightblue" stroke="midnightblue" points="218.74,-153.85 218.38,-164.44 225.27,-156.39 218.74,-153.85"/>
</g>
<!-- Node2 -->
<g id="node2" class="node">
<title>Node2</title>
<g id="a_node2"><a xlink:href="class_ogre_1_1_string_interface.html" target="_top" xlink:title="Class defining the common interface which classes can use to present a reflection&#45;style,...">
<polygon fill="none" stroke="black" points="0,-183.5 0,-202.5 118,-202.5 118,-183.5 0,-183.5"/>
<text text-anchor="middle" x="59" y="-190.5" font-family="Helvetica,sans-Serif" font-size="10.00">Ogre::StringInterface</text>
</a>
</g>
</g>
<!-- Node2&#45;&gt;Node1 -->
<g id="edge1" class="edge">
<title>Node2&#45;&gt;Node1</title>
<path fill="none" stroke="midnightblue" d="M128.23,-184.53C136.78,-183.47 145.47,-182.39 153.87,-181.34"/>
<polygon fill="midnightblue" stroke="midnightblue" points="127.77,-181.06 118.28,-185.76 128.63,-188 127.77,-181.06"/>
</g>
<!-- Node3 -->
<g id="node3" class="node">
<title>Node3</title>
<g id="a_node3"><a xlink:title=" ">
<polygon fill="none" stroke="#bfbfbf" points="32.5,-145.5 32.5,-164.5 85.5,-164.5 85.5,-145.5 32.5,-145.5"/>
<text text-anchor="middle" x="59" y="-152.5" font-family="Helvetica,sans-Serif" font-size="10.00">FXAlloc</text>
</a>
</g>
</g>
<!-- Node3&#45;&gt;Node1 -->
<g id="edge2" class="edge">
<title>Node3&#45;&gt;Node1</title>
<path fill="none" stroke="midnightblue" d="M95.82,-159.45C113.11,-161.59 134.3,-164.23 153.89,-166.66"/>
<polygon fill="midnightblue" stroke="midnightblue" points="95.96,-155.94 85.61,-158.18 95.1,-162.89 95.96,-155.94"/>
</g>
</g>
</svg>
