<?xml version="1.0" encoding="UTF-8" standalone="no"?>
<!DOCTYPE svg PUBLIC "-//W3C//DTD SVG 1.1//EN"
 "http://www.w3.org/Graphics/SVG/1.1/DTD/svg11.dtd">
<!-- Generated by graphviz version 2.43.0 (0)
 -->
<!-- Title: Ogre::RTShader::ProgramProcessor Pages: 1 -->
<svg width="564pt" height="186pt"
 viewBox="0.00 0.00 564.00 186.00" xmlns="http://www.w3.org/2000/svg" xmlns:xlink="http://www.w3.org/1999/xlink">
<g id="graph0" class="graph" transform="scale(1 1) rotate(0) translate(4 182)">
<title>Ogre::RTShader::ProgramProcessor</title>
<!-- Node1 -->
<g id="node1" class="node">
<title>Node1</title>
<g id="a_node1"><a xlink:title="A class that provides extra processing services on CPU based programs.">
<polygon fill="#bfbfbf" stroke="black" points="159,-79 159,-98 345,-98 345,-79 159,-79"/>
<text text-anchor="middle" x="252" y="-86" font-family="Helvetica,sans-Serif" font-size="10.00">Ogre::RTShader::ProgramProcessor</text>
</a>
</g>
</g>
<!-- Node3 -->
<g id="node3" class="node">
<title>Node3</title>
<g id="a_node3"><a xlink:href="class_ogre_1_1_r_t_shader_1_1_c_g_program_processor.html" target="_top" xlink:title="CG Language program processor class.">
<polygon fill="none" stroke="black" points="392,-147.5 392,-177.5 545,-177.5 545,-147.5 392,-147.5"/>
<text text-anchor="start" x="400" y="-165.5" font-family="Helvetica,sans-Serif" font-size="10.00">Ogre::RTShader::CGProgram</text>
<text text-anchor="middle" x="468.5" y="-154.5" font-family="Helvetica,sans-Serif" font-size="10.00">Processor</text>
</a>
</g>
</g>
<!-- Node1&#45;&gt;Node3 -->
<g id="edge2" class="edge">
<title>Node1&#45;&gt;Node3</title>
<path fill="none" stroke="midnightblue" d="M284.66,-101.9C310.36,-112.54 347.68,-127.4 381,-138.5 390.32,-141.6 400.28,-144.63 410.02,-147.44"/>
<polygon fill="midnightblue" stroke="midnightblue" points="285.98,-98.67 275.41,-98.05 283.29,-105.13 285.98,-98.67"/>
</g>
<!-- Node4 -->
<g id="node4" class="node">
<title>Node4</title>
<g id="a_node4"><a xlink:href="class_ogre_1_1_r_t_shader_1_1_g_l_s_l_e_s_program_processor.html" target="_top" xlink:title="GLSL ES Language program processor class.">
<polygon fill="none" stroke="black" points="381,-98.5 381,-128.5 556,-128.5 556,-98.5 381,-98.5"/>
<text text-anchor="start" x="389" y="-116.5" font-family="Helvetica,sans-Serif" font-size="10.00">Ogre::RTShader::GLSLESProgram</text>
<text text-anchor="middle" x="468.5" y="-105.5" font-family="Helvetica,sans-Serif" font-size="10.00">Processor</text>
</a>
</g>
</g>
<!-- Node1&#45;&gt;Node4 -->
<g id="edge3" class="edge">
<title>Node1&#45;&gt;Node4</title>
<path fill="none" stroke="midnightblue" d="M344.66,-99.18C356.6,-100.57 368.81,-102 380.67,-103.38"/>
<polygon fill="midnightblue" stroke="midnightblue" points="345.04,-95.7 334.71,-98.02 344.23,-102.66 345.04,-95.7"/>
</g>
<!-- Node5 -->
<g id="node5" class="node">
<title>Node5</title>
<g id="a_node5"><a xlink:href="class_ogre_1_1_r_t_shader_1_1_g_l_s_l_program_processor.html" target="_top" xlink:title="GLSL Language program processor class.">
<polygon fill="none" stroke="black" points="387,-49.5 387,-79.5 550,-79.5 550,-49.5 387,-49.5"/>
<text text-anchor="start" x="395" y="-67.5" font-family="Helvetica,sans-Serif" font-size="10.00">Ogre::RTShader::GLSLProgram</text>
<text text-anchor="middle" x="468.5" y="-56.5" font-family="Helvetica,sans-Serif" font-size="10.00">Processor</text>
</a>
</g>
</g>
<!-- Node1&#45;&gt;Node5 -->
<g id="edge4" class="edge">
<title>Node1&#45;&gt;Node5</title>
<path fill="none" stroke="midnightblue" d="M348.3,-77.84C361.12,-76.4 374.17,-74.94 386.71,-73.54"/>
<polygon fill="midnightblue" stroke="midnightblue" points="347.63,-74.39 338.08,-78.98 348.41,-81.35 347.63,-74.39"/>
</g>
<!-- Node6 -->
<g id="node6" class="node">
<title>Node6</title>
<g id="a_node6"><a xlink:href="class_ogre_1_1_r_t_shader_1_1_h_l_s_l_program_processor.html" target="_top" xlink:title="CG Language program processor class.">
<polygon fill="none" stroke="black" points="387,-0.5 387,-30.5 550,-30.5 550,-0.5 387,-0.5"/>
<text text-anchor="start" x="395" y="-18.5" font-family="Helvetica,sans-Serif" font-size="10.00">Ogre::RTShader::HLSLProgram</text>
<text text-anchor="middle" x="468.5" y="-7.5" font-family="Helvetica,sans-Serif" font-size="10.00">Processor</text>
</a>
</g>
</g>
<!-- Node1&#45;&gt;Node6 -->
<g id="edge5" class="edge">
<title>Node1&#45;&gt;Node6</title>
<path fill="none" stroke="midnightblue" d="M285.49,-75.08C311.18,-64.71 348.08,-50.34 381,-39.5 390.33,-36.43 400.3,-33.42 410.04,-30.62"/>
<polygon fill="midnightblue" stroke="midnightblue" points="283.83,-71.98 275.89,-78.98 286.47,-78.46 283.83,-71.98"/>
</g>
<!-- Node2 -->
<g id="node2" class="node">
<title>Node2</title>
<g id="a_node2"><a xlink:title=" ">
<polygon fill="none" stroke="#bfbfbf" points="0,-79 0,-98 123,-98 123,-79 0,-79"/>
<text text-anchor="middle" x="61.5" y="-86" font-family="Helvetica,sans-Serif" font-size="10.00">RTShaderSystemAlloc</text>
</a>
</g>
</g>
<!-- Node2&#45;&gt;Node1 -->
<g id="edge1" class="edge">
<title>Node2&#45;&gt;Node1</title>
<path fill="none" stroke="midnightblue" d="M133.24,-88.5C141.62,-88.5 150.25,-88.5 158.87,-88.5"/>
<polygon fill="midnightblue" stroke="midnightblue" points="133.18,-85 123.18,-88.5 133.18,-92 133.18,-85"/>
</g>
</g>
</svg>
