<?xml version="1.0" encoding="UTF-8" standalone="no"?>
<!DOCTYPE svg PUBLIC "-//W3C//DTD SVG 1.1//EN"
 "http://www.w3.org/Graphics/SVG/1.1/DTD/svg11.dtd">
<!-- Generated by graphviz version 2.43.0 (0)
 -->
<!-- Title: Ogre::Terrain Pages: 1 -->
<svg width="278pt" height="176pt"
 viewBox="0.00 0.00 278.00 175.50" xmlns="http://www.w3.org/2000/svg" xmlns:xlink="http://www.w3.org/1999/xlink">
<g id="graph0" class="graph" transform="scale(1 1) rotate(0) translate(4 171.5)">
<title>Ogre::Terrain</title>
<!-- Node1 -->
<g id="node1" class="node">
<title>Node1</title>
<g id="a_node1"><a xlink:title="The main containing class for a chunk of terrain.">
<polygon fill="#bfbfbf" stroke="black" points="191,-68.5 191,-87.5 270,-87.5 270,-68.5 191,-68.5"/>
<text text-anchor="middle" x="230.5" y="-75.5" font-family="Helvetica,sans-Serif" font-size="10.00">Ogre::Terrain</text>
</a>
</g>
</g>
<!-- Node2 -->
<g id="node2" class="node">
<title>Node2</title>
<g id="a_node2"><a xlink:href="class_ogre_1_1_scene_manager_1_1_listener.html" target="_top" xlink:title="Class that allows listening in on the various stages of SceneManager processing, so that custom behav...">
<polygon fill="none" stroke="black" points="18.5,-137 18.5,-167 136.5,-167 136.5,-137 18.5,-137"/>
<text text-anchor="start" x="26.5" y="-155" font-family="Helvetica,sans-Serif" font-size="10.00">Ogre::SceneManager</text>
<text text-anchor="middle" x="77.5" y="-144" font-family="Helvetica,sans-Serif" font-size="10.00">::Listener</text>
</a>
</g>
</g>
<!-- Node2&#45;&gt;Node1 -->
<g id="edge1" class="edge">
<title>Node2&#45;&gt;Node1</title>
<path fill="none" stroke="midnightblue" d="M142.57,-133.43C146.83,-131.73 151.01,-129.92 155,-128 178.59,-116.68 203.3,-98.68 217.51,-87.65"/>
<polygon fill="midnightblue" stroke="midnightblue" points="141.28,-130.17 133.16,-136.97 143.75,-136.72 141.28,-130.17"/>
</g>
<!-- Node3 -->
<g id="node3" class="node">
<title>Node3</title>
<g id="a_node3"><a xlink:href="class_ogre_1_1_work_queue_1_1_request_handler.html" target="_top" xlink:title="Interface definition for a handler of requests.">
<polygon fill="none" stroke="black" points="3.5,-88 3.5,-118 151.5,-118 151.5,-88 3.5,-88"/>
<text text-anchor="start" x="11.5" y="-106" font-family="Helvetica,sans-Serif" font-size="10.00">Ogre::WorkQueue::Request</text>
<text text-anchor="middle" x="77.5" y="-95" font-family="Helvetica,sans-Serif" font-size="10.00">Handler</text>
</a>
</g>
</g>
<!-- Node3&#45;&gt;Node1 -->
<g id="edge2" class="edge">
<title>Node3&#45;&gt;Node1</title>
<path fill="none" stroke="midnightblue" d="M161.92,-89.19C172.02,-87.52 181.93,-85.88 190.91,-84.39"/>
<polygon fill="midnightblue" stroke="midnightblue" points="161.08,-85.78 151.79,-90.87 162.23,-92.69 161.08,-85.78"/>
</g>
<!-- Node4 -->
<g id="node4" class="node">
<title>Node4</title>
<g id="a_node4"><a xlink:href="class_ogre_1_1_work_queue_1_1_response_handler.html" target="_top" xlink:title="Interface definition for a handler of responses.">
<polygon fill="none" stroke="black" points="0,-39 0,-69 155,-69 155,-39 0,-39"/>
<text text-anchor="start" x="8" y="-57" font-family="Helvetica,sans-Serif" font-size="10.00">Ogre::WorkQueue::Response</text>
<text text-anchor="middle" x="77.5" y="-46" font-family="Helvetica,sans-Serif" font-size="10.00">Handler</text>
</a>
</g>
</g>
<!-- Node4&#45;&gt;Node1 -->
<g id="edge3" class="edge">
<title>Node4&#45;&gt;Node1</title>
<path fill="none" stroke="midnightblue" d="M165.33,-67.8C174.14,-69.2 182.73,-70.57 190.62,-71.82"/>
<polygon fill="midnightblue" stroke="midnightblue" points="165.75,-64.32 155.33,-66.21 164.65,-71.24 165.75,-64.32"/>
</g>
<!-- Node5 -->
<g id="node5" class="node">
<title>Node5</title>
<g id="a_node5"><a xlink:title=" ">
<polygon fill="none" stroke="#bfbfbf" points="40.5,-0.5 40.5,-19.5 114.5,-19.5 114.5,-0.5 40.5,-0.5"/>
<text text-anchor="middle" x="77.5" y="-7.5" font-family="Helvetica,sans-Serif" font-size="10.00">TerrainAlloc</text>
</a>
</g>
</g>
<!-- Node5&#45;&gt;Node1 -->
<g id="edge4" class="edge">
<title>Node5&#45;&gt;Node1</title>
<path fill="none" stroke="midnightblue" d="M124.71,-19.56C134.9,-22.36 145.48,-25.82 155,-30 178.52,-40.34 203.06,-57.61 217.28,-68.38"/>
<polygon fill="midnightblue" stroke="midnightblue" points="125.27,-16.09 114.71,-16.98 123.52,-22.87 125.27,-16.09"/>
</g>
</g>
</svg>
