<?xml version="1.0" encoding="UTF-8" standalone="no"?>
<!DOCTYPE svg PUBLIC "-//W3C//DTD SVG 1.1//EN"
 "http://www.w3.org/Graphics/SVG/1.1/DTD/svg11.dtd">
<!-- Generated by graphviz version 2.43.0 (0)
 -->
<!-- Title: Ogre::ArchiveFactory Pages: 1 -->
<svg width="713pt" height="121pt"
 viewBox="0.00 0.00 713.00 121.00" xmlns="http://www.w3.org/2000/svg" xmlns:xlink="http://www.w3.org/1999/xlink">
<g id="graph0" class="graph" transform="scale(1 1) rotate(0) translate(4 117)">
<title>Ogre::ArchiveFactory</title>
<!-- Node1 -->
<g id="node1" class="node">
<title>Node1</title>
<g id="a_node1"><a xlink:title="Abstract factory class, archive codec plugins can register concrete subclasses of this.">
<polygon fill="#bfbfbf" stroke="black" points="193,-44 193,-63 311,-63 311,-44 193,-44"/>
<text text-anchor="middle" x="252" y="-51" font-family="Helvetica,sans-Serif" font-size="10.00">Ogre::ArchiveFactory</text>
</a>
</g>
</g>
<!-- Node4 -->
<g id="node4" class="node">
<title>Node4</title>
<g id="a_node4"><a xlink:href="class_ogre_1_1_a_p_k_file_system_archive_factory.html" target="_top" xlink:title=" ">
<polygon fill="none" stroke="black" points="355,-82.5 355,-112.5 511,-112.5 511,-82.5 355,-82.5"/>
<text text-anchor="start" x="363" y="-100.5" font-family="Helvetica,sans-Serif" font-size="10.00">Ogre::APKFileSystemArchive</text>
<text text-anchor="middle" x="433" y="-89.5" font-family="Helvetica,sans-Serif" font-size="10.00">Factory</text>
</a>
</g>
</g>
<!-- Node1&#45;&gt;Node4 -->
<g id="edge3" class="edge">
<title>Node1&#45;&gt;Node4</title>
<path fill="none" stroke="midnightblue" d="M301.64,-65.46C322.93,-70.69 348.15,-76.89 370.71,-82.43"/>
<polygon fill="midnightblue" stroke="midnightblue" points="302.39,-62.04 291.84,-63.05 300.72,-68.83 302.39,-62.04"/>
</g>
<!-- Node5 -->
<g id="node5" class="node">
<title>Node5</title>
<g id="a_node5"><a xlink:href="class_ogre_1_1_file_system_archive_factory.html" target="_top" xlink:title="Specialisation of the ArchiveFactory to allow reading of files from filesystem folders / directories.">
<polygon fill="none" stroke="black" points="347,-44 347,-63 519,-63 519,-44 347,-44"/>
<text text-anchor="middle" x="433" y="-51" font-family="Helvetica,sans-Serif" font-size="10.00">Ogre::FileSystemArchiveFactory</text>
</a>
</g>
</g>
<!-- Node1&#45;&gt;Node5 -->
<g id="edge4" class="edge">
<title>Node1&#45;&gt;Node5</title>
<path fill="none" stroke="midnightblue" d="M321.21,-53.5C329.6,-53.5 338.27,-53.5 346.87,-53.5"/>
<polygon fill="midnightblue" stroke="midnightblue" points="321.12,-50 311.12,-53.5 321.12,-57 321.12,-50"/>
</g>
<!-- Node6 -->
<g id="node6" class="node">
<title>Node6</title>
<g id="a_node6"><a xlink:href="class_ogre_1_1_zip_archive_factory.html" target="_top" xlink:title="Specialisation to allow reading of files from a zip format source archive.">
<polygon fill="none" stroke="black" points="366,-6 366,-25 500,-25 500,-6 366,-6"/>
<text text-anchor="middle" x="433" y="-13" font-family="Helvetica,sans-Serif" font-size="10.00">Ogre::ZipArchiveFactory</text>
</a>
</g>
</g>
<!-- Node1&#45;&gt;Node6 -->
<g id="edge5" class="edge">
<title>Node1&#45;&gt;Node6</title>
<path fill="none" stroke="midnightblue" d="M308.02,-41.82C333.41,-36.43 363.16,-30.11 387.16,-25.02"/>
<polygon fill="midnightblue" stroke="midnightblue" points="307.22,-38.41 298.17,-43.91 308.68,-45.26 307.22,-38.41"/>
</g>
<!-- Node2 -->
<g id="node2" class="node">
<title>Node2</title>
<g id="a_node2"><a xlink:href="class_ogre_1_1_factory_obj.html" target="_top" xlink:title=" ">
<polygon fill="none" stroke="black" points="0,-63 0,-82 157,-82 157,-63 0,-63"/>
<text text-anchor="middle" x="78.5" y="-70" font-family="Helvetica,sans-Serif" font-size="10.00">Ogre::FactoryObj&lt; Archive &gt;</text>
</a>
</g>
</g>
<!-- Node2&#45;&gt;Node1 -->
<g id="edge1" class="edge">
<title>Node2&#45;&gt;Node1</title>
<path fill="none" stroke="midnightblue" d="M167.35,-62.77C175.98,-61.81 184.58,-60.86 192.8,-59.95"/>
<polygon fill="midnightblue" stroke="midnightblue" points="166.78,-59.31 157.22,-63.89 167.55,-66.27 166.78,-59.31"/>
</g>
<!-- Node3 -->
<g id="node3" class="node">
<title>Node3</title>
<g id="a_node3"><a xlink:title=" ">
<polygon fill="none" stroke="#bfbfbf" points="40,-25 40,-44 117,-44 117,-25 40,-25"/>
<text text-anchor="middle" x="78.5" y="-32" font-family="Helvetica,sans-Serif" font-size="10.00">ArchiveAlloc</text>
</a>
</g>
</g>
<!-- Node3&#45;&gt;Node1 -->
<g id="edge2" class="edge">
<title>Node3&#45;&gt;Node1</title>
<path fill="none" stroke="midnightblue" d="M127.12,-39.78C147.5,-42.03 171.48,-44.69 192.88,-47.06"/>
<polygon fill="midnightblue" stroke="midnightblue" points="127.46,-36.29 117.14,-38.67 126.69,-43.25 127.46,-36.29"/>
</g>
<!-- Node7 -->
<g id="node7" class="node">
<title>Node7</title>
<g id="a_node7"><a xlink:href="class_ogre_1_1_embedded_zip_archive_factory.html" target="_top" xlink:title="Specialisation of ZipArchiveFactory for embedded Zip files.">
<polygon fill="none" stroke="black" points="555,-0.5 555,-30.5 705,-30.5 705,-0.5 555,-0.5"/>
<text text-anchor="start" x="563" y="-18.5" font-family="Helvetica,sans-Serif" font-size="10.00">Ogre::EmbeddedZipArchive</text>
<text text-anchor="middle" x="630" y="-7.5" font-family="Helvetica,sans-Serif" font-size="10.00">Factory</text>
</a>
</g>
</g>
<!-- Node6&#45;&gt;Node7 -->
<g id="edge6" class="edge">
<title>Node6&#45;&gt;Node7</title>
<path fill="none" stroke="midnightblue" d="M510.04,-15.5C524.71,-15.5 540.05,-15.5 554.66,-15.5"/>
<polygon fill="midnightblue" stroke="midnightblue" points="510.02,-12 500.02,-15.5 510.02,-19 510.02,-12"/>
</g>
</g>
</svg>
