<?xml version="1.0" encoding="UTF-8" standalone="no"?>
<!DOCTYPE svg PUBLIC "-//W3C//DTD SVG 1.1//EN"
 "http://www.w3.org/Graphics/SVG/1.1/DTD/svg11.dtd">
<!-- Generated by graphviz version 2.43.0 (0)
 -->
<!-- Title: Ogre::HardwareUniformBuffer Pages: 1 -->
<svg width="642pt" height="186pt"
 viewBox="0.00 0.00 642.00 186.00" xmlns="http://www.w3.org/2000/svg" xmlns:xlink="http://www.w3.org/1999/xlink">
<g id="graph0" class="graph" transform="scale(1 1) rotate(0) translate(4 182)">
<title>Ogre::HardwareUniformBuffer</title>
<!-- Node1 -->
<g id="node1" class="node">
<title>Node1</title>
<g id="a_node1"><a xlink:title="Specialisation of HardwareBuffer for a uniform buffer.">
<polygon fill="#bfbfbf" stroke="black" points="264,-79 264,-98 426,-98 426,-79 264,-79"/>
<text text-anchor="middle" x="345" y="-86" font-family="Helvetica,sans-Serif" font-size="10.00">Ogre::HardwareUniformBuffer</text>
</a>
</g>
</g>
<!-- Node4 -->
<g id="node4" class="node">
<title>Node4</title>
<g id="a_node4"><a xlink:href="class_ogre_1_1_d3_d11_hardware_uniform_buffer.html" target="_top" xlink:title="Specialisation of HardwareBuffer for D3D11.">
<polygon fill="none" stroke="black" points="465,-147.5 465,-177.5 631,-177.5 631,-147.5 465,-147.5"/>
<text text-anchor="start" x="473" y="-165.5" font-family="Helvetica,sans-Serif" font-size="10.00">Ogre::D3D11HardwareUniform</text>
<text text-anchor="middle" x="548" y="-154.5" font-family="Helvetica,sans-Serif" font-size="10.00">Buffer</text>
</a>
</g>
</g>
<!-- Node1&#45;&gt;Node4 -->
<g id="edge3" class="edge">
<title>Node1&#45;&gt;Node4</title>
<path fill="none" stroke="midnightblue" d="M375.49,-102.49C398.68,-113.18 431.98,-127.84 462,-138.5 470.81,-141.63 480.26,-144.63 489.52,-147.38"/>
<polygon fill="midnightblue" stroke="midnightblue" points="376.75,-99.22 366.21,-98.18 373.8,-105.57 376.75,-99.22"/>
</g>
<!-- Node5 -->
<g id="node5" class="node">
<title>Node5</title>
<g id="a_node5"><a xlink:href="class_ogre_1_1_default_hardware_uniform_buffer.html" target="_top" xlink:title="Specialisation of HardwareUniformBuffer for emulation.">
<polygon fill="none" stroke="black" points="463.5,-98.5 463.5,-128.5 632.5,-128.5 632.5,-98.5 463.5,-98.5"/>
<text text-anchor="start" x="471.5" y="-116.5" font-family="Helvetica,sans-Serif" font-size="10.00">Ogre::DefaultHardwareUniform</text>
<text text-anchor="middle" x="548" y="-105.5" font-family="Helvetica,sans-Serif" font-size="10.00">Buffer</text>
</a>
</g>
</g>
<!-- Node1&#45;&gt;Node5 -->
<g id="edge4" class="edge">
<title>Node1&#45;&gt;Node5</title>
<path fill="none" stroke="midnightblue" d="M432.64,-99.28C442.8,-100.54 453.16,-101.83 463.28,-103.09"/>
<polygon fill="midnightblue" stroke="midnightblue" points="432.92,-95.78 422.56,-98.02 432.05,-102.73 432.92,-95.78"/>
</g>
<!-- Node6 -->
<g id="node6" class="node">
<title>Node6</title>
<g id="a_node6"><a xlink:href="class_ogre_1_1_g_l3_plus_hardware_uniform_buffer.html" target="_top" xlink:title="Specialisation of HardwareUniformBuffer for OpenGL.">
<polygon fill="none" stroke="black" points="462,-49.5 462,-79.5 634,-79.5 634,-49.5 462,-49.5"/>
<text text-anchor="start" x="470" y="-67.5" font-family="Helvetica,sans-Serif" font-size="10.00">Ogre::GL3PlusHardwareUniform</text>
<text text-anchor="middle" x="548" y="-56.5" font-family="Helvetica,sans-Serif" font-size="10.00">Buffer</text>
</a>
</g>
</g>
<!-- Node1&#45;&gt;Node6 -->
<g id="edge5" class="edge">
<title>Node1&#45;&gt;Node6</title>
<path fill="none" stroke="midnightblue" d="M435.8,-77.78C444.43,-76.75 453.17,-75.7 461.75,-74.68"/>
<polygon fill="midnightblue" stroke="midnightblue" points="435.24,-74.32 425.73,-78.98 436.07,-81.27 435.24,-74.32"/>
</g>
<!-- Node7 -->
<g id="node7" class="node">
<title>Node7</title>
<g id="a_node7"><a xlink:href="class_ogre_1_1_g_l_e_s2_hardware_uniform_buffer.html" target="_top" xlink:title="Specialisation of HardwareUniformBuffer for OpenGL.">
<polygon fill="none" stroke="black" points="466,-0.5 466,-30.5 630,-30.5 630,-0.5 466,-0.5"/>
<text text-anchor="start" x="474" y="-18.5" font-family="Helvetica,sans-Serif" font-size="10.00">Ogre::GLES2HardwareUniform</text>
<text text-anchor="middle" x="548" y="-7.5" font-family="Helvetica,sans-Serif" font-size="10.00">Buffer</text>
</a>
</g>
</g>
<!-- Node1&#45;&gt;Node7 -->
<g id="edge6" class="edge">
<title>Node1&#45;&gt;Node7</title>
<path fill="none" stroke="midnightblue" d="M375.94,-74.64C399.13,-64.2 432.22,-49.95 462,-39.5 470.97,-36.35 480.58,-33.32 490,-30.54"/>
<polygon fill="midnightblue" stroke="midnightblue" points="374.31,-71.53 366.65,-78.85 377.2,-77.91 374.31,-71.53"/>
</g>
<!-- Node2 -->
<g id="node2" class="node">
<title>Node2</title>
<g id="a_node2"><a xlink:href="class_ogre_1_1_hardware_buffer.html" target="_top" xlink:title="Abstract class defining common features of hardware buffers.">
<polygon fill="none" stroke="black" points="106,-79 106,-98 228,-98 228,-79 106,-79"/>
<text text-anchor="middle" x="167" y="-86" font-family="Helvetica,sans-Serif" font-size="10.00">Ogre::HardwareBuffer</text>
</a>
</g>
</g>
<!-- Node2&#45;&gt;Node1 -->
<g id="edge1" class="edge">
<title>Node2&#45;&gt;Node1</title>
<path fill="none" stroke="midnightblue" d="M238.25,-88.5C246.7,-88.5 255.38,-88.5 263.96,-88.5"/>
<polygon fill="midnightblue" stroke="midnightblue" points="238.08,-85 228.08,-88.5 238.08,-92 238.08,-85"/>
</g>
<!-- Node3 -->
<g id="node3" class="node">
<title>Node3</title>
<g id="a_node3"><a xlink:title=" ">
<polygon fill="none" stroke="#bfbfbf" points="0,-79 0,-98 70,-98 70,-79 0,-79"/>
<text text-anchor="middle" x="35" y="-86" font-family="Helvetica,sans-Serif" font-size="10.00">BufferAlloc</text>
</a>
</g>
</g>
<!-- Node3&#45;&gt;Node2 -->
<g id="edge2" class="edge">
<title>Node3&#45;&gt;Node2</title>
<path fill="none" stroke="midnightblue" d="M80.3,-88.5C88.55,-88.5 97.3,-88.5 105.93,-88.5"/>
<polygon fill="midnightblue" stroke="midnightblue" points="80.16,-85 70.16,-88.5 80.16,-92 80.16,-85"/>
</g>
</g>
</svg>
