<?xml version="1.0" encoding="UTF-8" standalone="no"?>
<!DOCTYPE svg PUBLIC "-//W3C//DTD SVG 1.1//EN"
 "http://www.w3.org/Graphics/SVG/1.1/DTD/svg11.dtd">
<!-- Generated by graphviz version 2.43.0 (0)
 -->
<!-- Title: Ogre::RenderSystem Pages: 1 -->
<svg width="655pt" height="142pt"
 viewBox="0.00 0.00 655.00 142.00" xmlns="http://www.w3.org/2000/svg" xmlns:xlink="http://www.w3.org/1999/xlink">
<g id="graph0" class="graph" transform="scale(1 1) rotate(0) translate(4 138)">
<title>Ogre::RenderSystem</title>
<!-- Node1 -->
<g id="node1" class="node">
<title>Node1</title>
<g id="a_node1"><a xlink:title="Defines the functionality of a 3D API.">
<polygon fill="#bfbfbf" stroke="black" points="128,-57.5 128,-76.5 245,-76.5 245,-57.5 128,-57.5"/>
<text text-anchor="middle" x="186.5" y="-64.5" font-family="Helvetica,sans-Serif" font-size="10.00">Ogre::RenderSystem</text>
</a>
</g>
</g>
<!-- Node3 -->
<g id="node3" class="node">
<title>Node3</title>
<g id="a_node3"><a xlink:href="class_ogre_1_1_d3_d11_render_system.html" target="_top" xlink:title="Implementation of DirectX11 as a rendering system.">
<polygon fill="none" stroke="black" points="293,-114.5 293,-133.5 443,-133.5 443,-114.5 293,-114.5"/>
<text text-anchor="middle" x="368" y="-121.5" font-family="Helvetica,sans-Serif" font-size="10.00">Ogre::D3D11RenderSystem</text>
</a>
</g>
</g>
<!-- Node1&#45;&gt;Node3 -->
<g id="edge2" class="edge">
<title>Node1&#45;&gt;Node3</title>
<path fill="none" stroke="midnightblue" d="M217.73,-80.8C235.81,-88.67 259.4,-98.28 281,-105 292.53,-108.59 305.14,-111.77 317.06,-114.46"/>
<polygon fill="midnightblue" stroke="midnightblue" points="218.86,-77.47 208.3,-76.64 216.03,-83.88 218.86,-77.47"/>
</g>
<!-- Node4 -->
<g id="node4" class="node">
<title>Node4</title>
<g id="a_node4"><a xlink:href="class_ogre_1_1_d3_d9_render_system.html" target="_top" xlink:title="Implementation of DirectX9 as a rendering system.">
<polygon fill="none" stroke="black" points="296,-76.5 296,-95.5 440,-95.5 440,-76.5 296,-76.5"/>
<text text-anchor="middle" x="368" y="-83.5" font-family="Helvetica,sans-Serif" font-size="10.00">Ogre::D3D9RenderSystem</text>
</a>
</g>
</g>
<!-- Node1&#45;&gt;Node4 -->
<g id="edge3" class="edge">
<title>Node1&#45;&gt;Node4</title>
<path fill="none" stroke="midnightblue" d="M255.26,-74.17C268.51,-75.58 282.45,-77.05 295.81,-78.46"/>
<polygon fill="midnightblue" stroke="midnightblue" points="255.6,-70.69 245.28,-73.12 254.86,-77.65 255.6,-70.69"/>
</g>
<!-- Node5 -->
<g id="node5" class="node">
<title>Node5</title>
<g id="a_node5"><a xlink:href="class_ogre_1_1_g_l_render_system_common.html" target="_top" xlink:title=" ">
<polygon fill="none" stroke="black" points="281,-38.5 281,-57.5 455,-57.5 455,-38.5 281,-38.5"/>
<text text-anchor="middle" x="368" y="-45.5" font-family="Helvetica,sans-Serif" font-size="10.00">Ogre::GLRenderSystemCommon</text>
</a>
</g>
</g>
<!-- Node1&#45;&gt;Node5 -->
<g id="edge4" class="edge">
<title>Node1&#45;&gt;Node5</title>
<path fill="none" stroke="midnightblue" d="M255.32,-59.82C263.68,-58.94 272.31,-58.02 280.9,-57.11"/>
<polygon fill="midnightblue" stroke="midnightblue" points="254.86,-56.35 245.28,-60.88 255.6,-63.31 254.86,-56.35"/>
</g>
<!-- Node9 -->
<g id="node9" class="node">
<title>Node9</title>
<g id="a_node9"><a xlink:href="class_ogre_1_1_metal_render_system.html" target="_top" xlink:title="Implementation of Metal as a rendering system.">
<polygon fill="none" stroke="black" points="295.5,-0.5 295.5,-19.5 440.5,-19.5 440.5,-0.5 295.5,-0.5"/>
<text text-anchor="middle" x="368" y="-7.5" font-family="Helvetica,sans-Serif" font-size="10.00">Ogre::MetalRenderSystem</text>
</a>
</g>
</g>
<!-- Node1&#45;&gt;Node9 -->
<g id="edge8" class="edge">
<title>Node1&#45;&gt;Node9</title>
<path fill="none" stroke="midnightblue" d="M217.73,-53.2C235.81,-45.33 259.4,-35.72 281,-29 292.53,-25.41 305.14,-22.23 317.06,-19.54"/>
<polygon fill="midnightblue" stroke="midnightblue" points="216.03,-50.12 208.3,-57.36 218.86,-56.53 216.03,-50.12"/>
</g>
<!-- Node2 -->
<g id="node2" class="node">
<title>Node2</title>
<g id="a_node2"><a xlink:title=" ">
<polygon fill="none" stroke="#bfbfbf" points="0,-57.5 0,-76.5 92,-76.5 92,-57.5 0,-57.5"/>
<text text-anchor="middle" x="46" y="-64.5" font-family="Helvetica,sans-Serif" font-size="10.00">RenderSysAlloc</text>
</a>
</g>
</g>
<!-- Node2&#45;&gt;Node1 -->
<g id="edge1" class="edge">
<title>Node2&#45;&gt;Node1</title>
<path fill="none" stroke="midnightblue" d="M102.41,-67C110.8,-67 119.48,-67 127.92,-67"/>
<polygon fill="midnightblue" stroke="midnightblue" points="102.35,-63.5 92.35,-67 102.35,-70.5 102.35,-63.5"/>
</g>
<!-- Node6 -->
<g id="node6" class="node">
<title>Node6</title>
<g id="a_node6"><a xlink:href="class_ogre_1_1_g_l3_plus_render_system.html" target="_top" xlink:title="Implementation of GL 3 as a rendering system.">
<polygon fill="none" stroke="black" points="491,-76.5 491,-95.5 647,-95.5 647,-76.5 491,-76.5"/>
<text text-anchor="middle" x="569" y="-83.5" font-family="Helvetica,sans-Serif" font-size="10.00">Ogre::GL3PlusRenderSystem</text>
</a>
</g>
</g>
<!-- Node5&#45;&gt;Node6 -->
<g id="edge5" class="edge">
<title>Node5&#45;&gt;Node6</title>
<path fill="none" stroke="midnightblue" d="M428.79,-59.42C457.27,-64.86 490.93,-71.28 518.02,-76.46"/>
<polygon fill="midnightblue" stroke="midnightblue" points="429.44,-55.98 418.96,-57.54 428.13,-62.85 429.44,-55.98"/>
</g>
<!-- Node7 -->
<g id="node7" class="node">
<title>Node7</title>
<g id="a_node7"><a xlink:href="class_ogre_1_1_g_l_e_s2_render_system.html" target="_top" xlink:title="Implementation of GL ES 2.x as a rendering system.">
<polygon fill="none" stroke="black" points="495,-38.5 495,-57.5 643,-57.5 643,-38.5 495,-38.5"/>
<text text-anchor="middle" x="569" y="-45.5" font-family="Helvetica,sans-Serif" font-size="10.00">Ogre::GLES2RenderSystem</text>
</a>
</g>
</g>
<!-- Node5&#45;&gt;Node7 -->
<g id="edge6" class="edge">
<title>Node5&#45;&gt;Node7</title>
<path fill="none" stroke="midnightblue" d="M465.41,-48C475.31,-48 485.25,-48 494.84,-48"/>
<polygon fill="midnightblue" stroke="midnightblue" points="465.13,-44.5 455.13,-48 465.13,-51.5 465.13,-44.5"/>
</g>
<!-- Node8 -->
<g id="node8" class="node">
<title>Node8</title>
<g id="a_node8"><a xlink:href="class_ogre_1_1_g_l_render_system.html" target="_top" xlink:title="Implementation of GL as a rendering system.">
<polygon fill="none" stroke="black" points="504,-0.5 504,-19.5 634,-19.5 634,-0.5 504,-0.5"/>
<text text-anchor="middle" x="569" y="-7.5" font-family="Helvetica,sans-Serif" font-size="10.00">Ogre::GLRenderSystem</text>
</a>
</g>
</g>
<!-- Node5&#45;&gt;Node8 -->
<g id="edge7" class="edge">
<title>Node5&#45;&gt;Node8</title>
<path fill="none" stroke="midnightblue" d="M428.79,-36.58C457.27,-31.14 490.93,-24.72 518.02,-19.54"/>
<polygon fill="midnightblue" stroke="midnightblue" points="428.13,-33.15 418.96,-38.46 429.44,-40.02 428.13,-33.15"/>
</g>
</g>
</svg>
