<?xml version="1.0" encoding="UTF-8" standalone="no"?>
<!DOCTYPE svg PUBLIC "-//W3C//DTD SVG 1.1//EN"
 "http://www.w3.org/Graphics/SVG/1.1/DTD/svg11.dtd">
<!-- Generated by graphviz version 2.43.0 (0)
 -->
<!-- Title: Ogre::HighLevelGpuProgramFactory Pages: 1 -->
<svg width="490pt" height="382pt"
 viewBox="0.00 0.00 490.00 381.50" xmlns="http://www.w3.org/2000/svg" xmlns:xlink="http://www.w3.org/1999/xlink">
<g id="graph0" class="graph" transform="scale(1 1) rotate(0) translate(4 377.5)">
<title>Ogre::HighLevelGpuProgramFactory</title>
<!-- Node1 -->
<g id="node1" class="node">
<title>Node1</title>
<g id="a_node1"><a xlink:title="Interface definition for factories of HighLevelGpuProgram.">
<polygon fill="#bfbfbf" stroke="black" points="112,-177.5 112,-207.5 267,-207.5 267,-177.5 112,-177.5"/>
<text text-anchor="start" x="120" y="-195.5" font-family="Helvetica,sans-Serif" font-size="10.00">Ogre::HighLevelGpuProgram</text>
<text text-anchor="middle" x="189.5" y="-184.5" font-family="Helvetica,sans-Serif" font-size="10.00">Factory</text>
</a>
</g>
</g>
<!-- Node3 -->
<g id="node3" class="node">
<title>Node3</title>
<g id="a_node3"><a xlink:href="class_ogre_1_1_cg_program_factory.html" target="_top" xlink:title="Factory class for Cg programs.">
<polygon fill="none" stroke="black" points="325,-354 325,-373 460,-373 460,-354 325,-354"/>
<text text-anchor="middle" x="392.5" y="-361" font-family="Helvetica,sans-Serif" font-size="10.00">Ogre::CgProgramFactory</text>
</a>
</g>
</g>
<!-- Node1&#45;&gt;Node3 -->
<g id="edge2" class="edge">
<title>Node1&#45;&gt;Node3</title>
<path fill="none" stroke="midnightblue" d="M201.68,-217.19C218.52,-251.45 253.77,-312.77 303,-344.5 309.6,-348.76 317,-352.08 324.64,-354.66"/>
<polygon fill="midnightblue" stroke="midnightblue" points="204.7,-215.4 197.23,-207.89 198.39,-218.42 204.7,-215.4"/>
</g>
<!-- Node4 -->
<g id="node4" class="node">
<title>Node4</title>
<g id="a_node4"><a xlink:href="class_ogre_1_1_d3_d11_h_l_s_l_program_factory.html" target="_top" xlink:title="Factory class for D3D11 HLSL programs.">
<polygon fill="none" stroke="black" points="303,-316 303,-335 482,-335 482,-316 303,-316"/>
<text text-anchor="middle" x="392.5" y="-323" font-family="Helvetica,sans-Serif" font-size="10.00">Ogre::D3D11HLSLProgramFactory</text>
</a>
</g>
</g>
<!-- Node1&#45;&gt;Node4 -->
<g id="edge3" class="edge">
<title>Node1&#45;&gt;Node4</title>
<path fill="none" stroke="midnightblue" d="M207.04,-216.11C226.77,-242.4 262.26,-284.15 303,-306.5 310.03,-310.35 317.77,-313.43 325.66,-315.88"/>
<polygon fill="midnightblue" stroke="midnightblue" points="209.7,-213.82 200.96,-207.83 204.06,-217.96 209.7,-213.82"/>
</g>
<!-- Node5 -->
<g id="node5" class="node">
<title>Node5</title>
<g id="a_node5"><a xlink:href="class_ogre_1_1_d3_d9_h_l_s_l_program_factory.html" target="_top" xlink:title="Factory class for D3D9 HLSL programs.">
<polygon fill="none" stroke="black" points="306,-278 306,-297 479,-297 479,-278 306,-278"/>
<text text-anchor="middle" x="392.5" y="-285" font-family="Helvetica,sans-Serif" font-size="10.00">Ogre::D3D9HLSLProgramFactory</text>
</a>
</g>
</g>
<!-- Node1&#45;&gt;Node5 -->
<g id="edge4" class="edge">
<title>Node1&#45;&gt;Node5</title>
<path fill="none" stroke="midnightblue" d="M216.4,-214.26C238.18,-231.46 270.84,-254.8 303,-268.5 311.96,-272.32 321.78,-275.4 331.5,-277.88"/>
<polygon fill="midnightblue" stroke="midnightblue" points="218.31,-211.3 208.33,-207.76 213.93,-216.76 218.31,-211.3"/>
</g>
<!-- Node6 -->
<g id="node6" class="node">
<title>Node6</title>
<g id="a_node6"><a xlink:href="class_ogre_1_1_g_l_s_l_1_1_g_l_s_l_program_factory.html" target="_top" xlink:title="Factory class for GLSL programs.">
<polygon fill="none" stroke="black" points="304.5,-240 304.5,-259 480.5,-259 480.5,-240 304.5,-240"/>
<text text-anchor="middle" x="392.5" y="-247" font-family="Helvetica,sans-Serif" font-size="10.00">Ogre::GLSL::GLSLProgramFactory</text>
</a>
</g>
</g>
<!-- Node1&#45;&gt;Node6 -->
<g id="edge5" class="edge">
<title>Node1&#45;&gt;Node6</title>
<path fill="none" stroke="midnightblue" d="M240.8,-210.86C260.1,-217.54 282.43,-224.84 303,-230.5 315.58,-233.96 329.3,-237.18 342.11,-239.94"/>
<polygon fill="midnightblue" stroke="midnightblue" points="241.89,-207.53 231.3,-207.53 239.58,-214.14 241.89,-207.53"/>
</g>
<!-- Node7 -->
<g id="node7" class="node">
<title>Node7</title>
<g id="a_node7"><a xlink:href="class_ogre_1_1_g_l_s_l_e_s_cg_program_factory.html" target="_top" xlink:title="Factory class for GLSL ES programs.">
<polygon fill="none" stroke="black" points="307,-202 307,-221 478,-221 478,-202 307,-202"/>
<text text-anchor="middle" x="392.5" y="-209" font-family="Helvetica,sans-Serif" font-size="10.00">Ogre::GLSLESCgProgramFactory</text>
</a>
</g>
</g>
<!-- Node1&#45;&gt;Node7 -->
<g id="edge6" class="edge">
<title>Node1&#45;&gt;Node7</title>
<path fill="none" stroke="midnightblue" d="M277.2,-200.7C287,-201.62 296.99,-202.57 306.76,-203.49"/>
<polygon fill="midnightblue" stroke="midnightblue" points="277.35,-197.19 267.06,-199.74 276.69,-204.16 277.35,-197.19"/>
</g>
<!-- Node8 -->
<g id="node8" class="node">
<title>Node8</title>
<g id="a_node8"><a xlink:href="class_ogre_1_1_g_l_s_l_e_s_program_factory.html" target="_top" xlink:title="Factory class for GLSL ES programs.">
<polygon fill="none" stroke="black" points="313.5,-164 313.5,-183 471.5,-183 471.5,-164 313.5,-164"/>
<text text-anchor="middle" x="392.5" y="-171" font-family="Helvetica,sans-Serif" font-size="10.00">Ogre::GLSLESProgramFactory</text>
</a>
</g>
</g>
<!-- Node1&#45;&gt;Node8 -->
<g id="edge7" class="edge">
<title>Node1&#45;&gt;Node8</title>
<path fill="none" stroke="midnightblue" d="M277.13,-184.31C289.22,-183.17 301.57,-182 313.48,-180.87"/>
<polygon fill="midnightblue" stroke="midnightblue" points="276.69,-180.84 267.06,-185.26 277.35,-187.81 276.69,-180.84"/>
</g>
<!-- Node9 -->
<g id="node9" class="node">
<title>Node9</title>
<g id="a_node9"><a xlink:href="class_ogre_1_1_g_l_s_l_shader_factory.html" target="_top" xlink:title="Factory class for GLSL shaders.">
<polygon fill="none" stroke="black" points="323,-126 323,-145 462,-145 462,-126 323,-126"/>
<text text-anchor="middle" x="392.5" y="-133" font-family="Helvetica,sans-Serif" font-size="10.00">Ogre::GLSLShaderFactory</text>
</a>
</g>
</g>
<!-- Node1&#45;&gt;Node9 -->
<g id="edge8" class="edge">
<title>Node1&#45;&gt;Node9</title>
<path fill="none" stroke="midnightblue" d="M240.8,-174.14C260.1,-167.46 282.43,-160.16 303,-154.5 315.58,-151.04 329.3,-147.82 342.11,-145.06"/>
<polygon fill="midnightblue" stroke="midnightblue" points="239.58,-170.86 231.3,-177.47 241.89,-177.47 239.58,-170.86"/>
</g>
<!-- Node10 -->
<g id="node10" class="node">
<title>Node10</title>
<g id="a_node10"><a xlink:href="class_ogre_1_1_metal_program_factory.html" target="_top" xlink:title="Factory class for Metal programs.">
<polygon fill="none" stroke="black" points="317.5,-88 317.5,-107 467.5,-107 467.5,-88 317.5,-88"/>
<text text-anchor="middle" x="392.5" y="-95" font-family="Helvetica,sans-Serif" font-size="10.00">Ogre::MetalProgramFactory</text>
</a>
</g>
</g>
<!-- Node1&#45;&gt;Node10 -->
<g id="edge9" class="edge">
<title>Node1&#45;&gt;Node10</title>
<path fill="none" stroke="midnightblue" d="M216.4,-170.74C238.18,-153.54 270.84,-130.2 303,-116.5 311.96,-112.68 321.78,-109.6 331.5,-107.12"/>
<polygon fill="midnightblue" stroke="midnightblue" points="213.93,-168.24 208.33,-177.24 218.31,-173.7 213.93,-168.24"/>
</g>
<!-- Node11 -->
<g id="node11" class="node">
<title>Node11</title>
<g id="a_node11"><a xlink:href="class_ogre_1_1_s_p_i_r_v_shader_factory.html" target="_top" xlink:title=" ">
<polygon fill="none" stroke="black" points="321,-50 321,-69 464,-69 464,-50 321,-50"/>
<text text-anchor="middle" x="392.5" y="-57" font-family="Helvetica,sans-Serif" font-size="10.00">Ogre::SPIRVShaderFactory</text>
</a>
</g>
</g>
<!-- Node1&#45;&gt;Node11 -->
<g id="edge10" class="edge">
<title>Node1&#45;&gt;Node11</title>
<path fill="none" stroke="midnightblue" d="M207.04,-168.89C226.77,-142.6 262.26,-100.85 303,-78.5 310.03,-74.65 317.77,-71.57 325.66,-69.12"/>
<polygon fill="midnightblue" stroke="midnightblue" points="204.06,-167.04 200.96,-177.17 209.7,-171.18 204.06,-167.04"/>
</g>
<!-- Node12 -->
<g id="node12" class="node">
<title>Node12</title>
<g id="a_node12"><a xlink:href="class_ogre_1_1_unified_high_level_gpu_program_factory.html" target="_top" xlink:title="Factory class for Unified programs.">
<polygon fill="none" stroke="black" points="318,-0.5 318,-30.5 467,-30.5 467,-0.5 318,-0.5"/>
<text text-anchor="start" x="326" y="-18.5" font-family="Helvetica,sans-Serif" font-size="10.00">Ogre::UnifiedHighLevelGpu</text>
<text text-anchor="middle" x="392.5" y="-7.5" font-family="Helvetica,sans-Serif" font-size="10.00">ProgramFactory</text>
</a>
</g>
</g>
<!-- Node1&#45;&gt;Node12 -->
<g id="edge11" class="edge">
<title>Node1&#45;&gt;Node12</title>
<path fill="none" stroke="midnightblue" d="M201.96,-168.24C219.15,-134.49 254.81,-73.79 303,-40.5 308.65,-36.6 314.9,-33.3 321.38,-30.52"/>
<polygon fill="midnightblue" stroke="midnightblue" points="198.73,-166.88 197.42,-177.39 205,-169.99 198.73,-166.88"/>
</g>
<!-- Node2 -->
<g id="node2" class="node">
<title>Node2</title>
<g id="a_node2"><a xlink:title=" ">
<polygon fill="none" stroke="#bfbfbf" points="0,-183 0,-202 76,-202 76,-183 0,-183"/>
<text text-anchor="middle" x="38" y="-190" font-family="Helvetica,sans-Serif" font-size="10.00">FactoryAlloc</text>
</a>
</g>
</g>
<!-- Node2&#45;&gt;Node1 -->
<g id="edge1" class="edge">
<title>Node2&#45;&gt;Node1</title>
<path fill="none" stroke="midnightblue" d="M86.39,-192.5C94.56,-192.5 103.24,-192.5 111.96,-192.5"/>
<polygon fill="midnightblue" stroke="midnightblue" points="86.34,-189 76.34,-192.5 86.34,-196 86.34,-189"/>
</g>
</g>
</svg>
