<?xml version="1.0" encoding="UTF-8" standalone="no"?>
<!DOCTYPE svg PUBLIC "-//W3C//DTD SVG 1.1//EN"
 "http://www.w3.org/Graphics/SVG/1.1/DTD/svg11.dtd">
<!-- Generated by graphviz version 2.43.0 (0)
 -->
<!-- Title: Ogre::AnimationTrack Pages: 1 -->
<svg width="507pt" height="140pt"
 viewBox="0.00 0.00 507.00 140.00" xmlns="http://www.w3.org/2000/svg" xmlns:xlink="http://www.w3.org/1999/xlink">
<g id="graph0" class="graph" transform="scale(1 1) rotate(0) translate(4 136)">
<title>Ogre::AnimationTrack</title>
<!-- Node1 -->
<g id="node1" class="node">
<title>Node1</title>
<g id="a_node1"><a xlink:title="A &#39;track&#39; in an animation sequence, i.e.">
<polygon fill="#bfbfbf" stroke="black" points="185.5,-56.5 185.5,-75.5 307.5,-75.5 307.5,-56.5 185.5,-56.5"/>
<text text-anchor="middle" x="246.5" y="-63.5" font-family="Helvetica,sans-Serif" font-size="10.00">Ogre::AnimationTrack</text>
</a>
</g>
</g>
<!-- Node3 -->
<g id="node3" class="node">
<title>Node3</title>
<g id="a_node3"><a xlink:href="class_ogre_1_1_node_animation_track.html" target="_top" xlink:title="Specialised AnimationTrack for dealing with node transforms.">
<polygon fill="none" stroke="black" points="0,-0.5 0,-19.5 147,-19.5 147,-0.5 0,-0.5"/>
<text text-anchor="middle" x="73.5" y="-7.5" font-family="Helvetica,sans-Serif" font-size="10.00">Ogre::NodeAnimationTrack</text>
</a>
</g>
</g>
<!-- Node1&#45;&gt;Node3 -->
<g id="edge2" class="edge">
<title>Node1&#45;&gt;Node3</title>
<path fill="none" stroke="midnightblue" d="M209.45,-53.44C176.84,-43.26 130.09,-28.66 100.78,-19.52"/>
<polygon fill="midnightblue" stroke="midnightblue" points="208.5,-56.8 219.09,-56.44 210.58,-50.12 208.5,-56.8"/>
</g>
<!-- Node4 -->
<g id="node4" class="node">
<title>Node4</title>
<g id="a_node4"><a xlink:href="class_ogre_1_1_numeric_animation_track.html" target="_top" xlink:title="Specialised AnimationTrack for dealing with generic animable values.">
<polygon fill="none" stroke="black" points="165,-0.5 165,-19.5 328,-19.5 328,-0.5 165,-0.5"/>
<text text-anchor="middle" x="246.5" y="-7.5" font-family="Helvetica,sans-Serif" font-size="10.00">Ogre::NumericAnimationTrack</text>
</a>
</g>
</g>
<!-- Node1&#45;&gt;Node4 -->
<g id="edge3" class="edge">
<title>Node1&#45;&gt;Node4</title>
<path fill="none" stroke="midnightblue" d="M246.5,-45.8C246.5,-36.91 246.5,-26.78 246.5,-19.75"/>
<polygon fill="midnightblue" stroke="midnightblue" points="243,-46.08 246.5,-56.08 250,-46.08 243,-46.08"/>
</g>
<!-- Node5 -->
<g id="node5" class="node">
<title>Node5</title>
<g id="a_node5"><a xlink:href="class_ogre_1_1_vertex_animation_track.html" target="_top" xlink:title="Specialised AnimationTrack for dealing with changing vertex position information.">
<polygon fill="none" stroke="black" points="346,-0.5 346,-19.5 499,-19.5 499,-0.5 346,-0.5"/>
<text text-anchor="middle" x="422.5" y="-7.5" font-family="Helvetica,sans-Serif" font-size="10.00">Ogre::VertexAnimationTrack</text>
</a>
</g>
</g>
<!-- Node1&#45;&gt;Node5 -->
<g id="edge4" class="edge">
<title>Node1&#45;&gt;Node5</title>
<path fill="none" stroke="midnightblue" d="M284.19,-53.44C317.37,-43.26 364.93,-28.66 394.74,-19.52"/>
<polygon fill="midnightblue" stroke="midnightblue" points="282.92,-50.16 274.39,-56.44 284.97,-56.86 282.92,-50.16"/>
</g>
<!-- Node2 -->
<g id="node2" class="node">
<title>Node2</title>
<g id="a_node2"><a xlink:title=" ">
<polygon fill="none" stroke="#bfbfbf" points="201,-112.5 201,-131.5 292,-131.5 292,-112.5 201,-112.5"/>
<text text-anchor="middle" x="246.5" y="-119.5" font-family="Helvetica,sans-Serif" font-size="10.00">AnimationAlloc</text>
</a>
</g>
</g>
<!-- Node2&#45;&gt;Node1 -->
<g id="edge1" class="edge">
<title>Node2&#45;&gt;Node1</title>
<path fill="none" stroke="midnightblue" d="M246.5,-101.8C246.5,-92.91 246.5,-82.78 246.5,-75.75"/>
<polygon fill="midnightblue" stroke="midnightblue" points="243,-102.08 246.5,-112.08 250,-102.08 243,-102.08"/>
</g>
</g>
</svg>
