<?xml version="1.0" encoding="UTF-8" standalone="no"?>
<!DOCTYPE svg PUBLIC "-//W3C//DTD SVG 1.1//EN"
 "http://www.w3.org/Graphics/SVG/1.1/DTD/svg11.dtd">
<!-- Generated by graphviz version 2.43.0 (0)
 -->
<!-- Title: Ogre::AnimableObject Pages: 1 -->
<svg width="844pt" height="522pt"
 viewBox="0.00 0.00 844.00 522.00" xmlns="http://www.w3.org/2000/svg" xmlns:xlink="http://www.w3.org/1999/xlink">
<g id="graph0" class="graph" transform="scale(1 1) rotate(0) translate(4 518)">
<title>Ogre::AnimableObject</title>
<!-- Node1 -->
<g id="node1" class="node">
<title>Node1</title>
<g id="a_node1"><a xlink:title="Defines an interface to classes which have one or more AnimableValue instances to expose.">
<polygon fill="#bfbfbf" stroke="black" points="0,-266.5 0,-285.5 124,-285.5 124,-266.5 0,-266.5"/>
<text text-anchor="middle" x="62" y="-273.5" font-family="Helvetica,sans-Serif" font-size="10.00">Ogre::AnimableObject</text>
</a>
</g>
</g>
<!-- Node2 -->
<g id="node2" class="node">
<title>Node2</title>
<g id="a_node2"><a xlink:href="class_ogre_1_1_movable_object.html" target="_top" xlink:title="Abstract class defining a movable object in a scene.">
<polygon fill="none" stroke="black" points="160,-266.5 160,-285.5 279,-285.5 279,-266.5 160,-266.5"/>
<text text-anchor="middle" x="219.5" y="-273.5" font-family="Helvetica,sans-Serif" font-size="10.00">Ogre::MovableObject</text>
</a>
</g>
</g>
<!-- Node1&#45;&gt;Node2 -->
<g id="edge1" class="edge">
<title>Node1&#45;&gt;Node2</title>
<path fill="none" stroke="midnightblue" d="M134.09,-276C142.75,-276 151.51,-276 159.95,-276"/>
<polygon fill="midnightblue" stroke="midnightblue" points="134.01,-272.5 124.01,-276 134.01,-279.5 134.01,-272.5"/>
</g>
<!-- Node3 -->
<g id="node3" class="node">
<title>Node3</title>
<g id="a_node3"><a xlink:href="class_ogre_1_1_billboard_chain.html" target="_top" xlink:title="Allows the rendering of a chain of connected billboards.">
<polygon fill="none" stroke="black" points="324,-494.5 324,-513.5 441,-513.5 441,-494.5 324,-494.5"/>
<text text-anchor="middle" x="382.5" y="-501.5" font-family="Helvetica,sans-Serif" font-size="10.00">Ogre::BillboardChain</text>
</a>
</g>
</g>
<!-- Node2&#45;&gt;Node3 -->
<g id="edge2" class="edge">
<title>Node2&#45;&gt;Node3</title>
<path fill="none" stroke="midnightblue" d="M223.68,-295.48C231.46,-336.76 255.36,-433.51 315,-485 319.45,-488.84 324.64,-491.91 330.11,-494.36"/>
<polygon fill="midnightblue" stroke="midnightblue" points="227.12,-294.83 221.93,-285.6 220.23,-296.05 227.12,-294.83"/>
</g>
<!-- Node5 -->
<g id="node5" class="node">
<title>Node5</title>
<g id="a_node5"><a xlink:href="class_ogre_1_1_billboard_set.html" target="_top" xlink:title="A collection of billboards (faces which are always facing the given direction) with the same (default...">
<polygon fill="none" stroke="black" points="330,-456.5 330,-475.5 435,-475.5 435,-456.5 330,-456.5"/>
<text text-anchor="middle" x="382.5" y="-463.5" font-family="Helvetica,sans-Serif" font-size="10.00">Ogre::BillboardSet</text>
</a>
</g>
</g>
<!-- Node2&#45;&gt;Node5 -->
<g id="edge4" class="edge">
<title>Node2&#45;&gt;Node5</title>
<path fill="none" stroke="midnightblue" d="M225.84,-295.55C236.59,-331.15 264.25,-406.62 315,-447 319.89,-450.89 325.53,-453.98 331.42,-456.44"/>
<polygon fill="midnightblue" stroke="midnightblue" points="229.18,-294.5 223.04,-285.86 222.46,-296.44 229.18,-294.5"/>
</g>
<!-- Node6 -->
<g id="node6" class="node">
<title>Node6</title>
<g id="a_node6"><a xlink:href="class_ogre_1_1_entity.html" target="_top" xlink:title="Defines an instance of a discrete, movable object based on a Mesh.">
<polygon fill="none" stroke="black" points="345.5,-418.5 345.5,-437.5 419.5,-437.5 419.5,-418.5 345.5,-418.5"/>
<text text-anchor="middle" x="382.5" y="-425.5" font-family="Helvetica,sans-Serif" font-size="10.00">Ogre::Entity</text>
</a>
</g>
</g>
<!-- Node2&#45;&gt;Node6 -->
<g id="edge5" class="edge">
<title>Node2&#45;&gt;Node6</title>
<path fill="none" stroke="midnightblue" d="M228.94,-295.17C242.71,-324.22 272.78,-379.13 315,-409 323.92,-415.31 334.9,-419.53 345.35,-422.36"/>
<polygon fill="midnightblue" stroke="midnightblue" points="231.96,-293.37 224.61,-285.74 225.6,-296.29 231.96,-293.37"/>
</g>
<!-- Node7 -->
<g id="node7" class="node">
<title>Node7</title>
<g id="a_node7"><a xlink:href="class_ogre_1_1_frustum.html" target="_top" xlink:title="A frustum represents a pyramid, capped at the near and far end which is used to represent either a vi...">
<polygon fill="none" stroke="black" points="339.5,-380.5 339.5,-399.5 425.5,-399.5 425.5,-380.5 339.5,-380.5"/>
<text text-anchor="middle" x="382.5" y="-387.5" font-family="Helvetica,sans-Serif" font-size="10.00">Ogre::Frustum</text>
</a>
</g>
</g>
<!-- Node2&#45;&gt;Node7 -->
<g id="edge6" class="edge">
<title>Node2&#45;&gt;Node7</title>
<path fill="none" stroke="midnightblue" d="M233.61,-293.92C250.22,-315.34 280.82,-350.83 315,-371 322.45,-375.39 330.96,-378.82 339.36,-381.47"/>
<polygon fill="midnightblue" stroke="midnightblue" points="236.21,-291.55 227.39,-285.68 230.63,-295.77 236.21,-291.55"/>
</g>
<!-- Node11 -->
<g id="node11" class="node">
<title>Node11</title>
<g id="a_node11"><a xlink:href="class_ogre_1_1_instance_batch.html" target="_top" xlink:title="InstanceBatch forms part of the new Instancing system This is an abstract class that must be derived ...">
<polygon fill="none" stroke="black" points="325,-342.5 325,-361.5 440,-361.5 440,-342.5 325,-342.5"/>
<text text-anchor="middle" x="382.5" y="-349.5" font-family="Helvetica,sans-Serif" font-size="10.00">Ogre::InstanceBatch</text>
</a>
</g>
</g>
<!-- Node2&#45;&gt;Node11 -->
<g id="edge10" class="edge">
<title>Node2&#45;&gt;Node11</title>
<path fill="none" stroke="midnightblue" d="M242.31,-291.44C260.91,-304.04 288.73,-321.57 315,-333 323.37,-336.64 332.63,-339.8 341.51,-342.43"/>
<polygon fill="midnightblue" stroke="midnightblue" points="244.19,-288.49 233.97,-285.7 240.22,-294.26 244.19,-288.49"/>
</g>
<!-- Node17 -->
<g id="node17" class="node">
<title>Node17</title>
<g id="a_node17"><a xlink:href="class_ogre_1_1_instanced_entity.html" target="_top" xlink:title=" ">
<polygon fill="none" stroke="black" points="321.5,-304.5 321.5,-323.5 443.5,-323.5 443.5,-304.5 321.5,-304.5"/>
<text text-anchor="middle" x="382.5" y="-311.5" font-family="Helvetica,sans-Serif" font-size="10.00">Ogre::InstancedEntity</text>
</a>
</g>
</g>
<!-- Node2&#45;&gt;Node17 -->
<g id="edge16" class="edge">
<title>Node2&#45;&gt;Node17</title>
<path fill="none" stroke="midnightblue" d="M270.9,-287.9C293.53,-293.24 319.87,-299.45 341.17,-304.48"/>
<polygon fill="midnightblue" stroke="midnightblue" points="271.66,-284.48 261.13,-285.59 270.06,-291.29 271.66,-284.48"/>
</g>
<!-- Node18 -->
<g id="node18" class="node">
<title>Node18</title>
<g id="a_node18"><a xlink:href="class_ogre_1_1_light.html" target="_top" xlink:title="Representation of a dynamic light source in the scene.">
<polygon fill="none" stroke="black" points="347.5,-266.5 347.5,-285.5 417.5,-285.5 417.5,-266.5 347.5,-266.5"/>
<text text-anchor="middle" x="382.5" y="-273.5" font-family="Helvetica,sans-Serif" font-size="10.00">Ogre::Light</text>
</a>
</g>
</g>
<!-- Node2&#45;&gt;Node18 -->
<g id="edge17" class="edge">
<title>Node2&#45;&gt;Node18</title>
<path fill="none" stroke="midnightblue" d="M289.12,-276C309.14,-276 330.16,-276 347.09,-276"/>
<polygon fill="midnightblue" stroke="midnightblue" points="289.08,-272.5 279.08,-276 289.08,-279.5 289.08,-272.5"/>
</g>
<!-- Node20 -->
<g id="node20" class="node">
<title>Node20</title>
<g id="a_node20"><a xlink:href="class_ogre_1_1_manual_object.html" target="_top" xlink:title="Class providing a much simplified interface to generating manual objects with custom geometry.">
<polygon fill="none" stroke="black" points="326,-228.5 326,-247.5 439,-247.5 439,-228.5 326,-228.5"/>
<text text-anchor="middle" x="382.5" y="-235.5" font-family="Helvetica,sans-Serif" font-size="10.00">Ogre::ManualObject</text>
</a>
</g>
</g>
<!-- Node2&#45;&gt;Node20 -->
<g id="edge19" class="edge">
<title>Node2&#45;&gt;Node20</title>
<path fill="none" stroke="midnightblue" d="M270.9,-264.1C293.53,-258.76 319.87,-252.55 341.17,-247.52"/>
<polygon fill="midnightblue" stroke="midnightblue" points="270.06,-260.71 261.13,-266.41 271.66,-267.52 270.06,-260.71"/>
</g>
<!-- Node21 -->
<g id="node21" class="node">
<title>Node21</title>
<g id="a_node21"><a xlink:href="class_ogre_1_1_movable_plane.html" target="_top" xlink:title="Definition of a Plane that may be attached to a node, and the derived details of it retrieved simply.">
<polygon fill="none" stroke="black" points="325,-190.5 325,-209.5 440,-209.5 440,-190.5 325,-190.5"/>
<text text-anchor="middle" x="382.5" y="-197.5" font-family="Helvetica,sans-Serif" font-size="10.00">Ogre::MovablePlane</text>
</a>
</g>
</g>
<!-- Node2&#45;&gt;Node21 -->
<g id="edge20" class="edge">
<title>Node2&#45;&gt;Node21</title>
<path fill="none" stroke="midnightblue" d="M242.31,-260.56C260.91,-247.96 288.73,-230.43 315,-219 323.37,-215.36 332.63,-212.2 341.51,-209.57"/>
<polygon fill="midnightblue" stroke="midnightblue" points="240.22,-257.74 233.97,-266.3 244.19,-263.51 240.22,-257.74"/>
</g>
<!-- Node22 -->
<g id="node22" class="node">
<title>Node22</title>
<g id="a_node22"><a xlink:href="class_ogre_1_1_particle_system.html" target="_top" xlink:title="Class defining particle system based special effects.">
<polygon fill="none" stroke="black" points="323,-152.5 323,-171.5 442,-171.5 442,-152.5 323,-152.5"/>
<text text-anchor="middle" x="382.5" y="-159.5" font-family="Helvetica,sans-Serif" font-size="10.00">Ogre::ParticleSystem</text>
</a>
</g>
</g>
<!-- Node2&#45;&gt;Node22 -->
<g id="edge21" class="edge">
<title>Node2&#45;&gt;Node22</title>
<path fill="none" stroke="midnightblue" d="M233.61,-258.08C250.22,-236.66 280.82,-201.17 315,-181 321.51,-177.16 328.85,-174.05 336.21,-171.56"/>
<polygon fill="midnightblue" stroke="midnightblue" points="230.63,-256.23 227.39,-266.32 236.21,-260.45 230.63,-256.23"/>
</g>
<!-- Node23 -->
<g id="node23" class="node">
<title>Node23</title>
<g id="a_node23"><a xlink:href="class_ogre_1_1_portal_base.html" target="_top" xlink:title="PortalBase &#45; Base class to Portal and AntiPortal classes.">
<polygon fill="none" stroke="black" points="333.5,-114.5 333.5,-133.5 431.5,-133.5 431.5,-114.5 333.5,-114.5"/>
<text text-anchor="middle" x="382.5" y="-121.5" font-family="Helvetica,sans-Serif" font-size="10.00">Ogre::PortalBase</text>
</a>
</g>
</g>
<!-- Node2&#45;&gt;Node23 -->
<g id="edge22" class="edge">
<title>Node2&#45;&gt;Node23</title>
<path fill="none" stroke="midnightblue" d="M228.94,-256.83C242.71,-227.78 272.78,-172.87 315,-143 320.49,-139.12 326.76,-136.02 333.21,-133.56"/>
<polygon fill="midnightblue" stroke="midnightblue" points="225.6,-255.71 224.61,-266.26 231.96,-258.63 225.6,-255.71"/>
</g>
<!-- Node26 -->
<g id="node26" class="node">
<title>Node26</title>
<g id="a_node26"><a xlink:href="class_ogre_1_1_simple_renderable.html" target="_top" xlink:title="Simple implementation of MovableObject and Renderable for single&#45;part custom objects.">
<polygon fill="none" stroke="black" points="315,-76.5 315,-95.5 450,-95.5 450,-76.5 315,-76.5"/>
<text text-anchor="middle" x="382.5" y="-83.5" font-family="Helvetica,sans-Serif" font-size="10.00">Ogre::SimpleRenderable</text>
</a>
</g>
</g>
<!-- Node2&#45;&gt;Node26 -->
<g id="edge25" class="edge">
<title>Node2&#45;&gt;Node26</title>
<path fill="none" stroke="midnightblue" d="M225.84,-256.45C236.59,-220.85 264.25,-145.38 315,-105 319.89,-101.11 325.53,-98.02 331.42,-95.56"/>
<polygon fill="midnightblue" stroke="midnightblue" points="222.46,-255.56 223.04,-266.14 229.18,-257.5 222.46,-255.56"/>
</g>
<!-- Node30 -->
<g id="node30" class="node">
<title>Node30</title>
<g id="a_node30"><a xlink:href="class_ogre_1_1_static_geometry_1_1_region.html" target="_top" xlink:title="The details of a topological region which is the highest level of partitioning for this class.">
<polygon fill="none" stroke="black" points="321.5,-27 321.5,-57 443.5,-57 443.5,-27 321.5,-27"/>
<text text-anchor="start" x="329.5" y="-45" font-family="Helvetica,sans-Serif" font-size="10.00">Ogre::StaticGeometry</text>
<text text-anchor="middle" x="382.5" y="-34" font-family="Helvetica,sans-Serif" font-size="10.00">::Region</text>
</a>
</g>
</g>
<!-- Node2&#45;&gt;Node30 -->
<g id="edge29" class="edge">
<title>Node2&#45;&gt;Node30</title>
<path fill="none" stroke="midnightblue" d="M224.13,-256.33C232.67,-215.43 257.77,-120.62 315,-67 319.14,-63.12 323.94,-59.83 329.03,-57.04"/>
<polygon fill="midnightblue" stroke="midnightblue" points="220.7,-255.65 222.19,-266.14 227.56,-257.01 220.7,-255.65"/>
</g>
<!-- Node4 -->
<g id="node4" class="node">
<title>Node4</title>
<g id="a_node4"><a xlink:href="class_ogre_1_1_ribbon_trail.html" target="_top" xlink:title="Subclass of BillboardChain which automatically leaves a trail behind one or more Node instances.">
<polygon fill="none" stroke="black" points="515,-494.5 515,-513.5 615,-513.5 615,-494.5 515,-494.5"/>
<text text-anchor="middle" x="565" y="-501.5" font-family="Helvetica,sans-Serif" font-size="10.00">Ogre::RibbonTrail</text>
</a>
</g>
</g>
<!-- Node3&#45;&gt;Node4 -->
<g id="edge3" class="edge">
<title>Node3&#45;&gt;Node4</title>
<path fill="none" stroke="midnightblue" d="M451.3,-504C472.4,-504 495.25,-504 514.82,-504"/>
<polygon fill="midnightblue" stroke="midnightblue" points="451.11,-500.5 441.11,-504 451.11,-507.5 451.11,-500.5"/>
</g>
<!-- Node8 -->
<g id="node8" class="node">
<title>Node8</title>
<g id="a_node8"><a xlink:href="class_ogre_1_1_camera.html" target="_top" xlink:title="A viewpoint from which the scene will be rendered.">
<polygon fill="none" stroke="black" points="523,-418.5 523,-437.5 607,-437.5 607,-418.5 523,-418.5"/>
<text text-anchor="middle" x="565" y="-425.5" font-family="Helvetica,sans-Serif" font-size="10.00">Ogre::Camera</text>
</a>
</g>
</g>
<!-- Node7&#45;&gt;Node8 -->
<g id="edge7" class="edge">
<title>Node7&#45;&gt;Node8</title>
<path fill="none" stroke="midnightblue" d="M435.74,-401C463.46,-406.83 497.04,-413.9 522.88,-419.34"/>
<polygon fill="midnightblue" stroke="midnightblue" points="436.33,-397.54 425.82,-398.91 434.88,-404.39 436.33,-397.54"/>
</g>
<!-- Node9 -->
<g id="node9" class="node">
<title>Node9</title>
<g id="a_node9"><a xlink:href="class_ogre_1_1_octree_camera.html" target="_top" xlink:title="Specialized viewpoint from which an Octree can be rendered.">
<polygon fill="none" stroke="black" points="700,-456.5 700,-475.5 816,-475.5 816,-456.5 700,-456.5"/>
<text text-anchor="middle" x="758" y="-463.5" font-family="Helvetica,sans-Serif" font-size="10.00">Ogre::OctreeCamera</text>
</a>
</g>
</g>
<!-- Node8&#45;&gt;Node9 -->
<g id="edge8" class="edge">
<title>Node8&#45;&gt;Node9</title>
<path fill="none" stroke="midnightblue" d="M617.63,-438.27C646.15,-443.95 681.35,-450.95 709.24,-456.5"/>
<polygon fill="midnightblue" stroke="midnightblue" points="617.93,-434.76 607.44,-436.25 616.57,-441.63 617.93,-434.76"/>
</g>
<!-- Node10 -->
<g id="node10" class="node">
<title>Node10</title>
<g id="a_node10"><a xlink:href="class_ogre_1_1_p_c_z_camera.html" target="_top" xlink:title="Specialized viewpoint from which an PCZone Scene can be rendered.">
<polygon fill="none" stroke="black" points="706,-418.5 706,-437.5 810,-437.5 810,-418.5 706,-418.5"/>
<text text-anchor="middle" x="758" y="-425.5" font-family="Helvetica,sans-Serif" font-size="10.00">Ogre::PCZCamera</text>
</a>
</g>
</g>
<!-- Node8&#45;&gt;Node10 -->
<g id="edge9" class="edge">
<title>Node8&#45;&gt;Node10</title>
<path fill="none" stroke="midnightblue" d="M617.6,-428C644.96,-428 678.46,-428 705.76,-428"/>
<polygon fill="midnightblue" stroke="midnightblue" points="617.44,-424.5 607.44,-428 617.44,-431.5 617.44,-424.5"/>
</g>
<!-- Node12 -->
<g id="node12" class="node">
<title>Node12</title>
<g id="a_node12"><a xlink:href="class_ogre_1_1_base_instance_batch_v_t_f.html" target="_top" xlink:title="Instancing implementation using vertex texture through Vertex Texture Fetch (VTF) This implementation...">
<polygon fill="none" stroke="black" points="486,-380.5 486,-399.5 644,-399.5 644,-380.5 486,-380.5"/>
<text text-anchor="middle" x="565" y="-387.5" font-family="Helvetica,sans-Serif" font-size="10.00">Ogre::BaseInstanceBatchVTF</text>
</a>
</g>
</g>
<!-- Node11&#45;&gt;Node12 -->
<g id="edge11" class="edge">
<title>Node11&#45;&gt;Node12</title>
<path fill="none" stroke="midnightblue" d="M438.98,-363.68C464.58,-369.07 494.58,-375.39 518.78,-380.48"/>
<polygon fill="midnightblue" stroke="midnightblue" points="439.55,-360.22 429.05,-361.59 438.11,-367.07 439.55,-360.22"/>
</g>
<!-- Node15 -->
<g id="node15" class="node">
<title>Node15</title>
<g id="a_node15"><a xlink:href="class_ogre_1_1_instance_batch_h_w.html" target="_top" xlink:title="This is technique requires true instancing hardware support.">
<polygon fill="none" stroke="black" points="499,-342.5 499,-361.5 631,-361.5 631,-342.5 499,-342.5"/>
<text text-anchor="middle" x="565" y="-349.5" font-family="Helvetica,sans-Serif" font-size="10.00">Ogre::InstanceBatchHW</text>
</a>
</g>
</g>
<!-- Node11&#45;&gt;Node15 -->
<g id="edge14" class="edge">
<title>Node11&#45;&gt;Node15</title>
<path fill="none" stroke="midnightblue" d="M450.34,-352C466.16,-352 483.01,-352 498.76,-352"/>
<polygon fill="midnightblue" stroke="midnightblue" points="450.12,-348.5 440.12,-352 450.12,-355.5 450.12,-348.5"/>
</g>
<!-- Node16 -->
<g id="node16" class="node">
<title>Node16</title>
<g id="a_node16"><a xlink:href="class_ogre_1_1_instance_batch_shader.html" target="_top" xlink:title="This is the same technique the old &quot;InstancedGeometry&quot; implementation used (with improvements).">
<polygon fill="none" stroke="black" points="490.5,-304.5 490.5,-323.5 639.5,-323.5 639.5,-304.5 490.5,-304.5"/>
<text text-anchor="middle" x="565" y="-311.5" font-family="Helvetica,sans-Serif" font-size="10.00">Ogre::InstanceBatchShader</text>
</a>
</g>
</g>
<!-- Node11&#45;&gt;Node16 -->
<g id="edge15" class="edge">
<title>Node11&#45;&gt;Node16</title>
<path fill="none" stroke="midnightblue" d="M438.98,-340.32C464.58,-334.93 494.58,-328.61 518.78,-323.52"/>
<polygon fill="midnightblue" stroke="midnightblue" points="438.11,-336.93 429.05,-342.41 439.55,-343.78 438.11,-336.93"/>
</g>
<!-- Node13 -->
<g id="node13" class="node">
<title>Node13</title>
<g id="a_node13"><a xlink:href="class_ogre_1_1_instance_batch_h_w___v_t_f.html" target="_top" xlink:title="Instancing implementation using vertex texture through Vertex Texture Fetch (VTF) and hardware instan...">
<polygon fill="none" stroke="black" points="680,-380.5 680,-399.5 836,-399.5 836,-380.5 680,-380.5"/>
<text text-anchor="middle" x="758" y="-387.5" font-family="Helvetica,sans-Serif" font-size="10.00">Ogre::InstanceBatchHW_VTF</text>
</a>
</g>
</g>
<!-- Node12&#45;&gt;Node13 -->
<g id="edge12" class="edge">
<title>Node12&#45;&gt;Node13</title>
<path fill="none" stroke="midnightblue" d="M654.5,-390C662.95,-390 671.48,-390 679.81,-390"/>
<polygon fill="midnightblue" stroke="midnightblue" points="654.24,-386.5 644.24,-390 654.24,-393.5 654.24,-386.5"/>
</g>
<!-- Node14 -->
<g id="node14" class="node">
<title>Node14</title>
<g id="a_node14"><a xlink:href="class_ogre_1_1_instance_batch_v_t_f.html" target="_top" xlink:title=" ">
<polygon fill="none" stroke="black" points="691,-342.5 691,-361.5 825,-361.5 825,-342.5 691,-342.5"/>
<text text-anchor="middle" x="758" y="-349.5" font-family="Helvetica,sans-Serif" font-size="10.00">Ogre::InstanceBatchVTF</text>
</a>
</g>
</g>
<!-- Node12&#45;&gt;Node14 -->
<g id="edge13" class="edge">
<title>Node12&#45;&gt;Node14</title>
<path fill="none" stroke="midnightblue" d="M624.35,-378.39C651.52,-372.99 683.43,-366.64 709.15,-361.52"/>
<polygon fill="midnightblue" stroke="midnightblue" points="623.32,-375.03 614.2,-380.41 624.69,-381.89 623.32,-375.03"/>
</g>
<!-- Node19 -->
<g id="node19" class="node">
<title>Node19</title>
<g id="a_node19"><a xlink:href="class_ogre_1_1_p_c_z_light.html" target="_top" xlink:title="Specialized version of Ogre::Light which caches which zones the light affects.">
<polygon fill="none" stroke="black" points="520.5,-266.5 520.5,-285.5 609.5,-285.5 609.5,-266.5 520.5,-266.5"/>
<text text-anchor="middle" x="565" y="-273.5" font-family="Helvetica,sans-Serif" font-size="10.00">Ogre::PCZLight</text>
</a>
</g>
</g>
<!-- Node18&#45;&gt;Node19 -->
<g id="edge18" class="edge">
<title>Node18&#45;&gt;Node19</title>
<path fill="none" stroke="midnightblue" d="M428.24,-276C456.4,-276 492.57,-276 520.49,-276"/>
<polygon fill="midnightblue" stroke="midnightblue" points="427.88,-272.5 417.88,-276 427.88,-279.5 427.88,-272.5"/>
</g>
<!-- Node24 -->
<g id="node24" class="node">
<title>Node24</title>
<g id="a_node24"><a xlink:href="class_ogre_1_1_anti_portal.html" target="_top" xlink:title="AntiPortal datastructure for occlusion culling.">
<polygon fill="none" stroke="black" points="518,-152.5 518,-171.5 612,-171.5 612,-152.5 518,-152.5"/>
<text text-anchor="middle" x="565" y="-159.5" font-family="Helvetica,sans-Serif" font-size="10.00">Ogre::AntiPortal</text>
</a>
</g>
</g>
<!-- Node23&#45;&gt;Node24 -->
<g id="edge23" class="edge">
<title>Node23&#45;&gt;Node24</title>
<path fill="none" stroke="midnightblue" d="M438.98,-135.68C464.58,-141.07 494.58,-147.39 518.78,-152.48"/>
<polygon fill="midnightblue" stroke="midnightblue" points="439.55,-132.22 429.05,-133.59 438.11,-139.07 439.55,-132.22"/>
</g>
<!-- Node25 -->
<g id="node25" class="node">
<title>Node25</title>
<g id="a_node25"><a xlink:href="class_ogre_1_1_portal.html" target="_top" xlink:title="Portal datastructure for connecting zones.">
<polygon fill="none" stroke="black" points="528,-114.5 528,-133.5 602,-133.5 602,-114.5 528,-114.5"/>
<text text-anchor="middle" x="565" y="-121.5" font-family="Helvetica,sans-Serif" font-size="10.00">Ogre::Portal</text>
</a>
</g>
</g>
<!-- Node23&#45;&gt;Node25 -->
<g id="edge24" class="edge">
<title>Node23&#45;&gt;Node25</title>
<path fill="none" stroke="midnightblue" d="M442.04,-124C470.28,-124 503.27,-124 527.81,-124"/>
<polygon fill="midnightblue" stroke="midnightblue" points="441.87,-120.5 431.87,-124 441.87,-127.5 441.87,-120.5"/>
</g>
<!-- Node27 -->
<g id="node27" class="node">
<title>Node27</title>
<g id="a_node27"><a xlink:href="class_ogre_1_1_rectangle2_d.html" target="_top" xlink:title="Allows the rendering of a simple 2D rectangle This class renders a simple 2D rectangle; this rectangl...">
<polygon fill="none" stroke="black" points="511,-76.5 511,-95.5 619,-95.5 619,-76.5 511,-76.5"/>
<text text-anchor="middle" x="565" y="-83.5" font-family="Helvetica,sans-Serif" font-size="10.00">Ogre::Rectangle2D</text>
</a>
</g>
</g>
<!-- Node26&#45;&gt;Node27 -->
<g id="edge26" class="edge">
<title>Node26&#45;&gt;Node27</title>
<path fill="none" stroke="midnightblue" d="M460.63,-86C477.54,-86 495.09,-86 510.82,-86"/>
<polygon fill="midnightblue" stroke="midnightblue" points="460.2,-82.5 450.2,-86 460.2,-89.5 460.2,-82.5"/>
</g>
<!-- Node28 -->
<g id="node28" class="node">
<title>Node28</title>
<g id="a_node28"><a xlink:href="class_ogre_1_1_volume_1_1_chunk.html" target="_top" xlink:title="A single volume chunk mesh.">
<polygon fill="none" stroke="black" points="505.5,-38.5 505.5,-57.5 624.5,-57.5 624.5,-38.5 505.5,-38.5"/>
<text text-anchor="middle" x="565" y="-45.5" font-family="Helvetica,sans-Serif" font-size="10.00">Ogre::Volume::Chunk</text>
</a>
</g>
</g>
<!-- Node26&#45;&gt;Node28 -->
<g id="edge27" class="edge">
<title>Node26&#45;&gt;Node28</title>
<path fill="none" stroke="midnightblue" d="M438.98,-74.32C464.58,-68.93 494.58,-62.61 518.78,-57.52"/>
<polygon fill="midnightblue" stroke="midnightblue" points="438.11,-70.93 429.05,-76.41 439.55,-77.78 438.11,-70.93"/>
</g>
<!-- Node29 -->
<g id="node29" class="node">
<title>Node29</title>
<g id="a_node29"><a xlink:href="class_ogre_1_1_wire_bounding_box.html" target="_top" xlink:title="Allows the rendering of a wireframe bounding box.">
<polygon fill="none" stroke="black" points="498.5,-0.5 498.5,-19.5 631.5,-19.5 631.5,-0.5 498.5,-0.5"/>
<text text-anchor="middle" x="565" y="-7.5" font-family="Helvetica,sans-Serif" font-size="10.00">Ogre::WireBoundingBox</text>
</a>
</g>
</g>
<!-- Node26&#45;&gt;Node29 -->
<g id="edge28" class="edge">
<title>Node26&#45;&gt;Node29</title>
<path fill="none" stroke="midnightblue" d="M438.62,-72.82C442.58,-71.11 446.42,-69.17 450,-67 469.89,-54.93 465.88,-40.67 486,-29 492.63,-25.15 500.01,-22.08 507.52,-19.63"/>
<polygon fill="midnightblue" stroke="midnightblue" points="437.29,-69.59 429.22,-76.46 439.81,-76.12 437.29,-69.59"/>
</g>
</g>
</svg>
