<?xml version="1.0" encoding="UTF-8" standalone="no"?>
<!DOCTYPE svg PUBLIC "-//W3C//DTD SVG 1.1//EN"
 "http://www.w3.org/Graphics/SVG/1.1/DTD/svg11.dtd">
<!-- Generated by graphviz version 2.43.0 (0)
 -->
<!-- Title: Ogre::SmallVectorImpl&lt; T &gt; Pages: 1 -->
<svg width="415pt" height="352pt"
 viewBox="0.00 0.00 415.00 352.00" xmlns="http://www.w3.org/2000/svg" xmlns:xlink="http://www.w3.org/1999/xlink">
<g id="graph0" class="graph" transform="scale(1 1) rotate(0) translate(4 348)">
<title>Ogre::SmallVectorImpl&lt; T &gt;</title>
<!-- Node1 -->
<g id="node1" class="node">
<title>Node1</title>
<g id="a_node1"><a xlink:title="SmallVectorImpl &#45; This class consists of common code factored out of the SmallVector class to reduce ...">
<polygon fill="#bfbfbf" stroke="black" points="130,-123.5 130,-142.5 285,-142.5 285,-123.5 130,-123.5"/>
<text text-anchor="middle" x="207.5" y="-130.5" font-family="Helvetica,sans-Serif" font-size="10.00">Ogre::SmallVectorImpl&lt; T &gt;</text>
</a>
</g>
</g>
<!-- Node5 -->
<g id="node5" class="node">
<title>Node5</title>
<g id="a_node5"><a xlink:href="class_ogre_1_1_small_vector.html" target="_top" xlink:title="SmallVector &#45; This is a &#39;vector&#39; (really, a variable&#45;sized array), optimized for the case when the ar...">
<polygon fill="none" stroke="black" points="0,-62 0,-81 133,-81 133,-62 0,-62"/>
<text text-anchor="middle" x="66.5" y="-69" font-family="Helvetica,sans-Serif" font-size="10.00">Ogre::SmallVector&lt; T &gt;</text>
</a>
</g>
</g>
<!-- Node1&#45;&gt;Node5 -->
<g id="edge4" class="edge">
<title>Node1&#45;&gt;Node5</title>
<path fill="none" stroke="midnightblue" d="M177.83,-119.48C150.45,-107.92 110.52,-91.08 86.66,-81.01"/>
<polygon fill="midnightblue" stroke="midnightblue" points="176.72,-122.81 187.3,-123.48 179.45,-116.36 176.72,-122.81"/>
</g>
<!-- Node6 -->
<g id="node6" class="node">
<title>Node6</title>
<g id="a_node6"><a xlink:href="class_ogre_1_1_small_vector_3_01_t_00_010_01_4.html" target="_top" xlink:title="Specialize SmallVector at N=0.">
<polygon fill="none" stroke="black" points="151,-56.5 151,-86.5 264,-86.5 264,-56.5 151,-56.5"/>
<text text-anchor="start" x="159" y="-74.5" font-family="Helvetica,sans-Serif" font-size="10.00">Ogre::SmallVector&lt;</text>
<text text-anchor="middle" x="207.5" y="-63.5" font-family="Helvetica,sans-Serif" font-size="10.00"> T, 0 &gt;</text>
</a>
</g>
</g>
<!-- Node1&#45;&gt;Node6 -->
<g id="edge5" class="edge">
<title>Node1&#45;&gt;Node6</title>
<path fill="none" stroke="midnightblue" d="M207.5,-113.23C207.5,-104.59 207.5,-94.5 207.5,-86.52"/>
<polygon fill="midnightblue" stroke="midnightblue" points="204,-113.48 207.5,-123.48 211,-113.48 204,-113.48"/>
</g>
<!-- Node7 -->
<g id="node7" class="node">
<title>Node7</title>
<g id="a_node7"><a xlink:href="class_ogre_1_1_small_vector.html" target="_top" xlink:title=" ">
<polygon fill="none" stroke="black" points="282.5,-62 282.5,-81 398.5,-81 398.5,-62 282.5,-62"/>
<text text-anchor="middle" x="340.5" y="-69" font-family="Helvetica,sans-Serif" font-size="10.00">SmallVector&lt; T, S &gt;</text>
</a>
</g>
</g>
<!-- Node1&#45;&gt;Node7 -->
<g id="edge6" class="edge">
<title>Node1&#45;&gt;Node7</title>
<path fill="none" stroke="midnightblue" d="M235.83,-119.33C261.65,-107.78 299.08,-91.03 321.48,-81.01"/>
<polygon fill="midnightblue" stroke="midnightblue" points="234.25,-116.2 226.56,-123.48 237.11,-122.59 234.25,-116.2"/>
</g>
<!-- Node2 -->
<g id="node2" class="node">
<title>Node2</title>
<g id="a_node2"><a xlink:href="class_ogre_1_1_small_vector_template_base.html" target="_top" xlink:title=" ">
<polygon fill="none" stroke="black" points="133,-179.5 133,-220.5 282,-220.5 282,-179.5 133,-179.5"/>
<text text-anchor="start" x="141" y="-208.5" font-family="Helvetica,sans-Serif" font-size="10.00">Ogre::SmallVectorTemplate</text>
<text text-anchor="start" x="141" y="-197.5" font-family="Helvetica,sans-Serif" font-size="10.00">Base&lt; T, isPodLike&lt; T &gt;</text>
<text text-anchor="middle" x="207.5" y="-186.5" font-family="Helvetica,sans-Serif" font-size="10.00">::value &gt;</text>
</a>
</g>
</g>
<!-- Node2&#45;&gt;Node1 -->
<g id="edge1" class="edge">
<title>Node2&#45;&gt;Node1</title>
<path fill="none" stroke="midnightblue" d="M207.5,-169.26C207.5,-159.56 207.5,-149.52 207.5,-142.65"/>
<polygon fill="midnightblue" stroke="midnightblue" points="204,-169.5 207.5,-179.5 211,-169.5 204,-169.5"/>
</g>
<!-- Node3 -->
<g id="node3" class="node">
<title>Node3</title>
<g id="a_node3"><a xlink:href="class_ogre_1_1_small_vector_template_common.html" target="_top" xlink:title=" ">
<polygon fill="none" stroke="black" points="133,-257.5 133,-287.5 282,-287.5 282,-257.5 133,-257.5"/>
<text text-anchor="start" x="141" y="-275.5" font-family="Helvetica,sans-Serif" font-size="10.00">Ogre::SmallVectorTemplate</text>
<text text-anchor="middle" x="207.5" y="-264.5" font-family="Helvetica,sans-Serif" font-size="10.00">Common&lt; T &gt;</text>
</a>
</g>
</g>
<!-- Node3&#45;&gt;Node2 -->
<g id="edge2" class="edge">
<title>Node3&#45;&gt;Node2</title>
<path fill="none" stroke="midnightblue" d="M207.5,-246.98C207.5,-238.35 207.5,-228.76 207.5,-220.59"/>
<polygon fill="midnightblue" stroke="midnightblue" points="204,-247.23 207.5,-257.23 211,-247.23 204,-247.23"/>
</g>
<!-- Node4 -->
<g id="node4" class="node">
<title>Node4</title>
<g id="a_node4"><a xlink:href="class_ogre_1_1_small_vector_base.html" target="_top" xlink:title="SmallVectorBase &#45; This is all the non&#45;templated stuff common to all SmallVectors.">
<polygon fill="none" stroke="black" points="143.5,-324.5 143.5,-343.5 271.5,-343.5 271.5,-324.5 143.5,-324.5"/>
<text text-anchor="middle" x="207.5" y="-331.5" font-family="Helvetica,sans-Serif" font-size="10.00">Ogre::SmallVectorBase</text>
</a>
</g>
</g>
<!-- Node4&#45;&gt;Node3 -->
<g id="edge3" class="edge">
<title>Node4&#45;&gt;Node3</title>
<path fill="none" stroke="midnightblue" d="M207.5,-314.23C207.5,-305.59 207.5,-295.5 207.5,-287.52"/>
<polygon fill="midnightblue" stroke="midnightblue" points="204,-314.48 207.5,-324.48 211,-314.48 204,-314.48"/>
</g>
<!-- Node8 -->
<g id="node8" class="node">
<title>Node8</title>
<g id="a_node8"><a xlink:href="struct_ogre_1_1_vector_set.html" target="_top" xlink:title="VectorSet is basically a helper to use a vector as a small set container.">
<polygon fill="none" stroke="black" points="274,-0.5 274,-19.5 407,-19.5 407,-0.5 274,-0.5"/>
<text text-anchor="middle" x="340.5" y="-7.5" font-family="Helvetica,sans-Serif" font-size="10.00">Ogre::VectorSet&lt; T, S &gt;</text>
</a>
</g>
</g>
<!-- Node7&#45;&gt;Node8 -->
<g id="edge7" class="edge">
<title>Node7&#45;&gt;Node8</title>
<path fill="none" stroke="midnightblue" d="M340.5,-51.82C340.5,-41 340.5,-27.9 340.5,-19.51"/>
<polygon fill="midnightblue" stroke="midnightblue" points="337,-51.98 340.5,-61.98 344,-51.98 337,-51.98"/>
</g>
</g>
</svg>
