<?xml version="1.0" encoding="UTF-8" standalone="no"?>
<!DOCTYPE svg PUBLIC "-//W3C//DTD SVG 1.1//EN"
 "http://www.w3.org/Graphics/SVG/1.1/DTD/svg11.dtd">
<!-- Generated by graphviz version 2.43.0 (0)
 -->
<!-- Title: Ogre::RTShader::Operand Pages: 1 -->
<svg width="518pt" height="140pt"
 viewBox="0.00 0.00 517.50 140.00" xmlns="http://www.w3.org/2000/svg" xmlns:xlink="http://www.w3.org/1999/xlink">
<g id="graph0" class="graph" transform="scale(1 1) rotate(0) translate(4 136)">
<title>Ogre::RTShader::Operand</title>
<!-- Node1 -->
<g id="node1" class="node">
<title>Node1</title>
<g id="a_node1"><a xlink:title="A class that represents a function operand (its the combination of a parameter the in/out semantic an...">
<polygon fill="#bfbfbf" stroke="black" points="177.5,-56.5 177.5,-75.5 316.5,-75.5 316.5,-56.5 177.5,-56.5"/>
<text text-anchor="middle" x="247" y="-63.5" font-family="Helvetica,sans-Serif" font-size="10.00">Ogre::RTShader::Operand</text>
</a>
</g>
</g>
<!-- Node3 -->
<g id="node3" class="node">
<title>Node3</title>
<g id="a_node3"><a xlink:href="struct_ogre_1_1_r_t_shader_1_1_at.html" target="_top" xlink:title="shorthand for operator[] on preceding operand. e.g. myArray[p]">
<polygon fill="none" stroke="black" points="0,-0.5 0,-19.5 108,-19.5 108,-0.5 0,-0.5"/>
<text text-anchor="middle" x="54" y="-7.5" font-family="Helvetica,sans-Serif" font-size="10.00">Ogre::RTShader::At</text>
</a>
</g>
</g>
<!-- Node1&#45;&gt;Node3 -->
<g id="edge2" class="edge">
<title>Node1&#45;&gt;Node3</title>
<path fill="none" stroke="midnightblue" d="M206.61,-53.7C170.18,-43.51 117.41,-28.74 84.44,-19.52"/>
<polygon fill="midnightblue" stroke="midnightblue" points="205.85,-57.12 216.42,-56.44 207.73,-50.38 205.85,-57.12"/>
</g>
<!-- Node4 -->
<g id="node4" class="node">
<title>Node4</title>
<g id="a_node4"><a xlink:href="struct_ogre_1_1_r_t_shader_1_1_in.html" target="_top" xlink:title=" ">
<polygon fill="none" stroke="black" points="126.5,-0.5 126.5,-19.5 233.5,-19.5 233.5,-0.5 126.5,-0.5"/>
<text text-anchor="middle" x="180" y="-7.5" font-family="Helvetica,sans-Serif" font-size="10.00">Ogre::RTShader::In</text>
</a>
</g>
</g>
<!-- Node1&#45;&gt;Node4 -->
<g id="edge3" class="edge">
<title>Node1&#45;&gt;Node4</title>
<path fill="none" stroke="midnightblue" d="M228.17,-49.82C216.16,-40.15 201.03,-27.95 190.96,-19.83"/>
<polygon fill="midnightblue" stroke="midnightblue" points="226.25,-52.77 236.24,-56.32 230.65,-47.32 226.25,-52.77"/>
</g>
<!-- Node5 -->
<g id="node5" class="node">
<title>Node5</title>
<g id="a_node5"><a xlink:href="struct_ogre_1_1_r_t_shader_1_1_in_out.html" target="_top" xlink:title=" ">
<polygon fill="none" stroke="black" points="252,-0.5 252,-19.5 376,-19.5 376,-0.5 252,-0.5"/>
<text text-anchor="middle" x="314" y="-7.5" font-family="Helvetica,sans-Serif" font-size="10.00">Ogre::RTShader::InOut</text>
</a>
</g>
</g>
<!-- Node1&#45;&gt;Node5 -->
<g id="edge4" class="edge">
<title>Node1&#45;&gt;Node5</title>
<path fill="none" stroke="midnightblue" d="M265.83,-49.82C277.84,-40.15 292.97,-27.95 303.04,-19.83"/>
<polygon fill="midnightblue" stroke="midnightblue" points="263.35,-47.32 257.76,-56.32 267.75,-52.77 263.35,-47.32"/>
</g>
<!-- Node6 -->
<g id="node6" class="node">
<title>Node6</title>
<g id="a_node6"><a xlink:href="struct_ogre_1_1_r_t_shader_1_1_out.html" target="_top" xlink:title=" ">
<polygon fill="none" stroke="black" points="394.5,-0.5 394.5,-19.5 509.5,-19.5 509.5,-0.5 394.5,-0.5"/>
<text text-anchor="middle" x="452" y="-7.5" font-family="Helvetica,sans-Serif" font-size="10.00">Ogre::RTShader::Out</text>
</a>
</g>
</g>
<!-- Node1&#45;&gt;Node6 -->
<g id="edge5" class="edge">
<title>Node1&#45;&gt;Node6</title>
<path fill="none" stroke="midnightblue" d="M289.41,-53.83C328.11,-43.63 384.49,-28.78 419.67,-19.52"/>
<polygon fill="midnightblue" stroke="midnightblue" points="288.26,-50.51 279.48,-56.44 290.04,-57.28 288.26,-50.51"/>
</g>
<!-- Node2 -->
<g id="node2" class="node">
<title>Node2</title>
<g id="a_node2"><a xlink:title=" ">
<polygon fill="none" stroke="#bfbfbf" points="185.5,-112.5 185.5,-131.5 308.5,-131.5 308.5,-112.5 185.5,-112.5"/>
<text text-anchor="middle" x="247" y="-119.5" font-family="Helvetica,sans-Serif" font-size="10.00">RTShaderSystemAlloc</text>
</a>
</g>
</g>
<!-- Node2&#45;&gt;Node1 -->
<g id="edge1" class="edge">
<title>Node2&#45;&gt;Node1</title>
<path fill="none" stroke="midnightblue" d="M247,-101.8C247,-92.91 247,-82.78 247,-75.75"/>
<polygon fill="midnightblue" stroke="midnightblue" points="243.5,-102.08 247,-112.08 250.5,-102.08 243.5,-102.08"/>
</g>
</g>
</svg>
