<?xml version="1.0" encoding="UTF-8" standalone="no"?>
<!DOCTYPE svg PUBLIC "-//W3C//DTD SVG 1.1//EN"
 "http://www.w3.org/Graphics/SVG/1.1/DTD/svg11.dtd">
<!-- Generated by graphviz version 2.43.0 (0)
 -->
<!-- Title: Ogre::DefaultPlaneBoundedVolumeListSceneQuery Pages: 1 -->
<svg width="1034pt" height="88pt"
 viewBox="0.00 0.00 1034.00 88.00" xmlns="http://www.w3.org/2000/svg" xmlns:xlink="http://www.w3.org/1999/xlink">
<g id="graph0" class="graph" transform="scale(1 1) rotate(0) translate(4 84)">
<title>Ogre::DefaultPlaneBoundedVolumeListSceneQuery</title>
<!-- Node1 -->
<g id="node1" class="node">
<title>Node1</title>
<g id="a_node1"><a xlink:title="Default implementation of PlaneBoundedVolumeListSceneQuery.">
<polygon fill="#bfbfbf" stroke="black" points="666,-24.5 666,-54.5 818,-54.5 818,-24.5 666,-24.5"/>
<text text-anchor="start" x="674" y="-42.5" font-family="Helvetica,sans-Serif" font-size="10.00">Ogre::DefaultPlaneBounded</text>
<text text-anchor="middle" x="742" y="-31.5" font-family="Helvetica,sans-Serif" font-size="10.00">VolumeListSceneQuery</text>
</a>
</g>
</g>
<!-- Node7 -->
<g id="node7" class="node">
<title>Node7</title>
<g id="a_node7"><a xlink:href="class_ogre_1_1_octree_plane_bounded_volume_list_scene_query.html" target="_top" xlink:title="Octree implementation of PlaneBoundedVolumeListSceneQuery.">
<polygon fill="none" stroke="black" points="866,-49.5 866,-79.5 1014,-79.5 1014,-49.5 866,-49.5"/>
<text text-anchor="start" x="874" y="-67.5" font-family="Helvetica,sans-Serif" font-size="10.00">Ogre::OctreePlaneBounded</text>
<text text-anchor="middle" x="940" y="-56.5" font-family="Helvetica,sans-Serif" font-size="10.00">VolumeListSceneQuery</text>
</a>
</g>
</g>
<!-- Node1&#45;&gt;Node7 -->
<g id="edge6" class="edge">
<title>Node1&#45;&gt;Node7</title>
<path fill="none" stroke="midnightblue" d="M828.22,-50.37C840.78,-51.97 853.63,-53.61 865.92,-55.18"/>
<polygon fill="midnightblue" stroke="midnightblue" points="828.58,-46.89 818.22,-49.09 827.69,-53.83 828.58,-46.89"/>
</g>
<!-- Node8 -->
<g id="node8" class="node">
<title>Node8</title>
<g id="a_node8"><a xlink:href="class_ogre_1_1_p_c_z_plane_bounded_volume_list_scene_query.html" target="_top" xlink:title="PCZ implementation of PlaneBoundedVolumeListSceneQuery.">
<polygon fill="none" stroke="black" points="854,-0.5 854,-30.5 1026,-30.5 1026,-0.5 854,-0.5"/>
<text text-anchor="start" x="862" y="-18.5" font-family="Helvetica,sans-Serif" font-size="10.00">Ogre::PCZPlaneBoundedVolume</text>
<text text-anchor="middle" x="940" y="-7.5" font-family="Helvetica,sans-Serif" font-size="10.00">ListSceneQuery</text>
</a>
</g>
</g>
<!-- Node1&#45;&gt;Node8 -->
<g id="edge7" class="edge">
<title>Node1&#45;&gt;Node8</title>
<path fill="none" stroke="midnightblue" d="M828.15,-29.07C836.67,-28.03 845.33,-26.97 853.85,-25.93"/>
<polygon fill="midnightblue" stroke="midnightblue" points="827.72,-25.6 818.22,-30.29 828.57,-32.55 827.72,-25.6"/>
</g>
<!-- Node2 -->
<g id="node2" class="node">
<title>Node2</title>
<g id="a_node2"><a xlink:href="class_ogre_1_1_plane_bounded_volume_list_scene_query.html" target="_top" xlink:title="Specialises the SceneQuery class for querying within a plane&#45;bounded volume.">
<polygon fill="none" stroke="black" points="478,-24.5 478,-54.5 630,-54.5 630,-24.5 478,-24.5"/>
<text text-anchor="start" x="486" y="-42.5" font-family="Helvetica,sans-Serif" font-size="10.00">Ogre::PlaneBoundedVolume</text>
<text text-anchor="middle" x="554" y="-31.5" font-family="Helvetica,sans-Serif" font-size="10.00">ListSceneQuery</text>
</a>
</g>
</g>
<!-- Node2&#45;&gt;Node1 -->
<g id="edge1" class="edge">
<title>Node2&#45;&gt;Node1</title>
<path fill="none" stroke="midnightblue" d="M640.15,-39.5C648.74,-39.5 657.43,-39.5 665.9,-39.5"/>
<polygon fill="midnightblue" stroke="midnightblue" points="640.12,-36 630.12,-39.5 640.12,-43 640.12,-36"/>
</g>
<!-- Node3 -->
<g id="node3" class="node">
<title>Node3</title>
<g id="a_node3"><a xlink:href="class_ogre_1_1_region_scene_query.html" target="_top" xlink:title="Abstract class defining a query which returns single results from a region.">
<polygon fill="none" stroke="black" points="304,-30 304,-49 442,-49 442,-30 304,-30"/>
<text text-anchor="middle" x="373" y="-37" font-family="Helvetica,sans-Serif" font-size="10.00">Ogre::RegionSceneQuery</text>
</a>
</g>
</g>
<!-- Node3&#45;&gt;Node2 -->
<g id="edge2" class="edge">
<title>Node3&#45;&gt;Node2</title>
<path fill="none" stroke="midnightblue" d="M452.4,-39.5C460.85,-39.5 469.43,-39.5 477.84,-39.5"/>
<polygon fill="midnightblue" stroke="midnightblue" points="452.18,-36 442.18,-39.5 452.18,-43 452.18,-36"/>
</g>
<!-- Node4 -->
<g id="node4" class="node">
<title>Node4</title>
<g id="a_node4"><a xlink:href="class_ogre_1_1_scene_query.html" target="_top" xlink:title="A class for performing queries on a scene.">
<polygon fill="none" stroke="black" points="144.5,-49 144.5,-68 248.5,-68 248.5,-49 144.5,-49"/>
<text text-anchor="middle" x="196.5" y="-56" font-family="Helvetica,sans-Serif" font-size="10.00">Ogre::SceneQuery</text>
</a>
</g>
</g>
<!-- Node4&#45;&gt;Node3 -->
<g id="edge3" class="edge">
<title>Node4&#45;&gt;Node3</title>
<path fill="none" stroke="midnightblue" d="M259.22,-51.78C273.65,-50.21 289.11,-48.53 303.81,-46.92"/>
<polygon fill="midnightblue" stroke="midnightblue" points="258.47,-48.34 248.91,-52.9 259.23,-55.3 258.47,-48.34"/>
</g>
<!-- Node5 -->
<g id="node5" class="node">
<title>Node5</title>
<g id="a_node5"><a xlink:title=" ">
<polygon fill="none" stroke="#bfbfbf" points="0,-49 0,-68 89,-68 89,-49 0,-49"/>
<text text-anchor="middle" x="44.5" y="-56" font-family="Helvetica,sans-Serif" font-size="10.00">SceneMgtAlloc</text>
</a>
</g>
</g>
<!-- Node5&#45;&gt;Node4 -->
<g id="edge4" class="edge">
<title>Node5&#45;&gt;Node4</title>
<path fill="none" stroke="midnightblue" d="M99.64,-58.5C114.19,-58.5 129.86,-58.5 144.24,-58.5"/>
<polygon fill="midnightblue" stroke="midnightblue" points="99.29,-55 89.29,-58.5 99.29,-62 99.29,-55"/>
</g>
<!-- Node6 -->
<g id="node6" class="node">
<title>Node6</title>
<g id="a_node6"><a xlink:href="class_ogre_1_1_scene_query_listener.html" target="_top" xlink:title="This optional class allows you to receive per&#45;result callbacks from SceneQuery executions instead of ...">
<polygon fill="none" stroke="black" points="125,-11 125,-30 268,-30 268,-11 125,-11"/>
<text text-anchor="middle" x="196.5" y="-18" font-family="Helvetica,sans-Serif" font-size="10.00">Ogre::SceneQueryListener</text>
</a>
</g>
</g>
<!-- Node6&#45;&gt;Node3 -->
<g id="edge5" class="edge">
<title>Node6&#45;&gt;Node3</title>
<path fill="none" stroke="midnightblue" d="M278.19,-29.29C286.72,-30.21 295.34,-31.15 303.72,-32.07"/>
<polygon fill="midnightblue" stroke="midnightblue" points="278.54,-25.8 268.22,-28.2 277.79,-32.76 278.54,-25.8"/>
</g>
</g>
</svg>
