<?xml version="1.0" encoding="UTF-8" standalone="no"?>
<!DOCTYPE svg PUBLIC "-//W3C//DTD SVG 1.1//EN"
 "http://www.w3.org/Graphics/SVG/1.1/DTD/svg11.dtd">
<!-- Generated by graphviz version 2.43.0 (0)
 -->
<!-- Title: Ogre::RTShader::ShaderGenerator Pages: 1 -->
<svg width="346pt" height="84pt"
 viewBox="0.00 0.00 346.00 84.00" xmlns="http://www.w3.org/2000/svg" xmlns:xlink="http://www.w3.org/1999/xlink">
<g id="graph0" class="graph" transform="scale(1 1) rotate(0) translate(4 80)">
<title>Ogre::RTShader::ShaderGenerator</title>
<!-- Node1 -->
<g id="node1" class="node">
<title>Node1</title>
<g id="a_node1"><a xlink:title="Shader generator system main interface.">
<polygon fill="#bfbfbf" stroke="black" points="97.5,-0.5 97.5,-19.5 277.5,-19.5 277.5,-0.5 97.5,-0.5"/>
<text text-anchor="middle" x="187.5" y="-7.5" font-family="Helvetica,sans-Serif" font-size="10.00">Ogre::RTShader::ShaderGenerator</text>
</a>
</g>
</g>
<!-- Node2 -->
<g id="node2" class="node">
<title>Node2</title>
<g id="a_node2"><a xlink:href="class_ogre_1_1_singleton.html" target="_top" xlink:title=" ">
<polygon fill="none" stroke="black" points="0,-56.5 0,-75.5 197,-75.5 197,-56.5 0,-56.5"/>
<text text-anchor="middle" x="98.5" y="-63.5" font-family="Helvetica,sans-Serif" font-size="10.00">Ogre::Singleton&lt; ShaderGenerator &gt;</text>
</a>
</g>
</g>
<!-- Node2&#45;&gt;Node1 -->
<g id="edge1" class="edge">
<title>Node2&#45;&gt;Node1</title>
<path fill="none" stroke="midnightblue" d="M121.74,-50.9C138.06,-41 159.37,-28.07 173.24,-19.65"/>
<polygon fill="midnightblue" stroke="midnightblue" points="119.53,-48.14 112.8,-56.32 123.16,-54.13 119.53,-48.14"/>
</g>
<!-- Node3 -->
<g id="node3" class="node">
<title>Node3</title>
<g id="a_node3"><a xlink:title=" ">
<polygon fill="none" stroke="#bfbfbf" points="215,-56.5 215,-75.5 338,-75.5 338,-56.5 215,-56.5"/>
<text text-anchor="middle" x="276.5" y="-63.5" font-family="Helvetica,sans-Serif" font-size="10.00">RTShaderSystemAlloc</text>
</a>
</g>
</g>
<!-- Node3&#45;&gt;Node1 -->
<g id="edge2" class="edge">
<title>Node3&#45;&gt;Node1</title>
<path fill="none" stroke="midnightblue" d="M253.26,-50.9C236.94,-41 215.63,-28.07 201.76,-19.65"/>
<polygon fill="midnightblue" stroke="midnightblue" points="251.84,-54.13 262.2,-56.32 255.47,-48.14 251.84,-54.13"/>
</g>
</g>
</svg>
