<?xml version="1.0" encoding="UTF-8" standalone="no"?>
<!DOCTYPE svg PUBLIC "-//W3C//DTD SVG 1.1//EN"
 "http://www.w3.org/Graphics/SVG/1.1/DTD/svg11.dtd">
<!-- Generated by graphviz version 2.43.0 (0)
 -->
<!-- Title: Ogre::GL3PlusHardwareVertexBuffer Pages: 1 -->
<svg width="172pt" height="207pt"
 viewBox="0.00 0.00 172.00 207.00" xmlns="http://www.w3.org/2000/svg" xmlns:xlink="http://www.w3.org/1999/xlink">
<g id="graph0" class="graph" transform="scale(1 1) rotate(0) translate(4 203)">
<title>Ogre::GL3PlusHardwareVertexBuffer</title>
<!-- Node1 -->
<g id="node1" class="node">
<title>Node1</title>
<g id="a_node1"><a xlink:title="Specialisation of HardwareVertexBuffer for OpenGL.">
<polygon fill="#bfbfbf" stroke="black" points="0,-0.5 0,-30.5 164,-30.5 164,-0.5 0,-0.5"/>
<text text-anchor="start" x="8" y="-18.5" font-family="Helvetica,sans-Serif" font-size="10.00">Ogre::GL3PlusHardwareVertex</text>
<text text-anchor="middle" x="82" y="-7.5" font-family="Helvetica,sans-Serif" font-size="10.00">Buffer</text>
</a>
</g>
</g>
<!-- Node2 -->
<g id="node2" class="node">
<title>Node2</title>
<g id="a_node2"><a xlink:href="class_ogre_1_1_hardware_vertex_buffer.html" target="_top" xlink:title="Specialisation of HardwareBuffer for a vertex buffer.">
<polygon fill="none" stroke="black" points="5,-67.5 5,-86.5 159,-86.5 159,-67.5 5,-67.5"/>
<text text-anchor="middle" x="82" y="-74.5" font-family="Helvetica,sans-Serif" font-size="10.00">Ogre::HardwareVertexBuffer</text>
</a>
</g>
</g>
<!-- Node2&#45;&gt;Node1 -->
<g id="edge1" class="edge">
<title>Node2&#45;&gt;Node1</title>
<path fill="none" stroke="midnightblue" d="M82,-57.23C82,-48.59 82,-38.5 82,-30.52"/>
<polygon fill="midnightblue" stroke="midnightblue" points="78.5,-57.48 82,-67.48 85.5,-57.48 78.5,-57.48"/>
</g>
<!-- Node3 -->
<g id="node3" class="node">
<title>Node3</title>
<g id="a_node3"><a xlink:href="class_ogre_1_1_hardware_buffer.html" target="_top" xlink:title="Abstract class defining common features of hardware buffers.">
<polygon fill="none" stroke="black" points="21,-123.5 21,-142.5 143,-142.5 143,-123.5 21,-123.5"/>
<text text-anchor="middle" x="82" y="-130.5" font-family="Helvetica,sans-Serif" font-size="10.00">Ogre::HardwareBuffer</text>
</a>
</g>
</g>
<!-- Node3&#45;&gt;Node2 -->
<g id="edge2" class="edge">
<title>Node3&#45;&gt;Node2</title>
<path fill="none" stroke="midnightblue" d="M82,-112.8C82,-103.91 82,-93.78 82,-86.75"/>
<polygon fill="midnightblue" stroke="midnightblue" points="78.5,-113.08 82,-123.08 85.5,-113.08 78.5,-113.08"/>
</g>
<!-- Node4 -->
<g id="node4" class="node">
<title>Node4</title>
<g id="a_node4"><a xlink:title=" ">
<polygon fill="none" stroke="#bfbfbf" points="47,-179.5 47,-198.5 117,-198.5 117,-179.5 47,-179.5"/>
<text text-anchor="middle" x="82" y="-186.5" font-family="Helvetica,sans-Serif" font-size="10.00">BufferAlloc</text>
</a>
</g>
</g>
<!-- Node4&#45;&gt;Node3 -->
<g id="edge3" class="edge">
<title>Node4&#45;&gt;Node3</title>
<path fill="none" stroke="midnightblue" d="M82,-168.8C82,-159.91 82,-149.78 82,-142.75"/>
<polygon fill="midnightblue" stroke="midnightblue" points="78.5,-169.08 82,-179.08 85.5,-169.08 78.5,-169.08"/>
</g>
</g>
</svg>
