<?xml version="1.0" encoding="UTF-8" standalone="no"?>
<!DOCTYPE svg PUBLIC "-//W3C//DTD SVG 1.1//EN"
 "http://www.w3.org/Graphics/SVG/1.1/DTD/svg11.dtd">
<!-- Generated by graphviz version 2.43.0 (0)
 -->
<!-- Title: Ogre::DepthBuffer Pages: 1 -->
<svg width="616pt" height="142pt"
 viewBox="0.00 0.00 616.00 142.00" xmlns="http://www.w3.org/2000/svg" xmlns:xlink="http://www.w3.org/1999/xlink">
<g id="graph0" class="graph" transform="scale(1 1) rotate(0) translate(4 138)">
<title>Ogre::DepthBuffer</title>
<!-- Node1 -->
<g id="node1" class="node">
<title>Node1</title>
<g id="a_node1"><a xlink:title="An abstract class that contains a depth/stencil buffer.">
<polygon fill="#bfbfbf" stroke="black" points="128,-57.5 128,-76.5 232,-76.5 232,-57.5 128,-57.5"/>
<text text-anchor="middle" x="180" y="-64.5" font-family="Helvetica,sans-Serif" font-size="10.00">Ogre::DepthBuffer</text>
</a>
</g>
</g>
<!-- Node3 -->
<g id="node3" class="node">
<title>Node3</title>
<g id="a_node3"><a xlink:href="class_ogre_1_1_d3_d11_depth_buffer.html" target="_top" xlink:title=" ">
<polygon fill="none" stroke="black" points="280,-114.5 280,-133.5 417,-133.5 417,-114.5 280,-114.5"/>
<text text-anchor="middle" x="348.5" y="-121.5" font-family="Helvetica,sans-Serif" font-size="10.00">Ogre::D3D11DepthBuffer</text>
</a>
</g>
</g>
<!-- Node1&#45;&gt;Node3 -->
<g id="edge2" class="edge">
<title>Node1&#45;&gt;Node3</title>
<path fill="none" stroke="midnightblue" d="M209.54,-80.99C226.28,-88.81 248.01,-98.3 268,-105 278.63,-108.56 290.27,-111.73 301.28,-114.42"/>
<polygon fill="midnightblue" stroke="midnightblue" points="210.84,-77.74 200.31,-76.61 207.84,-84.06 210.84,-77.74"/>
</g>
<!-- Node4 -->
<g id="node4" class="node">
<title>Node4</title>
<g id="a_node4"><a xlink:href="class_ogre_1_1_d3_d9_depth_buffer.html" target="_top" xlink:title=" ">
<polygon fill="none" stroke="black" points="283,-76.5 283,-95.5 414,-95.5 414,-76.5 283,-76.5"/>
<text text-anchor="middle" x="348.5" y="-83.5" font-family="Helvetica,sans-Serif" font-size="10.00">Ogre::D3D9DepthBuffer</text>
</a>
</g>
</g>
<!-- Node1&#45;&gt;Node4 -->
<g id="edge3" class="edge">
<title>Node1&#45;&gt;Node4</title>
<path fill="none" stroke="midnightblue" d="M242.63,-74.03C255.73,-75.53 269.61,-77.11 282.82,-78.62"/>
<polygon fill="midnightblue" stroke="midnightblue" points="242.65,-70.51 232.31,-72.86 241.85,-77.47 242.65,-70.51"/>
</g>
<!-- Node5 -->
<g id="node5" class="node">
<title>Node5</title>
<g id="a_node5"><a xlink:href="class_ogre_1_1_g_l_depth_buffer_common.html" target="_top" xlink:title="OpenGL supports 3 different methods: FBO, pbuffer &amp; Copy.">
<polygon fill="none" stroke="black" points="268,-38.5 268,-57.5 429,-57.5 429,-38.5 268,-38.5"/>
<text text-anchor="middle" x="348.5" y="-45.5" font-family="Helvetica,sans-Serif" font-size="10.00">Ogre::GLDepthBufferCommon</text>
</a>
</g>
</g>
<!-- Node1&#45;&gt;Node5 -->
<g id="edge4" class="edge">
<title>Node1&#45;&gt;Node5</title>
<path fill="none" stroke="midnightblue" d="M242.3,-60.01C250.63,-59.05 259.28,-58.07 267.88,-57.09"/>
<polygon fill="midnightblue" stroke="midnightblue" points="241.85,-56.53 232.31,-61.14 242.65,-63.49 241.85,-56.53"/>
</g>
<!-- Node9 -->
<g id="node9" class="node">
<title>Node9</title>
<g id="a_node9"><a xlink:href="class_ogre_1_1_metal_depth_buffer.html" target="_top" xlink:title=" ">
<polygon fill="none" stroke="black" points="282.5,-0.5 282.5,-19.5 414.5,-19.5 414.5,-0.5 282.5,-0.5"/>
<text text-anchor="middle" x="348.5" y="-7.5" font-family="Helvetica,sans-Serif" font-size="10.00">Ogre::MetalDepthBuffer</text>
</a>
</g>
</g>
<!-- Node1&#45;&gt;Node9 -->
<g id="edge8" class="edge">
<title>Node1&#45;&gt;Node9</title>
<path fill="none" stroke="midnightblue" d="M209.54,-53.01C226.28,-45.19 248.01,-35.7 268,-29 278.63,-25.44 290.27,-22.27 301.28,-19.58"/>
<polygon fill="midnightblue" stroke="midnightblue" points="207.84,-49.94 200.31,-57.39 210.84,-56.26 207.84,-49.94"/>
</g>
<!-- Node2 -->
<g id="node2" class="node">
<title>Node2</title>
<g id="a_node2"><a xlink:title=" ">
<polygon fill="none" stroke="#bfbfbf" points="0,-57.5 0,-76.5 92,-76.5 92,-57.5 0,-57.5"/>
<text text-anchor="middle" x="46" y="-64.5" font-family="Helvetica,sans-Serif" font-size="10.00">RenderSysAlloc</text>
</a>
</g>
</g>
<!-- Node2&#45;&gt;Node1 -->
<g id="edge1" class="edge">
<title>Node2&#45;&gt;Node1</title>
<path fill="none" stroke="midnightblue" d="M102.23,-67C110.7,-67 119.41,-67 127.79,-67"/>
<polygon fill="midnightblue" stroke="midnightblue" points="102.06,-63.5 92.06,-67 102.06,-70.5 102.06,-63.5"/>
</g>
<!-- Node6 -->
<g id="node6" class="node">
<title>Node6</title>
<g id="a_node6"><a xlink:href="class_ogre_1_1_g_l3_plus_depth_buffer.html" target="_top" xlink:title=" ">
<polygon fill="none" stroke="black" points="465,-76.5 465,-95.5 608,-95.5 608,-76.5 465,-76.5"/>
<text text-anchor="middle" x="536.5" y="-83.5" font-family="Helvetica,sans-Serif" font-size="10.00">Ogre::GL3PlusDepthBuffer</text>
</a>
</g>
</g>
<!-- Node5&#45;&gt;Node6 -->
<g id="edge5" class="edge">
<title>Node5&#45;&gt;Node6</title>
<path fill="none" stroke="midnightblue" d="M406.33,-59.61C432.78,-65.01 463.86,-71.36 488.9,-76.48"/>
<polygon fill="midnightblue" stroke="midnightblue" points="406.93,-56.16 396.44,-57.59 405.53,-63.02 406.93,-56.16"/>
</g>
<!-- Node7 -->
<g id="node7" class="node">
<title>Node7</title>
<g id="a_node7"><a xlink:href="class_ogre_1_1_g_l_depth_buffer.html" target="_top" xlink:title=" ">
<polygon fill="none" stroke="black" points="478,-38.5 478,-57.5 595,-57.5 595,-38.5 478,-38.5"/>
<text text-anchor="middle" x="536.5" y="-45.5" font-family="Helvetica,sans-Serif" font-size="10.00">Ogre::GLDepthBuffer</text>
</a>
</g>
</g>
<!-- Node5&#45;&gt;Node7 -->
<g id="edge6" class="edge">
<title>Node5&#45;&gt;Node7</title>
<path fill="none" stroke="midnightblue" d="M439.22,-48C452.37,-48 465.62,-48 477.89,-48"/>
<polygon fill="midnightblue" stroke="midnightblue" points="439.19,-44.5 429.19,-48 439.19,-51.5 439.19,-44.5"/>
</g>
<!-- Node8 -->
<g id="node8" class="node">
<title>Node8</title>
<g id="a_node8"><a xlink:href="class_ogre_1_1_g_l_e_s2_depth_buffer.html" target="_top" xlink:title=" ">
<polygon fill="none" stroke="black" points="469,-0.5 469,-19.5 604,-19.5 604,-0.5 469,-0.5"/>
<text text-anchor="middle" x="536.5" y="-7.5" font-family="Helvetica,sans-Serif" font-size="10.00">Ogre::GLES2DepthBuffer</text>
</a>
</g>
</g>
<!-- Node5&#45;&gt;Node8 -->
<g id="edge7" class="edge">
<title>Node5&#45;&gt;Node8</title>
<path fill="none" stroke="midnightblue" d="M406.33,-36.39C432.78,-30.99 463.86,-24.64 488.9,-19.52"/>
<polygon fill="midnightblue" stroke="midnightblue" points="405.53,-32.98 396.44,-38.41 406.93,-39.84 405.53,-32.98"/>
</g>
</g>
</svg>
