<?xml version="1.0" encoding="UTF-8" standalone="no"?>
<!DOCTYPE svg PUBLIC "-//W3C//DTD SVG 1.1//EN"
 "http://www.w3.org/Graphics/SVG/1.1/DTD/svg11.dtd">
<!-- Generated by graphviz version 2.43.0 (0)
 -->
<!-- Title: Ogre::WorkQueue::ResponseHandler Pages: 1 -->
<svg width="371pt" height="306pt"
 viewBox="0.00 0.00 371.00 306.00" xmlns="http://www.w3.org/2000/svg" xmlns:xlink="http://www.w3.org/1999/xlink">
<g id="graph0" class="graph" transform="scale(1 1) rotate(0) translate(4 302)">
<title>Ogre::WorkQueue::ResponseHandler</title>
<!-- Node1 -->
<g id="node1" class="node">
<title>Node1</title>
<g id="a_node1"><a xlink:title="Interface definition for a handler of responses.">
<polygon fill="#bfbfbf" stroke="black" points="0,-128 0,-158 155,-158 155,-128 0,-128"/>
<text text-anchor="start" x="8" y="-146" font-family="Helvetica,sans-Serif" font-size="10.00">Ogre::WorkQueue::Response</text>
<text text-anchor="middle" x="77.5" y="-135" font-family="Helvetica,sans-Serif" font-size="10.00">Handler</text>
</a>
</g>
</g>
<!-- Node2 -->
<g id="node2" class="node">
<title>Node2</title>
<g id="a_node2"><a xlink:href="class_ogre_1_1_lod_work_queue_injector.html" target="_top" xlink:title="Injects the output of a request to the mesh in a thread safe way.">
<polygon fill="none" stroke="black" points="199,-278.5 199,-297.5 355,-297.5 355,-278.5 199,-278.5"/>
<text text-anchor="middle" x="277" y="-285.5" font-family="Helvetica,sans-Serif" font-size="10.00">Ogre::LodWorkQueueInjector</text>
</a>
</g>
</g>
<!-- Node1&#45;&gt;Node2 -->
<g id="edge1" class="edge">
<title>Node1&#45;&gt;Node2</title>
<path fill="none" stroke="midnightblue" d="M93.02,-166.83C111.9,-195.67 147.64,-243.54 191,-269 197.65,-272.9 205.02,-276.01 212.57,-278.47"/>
<polygon fill="midnightblue" stroke="midnightblue" points="95.83,-164.72 87.5,-158.18 89.93,-168.49 95.83,-164.72"/>
</g>
<!-- Node3 -->
<g id="node3" class="node">
<title>Node3</title>
<g id="a_node3"><a xlink:href="class_ogre_1_1_page.html" target="_top" xlink:title="Page class.">
<polygon fill="none" stroke="black" points="242.5,-240.5 242.5,-259.5 311.5,-259.5 311.5,-240.5 242.5,-240.5"/>
<text text-anchor="middle" x="277" y="-247.5" font-family="Helvetica,sans-Serif" font-size="10.00">Ogre::Page</text>
</a>
</g>
</g>
<!-- Node1&#45;&gt;Node3 -->
<g id="edge2" class="edge">
<title>Node1&#45;&gt;Node3</title>
<path fill="none" stroke="midnightblue" d="M100.64,-165.28C121.97,-185.45 156.06,-214.47 191,-231 206.99,-238.57 226.12,-243.18 242.18,-245.97"/>
<polygon fill="midnightblue" stroke="midnightblue" points="103.01,-162.7 93.38,-158.28 98.15,-167.74 103.01,-162.7"/>
</g>
<!-- Node4 -->
<g id="node4" class="node">
<title>Node4</title>
<g id="a_node4"><a xlink:href="class_ogre_1_1_resource_background_queue.html" target="_top" xlink:title="This class is used to perform Resource operations in a background thread.">
<polygon fill="none" stroke="black" points="202.5,-191 202.5,-221 351.5,-221 351.5,-191 202.5,-191"/>
<text text-anchor="start" x="210.5" y="-209" font-family="Helvetica,sans-Serif" font-size="10.00">Ogre::ResourceBackground</text>
<text text-anchor="middle" x="277" y="-198" font-family="Helvetica,sans-Serif" font-size="10.00">Queue</text>
</a>
</g>
</g>
<!-- Node1&#45;&gt;Node4 -->
<g id="edge3" class="edge">
<title>Node1&#45;&gt;Node4</title>
<path fill="none" stroke="midnightblue" d="M131.22,-161.29C150.03,-167.69 171.41,-174.81 191,-181 201.56,-184.34 212.9,-187.77 223.76,-190.99"/>
<polygon fill="midnightblue" stroke="midnightblue" points="132.24,-157.94 121.64,-158.02 129.97,-164.56 132.24,-157.94"/>
</g>
<!-- Node5 -->
<g id="node5" class="node">
<title>Node5</title>
<g id="a_node5"><a xlink:href="class_ogre_1_1_terrain.html" target="_top" xlink:title="The main containing class for a chunk of terrain.">
<polygon fill="none" stroke="black" points="237.5,-152.5 237.5,-171.5 316.5,-171.5 316.5,-152.5 237.5,-152.5"/>
<text text-anchor="middle" x="277" y="-159.5" font-family="Helvetica,sans-Serif" font-size="10.00">Ogre::Terrain</text>
</a>
</g>
</g>
<!-- Node1&#45;&gt;Node5 -->
<g id="edge4" class="edge">
<title>Node1&#45;&gt;Node5</title>
<path fill="none" stroke="midnightblue" d="M165.14,-151.34C190.43,-153.77 216.8,-156.31 237.48,-158.29"/>
<polygon fill="midnightblue" stroke="midnightblue" points="165.43,-147.85 155.14,-150.37 164.76,-154.81 165.43,-147.85"/>
</g>
<!-- Node6 -->
<g id="node6" class="node">
<title>Node6</title>
<g id="a_node6"><a xlink:href="class_ogre_1_1_terrain_group.html" target="_top" xlink:title="Helper class to assist you in managing multiple terrain instances that are connected to each other.">
<polygon fill="none" stroke="black" points="223,-114.5 223,-133.5 331,-133.5 331,-114.5 223,-114.5"/>
<text text-anchor="middle" x="277" y="-121.5" font-family="Helvetica,sans-Serif" font-size="10.00">Ogre::TerrainGroup</text>
</a>
</g>
</g>
<!-- Node1&#45;&gt;Node6 -->
<g id="edge5" class="edge">
<title>Node1&#45;&gt;Node6</title>
<path fill="none" stroke="midnightblue" d="M165.32,-134.65C184.94,-132.76 205.19,-130.81 222.93,-129.11"/>
<polygon fill="midnightblue" stroke="midnightblue" points="164.76,-131.19 155.14,-135.63 165.43,-138.15 164.76,-131.19"/>
</g>
<!-- Node7 -->
<g id="node7" class="node">
<title>Node7</title>
<g id="a_node7"><a xlink:href="class_ogre_1_1_terrain_lod_manager.html" target="_top" xlink:title="Terrain LOD data manager.">
<polygon fill="none" stroke="black" points="207.5,-76.5 207.5,-95.5 346.5,-95.5 346.5,-76.5 207.5,-76.5"/>
<text text-anchor="middle" x="277" y="-83.5" font-family="Helvetica,sans-Serif" font-size="10.00">Ogre::TerrainLodManager</text>
</a>
</g>
</g>
<!-- Node1&#45;&gt;Node7 -->
<g id="edge6" class="edge">
<title>Node1&#45;&gt;Node7</title>
<path fill="none" stroke="midnightblue" d="M129.06,-124.65C148.31,-118 170.53,-110.73 191,-105 203.23,-101.58 216.59,-98.36 229.01,-95.57"/>
<polygon fill="midnightblue" stroke="midnightblue" points="127.87,-121.36 119.58,-127.96 130.18,-127.97 127.87,-121.36"/>
</g>
<!-- Node8 -->
<g id="node8" class="node">
<title>Node8</title>
<g id="a_node8"><a xlink:href="class_ogre_1_1_terrain_paged_world_section.html" target="_top" xlink:title="A world section which includes paged terrain.">
<polygon fill="none" stroke="black" points="191,-38.5 191,-57.5 363,-57.5 363,-38.5 191,-38.5"/>
<text text-anchor="middle" x="277" y="-45.5" font-family="Helvetica,sans-Serif" font-size="10.00">Ogre::TerrainPagedWorldSection</text>
</a>
</g>
</g>
<!-- Node1&#45;&gt;Node8 -->
<g id="edge7" class="edge">
<title>Node1&#45;&gt;Node8</title>
<path fill="none" stroke="midnightblue" d="M104.43,-121.32C126.23,-104.15 158.9,-80.84 191,-67 199.89,-63.17 209.64,-60.07 219.28,-57.57"/>
<polygon fill="midnightblue" stroke="midnightblue" points="101.97,-118.81 96.35,-127.79 106.34,-124.27 101.97,-118.81"/>
</g>
<!-- Node9 -->
<g id="node9" class="node">
<title>Node9</title>
<g id="a_node9"><a xlink:href="class_ogre_1_1_volume_1_1_chunk_handler.html" target="_top" xlink:title="Handles the WorkQueue management of the chunks.">
<polygon fill="none" stroke="black" points="198,-0.5 198,-19.5 356,-19.5 356,-0.5 198,-0.5"/>
<text text-anchor="middle" x="277" y="-7.5" font-family="Helvetica,sans-Serif" font-size="10.00">Ogre::Volume::ChunkHandler</text>
</a>
</g>
</g>
<!-- Node1&#45;&gt;Node9 -->
<g id="edge8" class="edge">
<title>Node1&#45;&gt;Node9</title>
<path fill="none" stroke="midnightblue" d="M95.07,-119.46C114.84,-93.22 150.36,-51.52 191,-29 198.01,-25.12 205.76,-22.03 213.65,-19.57"/>
<polygon fill="midnightblue" stroke="midnightblue" points="92.1,-117.59 88.99,-127.71 97.74,-121.74 92.1,-117.59"/>
</g>
</g>
</svg>
