<?xml version="1.0" encoding="UTF-8" standalone="no"?>
<!DOCTYPE svg PUBLIC "-//W3C//DTD SVG 1.1//EN"
 "http://www.w3.org/Graphics/SVG/1.1/DTD/svg11.dtd">
<!-- Generated by graphviz version 2.43.0 (0)
 -->
<!-- Title: OgreBites::TrayManager Pages: 1 -->
<svg width="468pt" height="84pt"
 viewBox="0.00 0.00 468.00 84.00" xmlns="http://www.w3.org/2000/svg" xmlns:xlink="http://www.w3.org/1999/xlink">
<g id="graph0" class="graph" transform="scale(1 1) rotate(0) translate(4 80)">
<title>OgreBites::TrayManager</title>
<!-- Node1 -->
<g id="node1" class="node">
<title>Node1</title>
<g id="a_node1"><a xlink:title="Main class to manage a cursor, backdrop, trays and widgets.">
<polygon fill="#bfbfbf" stroke="black" points="161,-0.5 161,-19.5 295,-19.5 295,-0.5 161,-0.5"/>
<text text-anchor="middle" x="228" y="-7.5" font-family="Helvetica,sans-Serif" font-size="10.00">OgreBites::TrayManager</text>
</a>
</g>
</g>
<!-- Node2 -->
<g id="node2" class="node">
<title>Node2</title>
<g id="a_node2"><a xlink:href="class_ogre_bites_1_1_tray_listener.html" target="_top" xlink:title="Listener class for responding to tray events.">
<polygon fill="none" stroke="black" points="0,-56.5 0,-75.5 130,-75.5 130,-56.5 0,-56.5"/>
<text text-anchor="middle" x="65" y="-63.5" font-family="Helvetica,sans-Serif" font-size="10.00">OgreBites::TrayListener</text>
</a>
</g>
</g>
<!-- Node2&#45;&gt;Node1 -->
<g id="edge1" class="edge">
<title>Node2&#45;&gt;Node1</title>
<path fill="none" stroke="midnightblue" d="M100.7,-53.17C131.4,-43 174.92,-28.59 202.29,-19.52"/>
<polygon fill="midnightblue" stroke="midnightblue" points="99.22,-49.98 90.83,-56.44 101.42,-56.62 99.22,-49.98"/>
</g>
<!-- Node3 -->
<g id="node3" class="node">
<title>Node3</title>
<g id="a_node3"><a xlink:href="class_ogre_1_1_resource_group_listener.html" target="_top" xlink:title="This class defines an interface which is called back during resource group loading to indicate the pr...">
<polygon fill="none" stroke="black" points="148.5,-56.5 148.5,-75.5 307.5,-75.5 307.5,-56.5 148.5,-56.5"/>
<text text-anchor="middle" x="228" y="-63.5" font-family="Helvetica,sans-Serif" font-size="10.00">Ogre::ResourceGroupListener</text>
</a>
</g>
</g>
<!-- Node3&#45;&gt;Node1 -->
<g id="edge2" class="edge">
<title>Node3&#45;&gt;Node1</title>
<path fill="none" stroke="midnightblue" d="M228,-45.8C228,-36.91 228,-26.78 228,-19.75"/>
<polygon fill="midnightblue" stroke="midnightblue" points="224.5,-46.08 228,-56.08 231.5,-46.08 224.5,-46.08"/>
</g>
<!-- Node4 -->
<g id="node4" class="node">
<title>Node4</title>
<g id="a_node4"><a xlink:href="struct_ogre_bites_1_1_input_listener.html" target="_top" xlink:title="the return values of the callbacks are ignored by ApplicationContext however they can be used to cont...">
<polygon fill="none" stroke="black" points="326,-56.5 326,-75.5 460,-75.5 460,-56.5 326,-56.5"/>
<text text-anchor="middle" x="393" y="-63.5" font-family="Helvetica,sans-Serif" font-size="10.00">OgreBites::InputListener</text>
</a>
</g>
</g>
<!-- Node4&#45;&gt;Node1 -->
<g id="edge3" class="edge">
<title>Node4&#45;&gt;Node1</title>
<path fill="none" stroke="midnightblue" d="M357.26,-53.3C326.17,-43.13 281.85,-28.62 254.02,-19.52"/>
<polygon fill="midnightblue" stroke="midnightblue" points="356.26,-56.66 366.86,-56.44 358.44,-50.01 356.26,-56.66"/>
</g>
</g>
</svg>
