<?xml version="1.0" encoding="UTF-8" standalone="no"?>
<!DOCTYPE svg PUBLIC "-//W3C//DTD SVG 1.1//EN"
 "http://www.w3.org/Graphics/SVG/1.1/DTD/svg11.dtd">
<!-- Generated by graphviz version 2.43.0 (0)
 -->
<!-- Title: Ogre::ScriptLoader Pages: 1 -->
<svg width="720pt" height="449pt"
 viewBox="0.00 0.00 720.00 449.00" xmlns="http://www.w3.org/2000/svg" xmlns:xlink="http://www.w3.org/1999/xlink">
<g id="graph0" class="graph" transform="scale(1 1) rotate(0) translate(4 445)">
<title>Ogre::ScriptLoader</title>
<!-- Node1 -->
<g id="node1" class="node">
<title>Node1</title>
<g id="a_node1"><a xlink:title="Abstract class defining the interface used by classes which wish to perform script loading to define ...">
<polygon fill="#bfbfbf" stroke="black" points="0,-326.5 0,-345.5 107,-345.5 107,-326.5 0,-326.5"/>
<text text-anchor="middle" x="53.5" y="-333.5" font-family="Helvetica,sans-Serif" font-size="10.00">Ogre::ScriptLoader</text>
</a>
</g>
</g>
<!-- Node2 -->
<g id="node2" class="node">
<title>Node2</title>
<g id="a_node2"><a xlink:href="class_ogre_1_1_cg_fx_script_loader.html" target="_top" xlink:title="Manages Overlay objects, parsing them from .overlay files and storing a lookup library of them.">
<polygon fill="none" stroke="black" points="158,-421.5 158,-440.5 289,-440.5 289,-421.5 158,-421.5"/>
<text text-anchor="middle" x="223.5" y="-428.5" font-family="Helvetica,sans-Serif" font-size="10.00">Ogre::CgFxScriptLoader</text>
</a>
</g>
</g>
<!-- Node1&#45;&gt;Node2 -->
<g id="edge1" class="edge">
<title>Node1&#45;&gt;Node2</title>
<path fill="none" stroke="midnightblue" d="M69.85,-353.32C86.25,-370.75 113.86,-397.12 143,-412 150.58,-415.87 158.98,-418.97 167.39,-421.45"/>
<polygon fill="midnightblue" stroke="midnightblue" points="72.08,-350.58 62.74,-345.57 66.92,-355.31 72.08,-350.58"/>
</g>
<!-- Node3 -->
<g id="node3" class="node">
<title>Node3</title>
<g id="a_node3"><a xlink:href="class_ogre_1_1_overlay_manager.html" target="_top" xlink:title="Manages Overlay objects, parsing them from .overlay files and storing a lookup library of them.">
<polygon fill="none" stroke="black" points="160,-383.5 160,-402.5 287,-402.5 287,-383.5 160,-383.5"/>
<text text-anchor="middle" x="223.5" y="-390.5" font-family="Helvetica,sans-Serif" font-size="10.00">Ogre::OverlayManager</text>
</a>
</g>
</g>
<!-- Node1&#45;&gt;Node3 -->
<g id="edge2" class="edge">
<title>Node1&#45;&gt;Node3</title>
<path fill="none" stroke="midnightblue" d="M83.55,-349.97C100.59,-357.78 122.7,-367.27 143,-374 153.78,-377.57 165.58,-380.77 176.72,-383.47"/>
<polygon fill="midnightblue" stroke="midnightblue" points="84.7,-346.64 74.16,-345.6 81.75,-352.99 84.7,-346.64"/>
</g>
<!-- Node4 -->
<g id="node4" class="node">
<title>Node4</title>
<g id="a_node4"><a xlink:href="class_ogre_1_1_particle_system_manager.html" target="_top" xlink:title="Manages particle systems, particle system scripts (templates) and the available emitter &amp; affector fa...">
<polygon fill="none" stroke="black" points="143,-345.5 143,-364.5 304,-364.5 304,-345.5 143,-345.5"/>
<text text-anchor="middle" x="223.5" y="-352.5" font-family="Helvetica,sans-Serif" font-size="10.00">Ogre::ParticleSystemManager</text>
</a>
</g>
</g>
<!-- Node1&#45;&gt;Node4 -->
<g id="edge3" class="edge">
<title>Node1&#45;&gt;Node4</title>
<path fill="none" stroke="midnightblue" d="M117.24,-343.1C125.62,-344.04 134.3,-345.02 142.92,-346"/>
<polygon fill="midnightblue" stroke="midnightblue" points="117.53,-339.61 107.2,-341.96 116.74,-346.56 117.53,-339.61"/>
</g>
<!-- Node5 -->
<g id="node5" class="node">
<title>Node5</title>
<g id="a_node5"><a xlink:href="class_ogre_1_1_quake3_shader_manager.html" target="_top" xlink:title="Class for managing Quake3 custom shaders.">
<polygon fill="none" stroke="black" points="144,-307.5 144,-326.5 303,-326.5 303,-307.5 144,-307.5"/>
<text text-anchor="middle" x="223.5" y="-314.5" font-family="Helvetica,sans-Serif" font-size="10.00">Ogre::Quake3ShaderManager</text>
</a>
</g>
</g>
<!-- Node1&#45;&gt;Node5 -->
<g id="edge4" class="edge">
<title>Node1&#45;&gt;Node5</title>
<path fill="none" stroke="midnightblue" d="M117.22,-328.91C125.9,-327.92 134.91,-326.91 143.84,-325.9"/>
<polygon fill="midnightblue" stroke="midnightblue" points="116.74,-325.44 107.2,-330.04 117.53,-332.39 116.74,-325.44"/>
</g>
<!-- Node6 -->
<g id="node6" class="node">
<title>Node6</title>
<g id="a_node6"><a xlink:href="class_ogre_1_1_resource_manager.html" target="_top" xlink:title="Defines a generic resource handler.">
<polygon fill="none" stroke="black" points="156.5,-269.5 156.5,-288.5 290.5,-288.5 290.5,-269.5 156.5,-269.5"/>
<text text-anchor="middle" x="223.5" y="-276.5" font-family="Helvetica,sans-Serif" font-size="10.00">Ogre::ResourceManager</text>
</a>
</g>
</g>
<!-- Node1&#45;&gt;Node6 -->
<g id="edge5" class="edge">
<title>Node1&#45;&gt;Node6</title>
<path fill="none" stroke="midnightblue" d="M83.55,-322.03C100.59,-314.22 122.7,-304.73 143,-298 153.78,-294.43 165.58,-291.23 176.72,-288.53"/>
<polygon fill="midnightblue" stroke="midnightblue" points="81.75,-319.01 74.16,-326.4 84.7,-325.36 81.75,-319.01"/>
</g>
<!-- Node25 -->
<g id="node25" class="node">
<title>Node25</title>
<g id="a_node25"><a xlink:href="class_ogre_1_1_script_compiler_manager.html" target="_top" xlink:title="Manages threaded compilation of scripts.">
<polygon fill="none" stroke="black" points="143,-231.5 143,-250.5 304,-250.5 304,-231.5 143,-231.5"/>
<text text-anchor="middle" x="223.5" y="-238.5" font-family="Helvetica,sans-Serif" font-size="10.00">Ogre::ScriptCompilerManager</text>
</a>
</g>
</g>
<!-- Node1&#45;&gt;Node25 -->
<g id="edge24" class="edge">
<title>Node1&#45;&gt;Node25</title>
<path fill="none" stroke="midnightblue" d="M69.85,-318.68C86.25,-301.25 113.86,-274.88 143,-260 150.58,-256.13 158.98,-253.03 167.39,-250.55"/>
<polygon fill="midnightblue" stroke="midnightblue" points="66.92,-316.69 62.74,-326.43 72.08,-321.42 66.92,-316.69"/>
</g>
<!-- Node7 -->
<g id="node7" class="node">
<title>Node7</title>
<g id="a_node7"><a xlink:href="class_ogre_1_1_compositor_manager.html" target="_top" xlink:title="Class for managing Compositor settings for Ogre.">
<polygon fill="none" stroke="black" points="345,-411.5 345,-430.5 490,-430.5 490,-411.5 345,-411.5"/>
<text text-anchor="middle" x="417.5" y="-418.5" font-family="Helvetica,sans-Serif" font-size="10.00">Ogre::CompositorManager</text>
</a>
</g>
</g>
<!-- Node6&#45;&gt;Node7 -->
<g id="edge6" class="edge">
<title>Node6&#45;&gt;Node7</title>
<path fill="none" stroke="midnightblue" d="M298.58,-293.71C300.48,-295.02 302.29,-296.45 304,-298 340.25,-330.84 303.9,-369 340,-402 344.24,-405.88 349.15,-408.99 354.4,-411.5"/>
<polygon fill="midnightblue" stroke="midnightblue" points="300.21,-290.6 289.8,-288.61 296.7,-296.66 300.21,-290.6"/>
</g>
<!-- Node8 -->
<g id="node8" class="node">
<title>Node8</title>
<g id="a_node8"><a xlink:href="class_ogre_1_1_font_manager.html" target="_top" xlink:title="Manages Font resources, parsing .fontdef files and generally organising them.">
<polygon fill="none" stroke="black" points="362.5,-373.5 362.5,-392.5 472.5,-392.5 472.5,-373.5 362.5,-373.5"/>
<text text-anchor="middle" x="417.5" y="-380.5" font-family="Helvetica,sans-Serif" font-size="10.00">Ogre::FontManager</text>
</a>
</g>
</g>
<!-- Node6&#45;&gt;Node8 -->
<g id="edge7" class="edge">
<title>Node6&#45;&gt;Node8</title>
<path fill="none" stroke="midnightblue" d="M296.2,-292.89C298.93,-294.42 301.54,-296.12 304,-298 330.54,-318.3 313.55,-343.58 340,-364 346.61,-369.1 354.41,-372.85 362.46,-375.6"/>
<polygon fill="midnightblue" stroke="midnightblue" points="297.69,-289.72 287.16,-288.54 294.65,-296.03 297.69,-289.72"/>
</g>
<!-- Node9 -->
<g id="node9" class="node">
<title>Node9</title>
<g id="a_node9"><a xlink:href="class_ogre_1_1_gpu_program_manager.html" target="_top" xlink:title=" ">
<polygon fill="none" stroke="black" points="343,-335.5 343,-354.5 492,-354.5 492,-335.5 343,-335.5"/>
<text text-anchor="middle" x="417.5" y="-342.5" font-family="Helvetica,sans-Serif" font-size="10.00">Ogre::GpuProgramManager</text>
</a>
</g>
</g>
<!-- Node6&#45;&gt;Node9 -->
<g id="edge8" class="edge">
<title>Node6&#45;&gt;Node9</title>
<path fill="none" stroke="midnightblue" d="M288.12,-291.59C293.6,-293.46 298.96,-295.58 304,-298 322.27,-306.78 321.77,-317.14 340,-326 347.88,-329.83 356.6,-332.93 365.25,-335.43"/>
<polygon fill="midnightblue" stroke="midnightblue" points="288.77,-288.13 278.18,-288.51 286.7,-294.82 288.77,-288.13"/>
</g>
<!-- Node12 -->
<g id="node12" class="node">
<title>Node12</title>
<g id="a_node12"><a xlink:href="class_ogre_1_1_high_level_gpu_program_manager.html" target="_top" xlink:title="This ResourceManager manages high&#45;level vertex and fragment programs.">
<polygon fill="none" stroke="black" points="340,-286 340,-316 495,-316 495,-286 340,-286"/>
<text text-anchor="start" x="348" y="-304" font-family="Helvetica,sans-Serif" font-size="10.00">Ogre::HighLevelGpuProgram</text>
<text text-anchor="middle" x="417.5" y="-293" font-family="Helvetica,sans-Serif" font-size="10.00">Manager</text>
</a>
</g>
</g>
<!-- Node6&#45;&gt;Node12 -->
<g id="edge11" class="edge">
<title>Node6&#45;&gt;Node12</title>
<path fill="none" stroke="midnightblue" d="M300.74,-287.74C313.57,-289.21 326.89,-290.73 339.73,-292.2"/>
<polygon fill="midnightblue" stroke="midnightblue" points="300.91,-284.23 290.58,-286.57 300.11,-291.19 300.91,-284.23"/>
</g>
<!-- Node13 -->
<g id="node13" class="node">
<title>Node13</title>
<g id="a_node13"><a xlink:href="class_ogre_1_1_material_manager.html" target="_top" xlink:title="Class for managing Material settings for Ogre.">
<polygon fill="none" stroke="black" points="353,-247.5 353,-266.5 482,-266.5 482,-247.5 353,-247.5"/>
<text text-anchor="middle" x="417.5" y="-254.5" font-family="Helvetica,sans-Serif" font-size="10.00">Ogre::MaterialManager</text>
</a>
</g>
</g>
<!-- Node6&#45;&gt;Node13 -->
<g id="edge12" class="edge">
<title>Node6&#45;&gt;Node13</title>
<path fill="none" stroke="midnightblue" d="M300.65,-270.27C317.96,-268.29 336.17,-266.2 352.9,-264.29"/>
<polygon fill="midnightblue" stroke="midnightblue" points="300.11,-266.81 290.58,-271.43 300.91,-273.77 300.11,-266.81"/>
</g>
<!-- Node14 -->
<g id="node14" class="node">
<title>Node14</title>
<g id="a_node14"><a xlink:href="class_ogre_1_1_mesh_manager.html" target="_top" xlink:title="Handles the management of mesh resources.">
<polygon fill="none" stroke="black" points="360,-209.5 360,-228.5 475,-228.5 475,-209.5 360,-209.5"/>
<text text-anchor="middle" x="417.5" y="-216.5" font-family="Helvetica,sans-Serif" font-size="10.00">Ogre::MeshManager</text>
</a>
</g>
</g>
<!-- Node6&#45;&gt;Node14 -->
<g id="edge13" class="edge">
<title>Node6&#45;&gt;Node14</title>
<path fill="none" stroke="midnightblue" d="M284.6,-266.78C291.25,-264.8 297.83,-262.55 304,-260 321.33,-252.84 322.7,-245.23 340,-238 348.96,-234.25 358.84,-231.12 368.43,-228.55"/>
<polygon fill="midnightblue" stroke="midnightblue" points="283.57,-263.43 274.88,-269.49 285.45,-270.18 283.57,-263.43"/>
</g>
<!-- Node15 -->
<g id="node15" class="node">
<title>Node15</title>
<g id="a_node15"><a xlink:href="class_ogre_1_1_skeleton_manager.html" target="_top" xlink:title="Handles the management of skeleton resources.">
<polygon fill="none" stroke="black" points="352,-171.5 352,-190.5 483,-190.5 483,-171.5 352,-171.5"/>
<text text-anchor="middle" x="417.5" y="-178.5" font-family="Helvetica,sans-Serif" font-size="10.00">Ogre::SkeletonManager</text>
</a>
</g>
</g>
<!-- Node6&#45;&gt;Node15 -->
<g id="edge14" class="edge">
<title>Node6&#45;&gt;Node15</title>
<path fill="none" stroke="midnightblue" d="M295.92,-265.08C298.74,-263.56 301.45,-261.87 304,-260 329.08,-241.62 315,-218.49 340,-200 345.28,-196.09 351.27,-192.98 357.52,-190.51"/>
<polygon fill="midnightblue" stroke="midnightblue" points="294.19,-262.03 286.59,-269.41 297.14,-268.37 294.19,-262.03"/>
</g>
<!-- Node16 -->
<g id="node16" class="node">
<title>Node16</title>
<g id="a_node16"><a xlink:href="class_ogre_1_1_texture_manager.html" target="_top" xlink:title="Class for loading &amp; managing textures.">
<polygon fill="none" stroke="black" points="355,-133.5 355,-152.5 480,-152.5 480,-133.5 355,-133.5"/>
<text text-anchor="middle" x="417.5" y="-140.5" font-family="Helvetica,sans-Serif" font-size="10.00">Ogre::TextureManager</text>
</a>
</g>
</g>
<!-- Node6&#45;&gt;Node16 -->
<g id="edge15" class="edge">
<title>Node6&#45;&gt;Node16</title>
<path fill="none" stroke="midnightblue" d="M298.4,-264.35C300.36,-263.02 302.23,-261.57 304,-260 338.68,-229.17 305.46,-192.98 340,-162 344.38,-158.07 349.45,-154.93 354.85,-152.41"/>
<polygon fill="midnightblue" stroke="midnightblue" points="296.31,-261.51 289.33,-269.49 299.76,-267.6 296.31,-261.51"/>
</g>
<!-- Node10 -->
<g id="node10" class="node">
<title>Node10</title>
<g id="a_node10"><a xlink:href="class_ogre_1_1_d3_d9_gpu_program_manager.html" target="_top" xlink:title=" ">
<polygon fill="none" stroke="black" points="533.5,-358.5 533.5,-377.5 709.5,-377.5 709.5,-358.5 533.5,-358.5"/>
<text text-anchor="middle" x="621.5" y="-365.5" font-family="Helvetica,sans-Serif" font-size="10.00">Ogre::D3D9GpuProgramManager</text>
</a>
</g>
</g>
<!-- Node9&#45;&gt;Node10 -->
<g id="edge9" class="edge">
<title>Node9&#45;&gt;Node10</title>
<path fill="none" stroke="midnightblue" d="M502.28,-354.54C513.75,-355.85 525.53,-357.19 537.01,-358.49"/>
<polygon fill="midnightblue" stroke="midnightblue" points="502.62,-351.06 492.28,-353.4 501.82,-358.01 502.62,-351.06"/>
</g>
<!-- Node11 -->
<g id="node11" class="node">
<title>Node11</title>
<g id="a_node11"><a xlink:href="class_ogre_1_1_g_l_gpu_program_manager.html" target="_top" xlink:title=" ">
<polygon fill="none" stroke="black" points="540.5,-320.5 540.5,-339.5 702.5,-339.5 702.5,-320.5 540.5,-320.5"/>
<text text-anchor="middle" x="621.5" y="-327.5" font-family="Helvetica,sans-Serif" font-size="10.00">Ogre::GLGpuProgramManager</text>
</a>
</g>
</g>
<!-- Node9&#45;&gt;Node11 -->
<g id="edge10" class="edge">
<title>Node9&#45;&gt;Node11</title>
<path fill="none" stroke="midnightblue" d="M502.31,-338.78C514.92,-337.84 527.91,-336.88 540.45,-335.94"/>
<polygon fill="midnightblue" stroke="midnightblue" points="502,-335.29 492.28,-339.52 502.52,-342.27 502,-335.29"/>
</g>
<!-- Node17 -->
<g id="node17" class="node">
<title>Node17</title>
<g id="a_node17"><a xlink:href="class_ogre_1_1_d3_d11_texture_manager.html" target="_top" xlink:title=" ">
<polygon fill="none" stroke="black" points="542.5,-266.5 542.5,-285.5 700.5,-285.5 700.5,-266.5 542.5,-266.5"/>
<text text-anchor="middle" x="621.5" y="-273.5" font-family="Helvetica,sans-Serif" font-size="10.00">Ogre::D3D11TextureManager</text>
</a>
</g>
</g>
<!-- Node16&#45;&gt;Node17 -->
<g id="edge16" class="edge">
<title>Node16&#45;&gt;Node17</title>
<path fill="none" stroke="midnightblue" d="M488.86,-157.31C491.02,-158.73 493.07,-160.29 495,-162 528.77,-191.98 496.73,-227.61 531,-257 535.46,-260.83 540.5,-263.94 545.86,-266.48"/>
<polygon fill="midnightblue" stroke="midnightblue" points="490.55,-154.24 480.11,-152.46 487.16,-160.37 490.55,-154.24"/>
</g>
<!-- Node18 -->
<g id="node18" class="node">
<title>Node18</title>
<g id="a_node18"><a xlink:href="class_ogre_1_1_d3_d9_texture_manager.html" target="_top" xlink:title=" ">
<polygon fill="none" stroke="black" points="545.5,-228.5 545.5,-247.5 697.5,-247.5 697.5,-228.5 545.5,-228.5"/>
<text text-anchor="middle" x="621.5" y="-235.5" font-family="Helvetica,sans-Serif" font-size="10.00">Ogre::D3D9TextureManager</text>
</a>
</g>
</g>
<!-- Node16&#45;&gt;Node18 -->
<g id="edge17" class="edge">
<title>Node16&#45;&gt;Node18</title>
<path fill="none" stroke="midnightblue" d="M486.55,-156.79C489.5,-158.35 492.34,-160.08 495,-162 519.29,-179.54 506.41,-201.88 531,-219 536.47,-222.81 542.56,-225.89 548.91,-228.36"/>
<polygon fill="midnightblue" stroke="midnightblue" points="487.95,-153.58 477.39,-152.63 485.05,-159.96 487.95,-153.58"/>
</g>
<!-- Node19 -->
<g id="node19" class="node">
<title>Node19</title>
<g id="a_node19"><a xlink:href="class_ogre_1_1_default_texture_manager.html" target="_top" xlink:title="Specialisation of TextureManager for offline processing. Cannot be used with an active RenderSystem.">
<polygon fill="none" stroke="black" points="541,-190.5 541,-209.5 702,-209.5 702,-190.5 541,-190.5"/>
<text text-anchor="middle" x="621.5" y="-197.5" font-family="Helvetica,sans-Serif" font-size="10.00">Ogre::DefaultTextureManager</text>
</a>
</g>
</g>
<!-- Node16&#45;&gt;Node19 -->
<g id="edge18" class="edge">
<title>Node16&#45;&gt;Node19</title>
<path fill="none" stroke="midnightblue" d="M474.81,-155.32C481.69,-157.31 488.56,-159.54 495,-162 511.9,-168.45 513.99,-174.84 531,-181 541.45,-184.79 552.88,-187.92 563.97,-190.48"/>
<polygon fill="midnightblue" stroke="midnightblue" points="475.34,-151.84 464.77,-152.58 473.49,-158.59 475.34,-151.84"/>
</g>
<!-- Node20 -->
<g id="node20" class="node">
<title>Node20</title>
<g id="a_node20"><a xlink:href="class_ogre_1_1_g_l3_plus_texture_manager.html" target="_top" xlink:title="GL3Plus&#45;specific implementation of a TextureManager.">
<polygon fill="none" stroke="black" points="539.5,-152.5 539.5,-171.5 703.5,-171.5 703.5,-152.5 539.5,-152.5"/>
<text text-anchor="middle" x="621.5" y="-159.5" font-family="Helvetica,sans-Serif" font-size="10.00">Ogre::GL3PlusTextureManager</text>
</a>
</g>
</g>
<!-- Node16&#45;&gt;Node20 -->
<g id="edge19" class="edge">
<title>Node16&#45;&gt;Node20</title>
<path fill="none" stroke="midnightblue" d="M490.46,-149.77C506.33,-151.26 523.24,-152.85 539.43,-154.38"/>
<polygon fill="midnightblue" stroke="midnightblue" points="490.49,-146.26 480.2,-148.8 489.83,-153.23 490.49,-146.26"/>
</g>
<!-- Node21 -->
<g id="node21" class="node">
<title>Node21</title>
<g id="a_node21"><a xlink:href="class_ogre_1_1_g_l_e_s2_texture_manager.html" target="_top" xlink:title="GL ES&#45;specific implementation of a TextureManager.">
<polygon fill="none" stroke="black" points="544,-114.5 544,-133.5 699,-133.5 699,-114.5 544,-114.5"/>
<text text-anchor="middle" x="621.5" y="-121.5" font-family="Helvetica,sans-Serif" font-size="10.00">Ogre::GLES2TextureManager</text>
</a>
</g>
</g>
<!-- Node16&#45;&gt;Node21 -->
<g id="edge20" class="edge">
<title>Node16&#45;&gt;Node21</title>
<path fill="none" stroke="midnightblue" d="M490.26,-136.25C507.63,-134.62 526.25,-132.86 543.83,-131.21"/>
<polygon fill="midnightblue" stroke="midnightblue" points="489.83,-132.77 480.2,-137.2 490.49,-139.74 489.83,-132.77"/>
</g>
<!-- Node22 -->
<g id="node22" class="node">
<title>Node22</title>
<g id="a_node22"><a xlink:href="class_ogre_1_1_g_l_texture_manager.html" target="_top" xlink:title="GL&#45;specific implementation of a TextureManager.">
<polygon fill="none" stroke="black" points="553,-76.5 553,-95.5 690,-95.5 690,-76.5 553,-76.5"/>
<text text-anchor="middle" x="621.5" y="-83.5" font-family="Helvetica,sans-Serif" font-size="10.00">Ogre::GLTextureManager</text>
</a>
</g>
</g>
<!-- Node16&#45;&gt;Node22 -->
<g id="edge21" class="edge">
<title>Node16&#45;&gt;Node22</title>
<path fill="none" stroke="midnightblue" d="M453.74,-129.92C475.75,-122.04 504.79,-112.18 531,-105 543.72,-101.52 557.59,-98.29 570.54,-95.53"/>
<polygon fill="midnightblue" stroke="midnightblue" points="452.37,-126.69 444.15,-133.38 454.75,-133.27 452.37,-126.69"/>
</g>
<!-- Node23 -->
<g id="node23" class="node">
<title>Node23</title>
<g id="a_node23"><a xlink:href="class_ogre_1_1_g_l_texture_manager_common.html" target="_top" xlink:title=" ">
<polygon fill="none" stroke="black" points="531,-38.5 531,-57.5 712,-57.5 712,-38.5 531,-38.5"/>
<text text-anchor="middle" x="621.5" y="-45.5" font-family="Helvetica,sans-Serif" font-size="10.00">Ogre::GLTextureManagerCommon</text>
</a>
</g>
</g>
<!-- Node16&#45;&gt;Node23 -->
<g id="edge22" class="edge">
<title>Node16&#45;&gt;Node23</title>
<path fill="none" stroke="midnightblue" d="M437.38,-126.86C458.71,-109.46 495.15,-82.23 531,-67 540.06,-63.15 549.99,-60.05 559.82,-57.56"/>
<polygon fill="midnightblue" stroke="midnightblue" points="434.92,-124.35 429.46,-133.43 439.39,-129.73 434.92,-124.35"/>
</g>
<!-- Node24 -->
<g id="node24" class="node">
<title>Node24</title>
<g id="a_node24"><a xlink:href="class_ogre_1_1_metal_texture_manager.html" target="_top" xlink:title=" ">
<polygon fill="none" stroke="black" points="545.5,-0.5 545.5,-19.5 697.5,-19.5 697.5,-0.5 545.5,-0.5"/>
<text text-anchor="middle" x="621.5" y="-7.5" font-family="Helvetica,sans-Serif" font-size="10.00">Ogre::MetalTextureManager</text>
</a>
</g>
</g>
<!-- Node16&#45;&gt;Node24 -->
<g id="edge23" class="edge">
<title>Node16&#45;&gt;Node24</title>
<path fill="none" stroke="midnightblue" d="M431.05,-124.75C449.72,-99.11 487.33,-52.89 531,-29 538.11,-25.11 545.93,-22.02 553.91,-19.56"/>
<polygon fill="midnightblue" stroke="midnightblue" points="428,-123.01 425.06,-133.19 433.7,-127.07 428,-123.01"/>
</g>
</g>
</svg>
