<?xml version="1.0" encoding="UTF-8" standalone="no"?>
<!DOCTYPE svg PUBLIC "-//W3C//DTD SVG 1.1//EN"
 "http://www.w3.org/Graphics/SVG/1.1/DTD/svg11.dtd">
<!-- Generated by graphviz version 2.43.0 (0)
 -->
<!-- Title: Ogre::RenderToVertexBuffer Pages: 1 -->
<svg width="360pt" height="176pt"
 viewBox="0.00 0.00 360.00 175.50" xmlns="http://www.w3.org/2000/svg" xmlns:xlink="http://www.w3.org/1999/xlink">
<g id="graph0" class="graph" transform="scale(1 1) rotate(0) translate(4 171.5)">
<title>Ogre::RenderToVertexBuffer</title>
<!-- Node1 -->
<g id="node1" class="node">
<title>Node1</title>
<g id="a_node1"><a xlink:title="An object which renders geometry to a vertex.">
<polygon fill="#bfbfbf" stroke="black" points="0,-68.5 0,-87.5 152,-87.5 152,-68.5 0,-68.5"/>
<text text-anchor="middle" x="76" y="-75.5" font-family="Helvetica,sans-Serif" font-size="10.00">Ogre::RenderToVertexBuffer</text>
</a>
</g>
</g>
<!-- Node2 -->
<g id="node2" class="node">
<title>Node2</title>
<g id="a_node2"><a xlink:href="class_ogre_1_1_d3_d11_render_to_vertex_buffer.html" target="_top" xlink:title="An object which renders geometry to a vertex.">
<polygon fill="none" stroke="black" points="192.5,-137 192.5,-167 347.5,-167 347.5,-137 192.5,-137"/>
<text text-anchor="start" x="200.5" y="-155" font-family="Helvetica,sans-Serif" font-size="10.00">Ogre::D3D11RenderToVertex</text>
<text text-anchor="middle" x="270" y="-144" font-family="Helvetica,sans-Serif" font-size="10.00">Buffer</text>
</a>
</g>
</g>
<!-- Node1&#45;&gt;Node2 -->
<g id="edge1" class="edge">
<title>Node1&#45;&gt;Node2</title>
<path fill="none" stroke="midnightblue" d="M105.49,-92.12C127.65,-102.79 159.35,-117.36 188,-128 196.52,-131.17 205.67,-134.21 214.64,-137"/>
<polygon fill="midnightblue" stroke="midnightblue" points="106.84,-88.88 96.32,-87.66 103.78,-95.18 106.84,-88.88"/>
</g>
<!-- Node3 -->
<g id="node3" class="node">
<title>Node3</title>
<g id="a_node3"><a xlink:href="class_ogre_1_1_g_l3_plus_render_to_vertex_buffer.html" target="_top" xlink:title="An object which renders geometry to a vertex.">
<polygon fill="none" stroke="black" points="189.5,-88 189.5,-118 350.5,-118 350.5,-88 189.5,-88"/>
<text text-anchor="start" x="197.5" y="-106" font-family="Helvetica,sans-Serif" font-size="10.00">Ogre::GL3PlusRenderToVertex</text>
<text text-anchor="middle" x="270" y="-95" font-family="Helvetica,sans-Serif" font-size="10.00">Buffer</text>
</a>
</g>
</g>
<!-- Node1&#45;&gt;Node3 -->
<g id="edge2" class="edge">
<title>Node1&#45;&gt;Node3</title>
<path fill="none" stroke="midnightblue" d="M160.15,-88.83C169.84,-90.09 179.71,-91.37 189.35,-92.63"/>
<polygon fill="midnightblue" stroke="midnightblue" points="160.5,-85.34 150.13,-87.52 159.6,-92.28 160.5,-85.34"/>
</g>
<!-- Node4 -->
<g id="node4" class="node">
<title>Node4</title>
<g id="a_node4"><a xlink:href="class_ogre_1_1_g_l_e_s2_render_to_vertex_buffer.html" target="_top" xlink:title=" ">
<polygon fill="none" stroke="black" points="193.5,-39 193.5,-69 346.5,-69 346.5,-39 193.5,-39"/>
<text text-anchor="start" x="201.5" y="-57" font-family="Helvetica,sans-Serif" font-size="10.00">Ogre::GLES2RenderToVertex</text>
<text text-anchor="middle" x="270" y="-46" font-family="Helvetica,sans-Serif" font-size="10.00">Buffer</text>
</a>
</g>
</g>
<!-- Node1&#45;&gt;Node4 -->
<g id="edge3" class="edge">
<title>Node1&#45;&gt;Node4</title>
<path fill="none" stroke="midnightblue" d="M162,-67.37C172.45,-66.07 183.07,-64.74 193.36,-63.45"/>
<polygon fill="midnightblue" stroke="midnightblue" points="161.55,-63.9 152.06,-68.62 162.41,-70.85 161.55,-63.9"/>
</g>
<!-- Node5 -->
<g id="node5" class="node">
<title>Node5</title>
<g id="a_node5"><a xlink:href="class_ogre_1_1_g_l_render_to_vertex_buffer.html" target="_top" xlink:title=" ">
<polygon fill="none" stroke="black" points="188,-0.5 188,-19.5 352,-19.5 352,-0.5 188,-0.5"/>
<text text-anchor="middle" x="270" y="-7.5" font-family="Helvetica,sans-Serif" font-size="10.00">Ogre::GLRenderToVertexBuffer</text>
</a>
</g>
</g>
<!-- Node1&#45;&gt;Node5 -->
<g id="edge4" class="edge">
<title>Node1&#45;&gt;Node5</title>
<path fill="none" stroke="midnightblue" d="M105.82,-63.96C127.93,-53.59 159.4,-39.64 188,-30 199.67,-26.07 212.52,-22.54 224.48,-19.59"/>
<polygon fill="midnightblue" stroke="midnightblue" points="104.19,-60.86 96.66,-68.31 107.2,-67.18 104.19,-60.86"/>
</g>
</g>
</svg>
