<?xml version="1.0" encoding="UTF-8" standalone="no"?>
<!DOCTYPE svg PUBLIC "-//W3C//DTD SVG 1.1//EN"
 "http://www.w3.org/Graphics/SVG/1.1/DTD/svg11.dtd">
<!-- Generated by graphviz version 2.43.0 (0)
 -->
<!-- Title: Ogre::StringInterface Pages: 1 -->
<svg width="938pt" height="970pt"
 viewBox="0.00 0.00 938.00 969.50" xmlns="http://www.w3.org/2000/svg" xmlns:xlink="http://www.w3.org/1999/xlink">
<g id="graph0" class="graph" transform="scale(1 1) rotate(0) translate(4 965.5)">
<title>Ogre::StringInterface</title>
<!-- Node1 -->
<g id="node1" class="node">
<title>Node1</title>
<g id="a_node1"><a xlink:title="Class defining the common interface which classes can use to present a reflection&#45;style,...">
<polygon fill="#bfbfbf" stroke="black" points="0,-494.5 0,-513.5 118,-513.5 118,-494.5 0,-494.5"/>
<text text-anchor="middle" x="59" y="-501.5" font-family="Helvetica,sans-Serif" font-size="10.00">Ogre::StringInterface</text>
</a>
</g>
</g>
<!-- Node2 -->
<g id="node2" class="node">
<title>Node2</title>
<g id="a_node2"><a xlink:href="class_ogre_1_1_external_texture_source.html" target="_top" xlink:title="IMPORTANT: Plugins must override default dictionary name! Base class that texture plugins derive from...">
<polygon fill="none" stroke="black" points="158,-854.5 158,-873.5 313,-873.5 313,-854.5 158,-854.5"/>
<text text-anchor="middle" x="235.5" y="-861.5" font-family="Helvetica,sans-Serif" font-size="10.00">Ogre::ExternalTextureSource</text>
</a>
</g>
</g>
<!-- Node1&#45;&gt;Node2 -->
<g id="edge1" class="edge">
<title>Node1&#45;&gt;Node2</title>
<path fill="none" stroke="midnightblue" d="M62.79,-523.83C72.44,-589.64 106.44,-799.18 154,-845 157.93,-848.79 162.47,-851.87 167.34,-854.37"/>
<polygon fill="midnightblue" stroke="midnightblue" points="66.21,-523 61.32,-513.6 59.28,-524 66.21,-523"/>
</g>
<!-- Node3 -->
<g id="node3" class="node">
<title>Node3</title>
<g id="a_node3"><a xlink:href="class_ogre_1_1_overlay_element.html" target="_top" xlink:title="Abstract definition of a 2D element to be displayed in an Overlay.">
<polygon fill="none" stroke="black" points="173,-816.5 173,-835.5 298,-835.5 298,-816.5 173,-816.5"/>
<text text-anchor="middle" x="235.5" y="-823.5" font-family="Helvetica,sans-Serif" font-size="10.00">Ogre::OverlayElement</text>
</a>
</g>
</g>
<!-- Node1&#45;&gt;Node3 -->
<g id="edge2" class="edge">
<title>Node1&#45;&gt;Node3</title>
<path fill="none" stroke="midnightblue" d="M67.96,-523.07C83.19,-559.02 118.15,-638.97 154,-703 178.56,-746.87 212.99,-796.06 227.56,-816.4"/>
<polygon fill="midnightblue" stroke="midnightblue" points="71.15,-521.62 64.04,-513.76 64.7,-524.34 71.15,-521.62"/>
</g>
<!-- Node8 -->
<g id="node8" class="node">
<title>Node8</title>
<g id="a_node8"><a xlink:href="class_ogre_1_1_particle_affector.html" target="_top" xlink:title="Abstract class defining the interface to be implemented by particle affectors.">
<polygon fill="none" stroke="black" points="175.5,-674.5 175.5,-693.5 295.5,-693.5 295.5,-674.5 175.5,-674.5"/>
<text text-anchor="middle" x="235.5" y="-681.5" font-family="Helvetica,sans-Serif" font-size="10.00">Ogre::ParticleAffector</text>
</a>
</g>
</g>
<!-- Node1&#45;&gt;Node8 -->
<g id="edge7" class="edge">
<title>Node1&#45;&gt;Node8</title>
<path fill="none" stroke="midnightblue" d="M76.69,-521.21C112.72,-558.39 196.84,-645.15 225.07,-674.27"/>
<polygon fill="midnightblue" stroke="midnightblue" points="78.86,-518.42 69.38,-513.68 73.83,-523.29 78.86,-518.42"/>
</g>
<!-- Node18 -->
<g id="node18" class="node">
<title>Node18</title>
<g id="a_node18"><a xlink:href="class_ogre_1_1_particle_emitter.html" target="_top" xlink:title="Abstract class defining the interface to be implemented by particle emitters.">
<polygon fill="none" stroke="black" points="176.5,-494.5 176.5,-513.5 294.5,-513.5 294.5,-494.5 176.5,-494.5"/>
<text text-anchor="middle" x="235.5" y="-501.5" font-family="Helvetica,sans-Serif" font-size="10.00">Ogre::ParticleEmitter</text>
</a>
</g>
</g>
<!-- Node1&#45;&gt;Node18 -->
<g id="edge17" class="edge">
<title>Node1&#45;&gt;Node18</title>
<path fill="none" stroke="midnightblue" d="M128.38,-504C144.24,-504 160.98,-504 176.35,-504"/>
<polygon fill="midnightblue" stroke="midnightblue" points="128.11,-500.5 118.11,-504 128.11,-507.5 128.11,-500.5"/>
</g>
<!-- Node26 -->
<g id="node26" class="node">
<title>Node26</title>
<g id="a_node26"><a xlink:href="class_ogre_1_1_particle_system.html" target="_top" xlink:title="Class defining particle system based special effects.">
<polygon fill="none" stroke="black" points="176,-456.5 176,-475.5 295,-475.5 295,-456.5 176,-456.5"/>
<text text-anchor="middle" x="235.5" y="-463.5" font-family="Helvetica,sans-Serif" font-size="10.00">Ogre::ParticleSystem</text>
</a>
</g>
</g>
<!-- Node1&#45;&gt;Node26 -->
<g id="edge25" class="edge">
<title>Node1&#45;&gt;Node26</title>
<path fill="none" stroke="midnightblue" d="M113.97,-492.25C138.64,-486.87 167.49,-480.59 190.78,-475.52"/>
<polygon fill="midnightblue" stroke="midnightblue" points="113.06,-488.86 104.03,-494.41 114.55,-495.7 113.06,-488.86"/>
</g>
<!-- Node27 -->
<g id="node27" class="node">
<title>Node27</title>
<g id="a_node27"><a xlink:href="class_ogre_1_1_particle_system_renderer.html" target="_top" xlink:title="Abstract class defining the interface required to be implemented by classes which provide rendering c...">
<polygon fill="none" stroke="black" points="154,-418.5 154,-437.5 317,-437.5 317,-418.5 154,-418.5"/>
<text text-anchor="middle" x="235.5" y="-425.5" font-family="Helvetica,sans-Serif" font-size="10.00">Ogre::ParticleSystemRenderer</text>
</a>
</g>
</g>
<!-- Node1&#45;&gt;Node27 -->
<g id="edge26" class="edge">
<title>Node1&#45;&gt;Node27</title>
<path fill="none" stroke="midnightblue" d="M81.23,-488.45C99.64,-475.64 127.44,-457.87 154,-447 163.17,-443.25 173.24,-440.14 183.07,-437.6"/>
<polygon fill="midnightblue" stroke="midnightblue" points="79.13,-485.65 72.99,-494.29 83.18,-491.36 79.13,-485.65"/>
</g>
<!-- Node29 -->
<g id="node29" class="node">
<title>Node29</title>
<g id="a_node29"><a xlink:href="class_ogre_1_1_resource.html" target="_top" xlink:title="Abstract class representing a loadable resource.">
<polygon fill="none" stroke="black" points="190,-266.5 190,-285.5 281,-285.5 281,-266.5 190,-266.5"/>
<text text-anchor="middle" x="235.5" y="-273.5" font-family="Helvetica,sans-Serif" font-size="10.00">Ogre::Resource</text>
</a>
</g>
</g>
<!-- Node1&#45;&gt;Node29 -->
<g id="edge28" class="edge">
<title>Node1&#45;&gt;Node29</title>
<path fill="none" stroke="midnightblue" d="M73.44,-486.44C108.25,-440.95 200.53,-320.38 227.19,-285.55"/>
<polygon fill="midnightblue" stroke="midnightblue" points="70.57,-484.43 67.28,-494.49 76.13,-488.68 70.57,-484.43"/>
</g>
<!-- Node4 -->
<g id="node4" class="node">
<title>Node4</title>
<g id="a_node4"><a xlink:href="class_ogre_1_1_overlay_container.html" target="_top" xlink:title="A 2D element which contains other OverlayElement instances.">
<polygon fill="none" stroke="black" points="372.5,-936.5 372.5,-955.5 503.5,-955.5 503.5,-936.5 372.5,-936.5"/>
<text text-anchor="middle" x="438" y="-943.5" font-family="Helvetica,sans-Serif" font-size="10.00">Ogre::OverlayContainer</text>
</a>
</g>
</g>
<!-- Node3&#45;&gt;Node4 -->
<g id="edge3" class="edge">
<title>Node3&#45;&gt;Node4</title>
<path fill="none" stroke="midnightblue" d="M307.52,-838.55C310.88,-840.42 314.07,-842.56 317,-845 347.58,-870.47 322.3,-901.67 353,-927 358.65,-931.66 365.22,-935.24 372.14,-937.97"/>
<polygon fill="midnightblue" stroke="midnightblue" points="308.81,-835.29 298.27,-834.18 305.82,-841.62 308.81,-835.29"/>
</g>
<!-- Node7 -->
<g id="node7" class="node">
<title>Node7</title>
<g id="a_node7"><a xlink:href="class_ogre_1_1_text_area_overlay_element.html" target="_top" xlink:title="This class implements an overlay element which contains simple unformatted text.">
<polygon fill="none" stroke="black" points="354.5,-898.5 354.5,-917.5 521.5,-917.5 521.5,-898.5 354.5,-898.5"/>
<text text-anchor="middle" x="438" y="-905.5" font-family="Helvetica,sans-Serif" font-size="10.00">Ogre::TextAreaOverlayElement</text>
</a>
</g>
</g>
<!-- Node3&#45;&gt;Node7 -->
<g id="edge6" class="edge">
<title>Node3&#45;&gt;Node7</title>
<path fill="none" stroke="midnightblue" d="M306.25,-839.32C309.99,-840.99 313.6,-842.88 317,-845 338.43,-858.39 331.51,-875.71 353,-889 359.23,-892.85 366.15,-895.93 373.28,-898.38"/>
<polygon fill="midnightblue" stroke="midnightblue" points="307.33,-835.98 296.74,-835.57 304.76,-842.49 307.33,-835.98"/>
</g>
<!-- Node5 -->
<g id="node5" class="node">
<title>Node5</title>
<g id="a_node5"><a xlink:href="class_ogre_1_1_panel_overlay_element.html" target="_top" xlink:title="OverlayElement representing a flat, single&#45;material (or transparent) panel which can contain other el...">
<polygon fill="none" stroke="black" points="561,-936.5 561,-955.5 712,-955.5 712,-936.5 561,-936.5"/>
<text text-anchor="middle" x="636.5" y="-943.5" font-family="Helvetica,sans-Serif" font-size="10.00">Ogre::PanelOverlayElement</text>
</a>
</g>
</g>
<!-- Node4&#45;&gt;Node5 -->
<g id="edge4" class="edge">
<title>Node4&#45;&gt;Node5</title>
<path fill="none" stroke="midnightblue" d="M513.66,-946C529.15,-946 545.48,-946 560.96,-946"/>
<polygon fill="midnightblue" stroke="midnightblue" points="513.61,-942.5 503.61,-946 513.61,-949.5 513.61,-942.5"/>
</g>
<!-- Node6 -->
<g id="node6" class="node">
<title>Node6</title>
<g id="a_node6"><a xlink:href="class_ogre_1_1_border_panel_overlay_element.html" target="_top" xlink:title="A specialisation of the PanelOverlayElement to provide a panel with a border.">
<polygon fill="none" stroke="black" points="768.5,-931 768.5,-961 911.5,-961 911.5,-931 768.5,-931"/>
<text text-anchor="start" x="776.5" y="-949" font-family="Helvetica,sans-Serif" font-size="10.00">Ogre::BorderPanelOverlay</text>
<text text-anchor="middle" x="840" y="-938" font-family="Helvetica,sans-Serif" font-size="10.00">Element</text>
</a>
</g>
</g>
<!-- Node5&#45;&gt;Node6 -->
<g id="edge5" class="edge">
<title>Node5&#45;&gt;Node6</title>
<path fill="none" stroke="midnightblue" d="M722.25,-946C737.61,-946 753.48,-946 768.39,-946"/>
<polygon fill="midnightblue" stroke="midnightblue" points="722.24,-942.5 712.24,-946 722.24,-949.5 722.24,-942.5"/>
</g>
<!-- Node9 -->
<g id="node9" class="node">
<title>Node9</title>
<g id="a_node9"><a xlink:href="class_ogre_1_1_colour_fader_affector.html" target="_top" xlink:title="This plugin subclass of ParticleAffector allows you to alter the colour of particles.">
<polygon fill="none" stroke="black" points="367,-860.5 367,-879.5 509,-879.5 509,-860.5 367,-860.5"/>
<text text-anchor="middle" x="438" y="-867.5" font-family="Helvetica,sans-Serif" font-size="10.00">Ogre::ColourFaderAffector</text>
</a>
</g>
</g>
<!-- Node8&#45;&gt;Node9 -->
<g id="edge8" class="edge">
<title>Node8&#45;&gt;Node9</title>
<path fill="none" stroke="midnightblue" d="M248.15,-702.24C274.65,-743.48 338.24,-841.07 353,-851 358.71,-854.84 365.08,-857.91 371.68,-860.37"/>
<polygon fill="midnightblue" stroke="midnightblue" points="251.02,-700.23 242.68,-693.7 245.13,-704.01 251.02,-700.23"/>
</g>
<!-- Node10 -->
<g id="node10" class="node">
<title>Node10</title>
<g id="a_node10"><a xlink:href="class_ogre_1_1_colour_fader_affector2.html" target="_top" xlink:title="This plugin subclass of ParticleAffector allows you to alter the colour of particles.">
<polygon fill="none" stroke="black" points="364,-822.5 364,-841.5 512,-841.5 512,-822.5 364,-822.5"/>
<text text-anchor="middle" x="438" y="-829.5" font-family="Helvetica,sans-Serif" font-size="10.00">Ogre::ColourFaderAffector2</text>
</a>
</g>
</g>
<!-- Node8&#45;&gt;Node10 -->
<g id="edge9" class="edge">
<title>Node8&#45;&gt;Node10</title>
<path fill="none" stroke="midnightblue" d="M247.54,-702.14C265.78,-730.48 305.03,-784.93 353,-813 359.58,-816.85 366.87,-819.92 374.33,-822.37"/>
<polygon fill="midnightblue" stroke="midnightblue" points="250.46,-700.2 242.17,-693.6 244.53,-703.93 250.46,-700.2"/>
</g>
<!-- Node11 -->
<g id="node11" class="node">
<title>Node11</title>
<g id="a_node11"><a xlink:href="class_ogre_1_1_colour_image_affector.html" target="_top" xlink:title=" ">
<polygon fill="none" stroke="black" points="365,-784.5 365,-803.5 511,-803.5 511,-784.5 365,-784.5"/>
<text text-anchor="middle" x="438" y="-791.5" font-family="Helvetica,sans-Serif" font-size="10.00">Ogre::ColourImageAffector</text>
</a>
</g>
</g>
<!-- Node8&#45;&gt;Node11 -->
<g id="edge10" class="edge">
<title>Node8&#45;&gt;Node11</title>
<path fill="none" stroke="midnightblue" d="M253.01,-700.85C274.22,-721.5 313.11,-756.08 353,-775 361.11,-778.84 370.03,-781.93 378.93,-784.4"/>
<polygon fill="midnightblue" stroke="midnightblue" points="255.34,-698.23 245.77,-693.67 250.41,-703.2 255.34,-698.23"/>
</g>
<!-- Node12 -->
<g id="node12" class="node">
<title>Node12</title>
<g id="a_node12"><a xlink:href="class_ogre_1_1_colour_interpolator_affector.html" target="_top" xlink:title=" ">
<polygon fill="none" stroke="black" points="371,-735 371,-765 505,-765 505,-735 371,-735"/>
<text text-anchor="start" x="379" y="-753" font-family="Helvetica,sans-Serif" font-size="10.00">Ogre::ColourInterpolator</text>
<text text-anchor="middle" x="438" y="-742" font-family="Helvetica,sans-Serif" font-size="10.00">Affector</text>
</a>
</g>
</g>
<!-- Node8&#45;&gt;Node12 -->
<g id="edge11" class="edge">
<title>Node8&#45;&gt;Node12</title>
<path fill="none" stroke="midnightblue" d="M272.41,-697.15C295.36,-705.43 325.82,-716.18 353,-725 363.28,-728.33 374.31,-731.74 384.9,-734.93"/>
<polygon fill="midnightblue" stroke="midnightblue" points="273.34,-693.77 262.75,-693.65 270.96,-700.35 273.34,-693.77"/>
</g>
<!-- Node13 -->
<g id="node13" class="node">
<title>Node13</title>
<g id="a_node13"><a xlink:href="class_ogre_1_1_deflector_plane_affector.html" target="_top" xlink:title="This class defines a ParticleAffector which deflects particles.">
<polygon fill="none" stroke="black" points="360.5,-696.5 360.5,-715.5 515.5,-715.5 515.5,-696.5 360.5,-696.5"/>
<text text-anchor="middle" x="438" y="-703.5" font-family="Helvetica,sans-Serif" font-size="10.00">Ogre::DeflectorPlaneAffector</text>
</a>
</g>
</g>
<!-- Node8&#45;&gt;Node13 -->
<g id="edge12" class="edge">
<title>Node8&#45;&gt;Node13</title>
<path fill="none" stroke="midnightblue" d="M305.78,-691.6C323.43,-693.54 342.5,-695.63 360.48,-697.6"/>
<polygon fill="midnightblue" stroke="midnightblue" points="305.89,-688.09 295.57,-690.48 305.13,-695.05 305.89,-688.09"/>
</g>
<!-- Node14 -->
<g id="node14" class="node">
<title>Node14</title>
<g id="a_node14"><a xlink:href="class_ogre_1_1_direction_randomiser_affector.html" target="_top" xlink:title="This class defines a ParticleAffector which applies randomness to the movement of the particles.">
<polygon fill="none" stroke="black" points="363.5,-647 363.5,-677 512.5,-677 512.5,-647 363.5,-647"/>
<text text-anchor="start" x="371.5" y="-665" font-family="Helvetica,sans-Serif" font-size="10.00">Ogre::DirectionRandomiser</text>
<text text-anchor="middle" x="438" y="-654" font-family="Helvetica,sans-Serif" font-size="10.00">Affector</text>
</a>
</g>
</g>
<!-- Node8&#45;&gt;Node14 -->
<g id="edge13" class="edge">
<title>Node8&#45;&gt;Node14</title>
<path fill="none" stroke="midnightblue" d="M305.74,-676.4C324.36,-674.36 344.56,-672.14 363.41,-670.07"/>
<polygon fill="midnightblue" stroke="midnightblue" points="305.13,-672.95 295.57,-677.52 305.89,-679.91 305.13,-672.95"/>
</g>
<!-- Node15 -->
<g id="node15" class="node">
<title>Node15</title>
<g id="a_node15"><a xlink:href="class_ogre_1_1_linear_force_affector.html" target="_top" xlink:title="This class defines a ParticleAffector which applies a linear force to particles in a system.">
<polygon fill="none" stroke="black" points="368,-608.5 368,-627.5 508,-627.5 508,-608.5 368,-608.5"/>
<text text-anchor="middle" x="438" y="-615.5" font-family="Helvetica,sans-Serif" font-size="10.00">Ogre::LinearForceAffector</text>
</a>
</g>
</g>
<!-- Node8&#45;&gt;Node15 -->
<g id="edge14" class="edge">
<title>Node8&#45;&gt;Node15</title>
<path fill="none" stroke="midnightblue" d="M267.4,-670.4C290.64,-660.52 323.42,-647.31 353,-638 365.44,-634.08 379.13,-630.52 391.78,-627.52"/>
<polygon fill="midnightblue" stroke="midnightblue" points="265.88,-667.25 258.07,-674.41 268.64,-673.68 265.88,-667.25"/>
</g>
<!-- Node16 -->
<g id="node16" class="node">
<title>Node16</title>
<g id="a_node16"><a xlink:href="class_ogre_1_1_rotation_affector.html" target="_top" xlink:title="This plugin subclass of ParticleAffector allows you to alter the rotation of particles.">
<polygon fill="none" stroke="black" points="375.5,-570.5 375.5,-589.5 500.5,-589.5 500.5,-570.5 375.5,-570.5"/>
<text text-anchor="middle" x="438" y="-577.5" font-family="Helvetica,sans-Serif" font-size="10.00">Ogre::RotationAffector</text>
</a>
</g>
</g>
<!-- Node8&#45;&gt;Node16 -->
<g id="edge15" class="edge">
<title>Node8&#45;&gt;Node16</title>
<path fill="none" stroke="midnightblue" d="M253.89,-667.71C275.48,-648.4 314.19,-616.63 353,-599 361.44,-595.17 370.72,-592.07 379.94,-589.59"/>
<polygon fill="midnightblue" stroke="midnightblue" points="251.54,-665.13 246.5,-674.45 256.25,-670.3 251.54,-665.13"/>
</g>
<!-- Node17 -->
<g id="node17" class="node">
<title>Node17</title>
<g id="a_node17"><a xlink:href="class_ogre_1_1_scale_affector.html" target="_top" xlink:title="This plugin subclass of ParticleAffector allows you to alter the scale of particles.">
<polygon fill="none" stroke="black" points="383,-532.5 383,-551.5 493,-551.5 493,-532.5 383,-532.5"/>
<text text-anchor="middle" x="438" y="-539.5" font-family="Helvetica,sans-Serif" font-size="10.00">Ogre::ScaleAffector</text>
</a>
</g>
</g>
<!-- Node8&#45;&gt;Node17 -->
<g id="edge16" class="edge">
<title>Node8&#45;&gt;Node17</title>
<path fill="none" stroke="midnightblue" d="M248.54,-665.56C267.4,-638.25 306.58,-587.42 353,-561 362.1,-555.82 372.5,-552.06 382.81,-549.32"/>
<polygon fill="midnightblue" stroke="midnightblue" points="245.43,-663.92 242.74,-674.16 251.23,-667.83 245.43,-663.92"/>
</g>
<!-- Node19 -->
<g id="node19" class="node">
<title>Node19</title>
<g id="a_node19"><a xlink:href="class_ogre_1_1_area_emitter.html" target="_top" xlink:title="Particle emitter which emits particles randomly from points inside an area (box, sphere,...">
<polygon fill="none" stroke="black" points="386,-494.5 386,-513.5 490,-513.5 490,-494.5 386,-494.5"/>
<text text-anchor="middle" x="438" y="-501.5" font-family="Helvetica,sans-Serif" font-size="10.00">Ogre::AreaEmitter</text>
</a>
</g>
</g>
<!-- Node18&#45;&gt;Node19 -->
<g id="edge18" class="edge">
<title>Node18&#45;&gt;Node19</title>
<path fill="none" stroke="midnightblue" d="M305.1,-504C331.53,-504 361.24,-504 385.75,-504"/>
<polygon fill="midnightblue" stroke="midnightblue" points="304.76,-500.5 294.76,-504 304.76,-507.5 304.76,-500.5"/>
</g>
<!-- Node25 -->
<g id="node25" class="node">
<title>Node25</title>
<g id="a_node25"><a xlink:href="class_ogre_1_1_point_emitter.html" target="_top" xlink:title="Particle emitter which emits particles from a single point.">
<polygon fill="none" stroke="black" points="384.5,-456.5 384.5,-475.5 491.5,-475.5 491.5,-456.5 384.5,-456.5"/>
<text text-anchor="middle" x="438" y="-463.5" font-family="Helvetica,sans-Serif" font-size="10.00">Ogre::PointEmitter</text>
</a>
</g>
</g>
<!-- Node18&#45;&gt;Node25 -->
<g id="edge24" class="edge">
<title>Node18&#45;&gt;Node25</title>
<path fill="none" stroke="midnightblue" d="M296.75,-492.58C325.43,-487.14 359.35,-480.72 386.64,-475.54"/>
<polygon fill="midnightblue" stroke="midnightblue" points="296.01,-489.16 286.84,-494.46 297.31,-496.04 296.01,-489.16"/>
</g>
<!-- Node20 -->
<g id="node20" class="node">
<title>Node20</title>
<g id="a_node20"><a xlink:href="class_ogre_1_1_box_emitter.html" target="_top" xlink:title="Particle emitter which emits particles randomly from points inside a box.">
<polygon fill="none" stroke="black" points="586,-551.5 586,-570.5 687,-570.5 687,-551.5 586,-551.5"/>
<text text-anchor="middle" x="636.5" y="-558.5" font-family="Helvetica,sans-Serif" font-size="10.00">Ogre::BoxEmitter</text>
</a>
</g>
</g>
<!-- Node19&#45;&gt;Node20 -->
<g id="edge19" class="edge">
<title>Node19&#45;&gt;Node20</title>
<path fill="none" stroke="midnightblue" d="M500.1,-515.83C507.9,-517.92 515.7,-520.3 523,-523 539.97,-529.27 542.1,-535.55 559,-542 568.59,-545.66 579.13,-548.8 589.23,-551.42"/>
<polygon fill="midnightblue" stroke="midnightblue" points="500.82,-512.4 490.27,-513.34 499.1,-519.18 500.82,-512.4"/>
</g>
<!-- Node21 -->
<g id="node21" class="node">
<title>Node21</title>
<g id="a_node21"><a xlink:href="class_ogre_1_1_cylinder_emitter.html" target="_top" xlink:title="Particle emitter which emits particles randomly from points inside a cylinder.">
<polygon fill="none" stroke="black" points="575.5,-513.5 575.5,-532.5 697.5,-532.5 697.5,-513.5 575.5,-513.5"/>
<text text-anchor="middle" x="636.5" y="-520.5" font-family="Helvetica,sans-Serif" font-size="10.00">Ogre::CylinderEmitter</text>
</a>
</g>
</g>
<!-- Node19&#45;&gt;Node21 -->
<g id="edge20" class="edge">
<title>Node19&#45;&gt;Node21</title>
<path fill="none" stroke="midnightblue" d="M500.13,-509.91C524.04,-512.22 551.39,-514.87 575.22,-517.17"/>
<polygon fill="midnightblue" stroke="midnightblue" points="500.41,-506.42 490.12,-508.94 499.73,-513.39 500.41,-506.42"/>
</g>
<!-- Node22 -->
<g id="node22" class="node">
<title>Node22</title>
<g id="a_node22"><a xlink:href="class_ogre_1_1_ellipsoid_emitter.html" target="_top" xlink:title="Particle emitter which emits particles randomly from points inside an ellipsoid.">
<polygon fill="none" stroke="black" points="575,-475.5 575,-494.5 698,-494.5 698,-475.5 575,-475.5"/>
<text text-anchor="middle" x="636.5" y="-482.5" font-family="Helvetica,sans-Serif" font-size="10.00">Ogre::EllipsoidEmitter</text>
</a>
</g>
</g>
<!-- Node19&#45;&gt;Node22 -->
<g id="edge21" class="edge">
<title>Node19&#45;&gt;Node22</title>
<path fill="none" stroke="midnightblue" d="M500.09,-498.09C523.89,-495.79 551.1,-493.16 574.86,-490.86"/>
<polygon fill="midnightblue" stroke="midnightblue" points="499.73,-494.61 490.12,-499.06 500.41,-501.58 499.73,-494.61"/>
</g>
<!-- Node24 -->
<g id="node24" class="node">
<title>Node24</title>
<g id="a_node24"><a xlink:href="class_ogre_1_1_ring_emitter.html" target="_top" xlink:title="Particle emitter which emits particles randomly from points inside a ring (e.g.">
<polygon fill="none" stroke="black" points="584.5,-437.5 584.5,-456.5 688.5,-456.5 688.5,-437.5 584.5,-437.5"/>
<text text-anchor="middle" x="636.5" y="-444.5" font-family="Helvetica,sans-Serif" font-size="10.00">Ogre::RingEmitter</text>
</a>
</g>
</g>
<!-- Node19&#45;&gt;Node24 -->
<g id="edge23" class="edge">
<title>Node19&#45;&gt;Node24</title>
<path fill="none" stroke="midnightblue" d="M500.1,-492.17C507.9,-490.08 515.7,-487.7 523,-485 539.97,-478.73 542.1,-472.45 559,-466 568.59,-462.34 579.13,-459.2 589.23,-456.58"/>
<polygon fill="midnightblue" stroke="midnightblue" points="499.1,-488.82 490.27,-494.66 500.82,-495.6 499.1,-488.82"/>
</g>
<!-- Node23 -->
<g id="node23" class="node">
<title>Node23</title>
<g id="a_node23"><a xlink:href="class_ogre_1_1_hollow_ellipsoid_emitter.html" target="_top" xlink:title="Particle emitter which emits particles randomly from points inside a hollow ellipsoid.">
<polygon fill="none" stroke="black" points="761.5,-475.5 761.5,-494.5 918.5,-494.5 918.5,-475.5 761.5,-475.5"/>
<text text-anchor="middle" x="840" y="-482.5" font-family="Helvetica,sans-Serif" font-size="10.00">Ogre::HollowEllipsoidEmitter</text>
</a>
</g>
</g>
<!-- Node22&#45;&gt;Node23 -->
<g id="edge22" class="edge">
<title>Node22&#45;&gt;Node23</title>
<path fill="none" stroke="midnightblue" d="M708.65,-485C725.66,-485 743.92,-485 761.22,-485"/>
<polygon fill="midnightblue" stroke="midnightblue" points="708.23,-481.5 698.23,-485 708.23,-488.5 708.23,-481.5"/>
</g>
<!-- Node28 -->
<g id="node28" class="node">
<title>Node28</title>
<g id="a_node28"><a xlink:href="class_ogre_1_1_billboard_particle_renderer.html" target="_top" xlink:title="Specialisation of ParticleSystemRenderer to render particles using a BillboardSet.">
<polygon fill="none" stroke="black" points="353,-418.5 353,-437.5 523,-437.5 523,-418.5 353,-418.5"/>
<text text-anchor="middle" x="438" y="-425.5" font-family="Helvetica,sans-Serif" font-size="10.00">Ogre::BillboardParticleRenderer</text>
</a>
</g>
</g>
<!-- Node27&#45;&gt;Node28 -->
<g id="edge27" class="edge">
<title>Node27&#45;&gt;Node28</title>
<path fill="none" stroke="midnightblue" d="M327.45,-428C335.92,-428 344.48,-428 352.88,-428"/>
<polygon fill="midnightblue" stroke="midnightblue" points="327.18,-424.5 317.18,-428 327.18,-431.5 327.18,-424.5"/>
</g>
<!-- Node30 -->
<g id="node30" class="node">
<title>Node30</title>
<g id="a_node30"><a xlink:href="class_ogre_1_1_bsp_level.html" target="_top" xlink:title="Holds all the data associated with a Binary Space Parition (BSP) based indoor level.">
<polygon fill="none" stroke="black" points="393,-380.5 393,-399.5 483,-399.5 483,-380.5 393,-380.5"/>
<text text-anchor="middle" x="438" y="-387.5" font-family="Helvetica,sans-Serif" font-size="10.00">Ogre::BspLevel</text>
</a>
</g>
</g>
<!-- Node29&#45;&gt;Node30 -->
<g id="edge29" class="edge">
<title>Node29&#45;&gt;Node30</title>
<path fill="none" stroke="midnightblue" d="M252.21,-292.95C273.12,-314.46 312.22,-351.14 353,-371 365.37,-377.02 379.69,-381.17 392.97,-384.01"/>
<polygon fill="midnightblue" stroke="midnightblue" points="254.55,-290.34 245.12,-285.52 249.49,-295.17 254.55,-290.34"/>
</g>
<!-- Node31 -->
<g id="node31" class="node">
<title>Node31</title>
<g id="a_node31"><a xlink:href="class_ogre_1_1_compositor.html" target="_top" xlink:title="Class representing a Compositor object.">
<polygon fill="none" stroke="black" points="387,-342.5 387,-361.5 489,-361.5 489,-342.5 387,-342.5"/>
<text text-anchor="middle" x="438" y="-349.5" font-family="Helvetica,sans-Serif" font-size="10.00">Ogre::Compositor</text>
</a>
</g>
</g>
<!-- Node29&#45;&gt;Node31 -->
<g id="edge30" class="edge">
<title>Node29&#45;&gt;Node31</title>
<path fill="none" stroke="midnightblue" d="M261.76,-290.5C284.87,-303.24 320.34,-321.49 353,-333 363.72,-336.78 375.47,-339.98 386.71,-342.63"/>
<polygon fill="midnightblue" stroke="midnightblue" points="263.38,-287.4 252.95,-285.58 259.97,-293.51 263.38,-287.4"/>
</g>
<!-- Node32 -->
<g id="node32" class="node">
<title>Node32</title>
<g id="a_node32"><a xlink:href="class_ogre_1_1_font.html" target="_top" xlink:title="Class representing a font in the system.">
<polygon fill="none" stroke="black" points="404.5,-304.5 404.5,-323.5 471.5,-323.5 471.5,-304.5 404.5,-304.5"/>
<text text-anchor="middle" x="438" y="-311.5" font-family="Helvetica,sans-Serif" font-size="10.00">Ogre::Font</text>
</a>
</g>
</g>
<!-- Node29&#45;&gt;Node32 -->
<g id="edge31" class="edge">
<title>Node29&#45;&gt;Node32</title>
<path fill="none" stroke="midnightblue" d="M291.17,-286.36C327.36,-293.22 373.63,-301.99 404.24,-307.79"/>
<polygon fill="midnightblue" stroke="midnightblue" points="291.72,-282.9 281.25,-284.48 290.42,-289.78 291.72,-282.9"/>
</g>
<!-- Node33 -->
<g id="node33" class="node">
<title>Node33</title>
<g id="a_node33"><a xlink:href="class_ogre_1_1_gpu_program.html" target="_top" xlink:title="Defines a program which runs on the GPU such as a vertex or fragment program.">
<polygon fill="none" stroke="black" points="384.5,-266.5 384.5,-285.5 491.5,-285.5 491.5,-266.5 384.5,-266.5"/>
<text text-anchor="middle" x="438" y="-273.5" font-family="Helvetica,sans-Serif" font-size="10.00">Ogre::GpuProgram</text>
</a>
</g>
</g>
<!-- Node29&#45;&gt;Node33 -->
<g id="edge32" class="edge">
<title>Node29&#45;&gt;Node33</title>
<path fill="none" stroke="midnightblue" d="M291.58,-276C320.47,-276 355.68,-276 384.22,-276"/>
<polygon fill="midnightblue" stroke="midnightblue" points="291.25,-272.5 281.25,-276 291.25,-279.5 291.25,-272.5"/>
</g>
<!-- Node52 -->
<g id="node40" class="node">
<title>Node52</title>
<g id="a_node40"><a xlink:href="class_ogre_1_1_material.html" target="_top" xlink:title="Class encapsulates rendering properties of an object.">
<polygon fill="none" stroke="black" points="395,-228.5 395,-247.5 481,-247.5 481,-228.5 395,-228.5"/>
<text text-anchor="middle" x="438" y="-235.5" font-family="Helvetica,sans-Serif" font-size="10.00">Ogre::Material</text>
</a>
</g>
</g>
<!-- Node29&#45;&gt;Node52 -->
<g id="edge39" class="edge">
<title>Node29&#45;&gt;Node52</title>
<path fill="none" stroke="midnightblue" d="M291.1,-265.65C323.75,-259.46 364.62,-251.72 394.79,-246"/>
<polygon fill="midnightblue" stroke="midnightblue" points="290.42,-262.22 281.25,-267.52 291.72,-269.1 290.42,-262.22"/>
</g>
<!-- Node53 -->
<g id="node41" class="node">
<title>Node53</title>
<g id="a_node41"><a xlink:href="class_ogre_1_1_mesh.html" target="_top" xlink:title="Resource holding data about 3D mesh.">
<polygon fill="none" stroke="black" points="402,-190.5 402,-209.5 474,-209.5 474,-190.5 402,-190.5"/>
<text text-anchor="middle" x="438" y="-197.5" font-family="Helvetica,sans-Serif" font-size="10.00">Ogre::Mesh</text>
</a>
</g>
</g>
<!-- Node29&#45;&gt;Node53 -->
<g id="edge40" class="edge">
<title>Node29&#45;&gt;Node53</title>
<path fill="none" stroke="midnightblue" d="M261.76,-261.5C284.87,-248.76 320.34,-230.51 353,-219 368.65,-213.49 386.52,-209.18 401.75,-206.07"/>
<polygon fill="midnightblue" stroke="midnightblue" points="259.97,-258.49 252.95,-266.42 263.38,-264.6 259.97,-258.49"/>
</g>
<!-- Node55 -->
<g id="node43" class="node">
<title>Node55</title>
<g id="a_node43"><a xlink:href="class_ogre_1_1_skeleton.html" target="_top" xlink:title="A collection of Bone objects used to animate a skinned mesh.">
<polygon fill="none" stroke="black" points="394,-152.5 394,-171.5 482,-171.5 482,-152.5 394,-152.5"/>
<text text-anchor="middle" x="438" y="-159.5" font-family="Helvetica,sans-Serif" font-size="10.00">Ogre::Skeleton</text>
</a>
</g>
</g>
<!-- Node29&#45;&gt;Node55 -->
<g id="edge42" class="edge">
<title>Node29&#45;&gt;Node55</title>
<path fill="none" stroke="midnightblue" d="M252.21,-259.05C273.12,-237.54 312.22,-200.86 353,-181 365.64,-174.85 380.32,-170.65 393.84,-167.8"/>
<polygon fill="midnightblue" stroke="midnightblue" points="249.49,-256.83 245.12,-266.48 254.55,-261.66 249.49,-256.83"/>
</g>
<!-- Node57 -->
<g id="node45" class="node">
<title>Node57</title>
<g id="a_node45"><a xlink:href="class_ogre_1_1_texture.html" target="_top" xlink:title="Abstract class representing a Texture resource.">
<polygon fill="none" stroke="black" points="397,-76.5 397,-95.5 479,-95.5 479,-76.5 397,-76.5"/>
<text text-anchor="middle" x="438" y="-83.5" font-family="Helvetica,sans-Serif" font-size="10.00">Ogre::Texture</text>
</a>
</g>
</g>
<!-- Node29&#45;&gt;Node57 -->
<g id="edge44" class="edge">
<title>Node29&#45;&gt;Node57</title>
<path fill="none" stroke="midnightblue" d="M249.76,-258.13C270.15,-231.32 311.26,-179.89 353,-143 374.52,-123.98 402.69,-106.07 420.32,-95.57"/>
<polygon fill="midnightblue" stroke="midnightblue" points="246.88,-256.13 243.66,-266.22 252.47,-260.34 246.88,-256.13"/>
</g>
<!-- Node34 -->
<g id="node34" class="node">
<title>Node34</title>
<g id="a_node34"><a xlink:href="class_ogre_1_1_d3_d9_gpu_program.html" target="_top" xlink:title="Direct3D implementation of a few things common to low&#45;level vertex &amp; fragment programs.">
<polygon fill="none" stroke="black" points="569.5,-304.5 569.5,-323.5 703.5,-323.5 703.5,-304.5 569.5,-304.5"/>
<text text-anchor="middle" x="636.5" y="-311.5" font-family="Helvetica,sans-Serif" font-size="10.00">Ogre::D3D9GpuProgram</text>
</a>
</g>
</g>
<!-- Node33&#45;&gt;Node34 -->
<g id="edge33" class="edge">
<title>Node33&#45;&gt;Node34</title>
<path fill="none" stroke="midnightblue" d="M498.41,-287.49C526.45,-292.91 559.52,-299.31 586.15,-304.46"/>
<polygon fill="midnightblue" stroke="midnightblue" points="498.81,-284 488.33,-285.54 497.49,-290.88 498.81,-284"/>
</g>
<!-- Node37 -->
<g id="node37" class="node">
<title>Node37</title>
<g id="a_node37"><a xlink:href="class_ogre_1_1_g_l_gpu_program.html" target="_top" xlink:title="Generalised low&#45;level GL program, can be applied to multiple types (eg ARB and NV)">
<polygon fill="none" stroke="red" points="577,-266.5 577,-285.5 696,-285.5 696,-266.5 577,-266.5"/>
<text text-anchor="middle" x="636.5" y="-273.5" font-family="Helvetica,sans-Serif" font-size="10.00">Ogre::GLGpuProgram</text>
</a>
</g>
</g>
<!-- Node33&#45;&gt;Node37 -->
<g id="edge36" class="edge">
<title>Node33&#45;&gt;Node37</title>
<path fill="none" stroke="midnightblue" d="M501.75,-276C525.81,-276 553.14,-276 576.81,-276"/>
<polygon fill="midnightblue" stroke="midnightblue" points="501.66,-272.5 491.66,-276 501.66,-279.5 501.66,-272.5"/>
</g>
<!-- Node40 -->
<g id="node39" class="node">
<title>Node40</title>
<g id="a_node39"><a xlink:href="class_ogre_1_1_high_level_gpu_program.html" target="_top" xlink:title="Abstract base class representing a high&#45;level program (a vertex or fragment program).">
<polygon fill="none" stroke="red" points="559,-228.5 559,-247.5 714,-247.5 714,-228.5 559,-228.5"/>
<text text-anchor="middle" x="636.5" y="-235.5" font-family="Helvetica,sans-Serif" font-size="10.00">Ogre::HighLevelGpuProgram</text>
</a>
</g>
</g>
<!-- Node33&#45;&gt;Node40 -->
<g id="edge38" class="edge">
<title>Node33&#45;&gt;Node40</title>
<path fill="none" stroke="midnightblue" d="M498.41,-264.51C526.45,-259.09 559.52,-252.69 586.15,-247.54"/>
<polygon fill="midnightblue" stroke="midnightblue" points="497.49,-261.12 488.33,-266.46 498.81,-268 497.49,-261.12"/>
</g>
<!-- Node35 -->
<g id="node35" class="node">
<title>Node35</title>
<g id="a_node35"><a xlink:href="class_ogre_1_1_d3_d9_gpu_fragment_program.html" target="_top" xlink:title="Direct3D implementation of low&#45;level fragment programs.">
<polygon fill="none" stroke="black" points="750,-342.5 750,-361.5 930,-361.5 930,-342.5 750,-342.5"/>
<text text-anchor="middle" x="840" y="-349.5" font-family="Helvetica,sans-Serif" font-size="10.00">Ogre::D3D9GpuFragmentProgram</text>
</a>
</g>
</g>
<!-- Node34&#45;&gt;Node35 -->
<g id="edge34" class="edge">
<title>Node34&#45;&gt;Node35</title>
<path fill="none" stroke="midnightblue" d="M698.05,-325.42C726.88,-330.86 760.96,-337.28 788.39,-342.46"/>
<polygon fill="midnightblue" stroke="midnightblue" points="698.56,-321.95 688.09,-323.54 697.27,-328.83 698.56,-321.95"/>
</g>
<!-- Node36 -->
<g id="node36" class="node">
<title>Node36</title>
<g id="a_node36"><a xlink:href="class_ogre_1_1_d3_d9_gpu_vertex_program.html" target="_top" xlink:title="Direct3D implementation of low&#45;level vertex programs.">
<polygon fill="none" stroke="black" points="757.5,-304.5 757.5,-323.5 922.5,-323.5 922.5,-304.5 757.5,-304.5"/>
<text text-anchor="middle" x="840" y="-311.5" font-family="Helvetica,sans-Serif" font-size="10.00">Ogre::D3D9GpuVertexProgram</text>
</a>
</g>
</g>
<!-- Node34&#45;&gt;Node36 -->
<g id="edge35" class="edge">
<title>Node34&#45;&gt;Node36</title>
<path fill="none" stroke="midnightblue" d="M713.93,-314C728.08,-314 742.92,-314 757.23,-314"/>
<polygon fill="midnightblue" stroke="midnightblue" points="713.76,-310.5 703.76,-314 713.76,-317.5 713.76,-310.5"/>
</g>
<!-- Node38 -->
<g id="node38" class="node">
<title>Node38</title>
<g id="a_node38"><a xlink:href="class_ogre_1_1_g_l_arb_gpu_program.html" target="_top" xlink:title="Specialisation of the GL low&#45;level program for ARB programs.">
<polygon fill="none" stroke="black" points="771.5,-266.5 771.5,-285.5 908.5,-285.5 908.5,-266.5 771.5,-266.5"/>
<text text-anchor="middle" x="840" y="-273.5" font-family="Helvetica,sans-Serif" font-size="10.00">Ogre::GLArbGpuProgram</text>
</a>
</g>
</g>
<!-- Node37&#45;&gt;Node38 -->
<g id="edge37" class="edge">
<title>Node37&#45;&gt;Node38</title>
<path fill="none" stroke="midnightblue" d="M706.21,-276C727.28,-276 750.43,-276 771.42,-276"/>
<polygon fill="midnightblue" stroke="midnightblue" points="706.05,-272.5 696.05,-276 706.05,-279.5 706.05,-272.5"/>
</g>
<!-- Node54 -->
<g id="node42" class="node">
<title>Node54</title>
<g id="a_node42"><a xlink:href="class_ogre_1_1_patch_mesh.html" target="_top" xlink:title="Patch specialisation of Mesh.">
<polygon fill="none" stroke="black" points="587.5,-190.5 587.5,-209.5 685.5,-209.5 685.5,-190.5 587.5,-190.5"/>
<text text-anchor="middle" x="636.5" y="-197.5" font-family="Helvetica,sans-Serif" font-size="10.00">Ogre::PatchMesh</text>
</a>
</g>
</g>
<!-- Node53&#45;&gt;Node54 -->
<g id="edge41" class="edge">
<title>Node53&#45;&gt;Node54</title>
<path fill="none" stroke="midnightblue" d="M484.19,-200C515.06,-200 555.91,-200 587.39,-200"/>
<polygon fill="midnightblue" stroke="midnightblue" points="484.13,-196.5 474.13,-200 484.13,-203.5 484.13,-196.5"/>
</g>
<!-- Node56 -->
<g id="node44" class="node">
<title>Node56</title>
<g id="a_node44"><a xlink:href="class_ogre_1_1_skeleton_instance.html" target="_top" xlink:title="A SkeletonInstance is a single instance of a Skeleton used by a world object.">
<polygon fill="none" stroke="black" points="572,-152.5 572,-171.5 701,-171.5 701,-152.5 572,-152.5"/>
<text text-anchor="middle" x="636.5" y="-159.5" font-family="Helvetica,sans-Serif" font-size="10.00">Ogre::SkeletonInstance</text>
</a>
</g>
</g>
<!-- Node55&#45;&gt;Node56 -->
<g id="edge43" class="edge">
<title>Node55&#45;&gt;Node56</title>
<path fill="none" stroke="midnightblue" d="M492.34,-162C516.9,-162 546.25,-162 571.95,-162"/>
<polygon fill="midnightblue" stroke="midnightblue" points="492.12,-158.5 482.12,-162 492.12,-165.5 492.12,-158.5"/>
</g>
<!-- Node58 -->
<g id="node46" class="node">
<title>Node58</title>
<g id="a_node46"><a xlink:href="class_ogre_1_1_d3_d11_texture.html" target="_top" xlink:title="Specialisation of Texture for D3D11.">
<polygon fill="none" stroke="black" points="579,-114.5 579,-133.5 694,-133.5 694,-114.5 579,-114.5"/>
<text text-anchor="middle" x="636.5" y="-121.5" font-family="Helvetica,sans-Serif" font-size="10.00">Ogre::D3D11Texture</text>
</a>
</g>
</g>
<!-- Node57&#45;&gt;Node58 -->
<g id="edge45" class="edge">
<title>Node57&#45;&gt;Node58</title>
<path fill="none" stroke="midnightblue" d="M489.42,-95.75C519.19,-101.51 556.7,-108.76 586.26,-114.48"/>
<polygon fill="midnightblue" stroke="midnightblue" points="489.72,-92.24 479.24,-93.78 488.39,-99.12 489.72,-92.24"/>
</g>
<!-- Node59 -->
<g id="node47" class="node">
<title>Node59</title>
<g id="a_node47"><a xlink:href="class_ogre_1_1_d3_d9_texture.html" target="_top" xlink:title=" ">
<polygon fill="none" stroke="black" points="582,-76.5 582,-95.5 691,-95.5 691,-76.5 582,-76.5"/>
<text text-anchor="middle" x="636.5" y="-83.5" font-family="Helvetica,sans-Serif" font-size="10.00">Ogre::D3D9Texture</text>
</a>
</g>
</g>
<!-- Node57&#45;&gt;Node59 -->
<g id="edge46" class="edge">
<title>Node57&#45;&gt;Node59</title>
<path fill="none" stroke="midnightblue" d="M489.33,-86C517.67,-86 553.04,-86 581.89,-86"/>
<polygon fill="midnightblue" stroke="midnightblue" points="489.24,-82.5 479.24,-86 489.24,-89.5 489.24,-82.5"/>
</g>
<!-- Node60 -->
<g id="node48" class="node">
<title>Node60</title>
<g id="a_node48"><a xlink:href="class_ogre_1_1_g_l_texture_common.html" target="_top" xlink:title=" ">
<polygon fill="none" stroke="red" points="567.5,-38.5 567.5,-57.5 705.5,-57.5 705.5,-38.5 567.5,-38.5"/>
<text text-anchor="middle" x="636.5" y="-45.5" font-family="Helvetica,sans-Serif" font-size="10.00">Ogre::GLTextureCommon</text>
</a>
</g>
</g>
<!-- Node57&#45;&gt;Node60 -->
<g id="edge47" class="edge">
<title>Node57&#45;&gt;Node60</title>
<path fill="none" stroke="midnightblue" d="M489.42,-76.25C519.19,-70.49 556.7,-63.24 586.26,-57.52"/>
<polygon fill="midnightblue" stroke="midnightblue" points="488.39,-72.88 479.24,-78.22 489.72,-79.76 488.39,-72.88"/>
</g>
<!-- Node64 -->
<g id="node49" class="node">
<title>Node64</title>
<g id="a_node49"><a xlink:href="class_ogre_1_1_metal_texture.html" target="_top" xlink:title=" ">
<polygon fill="none" stroke="red" points="581.5,-0.5 581.5,-19.5 691.5,-19.5 691.5,-0.5 581.5,-0.5"/>
<text text-anchor="middle" x="636.5" y="-7.5" font-family="Helvetica,sans-Serif" font-size="10.00">Ogre::MetalTexture</text>
</a>
</g>
</g>
<!-- Node57&#45;&gt;Node64 -->
<g id="edge48" class="edge">
<title>Node57&#45;&gt;Node64</title>
<path fill="none" stroke="midnightblue" d="M465.54,-71.5C489.43,-58.91 525.79,-40.88 559,-29 569.05,-25.41 580.08,-22.24 590.56,-19.57"/>
<polygon fill="midnightblue" stroke="midnightblue" points="463.6,-68.57 456.42,-76.36 466.89,-74.75 463.6,-68.57"/>
</g>
</g>
</svg>
