<?xml version="1.0" encoding="UTF-8" standalone="no"?>
<!DOCTYPE svg PUBLIC "-//W3C//DTD SVG 1.1//EN"
 "http://www.w3.org/Graphics/SVG/1.1/DTD/svg11.dtd">
<!-- Generated by graphviz version 2.43.0 (0)
 -->
<!-- Title: Ogre::GLFrameBufferObjectCommon Pages: 1 -->
<svg width="362pt" height="116pt"
 viewBox="0.00 0.00 362.00 115.50" xmlns="http://www.w3.org/2000/svg" xmlns:xlink="http://www.w3.org/1999/xlink">
<g id="graph0" class="graph" transform="scale(1 1) rotate(0) translate(4 111.5)">
<title>Ogre::GLFrameBufferObjectCommon</title>
<!-- Node1 -->
<g id="node1" class="node">
<title>Node1</title>
<g id="a_node1"><a xlink:title="Frame Buffer Object abstraction.">
<polygon fill="#bfbfbf" stroke="black" points="0,-33 0,-63 150,-63 150,-33 0,-33"/>
<text text-anchor="start" x="8" y="-51" font-family="Helvetica,sans-Serif" font-size="10.00">Ogre::GLFrameBufferObject</text>
<text text-anchor="middle" x="75" y="-40" font-family="Helvetica,sans-Serif" font-size="10.00">Common</text>
</a>
</g>
</g>
<!-- Node2 -->
<g id="node2" class="node">
<title>Node2</title>
<g id="a_node2"><a xlink:href="class_ogre_1_1_g_l3_plus_frame_buffer_object.html" target="_top" xlink:title="Frame Buffer Object abstraction.">
<polygon fill="none" stroke="black" points="197.5,-77 197.5,-107 342.5,-107 342.5,-77 197.5,-77"/>
<text text-anchor="start" x="205.5" y="-95" font-family="Helvetica,sans-Serif" font-size="10.00">Ogre::GL3PlusFrameBuffer</text>
<text text-anchor="middle" x="270" y="-84" font-family="Helvetica,sans-Serif" font-size="10.00">Object</text>
</a>
</g>
</g>
<!-- Node1&#45;&gt;Node2 -->
<g id="edge1" class="edge">
<title>Node1&#45;&gt;Node2</title>
<path fill="none" stroke="midnightblue" d="M151.75,-65.27C168.71,-69.14 186.57,-73.21 203.09,-76.97"/>
<polygon fill="midnightblue" stroke="midnightblue" points="152.41,-61.83 141.88,-63.02 150.85,-68.65 152.41,-61.83"/>
</g>
<!-- Node3 -->
<g id="node3" class="node">
<title>Node3</title>
<g id="a_node3"><a xlink:href="class_ogre_1_1_g_l_e_s2_frame_buffer_object.html" target="_top" xlink:title="Frame Buffer Object abstraction.">
<polygon fill="none" stroke="black" points="186,-38.5 186,-57.5 354,-57.5 354,-38.5 186,-38.5"/>
<text text-anchor="middle" x="270" y="-45.5" font-family="Helvetica,sans-Serif" font-size="10.00">Ogre::GLES2FrameBufferObject</text>
</a>
</g>
</g>
<!-- Node1&#45;&gt;Node3 -->
<g id="edge2" class="edge">
<title>Node1&#45;&gt;Node3</title>
<path fill="none" stroke="midnightblue" d="M160.31,-48C168.77,-48 177.35,-48 185.8,-48"/>
<polygon fill="midnightblue" stroke="midnightblue" points="160.07,-44.5 150.07,-48 160.07,-51.5 160.07,-44.5"/>
</g>
<!-- Node4 -->
<g id="node4" class="node">
<title>Node4</title>
<g id="a_node4"><a xlink:href="class_ogre_1_1_g_l_frame_buffer_object.html" target="_top" xlink:title="Frame Buffer Object abstraction.">
<polygon fill="none" stroke="black" points="195,-0.5 195,-19.5 345,-19.5 345,-0.5 195,-0.5"/>
<text text-anchor="middle" x="270" y="-7.5" font-family="Helvetica,sans-Serif" font-size="10.00">Ogre::GLFrameBufferObject</text>
</a>
</g>
</g>
<!-- Node1&#45;&gt;Node4 -->
<g id="edge3" class="edge">
<title>Node1&#45;&gt;Node4</title>
<path fill="none" stroke="midnightblue" d="M160.12,-31.44C180.75,-27.37 202.16,-23.16 220.47,-19.56"/>
<polygon fill="midnightblue" stroke="midnightblue" points="159.2,-28.05 150.07,-33.42 160.55,-34.92 159.2,-28.05"/>
</g>
</g>
</svg>
