<?xml version="1.0" encoding="UTF-8" standalone="no"?>
<!DOCTYPE svg PUBLIC "-//W3C//DTD SVG 1.1//EN"
 "http://www.w3.org/Graphics/SVG/1.1/DTD/svg11.dtd">
<!-- Generated by graphviz version 2.43.0 (0)
 -->
<!-- Title: Ogre::HardwareVertexBuffer Pages: 1 -->
<svg width="629pt" height="323pt"
 viewBox="0.00 0.00 629.00 323.00" xmlns="http://www.w3.org/2000/svg" xmlns:xlink="http://www.w3.org/1999/xlink">
<g id="graph0" class="graph" transform="scale(1 1) rotate(0) translate(4 319)">
<title>Ogre::HardwareVertexBuffer</title>
<!-- Node1 -->
<g id="node1" class="node">
<title>Node1</title>
<g id="a_node1"><a xlink:title="Specialisation of HardwareBuffer for a vertex buffer.">
<polygon fill="#bfbfbf" stroke="black" points="264,-143 264,-162 418,-162 418,-143 264,-143"/>
<text text-anchor="middle" x="341" y="-150" font-family="Helvetica,sans-Serif" font-size="10.00">Ogre::HardwareVertexBuffer</text>
</a>
</g>
</g>
<!-- Node4 -->
<g id="node4" class="node">
<title>Node4</title>
<g id="a_node4"><a xlink:href="class_ogre_1_1_d3_d11_hardware_vertex_buffer.html" target="_top" xlink:title="Specialisation of HardwareVertexBuffer for D3D11.">
<polygon fill="none" stroke="black" points="458.5,-284.5 458.5,-314.5 616.5,-314.5 616.5,-284.5 458.5,-284.5"/>
<text text-anchor="start" x="466.5" y="-302.5" font-family="Helvetica,sans-Serif" font-size="10.00">Ogre::D3D11HardwareVertex</text>
<text text-anchor="middle" x="537.5" y="-291.5" font-family="Helvetica,sans-Serif" font-size="10.00">Buffer</text>
</a>
</g>
</g>
<!-- Node1&#45;&gt;Node4 -->
<g id="edge3" class="edge">
<title>Node1&#45;&gt;Node4</title>
<path fill="none" stroke="midnightblue" d="M353.61,-170.6C371.78,-197.48 409.5,-247.75 454,-275.5 459.44,-278.89 465.38,-281.83 471.5,-284.35"/>
<polygon fill="midnightblue" stroke="midnightblue" points="356.45,-168.56 348.02,-162.14 350.61,-172.42 356.45,-168.56"/>
</g>
<!-- Node5 -->
<g id="node5" class="node">
<title>Node5</title>
<g id="a_node5"><a xlink:href="class_ogre_1_1_d3_d9_hardware_vertex_buffer.html" target="_top" xlink:title="Specialisation of HardwareVertexBuffer for D3D9.">
<polygon fill="none" stroke="black" points="461.5,-235.5 461.5,-265.5 613.5,-265.5 613.5,-235.5 461.5,-235.5"/>
<text text-anchor="start" x="469.5" y="-253.5" font-family="Helvetica,sans-Serif" font-size="10.00">Ogre::D3D9HardwareVertex</text>
<text text-anchor="middle" x="537.5" y="-242.5" font-family="Helvetica,sans-Serif" font-size="10.00">Buffer</text>
</a>
</g>
</g>
<!-- Node1&#45;&gt;Node5 -->
<g id="edge4" class="edge">
<title>Node1&#45;&gt;Node5</title>
<path fill="none" stroke="midnightblue" d="M362.11,-168.51C383.72,-185.03 419.61,-210.58 454,-226.5 461.17,-229.82 468.91,-232.8 476.68,-235.42"/>
<polygon fill="midnightblue" stroke="midnightblue" points="364.08,-165.61 354.04,-162.24 359.79,-171.14 364.08,-165.61"/>
</g>
<!-- Node6 -->
<g id="node6" class="node">
<title>Node6</title>
<g id="a_node6"><a xlink:href="class_ogre_1_1_default_hardware_vertex_buffer.html" target="_top" xlink:title="Specialisation of HardwareVertexBuffer for emulation.">
<polygon fill="none" stroke="black" points="457,-186.5 457,-216.5 618,-216.5 618,-186.5 457,-186.5"/>
<text text-anchor="start" x="465" y="-204.5" font-family="Helvetica,sans-Serif" font-size="10.00">Ogre::DefaultHardwareVertex</text>
<text text-anchor="middle" x="537.5" y="-193.5" font-family="Helvetica,sans-Serif" font-size="10.00">Buffer</text>
</a>
</g>
</g>
<!-- Node1&#45;&gt;Node6 -->
<g id="edge5" class="edge">
<title>Node1&#45;&gt;Node6</title>
<path fill="none" stroke="midnightblue" d="M389.69,-164.51C415.97,-171.14 448.84,-179.42 476.81,-186.46"/>
<polygon fill="midnightblue" stroke="midnightblue" points="390.52,-161.11 379.96,-162.06 388.81,-167.9 390.52,-161.11"/>
</g>
<!-- Node7 -->
<g id="node7" class="node">
<title>Node7</title>
<g id="a_node7"><a xlink:href="class_ogre_1_1_g_l3_plus_hardware_vertex_buffer.html" target="_top" xlink:title="Specialisation of HardwareVertexBuffer for OpenGL.">
<polygon fill="none" stroke="black" points="455.5,-137.5 455.5,-167.5 619.5,-167.5 619.5,-137.5 455.5,-137.5"/>
<text text-anchor="start" x="463.5" y="-155.5" font-family="Helvetica,sans-Serif" font-size="10.00">Ogre::GL3PlusHardwareVertex</text>
<text text-anchor="middle" x="537.5" y="-144.5" font-family="Helvetica,sans-Serif" font-size="10.00">Buffer</text>
</a>
</g>
</g>
<!-- Node1&#45;&gt;Node7 -->
<g id="edge6" class="edge">
<title>Node1&#45;&gt;Node7</title>
<path fill="none" stroke="midnightblue" d="M428.17,-152.5C437.22,-152.5 446.39,-152.5 455.38,-152.5"/>
<polygon fill="midnightblue" stroke="midnightblue" points="428.03,-149 418.03,-152.5 428.03,-156 428.03,-149"/>
</g>
<!-- Node8 -->
<g id="node8" class="node">
<title>Node8</title>
<g id="a_node8"><a xlink:href="class_ogre_1_1_g_l_e_s2_hardware_vertex_buffer.html" target="_top" xlink:title="Specialisation of HardwareVertexBuffer for OpenGL ES.">
<polygon fill="none" stroke="black" points="460,-88.5 460,-118.5 615,-118.5 615,-88.5 460,-88.5"/>
<text text-anchor="start" x="468" y="-106.5" font-family="Helvetica,sans-Serif" font-size="10.00">Ogre::GLES2HardwareVertex</text>
<text text-anchor="middle" x="537.5" y="-95.5" font-family="Helvetica,sans-Serif" font-size="10.00">Buffer</text>
</a>
</g>
</g>
<!-- Node1&#45;&gt;Node8 -->
<g id="edge7" class="edge">
<title>Node1&#45;&gt;Node8</title>
<path fill="none" stroke="midnightblue" d="M389.69,-140.49C415.97,-133.86 448.84,-125.58 476.81,-118.54"/>
<polygon fill="midnightblue" stroke="midnightblue" points="388.81,-137.1 379.96,-142.94 390.52,-143.89 388.81,-137.1"/>
</g>
<!-- Node9 -->
<g id="node9" class="node">
<title>Node9</title>
<g id="a_node9"><a xlink:href="class_ogre_1_1_g_l_hardware_vertex_buffer.html" target="_top" xlink:title="Specialisation of HardwareVertexBuffer for OpenGL.">
<polygon fill="none" stroke="black" points="454,-50 454,-69 621,-69 621,-50 454,-50"/>
<text text-anchor="middle" x="537.5" y="-57" font-family="Helvetica,sans-Serif" font-size="10.00">Ogre::GLHardwareVertexBuffer</text>
</a>
</g>
</g>
<!-- Node1&#45;&gt;Node9 -->
<g id="edge8" class="edge">
<title>Node1&#45;&gt;Node9</title>
<path fill="none" stroke="midnightblue" d="M361.59,-136.37C383.02,-119.53 418.99,-93.52 454,-78.5 462.92,-74.68 472.72,-71.56 482.36,-69.04"/>
<polygon fill="midnightblue" stroke="midnightblue" points="359.23,-133.78 353.61,-142.76 363.6,-139.25 359.23,-133.78"/>
</g>
<!-- Node10 -->
<g id="node10" class="node">
<title>Node10</title>
<g id="a_node10"><a xlink:href="class_ogre_1_1_metal_hardware_vertex_buffer.html" target="_top" xlink:title="Specialisation of HardwareVertexBuffer for Metal.">
<polygon fill="none" stroke="black" points="461.5,-0.5 461.5,-30.5 613.5,-30.5 613.5,-0.5 461.5,-0.5"/>
<text text-anchor="start" x="469.5" y="-18.5" font-family="Helvetica,sans-Serif" font-size="10.00">Ogre::MetalHardwareVertex</text>
<text text-anchor="middle" x="537.5" y="-7.5" font-family="Helvetica,sans-Serif" font-size="10.00">Buffer</text>
</a>
</g>
</g>
<!-- Node1&#45;&gt;Node10 -->
<g id="edge9" class="edge">
<title>Node1&#45;&gt;Node10</title>
<path fill="none" stroke="midnightblue" d="M355.12,-134.7C374.21,-110.04 411.98,-65.68 454,-40.5 460.42,-36.65 467.48,-33.36 474.68,-30.54"/>
<polygon fill="midnightblue" stroke="midnightblue" points="352.22,-132.74 348.96,-142.82 357.79,-136.97 352.22,-132.74"/>
</g>
<!-- Node2 -->
<g id="node2" class="node">
<title>Node2</title>
<g id="a_node2"><a xlink:href="class_ogre_1_1_hardware_buffer.html" target="_top" xlink:title="Abstract class defining common features of hardware buffers.">
<polygon fill="none" stroke="black" points="106,-143 106,-162 228,-162 228,-143 106,-143"/>
<text text-anchor="middle" x="167" y="-150" font-family="Helvetica,sans-Serif" font-size="10.00">Ogre::HardwareBuffer</text>
</a>
</g>
</g>
<!-- Node2&#45;&gt;Node1 -->
<g id="edge1" class="edge">
<title>Node2&#45;&gt;Node1</title>
<path fill="none" stroke="midnightblue" d="M238.3,-152.5C246.72,-152.5 255.35,-152.5 263.85,-152.5"/>
<polygon fill="midnightblue" stroke="midnightblue" points="238.16,-149 228.16,-152.5 238.16,-156 238.16,-149"/>
</g>
<!-- Node3 -->
<g id="node3" class="node">
<title>Node3</title>
<g id="a_node3"><a xlink:title=" ">
<polygon fill="none" stroke="#bfbfbf" points="0,-143 0,-162 70,-162 70,-143 0,-143"/>
<text text-anchor="middle" x="35" y="-150" font-family="Helvetica,sans-Serif" font-size="10.00">BufferAlloc</text>
</a>
</g>
</g>
<!-- Node3&#45;&gt;Node2 -->
<g id="edge2" class="edge">
<title>Node3&#45;&gt;Node2</title>
<path fill="none" stroke="midnightblue" d="M80.3,-152.5C88.55,-152.5 97.3,-152.5 105.93,-152.5"/>
<polygon fill="midnightblue" stroke="midnightblue" points="80.16,-149 70.16,-152.5 80.16,-156 80.16,-149"/>
</g>
</g>
</svg>
