<?xml version="1.0" encoding="UTF-8" standalone="no"?>
<!DOCTYPE svg PUBLIC "-//W3C//DTD SVG 1.1//EN"
 "http://www.w3.org/Graphics/SVG/1.1/DTD/svg11.dtd">
<!-- Generated by graphviz version 2.43.0 (0)
 -->
<!-- Title: Ogre::RTShader::SubRenderStateFactory Pages: 1 -->
<svg width="532pt" height="656pt"
 viewBox="0.00 0.00 532.00 656.00" xmlns="http://www.w3.org/2000/svg" xmlns:xlink="http://www.w3.org/1999/xlink">
<g id="graph0" class="graph" transform="scale(1 1) rotate(0) translate(4 652)">
<title>Ogre::RTShader::SubRenderStateFactory</title>
<!-- Node1 -->
<g id="node1" class="node">
<title>Node1</title>
<g id="a_node1"><a xlink:title="Abstract factory interface for creating SubRenderState implementation instances.">
<polygon fill="#bfbfbf" stroke="black" points="159,-316.5 159,-346.5 309,-346.5 309,-316.5 159,-316.5"/>
<text text-anchor="start" x="167" y="-334.5" font-family="Helvetica,sans-Serif" font-size="10.00">Ogre::RTShader::SubRender</text>
<text text-anchor="middle" x="234" y="-323.5" font-family="Helvetica,sans-Serif" font-size="10.00">StateFactory</text>
</a>
</g>
</g>
<!-- Node3 -->
<g id="node3" class="node">
<title>Node3</title>
<g id="a_node3"><a xlink:href="class_ogre_1_1_r_t_shader_1_1_f_f_p_alpha_test_factory.html" target="_top" xlink:title=" ">
<polygon fill="none" stroke="black" points="363,-617.5 363,-647.5 506,-647.5 506,-617.5 363,-617.5"/>
<text text-anchor="start" x="371" y="-635.5" font-family="Helvetica,sans-Serif" font-size="10.00">Ogre::RTShader::FFPAlpha</text>
<text text-anchor="middle" x="434.5" y="-624.5" font-family="Helvetica,sans-Serif" font-size="10.00">TestFactory</text>
</a>
</g>
</g>
<!-- Node1&#45;&gt;Node3 -->
<g id="edge2" class="edge">
<title>Node1&#45;&gt;Node3</title>
<path fill="none" stroke="midnightblue" d="M237.58,-356.93C244.49,-411.44 268.44,-540.15 345,-608.5 350.23,-613.16 356.27,-616.94 362.69,-619.98"/>
<polygon fill="midnightblue" stroke="midnightblue" points="241.02,-356.28 236.38,-346.76 234.07,-357.1 241.02,-356.28"/>
</g>
<!-- Node4 -->
<g id="node4" class="node">
<title>Node4</title>
<g id="a_node4"><a xlink:href="class_ogre_1_1_r_t_shader_1_1_f_f_p_colour_factory.html" target="_top" xlink:title="A factory that enables creation of FFPColour instances.">
<polygon fill="none" stroke="black" points="361,-568.5 361,-598.5 508,-598.5 508,-568.5 361,-568.5"/>
<text text-anchor="start" x="369" y="-586.5" font-family="Helvetica,sans-Serif" font-size="10.00">Ogre::RTShader::FFPColour</text>
<text text-anchor="middle" x="434.5" y="-575.5" font-family="Helvetica,sans-Serif" font-size="10.00">Factory</text>
</a>
</g>
</g>
<!-- Node1&#45;&gt;Node4 -->
<g id="edge3" class="edge">
<title>Node1&#45;&gt;Node4</title>
<path fill="none" stroke="midnightblue" d="M240.02,-356.47C250.74,-403.28 280.38,-504.36 345,-558.5 349.77,-562.5 355.15,-565.86 360.82,-568.68"/>
<polygon fill="midnightblue" stroke="midnightblue" points="243.41,-355.59 237.85,-346.57 236.57,-357.09 243.41,-355.59"/>
</g>
<!-- Node5 -->
<g id="node5" class="node">
<title>Node5</title>
<g id="a_node5"><a xlink:href="class_ogre_1_1_r_t_shader_1_1_f_f_p_fog_factory.html" target="_top" xlink:title="A factory that enables creation of FFPFog instances.">
<polygon fill="none" stroke="black" points="350.5,-530 350.5,-549 518.5,-549 518.5,-530 350.5,-530"/>
<text text-anchor="middle" x="434.5" y="-537" font-family="Helvetica,sans-Serif" font-size="10.00">Ogre::RTShader::FFPFogFactory</text>
</a>
</g>
</g>
<!-- Node1&#45;&gt;Node5 -->
<g id="edge4" class="edge">
<title>Node1&#45;&gt;Node5</title>
<path fill="none" stroke="midnightblue" d="M242.2,-356.37C255.42,-397.4 287.61,-478.87 345,-520.5 350.34,-524.38 356.31,-527.49 362.56,-529.99"/>
<polygon fill="midnightblue" stroke="midnightblue" points="245.48,-355.14 239.17,-346.63 238.79,-357.22 245.48,-355.14"/>
</g>
<!-- Node6 -->
<g id="node6" class="node">
<title>Node6</title>
<g id="a_node6"><a xlink:href="class_ogre_1_1_r_t_shader_1_1_f_f_p_lighting_factory.html" target="_top" xlink:title="A factory that enables creation of FFPLighting instances.">
<polygon fill="none" stroke="black" points="357,-480.5 357,-510.5 512,-510.5 512,-480.5 357,-480.5"/>
<text text-anchor="start" x="365" y="-498.5" font-family="Helvetica,sans-Serif" font-size="10.00">Ogre::RTShader::FFPLighting</text>
<text text-anchor="middle" x="434.5" y="-487.5" font-family="Helvetica,sans-Serif" font-size="10.00">Factory</text>
</a>
</g>
</g>
<!-- Node1&#45;&gt;Node6 -->
<g id="edge5" class="edge">
<title>Node1&#45;&gt;Node6</title>
<path fill="none" stroke="midnightblue" d="M247.55,-355.76C265.09,-387.24 299.92,-441.65 345,-471.5 350.18,-474.93 355.83,-477.87 361.7,-480.39"/>
<polygon fill="midnightblue" stroke="midnightblue" points="250.52,-353.89 242.67,-346.78 244.37,-357.24 250.52,-353.89"/>
</g>
<!-- Node7 -->
<g id="node7" class="node">
<title>Node7</title>
<g id="a_node7"><a xlink:href="class_ogre_1_1_r_t_shader_1_1_f_f_p_texturing_factory.html" target="_top" xlink:title="A factory that enables creation of FFPTexturing instances.">
<polygon fill="none" stroke="black" points="354,-431.5 354,-461.5 515,-461.5 515,-431.5 354,-431.5"/>
<text text-anchor="start" x="362" y="-449.5" font-family="Helvetica,sans-Serif" font-size="10.00">Ogre::RTShader::FFPTexturing</text>
<text text-anchor="middle" x="434.5" y="-438.5" font-family="Helvetica,sans-Serif" font-size="10.00">Factory</text>
</a>
</g>
</g>
<!-- Node1&#45;&gt;Node7 -->
<g id="edge6" class="edge">
<title>Node1&#45;&gt;Node7</title>
<path fill="none" stroke="midnightblue" d="M256.23,-353.87C277.01,-374.53 310.5,-404.63 345,-422.5 351.5,-425.87 358.53,-428.8 365.67,-431.35"/>
<polygon fill="midnightblue" stroke="midnightblue" points="258.68,-351.38 249.17,-346.73 253.71,-356.3 258.68,-351.38"/>
</g>
<!-- Node8 -->
<g id="node8" class="node">
<title>Node8</title>
<g id="a_node8"><a xlink:href="class_ogre_1_1_r_t_shader_1_1_f_f_p_transform_factory.html" target="_top" xlink:title="A factory that enables creation of FFPTransform instances.">
<polygon fill="none" stroke="black" points="352.5,-382.5 352.5,-412.5 516.5,-412.5 516.5,-382.5 352.5,-382.5"/>
<text text-anchor="start" x="360.5" y="-400.5" font-family="Helvetica,sans-Serif" font-size="10.00">Ogre::RTShader::FFPTransform</text>
<text text-anchor="middle" x="434.5" y="-389.5" font-family="Helvetica,sans-Serif" font-size="10.00">Factory</text>
</a>
</g>
</g>
<!-- Node1&#45;&gt;Node8 -->
<g id="edge7" class="edge">
<title>Node1&#45;&gt;Node8</title>
<path fill="none" stroke="midnightblue" d="M282.38,-350.13C301.68,-357.46 324.29,-365.73 345,-372.5 355.47,-375.92 366.73,-379.32 377.58,-382.45"/>
<polygon fill="midnightblue" stroke="midnightblue" points="283.5,-346.81 272.91,-346.5 281,-353.34 283.5,-346.81"/>
</g>
<!-- Node9 -->
<g id="node9" class="node">
<title>Node9</title>
<g id="a_node9"><a xlink:href="class_ogre_1_1_r_t_shader_1_1_g_buffer_factory.html" target="_top" xlink:title="A factory that enables creation of GBuffer instances.">
<polygon fill="none" stroke="black" points="349.5,-344 349.5,-363 519.5,-363 519.5,-344 349.5,-344"/>
<text text-anchor="middle" x="434.5" y="-351" font-family="Helvetica,sans-Serif" font-size="10.00">Ogre::RTShader::GBufferFactory</text>
</a>
</g>
</g>
<!-- Node1&#45;&gt;Node9 -->
<g id="edge8" class="edge">
<title>Node1&#45;&gt;Node9</title>
<path fill="none" stroke="midnightblue" d="M319.44,-340.86C329.35,-341.96 339.47,-343.08 349.38,-344.18"/>
<polygon fill="midnightblue" stroke="midnightblue" points="319.52,-337.35 309.2,-339.72 318.75,-344.3 319.52,-337.35"/>
</g>
<!-- Node10 -->
<g id="node10" class="node">
<title>Node10</title>
<g id="a_node10"><a xlink:href="class_ogre_1_1_r_t_shader_1_1_hardware_skinning_factory.html" target="_top" xlink:title="A factory that enables creation of HardwareSkinning instances.">
<polygon fill="none" stroke="black" points="362,-294.5 362,-324.5 507,-324.5 507,-294.5 362,-294.5"/>
<text text-anchor="start" x="370" y="-312.5" font-family="Helvetica,sans-Serif" font-size="10.00">Ogre::RTShader::Hardware</text>
<text text-anchor="middle" x="434.5" y="-301.5" font-family="Helvetica,sans-Serif" font-size="10.00">SkinningFactory</text>
</a>
</g>
</g>
<!-- Node1&#45;&gt;Node10 -->
<g id="edge9" class="edge">
<title>Node1&#45;&gt;Node10</title>
<path fill="none" stroke="midnightblue" d="M319.37,-322.15C333.46,-320.59 347.96,-318.98 361.7,-317.46"/>
<polygon fill="midnightblue" stroke="midnightblue" points="318.75,-318.7 309.2,-323.28 319.52,-325.65 318.75,-318.7"/>
</g>
<!-- Node11 -->
<g id="node11" class="node">
<title>Node11</title>
<g id="a_node11"><a xlink:href="class_ogre_1_1_r_t_shader_1_1_integrated_p_s_s_m3_factory.html" target="_top" xlink:title="A factory that enables creation of IntegratedPSSM3 instances.">
<polygon fill="none" stroke="black" points="360.5,-245.5 360.5,-275.5 508.5,-275.5 508.5,-245.5 360.5,-245.5"/>
<text text-anchor="start" x="368.5" y="-263.5" font-family="Helvetica,sans-Serif" font-size="10.00">Ogre::RTShader::Integrated</text>
<text text-anchor="middle" x="434.5" y="-252.5" font-family="Helvetica,sans-Serif" font-size="10.00">PSSM3Factory</text>
</a>
</g>
</g>
<!-- Node1&#45;&gt;Node11 -->
<g id="edge10" class="edge">
<title>Node1&#45;&gt;Node11</title>
<path fill="none" stroke="midnightblue" d="M276.56,-312.12C296.93,-303.05 321.97,-292.5 345,-284.5 354.17,-281.31 364,-278.28 373.65,-275.52"/>
<polygon fill="midnightblue" stroke="midnightblue" points="274.95,-309.01 267.26,-316.31 277.82,-315.4 274.95,-309.01"/>
</g>
<!-- Node12 -->
<g id="node12" class="node">
<title>Node12</title>
<g id="a_node12"><a xlink:href="class_ogre_1_1_r_t_shader_1_1_layered_blending_factory.html" target="_top" xlink:title="A factory that enables creation of LayeredBlending instances.">
<polygon fill="none" stroke="black" points="345,-196.5 345,-226.5 524,-226.5 524,-196.5 345,-196.5"/>
<text text-anchor="start" x="353" y="-214.5" font-family="Helvetica,sans-Serif" font-size="10.00">Ogre::RTShader::LayeredBlending</text>
<text text-anchor="middle" x="434.5" y="-203.5" font-family="Helvetica,sans-Serif" font-size="10.00">Factory</text>
</a>
</g>
</g>
<!-- Node1&#45;&gt;Node12 -->
<g id="edge11" class="edge">
<title>Node1&#45;&gt;Node12</title>
<path fill="none" stroke="midnightblue" d="M254.94,-308.96C275.46,-287.11 309.37,-254.56 345,-235.5 351.32,-232.12 358.15,-229.19 365.12,-226.65"/>
<polygon fill="midnightblue" stroke="midnightblue" points="252.21,-306.75 248.01,-316.48 257.36,-311.5 252.21,-306.75"/>
</g>
<!-- Node13 -->
<g id="node13" class="node">
<title>Node13</title>
<g id="a_node13"><a xlink:href="class_ogre_1_1_r_t_shader_1_1_normal_map_lighting_factory.html" target="_top" xlink:title="A factory that enables creation of NormalMapLighting instances.">
<polygon fill="none" stroke="black" points="357,-147.5 357,-177.5 512,-177.5 512,-147.5 357,-147.5"/>
<text text-anchor="start" x="365" y="-165.5" font-family="Helvetica,sans-Serif" font-size="10.00">Ogre::RTShader::NormalMap</text>
<text text-anchor="middle" x="434.5" y="-154.5" font-family="Helvetica,sans-Serif" font-size="10.00">LightingFactory</text>
</a>
</g>
</g>
<!-- Node1&#45;&gt;Node13 -->
<g id="edge12" class="edge">
<title>Node1&#45;&gt;Node13</title>
<path fill="none" stroke="midnightblue" d="M247.06,-306.87C264.26,-274.35 298.94,-217.56 345,-186.5 350.15,-183.03 355.78,-180.06 361.63,-177.52"/>
<polygon fill="midnightblue" stroke="midnightblue" points="243.76,-305.64 242.29,-316.14 249.98,-308.85 243.76,-305.64"/>
</g>
<!-- Node14 -->
<g id="node14" class="node">
<title>Node14</title>
<g id="a_node14"><a xlink:href="class_ogre_1_1_r_t_shader_1_1_per_pixel_lighting_factory.html" target="_top" xlink:title="A factory that enables creation of PerPixelLighting instances.">
<polygon fill="none" stroke="black" points="366,-98.5 366,-128.5 503,-128.5 503,-98.5 366,-98.5"/>
<text text-anchor="start" x="374" y="-116.5" font-family="Helvetica,sans-Serif" font-size="10.00">Ogre::RTShader::PerPixel</text>
<text text-anchor="middle" x="434.5" y="-105.5" font-family="Helvetica,sans-Serif" font-size="10.00">LightingFactory</text>
</a>
</g>
</g>
<!-- Node1&#45;&gt;Node14 -->
<g id="edge13" class="edge">
<title>Node1&#45;&gt;Node14</title>
<path fill="none" stroke="midnightblue" d="M242.07,-306.89C255.26,-265.48 287.61,-182.03 345,-137.5 351.16,-132.72 358.21,-128.89 365.57,-125.82"/>
<polygon fill="midnightblue" stroke="midnightblue" points="238.72,-305.88 239.13,-316.46 245.41,-307.93 238.72,-305.88"/>
</g>
<!-- Node15 -->
<g id="node15" class="node">
<title>Node15</title>
<g id="a_node15"><a xlink:href="class_ogre_1_1_r_t_shader_1_1_texture_atlas_sampler_factory.html" target="_top" xlink:title="A factory that enables creation of TextureAtlasSampler instances.">
<polygon fill="none" stroke="black" points="355.5,-49.5 355.5,-79.5 513.5,-79.5 513.5,-49.5 355.5,-49.5"/>
<text text-anchor="start" x="363.5" y="-67.5" font-family="Helvetica,sans-Serif" font-size="10.00">Ogre::RTShader::TextureAtlas</text>
<text text-anchor="middle" x="434.5" y="-56.5" font-family="Helvetica,sans-Serif" font-size="10.00">SamplerFactory</text>
</a>
</g>
</g>
<!-- Node1&#45;&gt;Node15 -->
<g id="edge14" class="edge">
<title>Node1&#45;&gt;Node15</title>
<path fill="none" stroke="midnightblue" d="M239.09,-306.44C248.49,-257.06 276.34,-146.95 345,-88.5 349,-85.09 353.44,-82.17 358.14,-79.65"/>
<polygon fill="midnightblue" stroke="midnightblue" points="235.65,-305.82 237.31,-316.28 242.53,-307.06 235.65,-305.82"/>
</g>
<!-- Node16 -->
<g id="node16" class="node">
<title>Node16</title>
<g id="a_node16"><a xlink:href="class_ogre_1_1_r_t_shader_1_1_triplanar_texturing_factory.html" target="_top" xlink:title="A factory that enables creation of TriplanarMapping instances.">
<polygon fill="none" stroke="black" points="364.5,-0.5 364.5,-30.5 504.5,-30.5 504.5,-0.5 364.5,-0.5"/>
<text text-anchor="start" x="372.5" y="-18.5" font-family="Helvetica,sans-Serif" font-size="10.00">Ogre::RTShader::Triplanar</text>
<text text-anchor="middle" x="434.5" y="-7.5" font-family="Helvetica,sans-Serif" font-size="10.00">TexturingFactory</text>
</a>
</g>
</g>
<!-- Node1&#45;&gt;Node16 -->
<g id="edge15" class="edge">
<title>Node1&#45;&gt;Node16</title>
<path fill="none" stroke="midnightblue" d="M236.96,-306.29C242.75,-249.82 264.76,-112.43 345,-39.5 350.65,-34.36 357.3,-30.3 364.37,-27.11"/>
<polygon fill="midnightblue" stroke="midnightblue" points="233.46,-306.18 236.01,-316.46 240.43,-306.83 233.46,-306.18"/>
</g>
<!-- Node2 -->
<g id="node2" class="node">
<title>Node2</title>
<g id="a_node2"><a xlink:title=" ">
<polygon fill="none" stroke="#bfbfbf" points="0,-322 0,-341 123,-341 123,-322 0,-322"/>
<text text-anchor="middle" x="61.5" y="-329" font-family="Helvetica,sans-Serif" font-size="10.00">RTShaderSystemAlloc</text>
</a>
</g>
</g>
<!-- Node2&#45;&gt;Node1 -->
<g id="edge1" class="edge">
<title>Node2&#45;&gt;Node1</title>
<path fill="none" stroke="midnightblue" d="M133.28,-331.5C141.73,-331.5 150.37,-331.5 158.87,-331.5"/>
<polygon fill="midnightblue" stroke="midnightblue" points="133.09,-328 123.09,-331.5 133.09,-335 133.09,-328"/>
</g>
</g>
</svg>
