<?xml version="1.0" encoding="UTF-8" standalone="no"?>
<!DOCTYPE svg PUBLIC "-//W3C//DTD SVG 1.1//EN"
 "http://www.w3.org/Graphics/SVG/1.1/DTD/svg11.dtd">
<!-- Generated by graphviz version 2.43.0 (0)
 -->
<!-- Title: Ogre::RTShader::ProgramWriterFactory Pages: 1 -->
<svg width="545pt" height="186pt"
 viewBox="0.00 0.00 545.00 186.00" xmlns="http://www.w3.org/2000/svg" xmlns:xlink="http://www.w3.org/1999/xlink">
<g id="graph0" class="graph" transform="scale(1 1) rotate(0) translate(4 182)">
<title>Ogre::RTShader::ProgramWriterFactory</title>
<!-- Node1 -->
<g id="node1" class="node">
<title>Node1</title>
<g id="a_node1"><a xlink:title="Interface definition for factories of ShaderProgramWriter.">
<polygon fill="#bfbfbf" stroke="black" points="159,-73.5 159,-103.5 328,-103.5 328,-73.5 159,-73.5"/>
<text text-anchor="start" x="167" y="-91.5" font-family="Helvetica,sans-Serif" font-size="10.00">Ogre::RTShader::ProgramWriter</text>
<text text-anchor="middle" x="243.5" y="-80.5" font-family="Helvetica,sans-Serif" font-size="10.00">Factory</text>
</a>
</g>
</g>
<!-- Node3 -->
<g id="node3" class="node">
<title>Node3</title>
<g id="a_node3"><a xlink:href="class_ogre_1_1_r_t_shader_1_1_shader_program_writer_c_g_factory.html" target="_top" xlink:title="CG program writer factory implementation.">
<polygon fill="none" stroke="black" points="364,-147.5 364,-177.5 537,-177.5 537,-147.5 364,-147.5"/>
<text text-anchor="start" x="372" y="-165.5" font-family="Helvetica,sans-Serif" font-size="10.00">Ogre::RTShader::ShaderProgram</text>
<text text-anchor="middle" x="450.5" y="-154.5" font-family="Helvetica,sans-Serif" font-size="10.00">WriterCGFactory</text>
</a>
</g>
</g>
<!-- Node1&#45;&gt;Node3 -->
<g id="edge2" class="edge">
<title>Node1&#45;&gt;Node3</title>
<path fill="none" stroke="midnightblue" d="M286.63,-107.62C309.3,-117.52 337.89,-129.41 364,-138.5 373.03,-141.64 382.7,-144.67 392.17,-147.46"/>
<polygon fill="midnightblue" stroke="midnightblue" points="287.86,-104.34 277.3,-103.51 285.04,-110.74 287.86,-104.34"/>
</g>
<!-- Node4 -->
<g id="node4" class="node">
<title>Node4</title>
<g id="a_node4"><a xlink:href="class_ogre_1_1_r_t_shader_1_1_shader_program_writer_g_l_s_l_e_s_factory.html" target="_top" xlink:title="GLSL ES program writer factory implementation.">
<polygon fill="none" stroke="black" points="364,-98.5 364,-128.5 537,-128.5 537,-98.5 364,-98.5"/>
<text text-anchor="start" x="372" y="-116.5" font-family="Helvetica,sans-Serif" font-size="10.00">Ogre::RTShader::ShaderProgram</text>
<text text-anchor="middle" x="450.5" y="-105.5" font-family="Helvetica,sans-Serif" font-size="10.00">WriterGLSLESFactory</text>
</a>
</g>
</g>
<!-- Node1&#45;&gt;Node4 -->
<g id="edge3" class="edge">
<title>Node1&#45;&gt;Node4</title>
<path fill="none" stroke="midnightblue" d="M338.15,-99.92C346.68,-100.96 355.3,-102.01 363.76,-103.04"/>
<polygon fill="midnightblue" stroke="midnightblue" points="338.53,-96.44 328.18,-98.7 337.68,-103.39 338.53,-96.44"/>
</g>
<!-- Node5 -->
<g id="node5" class="node">
<title>Node5</title>
<g id="a_node5"><a xlink:href="class_ogre_1_1_r_t_shader_1_1_shader_program_writer_g_l_s_l_factory.html" target="_top" xlink:title="GLSL program writer factory implementation.">
<polygon fill="none" stroke="black" points="364,-49.5 364,-79.5 537,-79.5 537,-49.5 364,-49.5"/>
<text text-anchor="start" x="372" y="-67.5" font-family="Helvetica,sans-Serif" font-size="10.00">Ogre::RTShader::ShaderProgram</text>
<text text-anchor="middle" x="450.5" y="-56.5" font-family="Helvetica,sans-Serif" font-size="10.00">WriterGLSLFactory</text>
</a>
</g>
</g>
<!-- Node1&#45;&gt;Node5 -->
<g id="edge4" class="edge">
<title>Node1&#45;&gt;Node5</title>
<path fill="none" stroke="midnightblue" d="M338.15,-77.54C346.68,-76.54 355.3,-75.53 363.76,-74.54"/>
<polygon fill="midnightblue" stroke="midnightblue" points="337.7,-74.06 328.18,-78.7 338.52,-81.02 337.7,-74.06"/>
</g>
<!-- Node6 -->
<g id="node6" class="node">
<title>Node6</title>
<g id="a_node6"><a xlink:href="class_ogre_1_1_r_t_shader_1_1_shader_program_writer_h_l_s_l_factory.html" target="_top" xlink:title="HLSL program writer factory implementation.">
<polygon fill="none" stroke="black" points="364,-0.5 364,-30.5 537,-30.5 537,-0.5 364,-0.5"/>
<text text-anchor="start" x="372" y="-18.5" font-family="Helvetica,sans-Serif" font-size="10.00">Ogre::RTShader::ShaderProgram</text>
<text text-anchor="middle" x="450.5" y="-7.5" font-family="Helvetica,sans-Serif" font-size="10.00">WriterHLSLFactory</text>
</a>
</g>
</g>
<!-- Node1&#45;&gt;Node6 -->
<g id="edge5" class="edge">
<title>Node1&#45;&gt;Node6</title>
<path fill="none" stroke="midnightblue" d="M287.64,-69.4C310.16,-59.79 338.3,-48.34 364,-39.5 373.04,-36.39 382.71,-33.38 392.19,-30.6"/>
<polygon fill="midnightblue" stroke="midnightblue" points="286.16,-66.23 278.36,-73.39 288.92,-72.66 286.16,-66.23"/>
</g>
<!-- Node2 -->
<g id="node2" class="node">
<title>Node2</title>
<g id="a_node2"><a xlink:title=" ">
<polygon fill="none" stroke="#bfbfbf" points="0,-79 0,-98 123,-98 123,-79 0,-79"/>
<text text-anchor="middle" x="61.5" y="-86" font-family="Helvetica,sans-Serif" font-size="10.00">RTShaderSystemAlloc</text>
</a>
</g>
</g>
<!-- Node2&#45;&gt;Node1 -->
<g id="edge1" class="edge">
<title>Node2&#45;&gt;Node1</title>
<path fill="none" stroke="midnightblue" d="M133.26,-88.5C141.63,-88.5 150.22,-88.5 158.75,-88.5"/>
<polygon fill="midnightblue" stroke="midnightblue" points="133.19,-85 123.19,-88.5 133.19,-92 133.19,-85"/>
</g>
</g>
</svg>
