<?xml version="1.0" encoding="UTF-8" standalone="no"?>
<!DOCTYPE svg PUBLIC "-//W3C//DTD SVG 1.1//EN"
 "http://www.w3.org/Graphics/SVG/1.1/DTD/svg11.dtd">
<!-- Generated by graphviz version 2.43.0 (0)
 -->
<!-- Title: Ogre::RTShader::HardwareSkinningTechnique Pages: 1 -->
<svg width="370pt" height="162pt"
 viewBox="0.00 0.00 370.00 162.00" xmlns="http://www.w3.org/2000/svg" xmlns:xlink="http://www.w3.org/1999/xlink">
<g id="graph0" class="graph" transform="scale(1 1) rotate(0) translate(4 158)">
<title>Ogre::RTShader::HardwareSkinningTechnique</title>
<!-- Node1 -->
<g id="node1" class="node">
<title>Node1</title>
<g id="a_node1"><a xlink:title="Implement a sub render state which performs hardware skinning.">
<polygon fill="#bfbfbf" stroke="black" points="109.5,-67.5 109.5,-97.5 254.5,-97.5 254.5,-67.5 109.5,-67.5"/>
<text text-anchor="start" x="117.5" y="-85.5" font-family="Helvetica,sans-Serif" font-size="10.00">Ogre::RTShader::Hardware</text>
<text text-anchor="middle" x="182" y="-74.5" font-family="Helvetica,sans-Serif" font-size="10.00">SkinningTechnique</text>
</a>
</g>
</g>
<!-- Node3 -->
<g id="node3" class="node">
<title>Node3</title>
<g id="a_node3"><a xlink:href="class_ogre_1_1_r_t_shader_1_1_dual_quaternion_skinning.html" target="_top" xlink:title="Implement a sub render state which performs dual quaternion hardware skinning.">
<polygon fill="none" stroke="black" points="0,-0.5 0,-30.5 174,-30.5 174,-0.5 0,-0.5"/>
<text text-anchor="start" x="8" y="-18.5" font-family="Helvetica,sans-Serif" font-size="10.00">Ogre::RTShader::DualQuaternion</text>
<text text-anchor="middle" x="87" y="-7.5" font-family="Helvetica,sans-Serif" font-size="10.00">Skinning</text>
</a>
</g>
</g>
<!-- Node1&#45;&gt;Node3 -->
<g id="edge2" class="edge">
<title>Node1&#45;&gt;Node3</title>
<path fill="none" stroke="midnightblue" d="M153.11,-61.73C138.41,-51.68 120.89,-39.68 107.57,-30.58"/>
<polygon fill="midnightblue" stroke="midnightblue" points="151.16,-64.64 161.39,-67.4 155.11,-58.86 151.16,-64.64"/>
</g>
<!-- Node4 -->
<g id="node4" class="node">
<title>Node4</title>
<g id="a_node4"><a xlink:href="class_ogre_1_1_r_t_shader_1_1_linear_skinning.html" target="_top" xlink:title="Implement a sub render state which performs hardware skinning.">
<polygon fill="none" stroke="black" points="192,-6 192,-25 362,-25 362,-6 192,-6"/>
<text text-anchor="middle" x="277" y="-13" font-family="Helvetica,sans-Serif" font-size="10.00">Ogre::RTShader::LinearSkinning</text>
</a>
</g>
</g>
<!-- Node1&#45;&gt;Node4 -->
<g id="edge3" class="edge">
<title>Node1&#45;&gt;Node4</title>
<path fill="none" stroke="midnightblue" d="M211.02,-61.64C228.95,-49.37 251.04,-34.26 264.57,-25.01"/>
<polygon fill="midnightblue" stroke="midnightblue" points="208.89,-58.86 202.61,-67.4 212.84,-64.64 208.89,-58.86"/>
</g>
<!-- Node2 -->
<g id="node2" class="node">
<title>Node2</title>
<g id="a_node2"><a xlink:title=" ">
<polygon fill="none" stroke="#bfbfbf" points="120.5,-134.5 120.5,-153.5 243.5,-153.5 243.5,-134.5 120.5,-134.5"/>
<text text-anchor="middle" x="182" y="-141.5" font-family="Helvetica,sans-Serif" font-size="10.00">RTShaderSystemAlloc</text>
</a>
</g>
</g>
<!-- Node2&#45;&gt;Node1 -->
<g id="edge1" class="edge">
<title>Node2&#45;&gt;Node1</title>
<path fill="none" stroke="midnightblue" d="M182,-124.23C182,-115.59 182,-105.5 182,-97.52"/>
<polygon fill="midnightblue" stroke="midnightblue" points="178.5,-124.48 182,-134.48 185.5,-124.48 178.5,-124.48"/>
</g>
</g>
</svg>
