<?xml version="1.0" encoding="UTF-8" standalone="no"?>
<!DOCTYPE svg PUBLIC "-//W3C//DTD SVG 1.1//EN"
 "http://www.w3.org/Graphics/SVG/1.1/DTD/svg11.dtd">
<!-- Generated by graphviz version 2.43.0 (0)
 -->
<!-- Title: Ogre::DataStream Pages: 1 -->
<svg width="417pt" height="142pt"
 viewBox="0.00 0.00 417.00 142.00" xmlns="http://www.w3.org/2000/svg" xmlns:xlink="http://www.w3.org/1999/xlink">
<g id="graph0" class="graph" transform="scale(1 1) rotate(0) translate(4 138)">
<title>Ogre::DataStream</title>
<!-- Node1 -->
<g id="node1" class="node">
<title>Node1</title>
<g id="a_node1"><a xlink:title="General purpose class used for encapsulating the reading and writing of data.">
<polygon fill="#bfbfbf" stroke="black" points="112,-57.5 112,-76.5 216,-76.5 216,-57.5 112,-57.5"/>
<text text-anchor="middle" x="164" y="-64.5" font-family="Helvetica,sans-Serif" font-size="10.00">Ogre::DataStream</text>
</a>
</g>
</g>
<!-- Node3 -->
<g id="node3" class="node">
<title>Node3</title>
<g id="a_node3"><a xlink:href="class_ogre_1_1_deflate_stream.html" target="_top" xlink:title="Stream which compresses / uncompresses data using the &#39;deflate&#39; compression algorithm.">
<polygon fill="none" stroke="black" points="272.5,-114.5 272.5,-133.5 388.5,-133.5 388.5,-114.5 272.5,-114.5"/>
<text text-anchor="middle" x="330.5" y="-121.5" font-family="Helvetica,sans-Serif" font-size="10.00">Ogre::DeflateStream</text>
</a>
</g>
</g>
<!-- Node1&#45;&gt;Node3 -->
<g id="edge2" class="edge">
<title>Node1&#45;&gt;Node3</title>
<path fill="none" stroke="midnightblue" d="M193.55,-80.95C210.3,-88.76 232.03,-98.25 252,-105 262.5,-108.55 274,-111.74 284.86,-114.44"/>
<polygon fill="midnightblue" stroke="midnightblue" points="194.85,-77.69 184.32,-76.58 191.86,-84.02 194.85,-77.69"/>
</g>
<!-- Node4 -->
<g id="node4" class="node">
<title>Node4</title>
<g id="a_node4"><a xlink:href="class_ogre_1_1_file_handle_data_stream.html" target="_top" xlink:title="Common subclass of DataStream for handling data from C&#45;style file handles.">
<polygon fill="none" stroke="black" points="252.5,-76.5 252.5,-95.5 408.5,-95.5 408.5,-76.5 252.5,-76.5"/>
<text text-anchor="middle" x="330.5" y="-83.5" font-family="Helvetica,sans-Serif" font-size="10.00">Ogre::FileHandleDataStream</text>
</a>
</g>
</g>
<!-- Node1&#45;&gt;Node4 -->
<g id="edge3" class="edge">
<title>Node1&#45;&gt;Node4</title>
<path fill="none" stroke="midnightblue" d="M226.34,-74.08C234.84,-75.07 243.67,-76.09 252.42,-77.1"/>
<polygon fill="midnightblue" stroke="midnightblue" points="226.48,-70.58 216.15,-72.91 225.68,-77.53 226.48,-70.58"/>
</g>
<!-- Node5 -->
<g id="node5" class="node">
<title>Node5</title>
<g id="a_node5"><a xlink:href="class_ogre_1_1_file_stream_data_stream.html" target="_top" xlink:title="Common subclass of DataStream for handling data from std::basic_istream.">
<polygon fill="none" stroke="black" points="252,-38.5 252,-57.5 409,-57.5 409,-38.5 252,-38.5"/>
<text text-anchor="middle" x="330.5" y="-45.5" font-family="Helvetica,sans-Serif" font-size="10.00">Ogre::FileStreamDataStream</text>
</a>
</g>
</g>
<!-- Node1&#45;&gt;Node5 -->
<g id="edge4" class="edge">
<title>Node1&#45;&gt;Node5</title>
<path fill="none" stroke="midnightblue" d="M226.17,-59.94C234.53,-58.97 243.2,-57.97 251.81,-56.97"/>
<polygon fill="midnightblue" stroke="midnightblue" points="225.68,-56.47 216.15,-61.09 226.48,-63.42 225.68,-56.47"/>
</g>
<!-- Node6 -->
<g id="node6" class="node">
<title>Node6</title>
<g id="a_node6"><a xlink:href="class_ogre_1_1_memory_data_stream.html" target="_top" xlink:title="Common subclass of DataStream for handling data from chunks of memory.">
<polygon fill="none" stroke="black" points="258,-0.5 258,-19.5 403,-19.5 403,-0.5 258,-0.5"/>
<text text-anchor="middle" x="330.5" y="-7.5" font-family="Helvetica,sans-Serif" font-size="10.00">Ogre::MemoryDataStream</text>
</a>
</g>
</g>
<!-- Node1&#45;&gt;Node6 -->
<g id="edge5" class="edge">
<title>Node1&#45;&gt;Node6</title>
<path fill="none" stroke="midnightblue" d="M193.55,-53.05C210.3,-45.24 232.03,-35.75 252,-29 262.5,-25.45 274,-22.26 284.86,-19.56"/>
<polygon fill="midnightblue" stroke="midnightblue" points="191.86,-49.98 184.32,-57.42 194.85,-56.31 191.86,-49.98"/>
</g>
<!-- Node2 -->
<g id="node2" class="node">
<title>Node2</title>
<g id="a_node2"><a xlink:title=" ">
<polygon fill="none" stroke="#bfbfbf" points="0,-57.5 0,-76.5 76,-76.5 76,-57.5 0,-57.5"/>
<text text-anchor="middle" x="38" y="-64.5" font-family="Helvetica,sans-Serif" font-size="10.00">StreamAlloc</text>
</a>
</g>
</g>
<!-- Node2&#45;&gt;Node1 -->
<g id="edge1" class="edge">
<title>Node2&#45;&gt;Node1</title>
<path fill="none" stroke="midnightblue" d="M86.41,-67C94.65,-67 103.26,-67 111.61,-67"/>
<polygon fill="midnightblue" stroke="midnightblue" points="86.2,-63.5 76.2,-67 86.2,-70.5 86.2,-63.5"/>
</g>
</g>
</svg>
