<?xml version="1.0" encoding="UTF-8" standalone="no"?>
<!DOCTYPE svg PUBLIC "-//W3C//DTD SVG 1.1//EN"
 "http://www.w3.org/Graphics/SVG/1.1/DTD/svg11.dtd">
<!-- Generated by graphviz version 2.43.0 (0)
 -->
<!-- Title: Ogre::KeyFrame Pages: 1 -->
<svg width="423pt" height="142pt"
 viewBox="0.00 0.00 423.00 142.00" xmlns="http://www.w3.org/2000/svg" xmlns:xlink="http://www.w3.org/1999/xlink">
<g id="graph0" class="graph" transform="scale(1 1) rotate(0) translate(4 138)">
<title>Ogre::KeyFrame</title>
<!-- Node1 -->
<g id="node1" class="node">
<title>Node1</title>
<g id="a_node1"><a xlink:title="A key frame in an animation sequence defined by an AnimationTrack.">
<polygon fill="#bfbfbf" stroke="black" points="127,-57.5 127,-76.5 222,-76.5 222,-57.5 127,-57.5"/>
<text text-anchor="middle" x="174.5" y="-64.5" font-family="Helvetica,sans-Serif" font-size="10.00">Ogre::KeyFrame</text>
</a>
</g>
</g>
<!-- Node3 -->
<g id="node3" class="node">
<title>Node3</title>
<g id="a_node3"><a xlink:href="class_ogre_1_1_numeric_key_frame.html" target="_top" xlink:title="Specialised KeyFrame which stores any numeric value.">
<polygon fill="none" stroke="black" points="268.5,-114.5 268.5,-133.5 404.5,-133.5 404.5,-114.5 268.5,-114.5"/>
<text text-anchor="middle" x="336.5" y="-121.5" font-family="Helvetica,sans-Serif" font-size="10.00">Ogre::NumericKeyFrame</text>
</a>
</g>
</g>
<!-- Node1&#45;&gt;Node3 -->
<g id="edge2" class="edge">
<title>Node1&#45;&gt;Node3</title>
<path fill="none" stroke="midnightblue" d="M202.94,-81.25C218.74,-89.04 239.14,-98.41 258,-105 268.33,-108.61 279.67,-111.8 290.4,-114.49"/>
<polygon fill="midnightblue" stroke="midnightblue" points="204.26,-78 193.76,-76.64 201.13,-84.25 204.26,-78"/>
</g>
<!-- Node4 -->
<g id="node4" class="node">
<title>Node4</title>
<g id="a_node4"><a xlink:href="class_ogre_1_1_transform_key_frame.html" target="_top" xlink:title="Specialised KeyFrame which stores a full transform.">
<polygon fill="none" stroke="black" points="265,-76.5 265,-95.5 408,-95.5 408,-76.5 265,-76.5"/>
<text text-anchor="middle" x="336.5" y="-83.5" font-family="Helvetica,sans-Serif" font-size="10.00">Ogre::TransformKeyFrame</text>
</a>
</g>
</g>
<!-- Node1&#45;&gt;Node4 -->
<g id="edge3" class="edge">
<title>Node1&#45;&gt;Node4</title>
<path fill="none" stroke="midnightblue" d="M232.16,-73.73C242.77,-74.99 253.97,-76.32 264.94,-77.62"/>
<polygon fill="midnightblue" stroke="midnightblue" points="232.55,-70.25 222.21,-72.55 231.73,-77.2 232.55,-70.25"/>
</g>
<!-- Node5 -->
<g id="node5" class="node">
<title>Node5</title>
<g id="a_node5"><a xlink:href="class_ogre_1_1_vertex_morph_key_frame.html" target="_top" xlink:title="Specialised KeyFrame which stores absolute vertex positions for a complete buffer,...">
<polygon fill="none" stroke="black" points="258,-38.5 258,-57.5 415,-57.5 415,-38.5 258,-38.5"/>
<text text-anchor="middle" x="336.5" y="-45.5" font-family="Helvetica,sans-Serif" font-size="10.00">Ogre::VertexMorphKeyFrame</text>
</a>
</g>
</g>
<!-- Node1&#45;&gt;Node5 -->
<g id="edge4" class="edge">
<title>Node1&#45;&gt;Node5</title>
<path fill="none" stroke="midnightblue" d="M232.4,-60.24C240.62,-59.27 249.19,-58.25 257.73,-57.24"/>
<polygon fill="midnightblue" stroke="midnightblue" points="231.73,-56.8 222.21,-61.45 232.55,-63.75 231.73,-56.8"/>
</g>
<!-- Node6 -->
<g id="node6" class="node">
<title>Node6</title>
<g id="a_node6"><a xlink:href="class_ogre_1_1_vertex_pose_key_frame.html" target="_top" xlink:title="Specialised KeyFrame which references a Mesh::Pose at a certain influence level, which stores offsets...">
<polygon fill="none" stroke="black" points="262,-0.5 262,-19.5 411,-19.5 411,-0.5 262,-0.5"/>
<text text-anchor="middle" x="336.5" y="-7.5" font-family="Helvetica,sans-Serif" font-size="10.00">Ogre::VertexPoseKeyFrame</text>
</a>
</g>
</g>
<!-- Node1&#45;&gt;Node6 -->
<g id="edge5" class="edge">
<title>Node1&#45;&gt;Node6</title>
<path fill="none" stroke="midnightblue" d="M202.94,-52.75C218.74,-44.96 239.14,-35.59 258,-29 268.33,-25.39 279.67,-22.2 290.4,-19.51"/>
<polygon fill="midnightblue" stroke="midnightblue" points="201.13,-49.75 193.76,-57.36 204.26,-56 201.13,-49.75"/>
</g>
<!-- Node2 -->
<g id="node2" class="node">
<title>Node2</title>
<g id="a_node2"><a xlink:title=" ">
<polygon fill="none" stroke="#bfbfbf" points="0,-57.5 0,-76.5 91,-76.5 91,-57.5 0,-57.5"/>
<text text-anchor="middle" x="45.5" y="-64.5" font-family="Helvetica,sans-Serif" font-size="10.00">AnimationAlloc</text>
</a>
</g>
</g>
<!-- Node2&#45;&gt;Node1 -->
<g id="edge1" class="edge">
<title>Node2&#45;&gt;Node1</title>
<path fill="none" stroke="midnightblue" d="M101.49,-67C109.99,-67 118.69,-67 126.98,-67"/>
<polygon fill="midnightblue" stroke="midnightblue" points="101.28,-63.5 91.28,-67 101.28,-70.5 101.28,-63.5"/>
</g>
</g>
</svg>
