<?xml version="1.0" encoding="UTF-8" standalone="no"?>
<!DOCTYPE svg PUBLIC "-//W3C//DTD SVG 1.1//EN"
 "http://www.w3.org/Graphics/SVG/1.1/DTD/svg11.dtd">
<!-- Generated by graphviz version 2.43.0 (0)
 -->
<!-- Title: Ogre::TempBlendedBufferInfo Pages: 1 -->
<svg width="262pt" height="84pt"
 viewBox="0.00 0.00 261.50 84.00" xmlns="http://www.w3.org/2000/svg" xmlns:xlink="http://www.w3.org/1999/xlink">
<g id="graph0" class="graph" transform="scale(1 1) rotate(0) translate(4 80)">
<title>Ogre::TempBlendedBufferInfo</title>
<!-- Node1 -->
<g id="node1" class="node">
<title>Node1</title>
<g id="a_node1"><a xlink:title="Structure for recording the use of temporary blend buffers.">
<polygon fill="#bfbfbf" stroke="black" points="70.5,-0.5 70.5,-19.5 230.5,-19.5 230.5,-0.5 70.5,-0.5"/>
<text text-anchor="middle" x="150.5" y="-7.5" font-family="Helvetica,sans-Serif" font-size="10.00">Ogre::TempBlendedBufferInfo</text>
</a>
</g>
</g>
<!-- Node2 -->
<g id="node2" class="node">
<title>Node2</title>
<g id="a_node2"><a xlink:href="class_ogre_1_1_hardware_buffer_licensee.html" target="_top" xlink:title="Abstract interface representing a &#39;licensee&#39; of a hardware buffer copy.">
<polygon fill="none" stroke="black" points="0,-56.5 0,-75.5 165,-75.5 165,-56.5 0,-56.5"/>
<text text-anchor="middle" x="82.5" y="-63.5" font-family="Helvetica,sans-Serif" font-size="10.00">Ogre::HardwareBufferLicensee</text>
</a>
</g>
</g>
<!-- Node2&#45;&gt;Node1 -->
<g id="edge1" class="edge">
<title>Node2&#45;&gt;Node1</title>
<path fill="none" stroke="midnightblue" d="M101.26,-50.1C113.5,-40.38 129.06,-28.03 139.38,-19.83"/>
<polygon fill="midnightblue" stroke="midnightblue" points="99.08,-47.36 93.43,-56.32 103.43,-52.85 99.08,-47.36"/>
</g>
<!-- Node3 -->
<g id="node3" class="node">
<title>Node3</title>
<g id="a_node3"><a xlink:title=" ">
<polygon fill="none" stroke="#bfbfbf" points="183.5,-56.5 183.5,-75.5 253.5,-75.5 253.5,-56.5 183.5,-56.5"/>
<text text-anchor="middle" x="218.5" y="-63.5" font-family="Helvetica,sans-Serif" font-size="10.00">BufferAlloc</text>
</a>
</g>
</g>
<!-- Node3&#45;&gt;Node1 -->
<g id="edge2" class="edge">
<title>Node3&#45;&gt;Node1</title>
<path fill="none" stroke="midnightblue" d="M199.74,-50.1C187.5,-40.38 171.94,-28.03 161.62,-19.83"/>
<polygon fill="midnightblue" stroke="midnightblue" points="197.57,-52.85 207.57,-56.32 201.92,-47.36 197.57,-52.85"/>
</g>
</g>
</svg>
