<?xml version="1.0" encoding="UTF-8" standalone="no"?>
<!DOCTYPE svg PUBLIC "-//W3C//DTD SVG 1.1//EN"
 "http://www.w3.org/Graphics/SVG/1.1/DTD/svg11.dtd">
<!-- Generated by graphviz version 2.43.0 (0)
 -->
<!-- Title: Ogre::SceneQueryListener Pages: 1 -->
<svg width="952pt" height="263pt"
 viewBox="0.00 0.00 952.00 262.50" xmlns="http://www.w3.org/2000/svg" xmlns:xlink="http://www.w3.org/1999/xlink">
<g id="graph0" class="graph" transform="scale(1 1) rotate(0) translate(4 258.5)">
<title>Ogre::SceneQueryListener</title>
<!-- Node1 -->
<g id="node1" class="node">
<title>Node1</title>
<g id="a_node1"><a xlink:title="This optional class allows you to receive per&#45;result callbacks from SceneQuery executions instead of ...">
<polygon fill="#bfbfbf" stroke="black" points="0,-73.5 0,-92.5 143,-92.5 143,-73.5 0,-73.5"/>
<text text-anchor="middle" x="71.5" y="-80.5" font-family="Helvetica,sans-Serif" font-size="10.00">Ogre::SceneQueryListener</text>
</a>
</g>
</g>
<!-- Node2 -->
<g id="node2" class="node">
<title>Node2</title>
<g id="a_node2"><a xlink:href="class_ogre_1_1_region_scene_query.html" target="_top" xlink:title="Abstract class defining a query which returns single results from a region.">
<polygon fill="none" stroke="black" points="200.5,-98.5 200.5,-117.5 338.5,-117.5 338.5,-98.5 200.5,-98.5"/>
<text text-anchor="middle" x="269.5" y="-105.5" font-family="Helvetica,sans-Serif" font-size="10.00">Ogre::RegionSceneQuery</text>
</a>
</g>
</g>
<!-- Node1&#45;&gt;Node2 -->
<g id="edge1" class="edge">
<title>Node1&#45;&gt;Node2</title>
<path fill="none" stroke="midnightblue" d="M153.43,-93.32C169.06,-95.32 185.29,-97.39 200.46,-99.32"/>
<polygon fill="midnightblue" stroke="midnightblue" points="153.62,-89.82 143.26,-92.03 152.74,-96.76 153.62,-89.82"/>
</g>
<!-- Node15 -->
<g id="node15" class="node">
<title>Node15</title>
<g id="a_node15"><a xlink:href="class_ogre_1_1_scene_manager_1_1_shadow_renderer_1_1_shadow_caster_scene_query_listener.html" target="_top" xlink:title="Inner class to use as callback for shadow caster scene query.">
<polygon fill="none" stroke="black" points="179,-38.5 179,-79.5 360,-79.5 360,-38.5 179,-38.5"/>
<text text-anchor="start" x="187" y="-67.5" font-family="Helvetica,sans-Serif" font-size="10.00">Ogre::SceneManager</text>
<text text-anchor="start" x="187" y="-56.5" font-family="Helvetica,sans-Serif" font-size="10.00">::ShadowRenderer::ShadowCaster</text>
<text text-anchor="middle" x="269.5" y="-45.5" font-family="Helvetica,sans-Serif" font-size="10.00">SceneQueryListener</text>
</a>
</g>
</g>
<!-- Node1&#45;&gt;Node15 -->
<g id="edge14" class="edge">
<title>Node1&#45;&gt;Node15</title>
<path fill="none" stroke="midnightblue" d="M153.36,-73.1C161.73,-72.07 170.27,-71.03 178.73,-69.99"/>
<polygon fill="midnightblue" stroke="midnightblue" points="152.76,-69.65 143.26,-74.34 153.61,-76.59 152.76,-69.65"/>
</g>
<!-- Node3 -->
<g id="node3" class="node">
<title>Node3</title>
<g id="a_node3"><a xlink:href="class_ogre_1_1_axis_aligned_box_scene_query.html" target="_top" xlink:title="Specialises the SceneQuery class for querying within an axis aligned box.">
<polygon fill="none" stroke="black" points="396,-164 396,-194 548,-194 548,-164 396,-164"/>
<text text-anchor="start" x="404" y="-182" font-family="Helvetica,sans-Serif" font-size="10.00">Ogre::AxisAlignedBoxScene</text>
<text text-anchor="middle" x="472" y="-171" font-family="Helvetica,sans-Serif" font-size="10.00">Query</text>
</a>
</g>
</g>
<!-- Node2&#45;&gt;Node3 -->
<g id="edge2" class="edge">
<title>Node2&#45;&gt;Node3</title>
<path fill="none" stroke="midnightblue" d="M307.14,-120.97C341.31,-133.08 392.29,-151.13 428.3,-163.88"/>
<polygon fill="midnightblue" stroke="midnightblue" points="308.14,-117.61 297.54,-117.58 305.8,-124.21 308.14,-117.61"/>
</g>
<!-- Node7 -->
<g id="node7" class="node">
<title>Node7</title>
<g id="a_node7"><a xlink:href="class_ogre_1_1_plane_bounded_volume_list_scene_query.html" target="_top" xlink:title="Specialises the SceneQuery class for querying within a plane&#45;bounded volume.">
<polygon fill="none" stroke="black" points="396,-93 396,-123 548,-123 548,-93 396,-93"/>
<text text-anchor="start" x="404" y="-111" font-family="Helvetica,sans-Serif" font-size="10.00">Ogre::PlaneBoundedVolume</text>
<text text-anchor="middle" x="472" y="-100" font-family="Helvetica,sans-Serif" font-size="10.00">ListSceneQuery</text>
</a>
</g>
</g>
<!-- Node2&#45;&gt;Node7 -->
<g id="edge6" class="edge">
<title>Node2&#45;&gt;Node7</title>
<path fill="none" stroke="midnightblue" d="M348.71,-108C364.2,-108 380.42,-108 395.81,-108"/>
<polygon fill="midnightblue" stroke="midnightblue" points="348.66,-104.5 338.66,-108 348.66,-111.5 348.66,-104.5"/>
</g>
<!-- Node11 -->
<g id="node11" class="node">
<title>Node11</title>
<g id="a_node11"><a xlink:href="class_ogre_1_1_sphere_scene_query.html" target="_top" xlink:title="Specialises the SceneQuery class for querying within a sphere.">
<polygon fill="none" stroke="black" points="403,-52.5 403,-71.5 541,-71.5 541,-52.5 403,-52.5"/>
<text text-anchor="middle" x="472" y="-59.5" font-family="Helvetica,sans-Serif" font-size="10.00">Ogre::SphereSceneQuery</text>
</a>
</g>
</g>
<!-- Node2&#45;&gt;Node11 -->
<g id="edge10" class="edge">
<title>Node2&#45;&gt;Node11</title>
<path fill="none" stroke="midnightblue" d="M326.57,-96.36C337.66,-93.98 349.21,-91.46 360,-89 384.37,-83.45 411.64,-76.82 433.05,-71.52"/>
<polygon fill="midnightblue" stroke="midnightblue" points="325.6,-92.99 316.55,-98.5 327.06,-99.84 325.6,-92.99"/>
</g>
<!-- Node4 -->
<g id="node4" class="node">
<title>Node4</title>
<g id="a_node4"><a xlink:href="class_ogre_1_1_default_axis_aligned_box_scene_query.html" target="_top" xlink:title="Default implementation of AxisAlignedBoxSceneQuery.">
<polygon fill="none" stroke="black" points="590,-175 590,-205 730,-205 730,-175 590,-175"/>
<text text-anchor="start" x="598" y="-193" font-family="Helvetica,sans-Serif" font-size="10.00">Ogre::DefaultAxisAligned</text>
<text text-anchor="middle" x="660" y="-182" font-family="Helvetica,sans-Serif" font-size="10.00">BoxSceneQuery</text>
</a>
</g>
</g>
<!-- Node3&#45;&gt;Node4 -->
<g id="edge3" class="edge">
<title>Node3&#45;&gt;Node4</title>
<path fill="none" stroke="midnightblue" d="M558.23,-184.04C568.84,-184.67 579.59,-185.3 589.91,-185.91"/>
<polygon fill="midnightblue" stroke="midnightblue" points="558.31,-180.54 548.12,-183.44 557.89,-187.53 558.31,-180.54"/>
</g>
<!-- Node5 -->
<g id="node5" class="node">
<title>Node5</title>
<g id="a_node5"><a xlink:href="class_ogre_1_1_octree_axis_aligned_box_scene_query.html" target="_top" xlink:title="Octree implementation of AxisAlignedBoxSceneQuery.">
<polygon fill="none" stroke="black" points="780.5,-224 780.5,-254 935.5,-254 935.5,-224 780.5,-224"/>
<text text-anchor="start" x="788.5" y="-242" font-family="Helvetica,sans-Serif" font-size="10.00">Ogre::OctreeAxisAlignedBox</text>
<text text-anchor="middle" x="858" y="-231" font-family="Helvetica,sans-Serif" font-size="10.00">SceneQuery</text>
</a>
</g>
</g>
<!-- Node4&#45;&gt;Node5 -->
<g id="edge4" class="edge">
<title>Node4&#45;&gt;Node5</title>
<path fill="none" stroke="midnightblue" d="M730.91,-207.48C752.51,-212.88 776.1,-218.78 796.98,-223.99"/>
<polygon fill="midnightblue" stroke="midnightblue" points="731.69,-204.06 721.14,-205.03 729.99,-210.86 731.69,-204.06"/>
</g>
<!-- Node6 -->
<g id="node6" class="node">
<title>Node6</title>
<g id="a_node6"><a xlink:href="class_ogre_1_1_p_c_z_axis_aligned_box_scene_query.html" target="_top" xlink:title="PCZ implementation of AxisAlignedBoxSceneQuery.">
<polygon fill="none" stroke="black" points="772.5,-175 772.5,-205 943.5,-205 943.5,-175 772.5,-175"/>
<text text-anchor="start" x="780.5" y="-193" font-family="Helvetica,sans-Serif" font-size="10.00">Ogre::PCZAxisAlignedBoxScene</text>
<text text-anchor="middle" x="858" y="-182" font-family="Helvetica,sans-Serif" font-size="10.00">Query</text>
</a>
</g>
</g>
<!-- Node4&#45;&gt;Node6 -->
<g id="edge5" class="edge">
<title>Node4&#45;&gt;Node6</title>
<path fill="none" stroke="midnightblue" d="M740.16,-190C750.77,-190 761.68,-190 772.37,-190"/>
<polygon fill="midnightblue" stroke="midnightblue" points="740.1,-186.5 730.1,-190 740.1,-193.5 740.1,-186.5"/>
</g>
<!-- Node8 -->
<g id="node8" class="node">
<title>Node8</title>
<g id="a_node8"><a xlink:href="class_ogre_1_1_default_plane_bounded_volume_list_scene_query.html" target="_top" xlink:title="Default implementation of PlaneBoundedVolumeListSceneQuery.">
<polygon fill="none" stroke="black" points="584,-93 584,-123 736,-123 736,-93 584,-93"/>
<text text-anchor="start" x="592" y="-111" font-family="Helvetica,sans-Serif" font-size="10.00">Ogre::DefaultPlaneBounded</text>
<text text-anchor="middle" x="660" y="-100" font-family="Helvetica,sans-Serif" font-size="10.00">VolumeListSceneQuery</text>
</a>
</g>
</g>
<!-- Node7&#45;&gt;Node8 -->
<g id="edge7" class="edge">
<title>Node7&#45;&gt;Node8</title>
<path fill="none" stroke="midnightblue" d="M558.15,-108C566.74,-108 575.43,-108 583.9,-108"/>
<polygon fill="midnightblue" stroke="midnightblue" points="558.12,-104.5 548.12,-108 558.12,-111.5 558.12,-104.5"/>
</g>
<!-- Node9 -->
<g id="node9" class="node">
<title>Node9</title>
<g id="a_node9"><a xlink:href="class_ogre_1_1_octree_plane_bounded_volume_list_scene_query.html" target="_top" xlink:title="Octree implementation of PlaneBoundedVolumeListSceneQuery.">
<polygon fill="none" stroke="black" points="784,-126 784,-156 932,-156 932,-126 784,-126"/>
<text text-anchor="start" x="792" y="-144" font-family="Helvetica,sans-Serif" font-size="10.00">Ogre::OctreePlaneBounded</text>
<text text-anchor="middle" x="858" y="-133" font-family="Helvetica,sans-Serif" font-size="10.00">VolumeListSceneQuery</text>
</a>
</g>
</g>
<!-- Node8&#45;&gt;Node9 -->
<g id="edge8" class="edge">
<title>Node8&#45;&gt;Node9</title>
<path fill="none" stroke="midnightblue" d="M746.22,-122.35C758.78,-124.46 771.63,-126.63 783.92,-128.7"/>
<polygon fill="midnightblue" stroke="midnightblue" points="746.66,-118.87 736.22,-120.66 745.5,-125.78 746.66,-118.87"/>
</g>
<!-- Node10 -->
<g id="node10" class="node">
<title>Node10</title>
<g id="a_node10"><a xlink:href="class_ogre_1_1_p_c_z_plane_bounded_volume_list_scene_query.html" target="_top" xlink:title="PCZ implementation of PlaneBoundedVolumeListSceneQuery.">
<polygon fill="none" stroke="black" points="772,-77 772,-107 944,-107 944,-77 772,-77"/>
<text text-anchor="start" x="780" y="-95" font-family="Helvetica,sans-Serif" font-size="10.00">Ogre::PCZPlaneBoundedVolume</text>
<text text-anchor="middle" x="858" y="-84" font-family="Helvetica,sans-Serif" font-size="10.00">ListSceneQuery</text>
</a>
</g>
</g>
<!-- Node8&#45;&gt;Node10 -->
<g id="edge9" class="edge">
<title>Node8&#45;&gt;Node10</title>
<path fill="none" stroke="midnightblue" d="M746.43,-101.03C754.86,-100.34 763.42,-99.64 771.85,-98.95"/>
<polygon fill="midnightblue" stroke="midnightblue" points="745.9,-97.56 736.22,-101.86 746.47,-104.53 745.9,-97.56"/>
</g>
<!-- Node12 -->
<g id="node12" class="node">
<title>Node12</title>
<g id="a_node12"><a xlink:href="class_ogre_1_1_default_sphere_scene_query.html" target="_top" xlink:title="Default implementation of SphereSceneQuery.">
<polygon fill="none" stroke="black" points="587.5,-33 587.5,-63 732.5,-63 732.5,-33 587.5,-33"/>
<text text-anchor="start" x="595.5" y="-51" font-family="Helvetica,sans-Serif" font-size="10.00">Ogre::DefaultSphereScene</text>
<text text-anchor="middle" x="660" y="-40" font-family="Helvetica,sans-Serif" font-size="10.00">Query</text>
</a>
</g>
</g>
<!-- Node11&#45;&gt;Node12 -->
<g id="edge11" class="edge">
<title>Node11&#45;&gt;Node12</title>
<path fill="none" stroke="midnightblue" d="M551.18,-56.12C563.18,-55.21 575.52,-54.28 587.37,-53.39"/>
<polygon fill="midnightblue" stroke="midnightblue" points="550.91,-52.63 541.2,-56.87 551.44,-59.61 550.91,-52.63"/>
</g>
<!-- Node13 -->
<g id="node13" class="node">
<title>Node13</title>
<g id="a_node13"><a xlink:href="class_ogre_1_1_octree_sphere_scene_query.html" target="_top" xlink:title="Octree implementation of SphereSceneQuery.">
<polygon fill="none" stroke="black" points="773,-38.5 773,-57.5 943,-57.5 943,-38.5 773,-38.5"/>
<text text-anchor="middle" x="858" y="-45.5" font-family="Helvetica,sans-Serif" font-size="10.00">Ogre::OctreeSphereSceneQuery</text>
</a>
</g>
</g>
<!-- Node12&#45;&gt;Node13 -->
<g id="edge12" class="edge">
<title>Node12&#45;&gt;Node13</title>
<path fill="none" stroke="midnightblue" d="M742.86,-48C752.81,-48 762.99,-48 772.97,-48"/>
<polygon fill="midnightblue" stroke="midnightblue" points="742.59,-44.5 732.59,-48 742.59,-51.5 742.59,-44.5"/>
</g>
<!-- Node14 -->
<g id="node14" class="node">
<title>Node14</title>
<g id="a_node14"><a xlink:href="class_ogre_1_1_p_c_z_sphere_scene_query.html" target="_top" xlink:title="PCZ implementation of SphereSceneQuery.">
<polygon fill="none" stroke="black" points="779,-0.5 779,-19.5 937,-19.5 937,-0.5 779,-0.5"/>
<text text-anchor="middle" x="858" y="-7.5" font-family="Helvetica,sans-Serif" font-size="10.00">Ogre::PCZSphereSceneQuery</text>
</a>
</g>
</g>
<!-- Node12&#45;&gt;Node14 -->
<g id="edge13" class="edge">
<title>Node12&#45;&gt;Node14</title>
<path fill="none" stroke="midnightblue" d="M742.68,-32.16C764.86,-27.86 788.19,-23.34 807.94,-19.51"/>
<polygon fill="midnightblue" stroke="midnightblue" points="741.74,-28.78 732.59,-34.12 743.08,-35.65 741.74,-28.78"/>
</g>
</g>
</svg>
