<?xml version="1.0" encoding="UTF-8" standalone="no"?>
<!DOCTYPE svg PUBLIC "-//W3C//DTD SVG 1.1//EN"
 "http://www.w3.org/Graphics/SVG/1.1/DTD/svg11.dtd">
<!-- Generated by graphviz version 2.43.0 (0)
 -->
<!-- Title: Ogre::RTShader::SubRenderState Pages: 1 -->
<svg width="923pt" height="453pt"
 viewBox="0.00 0.00 923.00 452.50" xmlns="http://www.w3.org/2000/svg" xmlns:xlink="http://www.w3.org/1999/xlink">
<g id="graph0" class="graph" transform="scale(1 1) rotate(0) translate(4 448.5)">
<title>Ogre::RTShader::SubRenderState</title>
<!-- Node1 -->
<g id="node1" class="node">
<title>Node1</title>
<g id="a_node1"><a xlink:title="This class is the base interface of sub part from a shader based rendering pipeline.">
<polygon fill="#bfbfbf" stroke="black" points="159,-229.5 159,-259.5 309,-259.5 309,-229.5 159,-229.5"/>
<text text-anchor="start" x="167" y="-247.5" font-family="Helvetica,sans-Serif" font-size="10.00">Ogre::RTShader::SubRender</text>
<text text-anchor="middle" x="234" y="-236.5" font-family="Helvetica,sans-Serif" font-size="10.00">State</text>
</a>
</g>
</g>
<!-- Node3 -->
<g id="node3" class="node">
<title>Node3</title>
<g id="a_node3"><a xlink:href="class_ogre_1_1_r_t_shader_1_1_f_f_p_alpha_test.html" target="_top" xlink:title="A factory that enables creation of LayeredBlending instances.">
<polygon fill="none" stroke="black" points="346,-425 346,-444 508,-444 508,-425 346,-425"/>
<text text-anchor="middle" x="427" y="-432" font-family="Helvetica,sans-Serif" font-size="10.00">Ogre::RTShader::FFPAlphaTest</text>
</a>
</g>
</g>
<!-- Node1&#45;&gt;Node3 -->
<g id="edge2" class="edge">
<title>Node1&#45;&gt;Node3</title>
<path fill="none" stroke="midnightblue" d="M243.91,-269.31C258.76,-307.02 292.28,-378.28 345,-415.5 350.43,-419.33 356.52,-422.4 362.86,-424.86"/>
<polygon fill="midnightblue" stroke="midnightblue" points="247.04,-267.72 240.21,-259.62 240.5,-270.21 247.04,-267.72"/>
</g>
<!-- Node4 -->
<g id="node4" class="node">
<title>Node4</title>
<g id="a_node4"><a xlink:href="class_ogre_1_1_r_t_shader_1_1_f_f_p_colour.html" target="_top" xlink:title="Colour sub render state implementation of the Fixed Function Pipeline.">
<polygon fill="none" stroke="black" points="353.5,-387 353.5,-406 500.5,-406 500.5,-387 353.5,-387"/>
<text text-anchor="middle" x="427" y="-394" font-family="Helvetica,sans-Serif" font-size="10.00">Ogre::RTShader::FFPColour</text>
</a>
</g>
</g>
<!-- Node1&#45;&gt;Node4 -->
<g id="edge3" class="edge">
<title>Node1&#45;&gt;Node4</title>
<path fill="none" stroke="midnightblue" d="M248.22,-268.63C266.1,-298.9 300.88,-350.14 345,-377.5 351.26,-381.38 358.24,-384.47 365.41,-386.93"/>
<polygon fill="midnightblue" stroke="midnightblue" points="251.04,-266.52 243.02,-259.6 244.98,-270.01 251.04,-266.52"/>
</g>
<!-- Node5 -->
<g id="node5" class="node">
<title>Node5</title>
<g id="a_node5"><a xlink:href="class_ogre_1_1_r_t_shader_1_1_f_f_p_fog.html" target="_top" xlink:title="Fog sub render state implementation of the Fixed Function Pipeline.">
<polygon fill="none" stroke="black" points="360.5,-349 360.5,-368 493.5,-368 493.5,-349 360.5,-349"/>
<text text-anchor="middle" x="427" y="-356" font-family="Helvetica,sans-Serif" font-size="10.00">Ogre::RTShader::FFPFog</text>
</a>
</g>
</g>
<!-- Node1&#45;&gt;Node5 -->
<g id="edge4" class="edge">
<title>Node1&#45;&gt;Node5</title>
<path fill="none" stroke="midnightblue" d="M254.85,-267.06C275.3,-288.87 309.16,-321.23 345,-339.5 352.59,-343.37 360.99,-346.47 369.41,-348.94"/>
<polygon fill="midnightblue" stroke="midnightblue" points="257.29,-264.54 247.95,-259.55 252.14,-269.28 257.29,-264.54"/>
</g>
<!-- Node6 -->
<g id="node6" class="node">
<title>Node6</title>
<g id="a_node6"><a xlink:href="class_ogre_1_1_r_t_shader_1_1_f_f_p_lighting.html" target="_top" xlink:title="Lighting sub render state implementation of the Fixed Function Pipeline.">
<polygon fill="none" stroke="black" points="349.5,-311 349.5,-330 504.5,-330 504.5,-311 349.5,-311"/>
<text text-anchor="middle" x="427" y="-318" font-family="Helvetica,sans-Serif" font-size="10.00">Ogre::RTShader::FFPLighting</text>
</a>
</g>
</g>
<!-- Node1&#45;&gt;Node6 -->
<g id="edge5" class="edge">
<title>Node1&#45;&gt;Node6</title>
<path fill="none" stroke="midnightblue" d="M268.9,-264.86C290.16,-276.91 318.46,-291.69 345,-301.5 355.03,-305.21 366.02,-308.36 376.59,-310.97"/>
<polygon fill="midnightblue" stroke="midnightblue" points="270.38,-261.67 259.96,-259.72 266.88,-267.74 270.38,-261.67"/>
</g>
<!-- Node9 -->
<g id="node9" class="node">
<title>Node9</title>
<g id="a_node9"><a xlink:href="class_ogre_1_1_r_t_shader_1_1_f_f_p_texturing.html" target="_top" xlink:title="Texturing sub render state implementation of the Fixed Function Pipeline.">
<polygon fill="none" stroke="black" points="346.5,-273 346.5,-292 507.5,-292 507.5,-273 346.5,-273"/>
<text text-anchor="middle" x="427" y="-280" font-family="Helvetica,sans-Serif" font-size="10.00">Ogre::RTShader::FFPTexturing</text>
</a>
</g>
</g>
<!-- Node1&#45;&gt;Node9 -->
<g id="edge8" class="edge">
<title>Node1&#45;&gt;Node9</title>
<path fill="none" stroke="midnightblue" d="M318.98,-261.21C339.23,-265.24 360.17,-269.4 378.11,-272.97"/>
<polygon fill="midnightblue" stroke="midnightblue" points="319.61,-257.76 309.12,-259.25 318.24,-264.63 319.61,-257.76"/>
</g>
<!-- Node11 -->
<g id="node11" class="node">
<title>Node11</title>
<g id="a_node11"><a xlink:href="class_ogre_1_1_r_t_shader_1_1_f_f_p_transform.html" target="_top" xlink:title="Transform sub render state implementation of the Fixed Function Pipeline.">
<polygon fill="none" stroke="black" points="345,-235 345,-254 509,-254 509,-235 345,-235"/>
<text text-anchor="middle" x="427" y="-242" font-family="Helvetica,sans-Serif" font-size="10.00">Ogre::RTShader::FFPTransform</text>
</a>
</g>
</g>
<!-- Node1&#45;&gt;Node11 -->
<g id="edge10" class="edge">
<title>Node1&#45;&gt;Node11</title>
<path fill="none" stroke="midnightblue" d="M319.12,-244.5C327.7,-244.5 336.41,-244.5 344.96,-244.5"/>
<polygon fill="midnightblue" stroke="midnightblue" points="319.12,-241 309.12,-244.5 319.12,-248 319.12,-241"/>
</g>
<!-- Node12 -->
<g id="node12" class="node">
<title>Node12</title>
<g id="a_node12"><a xlink:href="class_ogre_1_1_r_t_shader_1_1_g_buffer.html" target="_top" xlink:title="Transform sub render state implementation of writing to GBuffers.">
<polygon fill="none" stroke="black" points="360,-197 360,-216 494,-216 494,-197 360,-197"/>
<text text-anchor="middle" x="427" y="-204" font-family="Helvetica,sans-Serif" font-size="10.00">Ogre::RTShader::GBuffer</text>
</a>
</g>
</g>
<!-- Node1&#45;&gt;Node12 -->
<g id="edge11" class="edge">
<title>Node1&#45;&gt;Node12</title>
<path fill="none" stroke="midnightblue" d="M318.98,-227.79C339.23,-223.76 360.17,-219.6 378.11,-216.03"/>
<polygon fill="midnightblue" stroke="midnightblue" points="318.24,-224.37 309.12,-229.75 319.61,-231.24 318.24,-224.37"/>
</g>
<!-- Node13 -->
<g id="node13" class="node">
<title>Node13</title>
<g id="a_node13"><a xlink:href="class_ogre_1_1_r_t_shader_1_1_hardware_skinning.html" target="_top" xlink:title="Implement a sub render state which performs hardware skinning.">
<polygon fill="none" stroke="black" points="354.5,-147.5 354.5,-177.5 499.5,-177.5 499.5,-147.5 354.5,-147.5"/>
<text text-anchor="start" x="362.5" y="-165.5" font-family="Helvetica,sans-Serif" font-size="10.00">Ogre::RTShader::Hardware</text>
<text text-anchor="middle" x="427" y="-154.5" font-family="Helvetica,sans-Serif" font-size="10.00">Skinning</text>
</a>
</g>
</g>
<!-- Node1&#45;&gt;Node13 -->
<g id="edge12" class="edge">
<title>Node1&#45;&gt;Node13</title>
<path fill="none" stroke="midnightblue" d="M270.01,-224.31C291.25,-212.58 319.17,-198.08 345,-187.5 353.72,-183.93 363.14,-180.58 372.36,-177.57"/>
<polygon fill="midnightblue" stroke="midnightblue" points="268.07,-221.39 261.04,-229.32 271.48,-227.5 268.07,-221.39"/>
</g>
<!-- Node14 -->
<g id="node14" class="node">
<title>Node14</title>
<g id="a_node14"><a xlink:href="class_ogre_1_1_r_t_shader_1_1_integrated_p_s_s_m3.html" target="_top" xlink:title="Integrated PSSM shadow receiver with 3 splits sub render state implementation.">
<polygon fill="none" stroke="black" points="353,-98.5 353,-128.5 501,-128.5 501,-98.5 353,-98.5"/>
<text text-anchor="start" x="361" y="-116.5" font-family="Helvetica,sans-Serif" font-size="10.00">Ogre::RTShader::Integrated</text>
<text text-anchor="middle" x="427" y="-105.5" font-family="Helvetica,sans-Serif" font-size="10.00">PSSM3</text>
</a>
</g>
</g>
<!-- Node1&#45;&gt;Node14 -->
<g id="edge13" class="edge">
<title>Node1&#45;&gt;Node14</title>
<path fill="none" stroke="midnightblue" d="M252.91,-221.4C272.88,-197.15 307.37,-159.54 345,-137.5 350.82,-134.09 357.17,-131.13 363.66,-128.57"/>
<polygon fill="midnightblue" stroke="midnightblue" points="250.03,-219.39 246.47,-229.37 255.48,-223.79 250.03,-219.39"/>
</g>
<!-- Node15 -->
<g id="node15" class="node">
<title>Node15</title>
<g id="a_node15"><a xlink:href="class_ogre_1_1_r_t_shader_1_1_texture_atlas_sampler.html" target="_top" xlink:title="Implements texture atlas sampling.">
<polygon fill="none" stroke="black" points="348,-49.5 348,-79.5 506,-79.5 506,-49.5 348,-49.5"/>
<text text-anchor="start" x="356" y="-67.5" font-family="Helvetica,sans-Serif" font-size="10.00">Ogre::RTShader::TextureAtlas</text>
<text text-anchor="middle" x="427" y="-56.5" font-family="Helvetica,sans-Serif" font-size="10.00">Sampler</text>
</a>
</g>
</g>
<!-- Node1&#45;&gt;Node15 -->
<g id="edge14" class="edge">
<title>Node1&#45;&gt;Node15</title>
<path fill="none" stroke="midnightblue" d="M245.96,-219.68C262.46,-185.15 296.97,-122.96 345,-88.5 349.77,-85.08 355.02,-82.14 360.5,-79.62"/>
<polygon fill="midnightblue" stroke="midnightblue" points="242.64,-218.51 241.6,-229.05 248.99,-221.46 242.64,-218.51"/>
</g>
<!-- Node16 -->
<g id="node16" class="node">
<title>Node16</title>
<g id="a_node16"><a xlink:href="class_ogre_1_1_r_t_shader_1_1_triplanar_texturing.html" target="_top" xlink:title="Triplanar Texturing.">
<polygon fill="none" stroke="black" points="357,-0.5 357,-30.5 497,-30.5 497,-0.5 357,-0.5"/>
<text text-anchor="start" x="365" y="-18.5" font-family="Helvetica,sans-Serif" font-size="10.00">Ogre::RTShader::Triplanar</text>
<text text-anchor="middle" x="427" y="-7.5" font-family="Helvetica,sans-Serif" font-size="10.00">Texturing</text>
</a>
</g>
</g>
<!-- Node1&#45;&gt;Node16 -->
<g id="edge15" class="edge">
<title>Node1&#45;&gt;Node16</title>
<path fill="none" stroke="midnightblue" d="M241.51,-219.57C254.08,-176.39 285.82,-87.67 345,-39.5 349.21,-36.07 353.89,-33.14 358.83,-30.62"/>
<polygon fill="midnightblue" stroke="midnightblue" points="238.12,-218.71 238.79,-229.28 244.86,-220.6 238.12,-218.71"/>
</g>
<!-- Node2 -->
<g id="node2" class="node">
<title>Node2</title>
<g id="a_node2"><a xlink:title=" ">
<polygon fill="none" stroke="#bfbfbf" points="0,-235 0,-254 123,-254 123,-235 0,-235"/>
<text text-anchor="middle" x="61.5" y="-242" font-family="Helvetica,sans-Serif" font-size="10.00">RTShaderSystemAlloc</text>
</a>
</g>
</g>
<!-- Node2&#45;&gt;Node1 -->
<g id="edge1" class="edge">
<title>Node2&#45;&gt;Node1</title>
<path fill="none" stroke="midnightblue" d="M133.28,-244.5C141.73,-244.5 150.37,-244.5 158.87,-244.5"/>
<polygon fill="midnightblue" stroke="midnightblue" points="133.09,-241 123.09,-244.5 133.09,-248 133.09,-241"/>
</g>
<!-- Node7 -->
<g id="node7" class="node">
<title>Node7</title>
<g id="a_node7"><a xlink:href="class_ogre_1_1_r_t_shader_1_1_per_pixel_lighting.html" target="_top" xlink:title="Per pixel Lighting extension sub render state implementation.">
<polygon fill="none" stroke="black" points="566,-308.5 566,-338.5 703,-338.5 703,-308.5 566,-308.5"/>
<text text-anchor="start" x="574" y="-326.5" font-family="Helvetica,sans-Serif" font-size="10.00">Ogre::RTShader::PerPixel</text>
<text text-anchor="middle" x="634.5" y="-315.5" font-family="Helvetica,sans-Serif" font-size="10.00">Lighting</text>
</a>
</g>
</g>
<!-- Node6&#45;&gt;Node7 -->
<g id="edge6" class="edge">
<title>Node6&#45;&gt;Node7</title>
<path fill="none" stroke="midnightblue" d="M514.99,-321.77C531.94,-322.02 549.49,-322.27 565.71,-322.51"/>
<polygon fill="midnightblue" stroke="midnightblue" points="514.57,-318.26 504.52,-321.62 514.47,-325.26 514.57,-318.26"/>
</g>
<!-- Node8 -->
<g id="node8" class="node">
<title>Node8</title>
<g id="a_node8"><a xlink:href="class_ogre_1_1_r_t_shader_1_1_normal_map_lighting.html" target="_top" xlink:title="Normal Map Lighting extension sub render state implementation.">
<polygon fill="none" stroke="black" points="760,-308.5 760,-338.5 915,-338.5 915,-308.5 760,-308.5"/>
<text text-anchor="start" x="768" y="-326.5" font-family="Helvetica,sans-Serif" font-size="10.00">Ogre::RTShader::NormalMap</text>
<text text-anchor="middle" x="837.5" y="-315.5" font-family="Helvetica,sans-Serif" font-size="10.00">Lighting</text>
</a>
</g>
</g>
<!-- Node7&#45;&gt;Node8 -->
<g id="edge7" class="edge">
<title>Node7&#45;&gt;Node8</title>
<path fill="none" stroke="midnightblue" d="M713.61,-323.5C728.74,-323.5 744.59,-323.5 759.68,-323.5"/>
<polygon fill="midnightblue" stroke="midnightblue" points="713.27,-320 703.27,-323.5 713.27,-327 713.27,-320"/>
</g>
<!-- Node10 -->
<g id="node10" class="node">
<title>Node10</title>
<g id="a_node10"><a xlink:href="class_ogre_1_1_r_t_shader_1_1_layered_blending.html" target="_top" xlink:title="Texturing sub render state implementation of layered blending.">
<polygon fill="none" stroke="black" points="545,-270 545,-289 724,-289 724,-270 545,-270"/>
<text text-anchor="middle" x="634.5" y="-277" font-family="Helvetica,sans-Serif" font-size="10.00">Ogre::RTShader::LayeredBlending</text>
</a>
</g>
</g>
<!-- Node9&#45;&gt;Node10 -->
<g id="edge9" class="edge">
<title>Node9&#45;&gt;Node10</title>
<path fill="none" stroke="midnightblue" d="M517.83,-281.19C526.82,-281.06 535.95,-280.92 544.93,-280.79"/>
<polygon fill="midnightblue" stroke="midnightblue" points="517.69,-277.69 507.75,-281.34 517.8,-284.69 517.69,-277.69"/>
</g>
</g>
</svg>
