<?xml version="1.0" encoding="UTF-8" standalone="no"?>
<!DOCTYPE svg PUBLIC "-//W3C//DTD SVG 1.1//EN"
 "http://www.w3.org/Graphics/SVG/1.1/DTD/svg11.dtd">
<!-- Generated by graphviz version 2.43.0 (0)
 -->
<!-- Title: Ogre::ShaderHelper Pages: 1 -->
<svg width="288pt" height="140pt"
 viewBox="0.00 0.00 287.50 140.00" xmlns="http://www.w3.org/2000/svg" xmlns:xlink="http://www.w3.org/1999/xlink">
<g id="graph0" class="graph" transform="scale(1 1) rotate(0) translate(4 136)">
<title>Ogre::ShaderHelper</title>
<!-- Node1 -->
<g id="node1" class="node">
<title>Node1</title>
<g id="a_node1"><a xlink:title="Interface definition for helper class to generate shaders.">
<polygon fill="#bfbfbf" stroke="black" points="80.5,-56.5 80.5,-75.5 192.5,-75.5 192.5,-56.5 80.5,-56.5"/>
<text text-anchor="middle" x="136.5" y="-63.5" font-family="Helvetica,sans-Serif" font-size="10.00">Ogre::ShaderHelper</text>
</a>
</g>
</g>
<!-- Node3 -->
<g id="node3" class="node">
<title>Node3</title>
<g id="a_node3"><a xlink:href="struct_ogre_1_1_shader_helper_cg.html" target="_top" xlink:title="Utility class to help with generating shaders for Cg / HLSL.">
<polygon fill="none" stroke="black" points="0,-0.5 0,-19.5 125,-19.5 125,-0.5 0,-0.5"/>
<text text-anchor="middle" x="62.5" y="-7.5" font-family="Helvetica,sans-Serif" font-size="10.00">Ogre::ShaderHelperCg</text>
</a>
</g>
</g>
<!-- Node1&#45;&gt;Node3 -->
<g id="edge2" class="edge">
<title>Node1&#45;&gt;Node3</title>
<path fill="none" stroke="midnightblue" d="M116.47,-50.38C103.09,-40.62 85.94,-28.11 74.61,-19.83"/>
<polygon fill="midnightblue" stroke="midnightblue" points="114.47,-53.26 124.61,-56.32 118.6,-47.6 114.47,-53.26"/>
</g>
<!-- Node4 -->
<g id="node4" class="node">
<title>Node4</title>
<g id="a_node4"><a xlink:href="struct_ogre_1_1_shader_helper_g_l_s_l.html" target="_top" xlink:title="Utility class to help with generating shaders for GLSL.">
<polygon fill="none" stroke="black" points="143.5,-0.5 143.5,-19.5 279.5,-19.5 279.5,-0.5 143.5,-0.5"/>
<text text-anchor="middle" x="211.5" y="-7.5" font-family="Helvetica,sans-Serif" font-size="10.00">Ogre::ShaderHelperGLSL</text>
</a>
</g>
</g>
<!-- Node1&#45;&gt;Node4 -->
<g id="edge3" class="edge">
<title>Node1&#45;&gt;Node4</title>
<path fill="none" stroke="midnightblue" d="M156.81,-50.38C170.36,-40.62 187.74,-28.11 199.23,-19.83"/>
<polygon fill="midnightblue" stroke="midnightblue" points="154.62,-47.64 148.55,-56.32 158.71,-53.32 154.62,-47.64"/>
</g>
<!-- Node2 -->
<g id="node2" class="node">
<title>Node2</title>
<g id="a_node2"><a xlink:title=" ">
<polygon fill="none" stroke="#bfbfbf" points="99.5,-112.5 99.5,-131.5 173.5,-131.5 173.5,-112.5 99.5,-112.5"/>
<text text-anchor="middle" x="136.5" y="-119.5" font-family="Helvetica,sans-Serif" font-size="10.00">TerrainAlloc</text>
</a>
</g>
</g>
<!-- Node2&#45;&gt;Node1 -->
<g id="edge1" class="edge">
<title>Node2&#45;&gt;Node1</title>
<path fill="none" stroke="midnightblue" d="M136.5,-101.8C136.5,-92.91 136.5,-82.78 136.5,-75.75"/>
<polygon fill="midnightblue" stroke="midnightblue" points="133,-102.08 136.5,-112.08 140,-102.08 133,-102.08"/>
</g>
</g>
</svg>
