<?xml version="1.0" encoding="UTF-8" standalone="no"?>
<!DOCTYPE svg PUBLIC "-//W3C//DTD SVG 1.1//EN"
 "http://www.w3.org/Graphics/SVG/1.1/DTD/svg11.dtd">
<!-- Generated by graphviz version 2.43.0 (0)
 -->
<!-- Title: Ogre::Plugin Pages: 1 -->
<svg width="393pt" height="560pt"
 viewBox="0.00 0.00 393.00 560.00" xmlns="http://www.w3.org/2000/svg" xmlns:xlink="http://www.w3.org/1999/xlink">
<g id="graph0" class="graph" transform="scale(1 1) rotate(0) translate(4 556)">
<title>Ogre::Plugin</title>
<!-- Node1 -->
<g id="node1" class="node">
<title>Node1</title>
<g id="a_node1"><a xlink:title="Class defining a generic OGRE plugin.">
<polygon fill="#bfbfbf" stroke="black" points="107,-266.5 107,-285.5 183,-285.5 183,-266.5 107,-266.5"/>
<text text-anchor="middle" x="145" y="-273.5" font-family="Helvetica,sans-Serif" font-size="10.00">Ogre::Plugin</text>
</a>
</g>
</g>
<!-- Node3 -->
<g id="node3" class="node">
<title>Node3</title>
<g id="a_node3"><a xlink:href="class_ogre_1_1_bsp_scene_manager_plugin.html" target="_top" xlink:title="Plugin instance for BSPSceneManager.">
<polygon fill="none" stroke="black" points="219,-532.5 219,-551.5 385,-551.5 385,-532.5 219,-532.5"/>
<text text-anchor="middle" x="302" y="-539.5" font-family="Helvetica,sans-Serif" font-size="10.00">Ogre::BspSceneManagerPlugin</text>
</a>
</g>
</g>
<!-- Node1&#45;&gt;Node3 -->
<g id="edge2" class="edge">
<title>Node1&#45;&gt;Node3</title>
<path fill="none" stroke="midnightblue" d="M145.6,-295.82C145.79,-342.67 153.14,-460.96 219,-523 223.04,-526.81 227.69,-529.9 232.68,-532.42"/>
<polygon fill="midnightblue" stroke="midnightblue" points="149.1,-295.55 145.67,-285.53 142.1,-295.5 149.1,-295.55"/>
</g>
<!-- Node4 -->
<g id="node4" class="node">
<title>Node4</title>
<g id="a_node4"><a xlink:href="class_ogre_1_1_cg_plugin.html" target="_top" xlink:title="Plugin instance for Cg Program Manager.">
<polygon fill="none" stroke="black" points="257.5,-494.5 257.5,-513.5 346.5,-513.5 346.5,-494.5 257.5,-494.5"/>
<text text-anchor="middle" x="302" y="-501.5" font-family="Helvetica,sans-Serif" font-size="10.00">Ogre::CgPlugin</text>
</a>
</g>
</g>
<!-- Node1&#45;&gt;Node4 -->
<g id="edge3" class="edge">
<title>Node1&#45;&gt;Node4</title>
<path fill="none" stroke="midnightblue" d="M146.84,-295.85C149.74,-337.5 162.52,-434.33 219,-485 229.44,-494.37 243.58,-499.38 257.18,-501.99"/>
<polygon fill="midnightblue" stroke="midnightblue" points="150.33,-295.44 146.26,-285.65 143.34,-295.84 150.33,-295.44"/>
</g>
<!-- Node5 -->
<g id="node5" class="node">
<title>Node5</title>
<g id="a_node5"><a xlink:href="class_ogre_1_1_d3_d11_plugin.html" target="_top" xlink:title="Plugin instance for D3D11 Manager.">
<polygon fill="none" stroke="black" points="247.5,-456.5 247.5,-475.5 356.5,-475.5 356.5,-456.5 247.5,-456.5"/>
<text text-anchor="middle" x="302" y="-463.5" font-family="Helvetica,sans-Serif" font-size="10.00">Ogre::D3D11Plugin</text>
</a>
</g>
</g>
<!-- Node1&#45;&gt;Node5 -->
<g id="edge4" class="edge">
<title>Node1&#45;&gt;Node5</title>
<path fill="none" stroke="midnightblue" d="M148.56,-295.65C154.31,-331.47 171.67,-407.34 219,-447 227.06,-453.76 237.08,-458.22 247.31,-461.14"/>
<polygon fill="midnightblue" stroke="midnightblue" points="151.99,-294.91 147.08,-285.52 145.07,-295.92 151.99,-294.91"/>
</g>
<!-- Node6 -->
<g id="node6" class="node">
<title>Node6</title>
<g id="a_node6"><a xlink:href="class_ogre_1_1_d3_d9_plugin.html" target="_top" xlink:title="Plugin instance for D3D9 Manager.">
<polygon fill="none" stroke="black" points="250.5,-418.5 250.5,-437.5 353.5,-437.5 353.5,-418.5 250.5,-418.5"/>
<text text-anchor="middle" x="302" y="-425.5" font-family="Helvetica,sans-Serif" font-size="10.00">Ogre::D3D9Plugin</text>
</a>
</g>
</g>
<!-- Node1&#45;&gt;Node6 -->
<g id="edge5" class="edge">
<title>Node1&#45;&gt;Node6</title>
<path fill="none" stroke="midnightblue" d="M151.23,-295.77C160.06,-325.18 180.83,-380.09 219,-409 228.09,-415.88 239.25,-420.33 250.38,-423.2"/>
<polygon fill="midnightblue" stroke="midnightblue" points="154.51,-294.52 148.41,-285.85 147.78,-296.43 154.51,-294.52"/>
</g>
<!-- Node7 -->
<g id="node7" class="node">
<title>Node7</title>
<g id="a_node7"><a xlink:href="class_ogre_1_1_dot_scene_plugin.html" target="_top" xlink:title=" ">
<polygon fill="none" stroke="black" points="241,-380.5 241,-399.5 363,-399.5 363,-380.5 241,-380.5"/>
<text text-anchor="middle" x="302" y="-387.5" font-family="Helvetica,sans-Serif" font-size="10.00">Ogre::DotScenePlugin</text>
</a>
</g>
</g>
<!-- Node1&#45;&gt;Node7 -->
<g id="edge6" class="edge">
<title>Node1&#45;&gt;Node7</title>
<path fill="none" stroke="midnightblue" d="M155.12,-294.5C166.84,-316.27 189.27,-351.87 219,-371 225.64,-375.27 233.12,-378.58 240.8,-381.15"/>
<polygon fill="midnightblue" stroke="midnightblue" points="158.21,-292.85 150.5,-285.57 151.99,-296.06 158.21,-292.85"/>
</g>
<!-- Node8 -->
<g id="node8" class="node">
<title>Node8</title>
<g id="a_node8"><a xlink:href="class_ogre_1_1_free_image_plugin.html" target="_top" xlink:title=" ">
<polygon fill="none" stroke="black" points="238,-342.5 238,-361.5 366,-361.5 366,-342.5 238,-342.5"/>
<text text-anchor="middle" x="302" y="-349.5" font-family="Helvetica,sans-Serif" font-size="10.00">Ogre::FreeImagePlugin</text>
</a>
</g>
</g>
<!-- Node1&#45;&gt;Node8 -->
<g id="edge7" class="edge">
<title>Node1&#45;&gt;Node8</title>
<path fill="none" stroke="midnightblue" d="M162.8,-292.63C176.73,-305.51 197.65,-322.81 219,-333 227.04,-336.84 235.91,-339.93 244.75,-342.41"/>
<polygon fill="midnightblue" stroke="midnightblue" points="165.11,-290 155.45,-285.65 160.29,-295.07 165.11,-290"/>
</g>
<!-- Node9 -->
<g id="node9" class="node">
<title>Node9</title>
<g id="a_node9"><a xlink:href="class_ogre_1_1_g_l3_plus_plugin.html" target="_top" xlink:title="Plugin instance for GL3Plus Manager.">
<polygon fill="none" stroke="black" points="244.5,-304.5 244.5,-323.5 359.5,-323.5 359.5,-304.5 244.5,-304.5"/>
<text text-anchor="middle" x="302" y="-311.5" font-family="Helvetica,sans-Serif" font-size="10.00">Ogre::GL3PlusPlugin</text>
</a>
</g>
</g>
<!-- Node1&#45;&gt;Node9 -->
<g id="edge8" class="edge">
<title>Node1&#45;&gt;Node9</title>
<path fill="none" stroke="midnightblue" d="M191.89,-288.15C200.87,-290.47 210.22,-292.84 219,-295 231.91,-298.18 246.01,-301.49 258.81,-304.45"/>
<polygon fill="midnightblue" stroke="midnightblue" points="192.53,-284.69 181.97,-285.57 190.77,-291.47 192.53,-284.69"/>
</g>
<!-- Node10 -->
<g id="node10" class="node">
<title>Node10</title>
<g id="a_node10"><a xlink:href="class_ogre_1_1_g_l_e_s2_plugin.html" target="_top" xlink:title="Plugin instance for GL ES 2 Manager.">
<polygon fill="none" stroke="black" points="248.5,-266.5 248.5,-285.5 355.5,-285.5 355.5,-266.5 248.5,-266.5"/>
<text text-anchor="middle" x="302" y="-273.5" font-family="Helvetica,sans-Serif" font-size="10.00">Ogre::GLES2Plugin</text>
</a>
</g>
</g>
<!-- Node1&#45;&gt;Node10 -->
<g id="edge9" class="edge">
<title>Node1&#45;&gt;Node10</title>
<path fill="none" stroke="midnightblue" d="M193.58,-276C210.91,-276 230.6,-276 248.35,-276"/>
<polygon fill="midnightblue" stroke="midnightblue" points="193.13,-272.5 183.13,-276 193.13,-279.5 193.13,-272.5"/>
</g>
<!-- Node11 -->
<g id="node11" class="node">
<title>Node11</title>
<g id="a_node11"><a xlink:href="class_ogre_1_1_g_l_plugin.html" target="_top" xlink:title="Plugin instance for GL Manager.">
<polygon fill="none" stroke="black" points="257.5,-228.5 257.5,-247.5 346.5,-247.5 346.5,-228.5 257.5,-228.5"/>
<text text-anchor="middle" x="302" y="-235.5" font-family="Helvetica,sans-Serif" font-size="10.00">Ogre::GLPlugin</text>
</a>
</g>
</g>
<!-- Node1&#45;&gt;Node11 -->
<g id="edge10" class="edge">
<title>Node1&#45;&gt;Node11</title>
<path fill="none" stroke="midnightblue" d="M191.89,-263.85C200.87,-261.53 210.22,-259.16 219,-257 231.91,-253.82 246.01,-250.51 258.81,-247.55"/>
<polygon fill="midnightblue" stroke="midnightblue" points="190.77,-260.53 181.97,-266.43 192.53,-267.31 190.77,-260.53"/>
</g>
<!-- Node12 -->
<g id="node12" class="node">
<title>Node12</title>
<g id="a_node12"><a xlink:href="class_ogre_1_1_metal_plugin.html" target="_top" xlink:title="Plugin instance for Metal Manager.">
<polygon fill="none" stroke="black" points="250,-190.5 250,-209.5 354,-209.5 354,-190.5 250,-190.5"/>
<text text-anchor="middle" x="302" y="-197.5" font-family="Helvetica,sans-Serif" font-size="10.00">Ogre::MetalPlugin</text>
</a>
</g>
</g>
<!-- Node1&#45;&gt;Node12 -->
<g id="edge11" class="edge">
<title>Node1&#45;&gt;Node12</title>
<path fill="none" stroke="midnightblue" d="M162.8,-259.37C176.73,-246.49 197.65,-229.19 219,-219 228.63,-214.4 239.43,-210.89 249.96,-208.2"/>
<polygon fill="midnightblue" stroke="midnightblue" points="160.29,-256.93 155.45,-266.35 165.11,-262 160.29,-256.93"/>
</g>
<!-- Node13 -->
<g id="node13" class="node">
<title>Node13</title>
<g id="a_node13"><a xlink:href="class_ogre_1_1_octree_plugin.html" target="_top" xlink:title="Plugin instance for Octree Manager.">
<polygon fill="none" stroke="black" points="248,-152.5 248,-171.5 356,-171.5 356,-152.5 248,-152.5"/>
<text text-anchor="middle" x="302" y="-159.5" font-family="Helvetica,sans-Serif" font-size="10.00">Ogre::OctreePlugin</text>
</a>
</g>
</g>
<!-- Node1&#45;&gt;Node13 -->
<g id="edge12" class="edge">
<title>Node1&#45;&gt;Node13</title>
<path fill="none" stroke="midnightblue" d="M155.12,-257.5C166.84,-235.73 189.27,-200.13 219,-181 227.6,-175.47 237.63,-171.54 247.66,-168.75"/>
<polygon fill="midnightblue" stroke="midnightblue" points="151.99,-255.94 150.5,-266.43 158.21,-259.15 151.99,-255.94"/>
</g>
<!-- Node14 -->
<g id="node14" class="node">
<title>Node14</title>
<g id="a_node14"><a xlink:href="class_ogre_1_1_octree_zone_plugin.html" target="_top" xlink:title="Plugin instance for OctreeZone.">
<polygon fill="none" stroke="black" points="235.5,-114.5 235.5,-133.5 368.5,-133.5 368.5,-114.5 235.5,-114.5"/>
<text text-anchor="middle" x="302" y="-121.5" font-family="Helvetica,sans-Serif" font-size="10.00">Ogre::OctreeZonePlugin</text>
</a>
</g>
</g>
<!-- Node1&#45;&gt;Node14 -->
<g id="edge13" class="edge">
<title>Node1&#45;&gt;Node14</title>
<path fill="none" stroke="midnightblue" d="M151.23,-256.23C160.06,-226.82 180.83,-171.91 219,-143 224.13,-139.12 229.91,-136.01 235.98,-133.52"/>
<polygon fill="midnightblue" stroke="midnightblue" points="147.78,-255.57 148.41,-266.15 154.51,-257.48 147.78,-255.57"/>
</g>
<!-- Node15 -->
<g id="node15" class="node">
<title>Node15</title>
<g id="a_node15"><a xlink:href="class_ogre_1_1_particle_f_x_plugin.html" target="_top" xlink:title="Plugin instance for ParticleFX Manager.">
<polygon fill="none" stroke="black" points="239.5,-76.5 239.5,-95.5 364.5,-95.5 364.5,-76.5 239.5,-76.5"/>
<text text-anchor="middle" x="302" y="-83.5" font-family="Helvetica,sans-Serif" font-size="10.00">Ogre::ParticleFXPlugin</text>
</a>
</g>
</g>
<!-- Node1&#45;&gt;Node15 -->
<g id="edge14" class="edge">
<title>Node1&#45;&gt;Node15</title>
<path fill="none" stroke="midnightblue" d="M148.56,-256.35C154.31,-220.53 171.67,-144.66 219,-105 224.94,-100.03 231.93,-96.3 239.29,-93.51"/>
<polygon fill="midnightblue" stroke="midnightblue" points="145.07,-256.08 147.08,-266.48 151.99,-257.09 145.07,-256.08"/>
</g>
<!-- Node16 -->
<g id="node16" class="node">
<title>Node16</title>
<g id="a_node16"><a xlink:href="class_ogre_1_1_p_c_z_plugin.html" target="_top" xlink:title="Plugin instance for PCZ Manager.">
<polygon fill="none" stroke="black" points="254.5,-38.5 254.5,-57.5 349.5,-57.5 349.5,-38.5 254.5,-38.5"/>
<text text-anchor="middle" x="302" y="-45.5" font-family="Helvetica,sans-Serif" font-size="10.00">Ogre::PCZPlugin</text>
</a>
</g>
</g>
<!-- Node1&#45;&gt;Node16 -->
<g id="edge15" class="edge">
<title>Node1&#45;&gt;Node16</title>
<path fill="none" stroke="midnightblue" d="M146.84,-256.15C149.74,-214.5 162.52,-117.67 219,-67 228.68,-58.31 241.54,-53.37 254.2,-50.62"/>
<polygon fill="midnightblue" stroke="midnightblue" points="143.34,-256.16 146.26,-266.35 150.33,-256.56 143.34,-256.16"/>
</g>
<!-- Node17 -->
<g id="node17" class="node">
<title>Node17</title>
<g id="a_node17"><a xlink:href="class_ogre_1_1_s_t_b_i_plugin.html" target="_top" xlink:title=" ">
<polygon fill="none" stroke="black" points="253,-0.5 253,-19.5 351,-19.5 351,-0.5 253,-0.5"/>
<text text-anchor="middle" x="302" y="-7.5" font-family="Helvetica,sans-Serif" font-size="10.00">Ogre::STBIPlugin</text>
</a>
</g>
</g>
<!-- Node1&#45;&gt;Node17 -->
<g id="edge16" class="edge">
<title>Node1&#45;&gt;Node17</title>
<path fill="none" stroke="midnightblue" d="M145.6,-256.18C145.79,-209.33 153.14,-91.04 219,-29 228.15,-20.38 240.4,-15.41 252.65,-12.61"/>
<polygon fill="midnightblue" stroke="midnightblue" points="142.1,-256.5 145.67,-266.47 149.1,-256.45 142.1,-256.5"/>
</g>
<!-- Node2 -->
<g id="node2" class="node">
<title>Node2</title>
<g id="a_node2"><a xlink:title=" ">
<polygon fill="none" stroke="#bfbfbf" points="0,-266.5 0,-285.5 71,-285.5 71,-266.5 0,-266.5"/>
<text text-anchor="middle" x="35.5" y="-273.5" font-family="Helvetica,sans-Serif" font-size="10.00">PluginAlloc</text>
</a>
</g>
</g>
<!-- Node2&#45;&gt;Node1 -->
<g id="edge1" class="edge">
<title>Node2&#45;&gt;Node1</title>
<path fill="none" stroke="midnightblue" d="M81.28,-276C89.79,-276 98.62,-276 106.86,-276"/>
<polygon fill="midnightblue" stroke="midnightblue" points="81.11,-272.5 71.11,-276 81.11,-279.5 81.11,-272.5"/>
</g>
</g>
</svg>
