<?xml version="1.0" encoding="UTF-8" standalone="no"?>
<!DOCTYPE svg PUBLIC "-//W3C//DTD SVG 1.1//EN"
 "http://www.w3.org/Graphics/SVG/1.1/DTD/svg11.dtd">
<!-- Generated by graphviz version 2.43.0 (0)
 -->
<!-- Title: Ogre::SmallVectorBase Pages: 1 -->
<svg width="875pt" height="274pt"
 viewBox="0.00 0.00 875.00 273.50" xmlns="http://www.w3.org/2000/svg" xmlns:xlink="http://www.w3.org/1999/xlink">
<g id="graph0" class="graph" transform="scale(1 1) rotate(0) translate(4 269.5)">
<title>Ogre::SmallVectorBase</title>
<!-- Node1 -->
<g id="node1" class="node">
<title>Node1</title>
<g id="a_node1"><a xlink:title="SmallVectorBase &#45; This is all the non&#45;templated stuff common to all SmallVectors.">
<polygon fill="#bfbfbf" stroke="black" points="0,-71.5 0,-90.5 128,-90.5 128,-71.5 0,-71.5"/>
<text text-anchor="middle" x="64" y="-78.5" font-family="Helvetica,sans-Serif" font-size="10.00">Ogre::SmallVectorBase</text>
</a>
</g>
</g>
<!-- Node2 -->
<g id="node2" class="node">
<title>Node2</title>
<g id="a_node2"><a xlink:href="class_ogre_1_1_small_vector_template_common.html" target="_top" xlink:title=" ">
<polygon fill="none" stroke="black" points="164,-161 164,-191 313,-191 313,-161 164,-161"/>
<text text-anchor="start" x="172" y="-179" font-family="Helvetica,sans-Serif" font-size="10.00">Ogre::SmallVectorTemplate</text>
<text text-anchor="middle" x="238.5" y="-168" font-family="Helvetica,sans-Serif" font-size="10.00">Common&lt; T &gt;</text>
</a>
</g>
</g>
<!-- Node1&#45;&gt;Node2 -->
<g id="edge1" class="edge">
<title>Node1&#45;&gt;Node2</title>
<path fill="none" stroke="midnightblue" d="M91.32,-95.49C123.43,-113.18 177.47,-142.94 210.08,-160.9"/>
<polygon fill="midnightblue" stroke="midnightblue" points="92.94,-92.39 82.49,-90.63 89.56,-98.52 92.94,-92.39"/>
</g>
<!-- Node11 -->
<g id="node10" class="node">
<title>Node11</title>
<g id="a_node10"><a xlink:href="class_ogre_1_1_small_vector_template_common.html" target="_top" xlink:title=" ">
<polygon fill="none" stroke="black" points="164,-66 164,-96 313,-96 313,-66 164,-66"/>
<text text-anchor="start" x="172" y="-84" font-family="Helvetica,sans-Serif" font-size="10.00">Ogre::SmallVectorTemplate</text>
<text text-anchor="middle" x="238.5" y="-73" font-family="Helvetica,sans-Serif" font-size="10.00">Common&lt; Edge &gt;</text>
</a>
</g>
</g>
<!-- Node1&#45;&gt;Node11 -->
<g id="edge9" class="edge">
<title>Node1&#45;&gt;Node11</title>
<path fill="none" stroke="midnightblue" d="M138.39,-81C146.78,-81 155.34,-81 163.73,-81"/>
<polygon fill="midnightblue" stroke="midnightblue" points="138.25,-77.5 128.25,-81 138.25,-84.5 138.25,-77.5"/>
</g>
<!-- Node16 -->
<g id="node14" class="node">
<title>Node16</title>
<g id="a_node14"><a xlink:href="class_ogre_1_1_small_vector_template_common.html" target="_top" xlink:title=" ">
<polygon fill="none" stroke="black" points="164,-12 164,-42 313,-42 313,-12 164,-12"/>
<text text-anchor="start" x="172" y="-30" font-family="Helvetica,sans-Serif" font-size="10.00">Ogre::SmallVectorTemplate</text>
<text text-anchor="middle" x="238.5" y="-19" font-family="Helvetica,sans-Serif" font-size="10.00">Common&lt; Triangle * &gt;</text>
</a>
</g>
</g>
<!-- Node1&#45;&gt;Node16 -->
<g id="edge13" class="edge">
<title>Node1&#45;&gt;Node16</title>
<path fill="none" stroke="midnightblue" d="M105.05,-68.46C130.23,-60.58 162.88,-50.36 189.46,-42.04"/>
<polygon fill="midnightblue" stroke="midnightblue" points="103.94,-65.14 95.44,-71.47 106.03,-71.82 103.94,-65.14"/>
</g>
<!-- Node3 -->
<g id="node3" class="node">
<title>Node3</title>
<g id="a_node3"><a xlink:href="class_ogre_1_1_small_vector_template_base.html" target="_top" xlink:title="SmallVectorTemplateBase&lt;isPodLike = false&gt; &#45; This is where we put method implementations that are des...">
<polygon fill="none" stroke="black" points="353.5,-235 353.5,-265 502.5,-265 502.5,-235 353.5,-235"/>
<text text-anchor="start" x="361.5" y="-253" font-family="Helvetica,sans-Serif" font-size="10.00">Ogre::SmallVectorTemplate</text>
<text text-anchor="middle" x="428" y="-242" font-family="Helvetica,sans-Serif" font-size="10.00">Base&lt; T &gt;</text>
</a>
</g>
</g>
<!-- Node2&#45;&gt;Node3 -->
<g id="edge2" class="edge">
<title>Node2&#45;&gt;Node3</title>
<path fill="none" stroke="midnightblue" d="M278.81,-195.45C299.44,-205.27 325.29,-216.98 349,-226 357.21,-229.12 366.02,-232.14 374.65,-234.92"/>
<polygon fill="midnightblue" stroke="midnightblue" points="280.26,-192.26 269.73,-191.09 277.23,-198.57 280.26,-192.26"/>
</g>
<!-- Node4 -->
<g id="node4" class="node">
<title>Node4</title>
<g id="a_node4"><a xlink:href="class_ogre_1_1_small_vector_template_base_3_01_t_00_01true_01_4.html" target="_top" xlink:title="SmallVectorTemplateBase&lt;isPodLike = true&gt; &#45; This is where we put method implementations that are desi...">
<polygon fill="none" stroke="black" points="353.5,-186 353.5,-216 502.5,-216 502.5,-186 353.5,-186"/>
<text text-anchor="start" x="361.5" y="-204" font-family="Helvetica,sans-Serif" font-size="10.00">Ogre::SmallVectorTemplate</text>
<text text-anchor="middle" x="428" y="-193" font-family="Helvetica,sans-Serif" font-size="10.00">Base&lt; T, true &gt;</text>
</a>
</g>
</g>
<!-- Node2&#45;&gt;Node4 -->
<g id="edge3" class="edge">
<title>Node2&#45;&gt;Node4</title>
<path fill="none" stroke="midnightblue" d="M323.08,-187.14C333.17,-188.49 343.41,-189.85 353.34,-191.18"/>
<polygon fill="midnightblue" stroke="midnightblue" points="323.44,-183.66 313.07,-185.81 322.52,-190.6 323.44,-183.66"/>
</g>
<!-- Node5 -->
<g id="node5" class="node">
<title>Node5</title>
<g id="a_node5"><a xlink:href="class_ogre_1_1_small_vector_template_base.html" target="_top" xlink:title=" ">
<polygon fill="none" stroke="black" points="349,-137 349,-167 507,-167 507,-137 349,-137"/>
<text text-anchor="start" x="357" y="-155" font-family="Helvetica,sans-Serif" font-size="10.00">SmallVectorTemplateBase</text>
<text text-anchor="middle" x="428" y="-144" font-family="Helvetica,sans-Serif" font-size="10.00">&lt; T, isPodLike&lt; T &gt;::value &gt;</text>
</a>
</g>
</g>
<!-- Node2&#45;&gt;Node5 -->
<g id="edge4" class="edge">
<title>Node2&#45;&gt;Node5</title>
<path fill="none" stroke="midnightblue" d="M323.02,-165.31C331.56,-164.22 340.22,-163.11 348.7,-162.02"/>
<polygon fill="midnightblue" stroke="midnightblue" points="322.54,-161.84 313.07,-166.58 323.43,-168.79 322.54,-161.84"/>
</g>
<!-- Node6 -->
<g id="node6" class="node">
<title>Node6</title>
<g id="a_node6"><a xlink:href="class_ogre_1_1_small_vector_impl.html" target="_top" xlink:title="SmallVectorImpl &#45; This class consists of common code factored out of the SmallVector class to reduce ...">
<polygon fill="none" stroke="black" points="543,-146.5 543,-165.5 698,-165.5 698,-146.5 543,-146.5"/>
<text text-anchor="middle" x="620.5" y="-153.5" font-family="Helvetica,sans-Serif" font-size="10.00">Ogre::SmallVectorImpl&lt; T &gt;</text>
</a>
</g>
</g>
<!-- Node5&#45;&gt;Node6 -->
<g id="edge5" class="edge">
<title>Node5&#45;&gt;Node6</title>
<path fill="none" stroke="midnightblue" d="M517.07,-153.85C525.67,-154.03 534.35,-154.21 542.82,-154.39"/>
<polygon fill="midnightblue" stroke="midnightblue" points="517.1,-150.35 507.03,-153.64 516.96,-157.35 517.1,-150.35"/>
</g>
<!-- Node7 -->
<g id="node7" class="node">
<title>Node7</title>
<g id="a_node7"><a xlink:href="class_ogre_1_1_small_vector.html" target="_top" xlink:title="SmallVector &#45; This is a &#39;vector&#39; (really, a variable&#45;sized array), optimized for the case when the ar...">
<polygon fill="none" stroke="black" points="734,-195.5 734,-214.5 867,-214.5 867,-195.5 734,-195.5"/>
<text text-anchor="middle" x="800.5" y="-202.5" font-family="Helvetica,sans-Serif" font-size="10.00">Ogre::SmallVector&lt; T &gt;</text>
</a>
</g>
</g>
<!-- Node6&#45;&gt;Node7 -->
<g id="edge6" class="edge">
<title>Node6&#45;&gt;Node7</title>
<path fill="none" stroke="midnightblue" d="M666.22,-168.31C696.78,-176.72 736.69,-187.71 764.84,-195.46"/>
<polygon fill="midnightblue" stroke="midnightblue" points="666.81,-164.84 656.24,-165.56 664.96,-171.59 666.81,-164.84"/>
</g>
<!-- Node8 -->
<g id="node8" class="node">
<title>Node8</title>
<g id="a_node8"><a xlink:href="class_ogre_1_1_small_vector_3_01_t_00_010_01_4.html" target="_top" xlink:title="Specialize SmallVector at N=0.">
<polygon fill="none" stroke="black" points="744,-146 744,-176 857,-176 857,-146 744,-146"/>
<text text-anchor="start" x="752" y="-164" font-family="Helvetica,sans-Serif" font-size="10.00">Ogre::SmallVector&lt;</text>
<text text-anchor="middle" x="800.5" y="-153" font-family="Helvetica,sans-Serif" font-size="10.00"> T, 0 &gt;</text>
</a>
</g>
</g>
<!-- Node6&#45;&gt;Node8 -->
<g id="edge7" class="edge">
<title>Node6&#45;&gt;Node8</title>
<path fill="none" stroke="midnightblue" d="M708.15,-158.43C720.26,-158.77 732.41,-159.12 743.74,-159.43"/>
<polygon fill="midnightblue" stroke="midnightblue" points="708.12,-154.93 698.02,-158.15 707.92,-161.93 708.12,-154.93"/>
</g>
<!-- Node9 -->
<g id="node9" class="node">
<title>Node9</title>
<g id="a_node9"><a xlink:href="class_ogre_1_1_small_vector.html" target="_top" xlink:title=" ">
<polygon fill="none" stroke="red" points="742.5,-107.5 742.5,-126.5 858.5,-126.5 858.5,-107.5 742.5,-107.5"/>
<text text-anchor="middle" x="800.5" y="-114.5" font-family="Helvetica,sans-Serif" font-size="10.00">SmallVector&lt; T, S &gt;</text>
</a>
</g>
</g>
<!-- Node6&#45;&gt;Node9 -->
<g id="edge8" class="edge">
<title>Node6&#45;&gt;Node9</title>
<path fill="none" stroke="midnightblue" d="M675.08,-144.26C700.99,-138.58 731.68,-131.86 756.1,-126.51"/>
<polygon fill="midnightblue" stroke="midnightblue" points="674.06,-140.9 665.04,-146.46 675.56,-147.74 674.06,-140.9"/>
</g>
<!-- Node12 -->
<g id="node11" class="node">
<title>Node12</title>
<g id="a_node11"><a xlink:href="class_ogre_1_1_small_vector_template_base.html" target="_top" xlink:title=" ">
<polygon fill="none" stroke="black" points="353.5,-60.5 353.5,-101.5 502.5,-101.5 502.5,-60.5 353.5,-60.5"/>
<text text-anchor="start" x="361.5" y="-89.5" font-family="Helvetica,sans-Serif" font-size="10.00">Ogre::SmallVectorTemplate</text>
<text text-anchor="start" x="361.5" y="-78.5" font-family="Helvetica,sans-Serif" font-size="10.00">Base&lt; Edge, isPodLike&lt;</text>
<text text-anchor="middle" x="428" y="-67.5" font-family="Helvetica,sans-Serif" font-size="10.00"> Edge &gt;::value &gt;</text>
</a>
</g>
</g>
<!-- Node11&#45;&gt;Node12 -->
<g id="edge10" class="edge">
<title>Node11&#45;&gt;Node12</title>
<path fill="none" stroke="midnightblue" d="M323.08,-81C333.17,-81 343.41,-81 353.34,-81"/>
<polygon fill="midnightblue" stroke="midnightblue" points="323.07,-77.5 313.07,-81 323.07,-84.5 323.07,-77.5"/>
</g>
<!-- Node13 -->
<g id="node12" class="node">
<title>Node13</title>
<g id="a_node12"><a xlink:href="class_ogre_1_1_small_vector_impl.html" target="_top" xlink:title=" ">
<polygon fill="none" stroke="black" points="557.5,-63 557.5,-93 683.5,-93 683.5,-63 557.5,-63"/>
<text text-anchor="start" x="565.5" y="-81" font-family="Helvetica,sans-Serif" font-size="10.00">Ogre::SmallVectorImpl</text>
<text text-anchor="middle" x="620.5" y="-70" font-family="Helvetica,sans-Serif" font-size="10.00">&lt; Edge &gt;</text>
</a>
</g>
</g>
<!-- Node12&#45;&gt;Node13 -->
<g id="edge11" class="edge">
<title>Node12&#45;&gt;Node13</title>
<path fill="none" stroke="midnightblue" d="M512.94,-79.68C527.91,-79.44 543.26,-79.2 557.48,-78.98"/>
<polygon fill="midnightblue" stroke="midnightblue" points="512.6,-76.18 502.65,-79.84 512.71,-83.18 512.6,-76.18"/>
</g>
<!-- Node14 -->
<g id="node13" class="node">
<title>Node14</title>
<g id="a_node13"><a xlink:href="class_ogre_1_1_small_vector.html" target="_top" xlink:title=" ">
<polygon fill="none" stroke="red" points="744,-58 744,-88 857,-88 857,-58 744,-58"/>
<text text-anchor="start" x="752" y="-76" font-family="Helvetica,sans-Serif" font-size="10.00">Ogre::SmallVector&lt;</text>
<text text-anchor="middle" x="800.5" y="-65" font-family="Helvetica,sans-Serif" font-size="10.00"> Edge, S &gt;</text>
</a>
</g>
</g>
<!-- Node13&#45;&gt;Node14 -->
<g id="edge12" class="edge">
<title>Node13&#45;&gt;Node14</title>
<path fill="none" stroke="midnightblue" d="M693.98,-75.96C710.61,-75.5 728.03,-75.01 743.82,-74.56"/>
<polygon fill="midnightblue" stroke="midnightblue" points="693.65,-72.47 683.76,-76.25 693.85,-79.47 693.65,-72.47"/>
</g>
<!-- Node17 -->
<g id="node15" class="node">
<title>Node17</title>
<g id="a_node15"><a xlink:href="class_ogre_1_1_small_vector_template_base.html" target="_top" xlink:title=" ">
<polygon fill="none" stroke="black" points="353,-0.5 353,-41.5 503,-41.5 503,-0.5 353,-0.5"/>
<text text-anchor="start" x="361" y="-29.5" font-family="Helvetica,sans-Serif" font-size="10.00">Ogre::SmallVectorTemplate</text>
<text text-anchor="start" x="361" y="-18.5" font-family="Helvetica,sans-Serif" font-size="10.00">Base&lt; Triangle *, isPodLike</text>
<text text-anchor="middle" x="428" y="-7.5" font-family="Helvetica,sans-Serif" font-size="10.00">&lt; Triangle * &gt;::value &gt;</text>
</a>
</g>
</g>
<!-- Node16&#45;&gt;Node17 -->
<g id="edge14" class="edge">
<title>Node16&#45;&gt;Node17</title>
<path fill="none" stroke="midnightblue" d="M323.23,-24.32C333.06,-24.01 343.04,-23.69 352.72,-23.38"/>
<polygon fill="midnightblue" stroke="midnightblue" points="322.95,-20.83 313.07,-24.65 323.17,-27.82 322.95,-20.83"/>
</g>
<!-- Node18 -->
<g id="node16" class="node">
<title>Node18</title>
<g id="a_node16"><a xlink:href="class_ogre_1_1_small_vector_impl.html" target="_top" xlink:title=" ">
<polygon fill="none" stroke="black" points="557.5,-6 557.5,-36 683.5,-36 683.5,-6 557.5,-6"/>
<text text-anchor="start" x="565.5" y="-24" font-family="Helvetica,sans-Serif" font-size="10.00">Ogre::SmallVectorImpl</text>
<text text-anchor="middle" x="620.5" y="-13" font-family="Helvetica,sans-Serif" font-size="10.00">&lt; Triangle * &gt;</text>
</a>
</g>
</g>
<!-- Node17&#45;&gt;Node18 -->
<g id="edge15" class="edge">
<title>Node17&#45;&gt;Node18</title>
<path fill="none" stroke="midnightblue" d="M513.34,-21C528.09,-21 543.2,-21 557.22,-21"/>
<polygon fill="midnightblue" stroke="midnightblue" points="513.2,-17.5 503.2,-21 513.2,-24.5 513.2,-17.5"/>
</g>
<!-- Node19 -->
<g id="node17" class="node">
<title>Node19</title>
<g id="a_node17"><a xlink:href="class_ogre_1_1_small_vector.html" target="_top" xlink:title=" ">
<polygon fill="none" stroke="red" points="744,-6 744,-36 857,-36 857,-6 744,-6"/>
<text text-anchor="start" x="752" y="-24" font-family="Helvetica,sans-Serif" font-size="10.00">Ogre::SmallVector&lt;</text>
<text text-anchor="middle" x="800.5" y="-13" font-family="Helvetica,sans-Serif" font-size="10.00"> Triangle *, S &gt;</text>
</a>
</g>
</g>
<!-- Node18&#45;&gt;Node19 -->
<g id="edge16" class="edge">
<title>Node18&#45;&gt;Node19</title>
<path fill="none" stroke="midnightblue" d="M693.98,-21C710.61,-21 728.03,-21 743.82,-21"/>
<polygon fill="midnightblue" stroke="midnightblue" points="693.76,-17.5 683.76,-21 693.76,-24.5 693.76,-17.5"/>
</g>
</g>
</svg>
