<?xml version="1.0" encoding="UTF-8" standalone="no"?>
<!DOCTYPE svg PUBLIC "-//W3C//DTD SVG 1.1//EN"
 "http://www.w3.org/Graphics/SVG/1.1/DTD/svg11.dtd">
<!-- Generated by graphviz version 2.43.0 (0)
 -->
<!-- Title: Ogre::HardwarePixelBuffer Pages: 1 -->
<svg width="1007pt" height="227pt"
 viewBox="0.00 0.00 1007.00 226.50" xmlns="http://www.w3.org/2000/svg" xmlns:xlink="http://www.w3.org/1999/xlink">
<g id="graph0" class="graph" transform="scale(1 1) rotate(0) translate(4 222.5)">
<title>Ogre::HardwarePixelBuffer</title>
<!-- Node1 -->
<g id="node1" class="node">
<title>Node1</title>
<g id="a_node1"><a xlink:title="Specialisation of HardwareBuffer for a pixel buffer.">
<polygon fill="#bfbfbf" stroke="black" points="264,-94 264,-113 410,-113 410,-94 264,-94"/>
<text text-anchor="middle" x="337" y="-101" font-family="Helvetica,sans-Serif" font-size="10.00">Ogre::HardwarePixelBuffer</text>
</a>
</g>
</g>
<!-- Node4 -->
<g id="node4" class="node">
<title>Node4</title>
<g id="a_node4"><a xlink:href="class_ogre_1_1_d3_d11_hardware_pixel_buffer.html" target="_top" xlink:title=" ">
<polygon fill="none" stroke="black" points="458,-176.5 458,-206.5 607,-206.5 607,-176.5 458,-176.5"/>
<text text-anchor="start" x="466" y="-194.5" font-family="Helvetica,sans-Serif" font-size="10.00">Ogre::D3D11HardwarePixel</text>
<text text-anchor="middle" x="532.5" y="-183.5" font-family="Helvetica,sans-Serif" font-size="10.00">Buffer</text>
</a>
</g>
</g>
<!-- Node1&#45;&gt;Node4 -->
<g id="edge3" class="edge">
<title>Node1&#45;&gt;Node4</title>
<path fill="none" stroke="midnightblue" d="M360.35,-118.72C381.63,-132.67 414.91,-153.12 446,-166.5 454.52,-170.17 463.75,-173.49 472.88,-176.42"/>
<polygon fill="midnightblue" stroke="midnightblue" points="362.01,-115.62 351.75,-113 358.14,-121.45 362.01,-115.62"/>
</g>
<!-- Node5 -->
<g id="node5" class="node">
<title>Node5</title>
<g id="a_node5"><a xlink:href="class_ogre_1_1_d3_d9_hardware_pixel_buffer.html" target="_top" xlink:title=" ">
<polygon fill="none" stroke="black" points="446,-138 446,-157 619,-157 619,-138 446,-138"/>
<text text-anchor="middle" x="532.5" y="-145" font-family="Helvetica,sans-Serif" font-size="10.00">Ogre::D3D9HardwarePixelBuffer</text>
</a>
</g>
</g>
<!-- Node1&#45;&gt;Node5 -->
<g id="edge4" class="edge">
<title>Node1&#45;&gt;Node5</title>
<path fill="none" stroke="midnightblue" d="M388.54,-115.29C406.65,-119.5 427.23,-124.24 446,-128.5 459.64,-131.59 474.52,-134.92 487.99,-137.91"/>
<polygon fill="midnightblue" stroke="midnightblue" points="389.28,-111.88 378.75,-113.02 387.7,-118.69 389.28,-111.88"/>
</g>
<!-- Node6 -->
<g id="node6" class="node">
<title>Node6</title>
<g id="a_node6"><a xlink:href="class_ogre_1_1_g_l_hardware_pixel_buffer_common.html" target="_top" xlink:title=" ">
<polygon fill="none" stroke="black" points="453.5,-88.5 453.5,-118.5 611.5,-118.5 611.5,-88.5 453.5,-88.5"/>
<text text-anchor="start" x="461.5" y="-106.5" font-family="Helvetica,sans-Serif" font-size="10.00">Ogre::GLHardwarePixelBuffer</text>
<text text-anchor="middle" x="532.5" y="-95.5" font-family="Helvetica,sans-Serif" font-size="10.00">Common</text>
</a>
</g>
</g>
<!-- Node1&#45;&gt;Node6 -->
<g id="edge5" class="edge">
<title>Node1&#45;&gt;Node6</title>
<path fill="none" stroke="midnightblue" d="M420.06,-103.5C431.05,-103.5 442.3,-103.5 453.22,-103.5"/>
<polygon fill="midnightblue" stroke="midnightblue" points="420.05,-100 410.05,-103.5 420.05,-107 420.05,-100"/>
</g>
<!-- Node16 -->
<g id="node16" class="node">
<title>Node16</title>
<g id="a_node16"><a xlink:href="class_ogre_1_1_metal_depth_pixel_buffer.html" target="_top" xlink:title=" ">
<polygon fill="none" stroke="black" points="455,-50 455,-69 610,-69 610,-50 455,-50"/>
<text text-anchor="middle" x="532.5" y="-57" font-family="Helvetica,sans-Serif" font-size="10.00">Ogre::MetalDepthPixelBuffer</text>
</a>
</g>
</g>
<!-- Node1&#45;&gt;Node16 -->
<g id="edge15" class="edge">
<title>Node1&#45;&gt;Node16</title>
<path fill="none" stroke="midnightblue" d="M388.54,-91.71C406.65,-87.5 427.23,-82.76 446,-78.5 459.64,-75.41 474.52,-72.08 487.99,-69.09"/>
<polygon fill="midnightblue" stroke="midnightblue" points="387.7,-88.31 378.75,-93.98 389.28,-95.12 387.7,-88.31"/>
</g>
<!-- Node17 -->
<g id="node17" class="node">
<title>Node17</title>
<g id="a_node17"><a xlink:href="class_ogre_1_1_metal_hardware_pixel_buffer.html" target="_top" xlink:title=" ">
<polygon fill="none" stroke="black" points="460.5,-0.5 460.5,-30.5 604.5,-30.5 604.5,-0.5 460.5,-0.5"/>
<text text-anchor="start" x="468.5" y="-18.5" font-family="Helvetica,sans-Serif" font-size="10.00">Ogre::MetalHardwarePixel</text>
<text text-anchor="middle" x="532.5" y="-7.5" font-family="Helvetica,sans-Serif" font-size="10.00">Buffer</text>
</a>
</g>
</g>
<!-- Node1&#45;&gt;Node17 -->
<g id="edge16" class="edge">
<title>Node1&#45;&gt;Node17</title>
<path fill="none" stroke="midnightblue" d="M360.35,-88.28C381.63,-74.33 414.91,-53.88 446,-40.5 454.52,-36.83 463.75,-33.51 472.88,-30.58"/>
<polygon fill="midnightblue" stroke="midnightblue" points="358.14,-85.55 351.75,-94 362.01,-91.38 358.14,-85.55"/>
</g>
<!-- Node2 -->
<g id="node2" class="node">
<title>Node2</title>
<g id="a_node2"><a xlink:href="class_ogre_1_1_hardware_buffer.html" target="_top" xlink:title="Abstract class defining common features of hardware buffers.">
<polygon fill="none" stroke="black" points="106,-94 106,-113 228,-113 228,-94 106,-94"/>
<text text-anchor="middle" x="167" y="-101" font-family="Helvetica,sans-Serif" font-size="10.00">Ogre::HardwareBuffer</text>
</a>
</g>
</g>
<!-- Node2&#45;&gt;Node1 -->
<g id="edge1" class="edge">
<title>Node2&#45;&gt;Node1</title>
<path fill="none" stroke="midnightblue" d="M238.36,-103.5C246.81,-103.5 255.44,-103.5 263.91,-103.5"/>
<polygon fill="midnightblue" stroke="midnightblue" points="238.18,-100 228.18,-103.5 238.18,-107 238.18,-100"/>
</g>
<!-- Node3 -->
<g id="node3" class="node">
<title>Node3</title>
<g id="a_node3"><a xlink:title=" ">
<polygon fill="none" stroke="#bfbfbf" points="0,-94 0,-113 70,-113 70,-94 0,-94"/>
<text text-anchor="middle" x="35" y="-101" font-family="Helvetica,sans-Serif" font-size="10.00">BufferAlloc</text>
</a>
</g>
</g>
<!-- Node3&#45;&gt;Node2 -->
<g id="edge2" class="edge">
<title>Node3&#45;&gt;Node2</title>
<path fill="none" stroke="midnightblue" d="M80.3,-103.5C88.55,-103.5 97.3,-103.5 105.93,-103.5"/>
<polygon fill="midnightblue" stroke="midnightblue" points="80.16,-100 70.16,-103.5 80.16,-107 80.16,-100"/>
</g>
<!-- Node7 -->
<g id="node7" class="node">
<title>Node7</title>
<g id="a_node7"><a xlink:href="class_ogre_1_1_g_l3_plus_hardware_pixel_buffer.html" target="_top" xlink:title=" ">
<polygon fill="none" stroke="black" points="656.5,-155.5 656.5,-185.5 811.5,-185.5 811.5,-155.5 656.5,-155.5"/>
<text text-anchor="start" x="664.5" y="-173.5" font-family="Helvetica,sans-Serif" font-size="10.00">Ogre::GL3PlusHardwarePixel</text>
<text text-anchor="middle" x="734" y="-162.5" font-family="Helvetica,sans-Serif" font-size="10.00">Buffer</text>
</a>
</g>
</g>
<!-- Node6&#45;&gt;Node7 -->
<g id="edge6" class="edge">
<title>Node6&#45;&gt;Node7</title>
<path fill="none" stroke="midnightblue" d="M596.84,-121.49C604.33,-123.78 611.85,-126.14 619,-128.5 644.24,-136.83 672.25,-147.13 694.19,-155.45"/>
<polygon fill="midnightblue" stroke="midnightblue" points="597.62,-118.07 587.04,-118.54 595.6,-124.78 597.62,-118.07"/>
</g>
<!-- Node10 -->
<g id="node10" class="node">
<title>Node10</title>
<g id="a_node10"><a xlink:href="class_ogre_1_1_g_l_e_s2_hardware_pixel_buffer.html" target="_top" xlink:title=" ">
<polygon fill="none" stroke="black" points="660.5,-88.5 660.5,-118.5 807.5,-118.5 807.5,-88.5 660.5,-88.5"/>
<text text-anchor="start" x="668.5" y="-106.5" font-family="Helvetica,sans-Serif" font-size="10.00">Ogre::GLES2HardwarePixel</text>
<text text-anchor="middle" x="734" y="-95.5" font-family="Helvetica,sans-Serif" font-size="10.00">Buffer</text>
</a>
</g>
</g>
<!-- Node6&#45;&gt;Node10 -->
<g id="edge9" class="edge">
<title>Node6&#45;&gt;Node10</title>
<path fill="none" stroke="midnightblue" d="M622.02,-103.5C634.88,-103.5 647.99,-103.5 660.48,-103.5"/>
<polygon fill="midnightblue" stroke="midnightblue" points="621.78,-100 611.78,-103.5 621.78,-107 621.78,-100"/>
</g>
<!-- Node13 -->
<g id="node13" class="node">
<title>Node13</title>
<g id="a_node13"><a xlink:href="class_ogre_1_1_g_l_hardware_pixel_buffer.html" target="_top" xlink:title=" ">
<polygon fill="none" stroke="black" points="655,-47 655,-66 813,-66 813,-47 655,-47"/>
<text text-anchor="middle" x="734" y="-54" font-family="Helvetica,sans-Serif" font-size="10.00">Ogre::GLHardwarePixelBuffer</text>
</a>
</g>
</g>
<!-- Node6&#45;&gt;Node13 -->
<g id="edge12" class="edge">
<title>Node6&#45;&gt;Node13</title>
<path fill="none" stroke="midnightblue" d="M607.22,-86.13C636.05,-79.34 668.01,-71.81 692.49,-66.04"/>
<polygon fill="midnightblue" stroke="midnightblue" points="606.1,-82.8 597.17,-88.5 607.71,-89.61 606.1,-82.8"/>
</g>
<!-- Node8 -->
<g id="node8" class="node">
<title>Node8</title>
<g id="a_node8"><a xlink:href="class_ogre_1_1_g_l3_plus_render_buffer.html" target="_top" xlink:title="Renderbuffer surface.">
<polygon fill="none" stroke="black" points="849.5,-199 849.5,-218 998.5,-218 998.5,-199 849.5,-199"/>
<text text-anchor="middle" x="924" y="-206" font-family="Helvetica,sans-Serif" font-size="10.00">Ogre::GL3PlusRenderBuffer</text>
</a>
</g>
</g>
<!-- Node7&#45;&gt;Node8 -->
<g id="edge7" class="edge">
<title>Node7&#45;&gt;Node8</title>
<path fill="none" stroke="midnightblue" d="M819.13,-187.51C838.65,-191.45 858.74,-195.51 876,-199"/>
<polygon fill="midnightblue" stroke="midnightblue" points="819.8,-184.07 809.3,-185.52 818.41,-190.93 819.8,-184.07"/>
</g>
<!-- Node9 -->
<g id="node9" class="node">
<title>Node9</title>
<g id="a_node9"><a xlink:href="class_ogre_1_1_g_l3_plus_texture_buffer.html" target="_top" xlink:title="Texture surface.">
<polygon fill="none" stroke="black" points="849,-161 849,-180 999,-180 999,-161 849,-161"/>
<text text-anchor="middle" x="924" y="-168" font-family="Helvetica,sans-Serif" font-size="10.00">Ogre::GL3PlusTextureBuffer</text>
</a>
</g>
</g>
<!-- Node7&#45;&gt;Node9 -->
<g id="edge8" class="edge">
<title>Node7&#45;&gt;Node9</title>
<path fill="none" stroke="midnightblue" d="M821.89,-170.5C830.93,-170.5 840.06,-170.5 848.94,-170.5"/>
<polygon fill="midnightblue" stroke="midnightblue" points="821.74,-167 811.74,-170.5 821.74,-174 821.74,-167"/>
</g>
<!-- Node11 -->
<g id="node11" class="node">
<title>Node11</title>
<g id="a_node11"><a xlink:href="class_ogre_1_1_g_l_e_s2_render_buffer.html" target="_top" xlink:title="Renderbuffer surface.">
<polygon fill="none" stroke="black" points="854,-123 854,-142 994,-142 994,-123 854,-123"/>
<text text-anchor="middle" x="924" y="-130" font-family="Helvetica,sans-Serif" font-size="10.00">Ogre::GLES2RenderBuffer</text>
</a>
</g>
</g>
<!-- Node10&#45;&gt;Node11 -->
<g id="edge10" class="edge">
<title>Node10&#45;&gt;Node11</title>
<path fill="none" stroke="midnightblue" d="M817.72,-116.26C832.32,-118.51 847.29,-120.82 861.19,-122.97"/>
<polygon fill="midnightblue" stroke="midnightblue" points="818.1,-112.78 807.69,-114.71 817.04,-119.7 818.1,-112.78"/>
</g>
<!-- Node12 -->
<g id="node12" class="node">
<title>Node12</title>
<g id="a_node12"><a xlink:href="class_ogre_1_1_g_l_e_s2_texture_buffer.html" target="_top" xlink:title="Texture surface.">
<polygon fill="none" stroke="black" points="853,-85 853,-104 995,-104 995,-85 853,-85"/>
<text text-anchor="middle" x="924" y="-92" font-family="Helvetica,sans-Serif" font-size="10.00">Ogre::GLES2TextureBuffer</text>
</a>
</g>
</g>
<!-- Node10&#45;&gt;Node12 -->
<g id="edge11" class="edge">
<title>Node10&#45;&gt;Node12</title>
<path fill="none" stroke="midnightblue" d="M817.9,-99.53C829.6,-98.97 841.55,-98.4 852.98,-97.85"/>
<polygon fill="midnightblue" stroke="midnightblue" points="817.51,-96.05 807.69,-100.02 817.84,-103.04 817.51,-96.05"/>
</g>
<!-- Node14 -->
<g id="node14" class="node">
<title>Node14</title>
<g id="a_node14"><a xlink:href="class_ogre_1_1_g_l_render_buffer.html" target="_top" xlink:title="Renderbuffer surface.">
<polygon fill="none" stroke="black" points="863,-47 863,-66 985,-66 985,-47 863,-47"/>
<text text-anchor="middle" x="924" y="-54" font-family="Helvetica,sans-Serif" font-size="10.00">Ogre::GLRenderBuffer</text>
</a>
</g>
</g>
<!-- Node13&#45;&gt;Node14 -->
<g id="edge13" class="edge">
<title>Node13&#45;&gt;Node14</title>
<path fill="none" stroke="midnightblue" d="M823.31,-56.5C836.72,-56.5 850.29,-56.5 862.92,-56.5"/>
<polygon fill="midnightblue" stroke="midnightblue" points="823.1,-53 813.1,-56.5 823.1,-60 823.1,-53"/>
</g>
<!-- Node15 -->
<g id="node15" class="node">
<title>Node15</title>
<g id="a_node15"><a xlink:href="class_ogre_1_1_g_l_texture_buffer.html" target="_top" xlink:title="Texture surface.">
<polygon fill="none" stroke="black" points="862.5,-9 862.5,-28 985.5,-28 985.5,-9 862.5,-9"/>
<text text-anchor="middle" x="924" y="-16" font-family="Helvetica,sans-Serif" font-size="10.00">Ogre::GLTextureBuffer</text>
</a>
</g>
</g>
<!-- Node13&#45;&gt;Node15 -->
<g id="edge14" class="edge">
<title>Node13&#45;&gt;Node15</title>
<path fill="none" stroke="midnightblue" d="M792.44,-44.89C819.17,-39.49 850.59,-33.14 875.9,-28.02"/>
<polygon fill="midnightblue" stroke="midnightblue" points="791.55,-41.5 782.44,-46.91 792.94,-48.36 791.55,-41.5"/>
</g>
<!-- Node18 -->
<g id="node18" class="node">
<title>Node18</title>
<g id="a_node18"><a xlink:href="class_ogre_1_1_metal_texture_buffer.html" target="_top" xlink:title="Texture surface.">
<polygon fill="none" stroke="black" points="664.5,-6 664.5,-25 803.5,-25 803.5,-6 664.5,-6"/>
<text text-anchor="middle" x="734" y="-13" font-family="Helvetica,sans-Serif" font-size="10.00">Ogre::MetalTextureBuffer</text>
</a>
</g>
</g>
<!-- Node17&#45;&gt;Node18 -->
<g id="edge17" class="edge">
<title>Node17&#45;&gt;Node18</title>
<path fill="none" stroke="midnightblue" d="M614.78,-15.5C631.18,-15.5 648.27,-15.5 664.19,-15.5"/>
<polygon fill="midnightblue" stroke="midnightblue" points="614.68,-12 604.68,-15.5 614.68,-19 614.68,-12"/>
</g>
</g>
</svg>
