<?xml version="1.0" encoding="UTF-8" standalone="no"?>
<!DOCTYPE svg PUBLIC "-//W3C//DTD SVG 1.1//EN"
 "http://www.w3.org/Graphics/SVG/1.1/DTD/svg11.dtd">
<!-- Generated by graphviz version 2.43.0 (0)
 -->
<!-- Title: Ogre::FileSystemArchiveFactory Pages: 1 -->
<svg width="260pt" height="140pt"
 viewBox="0.00 0.00 260.00 140.00" xmlns="http://www.w3.org/2000/svg" xmlns:xlink="http://www.w3.org/1999/xlink">
<g id="graph0" class="graph" transform="scale(1 1) rotate(0) translate(4 136)">
<title>Ogre::FileSystemArchiveFactory</title>
<!-- Node1 -->
<g id="node1" class="node">
<title>Node1</title>
<g id="a_node1"><a xlink:title="Specialisation of the ArchiveFactory to allow reading of files from filesystem folders / directories.">
<polygon fill="#bfbfbf" stroke="black" points="59.5,-0.5 59.5,-19.5 231.5,-19.5 231.5,-0.5 59.5,-0.5"/>
<text text-anchor="middle" x="145.5" y="-7.5" font-family="Helvetica,sans-Serif" font-size="10.00">Ogre::FileSystemArchiveFactory</text>
</a>
</g>
</g>
<!-- Node2 -->
<g id="node2" class="node">
<title>Node2</title>
<g id="a_node2"><a xlink:href="class_ogre_1_1_archive_factory.html" target="_top" xlink:title="Abstract factory class, archive codec plugins can register concrete subclasses of this.">
<polygon fill="none" stroke="black" points="86.5,-56.5 86.5,-75.5 204.5,-75.5 204.5,-56.5 86.5,-56.5"/>
<text text-anchor="middle" x="145.5" y="-63.5" font-family="Helvetica,sans-Serif" font-size="10.00">Ogre::ArchiveFactory</text>
</a>
</g>
</g>
<!-- Node2&#45;&gt;Node1 -->
<g id="edge1" class="edge">
<title>Node2&#45;&gt;Node1</title>
<path fill="none" stroke="midnightblue" d="M145.5,-45.8C145.5,-36.91 145.5,-26.78 145.5,-19.75"/>
<polygon fill="midnightblue" stroke="midnightblue" points="142,-46.08 145.5,-56.08 149,-46.08 142,-46.08"/>
</g>
<!-- Node3 -->
<g id="node3" class="node">
<title>Node3</title>
<g id="a_node3"><a xlink:href="class_ogre_1_1_factory_obj.html" target="_top" xlink:title=" ">
<polygon fill="none" stroke="black" points="0,-112.5 0,-131.5 157,-131.5 157,-112.5 0,-112.5"/>
<text text-anchor="middle" x="78.5" y="-119.5" font-family="Helvetica,sans-Serif" font-size="10.00">Ogre::FactoryObj&lt; Archive &gt;</text>
</a>
</g>
</g>
<!-- Node3&#45;&gt;Node2 -->
<g id="edge2" class="edge">
<title>Node3&#45;&gt;Node2</title>
<path fill="none" stroke="midnightblue" d="M97.33,-105.82C109.34,-96.15 124.47,-83.95 134.54,-75.83"/>
<polygon fill="midnightblue" stroke="midnightblue" points="94.85,-103.32 89.26,-112.32 99.25,-108.77 94.85,-103.32"/>
</g>
<!-- Node4 -->
<g id="node4" class="node">
<title>Node4</title>
<g id="a_node4"><a xlink:title=" ">
<polygon fill="none" stroke="#bfbfbf" points="175,-112.5 175,-131.5 252,-131.5 252,-112.5 175,-112.5"/>
<text text-anchor="middle" x="213.5" y="-119.5" font-family="Helvetica,sans-Serif" font-size="10.00">ArchiveAlloc</text>
</a>
</g>
</g>
<!-- Node4&#45;&gt;Node2 -->
<g id="edge3" class="edge">
<title>Node4&#45;&gt;Node2</title>
<path fill="none" stroke="midnightblue" d="M194.74,-106.1C182.5,-96.38 166.94,-84.03 156.62,-75.83"/>
<polygon fill="midnightblue" stroke="midnightblue" points="192.57,-108.85 202.57,-112.32 196.92,-103.36 192.57,-108.85"/>
</g>
</g>
</svg>
