<?xml version="1.0" encoding="UTF-8" standalone="no"?>
<!DOCTYPE svg PUBLIC "-//W3C//DTD SVG 1.1//EN"
 "http://www.w3.org/Graphics/SVG/1.1/DTD/svg11.dtd">
<!-- Generated by graphviz version 2.43.0 (0)
 -->
<!-- Title: Ogre::GLDepthBufferCommon Pages: 1 -->
<svg width="439pt" height="196pt"
 viewBox="0.00 0.00 439.00 196.00" xmlns="http://www.w3.org/2000/svg" xmlns:xlink="http://www.w3.org/1999/xlink">
<g id="graph0" class="graph" transform="scale(1 1) rotate(0) translate(4 192)">
<title>Ogre::GLDepthBufferCommon</title>
<!-- Node1 -->
<g id="node1" class="node">
<title>Node1</title>
<g id="a_node1"><a xlink:title="OpenGL supports 3 different methods: FBO, pbuffer &amp; Copy.">
<polygon fill="#bfbfbf" stroke="black" points="139,-56.5 139,-75.5 300,-75.5 300,-56.5 139,-56.5"/>
<text text-anchor="middle" x="219.5" y="-63.5" font-family="Helvetica,sans-Serif" font-size="10.00">Ogre::GLDepthBufferCommon</text>
</a>
</g>
</g>
<!-- Node4 -->
<g id="node4" class="node">
<title>Node4</title>
<g id="a_node4"><a xlink:href="class_ogre_1_1_g_l3_plus_depth_buffer.html" target="_top" xlink:title=" ">
<polygon fill="none" stroke="black" points="0,-0.5 0,-19.5 143,-19.5 143,-0.5 0,-0.5"/>
<text text-anchor="middle" x="71.5" y="-7.5" font-family="Helvetica,sans-Serif" font-size="10.00">Ogre::GL3PlusDepthBuffer</text>
</a>
</g>
</g>
<!-- Node1&#45;&gt;Node4 -->
<g id="edge3" class="edge">
<title>Node1&#45;&gt;Node4</title>
<path fill="none" stroke="midnightblue" d="M186.35,-52.91C158.53,-42.75 119.48,-28.51 94.84,-19.52"/>
<polygon fill="midnightblue" stroke="midnightblue" points="185.46,-56.3 196.05,-56.44 187.85,-49.73 185.46,-56.3"/>
</g>
<!-- Node5 -->
<g id="node5" class="node">
<title>Node5</title>
<g id="a_node5"><a xlink:href="class_ogre_1_1_g_l_depth_buffer.html" target="_top" xlink:title=" ">
<polygon fill="none" stroke="black" points="161,-0.5 161,-19.5 278,-19.5 278,-0.5 161,-0.5"/>
<text text-anchor="middle" x="219.5" y="-7.5" font-family="Helvetica,sans-Serif" font-size="10.00">Ogre::GLDepthBuffer</text>
</a>
</g>
</g>
<!-- Node1&#45;&gt;Node5 -->
<g id="edge4" class="edge">
<title>Node1&#45;&gt;Node5</title>
<path fill="none" stroke="midnightblue" d="M219.5,-45.8C219.5,-36.91 219.5,-26.78 219.5,-19.75"/>
<polygon fill="midnightblue" stroke="midnightblue" points="216,-46.08 219.5,-56.08 223,-46.08 216,-46.08"/>
</g>
<!-- Node6 -->
<g id="node6" class="node">
<title>Node6</title>
<g id="a_node6"><a xlink:href="class_ogre_1_1_g_l_e_s2_depth_buffer.html" target="_top" xlink:title=" ">
<polygon fill="none" stroke="black" points="296,-0.5 296,-19.5 431,-19.5 431,-0.5 296,-0.5"/>
<text text-anchor="middle" x="363.5" y="-7.5" font-family="Helvetica,sans-Serif" font-size="10.00">Ogre::GLES2DepthBuffer</text>
</a>
</g>
</g>
<!-- Node1&#45;&gt;Node6 -->
<g id="edge5" class="edge">
<title>Node1&#45;&gt;Node6</title>
<path fill="none" stroke="midnightblue" d="M251.75,-52.91C278.82,-42.75 316.82,-28.51 340.79,-19.52"/>
<polygon fill="midnightblue" stroke="midnightblue" points="250.45,-49.66 242.32,-56.44 252.91,-56.21 250.45,-49.66"/>
</g>
<!-- Node2 -->
<g id="node2" class="node">
<title>Node2</title>
<g id="a_node2"><a xlink:href="class_ogre_1_1_depth_buffer.html" target="_top" xlink:title="An abstract class that contains a depth/stencil buffer.">
<polygon fill="none" stroke="black" points="167.5,-112.5 167.5,-131.5 271.5,-131.5 271.5,-112.5 167.5,-112.5"/>
<text text-anchor="middle" x="219.5" y="-119.5" font-family="Helvetica,sans-Serif" font-size="10.00">Ogre::DepthBuffer</text>
</a>
</g>
</g>
<!-- Node2&#45;&gt;Node1 -->
<g id="edge1" class="edge">
<title>Node2&#45;&gt;Node1</title>
<path fill="none" stroke="midnightblue" d="M219.5,-101.8C219.5,-92.91 219.5,-82.78 219.5,-75.75"/>
<polygon fill="midnightblue" stroke="midnightblue" points="216,-102.08 219.5,-112.08 223,-102.08 216,-102.08"/>
</g>
<!-- Node3 -->
<g id="node3" class="node">
<title>Node3</title>
<g id="a_node3"><a xlink:title=" ">
<polygon fill="none" stroke="#bfbfbf" points="173.5,-168.5 173.5,-187.5 265.5,-187.5 265.5,-168.5 173.5,-168.5"/>
<text text-anchor="middle" x="219.5" y="-175.5" font-family="Helvetica,sans-Serif" font-size="10.00">RenderSysAlloc</text>
</a>
</g>
</g>
<!-- Node3&#45;&gt;Node2 -->
<g id="edge2" class="edge">
<title>Node3&#45;&gt;Node2</title>
<path fill="none" stroke="midnightblue" d="M219.5,-157.8C219.5,-148.91 219.5,-138.78 219.5,-131.75"/>
<polygon fill="midnightblue" stroke="midnightblue" points="216,-158.08 219.5,-168.08 223,-158.08 216,-158.08"/>
</g>
</g>
</svg>
