<?xml version="1.0" encoding="UTF-8" standalone="no"?>
<!DOCTYPE svg PUBLIC "-//W3C//DTD SVG 1.1//EN"
 "http://www.w3.org/Graphics/SVG/1.1/DTD/svg11.dtd">
<!-- Generated by graphviz version 2.43.0 (0)
 -->
<!-- Title: Ogre::TextureManager Pages: 1 -->
<svg width="668pt" height="294pt"
 viewBox="0.00 0.00 668.00 294.00" xmlns="http://www.w3.org/2000/svg" xmlns:xlink="http://www.w3.org/1999/xlink">
<g id="graph0" class="graph" transform="scale(1 1) rotate(0) translate(4 290)">
<title>Ogre::TextureManager</title>
<!-- Node1 -->
<g id="node1" class="node">
<title>Node1</title>
<g id="a_node1"><a xlink:title="Class for loading &amp; managing textures.">
<polygon fill="#bfbfbf" stroke="black" points="318,-133.5 318,-152.5 443,-152.5 443,-133.5 318,-133.5"/>
<text text-anchor="middle" x="380.5" y="-140.5" font-family="Helvetica,sans-Serif" font-size="10.00">Ogre::TextureManager</text>
</a>
</g>
</g>
<!-- Node6 -->
<g id="node6" class="node">
<title>Node6</title>
<g id="a_node6"><a xlink:href="class_ogre_1_1_d3_d11_texture_manager.html" target="_top" xlink:title=" ">
<polygon fill="none" stroke="black" points="490.5,-266.5 490.5,-285.5 648.5,-285.5 648.5,-266.5 490.5,-266.5"/>
<text text-anchor="middle" x="569.5" y="-273.5" font-family="Helvetica,sans-Serif" font-size="10.00">Ogre::D3D11TextureManager</text>
</a>
</g>
</g>
<!-- Node1&#45;&gt;Node6 -->
<g id="edge5" class="edge">
<title>Node1&#45;&gt;Node6</title>
<path fill="none" stroke="midnightblue" d="M391.98,-161.6C407.5,-187.33 439.1,-233.29 479,-257 485.55,-260.9 492.8,-264 500.24,-266.47"/>
<polygon fill="midnightblue" stroke="midnightblue" points="394.91,-159.68 386.84,-152.82 388.87,-163.22 394.91,-159.68"/>
</g>
<!-- Node7 -->
<g id="node7" class="node">
<title>Node7</title>
<g id="a_node7"><a xlink:href="class_ogre_1_1_d3_d9_texture_manager.html" target="_top" xlink:title=" ">
<polygon fill="none" stroke="black" points="493.5,-228.5 493.5,-247.5 645.5,-247.5 645.5,-228.5 493.5,-228.5"/>
<text text-anchor="middle" x="569.5" y="-235.5" font-family="Helvetica,sans-Serif" font-size="10.00">Ogre::D3D9TextureManager</text>
</a>
</g>
</g>
<!-- Node1&#45;&gt;Node7 -->
<g id="edge6" class="edge">
<title>Node1&#45;&gt;Node7</title>
<path fill="none" stroke="midnightblue" d="M398.19,-159.95C416.42,-177.45 447.28,-204.23 479,-219 487.35,-222.89 496.51,-225.99 505.69,-228.46"/>
<polygon fill="midnightblue" stroke="midnightblue" points="400.33,-157.14 390.74,-152.63 395.42,-162.14 400.33,-157.14"/>
</g>
<!-- Node8 -->
<g id="node8" class="node">
<title>Node8</title>
<g id="a_node8"><a xlink:href="class_ogre_1_1_default_texture_manager.html" target="_top" xlink:title="Specialisation of TextureManager for offline processing. Cannot be used with an active RenderSystem.">
<polygon fill="none" stroke="black" points="489,-190.5 489,-209.5 650,-209.5 650,-190.5 489,-190.5"/>
<text text-anchor="middle" x="569.5" y="-197.5" font-family="Helvetica,sans-Serif" font-size="10.00">Ogre::DefaultTextureManager</text>
</a>
</g>
</g>
<!-- Node1&#45;&gt;Node8 -->
<g id="edge7" class="edge">
<title>Node1&#45;&gt;Node8</title>
<path fill="none" stroke="midnightblue" d="M412.54,-156.59C431.47,-164.5 456.32,-174.22 479,-181 491.02,-184.59 504.15,-187.78 516.55,-190.46"/>
<polygon fill="midnightblue" stroke="midnightblue" points="413.79,-153.32 403.22,-152.64 411.06,-159.76 413.79,-153.32"/>
</g>
<!-- Node9 -->
<g id="node9" class="node">
<title>Node9</title>
<g id="a_node9"><a xlink:href="class_ogre_1_1_g_l3_plus_texture_manager.html" target="_top" xlink:title="GL3Plus&#45;specific implementation of a TextureManager.">
<polygon fill="none" stroke="black" points="487.5,-152.5 487.5,-171.5 651.5,-171.5 651.5,-152.5 487.5,-152.5"/>
<text text-anchor="middle" x="569.5" y="-159.5" font-family="Helvetica,sans-Serif" font-size="10.00">Ogre::GL3PlusTextureManager</text>
</a>
</g>
</g>
<!-- Node1&#45;&gt;Node9 -->
<g id="edge8" class="edge">
<title>Node1&#45;&gt;Node9</title>
<path fill="none" stroke="midnightblue" d="M453.36,-150.3C464.52,-151.44 476.12,-152.61 487.47,-153.77"/>
<polygon fill="midnightblue" stroke="midnightblue" points="453.55,-146.8 443.25,-149.27 452.84,-153.77 453.55,-146.8"/>
</g>
<!-- Node10 -->
<g id="node10" class="node">
<title>Node10</title>
<g id="a_node10"><a xlink:href="class_ogre_1_1_g_l_e_s2_texture_manager.html" target="_top" xlink:title="GL ES&#45;specific implementation of a TextureManager.">
<polygon fill="none" stroke="black" points="492,-114.5 492,-133.5 647,-133.5 647,-114.5 492,-114.5"/>
<text text-anchor="middle" x="569.5" y="-121.5" font-family="Helvetica,sans-Serif" font-size="10.00">Ogre::GLES2TextureManager</text>
</a>
</g>
</g>
<!-- Node1&#45;&gt;Node10 -->
<g id="edge9" class="edge">
<title>Node1&#45;&gt;Node10</title>
<path fill="none" stroke="midnightblue" d="M453.24,-135.71C465.86,-134.43 479.05,-133.09 491.81,-131.79"/>
<polygon fill="midnightblue" stroke="midnightblue" points="452.84,-132.23 443.25,-136.73 453.55,-139.2 452.84,-132.23"/>
</g>
<!-- Node11 -->
<g id="node11" class="node">
<title>Node11</title>
<g id="a_node11"><a xlink:href="class_ogre_1_1_g_l_texture_manager.html" target="_top" xlink:title="GL&#45;specific implementation of a TextureManager.">
<polygon fill="none" stroke="black" points="501,-76.5 501,-95.5 638,-95.5 638,-76.5 501,-76.5"/>
<text text-anchor="middle" x="569.5" y="-83.5" font-family="Helvetica,sans-Serif" font-size="10.00">Ogre::GLTextureManager</text>
</a>
</g>
</g>
<!-- Node1&#45;&gt;Node11 -->
<g id="edge10" class="edge">
<title>Node1&#45;&gt;Node11</title>
<path fill="none" stroke="midnightblue" d="M412.54,-129.41C431.47,-121.5 456.32,-111.78 479,-105 491.02,-101.41 504.15,-98.22 516.55,-95.54"/>
<polygon fill="midnightblue" stroke="midnightblue" points="411.06,-126.24 403.22,-133.36 413.79,-132.68 411.06,-126.24"/>
</g>
<!-- Node12 -->
<g id="node12" class="node">
<title>Node12</title>
<g id="a_node12"><a xlink:href="class_ogre_1_1_g_l_texture_manager_common.html" target="_top" xlink:title=" ">
<polygon fill="none" stroke="black" points="479,-38.5 479,-57.5 660,-57.5 660,-38.5 479,-38.5"/>
<text text-anchor="middle" x="569.5" y="-45.5" font-family="Helvetica,sans-Serif" font-size="10.00">Ogre::GLTextureManagerCommon</text>
</a>
</g>
</g>
<!-- Node1&#45;&gt;Node12 -->
<g id="edge11" class="edge">
<title>Node1&#45;&gt;Node12</title>
<path fill="none" stroke="midnightblue" d="M398.19,-126.05C416.42,-108.55 447.28,-81.77 479,-67 487.35,-63.11 496.51,-60.01 505.69,-57.54"/>
<polygon fill="midnightblue" stroke="midnightblue" points="395.42,-123.86 390.74,-133.37 400.33,-128.86 395.42,-123.86"/>
</g>
<!-- Node13 -->
<g id="node13" class="node">
<title>Node13</title>
<g id="a_node13"><a xlink:href="class_ogre_1_1_metal_texture_manager.html" target="_top" xlink:title=" ">
<polygon fill="none" stroke="black" points="493.5,-0.5 493.5,-19.5 645.5,-19.5 645.5,-0.5 493.5,-0.5"/>
<text text-anchor="middle" x="569.5" y="-7.5" font-family="Helvetica,sans-Serif" font-size="10.00">Ogre::MetalTextureManager</text>
</a>
</g>
</g>
<!-- Node1&#45;&gt;Node13 -->
<g id="edge12" class="edge">
<title>Node1&#45;&gt;Node13</title>
<path fill="none" stroke="midnightblue" d="M391.98,-124.4C407.5,-98.67 439.1,-52.71 479,-29 485.55,-25.1 492.8,-22 500.24,-19.53"/>
<polygon fill="midnightblue" stroke="midnightblue" points="388.87,-122.78 386.84,-133.18 394.91,-126.32 388.87,-122.78"/>
</g>
<!-- Node2 -->
<g id="node2" class="node">
<title>Node2</title>
<g id="a_node2"><a xlink:href="class_ogre_1_1_resource_manager.html" target="_top" xlink:title="Defines a generic resource handler.">
<polygon fill="none" stroke="black" points="145.5,-155.5 145.5,-174.5 279.5,-174.5 279.5,-155.5 145.5,-155.5"/>
<text text-anchor="middle" x="212.5" y="-162.5" font-family="Helvetica,sans-Serif" font-size="10.00">Ogre::ResourceManager</text>
</a>
</g>
</g>
<!-- Node2&#45;&gt;Node1 -->
<g id="edge1" class="edge">
<title>Node2&#45;&gt;Node1</title>
<path fill="none" stroke="midnightblue" d="M289.76,-154.89C299.21,-153.64 308.77,-152.37 317.96,-151.16"/>
<polygon fill="midnightblue" stroke="midnightblue" points="289.04,-151.46 279.58,-156.24 289.96,-158.4 289.04,-151.46"/>
</g>
<!-- Node3 -->
<g id="node3" class="node">
<title>Node3</title>
<g id="a_node3"><a xlink:href="class_ogre_1_1_script_loader.html" target="_top" xlink:title="Abstract class defining the interface used by classes which wish to perform script loading to define ...">
<polygon fill="none" stroke="black" points="0,-174.5 0,-193.5 107,-193.5 107,-174.5 0,-174.5"/>
<text text-anchor="middle" x="53.5" y="-181.5" font-family="Helvetica,sans-Serif" font-size="10.00">Ogre::ScriptLoader</text>
</a>
</g>
</g>
<!-- Node3&#45;&gt;Node2 -->
<g id="edge2" class="edge">
<title>Node3&#45;&gt;Node2</title>
<path fill="none" stroke="midnightblue" d="M117.41,-176.39C126.57,-175.28 136.03,-174.13 145.26,-173.02"/>
<polygon fill="midnightblue" stroke="midnightblue" points="116.72,-172.94 107.22,-177.62 117.56,-179.89 116.72,-172.94"/>
</g>
<!-- Node4 -->
<g id="node4" class="node">
<title>Node4</title>
<g id="a_node4"><a xlink:title=" ">
<polygon fill="none" stroke="#bfbfbf" points="10.5,-136.5 10.5,-155.5 96.5,-155.5 96.5,-136.5 10.5,-136.5"/>
<text text-anchor="middle" x="53.5" y="-143.5" font-family="Helvetica,sans-Serif" font-size="10.00">ResourceAlloc</text>
</a>
</g>
</g>
<!-- Node4&#45;&gt;Node2 -->
<g id="edge3" class="edge">
<title>Node4&#45;&gt;Node2</title>
<path fill="none" stroke="midnightblue" d="M106.7,-152.32C119.08,-153.82 132.44,-155.43 145.34,-156.99"/>
<polygon fill="midnightblue" stroke="midnightblue" points="106.92,-148.82 96.57,-151.09 106.08,-155.77 106.92,-148.82"/>
</g>
<!-- Node5 -->
<g id="node5" class="node">
<title>Node5</title>
<g id="a_node5"><a xlink:href="class_ogre_1_1_singleton.html" target="_top" xlink:title=" ">
<polygon fill="none" stroke="black" points="143,-106 143,-136 282,-136 282,-106 143,-106"/>
<text text-anchor="start" x="151" y="-124" font-family="Helvetica,sans-Serif" font-size="10.00">Ogre::Singleton&lt; Texture</text>
<text text-anchor="middle" x="212.5" y="-113" font-family="Helvetica,sans-Serif" font-size="10.00">Manager &gt;</text>
</a>
</g>
</g>
<!-- Node5&#45;&gt;Node1 -->
<g id="edge4" class="edge">
<title>Node5&#45;&gt;Node1</title>
<path fill="none" stroke="midnightblue" d="M292.45,-131.46C301,-132.6 309.61,-133.74 317.91,-134.84"/>
<polygon fill="midnightblue" stroke="midnightblue" points="292.83,-127.98 282.46,-130.14 291.91,-134.92 292.83,-127.98"/>
</g>
</g>
</svg>
