<?xml version="1.0" encoding="UTF-8" standalone="no"?>
<!DOCTYPE svg PUBLIC "-//W3C//DTD SVG 1.1//EN"
 "http://www.w3.org/Graphics/SVG/1.1/DTD/svg11.dtd">
<!-- Generated by graphviz version 2.43.0 (0)
 -->
<!-- Title: Ogre::AbstractNode Pages: 1 -->
<svg width="484pt" height="180pt"
 viewBox="0.00 0.00 484.00 180.00" xmlns="http://www.w3.org/2000/svg" xmlns:xlink="http://www.w3.org/1999/xlink">
<g id="graph0" class="graph" transform="scale(1 1) rotate(0) translate(4 176)">
<title>Ogre::AbstractNode</title>
<!-- Node1 -->
<g id="node1" class="node">
<title>Node1</title>
<g id="a_node1"><a xlink:title=" ">
<polygon fill="#bfbfbf" stroke="black" points="143,-76.5 143,-95.5 255,-95.5 255,-76.5 143,-76.5"/>
<text text-anchor="middle" x="199" y="-83.5" font-family="Helvetica,sans-Serif" font-size="10.00">Ogre::AbstractNode</text>
</a>
</g>
</g>
<!-- Node3 -->
<g id="node3" class="node">
<title>Node3</title>
<g id="a_node3"><a xlink:href="class_ogre_1_1_atom_abstract_node.html" target="_top" xlink:title="This is an abstract node which cannot be broken down further.">
<polygon fill="none" stroke="black" points="314.5,-152.5 314.5,-171.5 452.5,-171.5 452.5,-152.5 314.5,-152.5"/>
<text text-anchor="middle" x="383.5" y="-159.5" font-family="Helvetica,sans-Serif" font-size="10.00">Ogre::AtomAbstractNode</text>
</a>
</g>
</g>
<!-- Node1&#45;&gt;Node3 -->
<g id="edge2" class="edge">
<title>Node1&#45;&gt;Node3</title>
<path fill="none" stroke="midnightblue" d="M220.58,-101.89C238.32,-114.82 265.08,-132.58 291,-143 300.48,-146.81 310.84,-149.9 321.07,-152.39"/>
<polygon fill="midnightblue" stroke="midnightblue" points="222.3,-98.8 212.19,-95.64 218.11,-104.42 222.3,-98.8"/>
</g>
<!-- Node4 -->
<g id="node4" class="node">
<title>Node4</title>
<g id="a_node4"><a xlink:href="class_ogre_1_1_import_abstract_node.html" target="_top" xlink:title="This abstract node represents an import statement.">
<polygon fill="none" stroke="black" points="311.5,-114.5 311.5,-133.5 455.5,-133.5 455.5,-114.5 311.5,-114.5"/>
<text text-anchor="middle" x="383.5" y="-121.5" font-family="Helvetica,sans-Serif" font-size="10.00">Ogre::ImportAbstractNode</text>
</a>
</g>
</g>
<!-- Node1&#45;&gt;Node4 -->
<g id="edge3" class="edge">
<title>Node1&#45;&gt;Node4</title>
<path fill="none" stroke="midnightblue" d="M255.86,-97.67C267.47,-100.1 279.63,-102.63 291,-105 305.77,-108.08 321.89,-111.42 336.42,-114.44"/>
<polygon fill="midnightblue" stroke="midnightblue" points="256.33,-94.2 245.83,-95.58 254.9,-101.05 256.33,-94.2"/>
</g>
<!-- Node5 -->
<g id="node5" class="node">
<title>Node5</title>
<g id="a_node5"><a xlink:href="class_ogre_1_1_object_abstract_node.html" target="_top" xlink:title="This specific abstract node represents a script object.">
<polygon fill="none" stroke="black" points="312,-76.5 312,-95.5 455,-95.5 455,-76.5 312,-76.5"/>
<text text-anchor="middle" x="383.5" y="-83.5" font-family="Helvetica,sans-Serif" font-size="10.00">Ogre::ObjectAbstractNode</text>
</a>
</g>
</g>
<!-- Node1&#45;&gt;Node5 -->
<g id="edge4" class="edge">
<title>Node1&#45;&gt;Node5</title>
<path fill="none" stroke="midnightblue" d="M265.49,-86C280.55,-86 296.63,-86 311.89,-86"/>
<polygon fill="midnightblue" stroke="midnightblue" points="265.25,-82.5 255.25,-86 265.25,-89.5 265.25,-82.5"/>
</g>
<!-- Node6 -->
<g id="node6" class="node">
<title>Node6</title>
<g id="a_node6"><a xlink:href="class_ogre_1_1_property_abstract_node.html" target="_top" xlink:title="This abstract node represents a script property.">
<polygon fill="none" stroke="black" points="307,-38.5 307,-57.5 460,-57.5 460,-38.5 307,-38.5"/>
<text text-anchor="middle" x="383.5" y="-45.5" font-family="Helvetica,sans-Serif" font-size="10.00">Ogre::PropertyAbstractNode</text>
</a>
</g>
</g>
<!-- Node1&#45;&gt;Node6 -->
<g id="edge5" class="edge">
<title>Node1&#45;&gt;Node6</title>
<path fill="none" stroke="midnightblue" d="M255.86,-74.33C267.47,-71.9 279.63,-69.37 291,-67 305.77,-63.92 321.89,-60.58 336.42,-57.56"/>
<polygon fill="midnightblue" stroke="midnightblue" points="254.9,-70.95 245.83,-76.42 256.33,-77.8 254.9,-70.95"/>
</g>
<!-- Node7 -->
<g id="node7" class="node">
<title>Node7</title>
<g id="a_node7"><a xlink:href="class_ogre_1_1_variable_access_abstract_node.html" target="_top" xlink:title="This abstract node represents a variable assignment.">
<polygon fill="none" stroke="black" points="291,-0.5 291,-19.5 476,-19.5 476,-0.5 291,-0.5"/>
<text text-anchor="middle" x="383.5" y="-7.5" font-family="Helvetica,sans-Serif" font-size="10.00">Ogre::VariableAccessAbstractNode</text>
</a>
</g>
</g>
<!-- Node1&#45;&gt;Node7 -->
<g id="edge6" class="edge">
<title>Node1&#45;&gt;Node7</title>
<path fill="none" stroke="midnightblue" d="M220.58,-70.11C238.32,-57.18 265.08,-39.42 291,-29 300.48,-25.19 310.84,-22.1 321.07,-19.61"/>
<polygon fill="midnightblue" stroke="midnightblue" points="218.11,-67.58 212.19,-76.36 222.3,-73.2 218.11,-67.58"/>
</g>
<!-- Node2 -->
<g id="node2" class="node">
<title>Node2</title>
<g id="a_node2"><a xlink:title=" ">
<polygon fill="none" stroke="#bfbfbf" points="0,-76.5 0,-95.5 107,-95.5 107,-76.5 0,-76.5"/>
<text text-anchor="middle" x="53.5" y="-83.5" font-family="Helvetica,sans-Serif" font-size="10.00">AbstractNodeAlloc</text>
</a>
</g>
</g>
<!-- Node2&#45;&gt;Node1 -->
<g id="edge1" class="edge">
<title>Node2&#45;&gt;Node1</title>
<path fill="none" stroke="midnightblue" d="M117.4,-86C125.92,-86 134.61,-86 142.98,-86"/>
<polygon fill="midnightblue" stroke="midnightblue" points="117.12,-82.5 107.12,-86 117.12,-89.5 117.12,-82.5"/>
</g>
</g>
</svg>
