<?xml version="1.0" encoding="UTF-8" standalone="no"?>
<!DOCTYPE svg PUBLIC "-//W3C//DTD SVG 1.1//EN"
 "http://www.w3.org/Graphics/SVG/1.1/DTD/svg11.dtd">
<!-- Generated by graphviz version 2.43.0 (0)
 -->
<!-- Title: Ogre::OverlayElementFactory Pages: 1 -->
<svg width="486pt" height="137pt"
 viewBox="0.00 0.00 486.00 137.00" xmlns="http://www.w3.org/2000/svg" xmlns:xlink="http://www.w3.org/1999/xlink">
<g id="graph0" class="graph" transform="scale(1 1) rotate(0) translate(4 133)">
<title>Ogre::OverlayElementFactory</title>
<!-- Node1 -->
<g id="node1" class="node">
<title>Node1</title>
<g id="a_node1"><a xlink:title="Defines the interface which all components wishing to supply OverlayElement subclasses must implement...">
<polygon fill="#bfbfbf" stroke="black" points="115,-55 115,-74 275,-74 275,-55 115,-55"/>
<text text-anchor="middle" x="195" y="-62" font-family="Helvetica,sans-Serif" font-size="10.00">Ogre::OverlayElementFactory</text>
</a>
</g>
</g>
<!-- Node3 -->
<g id="node3" class="node">
<title>Node3</title>
<g id="a_node3"><a xlink:href="class_ogre_1_1_border_panel_overlay_element_factory.html" target="_top" xlink:title="Factory for creating BorderPanelOverlayElement instances.">
<polygon fill="none" stroke="black" points="323,-98.5 323,-128.5 466,-128.5 466,-98.5 323,-98.5"/>
<text text-anchor="start" x="331" y="-116.5" font-family="Helvetica,sans-Serif" font-size="10.00">Ogre::BorderPanelOverlay</text>
<text text-anchor="middle" x="394.5" y="-105.5" font-family="Helvetica,sans-Serif" font-size="10.00">ElementFactory</text>
</a>
</g>
</g>
<!-- Node1&#45;&gt;Node3 -->
<g id="edge2" class="edge">
<title>Node1&#45;&gt;Node3</title>
<path fill="none" stroke="midnightblue" d="M244.42,-76.51C271.11,-83.14 304.49,-91.42 332.89,-98.46"/>
<polygon fill="midnightblue" stroke="midnightblue" points="245.1,-73.08 234.55,-74.06 243.41,-79.87 245.1,-73.08"/>
</g>
<!-- Node4 -->
<g id="node4" class="node">
<title>Node4</title>
<g id="a_node4"><a xlink:href="class_ogre_1_1_panel_overlay_element_factory.html" target="_top" xlink:title="Factory for creating PanelOverlayElement instances.">
<polygon fill="none" stroke="black" points="319,-49.5 319,-79.5 470,-79.5 470,-49.5 319,-49.5"/>
<text text-anchor="start" x="327" y="-67.5" font-family="Helvetica,sans-Serif" font-size="10.00">Ogre::PanelOverlayElement</text>
<text text-anchor="middle" x="394.5" y="-56.5" font-family="Helvetica,sans-Serif" font-size="10.00">Factory</text>
</a>
</g>
</g>
<!-- Node1&#45;&gt;Node4 -->
<g id="edge3" class="edge">
<title>Node1&#45;&gt;Node4</title>
<path fill="none" stroke="midnightblue" d="M285.38,-64.5C296.55,-64.5 307.87,-64.5 318.78,-64.5"/>
<polygon fill="midnightblue" stroke="midnightblue" points="285.19,-61 275.19,-64.5 285.19,-68 285.19,-61"/>
</g>
<!-- Node5 -->
<g id="node5" class="node">
<title>Node5</title>
<g id="a_node5"><a xlink:href="class_ogre_1_1_text_area_overlay_element_factory.html" target="_top" xlink:title="Factory for creating TextAreaOverlayElement instances.">
<polygon fill="none" stroke="black" points="311,-0.5 311,-30.5 478,-30.5 478,-0.5 311,-0.5"/>
<text text-anchor="start" x="319" y="-18.5" font-family="Helvetica,sans-Serif" font-size="10.00">Ogre::TextAreaOverlayElement</text>
<text text-anchor="middle" x="394.5" y="-7.5" font-family="Helvetica,sans-Serif" font-size="10.00">Factory</text>
</a>
</g>
</g>
<!-- Node1&#45;&gt;Node5 -->
<g id="edge4" class="edge">
<title>Node1&#45;&gt;Node5</title>
<path fill="none" stroke="midnightblue" d="M244.42,-52.49C271.11,-45.86 304.49,-37.58 332.89,-30.54"/>
<polygon fill="midnightblue" stroke="midnightblue" points="243.41,-49.13 234.55,-54.94 245.1,-55.92 243.41,-49.13"/>
</g>
<!-- Node2 -->
<g id="node2" class="node">
<title>Node2</title>
<g id="a_node2"><a xlink:title=" ">
<polygon fill="none" stroke="#bfbfbf" points="0,-55 0,-74 79,-74 79,-55 0,-55"/>
<text text-anchor="middle" x="39.5" y="-62" font-family="Helvetica,sans-Serif" font-size="10.00">OverlayAlloc</text>
</a>
</g>
</g>
<!-- Node2&#45;&gt;Node1 -->
<g id="edge1" class="edge">
<title>Node2&#45;&gt;Node1</title>
<path fill="none" stroke="midnightblue" d="M89.29,-64.5C97.47,-64.5 106.13,-64.5 114.84,-64.5"/>
<polygon fill="midnightblue" stroke="midnightblue" points="89.23,-61 79.23,-64.5 89.23,-68 89.23,-61"/>
</g>
</g>
</svg>
