<?xml version="1.0" encoding="UTF-8" standalone="no"?>
<!DOCTYPE svg PUBLIC "-//W3C//DTD SVG 1.1//EN"
 "http://www.w3.org/Graphics/SVG/1.1/DTD/svg11.dtd">
<!-- Generated by graphviz version 2.43.0 (0)
 -->
<!-- Title: Ogre::HardwareBuffer Pages: 1 -->
<svg width="1026pt" height="1067pt"
 viewBox="0.00 0.00 1026.00 1067.00" xmlns="http://www.w3.org/2000/svg" xmlns:xlink="http://www.w3.org/1999/xlink">
<g id="graph0" class="graph" transform="scale(1 1) rotate(0) translate(4 1063)">
<title>Ogre::HardwareBuffer</title>
<!-- Node1 -->
<g id="node1" class="node">
<title>Node1</title>
<g id="a_node1"><a xlink:title="Abstract class defining common features of hardware buffers.">
<polygon fill="#bfbfbf" stroke="black" points="106,-623 106,-642 228,-642 228,-623 106,-623"/>
<text text-anchor="middle" x="167" y="-630" font-family="Helvetica,sans-Serif" font-size="10.00">Ogre::HardwareBuffer</text>
</a>
</g>
</g>
<!-- Node3 -->
<g id="node3" class="node">
<title>Node3</title>
<g id="a_node3"><a xlink:href="class_ogre_1_1_d3_d11_hardware_buffer.html" target="_top" xlink:title="Base implementation of a D3D11 buffer, dealing with all the common aspects.">
<polygon fill="none" stroke="black" points="267.5,-886 267.5,-905 422.5,-905 422.5,-886 267.5,-886"/>
<text text-anchor="middle" x="345" y="-893" font-family="Helvetica,sans-Serif" font-size="10.00">Ogre::D3D11HardwareBuffer</text>
</a>
</g>
</g>
<!-- Node1&#45;&gt;Node3 -->
<g id="edge2" class="edge">
<title>Node1&#45;&gt;Node3</title>
<path fill="none" stroke="midnightblue" d="M169.72,-652.23C174.86,-698.79 194.43,-816.15 264,-876.5 268.42,-880.34 273.48,-883.43 278.85,-885.92"/>
<polygon fill="midnightblue" stroke="midnightblue" points="173.19,-651.83 168.72,-642.22 166.23,-652.52 173.19,-651.83"/>
</g>
<!-- Node4 -->
<g id="node4" class="node">
<title>Node4</title>
<g id="a_node4"><a xlink:href="class_ogre_1_1_hardware_index_buffer.html" target="_top" xlink:title="Specialisation of HardwareBuffer for vertex index buffers, still abstract.">
<polygon fill="none" stroke="black" points="270.5,-848 270.5,-867 419.5,-867 419.5,-848 270.5,-848"/>
<text text-anchor="middle" x="345" y="-855" font-family="Helvetica,sans-Serif" font-size="10.00">Ogre::HardwareIndexBuffer</text>
</a>
</g>
</g>
<!-- Node1&#45;&gt;Node4 -->
<g id="edge3" class="edge">
<title>Node1&#45;&gt;Node4</title>
<path fill="none" stroke="midnightblue" d="M181.81,-650.16C217.05,-695.21 309.43,-813.31 336.47,-847.87"/>
<polygon fill="midnightblue" stroke="midnightblue" points="184.48,-647.89 175.56,-642.17 178.97,-652.2 184.48,-647.89"/>
</g>
<!-- Node12 -->
<g id="node12" class="node">
<title>Node12</title>
<g id="a_node12"><a xlink:href="class_ogre_1_1_hardware_pixel_buffer.html" target="_top" xlink:title="Specialisation of HardwareBuffer for a pixel buffer.">
<polygon fill="none" stroke="black" points="272,-623 272,-642 418,-642 418,-623 272,-623"/>
<text text-anchor="middle" x="345" y="-630" font-family="Helvetica,sans-Serif" font-size="10.00">Ogre::HardwarePixelBuffer</text>
</a>
</g>
</g>
<!-- Node1&#45;&gt;Node12 -->
<g id="edge11" class="edge">
<title>Node1&#45;&gt;Node12</title>
<path fill="none" stroke="midnightblue" d="M238.1,-632.5C249.16,-632.5 260.62,-632.5 271.73,-632.5"/>
<polygon fill="midnightblue" stroke="midnightblue" points="238.08,-629 228.08,-632.5 238.08,-636 238.08,-629"/>
</g>
<!-- Node28 -->
<g id="node28" class="node">
<title>Node28</title>
<g id="a_node28"><a xlink:href="class_ogre_1_1_hardware_uniform_buffer.html" target="_top" xlink:title="Specialisation of HardwareBuffer for a uniform buffer.">
<polygon fill="none" stroke="black" points="264,-437 264,-456 426,-456 426,-437 264,-437"/>
<text text-anchor="middle" x="345" y="-444" font-family="Helvetica,sans-Serif" font-size="10.00">Ogre::HardwareUniformBuffer</text>
</a>
</g>
</g>
<!-- Node1&#45;&gt;Node28 -->
<g id="edge27" class="edge">
<title>Node1&#45;&gt;Node28</title>
<path fill="none" stroke="midnightblue" d="M184.12,-615.47C220.21,-577.32 306.61,-486.02 334.88,-456.14"/>
<polygon fill="midnightblue" stroke="midnightblue" points="181.55,-613.09 177.21,-622.76 186.63,-617.9 181.55,-613.09"/>
</g>
<!-- Node33 -->
<g id="node33" class="node">
<title>Node33</title>
<g id="a_node33"><a xlink:href="class_ogre_1_1_hardware_vertex_buffer.html" target="_top" xlink:title="Specialisation of HardwareBuffer for a vertex buffer.">
<polygon fill="none" stroke="black" points="268,-168 268,-187 422,-187 422,-168 268,-168"/>
<text text-anchor="middle" x="345" y="-175" font-family="Helvetica,sans-Serif" font-size="10.00">Ogre::HardwareVertexBuffer</text>
</a>
</g>
</g>
<!-- Node1&#45;&gt;Node33 -->
<g id="edge32" class="edge">
<title>Node1&#45;&gt;Node33</title>
<path fill="none" stroke="midnightblue" d="M175.34,-613.52C205.33,-535.99 318.01,-244.68 340.2,-187.34"/>
<polygon fill="midnightblue" stroke="midnightblue" points="172.02,-612.41 171.68,-623 178.55,-614.93 172.02,-612.41"/>
</g>
<!-- Node2 -->
<g id="node2" class="node">
<title>Node2</title>
<g id="a_node2"><a xlink:title=" ">
<polygon fill="none" stroke="#bfbfbf" points="0,-623 0,-642 70,-642 70,-623 0,-623"/>
<text text-anchor="middle" x="35" y="-630" font-family="Helvetica,sans-Serif" font-size="10.00">BufferAlloc</text>
</a>
</g>
</g>
<!-- Node2&#45;&gt;Node1 -->
<g id="edge1" class="edge">
<title>Node2&#45;&gt;Node1</title>
<path fill="none" stroke="midnightblue" d="M80.3,-632.5C88.55,-632.5 97.3,-632.5 105.93,-632.5"/>
<polygon fill="midnightblue" stroke="midnightblue" points="80.16,-629 70.16,-632.5 80.16,-636 80.16,-629"/>
</g>
<!-- Node5 -->
<g id="node5" class="node">
<title>Node5</title>
<g id="a_node5"><a xlink:href="class_ogre_1_1_d3_d11_hardware_index_buffer.html" target="_top" xlink:title=" ">
<polygon fill="none" stroke="black" points="473.5,-1028.5 473.5,-1058.5 626.5,-1058.5 626.5,-1028.5 473.5,-1028.5"/>
<text text-anchor="start" x="481.5" y="-1046.5" font-family="Helvetica,sans-Serif" font-size="10.00">Ogre::D3D11HardwareIndex</text>
<text text-anchor="middle" x="550" y="-1035.5" font-family="Helvetica,sans-Serif" font-size="10.00">Buffer</text>
</a>
</g>
</g>
<!-- Node4&#45;&gt;Node5 -->
<g id="edge4" class="edge">
<title>Node4&#45;&gt;Node5</title>
<path fill="none" stroke="midnightblue" d="M421.41,-872.51C423.01,-873.75 424.55,-875.07 426,-876.5 472.38,-922.19 416.69,-971.74 462,-1018.5 465.72,-1022.34 469.98,-1025.6 474.58,-1028.36"/>
<polygon fill="midnightblue" stroke="midnightblue" points="423.15,-869.47 412.83,-867.09 419.41,-875.39 423.15,-869.47"/>
</g>
<!-- Node6 -->
<g id="node6" class="node">
<title>Node6</title>
<g id="a_node6"><a xlink:href="class_ogre_1_1_d3_d9_hardware_index_buffer.html" target="_top" xlink:title=" ">
<polygon fill="none" stroke="black" points="462,-990 462,-1009 638,-1009 638,-990 462,-990"/>
<text text-anchor="middle" x="550" y="-997" font-family="Helvetica,sans-Serif" font-size="10.00">Ogre::D3D9HardwareIndexBuffer</text>
</a>
</g>
</g>
<!-- Node4&#45;&gt;Node6 -->
<g id="edge5" class="edge">
<title>Node4&#45;&gt;Node6</title>
<path fill="none" stroke="midnightblue" d="M420.55,-872.19C422.46,-873.51 424.28,-874.94 426,-876.5 462.27,-909.31 425.43,-948.02 462,-980.5 466.28,-984.3 471.13,-987.4 476.32,-989.92"/>
<polygon fill="midnightblue" stroke="midnightblue" points="422.12,-869.05 411.71,-867.07 418.61,-875.11 422.12,-869.05"/>
</g>
<!-- Node7 -->
<g id="node7" class="node">
<title>Node7</title>
<g id="a_node7"><a xlink:href="class_ogre_1_1_default_hardware_index_buffer.html" target="_top" xlink:title="Specialisation of HardwareIndexBuffer for emulation.">
<polygon fill="none" stroke="black" points="472,-940.5 472,-970.5 628,-970.5 628,-940.5 472,-940.5"/>
<text text-anchor="start" x="480" y="-958.5" font-family="Helvetica,sans-Serif" font-size="10.00">Ogre::DefaultHardwareIndex</text>
<text text-anchor="middle" x="550" y="-947.5" font-family="Helvetica,sans-Serif" font-size="10.00">Buffer</text>
</a>
</g>
</g>
<!-- Node4&#45;&gt;Node7 -->
<g id="edge6" class="edge">
<title>Node4&#45;&gt;Node7</title>
<path fill="none" stroke="midnightblue" d="M417.31,-871.28C420.34,-872.84 423.25,-874.57 426,-876.5 449.91,-893.29 438.4,-914.28 462,-931.5 466.68,-934.92 471.83,-937.85 477.21,-940.36"/>
<polygon fill="midnightblue" stroke="midnightblue" points="418.48,-867.97 407.92,-867.1 415.64,-874.37 418.48,-867.97"/>
</g>
<!-- Node8 -->
<g id="node8" class="node">
<title>Node8</title>
<g id="a_node8"><a xlink:href="class_ogre_1_1_g_l3_plus_hardware_index_buffer.html" target="_top" xlink:title=" ">
<polygon fill="none" stroke="black" points="470.5,-891.5 470.5,-921.5 629.5,-921.5 629.5,-891.5 470.5,-891.5"/>
<text text-anchor="start" x="478.5" y="-909.5" font-family="Helvetica,sans-Serif" font-size="10.00">Ogre::GL3PlusHardwareIndex</text>
<text text-anchor="middle" x="550" y="-898.5" font-family="Helvetica,sans-Serif" font-size="10.00">Buffer</text>
</a>
</g>
</g>
<!-- Node4&#45;&gt;Node8 -->
<g id="edge7" class="edge">
<title>Node4&#45;&gt;Node8</title>
<path fill="none" stroke="midnightblue" d="M396.05,-869.34C405.98,-871.7 416.32,-874.17 426,-876.5 446.09,-881.34 468.01,-886.66 487.7,-891.47"/>
<polygon fill="midnightblue" stroke="midnightblue" points="396.84,-865.93 386.3,-867.02 395.22,-872.74 396.84,-865.93"/>
</g>
<!-- Node9 -->
<g id="node9" class="node">
<title>Node9</title>
<g id="a_node9"><a xlink:href="class_ogre_1_1_g_l_e_s2_hardware_index_buffer.html" target="_top" xlink:title=" ">
<polygon fill="none" stroke="black" points="474.5,-842.5 474.5,-872.5 625.5,-872.5 625.5,-842.5 474.5,-842.5"/>
<text text-anchor="start" x="482.5" y="-860.5" font-family="Helvetica,sans-Serif" font-size="10.00">Ogre::GLES2HardwareIndex</text>
<text text-anchor="middle" x="550" y="-849.5" font-family="Helvetica,sans-Serif" font-size="10.00">Buffer</text>
</a>
</g>
</g>
<!-- Node4&#45;&gt;Node9 -->
<g id="edge8" class="edge">
<title>Node4&#45;&gt;Node9</title>
<path fill="none" stroke="midnightblue" d="M429.71,-857.5C444.49,-857.5 459.8,-857.5 474.31,-857.5"/>
<polygon fill="midnightblue" stroke="midnightblue" points="429.57,-854 419.57,-857.5 429.57,-861 429.57,-854"/>
</g>
<!-- Node10 -->
<g id="node10" class="node">
<title>Node10</title>
<g id="a_node10"><a xlink:href="class_ogre_1_1_g_l_hardware_index_buffer.html" target="_top" xlink:title=" ">
<polygon fill="none" stroke="black" points="469,-804 469,-823 631,-823 631,-804 469,-804"/>
<text text-anchor="middle" x="550" y="-811" font-family="Helvetica,sans-Serif" font-size="10.00">Ogre::GLHardwareIndexBuffer</text>
</a>
</g>
</g>
<!-- Node4&#45;&gt;Node10 -->
<g id="edge9" class="edge">
<title>Node4&#45;&gt;Node10</title>
<path fill="none" stroke="midnightblue" d="M399.94,-845.81C432.78,-838.69 474.2,-829.71 505.04,-823.03"/>
<polygon fill="midnightblue" stroke="midnightblue" points="399.08,-842.41 390.05,-847.95 400.56,-849.25 399.08,-842.41"/>
</g>
<!-- Node11 -->
<g id="node11" class="node">
<title>Node11</title>
<g id="a_node11"><a xlink:href="class_ogre_1_1_metal_hardware_index_buffer.html" target="_top" xlink:title="Specialisation of HardwareIndexBuffer for Metal.">
<polygon fill="none" stroke="black" points="476,-754.5 476,-784.5 624,-784.5 624,-754.5 476,-754.5"/>
<text text-anchor="start" x="484" y="-772.5" font-family="Helvetica,sans-Serif" font-size="10.00">Ogre::MetalHardwareIndex</text>
<text text-anchor="middle" x="550" y="-761.5" font-family="Helvetica,sans-Serif" font-size="10.00">Buffer</text>
</a>
</g>
</g>
<!-- Node4&#45;&gt;Node11 -->
<g id="edge10" class="edge">
<title>Node4&#45;&gt;Node11</title>
<path fill="none" stroke="midnightblue" d="M369.93,-842.49C392.87,-828.6 428.82,-808.09 462,-794.5 470.87,-790.87 480.45,-787.55 489.91,-784.59"/>
<polygon fill="midnightblue" stroke="midnightblue" points="367.93,-839.61 361.23,-847.82 371.59,-845.58 367.93,-839.61"/>
</g>
<!-- Node13 -->
<g id="node13" class="node">
<title>Node13</title>
<g id="a_node13"><a xlink:href="class_ogre_1_1_d3_d11_hardware_pixel_buffer.html" target="_top" xlink:title=" ">
<polygon fill="none" stroke="black" points="475.5,-705.5 475.5,-735.5 624.5,-735.5 624.5,-705.5 475.5,-705.5"/>
<text text-anchor="start" x="483.5" y="-723.5" font-family="Helvetica,sans-Serif" font-size="10.00">Ogre::D3D11HardwarePixel</text>
<text text-anchor="middle" x="550" y="-712.5" font-family="Helvetica,sans-Serif" font-size="10.00">Buffer</text>
</a>
</g>
</g>
<!-- Node12&#45;&gt;Node13 -->
<g id="edge12" class="edge">
<title>Node12&#45;&gt;Node13</title>
<path fill="none" stroke="midnightblue" d="M369.93,-647.51C392.87,-661.4 428.82,-681.91 462,-695.5 470.87,-699.13 480.45,-702.45 489.91,-705.41"/>
<polygon fill="midnightblue" stroke="midnightblue" points="371.59,-644.42 361.23,-642.18 367.93,-650.39 371.59,-644.42"/>
</g>
<!-- Node14 -->
<g id="node14" class="node">
<title>Node14</title>
<g id="a_node14"><a xlink:href="class_ogre_1_1_d3_d9_hardware_pixel_buffer.html" target="_top" xlink:title=" ">
<polygon fill="none" stroke="black" points="463.5,-667 463.5,-686 636.5,-686 636.5,-667 463.5,-667"/>
<text text-anchor="middle" x="550" y="-674" font-family="Helvetica,sans-Serif" font-size="10.00">Ogre::D3D9HardwarePixelBuffer</text>
</a>
</g>
</g>
<!-- Node12&#45;&gt;Node14 -->
<g id="edge13" class="edge">
<title>Node12&#45;&gt;Node14</title>
<path fill="none" stroke="midnightblue" d="M399.94,-644.19C432.78,-651.31 474.2,-660.29 505.04,-666.97"/>
<polygon fill="midnightblue" stroke="midnightblue" points="400.56,-640.75 390.05,-642.05 399.08,-647.59 400.56,-640.75"/>
</g>
<!-- Node15 -->
<g id="node15" class="node">
<title>Node15</title>
<g id="a_node15"><a xlink:href="class_ogre_1_1_g_l_hardware_pixel_buffer_common.html" target="_top" xlink:title=" ">
<polygon fill="none" stroke="black" points="471,-617.5 471,-647.5 629,-647.5 629,-617.5 471,-617.5"/>
<text text-anchor="start" x="479" y="-635.5" font-family="Helvetica,sans-Serif" font-size="10.00">Ogre::GLHardwarePixelBuffer</text>
<text text-anchor="middle" x="550" y="-624.5" font-family="Helvetica,sans-Serif" font-size="10.00">Common</text>
</a>
</g>
</g>
<!-- Node12&#45;&gt;Node15 -->
<g id="edge14" class="edge">
<title>Node12&#45;&gt;Node15</title>
<path fill="none" stroke="midnightblue" d="M428.28,-632.5C442.35,-632.5 456.93,-632.5 470.89,-632.5"/>
<polygon fill="midnightblue" stroke="midnightblue" points="428.14,-629 418.14,-632.5 428.14,-636 428.14,-629"/>
</g>
<!-- Node25 -->
<g id="node25" class="node">
<title>Node25</title>
<g id="a_node25"><a xlink:href="class_ogre_1_1_metal_depth_pixel_buffer.html" target="_top" xlink:title=" ">
<polygon fill="none" stroke="black" points="472.5,-579 472.5,-598 627.5,-598 627.5,-579 472.5,-579"/>
<text text-anchor="middle" x="550" y="-586" font-family="Helvetica,sans-Serif" font-size="10.00">Ogre::MetalDepthPixelBuffer</text>
</a>
</g>
</g>
<!-- Node12&#45;&gt;Node25 -->
<g id="edge24" class="edge">
<title>Node12&#45;&gt;Node25</title>
<path fill="none" stroke="midnightblue" d="M399.94,-620.81C432.78,-613.69 474.2,-604.71 505.04,-598.03"/>
<polygon fill="midnightblue" stroke="midnightblue" points="399.08,-617.41 390.05,-622.95 400.56,-624.25 399.08,-617.41"/>
</g>
<!-- Node26 -->
<g id="node26" class="node">
<title>Node26</title>
<g id="a_node26"><a xlink:href="class_ogre_1_1_metal_hardware_pixel_buffer.html" target="_top" xlink:title=" ">
<polygon fill="none" stroke="black" points="478,-529.5 478,-559.5 622,-559.5 622,-529.5 478,-529.5"/>
<text text-anchor="start" x="486" y="-547.5" font-family="Helvetica,sans-Serif" font-size="10.00">Ogre::MetalHardwarePixel</text>
<text text-anchor="middle" x="550" y="-536.5" font-family="Helvetica,sans-Serif" font-size="10.00">Buffer</text>
</a>
</g>
</g>
<!-- Node12&#45;&gt;Node26 -->
<g id="edge25" class="edge">
<title>Node12&#45;&gt;Node26</title>
<path fill="none" stroke="midnightblue" d="M369.93,-617.49C392.87,-603.6 428.82,-583.09 462,-569.5 470.87,-565.87 480.45,-562.55 489.91,-559.59"/>
<polygon fill="midnightblue" stroke="midnightblue" points="367.93,-614.61 361.23,-622.82 371.59,-620.58 367.93,-614.61"/>
</g>
<!-- Node16 -->
<g id="node16" class="node">
<title>Node16</title>
<g id="a_node16"><a xlink:href="class_ogre_1_1_g_l3_plus_hardware_pixel_buffer.html" target="_top" xlink:title=" ">
<polygon fill="none" stroke="black" points="675.5,-684.5 675.5,-714.5 830.5,-714.5 830.5,-684.5 675.5,-684.5"/>
<text text-anchor="start" x="683.5" y="-702.5" font-family="Helvetica,sans-Serif" font-size="10.00">Ogre::GL3PlusHardwarePixel</text>
<text text-anchor="middle" x="753" y="-691.5" font-family="Helvetica,sans-Serif" font-size="10.00">Buffer</text>
</a>
</g>
</g>
<!-- Node15&#45;&gt;Node16 -->
<g id="edge15" class="edge">
<title>Node15&#45;&gt;Node16</title>
<path fill="none" stroke="midnightblue" d="M615.78,-650.55C623.3,-652.81 630.83,-655.15 638,-657.5 663.26,-665.77 691.27,-676.07 713.2,-684.41"/>
<polygon fill="midnightblue" stroke="midnightblue" points="616.53,-647.12 605.95,-647.63 614.54,-653.83 616.53,-647.12"/>
</g>
<!-- Node19 -->
<g id="node19" class="node">
<title>Node19</title>
<g id="a_node19"><a xlink:href="class_ogre_1_1_g_l_e_s2_hardware_pixel_buffer.html" target="_top" xlink:title=" ">
<polygon fill="none" stroke="black" points="679.5,-617.5 679.5,-647.5 826.5,-647.5 826.5,-617.5 679.5,-617.5"/>
<text text-anchor="start" x="687.5" y="-635.5" font-family="Helvetica,sans-Serif" font-size="10.00">Ogre::GLES2HardwarePixel</text>
<text text-anchor="middle" x="753" y="-624.5" font-family="Helvetica,sans-Serif" font-size="10.00">Buffer</text>
</a>
</g>
</g>
<!-- Node15&#45;&gt;Node19 -->
<g id="edge18" class="edge">
<title>Node15&#45;&gt;Node19</title>
<path fill="none" stroke="midnightblue" d="M639.38,-632.5C652.68,-632.5 666.26,-632.5 679.18,-632.5"/>
<polygon fill="midnightblue" stroke="midnightblue" points="639.29,-629 629.29,-632.5 639.29,-636 639.29,-629"/>
</g>
<!-- Node22 -->
<g id="node22" class="node">
<title>Node22</title>
<g id="a_node22"><a xlink:href="class_ogre_1_1_g_l_hardware_pixel_buffer.html" target="_top" xlink:title=" ">
<polygon fill="none" stroke="black" points="674,-576 674,-595 832,-595 832,-576 674,-576"/>
<text text-anchor="middle" x="753" y="-583" font-family="Helvetica,sans-Serif" font-size="10.00">Ogre::GLHardwarePixelBuffer</text>
</a>
</g>
</g>
<!-- Node15&#45;&gt;Node22 -->
<g id="edge21" class="edge">
<title>Node15&#45;&gt;Node22</title>
<path fill="none" stroke="midnightblue" d="M624.9,-615.22C654.04,-608.4 686.41,-600.84 711.19,-595.04"/>
<polygon fill="midnightblue" stroke="midnightblue" points="624.09,-611.81 615.15,-617.5 625.68,-618.63 624.09,-611.81"/>
</g>
<!-- Node17 -->
<g id="node17" class="node">
<title>Node17</title>
<g id="a_node17"><a xlink:href="class_ogre_1_1_g_l3_plus_render_buffer.html" target="_top" xlink:title="Renderbuffer surface.">
<polygon fill="none" stroke="black" points="868.5,-728 868.5,-747 1017.5,-747 1017.5,-728 868.5,-728"/>
<text text-anchor="middle" x="943" y="-735" font-family="Helvetica,sans-Serif" font-size="10.00">Ogre::GL3PlusRenderBuffer</text>
</a>
</g>
</g>
<!-- Node16&#45;&gt;Node17 -->
<g id="edge16" class="edge">
<title>Node16&#45;&gt;Node17</title>
<path fill="none" stroke="midnightblue" d="M838.13,-716.51C857.65,-720.45 877.74,-724.51 895,-728"/>
<polygon fill="midnightblue" stroke="midnightblue" points="838.8,-713.07 828.3,-714.52 837.41,-719.93 838.8,-713.07"/>
</g>
<!-- Node18 -->
<g id="node18" class="node">
<title>Node18</title>
<g id="a_node18"><a xlink:href="class_ogre_1_1_g_l3_plus_texture_buffer.html" target="_top" xlink:title="Texture surface.">
<polygon fill="none" stroke="black" points="868,-690 868,-709 1018,-709 1018,-690 868,-690"/>
<text text-anchor="middle" x="943" y="-697" font-family="Helvetica,sans-Serif" font-size="10.00">Ogre::GL3PlusTextureBuffer</text>
</a>
</g>
</g>
<!-- Node16&#45;&gt;Node18 -->
<g id="edge17" class="edge">
<title>Node16&#45;&gt;Node18</title>
<path fill="none" stroke="midnightblue" d="M840.89,-699.5C849.93,-699.5 859.06,-699.5 867.94,-699.5"/>
<polygon fill="midnightblue" stroke="midnightblue" points="840.74,-696 830.74,-699.5 840.74,-703 840.74,-696"/>
</g>
<!-- Node20 -->
<g id="node20" class="node">
<title>Node20</title>
<g id="a_node20"><a xlink:href="class_ogre_1_1_g_l_e_s2_render_buffer.html" target="_top" xlink:title="Renderbuffer surface.">
<polygon fill="none" stroke="black" points="873,-652 873,-671 1013,-671 1013,-652 873,-652"/>
<text text-anchor="middle" x="943" y="-659" font-family="Helvetica,sans-Serif" font-size="10.00">Ogre::GLES2RenderBuffer</text>
</a>
</g>
</g>
<!-- Node19&#45;&gt;Node20 -->
<g id="edge19" class="edge">
<title>Node19&#45;&gt;Node20</title>
<path fill="none" stroke="midnightblue" d="M836.72,-645.26C851.32,-647.51 866.29,-649.82 880.19,-651.97"/>
<polygon fill="midnightblue" stroke="midnightblue" points="837.1,-641.78 826.69,-643.71 836.04,-648.7 837.1,-641.78"/>
</g>
<!-- Node21 -->
<g id="node21" class="node">
<title>Node21</title>
<g id="a_node21"><a xlink:href="class_ogre_1_1_g_l_e_s2_texture_buffer.html" target="_top" xlink:title="Texture surface.">
<polygon fill="none" stroke="black" points="872,-614 872,-633 1014,-633 1014,-614 872,-614"/>
<text text-anchor="middle" x="943" y="-621" font-family="Helvetica,sans-Serif" font-size="10.00">Ogre::GLES2TextureBuffer</text>
</a>
</g>
</g>
<!-- Node19&#45;&gt;Node21 -->
<g id="edge20" class="edge">
<title>Node19&#45;&gt;Node21</title>
<path fill="none" stroke="midnightblue" d="M836.9,-628.53C848.6,-627.97 860.55,-627.4 871.98,-626.85"/>
<polygon fill="midnightblue" stroke="midnightblue" points="836.51,-625.05 826.69,-629.02 836.84,-632.04 836.51,-625.05"/>
</g>
<!-- Node23 -->
<g id="node23" class="node">
<title>Node23</title>
<g id="a_node23"><a xlink:href="class_ogre_1_1_g_l_render_buffer.html" target="_top" xlink:title="Renderbuffer surface.">
<polygon fill="none" stroke="black" points="882,-576 882,-595 1004,-595 1004,-576 882,-576"/>
<text text-anchor="middle" x="943" y="-583" font-family="Helvetica,sans-Serif" font-size="10.00">Ogre::GLRenderBuffer</text>
</a>
</g>
</g>
<!-- Node22&#45;&gt;Node23 -->
<g id="edge22" class="edge">
<title>Node22&#45;&gt;Node23</title>
<path fill="none" stroke="midnightblue" d="M842.31,-585.5C855.72,-585.5 869.29,-585.5 881.92,-585.5"/>
<polygon fill="midnightblue" stroke="midnightblue" points="842.1,-582 832.1,-585.5 842.1,-589 842.1,-582"/>
</g>
<!-- Node24 -->
<g id="node24" class="node">
<title>Node24</title>
<g id="a_node24"><a xlink:href="class_ogre_1_1_g_l_texture_buffer.html" target="_top" xlink:title="Texture surface.">
<polygon fill="none" stroke="black" points="881.5,-538 881.5,-557 1004.5,-557 1004.5,-538 881.5,-538"/>
<text text-anchor="middle" x="943" y="-545" font-family="Helvetica,sans-Serif" font-size="10.00">Ogre::GLTextureBuffer</text>
</a>
</g>
</g>
<!-- Node22&#45;&gt;Node24 -->
<g id="edge23" class="edge">
<title>Node22&#45;&gt;Node24</title>
<path fill="none" stroke="midnightblue" d="M811.44,-573.89C838.17,-568.49 869.59,-562.14 894.9,-557.02"/>
<polygon fill="midnightblue" stroke="midnightblue" points="810.55,-570.5 801.44,-575.91 811.94,-577.36 810.55,-570.5"/>
</g>
<!-- Node27 -->
<g id="node27" class="node">
<title>Node27</title>
<g id="a_node27"><a xlink:href="class_ogre_1_1_metal_texture_buffer.html" target="_top" xlink:title="Texture surface.">
<polygon fill="none" stroke="black" points="683.5,-535 683.5,-554 822.5,-554 822.5,-535 683.5,-535"/>
<text text-anchor="middle" x="753" y="-542" font-family="Helvetica,sans-Serif" font-size="10.00">Ogre::MetalTextureBuffer</text>
</a>
</g>
</g>
<!-- Node26&#45;&gt;Node27 -->
<g id="edge26" class="edge">
<title>Node26&#45;&gt;Node27</title>
<path fill="none" stroke="midnightblue" d="M632.53,-544.5C649.38,-544.5 666.97,-544.5 683.31,-544.5"/>
<polygon fill="midnightblue" stroke="midnightblue" points="632.15,-541 622.15,-544.5 632.15,-548 632.15,-541"/>
</g>
<!-- Node29 -->
<g id="node29" class="node">
<title>Node29</title>
<g id="a_node29"><a xlink:href="class_ogre_1_1_d3_d11_hardware_uniform_buffer.html" target="_top" xlink:title="Specialisation of HardwareBuffer for D3D11.">
<polygon fill="none" stroke="black" points="467,-480.5 467,-510.5 633,-510.5 633,-480.5 467,-480.5"/>
<text text-anchor="start" x="475" y="-498.5" font-family="Helvetica,sans-Serif" font-size="10.00">Ogre::D3D11HardwareUniform</text>
<text text-anchor="middle" x="550" y="-487.5" font-family="Helvetica,sans-Serif" font-size="10.00">Buffer</text>
</a>
</g>
</g>
<!-- Node28&#45;&gt;Node29 -->
<g id="edge28" class="edge">
<title>Node28&#45;&gt;Node29</title>
<path fill="none" stroke="midnightblue" d="M395.41,-458.43C422.9,-465.06 457.38,-473.39 486.7,-480.46"/>
<polygon fill="midnightblue" stroke="midnightblue" points="396.16,-455.01 385.62,-456.06 394.52,-461.81 396.16,-455.01"/>
</g>
<!-- Node30 -->
<g id="node30" class="node">
<title>Node30</title>
<g id="a_node30"><a xlink:href="class_ogre_1_1_default_hardware_uniform_buffer.html" target="_top" xlink:title="Specialisation of HardwareUniformBuffer for emulation.">
<polygon fill="none" stroke="black" points="465.5,-431.5 465.5,-461.5 634.5,-461.5 634.5,-431.5 465.5,-431.5"/>
<text text-anchor="start" x="473.5" y="-449.5" font-family="Helvetica,sans-Serif" font-size="10.00">Ogre::DefaultHardwareUniform</text>
<text text-anchor="middle" x="550" y="-438.5" font-family="Helvetica,sans-Serif" font-size="10.00">Buffer</text>
</a>
</g>
</g>
<!-- Node28&#45;&gt;Node30 -->
<g id="edge29" class="edge">
<title>Node28&#45;&gt;Node30</title>
<path fill="none" stroke="midnightblue" d="M436.25,-446.5C445.93,-446.5 455.75,-446.5 465.35,-446.5"/>
<polygon fill="midnightblue" stroke="midnightblue" points="436.23,-443 426.23,-446.5 436.23,-450 436.23,-443"/>
</g>
<!-- Node31 -->
<g id="node31" class="node">
<title>Node31</title>
<g id="a_node31"><a xlink:href="class_ogre_1_1_g_l3_plus_hardware_uniform_buffer.html" target="_top" xlink:title="Specialisation of HardwareUniformBuffer for OpenGL.">
<polygon fill="none" stroke="black" points="464,-382.5 464,-412.5 636,-412.5 636,-382.5 464,-382.5"/>
<text text-anchor="start" x="472" y="-400.5" font-family="Helvetica,sans-Serif" font-size="10.00">Ogre::GL3PlusHardwareUniform</text>
<text text-anchor="middle" x="550" y="-389.5" font-family="Helvetica,sans-Serif" font-size="10.00">Buffer</text>
</a>
</g>
</g>
<!-- Node28&#45;&gt;Node31 -->
<g id="edge30" class="edge">
<title>Node28&#45;&gt;Node31</title>
<path fill="none" stroke="midnightblue" d="M395.41,-434.57C422.9,-427.94 457.38,-419.61 486.7,-412.54"/>
<polygon fill="midnightblue" stroke="midnightblue" points="394.52,-431.19 385.62,-436.94 396.16,-437.99 394.52,-431.19"/>
</g>
<!-- Node32 -->
<g id="node32" class="node">
<title>Node32</title>
<g id="a_node32"><a xlink:href="class_ogre_1_1_g_l_e_s2_hardware_uniform_buffer.html" target="_top" xlink:title="Specialisation of HardwareUniformBuffer for OpenGL.">
<polygon fill="none" stroke="black" points="468,-333.5 468,-363.5 632,-363.5 632,-333.5 468,-333.5"/>
<text text-anchor="start" x="476" y="-351.5" font-family="Helvetica,sans-Serif" font-size="10.00">Ogre::GLES2HardwareUniform</text>
<text text-anchor="middle" x="550" y="-340.5" font-family="Helvetica,sans-Serif" font-size="10.00">Buffer</text>
</a>
</g>
</g>
<!-- Node28&#45;&gt;Node32 -->
<g id="edge31" class="edge">
<title>Node28&#45;&gt;Node32</title>
<path fill="none" stroke="midnightblue" d="M366.22,-430.93C388.57,-414.38 426.16,-388.44 462,-372.5 469.44,-369.19 477.45,-366.23 485.49,-363.62"/>
<polygon fill="midnightblue" stroke="midnightblue" points="364.06,-428.17 358.17,-436.98 368.27,-433.77 364.06,-428.17"/>
</g>
<!-- Node34 -->
<g id="node34" class="node">
<title>Node34</title>
<g id="a_node34"><a xlink:href="class_ogre_1_1_d3_d11_hardware_vertex_buffer.html" target="_top" xlink:title="Specialisation of HardwareVertexBuffer for D3D11.">
<polygon fill="none" stroke="black" points="471,-284.5 471,-314.5 629,-314.5 629,-284.5 471,-284.5"/>
<text text-anchor="start" x="479" y="-302.5" font-family="Helvetica,sans-Serif" font-size="10.00">Ogre::D3D11HardwareVertex</text>
<text text-anchor="middle" x="550" y="-291.5" font-family="Helvetica,sans-Serif" font-size="10.00">Buffer</text>
</a>
</g>
</g>
<!-- Node33&#45;&gt;Node34 -->
<g id="edge33" class="edge">
<title>Node33&#45;&gt;Node34</title>
<path fill="none" stroke="midnightblue" d="M361.74,-194.46C382.66,-216.05 421.7,-253.1 462,-274.5 469.22,-278.33 477.09,-281.64 485.06,-284.48"/>
<polygon fill="midnightblue" stroke="midnightblue" points="364.07,-191.84 354.64,-187.01 359,-196.67 364.07,-191.84"/>
</g>
<!-- Node35 -->
<g id="node35" class="node">
<title>Node35</title>
<g id="a_node35"><a xlink:href="class_ogre_1_1_d3_d9_hardware_vertex_buffer.html" target="_top" xlink:title="Specialisation of HardwareVertexBuffer for D3D9.">
<polygon fill="none" stroke="black" points="474,-235.5 474,-265.5 626,-265.5 626,-235.5 474,-235.5"/>
<text text-anchor="start" x="482" y="-253.5" font-family="Helvetica,sans-Serif" font-size="10.00">Ogre::D3D9HardwareVertex</text>
<text text-anchor="middle" x="550" y="-242.5" font-family="Helvetica,sans-Serif" font-size="10.00">Buffer</text>
</a>
</g>
</g>
<!-- Node33&#45;&gt;Node35 -->
<g id="edge34" class="edge">
<title>Node33&#45;&gt;Node35</title>
<path fill="none" stroke="midnightblue" d="M376.41,-191.19C399.6,-201.35 432.47,-215.19 462,-225.5 471.94,-228.97 482.64,-232.34 493.01,-235.42"/>
<polygon fill="midnightblue" stroke="midnightblue" points="377.66,-187.91 367.1,-187.07 374.84,-194.32 377.66,-187.91"/>
</g>
<!-- Node36 -->
<g id="node36" class="node">
<title>Node36</title>
<g id="a_node36"><a xlink:href="class_ogre_1_1_default_hardware_vertex_buffer.html" target="_top" xlink:title="Specialisation of HardwareVertexBuffer for emulation.">
<polygon fill="none" stroke="black" points="469.5,-186.5 469.5,-216.5 630.5,-216.5 630.5,-186.5 469.5,-186.5"/>
<text text-anchor="start" x="477.5" y="-204.5" font-family="Helvetica,sans-Serif" font-size="10.00">Ogre::DefaultHardwareVertex</text>
<text text-anchor="middle" x="550" y="-193.5" font-family="Helvetica,sans-Serif" font-size="10.00">Buffer</text>
</a>
</g>
</g>
<!-- Node33&#45;&gt;Node36 -->
<g id="edge35" class="edge">
<title>Node33&#45;&gt;Node36</title>
<path fill="none" stroke="midnightblue" d="M432.39,-187.71C444.65,-189.16 457.22,-190.65 469.36,-192.08"/>
<polygon fill="midnightblue" stroke="midnightblue" points="432.51,-184.2 422.17,-186.5 431.69,-191.15 432.51,-184.2"/>
</g>
<!-- Node37 -->
<g id="node37" class="node">
<title>Node37</title>
<g id="a_node37"><a xlink:href="class_ogre_1_1_g_l3_plus_hardware_vertex_buffer.html" target="_top" xlink:title="Specialisation of HardwareVertexBuffer for OpenGL.">
<polygon fill="none" stroke="black" points="468,-137.5 468,-167.5 632,-167.5 632,-137.5 468,-137.5"/>
<text text-anchor="start" x="476" y="-155.5" font-family="Helvetica,sans-Serif" font-size="10.00">Ogre::GL3PlusHardwareVertex</text>
<text text-anchor="middle" x="550" y="-144.5" font-family="Helvetica,sans-Serif" font-size="10.00">Buffer</text>
</a>
</g>
</g>
<!-- Node33&#45;&gt;Node37 -->
<g id="edge36" class="edge">
<title>Node33&#45;&gt;Node37</title>
<path fill="none" stroke="midnightblue" d="M432.44,-166.85C444.23,-165.4 456.3,-163.92 467.99,-162.48"/>
<polygon fill="midnightblue" stroke="midnightblue" points="431.66,-163.42 422.17,-168.12 432.52,-170.37 431.66,-163.42"/>
</g>
<!-- Node38 -->
<g id="node38" class="node">
<title>Node38</title>
<g id="a_node38"><a xlink:href="class_ogre_1_1_g_l_e_s2_hardware_vertex_buffer.html" target="_top" xlink:title="Specialisation of HardwareVertexBuffer for OpenGL ES.">
<polygon fill="none" stroke="black" points="472.5,-88.5 472.5,-118.5 627.5,-118.5 627.5,-88.5 472.5,-88.5"/>
<text text-anchor="start" x="480.5" y="-106.5" font-family="Helvetica,sans-Serif" font-size="10.00">Ogre::GLES2HardwareVertex</text>
<text text-anchor="middle" x="550" y="-95.5" font-family="Helvetica,sans-Serif" font-size="10.00">Buffer</text>
</a>
</g>
</g>
<!-- Node33&#45;&gt;Node38 -->
<g id="edge37" class="edge">
<title>Node33&#45;&gt;Node38</title>
<path fill="none" stroke="midnightblue" d="M375.06,-163.65C398.26,-152.91 431.77,-138.13 462,-127.5 471.02,-124.33 480.68,-121.31 490.16,-118.54"/>
<polygon fill="midnightblue" stroke="midnightblue" points="373.37,-160.57 365.78,-167.98 376.33,-166.92 373.37,-160.57"/>
</g>
<!-- Node39 -->
<g id="node39" class="node">
<title>Node39</title>
<g id="a_node39"><a xlink:href="class_ogre_1_1_g_l_hardware_vertex_buffer.html" target="_top" xlink:title="Specialisation of HardwareVertexBuffer for OpenGL.">
<polygon fill="none" stroke="black" points="466.5,-50 466.5,-69 633.5,-69 633.5,-50 466.5,-50"/>
<text text-anchor="middle" x="550" y="-57" font-family="Helvetica,sans-Serif" font-size="10.00">Ogre::GLHardwareVertexBuffer</text>
</a>
</g>
</g>
<!-- Node33&#45;&gt;Node39 -->
<g id="edge38" class="edge">
<title>Node33&#45;&gt;Node39</title>
<path fill="none" stroke="midnightblue" d="M361.14,-160.1C381.67,-137.66 420.57,-99.06 462,-78.5 469.75,-74.65 478.28,-71.58 486.87,-69.12"/>
<polygon fill="midnightblue" stroke="midnightblue" points="358.27,-158.06 354.2,-167.84 363.48,-162.73 358.27,-158.06"/>
</g>
<!-- Node40 -->
<g id="node40" class="node">
<title>Node40</title>
<g id="a_node40"><a xlink:href="class_ogre_1_1_metal_hardware_vertex_buffer.html" target="_top" xlink:title="Specialisation of HardwareVertexBuffer for Metal.">
<polygon fill="none" stroke="black" points="474,-0.5 474,-30.5 626,-30.5 626,-0.5 474,-0.5"/>
<text text-anchor="start" x="482" y="-18.5" font-family="Helvetica,sans-Serif" font-size="10.00">Ogre::MetalHardwareVertex</text>
<text text-anchor="middle" x="550" y="-7.5" font-family="Helvetica,sans-Serif" font-size="10.00">Buffer</text>
</a>
</g>
</g>
<!-- Node33&#45;&gt;Node40 -->
<g id="edge39" class="edge">
<title>Node33&#45;&gt;Node40</title>
<path fill="none" stroke="midnightblue" d="M356.62,-158.99C374.53,-129.46 413.56,-71.82 462,-40.5 467.94,-36.66 474.48,-33.4 481.22,-30.63"/>
<polygon fill="midnightblue" stroke="midnightblue" points="353.46,-157.46 351.38,-167.85 359.48,-161.03 353.46,-157.46"/>
</g>
</g>
</svg>
