<?xml version="1.0" encoding="UTF-8" standalone="no"?>
<!DOCTYPE svg PUBLIC "-//W3C//DTD SVG 1.1//EN"
 "http://www.w3.org/Graphics/SVG/1.1/DTD/svg11.dtd">
<!-- Generated by graphviz version 2.43.0 (0)
 -->
<!-- Title: Ogre::GLHardwarePixelBufferCommon Pages: 1 -->
<svg width="992pt" height="218pt"
 viewBox="0.00 0.00 992.00 218.00" xmlns="http://www.w3.org/2000/svg" xmlns:xlink="http://www.w3.org/1999/xlink">
<g id="graph0" class="graph" transform="scale(1 1) rotate(0) translate(4 214)">
<title>Ogre::GLHardwarePixelBufferCommon</title>
<!-- Node1 -->
<g id="node1" class="node">
<title>Node1</title>
<g id="a_node1"><a xlink:title=" ">
<polygon fill="#bfbfbf" stroke="black" points="446,-88 446,-118 604,-118 604,-88 446,-88"/>
<text text-anchor="start" x="454" y="-106" font-family="Helvetica,sans-Serif" font-size="10.00">Ogre::GLHardwarePixelBuffer</text>
<text text-anchor="middle" x="525" y="-95" font-family="Helvetica,sans-Serif" font-size="10.00">Common</text>
</a>
</g>
</g>
<!-- Node5 -->
<g id="node5" class="node">
<title>Node5</title>
<g id="a_node5"><a xlink:href="class_ogre_1_1_g_l3_plus_hardware_pixel_buffer.html" target="_top" xlink:title=" ">
<polygon fill="none" stroke="black" points="641.5,-147 641.5,-177 796.5,-177 796.5,-147 641.5,-147"/>
<text text-anchor="start" x="649.5" y="-165" font-family="Helvetica,sans-Serif" font-size="10.00">Ogre::GL3PlusHardwarePixel</text>
<text text-anchor="middle" x="719" y="-154" font-family="Helvetica,sans-Serif" font-size="10.00">Buffer</text>
</a>
</g>
</g>
<!-- Node1&#45;&gt;Node5 -->
<g id="edge4" class="edge">
<title>Node1&#45;&gt;Node5</title>
<path fill="none" stroke="midnightblue" d="M584.68,-121.03C611.71,-129.34 643.43,-139.09 669.14,-146.99"/>
<polygon fill="midnightblue" stroke="midnightblue" points="585.53,-117.63 574.95,-118.04 583.48,-124.32 585.53,-117.63"/>
</g>
<!-- Node8 -->
<g id="node8" class="node">
<title>Node8</title>
<g id="a_node8"><a xlink:href="class_ogre_1_1_g_l_e_s2_hardware_pixel_buffer.html" target="_top" xlink:title=" ">
<polygon fill="none" stroke="black" points="645.5,-88 645.5,-118 792.5,-118 792.5,-88 645.5,-88"/>
<text text-anchor="start" x="653.5" y="-106" font-family="Helvetica,sans-Serif" font-size="10.00">Ogre::GLES2HardwarePixel</text>
<text text-anchor="middle" x="719" y="-95" font-family="Helvetica,sans-Serif" font-size="10.00">Buffer</text>
</a>
</g>
</g>
<!-- Node1&#45;&gt;Node8 -->
<g id="edge7" class="edge">
<title>Node1&#45;&gt;Node8</title>
<path fill="none" stroke="midnightblue" d="M614.37,-103C624.7,-103 635.15,-103 645.24,-103"/>
<polygon fill="midnightblue" stroke="midnightblue" points="614.09,-99.5 604.09,-103 614.09,-106.5 614.09,-99.5"/>
</g>
<!-- Node11 -->
<g id="node11" class="node">
<title>Node11</title>
<g id="a_node11"><a xlink:href="class_ogre_1_1_g_l_hardware_pixel_buffer.html" target="_top" xlink:title=" ">
<polygon fill="none" stroke="black" points="640,-38.5 640,-57.5 798,-57.5 798,-38.5 640,-38.5"/>
<text text-anchor="middle" x="719" y="-45.5" font-family="Helvetica,sans-Serif" font-size="10.00">Ogre::GLHardwarePixelBuffer</text>
</a>
</g>
</g>
<!-- Node1&#45;&gt;Node11 -->
<g id="edge10" class="edge">
<title>Node1&#45;&gt;Node11</title>
<path fill="none" stroke="midnightblue" d="M588.21,-85.18C620.28,-75.99 658.11,-65.16 684.62,-57.56"/>
<polygon fill="midnightblue" stroke="midnightblue" points="587.11,-81.85 578.46,-87.97 589.04,-88.58 587.11,-81.85"/>
</g>
<!-- Node2 -->
<g id="node2" class="node">
<title>Node2</title>
<g id="a_node2"><a xlink:href="class_ogre_1_1_hardware_pixel_buffer.html" target="_top" xlink:title="Specialisation of HardwareBuffer for a pixel buffer.">
<polygon fill="none" stroke="black" points="264,-93.5 264,-112.5 410,-112.5 410,-93.5 264,-93.5"/>
<text text-anchor="middle" x="337" y="-100.5" font-family="Helvetica,sans-Serif" font-size="10.00">Ogre::HardwarePixelBuffer</text>
</a>
</g>
</g>
<!-- Node2&#45;&gt;Node1 -->
<g id="edge1" class="edge">
<title>Node2&#45;&gt;Node1</title>
<path fill="none" stroke="midnightblue" d="M420.37,-103C428.79,-103 437.32,-103 445.7,-103"/>
<polygon fill="midnightblue" stroke="midnightblue" points="420.18,-99.5 410.18,-103 420.18,-106.5 420.18,-99.5"/>
</g>
<!-- Node3 -->
<g id="node3" class="node">
<title>Node3</title>
<g id="a_node3"><a xlink:href="class_ogre_1_1_hardware_buffer.html" target="_top" xlink:title="Abstract class defining common features of hardware buffers.">
<polygon fill="none" stroke="black" points="106,-93.5 106,-112.5 228,-112.5 228,-93.5 106,-93.5"/>
<text text-anchor="middle" x="167" y="-100.5" font-family="Helvetica,sans-Serif" font-size="10.00">Ogre::HardwareBuffer</text>
</a>
</g>
</g>
<!-- Node3&#45;&gt;Node2 -->
<g id="edge2" class="edge">
<title>Node3&#45;&gt;Node2</title>
<path fill="none" stroke="midnightblue" d="M238.36,-103C246.81,-103 255.44,-103 263.91,-103"/>
<polygon fill="midnightblue" stroke="midnightblue" points="238.18,-99.5 228.18,-103 238.18,-106.5 238.18,-99.5"/>
</g>
<!-- Node4 -->
<g id="node4" class="node">
<title>Node4</title>
<g id="a_node4"><a xlink:title=" ">
<polygon fill="none" stroke="#bfbfbf" points="0,-93.5 0,-112.5 70,-112.5 70,-93.5 0,-93.5"/>
<text text-anchor="middle" x="35" y="-100.5" font-family="Helvetica,sans-Serif" font-size="10.00">BufferAlloc</text>
</a>
</g>
</g>
<!-- Node4&#45;&gt;Node3 -->
<g id="edge3" class="edge">
<title>Node4&#45;&gt;Node3</title>
<path fill="none" stroke="midnightblue" d="M80.3,-103C88.55,-103 97.3,-103 105.93,-103"/>
<polygon fill="midnightblue" stroke="midnightblue" points="80.16,-99.5 70.16,-103 80.16,-106.5 80.16,-99.5"/>
</g>
<!-- Node6 -->
<g id="node6" class="node">
<title>Node6</title>
<g id="a_node6"><a xlink:href="class_ogre_1_1_g_l3_plus_render_buffer.html" target="_top" xlink:title="Renderbuffer surface.">
<polygon fill="none" stroke="black" points="834.5,-190.5 834.5,-209.5 983.5,-209.5 983.5,-190.5 834.5,-190.5"/>
<text text-anchor="middle" x="909" y="-197.5" font-family="Helvetica,sans-Serif" font-size="10.00">Ogre::GL3PlusRenderBuffer</text>
</a>
</g>
</g>
<!-- Node5&#45;&gt;Node6 -->
<g id="edge5" class="edge">
<title>Node5&#45;&gt;Node6</title>
<path fill="none" stroke="midnightblue" d="M804.13,-179.01C823.65,-182.95 843.74,-187.01 861,-190.5"/>
<polygon fill="midnightblue" stroke="midnightblue" points="804.8,-175.57 794.3,-177.02 803.41,-182.43 804.8,-175.57"/>
</g>
<!-- Node7 -->
<g id="node7" class="node">
<title>Node7</title>
<g id="a_node7"><a xlink:href="class_ogre_1_1_g_l3_plus_texture_buffer.html" target="_top" xlink:title="Texture surface.">
<polygon fill="none" stroke="black" points="834,-152.5 834,-171.5 984,-171.5 984,-152.5 834,-152.5"/>
<text text-anchor="middle" x="909" y="-159.5" font-family="Helvetica,sans-Serif" font-size="10.00">Ogre::GL3PlusTextureBuffer</text>
</a>
</g>
</g>
<!-- Node5&#45;&gt;Node7 -->
<g id="edge6" class="edge">
<title>Node5&#45;&gt;Node7</title>
<path fill="none" stroke="midnightblue" d="M806.89,-162C815.93,-162 825.06,-162 833.94,-162"/>
<polygon fill="midnightblue" stroke="midnightblue" points="806.74,-158.5 796.74,-162 806.74,-165.5 806.74,-158.5"/>
</g>
<!-- Node9 -->
<g id="node9" class="node">
<title>Node9</title>
<g id="a_node9"><a xlink:href="class_ogre_1_1_g_l_e_s2_render_buffer.html" target="_top" xlink:title="Renderbuffer surface.">
<polygon fill="none" stroke="black" points="839,-114.5 839,-133.5 979,-133.5 979,-114.5 839,-114.5"/>
<text text-anchor="middle" x="909" y="-121.5" font-family="Helvetica,sans-Serif" font-size="10.00">Ogre::GLES2RenderBuffer</text>
</a>
</g>
</g>
<!-- Node8&#45;&gt;Node9 -->
<g id="edge8" class="edge">
<title>Node8&#45;&gt;Node9</title>
<path fill="none" stroke="midnightblue" d="M802.75,-112.24C814.82,-113.59 827.14,-114.97 838.9,-116.28"/>
<polygon fill="midnightblue" stroke="midnightblue" points="803.01,-108.75 792.69,-111.12 802.24,-115.71 803.01,-108.75"/>
</g>
<!-- Node10 -->
<g id="node10" class="node">
<title>Node10</title>
<g id="a_node10"><a xlink:href="class_ogre_1_1_g_l_e_s2_texture_buffer.html" target="_top" xlink:title="Texture surface.">
<polygon fill="none" stroke="black" points="838,-76.5 838,-95.5 980,-95.5 980,-76.5 838,-76.5"/>
<text text-anchor="middle" x="909" y="-83.5" font-family="Helvetica,sans-Serif" font-size="10.00">Ogre::GLES2TextureBuffer</text>
</a>
</g>
</g>
<!-- Node8&#45;&gt;Node10 -->
<g id="edge9" class="edge">
<title>Node8&#45;&gt;Node10</title>
<path fill="none" stroke="midnightblue" d="M802.9,-95.5C814.6,-94.45 826.55,-93.37 837.98,-92.33"/>
<polygon fill="midnightblue" stroke="midnightblue" points="802.33,-92.04 792.69,-96.43 802.96,-99.01 802.33,-92.04"/>
</g>
<!-- Node12 -->
<g id="node12" class="node">
<title>Node12</title>
<g id="a_node12"><a xlink:href="class_ogre_1_1_g_l_render_buffer.html" target="_top" xlink:title="Renderbuffer surface.">
<polygon fill="none" stroke="black" points="848,-38.5 848,-57.5 970,-57.5 970,-38.5 848,-38.5"/>
<text text-anchor="middle" x="909" y="-45.5" font-family="Helvetica,sans-Serif" font-size="10.00">Ogre::GLRenderBuffer</text>
</a>
</g>
</g>
<!-- Node11&#45;&gt;Node12 -->
<g id="edge11" class="edge">
<title>Node11&#45;&gt;Node12</title>
<path fill="none" stroke="midnightblue" d="M808.31,-48C821.72,-48 835.29,-48 847.92,-48"/>
<polygon fill="midnightblue" stroke="midnightblue" points="808.1,-44.5 798.1,-48 808.1,-51.5 808.1,-44.5"/>
</g>
<!-- Node13 -->
<g id="node13" class="node">
<title>Node13</title>
<g id="a_node13"><a xlink:href="class_ogre_1_1_g_l_texture_buffer.html" target="_top" xlink:title="Texture surface.">
<polygon fill="none" stroke="black" points="847.5,-0.5 847.5,-19.5 970.5,-19.5 970.5,-0.5 847.5,-0.5"/>
<text text-anchor="middle" x="909" y="-7.5" font-family="Helvetica,sans-Serif" font-size="10.00">Ogre::GLTextureBuffer</text>
</a>
</g>
</g>
<!-- Node11&#45;&gt;Node13 -->
<g id="edge12" class="edge">
<title>Node11&#45;&gt;Node13</title>
<path fill="none" stroke="midnightblue" d="M777.44,-36.39C804.17,-30.99 835.59,-24.64 860.9,-19.52"/>
<polygon fill="midnightblue" stroke="midnightblue" points="776.55,-33 767.44,-38.41 777.94,-39.86 776.55,-33"/>
</g>
</g>
</svg>
