<?xml version="1.0" encoding="UTF-8" standalone="no"?>
<!DOCTYPE svg PUBLIC "-//W3C//DTD SVG 1.1//EN"
 "http://www.w3.org/Graphics/SVG/1.1/DTD/svg11.dtd">
<!-- Generated by graphviz version 2.43.0 (0)
 -->
<!-- Title: Ogre::LodStrategy Pages: 1 -->
<svg width="639pt" height="165pt"
 viewBox="0.00 0.00 639.00 164.50" xmlns="http://www.w3.org/2000/svg" xmlns:xlink="http://www.w3.org/1999/xlink">
<g id="graph0" class="graph" transform="scale(1 1) rotate(0) translate(4 160.5)">
<title>Ogre::LodStrategy</title>
<!-- Node1 -->
<g id="node1" class="node">
<title>Node1</title>
<g id="a_node1"><a xlink:title="Strategy for determining level of detail.">
<polygon fill="#bfbfbf" stroke="black" points="94,-77 94,-96 198,-96 198,-77 94,-77"/>
<text text-anchor="middle" x="146" y="-84" font-family="Helvetica,sans-Serif" font-size="10.00">Ogre::LodStrategy</text>
</a>
</g>
</g>
<!-- Node3 -->
<g id="node3" class="node">
<title>Node3</title>
<g id="a_node3"><a xlink:href="class_ogre_1_1_distance_lod_strategy_base.html" target="_top" xlink:title="Level of detail strategy based on distance from camera.">
<polygon fill="none" stroke="black" points="238.5,-99 238.5,-118 409.5,-118 409.5,-99 238.5,-99"/>
<text text-anchor="middle" x="324" y="-106" font-family="Helvetica,sans-Serif" font-size="10.00">Ogre::DistanceLodStrategyBase</text>
</a>
</g>
</g>
<!-- Node1&#45;&gt;Node3 -->
<g id="edge2" class="edge">
<title>Node1&#45;&gt;Node3</title>
<path fill="none" stroke="midnightblue" d="M208.53,-94.19C220.85,-95.73 233.94,-97.37 246.7,-98.96"/>
<polygon fill="midnightblue" stroke="midnightblue" points="208.74,-90.69 198.38,-92.92 207.87,-97.64 208.74,-90.69"/>
</g>
<!-- Node6 -->
<g id="node6" class="node">
<title>Node6</title>
<g id="a_node6"><a xlink:href="class_ogre_1_1_pixel_count_lod_strategy_base.html" target="_top" xlink:title="Abstract base class for level of detail strategy based on pixel count approximations from bounding sp...">
<polygon fill="none" stroke="black" points="234,-55 234,-74 414,-74 414,-55 234,-55"/>
<text text-anchor="middle" x="324" y="-62" font-family="Helvetica,sans-Serif" font-size="10.00">Ogre::PixelCountLodStrategyBase</text>
</a>
</g>
</g>
<!-- Node1&#45;&gt;Node6 -->
<g id="edge5" class="edge">
<title>Node1&#45;&gt;Node6</title>
<path fill="none" stroke="midnightblue" d="M208.53,-78.81C220.85,-77.27 233.94,-75.63 246.7,-74.04"/>
<polygon fill="midnightblue" stroke="midnightblue" points="207.87,-75.36 198.38,-80.08 208.74,-82.31 207.87,-75.36"/>
</g>
<!-- Node2 -->
<g id="node2" class="node">
<title>Node2</title>
<g id="a_node2"><a xlink:title=" ">
<polygon fill="none" stroke="#bfbfbf" points="0,-77 0,-96 58,-96 58,-77 0,-77"/>
<text text-anchor="middle" x="29" y="-84" font-family="Helvetica,sans-Serif" font-size="10.00">LodAlloc</text>
</a>
</g>
</g>
<!-- Node2&#45;&gt;Node1 -->
<g id="edge1" class="edge">
<title>Node2&#45;&gt;Node1</title>
<path fill="none" stroke="midnightblue" d="M68.16,-86.5C76.38,-86.5 85.2,-86.5 93.82,-86.5"/>
<polygon fill="midnightblue" stroke="midnightblue" points="68.13,-83 58.13,-86.5 68.13,-90 68.13,-83"/>
</g>
<!-- Node4 -->
<g id="node4" class="node">
<title>Node4</title>
<g id="a_node4"><a xlink:href="class_ogre_1_1_distance_lod_box_strategy.html" target="_top" xlink:title="Level of detail strategy based on distance from camera to an object&#39;s bounding box.">
<polygon fill="none" stroke="black" points="457.5,-137 457.5,-156 623.5,-156 623.5,-137 457.5,-137"/>
<text text-anchor="middle" x="540.5" y="-144" font-family="Helvetica,sans-Serif" font-size="10.00">Ogre::DistanceLodBoxStrategy</text>
</a>
</g>
</g>
<!-- Node3&#45;&gt;Node4 -->
<g id="edge3" class="edge">
<title>Node3&#45;&gt;Node4</title>
<path fill="none" stroke="midnightblue" d="M389.05,-119.85C419.83,-125.3 456.3,-131.76 485.63,-136.96"/>
<polygon fill="midnightblue" stroke="midnightblue" points="389.31,-116.34 378.85,-118.04 388.09,-123.23 389.31,-116.34"/>
</g>
<!-- Node5 -->
<g id="node5" class="node">
<title>Node5</title>
<g id="a_node5"><a xlink:href="class_ogre_1_1_distance_lod_sphere_strategy.html" target="_top" xlink:title="Level of detail strategy based on distance from camera to an object&#39;s bounding sphere.">
<polygon fill="none" stroke="black" points="450,-99 450,-118 631,-118 631,-99 450,-99"/>
<text text-anchor="middle" x="540.5" y="-106" font-family="Helvetica,sans-Serif" font-size="10.00">Ogre::DistanceLodSphereStrategy</text>
</a>
</g>
</g>
<!-- Node3&#45;&gt;Node5 -->
<g id="edge4" class="edge">
<title>Node3&#45;&gt;Node5</title>
<path fill="none" stroke="midnightblue" d="M420,-108.5C429.87,-108.5 439.89,-108.5 449.7,-108.5"/>
<polygon fill="midnightblue" stroke="midnightblue" points="419.78,-105 409.78,-108.5 419.78,-112 419.78,-105"/>
</g>
<!-- Node7 -->
<g id="node7" class="node">
<title>Node7</title>
<g id="a_node7"><a xlink:href="class_ogre_1_1_absolute_pixel_count_lod_strategy.html" target="_top" xlink:title=" ">
<polygon fill="none" stroke="black" points="470.5,-49.5 470.5,-79.5 610.5,-79.5 610.5,-49.5 470.5,-49.5"/>
<text text-anchor="start" x="478.5" y="-67.5" font-family="Helvetica,sans-Serif" font-size="10.00">Ogre::AbsolutePixelCount</text>
<text text-anchor="middle" x="540.5" y="-56.5" font-family="Helvetica,sans-Serif" font-size="10.00">LodStrategy</text>
</a>
</g>
</g>
<!-- Node6&#45;&gt;Node7 -->
<g id="edge6" class="edge">
<title>Node6&#45;&gt;Node7</title>
<path fill="none" stroke="midnightblue" d="M424.28,-64.5C439.83,-64.5 455.61,-64.5 470.29,-64.5"/>
<polygon fill="midnightblue" stroke="midnightblue" points="424.1,-61 414.1,-64.5 424.1,-68 424.1,-61"/>
</g>
<!-- Node8 -->
<g id="node8" class="node">
<title>Node8</title>
<g id="a_node8"><a xlink:href="class_ogre_1_1_screen_ratio_pixel_count_lod_strategy.html" target="_top" xlink:title=" ">
<polygon fill="none" stroke="black" points="462.5,-0.5 462.5,-30.5 618.5,-30.5 618.5,-0.5 462.5,-0.5"/>
<text text-anchor="start" x="470.5" y="-18.5" font-family="Helvetica,sans-Serif" font-size="10.00">Ogre::ScreenRatioPixelCount</text>
<text text-anchor="middle" x="540.5" y="-7.5" font-family="Helvetica,sans-Serif" font-size="10.00">LodStrategy</text>
</a>
</g>
</g>
<!-- Node6&#45;&gt;Node8 -->
<g id="edge7" class="edge">
<title>Node6&#45;&gt;Node8</title>
<path fill="none" stroke="midnightblue" d="M376.57,-52.72C405.67,-46.07 442.34,-37.69 473.52,-30.57"/>
<polygon fill="midnightblue" stroke="midnightblue" points="375.58,-49.36 366.61,-54.99 377.14,-56.18 375.58,-49.36"/>
</g>
</g>
</svg>
