<?xml version="1.0" encoding="UTF-8" standalone="no"?>
<!DOCTYPE svg PUBLIC "-//W3C//DTD SVG 1.1//EN"
 "http://www.w3.org/Graphics/SVG/1.1/DTD/svg11.dtd">
<!-- Generated by graphviz version 2.43.0 (0)
 -->
<!-- Title: Ogre::GL3PlusHardwarePixelBuffer Pages: 1 -->
<svg width="325pt" height="330pt"
 viewBox="0.00 0.00 324.50 330.00" xmlns="http://www.w3.org/2000/svg" xmlns:xlink="http://www.w3.org/1999/xlink">
<g id="graph0" class="graph" transform="scale(1 1) rotate(0) translate(4 326)">
<title>Ogre::GL3PlusHardwarePixelBuffer</title>
<!-- Node1 -->
<g id="node1" class="node">
<title>Node1</title>
<g id="a_node1"><a xlink:title=" ">
<polygon fill="#bfbfbf" stroke="black" points="80,-56.5 80,-86.5 235,-86.5 235,-56.5 80,-56.5"/>
<text text-anchor="start" x="88" y="-74.5" font-family="Helvetica,sans-Serif" font-size="10.00">Ogre::GL3PlusHardwarePixel</text>
<text text-anchor="middle" x="157.5" y="-63.5" font-family="Helvetica,sans-Serif" font-size="10.00">Buffer</text>
</a>
</g>
</g>
<!-- Node6 -->
<g id="node6" class="node">
<title>Node6</title>
<g id="a_node6"><a xlink:href="class_ogre_1_1_g_l3_plus_render_buffer.html" target="_top" xlink:title="Renderbuffer surface.">
<polygon fill="none" stroke="black" points="0,-0.5 0,-19.5 149,-19.5 149,-0.5 0,-0.5"/>
<text text-anchor="middle" x="74.5" y="-7.5" font-family="Helvetica,sans-Serif" font-size="10.00">Ogre::GL3PlusRenderBuffer</text>
</a>
</g>
</g>
<!-- Node1&#45;&gt;Node6 -->
<g id="edge5" class="edge">
<title>Node1&#45;&gt;Node6</title>
<path fill="none" stroke="midnightblue" d="M129.58,-50.48C114.96,-40 97.81,-27.71 86.58,-19.66"/>
<polygon fill="midnightblue" stroke="midnightblue" points="127.66,-53.42 137.83,-56.4 131.74,-47.73 127.66,-53.42"/>
</g>
<!-- Node7 -->
<g id="node7" class="node">
<title>Node7</title>
<g id="a_node7"><a xlink:href="class_ogre_1_1_g_l3_plus_texture_buffer.html" target="_top" xlink:title="Texture surface.">
<polygon fill="none" stroke="black" points="166.5,-0.5 166.5,-19.5 316.5,-19.5 316.5,-0.5 166.5,-0.5"/>
<text text-anchor="middle" x="241.5" y="-7.5" font-family="Helvetica,sans-Serif" font-size="10.00">Ogre::GL3PlusTextureBuffer</text>
</a>
</g>
</g>
<!-- Node1&#45;&gt;Node7 -->
<g id="edge6" class="edge">
<title>Node1&#45;&gt;Node7</title>
<path fill="none" stroke="midnightblue" d="M185.76,-50.48C200.56,-40 217.91,-27.71 229.28,-19.66"/>
<polygon fill="midnightblue" stroke="midnightblue" points="183.54,-47.76 177.41,-56.4 187.59,-53.48 183.54,-47.76"/>
</g>
<!-- Node2 -->
<g id="node2" class="node">
<title>Node2</title>
<g id="a_node2"><a xlink:href="class_ogre_1_1_g_l_hardware_pixel_buffer_common.html" target="_top" xlink:title=" ">
<polygon fill="none" stroke="black" points="78.5,-123.5 78.5,-153.5 236.5,-153.5 236.5,-123.5 78.5,-123.5"/>
<text text-anchor="start" x="86.5" y="-141.5" font-family="Helvetica,sans-Serif" font-size="10.00">Ogre::GLHardwarePixelBuffer</text>
<text text-anchor="middle" x="157.5" y="-130.5" font-family="Helvetica,sans-Serif" font-size="10.00">Common</text>
</a>
</g>
</g>
<!-- Node2&#45;&gt;Node1 -->
<g id="edge1" class="edge">
<title>Node2&#45;&gt;Node1</title>
<path fill="none" stroke="midnightblue" d="M157.5,-113.11C157.5,-104.15 157.5,-94.32 157.5,-86.58"/>
<polygon fill="midnightblue" stroke="midnightblue" points="154,-113.4 157.5,-123.4 161,-113.4 154,-113.4"/>
</g>
<!-- Node3 -->
<g id="node3" class="node">
<title>Node3</title>
<g id="a_node3"><a xlink:href="class_ogre_1_1_hardware_pixel_buffer.html" target="_top" xlink:title="Specialisation of HardwareBuffer for a pixel buffer.">
<polygon fill="none" stroke="black" points="84.5,-190.5 84.5,-209.5 230.5,-209.5 230.5,-190.5 84.5,-190.5"/>
<text text-anchor="middle" x="157.5" y="-197.5" font-family="Helvetica,sans-Serif" font-size="10.00">Ogre::HardwarePixelBuffer</text>
</a>
</g>
</g>
<!-- Node3&#45;&gt;Node2 -->
<g id="edge2" class="edge">
<title>Node3&#45;&gt;Node2</title>
<path fill="none" stroke="midnightblue" d="M157.5,-180.23C157.5,-171.59 157.5,-161.5 157.5,-153.52"/>
<polygon fill="midnightblue" stroke="midnightblue" points="154,-180.48 157.5,-190.48 161,-180.48 154,-180.48"/>
</g>
<!-- Node4 -->
<g id="node4" class="node">
<title>Node4</title>
<g id="a_node4"><a xlink:href="class_ogre_1_1_hardware_buffer.html" target="_top" xlink:title="Abstract class defining common features of hardware buffers.">
<polygon fill="none" stroke="black" points="96.5,-246.5 96.5,-265.5 218.5,-265.5 218.5,-246.5 96.5,-246.5"/>
<text text-anchor="middle" x="157.5" y="-253.5" font-family="Helvetica,sans-Serif" font-size="10.00">Ogre::HardwareBuffer</text>
</a>
</g>
</g>
<!-- Node4&#45;&gt;Node3 -->
<g id="edge3" class="edge">
<title>Node4&#45;&gt;Node3</title>
<path fill="none" stroke="midnightblue" d="M157.5,-235.8C157.5,-226.91 157.5,-216.78 157.5,-209.75"/>
<polygon fill="midnightblue" stroke="midnightblue" points="154,-236.08 157.5,-246.08 161,-236.08 154,-236.08"/>
</g>
<!-- Node5 -->
<g id="node5" class="node">
<title>Node5</title>
<g id="a_node5"><a xlink:title=" ">
<polygon fill="none" stroke="#bfbfbf" points="122.5,-302.5 122.5,-321.5 192.5,-321.5 192.5,-302.5 122.5,-302.5"/>
<text text-anchor="middle" x="157.5" y="-309.5" font-family="Helvetica,sans-Serif" font-size="10.00">BufferAlloc</text>
</a>
</g>
</g>
<!-- Node5&#45;&gt;Node4 -->
<g id="edge4" class="edge">
<title>Node5&#45;&gt;Node4</title>
<path fill="none" stroke="midnightblue" d="M157.5,-291.8C157.5,-282.91 157.5,-272.78 157.5,-265.75"/>
<polygon fill="midnightblue" stroke="midnightblue" points="154,-292.08 157.5,-302.08 161,-292.08 154,-292.08"/>
</g>
</g>
</svg>
