<?xml version="1.0" encoding="UTF-8" standalone="no"?>
<!DOCTYPE svg PUBLIC "-//W3C//DTD SVG 1.1//EN"
 "http://www.w3.org/Graphics/SVG/1.1/DTD/svg11.dtd">
<!-- Generated by graphviz version 2.43.0 (0)
 -->
<!-- Title: Ogre::RegionSceneQuery Pages: 1 -->
<svg width="1034pt" height="263pt"
 viewBox="0.00 0.00 1034.00 262.50" xmlns="http://www.w3.org/2000/svg" xmlns:xlink="http://www.w3.org/1999/xlink">
<g id="graph0" class="graph" transform="scale(1 1) rotate(0) translate(4 258.5)">
<title>Ogre::RegionSceneQuery</title>
<!-- Node1 -->
<g id="node1" class="node">
<title>Node1</title>
<g id="a_node1"><a xlink:title="Abstract class defining a query which returns single results from a region.">
<polygon fill="#bfbfbf" stroke="black" points="304,-109.5 304,-128.5 442,-128.5 442,-109.5 304,-109.5"/>
<text text-anchor="middle" x="373" y="-116.5" font-family="Helvetica,sans-Serif" font-size="10.00">Ogre::RegionSceneQuery</text>
</a>
</g>
</g>
<!-- Node5 -->
<g id="node5" class="node">
<title>Node5</title>
<g id="a_node5"><a xlink:href="class_ogre_1_1_axis_aligned_box_scene_query.html" target="_top" xlink:title="Specialises the SceneQuery class for querying within an axis aligned box.">
<polygon fill="none" stroke="black" points="478,-164 478,-194 630,-194 630,-164 478,-164"/>
<text text-anchor="start" x="486" y="-182" font-family="Helvetica,sans-Serif" font-size="10.00">Ogre::AxisAlignedBoxScene</text>
<text text-anchor="middle" x="554" y="-171" font-family="Helvetica,sans-Serif" font-size="10.00">Query</text>
</a>
</g>
</g>
<!-- Node1&#45;&gt;Node5 -->
<g id="edge4" class="edge">
<title>Node1&#45;&gt;Node5</title>
<path fill="none" stroke="midnightblue" d="M412.21,-131.81C440.27,-141.21 478.5,-154.03 508.03,-163.93"/>
<polygon fill="midnightblue" stroke="midnightblue" points="412.96,-128.37 402.36,-128.51 410.73,-135 412.96,-128.37"/>
</g>
<!-- Node9 -->
<g id="node9" class="node">
<title>Node9</title>
<g id="a_node9"><a xlink:href="class_ogre_1_1_plane_bounded_volume_list_scene_query.html" target="_top" xlink:title="Specialises the SceneQuery class for querying within a plane&#45;bounded volume.">
<polygon fill="none" stroke="black" points="478,-104 478,-134 630,-134 630,-104 478,-104"/>
<text text-anchor="start" x="486" y="-122" font-family="Helvetica,sans-Serif" font-size="10.00">Ogre::PlaneBoundedVolume</text>
<text text-anchor="middle" x="554" y="-111" font-family="Helvetica,sans-Serif" font-size="10.00">ListSceneQuery</text>
</a>
</g>
</g>
<!-- Node1&#45;&gt;Node9 -->
<g id="edge8" class="edge">
<title>Node1&#45;&gt;Node9</title>
<path fill="none" stroke="midnightblue" d="M452.4,-119C460.85,-119 469.43,-119 477.84,-119"/>
<polygon fill="midnightblue" stroke="midnightblue" points="452.18,-115.5 442.18,-119 452.18,-122.5 452.18,-115.5"/>
</g>
<!-- Node13 -->
<g id="node13" class="node">
<title>Node13</title>
<g id="a_node13"><a xlink:href="class_ogre_1_1_sphere_scene_query.html" target="_top" xlink:title="Specialises the SceneQuery class for querying within a sphere.">
<polygon fill="none" stroke="black" points="485,-52.5 485,-71.5 623,-71.5 623,-52.5 485,-52.5"/>
<text text-anchor="middle" x="554" y="-59.5" font-family="Helvetica,sans-Serif" font-size="10.00">Ogre::SphereSceneQuery</text>
</a>
</g>
</g>
<!-- Node1&#45;&gt;Node13 -->
<g id="edge12" class="edge">
<title>Node1&#45;&gt;Node13</title>
<path fill="none" stroke="midnightblue" d="M413.74,-106.34C446.74,-95.84 492.96,-81.12 522.94,-71.57"/>
<polygon fill="midnightblue" stroke="midnightblue" points="412.43,-103.09 403.96,-109.46 414.55,-109.76 412.43,-103.09"/>
</g>
<!-- Node2 -->
<g id="node2" class="node">
<title>Node2</title>
<g id="a_node2"><a xlink:href="class_ogre_1_1_scene_query.html" target="_top" xlink:title="A class for performing queries on a scene.">
<polygon fill="none" stroke="black" points="144.5,-128.5 144.5,-147.5 248.5,-147.5 248.5,-128.5 144.5,-128.5"/>
<text text-anchor="middle" x="196.5" y="-135.5" font-family="Helvetica,sans-Serif" font-size="10.00">Ogre::SceneQuery</text>
</a>
</g>
</g>
<!-- Node2&#45;&gt;Node1 -->
<g id="edge1" class="edge">
<title>Node2&#45;&gt;Node1</title>
<path fill="none" stroke="midnightblue" d="M259.22,-131.28C273.65,-129.71 289.11,-128.03 303.81,-126.42"/>
<polygon fill="midnightblue" stroke="midnightblue" points="258.47,-127.84 248.91,-132.4 259.23,-134.8 258.47,-127.84"/>
</g>
<!-- Node3 -->
<g id="node3" class="node">
<title>Node3</title>
<g id="a_node3"><a xlink:title=" ">
<polygon fill="none" stroke="#bfbfbf" points="0,-128.5 0,-147.5 89,-147.5 89,-128.5 0,-128.5"/>
<text text-anchor="middle" x="44.5" y="-135.5" font-family="Helvetica,sans-Serif" font-size="10.00">SceneMgtAlloc</text>
</a>
</g>
</g>
<!-- Node3&#45;&gt;Node2 -->
<g id="edge2" class="edge">
<title>Node3&#45;&gt;Node2</title>
<path fill="none" stroke="midnightblue" d="M99.64,-138C114.19,-138 129.86,-138 144.24,-138"/>
<polygon fill="midnightblue" stroke="midnightblue" points="99.29,-134.5 89.29,-138 99.29,-141.5 99.29,-134.5"/>
</g>
<!-- Node4 -->
<g id="node4" class="node">
<title>Node4</title>
<g id="a_node4"><a xlink:href="class_ogre_1_1_scene_query_listener.html" target="_top" xlink:title="This optional class allows you to receive per&#45;result callbacks from SceneQuery executions instead of ...">
<polygon fill="none" stroke="black" points="125,-90.5 125,-109.5 268,-109.5 268,-90.5 125,-90.5"/>
<text text-anchor="middle" x="196.5" y="-97.5" font-family="Helvetica,sans-Serif" font-size="10.00">Ogre::SceneQueryListener</text>
</a>
</g>
</g>
<!-- Node4&#45;&gt;Node1 -->
<g id="edge3" class="edge">
<title>Node4&#45;&gt;Node1</title>
<path fill="none" stroke="midnightblue" d="M278.19,-108.79C286.72,-109.71 295.34,-110.65 303.72,-111.57"/>
<polygon fill="midnightblue" stroke="midnightblue" points="278.54,-105.3 268.22,-107.7 277.79,-112.26 278.54,-105.3"/>
</g>
<!-- Node6 -->
<g id="node6" class="node">
<title>Node6</title>
<g id="a_node6"><a xlink:href="class_ogre_1_1_default_axis_aligned_box_scene_query.html" target="_top" xlink:title="Default implementation of AxisAlignedBoxSceneQuery.">
<polygon fill="none" stroke="black" points="672,-175 672,-205 812,-205 812,-175 672,-175"/>
<text text-anchor="start" x="680" y="-193" font-family="Helvetica,sans-Serif" font-size="10.00">Ogre::DefaultAxisAligned</text>
<text text-anchor="middle" x="742" y="-182" font-family="Helvetica,sans-Serif" font-size="10.00">BoxSceneQuery</text>
</a>
</g>
</g>
<!-- Node5&#45;&gt;Node6 -->
<g id="edge5" class="edge">
<title>Node5&#45;&gt;Node6</title>
<path fill="none" stroke="midnightblue" d="M640.23,-184.04C650.84,-184.67 661.59,-185.3 671.91,-185.91"/>
<polygon fill="midnightblue" stroke="midnightblue" points="640.31,-180.54 630.12,-183.44 639.89,-187.53 640.31,-180.54"/>
</g>
<!-- Node7 -->
<g id="node7" class="node">
<title>Node7</title>
<g id="a_node7"><a xlink:href="class_ogre_1_1_octree_axis_aligned_box_scene_query.html" target="_top" xlink:title="Octree implementation of AxisAlignedBoxSceneQuery.">
<polygon fill="none" stroke="black" points="862.5,-224 862.5,-254 1017.5,-254 1017.5,-224 862.5,-224"/>
<text text-anchor="start" x="870.5" y="-242" font-family="Helvetica,sans-Serif" font-size="10.00">Ogre::OctreeAxisAlignedBox</text>
<text text-anchor="middle" x="940" y="-231" font-family="Helvetica,sans-Serif" font-size="10.00">SceneQuery</text>
</a>
</g>
</g>
<!-- Node6&#45;&gt;Node7 -->
<g id="edge6" class="edge">
<title>Node6&#45;&gt;Node7</title>
<path fill="none" stroke="midnightblue" d="M812.91,-207.48C834.51,-212.88 858.1,-218.78 878.98,-223.99"/>
<polygon fill="midnightblue" stroke="midnightblue" points="813.69,-204.06 803.14,-205.03 811.99,-210.86 813.69,-204.06"/>
</g>
<!-- Node8 -->
<g id="node8" class="node">
<title>Node8</title>
<g id="a_node8"><a xlink:href="class_ogre_1_1_p_c_z_axis_aligned_box_scene_query.html" target="_top" xlink:title="PCZ implementation of AxisAlignedBoxSceneQuery.">
<polygon fill="none" stroke="black" points="854.5,-175 854.5,-205 1025.5,-205 1025.5,-175 854.5,-175"/>
<text text-anchor="start" x="862.5" y="-193" font-family="Helvetica,sans-Serif" font-size="10.00">Ogre::PCZAxisAlignedBoxScene</text>
<text text-anchor="middle" x="940" y="-182" font-family="Helvetica,sans-Serif" font-size="10.00">Query</text>
</a>
</g>
</g>
<!-- Node6&#45;&gt;Node8 -->
<g id="edge7" class="edge">
<title>Node6&#45;&gt;Node8</title>
<path fill="none" stroke="midnightblue" d="M822.16,-190C832.77,-190 843.68,-190 854.37,-190"/>
<polygon fill="midnightblue" stroke="midnightblue" points="822.1,-186.5 812.1,-190 822.1,-193.5 822.1,-186.5"/>
</g>
<!-- Node10 -->
<g id="node10" class="node">
<title>Node10</title>
<g id="a_node10"><a xlink:href="class_ogre_1_1_default_plane_bounded_volume_list_scene_query.html" target="_top" xlink:title="Default implementation of PlaneBoundedVolumeListSceneQuery.">
<polygon fill="none" stroke="black" points="666,-104 666,-134 818,-134 818,-104 666,-104"/>
<text text-anchor="start" x="674" y="-122" font-family="Helvetica,sans-Serif" font-size="10.00">Ogre::DefaultPlaneBounded</text>
<text text-anchor="middle" x="742" y="-111" font-family="Helvetica,sans-Serif" font-size="10.00">VolumeListSceneQuery</text>
</a>
</g>
</g>
<!-- Node9&#45;&gt;Node10 -->
<g id="edge9" class="edge">
<title>Node9&#45;&gt;Node10</title>
<path fill="none" stroke="midnightblue" d="M640.15,-119C648.74,-119 657.43,-119 665.9,-119"/>
<polygon fill="midnightblue" stroke="midnightblue" points="640.12,-115.5 630.12,-119 640.12,-122.5 640.12,-115.5"/>
</g>
<!-- Node11 -->
<g id="node11" class="node">
<title>Node11</title>
<g id="a_node11"><a xlink:href="class_ogre_1_1_octree_plane_bounded_volume_list_scene_query.html" target="_top" xlink:title="Octree implementation of PlaneBoundedVolumeListSceneQuery.">
<polygon fill="none" stroke="black" points="866,-126 866,-156 1014,-156 1014,-126 866,-126"/>
<text text-anchor="start" x="874" y="-144" font-family="Helvetica,sans-Serif" font-size="10.00">Ogre::OctreePlaneBounded</text>
<text text-anchor="middle" x="940" y="-133" font-family="Helvetica,sans-Serif" font-size="10.00">VolumeListSceneQuery</text>
</a>
</g>
</g>
<!-- Node10&#45;&gt;Node11 -->
<g id="edge10" class="edge">
<title>Node10&#45;&gt;Node11</title>
<path fill="none" stroke="midnightblue" d="M828.22,-128.57C840.78,-129.98 853.63,-131.42 865.92,-132.8"/>
<polygon fill="midnightblue" stroke="midnightblue" points="828.55,-125.08 818.22,-127.44 827.77,-132.04 828.55,-125.08"/>
</g>
<!-- Node12 -->
<g id="node12" class="node">
<title>Node12</title>
<g id="a_node12"><a xlink:href="class_ogre_1_1_p_c_z_plane_bounded_volume_list_scene_query.html" target="_top" xlink:title="PCZ implementation of PlaneBoundedVolumeListSceneQuery.">
<polygon fill="none" stroke="black" points="854,-77 854,-107 1026,-107 1026,-77 854,-77"/>
<text text-anchor="start" x="862" y="-95" font-family="Helvetica,sans-Serif" font-size="10.00">Ogre::PCZPlaneBoundedVolume</text>
<text text-anchor="middle" x="940" y="-84" font-family="Helvetica,sans-Serif" font-size="10.00">ListSceneQuery</text>
</a>
</g>
</g>
<!-- Node10&#45;&gt;Node12 -->
<g id="edge11" class="edge">
<title>Node10&#45;&gt;Node12</title>
<path fill="none" stroke="midnightblue" d="M828.15,-107.27C836.67,-106.1 845.33,-104.9 853.85,-103.73"/>
<polygon fill="midnightblue" stroke="midnightblue" points="827.65,-103.81 818.22,-108.64 828.6,-110.74 827.65,-103.81"/>
</g>
<!-- Node14 -->
<g id="node14" class="node">
<title>Node14</title>
<g id="a_node14"><a xlink:href="class_ogre_1_1_default_sphere_scene_query.html" target="_top" xlink:title="Default implementation of SphereSceneQuery.">
<polygon fill="none" stroke="black" points="669.5,-33 669.5,-63 814.5,-63 814.5,-33 669.5,-33"/>
<text text-anchor="start" x="677.5" y="-51" font-family="Helvetica,sans-Serif" font-size="10.00">Ogre::DefaultSphereScene</text>
<text text-anchor="middle" x="742" y="-40" font-family="Helvetica,sans-Serif" font-size="10.00">Query</text>
</a>
</g>
</g>
<!-- Node13&#45;&gt;Node14 -->
<g id="edge13" class="edge">
<title>Node13&#45;&gt;Node14</title>
<path fill="none" stroke="midnightblue" d="M633.18,-56.12C645.18,-55.21 657.52,-54.28 669.37,-53.39"/>
<polygon fill="midnightblue" stroke="midnightblue" points="632.91,-52.63 623.2,-56.87 633.44,-59.61 632.91,-52.63"/>
</g>
<!-- Node15 -->
<g id="node15" class="node">
<title>Node15</title>
<g id="a_node15"><a xlink:href="class_ogre_1_1_octree_sphere_scene_query.html" target="_top" xlink:title="Octree implementation of SphereSceneQuery.">
<polygon fill="none" stroke="black" points="855,-38.5 855,-57.5 1025,-57.5 1025,-38.5 855,-38.5"/>
<text text-anchor="middle" x="940" y="-45.5" font-family="Helvetica,sans-Serif" font-size="10.00">Ogre::OctreeSphereSceneQuery</text>
</a>
</g>
</g>
<!-- Node14&#45;&gt;Node15 -->
<g id="edge14" class="edge">
<title>Node14&#45;&gt;Node15</title>
<path fill="none" stroke="midnightblue" d="M824.86,-48C834.81,-48 844.99,-48 854.97,-48"/>
<polygon fill="midnightblue" stroke="midnightblue" points="824.59,-44.5 814.59,-48 824.59,-51.5 824.59,-44.5"/>
</g>
<!-- Node16 -->
<g id="node16" class="node">
<title>Node16</title>
<g id="a_node16"><a xlink:href="class_ogre_1_1_p_c_z_sphere_scene_query.html" target="_top" xlink:title="PCZ implementation of SphereSceneQuery.">
<polygon fill="none" stroke="black" points="861,-0.5 861,-19.5 1019,-19.5 1019,-0.5 861,-0.5"/>
<text text-anchor="middle" x="940" y="-7.5" font-family="Helvetica,sans-Serif" font-size="10.00">Ogre::PCZSphereSceneQuery</text>
</a>
</g>
</g>
<!-- Node14&#45;&gt;Node16 -->
<g id="edge15" class="edge">
<title>Node14&#45;&gt;Node16</title>
<path fill="none" stroke="midnightblue" d="M824.68,-32.16C846.86,-27.86 870.19,-23.34 889.94,-19.51"/>
<polygon fill="midnightblue" stroke="midnightblue" points="823.74,-28.78 814.59,-34.12 825.08,-35.65 823.74,-28.78"/>
</g>
</g>
</svg>
