<?xml version="1.0" encoding="UTF-8" standalone="no"?>
<!DOCTYPE svg PUBLIC "-//W3C//DTD SVG 1.1//EN"
 "http://www.w3.org/Graphics/SVG/1.1/DTD/svg11.dtd">
<!-- Generated by graphviz version 2.43.0 (0)
 -->
<!-- Title: Ogre::Renderable Pages: 1 -->
<svg width="883pt" height="513pt"
 viewBox="0.00 0.00 883.00 513.00" xmlns="http://www.w3.org/2000/svg" xmlns:xlink="http://www.w3.org/1999/xlink">
<g id="graph0" class="graph" transform="scale(1 1) rotate(0) translate(4 509)">
<title>Ogre::Renderable</title>
<!-- Node1 -->
<g id="node1" class="node">
<title>Node1</title>
<g id="a_node1"><a xlink:title="Abstract class defining the interface all renderable objects must implement.">
<polygon fill="#bfbfbf" stroke="black" points="0,-251.5 0,-270.5 101,-270.5 101,-251.5 0,-251.5"/>
<text text-anchor="middle" x="50.5" y="-258.5" font-family="Helvetica,sans-Serif" font-size="10.00">Ogre::Renderable</text>
</a>
</g>
</g>
<!-- Node2 -->
<g id="node2" class="node">
<title>Node2</title>
<g id="a_node2"><a xlink:href="class_ogre_1_1_billboard_chain.html" target="_top" xlink:title="Allows the rendering of a chain of connected billboards.">
<polygon fill="none" stroke="black" points="160.5,-485.5 160.5,-504.5 277.5,-504.5 277.5,-485.5 160.5,-485.5"/>
<text text-anchor="middle" x="219" y="-492.5" font-family="Helvetica,sans-Serif" font-size="10.00">Ogre::BillboardChain</text>
</a>
</g>
</g>
<!-- Node1&#45;&gt;Node2 -->
<g id="edge1" class="edge">
<title>Node1&#45;&gt;Node2</title>
<path fill="none" stroke="midnightblue" d="M53.38,-280.93C58.5,-323.57 76.67,-424 137,-476 143.67,-481.75 151.77,-485.84 160.22,-488.73"/>
<polygon fill="midnightblue" stroke="midnightblue" points="56.85,-280.52 52.3,-270.96 49.9,-281.28 56.85,-280.52"/>
</g>
<!-- Node4 -->
<g id="node4" class="node">
<title>Node4</title>
<g id="a_node4"><a xlink:href="class_ogre_1_1_billboard_set.html" target="_top" xlink:title="A collection of billboards (faces which are always facing the given direction) with the same (default...">
<polygon fill="none" stroke="black" points="166.5,-447.5 166.5,-466.5 271.5,-466.5 271.5,-447.5 166.5,-447.5"/>
<text text-anchor="middle" x="219" y="-454.5" font-family="Helvetica,sans-Serif" font-size="10.00">Ogre::BillboardSet</text>
</a>
</g>
</g>
<!-- Node1&#45;&gt;Node4 -->
<g id="edge3" class="edge">
<title>Node1&#45;&gt;Node4</title>
<path fill="none" stroke="midnightblue" d="M55.26,-280.9C63.31,-317.85 85.84,-397 137,-438 145.45,-444.77 155.91,-449.21 166.46,-452.1"/>
<polygon fill="midnightblue" stroke="midnightblue" points="58.64,-279.97 53.21,-270.88 51.78,-281.38 58.64,-279.97"/>
</g>
<!-- Node5 -->
<g id="node5" class="node">
<title>Node5</title>
<g id="a_node5"><a xlink:href="class_ogre_1_1_border_renderable.html" target="_top" xlink:title="Class for rendering the border of a BorderPanelOverlayElement.">
<polygon fill="none" stroke="black" points="152,-409.5 152,-428.5 286,-428.5 286,-409.5 152,-409.5"/>
<text text-anchor="middle" x="219" y="-416.5" font-family="Helvetica,sans-Serif" font-size="10.00">Ogre::BorderRenderable</text>
</a>
</g>
</g>
<!-- Node1&#45;&gt;Node5 -->
<g id="edge4" class="edge">
<title>Node1&#45;&gt;Node5</title>
<path fill="none" stroke="midnightblue" d="M57.89,-280.39C68.95,-310.81 94.64,-369.44 137,-400 142.39,-403.89 148.46,-406.99 154.78,-409.47"/>
<polygon fill="midnightblue" stroke="midnightblue" points="61.06,-278.85 54.47,-270.56 54.45,-281.15 61.06,-278.85"/>
</g>
<!-- Node6 -->
<g id="node6" class="node">
<title>Node6</title>
<g id="a_node6"><a xlink:href="class_ogre_1_1_bsp_level.html" target="_top" xlink:title="Holds all the data associated with a Binary Space Parition (BSP) based indoor level.">
<polygon fill="none" stroke="black" points="174,-371.5 174,-390.5 264,-390.5 264,-371.5 174,-371.5"/>
<text text-anchor="middle" x="219" y="-378.5" font-family="Helvetica,sans-Serif" font-size="10.00">Ogre::BspLevel</text>
</a>
</g>
</g>
<!-- Node1&#45;&gt;Node6 -->
<g id="edge5" class="edge">
<title>Node1&#45;&gt;Node6</title>
<path fill="none" stroke="midnightblue" d="M61.88,-279.32C75.9,-302.31 103.05,-341.22 137,-362 148.09,-368.79 161.39,-373.15 173.98,-375.96"/>
<polygon fill="midnightblue" stroke="midnightblue" points="64.8,-277.38 56.7,-270.55 58.77,-280.94 64.8,-277.38"/>
</g>
<!-- Node7 -->
<g id="node7" class="node">
<title>Node7</title>
<g id="a_node7"><a xlink:href="class_ogre_1_1_frustum.html" target="_top" xlink:title="A frustum represents a pyramid, capped at the near and far end which is used to represent either a vi...">
<polygon fill="none" stroke="black" points="176,-333.5 176,-352.5 262,-352.5 262,-333.5 176,-333.5"/>
<text text-anchor="middle" x="219" y="-340.5" font-family="Helvetica,sans-Serif" font-size="10.00">Ogre::Frustum</text>
</a>
</g>
</g>
<!-- Node1&#45;&gt;Node7 -->
<g id="edge6" class="edge">
<title>Node1&#45;&gt;Node7</title>
<path fill="none" stroke="midnightblue" d="M69.36,-277.56C85.76,-291.9 111.34,-312.15 137,-324 149.06,-329.57 162.92,-333.59 175.72,-336.46"/>
<polygon fill="midnightblue" stroke="midnightblue" points="71.45,-274.74 61.67,-270.68 66.78,-279.96 71.45,-274.74"/>
</g>
<!-- Node11 -->
<g id="node11" class="node">
<title>Node11</title>
<g id="a_node11"><a xlink:href="class_ogre_1_1_instance_batch.html" target="_top" xlink:title="InstanceBatch forms part of the new Instancing system This is an abstract class that must be derived ...">
<polygon fill="none" stroke="black" points="161.5,-295.5 161.5,-314.5 276.5,-314.5 276.5,-295.5 161.5,-295.5"/>
<text text-anchor="middle" x="219" y="-302.5" font-family="Helvetica,sans-Serif" font-size="10.00">Ogre::InstanceBatch</text>
</a>
</g>
</g>
<!-- Node1&#45;&gt;Node11 -->
<g id="edge10" class="edge">
<title>Node1&#45;&gt;Node11</title>
<path fill="none" stroke="midnightblue" d="M92.53,-273.49C106.58,-277.63 122.44,-282.17 137,-286 149.43,-289.27 163.01,-292.57 175.43,-295.47"/>
<polygon fill="midnightblue" stroke="midnightblue" points="93.24,-270.04 82.66,-270.55 91.24,-276.75 93.24,-270.04"/>
</g>
<!-- Node17 -->
<g id="node17" class="node">
<title>Node17</title>
<g id="a_node17"><a xlink:href="class_ogre_1_1_manual_object_1_1_manual_object_section.html" target="_top" xlink:title="Built, renderable section of geometry.">
<polygon fill="none" stroke="black" points="156,-246 156,-276 282,-276 282,-246 156,-246"/>
<text text-anchor="start" x="164" y="-264" font-family="Helvetica,sans-Serif" font-size="10.00">Ogre::ManualObject</text>
<text text-anchor="middle" x="219" y="-253" font-family="Helvetica,sans-Serif" font-size="10.00">::ManualObjectSection</text>
</a>
</g>
</g>
<!-- Node1&#45;&gt;Node17 -->
<g id="edge16" class="edge">
<title>Node1&#45;&gt;Node17</title>
<path fill="none" stroke="midnightblue" d="M111.35,-261C125.85,-261 141.39,-261 155.98,-261"/>
<polygon fill="midnightblue" stroke="midnightblue" points="111,-257.5 101,-261 111,-264.5 111,-257.5"/>
</g>
<!-- Node18 -->
<g id="node18" class="node">
<title>Node18</title>
<g id="a_node18"><a xlink:href="class_ogre_1_1_node_1_1_debug_renderable.html" target="_top" xlink:title="Inner class for displaying debug renderable for Node.">
<polygon fill="none" stroke="black" points="137,-207.5 137,-226.5 301,-226.5 301,-207.5 137,-207.5"/>
<text text-anchor="middle" x="219" y="-214.5" font-family="Helvetica,sans-Serif" font-size="10.00">Ogre::Node::DebugRenderable</text>
</a>
</g>
</g>
<!-- Node1&#45;&gt;Node18 -->
<g id="edge17" class="edge">
<title>Node1&#45;&gt;Node18</title>
<path fill="none" stroke="midnightblue" d="M94.73,-248.58C108.24,-244.77 123.22,-240.63 137,-237 150.45,-233.45 165.2,-229.75 178.39,-226.52"/>
<polygon fill="midnightblue" stroke="midnightblue" points="93.4,-245.32 84.73,-251.41 95.3,-252.05 93.4,-245.32"/>
</g>
<!-- Node19 -->
<g id="node19" class="node">
<title>Node19</title>
<g id="a_node19"><a xlink:href="class_ogre_1_1_overlay_element.html" target="_top" xlink:title="Abstract definition of a 2D element to be displayed in an Overlay.">
<polygon fill="none" stroke="black" points="156.5,-169.5 156.5,-188.5 281.5,-188.5 281.5,-169.5 156.5,-169.5"/>
<text text-anchor="middle" x="219" y="-176.5" font-family="Helvetica,sans-Serif" font-size="10.00">Ogre::OverlayElement</text>
</a>
</g>
</g>
<!-- Node1&#45;&gt;Node19 -->
<g id="edge18" class="edge">
<title>Node1&#45;&gt;Node19</title>
<path fill="none" stroke="midnightblue" d="M69.36,-244.44C85.76,-230.1 111.34,-209.85 137,-198 145.26,-194.18 154.36,-191.1 163.39,-188.61"/>
<polygon fill="midnightblue" stroke="midnightblue" points="66.78,-242.04 61.67,-251.32 71.45,-247.26 66.78,-242.04"/>
</g>
<!-- Node24 -->
<g id="node24" class="node">
<title>Node24</title>
<g id="a_node24"><a xlink:href="class_ogre_1_1_shadow_renderable.html" target="_top" xlink:title="Class which represents the renderable aspects of a set of shadow volume faces.">
<polygon fill="none" stroke="black" points="149,-131.5 149,-150.5 289,-150.5 289,-131.5 149,-131.5"/>
<text text-anchor="middle" x="219" y="-138.5" font-family="Helvetica,sans-Serif" font-size="10.00">Ogre::ShadowRenderable</text>
</a>
</g>
</g>
<!-- Node1&#45;&gt;Node24 -->
<g id="edge23" class="edge">
<title>Node1&#45;&gt;Node24</title>
<path fill="none" stroke="midnightblue" d="M61.88,-242.68C75.9,-219.69 103.05,-180.78 137,-160 143.28,-156.15 150.28,-153.09 157.45,-150.64"/>
<polygon fill="midnightblue" stroke="midnightblue" points="58.77,-241.06 56.7,-251.45 64.8,-244.62 58.77,-241.06"/>
</g>
<!-- Node26 -->
<g id="node26" class="node">
<title>Node26</title>
<g id="a_node26"><a xlink:href="class_ogre_1_1_simple_renderable.html" target="_top" xlink:title="Simple implementation of MovableObject and Renderable for single&#45;part custom objects.">
<polygon fill="none" stroke="black" points="151.5,-88.5 151.5,-107.5 286.5,-107.5 286.5,-88.5 151.5,-88.5"/>
<text text-anchor="middle" x="219" y="-95.5" font-family="Helvetica,sans-Serif" font-size="10.00">Ogre::SimpleRenderable</text>
</a>
</g>
</g>
<!-- Node1&#45;&gt;Node26 -->
<g id="edge25" class="edge">
<title>Node1&#45;&gt;Node26</title>
<path fill="none" stroke="midnightblue" d="M58.26,-241.46C69.7,-211.31 95.74,-153.61 137,-122 145.27,-115.67 155.18,-111 165.19,-107.56"/>
<polygon fill="midnightblue" stroke="midnightblue" points="54.84,-240.63 54.71,-251.23 61.42,-243.03 54.84,-240.63"/>
</g>
<!-- Node30 -->
<g id="node30" class="node">
<title>Node30</title>
<g id="a_node30"><a xlink:href="class_ogre_1_1_static_geometry_1_1_geometry_bucket.html" target="_top" xlink:title="A GeometryBucket is a the lowest level bucket where geometry with the same vertex &amp; index format is s...">
<polygon fill="none" stroke="black" points="158,-39 158,-69 280,-69 280,-39 158,-39"/>
<text text-anchor="start" x="166" y="-57" font-family="Helvetica,sans-Serif" font-size="10.00">Ogre::StaticGeometry</text>
<text text-anchor="middle" x="219" y="-46" font-family="Helvetica,sans-Serif" font-size="10.00">::GeometryBucket</text>
</a>
</g>
</g>
<!-- Node1&#45;&gt;Node30 -->
<g id="edge29" class="edge">
<title>Node1&#45;&gt;Node30</title>
<path fill="none" stroke="midnightblue" d="M55.24,-241.41C63.37,-204.22 86.14,-123.21 137,-79 143.11,-73.69 150.33,-69.51 157.91,-66.21"/>
<polygon fill="midnightblue" stroke="midnightblue" points="51.76,-240.95 53.18,-251.45 58.62,-242.36 51.76,-240.95"/>
</g>
<!-- Node31 -->
<g id="node31" class="node">
<title>Node31</title>
<g id="a_node31"><a xlink:href="class_ogre_1_1_sub_entity.html" target="_top" xlink:title="Utility class which defines the sub&#45;parts of an Entity.">
<polygon fill="none" stroke="black" points="173,-0.5 173,-19.5 265,-19.5 265,-0.5 173,-0.5"/>
<text text-anchor="middle" x="219" y="-7.5" font-family="Helvetica,sans-Serif" font-size="10.00">Ogre::SubEntity</text>
</a>
</g>
</g>
<!-- Node1&#45;&gt;Node31 -->
<g id="edge30" class="edge">
<title>Node1&#45;&gt;Node31</title>
<path fill="none" stroke="midnightblue" d="M52.72,-241.08C56.59,-196.08 72.51,-86.03 137,-29 146.85,-20.29 159.93,-15.38 172.7,-12.65"/>
<polygon fill="midnightblue" stroke="midnightblue" points="49.21,-241.05 51.96,-251.28 56.19,-241.57 49.21,-241.05"/>
</g>
<!-- Node3 -->
<g id="node3" class="node">
<title>Node3</title>
<g id="a_node3"><a xlink:href="class_ogre_1_1_ribbon_trail.html" target="_top" xlink:title="Subclass of BillboardChain which automatically leaves a trail behind one or more Node instances.">
<polygon fill="none" stroke="black" points="370.5,-485.5 370.5,-504.5 470.5,-504.5 470.5,-485.5 370.5,-485.5"/>
<text text-anchor="middle" x="420.5" y="-492.5" font-family="Helvetica,sans-Serif" font-size="10.00">Ogre::RibbonTrail</text>
</a>
</g>
</g>
<!-- Node2&#45;&gt;Node3 -->
<g id="edge2" class="edge">
<title>Node2&#45;&gt;Node3</title>
<path fill="none" stroke="midnightblue" d="M287.89,-495C314.95,-495 345.51,-495 370.37,-495"/>
<polygon fill="midnightblue" stroke="midnightblue" points="287.7,-491.5 277.7,-495 287.7,-498.5 287.7,-491.5"/>
</g>
<!-- Node8 -->
<g id="node8" class="node">
<title>Node8</title>
<g id="a_node8"><a xlink:href="class_ogre_1_1_camera.html" target="_top" xlink:title="A viewpoint from which the scene will be rendered.">
<polygon fill="none" stroke="black" points="378.5,-371.5 378.5,-390.5 462.5,-390.5 462.5,-371.5 378.5,-371.5"/>
<text text-anchor="middle" x="420.5" y="-378.5" font-family="Helvetica,sans-Serif" font-size="10.00">Ogre::Camera</text>
</a>
</g>
</g>
<!-- Node7&#45;&gt;Node8 -->
<g id="edge7" class="edge">
<title>Node7&#45;&gt;Node8</title>
<path fill="none" stroke="midnightblue" d="M272.26,-352.96C305.36,-359.26 347.55,-367.3 378.28,-373.15"/>
<polygon fill="midnightblue" stroke="midnightblue" points="272.79,-349.49 262.31,-351.06 271.48,-356.37 272.79,-349.49"/>
</g>
<!-- Node9 -->
<g id="node9" class="node">
<title>Node9</title>
<g id="a_node9"><a xlink:href="class_ogre_1_1_octree_camera.html" target="_top" xlink:title="Specialized viewpoint from which an Octree can be rendered.">
<polygon fill="none" stroke="black" points="560,-409.5 560,-428.5 676,-428.5 676,-409.5 560,-409.5"/>
<text text-anchor="middle" x="618" y="-416.5" font-family="Helvetica,sans-Serif" font-size="10.00">Ogre::OctreeCamera</text>
</a>
</g>
</g>
<!-- Node8&#45;&gt;Node9 -->
<g id="edge8" class="edge">
<title>Node8&#45;&gt;Node9</title>
<path fill="none" stroke="midnightblue" d="M473.03,-391.02C502.42,-396.73 539.04,-403.85 568,-409.48"/>
<polygon fill="midnightblue" stroke="midnightblue" points="473.44,-387.53 462.96,-389.06 472.11,-394.4 473.44,-387.53"/>
</g>
<!-- Node10 -->
<g id="node10" class="node">
<title>Node10</title>
<g id="a_node10"><a xlink:href="class_ogre_1_1_p_c_z_camera.html" target="_top" xlink:title="Specialized viewpoint from which an PCZone Scene can be rendered.">
<polygon fill="none" stroke="black" points="566,-371.5 566,-390.5 670,-390.5 670,-371.5 566,-371.5"/>
<text text-anchor="middle" x="618" y="-378.5" font-family="Helvetica,sans-Serif" font-size="10.00">Ogre::PCZCamera</text>
</a>
</g>
</g>
<!-- Node8&#45;&gt;Node10 -->
<g id="edge9" class="edge">
<title>Node8&#45;&gt;Node10</title>
<path fill="none" stroke="midnightblue" d="M473.18,-381C501.82,-381 537.3,-381 565.86,-381"/>
<polygon fill="midnightblue" stroke="midnightblue" points="472.96,-377.5 462.96,-381 472.96,-384.5 472.96,-377.5"/>
</g>
<!-- Node12 -->
<g id="node12" class="node">
<title>Node12</title>
<g id="a_node12"><a xlink:href="class_ogre_1_1_base_instance_batch_v_t_f.html" target="_top" xlink:title="Instancing implementation using vertex texture through Vertex Texture Fetch (VTF) This implementation...">
<polygon fill="none" stroke="black" points="341.5,-333.5 341.5,-352.5 499.5,-352.5 499.5,-333.5 341.5,-333.5"/>
<text text-anchor="middle" x="420.5" y="-340.5" font-family="Helvetica,sans-Serif" font-size="10.00">Ogre::BaseInstanceBatchVTF</text>
</a>
</g>
</g>
<!-- Node11&#45;&gt;Node12 -->
<g id="edge11" class="edge">
<title>Node11&#45;&gt;Node12</title>
<path fill="none" stroke="midnightblue" d="M279.95,-316.42C308.49,-321.86 342.24,-328.28 369.39,-333.46"/>
<polygon fill="midnightblue" stroke="midnightblue" points="280.56,-312.97 270.08,-314.54 279.25,-319.85 280.56,-312.97"/>
</g>
<!-- Node15 -->
<g id="node15" class="node">
<title>Node15</title>
<g id="a_node15"><a xlink:href="class_ogre_1_1_instance_batch_h_w.html" target="_top" xlink:title="This is technique requires true instancing hardware support.">
<polygon fill="none" stroke="black" points="354.5,-295.5 354.5,-314.5 486.5,-314.5 486.5,-295.5 354.5,-295.5"/>
<text text-anchor="middle" x="420.5" y="-302.5" font-family="Helvetica,sans-Serif" font-size="10.00">Ogre::InstanceBatchHW</text>
</a>
</g>
</g>
<!-- Node11&#45;&gt;Node15 -->
<g id="edge14" class="edge">
<title>Node11&#45;&gt;Node15</title>
<path fill="none" stroke="midnightblue" d="M286.77,-305C308.52,-305 332.63,-305 354.27,-305"/>
<polygon fill="midnightblue" stroke="midnightblue" points="286.64,-301.5 276.64,-305 286.64,-308.5 286.64,-301.5"/>
</g>
<!-- Node16 -->
<g id="node16" class="node">
<title>Node16</title>
<g id="a_node16"><a xlink:href="class_ogre_1_1_instance_batch_shader.html" target="_top" xlink:title="This is the same technique the old &quot;InstancedGeometry&quot; implementation used (with improvements).">
<polygon fill="none" stroke="black" points="346,-257.5 346,-276.5 495,-276.5 495,-257.5 346,-257.5"/>
<text text-anchor="middle" x="420.5" y="-264.5" font-family="Helvetica,sans-Serif" font-size="10.00">Ogre::InstanceBatchShader</text>
</a>
</g>
</g>
<!-- Node11&#45;&gt;Node16 -->
<g id="edge15" class="edge">
<title>Node11&#45;&gt;Node16</title>
<path fill="none" stroke="midnightblue" d="M279.95,-293.58C308.49,-288.14 342.24,-281.72 369.39,-276.54"/>
<polygon fill="midnightblue" stroke="midnightblue" points="279.25,-290.15 270.08,-295.46 280.56,-297.03 279.25,-290.15"/>
</g>
<!-- Node13 -->
<g id="node13" class="node">
<title>Node13</title>
<g id="a_node13"><a xlink:href="class_ogre_1_1_instance_batch_h_w___v_t_f.html" target="_top" xlink:title="Instancing implementation using vertex texture through Vertex Texture Fetch (VTF) and hardware instan...">
<polygon fill="none" stroke="black" points="540,-333.5 540,-352.5 696,-352.5 696,-333.5 540,-333.5"/>
<text text-anchor="middle" x="618" y="-340.5" font-family="Helvetica,sans-Serif" font-size="10.00">Ogre::InstanceBatchHW_VTF</text>
</a>
</g>
</g>
<!-- Node12&#45;&gt;Node13 -->
<g id="edge12" class="edge">
<title>Node12&#45;&gt;Node13</title>
<path fill="none" stroke="midnightblue" d="M509.66,-343C519.77,-343 530.02,-343 539.97,-343"/>
<polygon fill="midnightblue" stroke="midnightblue" points="509.61,-339.5 499.61,-343 509.61,-346.5 509.61,-339.5"/>
</g>
<!-- Node14 -->
<g id="node14" class="node">
<title>Node14</title>
<g id="a_node14"><a xlink:href="class_ogre_1_1_instance_batch_v_t_f.html" target="_top" xlink:title=" ">
<polygon fill="none" stroke="black" points="551,-295.5 551,-314.5 685,-314.5 685,-295.5 551,-295.5"/>
<text text-anchor="middle" x="618" y="-302.5" font-family="Helvetica,sans-Serif" font-size="10.00">Ogre::InstanceBatchVTF</text>
</a>
</g>
</g>
<!-- Node12&#45;&gt;Node14 -->
<g id="edge13" class="edge">
<title>Node12&#45;&gt;Node14</title>
<path fill="none" stroke="midnightblue" d="M480.61,-331.51C508.5,-326.09 541.4,-319.69 567.9,-314.54"/>
<polygon fill="midnightblue" stroke="midnightblue" points="479.73,-328.12 470.58,-333.46 481.06,-334.99 479.73,-328.12"/>
</g>
<!-- Node20 -->
<g id="node20" class="node">
<title>Node20</title>
<g id="a_node20"><a xlink:href="class_ogre_1_1_overlay_container.html" target="_top" xlink:title="A 2D element which contains other OverlayElement instances.">
<polygon fill="none" stroke="black" points="355,-219.5 355,-238.5 486,-238.5 486,-219.5 355,-219.5"/>
<text text-anchor="middle" x="420.5" y="-226.5" font-family="Helvetica,sans-Serif" font-size="10.00">Ogre::OverlayContainer</text>
</a>
</g>
</g>
<!-- Node19&#45;&gt;Node20 -->
<g id="edge19" class="edge">
<title>Node19&#45;&gt;Node20</title>
<path fill="none" stroke="midnightblue" d="M273.7,-190.87C282.85,-193.1 292.22,-195.51 301,-198 317.23,-202.6 320.76,-205.44 337,-210 349.03,-213.38 362.16,-216.61 374.34,-219.42"/>
<polygon fill="midnightblue" stroke="midnightblue" points="274.45,-187.45 263.91,-188.53 272.82,-194.26 274.45,-187.45"/>
</g>
<!-- Node23 -->
<g id="node23" class="node">
<title>Node23</title>
<g id="a_node23"><a xlink:href="class_ogre_1_1_text_area_overlay_element.html" target="_top" xlink:title="This class implements an overlay element which contains simple unformatted text.">
<polygon fill="none" stroke="black" points="337,-181.5 337,-200.5 504,-200.5 504,-181.5 337,-181.5"/>
<text text-anchor="middle" x="420.5" y="-188.5" font-family="Helvetica,sans-Serif" font-size="10.00">Ogre::TextAreaOverlayElement</text>
</a>
</g>
</g>
<!-- Node19&#45;&gt;Node23 -->
<g id="edge22" class="edge">
<title>Node19&#45;&gt;Node23</title>
<path fill="none" stroke="midnightblue" d="M292.14,-183.34C306.62,-184.21 321.95,-185.13 336.77,-186.02"/>
<polygon fill="midnightblue" stroke="midnightblue" points="291.95,-179.82 281.76,-182.71 291.53,-186.81 291.95,-179.82"/>
</g>
<!-- Node21 -->
<g id="node21" class="node">
<title>Node21</title>
<g id="a_node21"><a xlink:href="class_ogre_1_1_panel_overlay_element.html" target="_top" xlink:title="OverlayElement representing a flat, single&#45;material (or transparent) panel which can contain other el...">
<polygon fill="none" stroke="black" points="542.5,-219.5 542.5,-238.5 693.5,-238.5 693.5,-219.5 542.5,-219.5"/>
<text text-anchor="middle" x="618" y="-226.5" font-family="Helvetica,sans-Serif" font-size="10.00">Ogre::PanelOverlayElement</text>
</a>
</g>
</g>
<!-- Node20&#45;&gt;Node21 -->
<g id="edge20" class="edge">
<title>Node20&#45;&gt;Node21</title>
<path fill="none" stroke="midnightblue" d="M496.35,-229C511.43,-229 527.28,-229 542.35,-229"/>
<polygon fill="midnightblue" stroke="midnightblue" points="496.06,-225.5 486.06,-229 496.06,-232.5 496.06,-225.5"/>
</g>
<!-- Node22 -->
<g id="node22" class="node">
<title>Node22</title>
<g id="a_node22"><a xlink:href="class_ogre_1_1_border_panel_overlay_element.html" target="_top" xlink:title="A specialisation of the PanelOverlayElement to provide a panel with a border.">
<polygon fill="none" stroke="black" points="732,-214 732,-244 875,-244 875,-214 732,-214"/>
<text text-anchor="start" x="740" y="-232" font-family="Helvetica,sans-Serif" font-size="10.00">Ogre::BorderPanelOverlay</text>
<text text-anchor="middle" x="803.5" y="-221" font-family="Helvetica,sans-Serif" font-size="10.00">Element</text>
</a>
</g>
</g>
<!-- Node21&#45;&gt;Node22 -->
<g id="edge21" class="edge">
<title>Node21&#45;&gt;Node22</title>
<path fill="none" stroke="midnightblue" d="M703.75,-229C713.13,-229 722.61,-229 731.78,-229"/>
<polygon fill="midnightblue" stroke="midnightblue" points="703.64,-225.5 693.64,-229 703.64,-232.5 703.64,-225.5"/>
</g>
<!-- Node25 -->
<g id="node25" class="node">
<title>Node25</title>
<g id="a_node25"><a xlink:href="class_ogre_1_1_manual_object_1_1_manual_object_section_shadow_renderable.html" target="_top" xlink:title="Nested class to allow shadows.">
<polygon fill="none" stroke="black" points="338.5,-121.5 338.5,-162.5 502.5,-162.5 502.5,-121.5 338.5,-121.5"/>
<text text-anchor="start" x="346.5" y="-150.5" font-family="Helvetica,sans-Serif" font-size="10.00">Ogre::ManualObject</text>
<text text-anchor="start" x="346.5" y="-139.5" font-family="Helvetica,sans-Serif" font-size="10.00">::ManualObjectSectionShadow</text>
<text text-anchor="middle" x="420.5" y="-128.5" font-family="Helvetica,sans-Serif" font-size="10.00">Renderable</text>
</a>
</g>
</g>
<!-- Node24&#45;&gt;Node25 -->
<g id="edge24" class="edge">
<title>Node24&#45;&gt;Node25</title>
<path fill="none" stroke="midnightblue" d="M299.39,-141.4C312.23,-141.46 325.53,-141.53 338.41,-141.59"/>
<polygon fill="midnightblue" stroke="midnightblue" points="299.23,-137.9 289.22,-141.35 299.2,-144.9 299.23,-137.9"/>
</g>
<!-- Node27 -->
<g id="node27" class="node">
<title>Node27</title>
<g id="a_node27"><a xlink:href="class_ogre_1_1_rectangle2_d.html" target="_top" xlink:title="Allows the rendering of a simple 2D rectangle This class renders a simple 2D rectangle; this rectangl...">
<polygon fill="none" stroke="black" points="366.5,-83.5 366.5,-102.5 474.5,-102.5 474.5,-83.5 366.5,-83.5"/>
<text text-anchor="middle" x="420.5" y="-90.5" font-family="Helvetica,sans-Serif" font-size="10.00">Ogre::Rectangle2D</text>
</a>
</g>
</g>
<!-- Node26&#45;&gt;Node27 -->
<g id="edge26" class="edge">
<title>Node26&#45;&gt;Node27</title>
<path fill="none" stroke="midnightblue" d="M296.89,-96.07C320.12,-95.49 345.1,-94.86 366.41,-94.33"/>
<polygon fill="midnightblue" stroke="midnightblue" points="296.62,-92.58 286.71,-96.33 296.79,-99.58 296.62,-92.58"/>
</g>
<!-- Node28 -->
<g id="node28" class="node">
<title>Node28</title>
<g id="a_node28"><a xlink:href="class_ogre_1_1_volume_1_1_chunk.html" target="_top" xlink:title="A single volume chunk mesh.">
<polygon fill="none" stroke="black" points="361,-45.5 361,-64.5 480,-64.5 480,-45.5 361,-45.5"/>
<text text-anchor="middle" x="420.5" y="-52.5" font-family="Helvetica,sans-Serif" font-size="10.00">Ogre::Volume::Chunk</text>
</a>
</g>
</g>
<!-- Node26&#45;&gt;Node28 -->
<g id="edge27" class="edge">
<title>Node26&#45;&gt;Node28</title>
<path fill="none" stroke="midnightblue" d="M274.28,-86.3C306.01,-79.46 345.54,-70.94 375.35,-64.52"/>
<polygon fill="midnightblue" stroke="midnightblue" points="273.31,-82.93 264.28,-88.46 274.79,-89.77 273.31,-82.93"/>
</g>
<!-- Node29 -->
<g id="node29" class="node">
<title>Node29</title>
<g id="a_node29"><a xlink:href="class_ogre_1_1_wire_bounding_box.html" target="_top" xlink:title="Allows the rendering of a wireframe bounding box.">
<polygon fill="none" stroke="black" points="354,-7.5 354,-26.5 487,-26.5 487,-7.5 354,-7.5"/>
<text text-anchor="middle" x="420.5" y="-14.5" font-family="Helvetica,sans-Serif" font-size="10.00">Ogre::WireBoundingBox</text>
</a>
</g>
</g>
<!-- Node26&#45;&gt;Node29 -->
<g id="edge28" class="edge">
<title>Node26&#45;&gt;Node29</title>
<path fill="none" stroke="midnightblue" d="M290.16,-84.66C293.93,-82.99 297.57,-81.11 301,-79 322.22,-65.93 315.75,-49.03 337,-36 343.39,-32.08 350.51,-28.97 357.81,-26.5"/>
<polygon fill="midnightblue" stroke="midnightblue" points="288.62,-81.5 280.57,-88.39 291.16,-88.03 288.62,-81.5"/>
</g>
</g>
</svg>
