<?xml version="1.0" encoding="UTF-8" standalone="no"?>
<!DOCTYPE svg PUBLIC "-//W3C//DTD SVG 1.1//EN"
 "http://www.w3.org/Graphics/SVG/1.1/DTD/svg11.dtd">
<!-- Generated by graphviz version 2.43.0 (0)
 -->
<!-- Title: Ogre::RTShader::HardwareSkinningFactory Pages: 1 -->
<svg width="326pt" height="162pt"
 viewBox="0.00 0.00 326.00 162.00" xmlns="http://www.w3.org/2000/svg" xmlns:xlink="http://www.w3.org/1999/xlink">
<g id="graph0" class="graph" transform="scale(1 1) rotate(0) translate(4 158)">
<title>Ogre::RTShader::HardwareSkinningFactory</title>
<!-- Node1 -->
<g id="node1" class="node">
<title>Node1</title>
<g id="a_node1"><a xlink:title="A factory that enables creation of HardwareSkinning instances.">
<polygon fill="#bfbfbf" stroke="black" points="86.5,-0.5 86.5,-30.5 231.5,-30.5 231.5,-0.5 86.5,-0.5"/>
<text text-anchor="start" x="94.5" y="-18.5" font-family="Helvetica,sans-Serif" font-size="10.00">Ogre::RTShader::Hardware</text>
<text text-anchor="middle" x="159" y="-7.5" font-family="Helvetica,sans-Serif" font-size="10.00">SkinningFactory</text>
</a>
</g>
</g>
<!-- Node2 -->
<g id="node2" class="node">
<title>Node2</title>
<g id="a_node2"><a xlink:href="class_ogre_1_1_r_t_shader_1_1_sub_render_state_factory.html" target="_top" xlink:title="Abstract factory interface for creating SubRenderState implementation instances.">
<polygon fill="none" stroke="black" points="0,-67.5 0,-97.5 150,-97.5 150,-67.5 0,-67.5"/>
<text text-anchor="start" x="8" y="-85.5" font-family="Helvetica,sans-Serif" font-size="10.00">Ogre::RTShader::SubRender</text>
<text text-anchor="middle" x="75" y="-74.5" font-family="Helvetica,sans-Serif" font-size="10.00">StateFactory</text>
</a>
</g>
</g>
<!-- Node2&#45;&gt;Node1 -->
<g id="edge1" class="edge">
<title>Node2&#45;&gt;Node1</title>
<path fill="none" stroke="midnightblue" d="M101.28,-61.17C114.12,-51.23 129.26,-39.51 140.81,-30.58"/>
<polygon fill="midnightblue" stroke="midnightblue" points="98.99,-58.51 93.23,-67.4 103.28,-64.04 98.99,-58.51"/>
</g>
<!-- Node3 -->
<g id="node3" class="node">
<title>Node3</title>
<g id="a_node3"><a xlink:title=" ">
<polygon fill="none" stroke="#bfbfbf" points="13.5,-134.5 13.5,-153.5 136.5,-153.5 136.5,-134.5 13.5,-134.5"/>
<text text-anchor="middle" x="75" y="-141.5" font-family="Helvetica,sans-Serif" font-size="10.00">RTShaderSystemAlloc</text>
</a>
</g>
</g>
<!-- Node3&#45;&gt;Node2 -->
<g id="edge2" class="edge">
<title>Node3&#45;&gt;Node2</title>
<path fill="none" stroke="midnightblue" d="M75,-124.23C75,-115.59 75,-105.5 75,-97.52"/>
<polygon fill="midnightblue" stroke="midnightblue" points="71.5,-124.48 75,-134.48 78.5,-124.48 71.5,-124.48"/>
</g>
<!-- Node4 -->
<g id="node4" class="node">
<title>Node4</title>
<g id="a_node4"><a xlink:href="class_ogre_1_1_singleton.html" target="_top" xlink:title=" ">
<polygon fill="none" stroke="black" points="168,-67.5 168,-97.5 318,-97.5 318,-67.5 168,-67.5"/>
<text text-anchor="start" x="176" y="-85.5" font-family="Helvetica,sans-Serif" font-size="10.00">Ogre::Singleton&lt; Hardware</text>
<text text-anchor="middle" x="243" y="-74.5" font-family="Helvetica,sans-Serif" font-size="10.00">SkinningFactory &gt;</text>
</a>
</g>
</g>
<!-- Node4&#45;&gt;Node1 -->
<g id="edge3" class="edge">
<title>Node4&#45;&gt;Node1</title>
<path fill="none" stroke="midnightblue" d="M216.72,-61.17C203.88,-51.23 188.74,-39.51 177.19,-30.58"/>
<polygon fill="midnightblue" stroke="midnightblue" points="214.72,-64.04 224.77,-67.4 219.01,-58.51 214.72,-64.04"/>
</g>
</g>
</svg>
