<?xml version="1.0" encoding="UTF-8" standalone="no"?>
<!DOCTYPE svg PUBLIC "-//W3C//DTD SVG 1.1//EN"
 "http://www.w3.org/Graphics/SVG/1.1/DTD/svg11.dtd">
<!-- Generated by graphviz version 2.43.0 (0)
 -->
<!-- Title: Ogre::ScriptTranslator Pages: 1 -->
<svg width="457pt" height="154pt"
 viewBox="0.00 0.00 457.00 153.50" xmlns="http://www.w3.org/2000/svg" xmlns:xlink="http://www.w3.org/1999/xlink">
<g id="graph0" class="graph" transform="scale(1 1) rotate(0) translate(4 149.5)">
<title>Ogre::ScriptTranslator</title>
<!-- Node1 -->
<g id="node1" class="node">
<title>Node1</title>
<g id="a_node1"><a xlink:title="This class translates script AST (abstract syntax tree) into Ogre resources.">
<polygon fill="#bfbfbf" stroke="black" points="152,-69 152,-88 274,-88 274,-69 152,-69"/>
<text text-anchor="middle" x="213" y="-76" font-family="Helvetica,sans-Serif" font-size="10.00">Ogre::ScriptTranslator</text>
</a>
</g>
</g>
<!-- Node3 -->
<g id="node3" class="node">
<title>Node3</title>
<g id="a_node3"><a xlink:href="struct_ogre_1_1_element_translator.html" target="_top" xlink:title="[font_translator]">
<polygon fill="none" stroke="black" points="312.5,-126 312.5,-145 446.5,-145 446.5,-126 312.5,-126"/>
<text text-anchor="middle" x="379.5" y="-133" font-family="Helvetica,sans-Serif" font-size="10.00">Ogre::ElementTranslator</text>
</a>
</g>
</g>
<!-- Node1&#45;&gt;Node3 -->
<g id="edge2" class="edge">
<title>Node1&#45;&gt;Node3</title>
<path fill="none" stroke="midnightblue" d="M245.69,-92.03C264.25,-99.7 288.25,-109.2 310,-116.5 320.06,-119.88 331.09,-123.13 341.31,-125.96"/>
<polygon fill="midnightblue" stroke="midnightblue" points="246.83,-88.71 236.25,-88.09 244.13,-95.17 246.83,-88.71"/>
</g>
<!-- Node4 -->
<g id="node4" class="node">
<title>Node4</title>
<g id="a_node4"><a xlink:href="struct_ogre_1_1_font_translator.html" target="_top" xlink:title="[font_translator]">
<polygon fill="none" stroke="black" points="322,-88 322,-107 437,-107 437,-88 322,-88"/>
<text text-anchor="middle" x="379.5" y="-95" font-family="Helvetica,sans-Serif" font-size="10.00">Ogre::FontTranslator</text>
</a>
</g>
</g>
<!-- Node1&#45;&gt;Node4 -->
<g id="edge3" class="edge">
<title>Node1&#45;&gt;Node4</title>
<path fill="none" stroke="midnightblue" d="M284.62,-86.66C297.02,-88.09 309.78,-89.56 321.74,-90.94"/>
<polygon fill="midnightblue" stroke="midnightblue" points="284.66,-83.14 274.32,-85.47 283.85,-90.09 284.66,-83.14"/>
</g>
<!-- Node5 -->
<g id="node5" class="node">
<title>Node5</title>
<g id="a_node5"><a xlink:href="struct_ogre_1_1_overlay_translator.html" target="_top" xlink:title=" ">
<polygon fill="none" stroke="black" points="313.5,-50 313.5,-69 445.5,-69 445.5,-50 313.5,-50"/>
<text text-anchor="middle" x="379.5" y="-57" font-family="Helvetica,sans-Serif" font-size="10.00">Ogre::OverlayTranslator</text>
</a>
</g>
</g>
<!-- Node1&#45;&gt;Node5 -->
<g id="edge4" class="edge">
<title>Node1&#45;&gt;Node5</title>
<path fill="none" stroke="midnightblue" d="M284.31,-70.38C293.99,-69.26 303.9,-68.12 313.48,-67.01"/>
<polygon fill="midnightblue" stroke="midnightblue" points="283.85,-66.91 274.32,-71.53 284.66,-73.86 283.85,-66.91"/>
</g>
<!-- Node6 -->
<g id="node6" class="node">
<title>Node6</title>
<g id="a_node6"><a xlink:href="class_ogre_1_1_r_t_shader_1_1_s_g_script_translator.html" target="_top" xlink:title="This class responsible for translating core features of the RT Shader System for Ogre material script...">
<polygon fill="none" stroke="black" points="310,-0.5 310,-30.5 449,-30.5 449,-0.5 310,-0.5"/>
<text text-anchor="start" x="318" y="-18.5" font-family="Helvetica,sans-Serif" font-size="10.00">Ogre::RTShader::SGScript</text>
<text text-anchor="middle" x="379.5" y="-7.5" font-family="Helvetica,sans-Serif" font-size="10.00">Translator</text>
</a>
</g>
</g>
<!-- Node1&#45;&gt;Node6 -->
<g id="edge5" class="edge">
<title>Node1&#45;&gt;Node6</title>
<path fill="none" stroke="midnightblue" d="M247.03,-65.17C265.51,-57.78 288.98,-48.49 310,-40.5 318.64,-37.21 327.92,-33.77 336.78,-30.52"/>
<polygon fill="midnightblue" stroke="midnightblue" points="245.58,-61.98 237.6,-68.95 248.19,-68.48 245.58,-61.98"/>
</g>
<!-- Node2 -->
<g id="node2" class="node">
<title>Node2</title>
<g id="a_node2"><a xlink:title=" ">
<polygon fill="none" stroke="#bfbfbf" points="0,-69 0,-88 116,-88 116,-69 0,-69"/>
<text text-anchor="middle" x="58" y="-76" font-family="Helvetica,sans-Serif" font-size="10.00">ScriptTranslatorAlloc</text>
</a>
</g>
</g>
<!-- Node2&#45;&gt;Node1 -->
<g id="edge1" class="edge">
<title>Node2&#45;&gt;Node1</title>
<path fill="none" stroke="midnightblue" d="M126.61,-78.5C135.06,-78.5 143.65,-78.5 151.97,-78.5"/>
<polygon fill="midnightblue" stroke="midnightblue" points="126.41,-75 116.41,-78.5 126.41,-82 126.41,-75"/>
</g>
</g>
</svg>
