<?xml version="1.0" encoding="UTF-8" standalone="no"?>
<!DOCTYPE svg PUBLIC "-//W3C//DTD SVG 1.1//EN"
 "http://www.w3.org/Graphics/SVG/1.1/DTD/svg11.dtd">
<!-- Generated by graphviz version 2.43.0 (0)
 -->
<!-- Title: Ogre::EmbeddedZipArchiveFactory Pages: 1 -->
<svg width="260pt" height="207pt"
 viewBox="0.00 0.00 260.00 207.00" xmlns="http://www.w3.org/2000/svg" xmlns:xlink="http://www.w3.org/1999/xlink">
<g id="graph0" class="graph" transform="scale(1 1) rotate(0) translate(4 203)">
<title>Ogre::EmbeddedZipArchiveFactory</title>
<!-- Node1 -->
<g id="node1" class="node">
<title>Node1</title>
<g id="a_node1"><a xlink:title="Specialisation of ZipArchiveFactory for embedded Zip files.">
<polygon fill="#bfbfbf" stroke="black" points="70.5,-0.5 70.5,-30.5 220.5,-30.5 220.5,-0.5 70.5,-0.5"/>
<text text-anchor="start" x="78.5" y="-18.5" font-family="Helvetica,sans-Serif" font-size="10.00">Ogre::EmbeddedZipArchive</text>
<text text-anchor="middle" x="145.5" y="-7.5" font-family="Helvetica,sans-Serif" font-size="10.00">Factory</text>
</a>
</g>
</g>
<!-- Node2 -->
<g id="node2" class="node">
<title>Node2</title>
<g id="a_node2"><a xlink:href="class_ogre_1_1_zip_archive_factory.html" target="_top" xlink:title="Specialisation to allow reading of files from a zip format source archive.">
<polygon fill="none" stroke="black" points="78.5,-67.5 78.5,-86.5 212.5,-86.5 212.5,-67.5 78.5,-67.5"/>
<text text-anchor="middle" x="145.5" y="-74.5" font-family="Helvetica,sans-Serif" font-size="10.00">Ogre::ZipArchiveFactory</text>
</a>
</g>
</g>
<!-- Node2&#45;&gt;Node1 -->
<g id="edge1" class="edge">
<title>Node2&#45;&gt;Node1</title>
<path fill="none" stroke="midnightblue" d="M145.5,-57.23C145.5,-48.59 145.5,-38.5 145.5,-30.52"/>
<polygon fill="midnightblue" stroke="midnightblue" points="142,-57.48 145.5,-67.48 149,-57.48 142,-57.48"/>
</g>
<!-- Node3 -->
<g id="node3" class="node">
<title>Node3</title>
<g id="a_node3"><a xlink:href="class_ogre_1_1_archive_factory.html" target="_top" xlink:title="Abstract factory class, archive codec plugins can register concrete subclasses of this.">
<polygon fill="none" stroke="black" points="86.5,-123.5 86.5,-142.5 204.5,-142.5 204.5,-123.5 86.5,-123.5"/>
<text text-anchor="middle" x="145.5" y="-130.5" font-family="Helvetica,sans-Serif" font-size="10.00">Ogre::ArchiveFactory</text>
</a>
</g>
</g>
<!-- Node3&#45;&gt;Node2 -->
<g id="edge2" class="edge">
<title>Node3&#45;&gt;Node2</title>
<path fill="none" stroke="midnightblue" d="M145.5,-112.8C145.5,-103.91 145.5,-93.78 145.5,-86.75"/>
<polygon fill="midnightblue" stroke="midnightblue" points="142,-113.08 145.5,-123.08 149,-113.08 142,-113.08"/>
</g>
<!-- Node4 -->
<g id="node4" class="node">
<title>Node4</title>
<g id="a_node4"><a xlink:href="class_ogre_1_1_factory_obj.html" target="_top" xlink:title=" ">
<polygon fill="none" stroke="black" points="0,-179.5 0,-198.5 157,-198.5 157,-179.5 0,-179.5"/>
<text text-anchor="middle" x="78.5" y="-186.5" font-family="Helvetica,sans-Serif" font-size="10.00">Ogre::FactoryObj&lt; Archive &gt;</text>
</a>
</g>
</g>
<!-- Node4&#45;&gt;Node3 -->
<g id="edge3" class="edge">
<title>Node4&#45;&gt;Node3</title>
<path fill="none" stroke="midnightblue" d="M97.33,-172.82C109.34,-163.15 124.47,-150.95 134.54,-142.83"/>
<polygon fill="midnightblue" stroke="midnightblue" points="94.85,-170.32 89.26,-179.32 99.25,-175.77 94.85,-170.32"/>
</g>
<!-- Node5 -->
<g id="node5" class="node">
<title>Node5</title>
<g id="a_node5"><a xlink:title=" ">
<polygon fill="none" stroke="#bfbfbf" points="175,-179.5 175,-198.5 252,-198.5 252,-179.5 175,-179.5"/>
<text text-anchor="middle" x="213.5" y="-186.5" font-family="Helvetica,sans-Serif" font-size="10.00">ArchiveAlloc</text>
</a>
</g>
</g>
<!-- Node5&#45;&gt;Node3 -->
<g id="edge4" class="edge">
<title>Node5&#45;&gt;Node3</title>
<path fill="none" stroke="midnightblue" d="M194.74,-173.1C182.5,-163.38 166.94,-151.03 156.62,-142.83"/>
<polygon fill="midnightblue" stroke="midnightblue" points="192.57,-175.85 202.57,-179.32 196.92,-170.36 192.57,-175.85"/>
</g>
</g>
</svg>
