<?xml version="1.0" encoding="UTF-8" standalone="no"?>
<!DOCTYPE svg PUBLIC "-//W3C//DTD SVG 1.1//EN"
 "http://www.w3.org/Graphics/SVG/1.1/DTD/svg11.dtd">
<!-- Generated by graphviz version 2.43.0 (0)
 -->
<!-- Title: Ogre::RenderTarget Pages: 1 -->
<svg width="844pt" height="586pt"
 viewBox="0.00 0.00 844.00 586.00" xmlns="http://www.w3.org/2000/svg" xmlns:xlink="http://www.w3.org/1999/xlink">
<g id="graph0" class="graph" transform="scale(1 1) rotate(0) translate(4 582)">
<title>Ogre::RenderTarget</title>
<!-- Node1 -->
<g id="node1" class="node">
<title>Node1</title>
<g id="a_node1"><a xlink:title="A &#39;canvas&#39; which can receive the results of a rendering operation.">
<polygon fill="#bfbfbf" stroke="black" points="128,-231.5 128,-250.5 238,-250.5 238,-231.5 128,-231.5"/>
<text text-anchor="middle" x="183" y="-238.5" font-family="Helvetica,sans-Serif" font-size="10.00">Ogre::RenderTarget</text>
</a>
</g>
</g>
<!-- Node3 -->
<g id="node3" class="node">
<title>Node3</title>
<g id="a_node3"><a xlink:href="class_ogre_1_1_multi_render_target.html" target="_top" xlink:title="This class represents a render target that renders to multiple RenderTextures at once.">
<polygon fill="none" stroke="black" points="274,-427.5 274,-446.5 409,-446.5 409,-427.5 274,-427.5"/>
<text text-anchor="middle" x="341.5" y="-434.5" font-family="Helvetica,sans-Serif" font-size="10.00">Ogre::MultiRenderTarget</text>
</a>
</g>
</g>
<!-- Node1&#45;&gt;Node3 -->
<g id="edge2" class="edge">
<title>Node1&#45;&gt;Node3</title>
<path fill="none" stroke="midnightblue" d="M198.04,-258.58C230.09,-298.73 307.8,-396.05 332.69,-427.22"/>
<polygon fill="midnightblue" stroke="midnightblue" points="200.74,-256.35 191.76,-250.72 195.27,-260.72 200.74,-256.35"/>
</g>
<!-- Node10 -->
<g id="node10" class="node">
<title>Node10</title>
<g id="a_node10"><a xlink:href="class_ogre_1_1_render_texture.html" target="_top" xlink:title="This class represents a RenderTarget that renders to a Texture.">
<polygon fill="none" stroke="black" points="283.5,-231.5 283.5,-250.5 399.5,-250.5 399.5,-231.5 283.5,-231.5"/>
<text text-anchor="middle" x="341.5" y="-238.5" font-family="Helvetica,sans-Serif" font-size="10.00">Ogre::RenderTexture</text>
</a>
</g>
</g>
<!-- Node1&#45;&gt;Node10 -->
<g id="edge9" class="edge">
<title>Node1&#45;&gt;Node10</title>
<path fill="none" stroke="midnightblue" d="M248.36,-241C259.96,-241 271.99,-241 283.37,-241"/>
<polygon fill="midnightblue" stroke="midnightblue" points="248.3,-237.5 238.3,-241 248.3,-244.5 248.3,-237.5"/>
</g>
<!-- Node21 -->
<g id="node21" class="node">
<title>Node21</title>
<g id="a_node21"><a xlink:href="class_ogre_1_1_render_window.html" target="_top" xlink:title="Manages the target rendering window.">
<polygon fill="none" stroke="black" points="282,-76.5 282,-95.5 401,-95.5 401,-76.5 282,-76.5"/>
<text text-anchor="middle" x="341.5" y="-83.5" font-family="Helvetica,sans-Serif" font-size="10.00">Ogre::RenderWindow</text>
</a>
</g>
</g>
<!-- Node1&#45;&gt;Node21 -->
<g id="edge20" class="edge">
<title>Node1&#45;&gt;Node21</title>
<path fill="none" stroke="midnightblue" d="M201.29,-223.88C234.19,-191.29 304.81,-121.35 330.71,-95.69"/>
<polygon fill="midnightblue" stroke="midnightblue" points="198.43,-221.78 193.79,-231.3 203.36,-226.75 198.43,-221.78"/>
</g>
<!-- Node2 -->
<g id="node2" class="node">
<title>Node2</title>
<g id="a_node2"><a xlink:title=" ">
<polygon fill="none" stroke="#bfbfbf" points="0,-231.5 0,-250.5 92,-250.5 92,-231.5 0,-231.5"/>
<text text-anchor="middle" x="46" y="-238.5" font-family="Helvetica,sans-Serif" font-size="10.00">RenderSysAlloc</text>
</a>
</g>
</g>
<!-- Node2&#45;&gt;Node1 -->
<g id="edge1" class="edge">
<title>Node2&#45;&gt;Node1</title>
<path fill="none" stroke="midnightblue" d="M102.36,-241C110.72,-241 119.33,-241 127.66,-241"/>
<polygon fill="midnightblue" stroke="midnightblue" points="102.33,-237.5 92.33,-241 102.33,-244.5 102.33,-237.5"/>
</g>
<!-- Node4 -->
<g id="node4" class="node">
<title>Node4</title>
<g id="a_node4"><a xlink:href="class_ogre_1_1_d3_d11_multi_render_target.html" target="_top" xlink:title=" ">
<polygon fill="none" stroke="black" points="449,-558.5 449,-577.5 617,-577.5 617,-558.5 449,-558.5"/>
<text text-anchor="middle" x="533" y="-565.5" font-family="Helvetica,sans-Serif" font-size="10.00">Ogre::D3D11MultiRenderTarget</text>
</a>
</g>
</g>
<!-- Node3&#45;&gt;Node4 -->
<g id="edge3" class="edge">
<title>Node3&#45;&gt;Node4</title>
<path fill="none" stroke="midnightblue" d="M353.86,-455.24C370.58,-480.47 404.29,-525.56 445,-549 451.7,-552.86 459.1,-555.93 466.67,-558.38"/>
<polygon fill="midnightblue" stroke="midnightblue" points="356.67,-453.13 348.3,-446.63 350.78,-456.93 356.67,-453.13"/>
</g>
<!-- Node5 -->
<g id="node5" class="node">
<title>Node5</title>
<g id="a_node5"><a xlink:href="class_ogre_1_1_d3_d9_multi_render_target.html" target="_top" xlink:title=" ">
<polygon fill="none" stroke="black" points="452,-520.5 452,-539.5 614,-539.5 614,-520.5 452,-520.5"/>
<text text-anchor="middle" x="533" y="-527.5" font-family="Helvetica,sans-Serif" font-size="10.00">Ogre::D3D9MultiRenderTarget</text>
</a>
</g>
</g>
<!-- Node3&#45;&gt;Node5 -->
<g id="edge4" class="edge">
<title>Node3&#45;&gt;Node5</title>
<path fill="none" stroke="midnightblue" d="M360.36,-453.46C379.76,-470.43 412.36,-496.42 445,-511 453.61,-514.85 463.06,-517.94 472.45,-520.42"/>
<polygon fill="midnightblue" stroke="midnightblue" points="362.45,-450.63 352.66,-446.58 357.79,-455.85 362.45,-450.63"/>
</g>
<!-- Node6 -->
<g id="node6" class="node">
<title>Node6</title>
<g id="a_node6"><a xlink:href="class_ogre_1_1_g_l3_plus_f_b_o_multi_render_target.html" target="_top" xlink:title="MultiRenderTarget for OpenGL.">
<polygon fill="none" stroke="black" points="451,-471 451,-501 615,-501 615,-471 451,-471"/>
<text text-anchor="start" x="459" y="-489" font-family="Helvetica,sans-Serif" font-size="10.00">Ogre::GL3PlusFBOMultiRender</text>
<text text-anchor="middle" x="533" y="-478" font-family="Helvetica,sans-Serif" font-size="10.00">Target</text>
</a>
</g>
</g>
<!-- Node3&#45;&gt;Node6 -->
<g id="edge5" class="edge">
<title>Node3&#45;&gt;Node6</title>
<path fill="none" stroke="midnightblue" d="M389.3,-449.1C414.85,-455.71 446.71,-463.95 473.85,-470.96"/>
<polygon fill="midnightblue" stroke="midnightblue" points="390.05,-445.68 379.49,-446.56 388.29,-452.46 390.05,-445.68"/>
</g>
<!-- Node7 -->
<g id="node7" class="node">
<title>Node7</title>
<g id="a_node7"><a xlink:href="class_ogre_1_1_g_l_e_s2_f_b_o_multi_render_target.html" target="_top" xlink:title="MultiRenderTarget for GL ES 2.x.">
<polygon fill="none" stroke="black" points="455,-422 455,-452 611,-452 611,-422 455,-422"/>
<text text-anchor="start" x="463" y="-440" font-family="Helvetica,sans-Serif" font-size="10.00">Ogre::GLES2FBOMultiRender</text>
<text text-anchor="middle" x="533" y="-429" font-family="Helvetica,sans-Serif" font-size="10.00">Target</text>
</a>
</g>
</g>
<!-- Node3&#45;&gt;Node7 -->
<g id="edge6" class="edge">
<title>Node3&#45;&gt;Node7</title>
<path fill="none" stroke="midnightblue" d="M419.26,-437C431.01,-437 443.15,-437 454.91,-437"/>
<polygon fill="midnightblue" stroke="midnightblue" points="419.04,-433.5 409.04,-437 419.04,-440.5 419.04,-433.5"/>
</g>
<!-- Node8 -->
<g id="node8" class="node">
<title>Node8</title>
<g id="a_node8"><a xlink:href="class_ogre_1_1_g_l_f_b_o_multi_render_target.html" target="_top" xlink:title="MultiRenderTarget for GL.">
<polygon fill="none" stroke="black" points="449,-383.5 449,-402.5 617,-402.5 617,-383.5 449,-383.5"/>
<text text-anchor="middle" x="533" y="-390.5" font-family="Helvetica,sans-Serif" font-size="10.00">Ogre::GLFBOMultiRenderTarget</text>
</a>
</g>
</g>
<!-- Node3&#45;&gt;Node8 -->
<g id="edge7" class="edge">
<title>Node3&#45;&gt;Node8</title>
<path fill="none" stroke="midnightblue" d="M393.37,-425.05C409.84,-421.19 428.19,-416.9 445,-413 459.8,-409.57 476.01,-405.83 490.39,-402.53"/>
<polygon fill="midnightblue" stroke="midnightblue" points="392.33,-421.7 383.39,-427.39 393.93,-428.51 392.33,-421.7"/>
</g>
<!-- Node9 -->
<g id="node9" class="node">
<title>Node9</title>
<g id="a_node9"><a xlink:href="class_ogre_1_1_metal_multi_render_target.html" target="_top" xlink:title=" ">
<polygon fill="none" stroke="black" points="451.5,-345.5 451.5,-364.5 614.5,-364.5 614.5,-345.5 451.5,-345.5"/>
<text text-anchor="middle" x="533" y="-352.5" font-family="Helvetica,sans-Serif" font-size="10.00">Ogre::MetalMultiRenderTarget</text>
</a>
</g>
</g>
<!-- Node3&#45;&gt;Node9 -->
<g id="edge8" class="edge">
<title>Node3&#45;&gt;Node9</title>
<path fill="none" stroke="midnightblue" d="M363.33,-421.27C383.29,-406.93 414.76,-386.19 445,-374 454.46,-370.19 464.83,-367.08 475.01,-364.56"/>
<polygon fill="midnightblue" stroke="midnightblue" points="361.02,-418.63 355.02,-427.35 365.15,-424.27 361.02,-418.63"/>
</g>
<!-- Node11 -->
<g id="node11" class="node">
<title>Node11</title>
<g id="a_node11"><a xlink:href="class_ogre_1_1_d3_d11_render_texture.html" target="_top" xlink:title="RenderTexture implementation for D3D11.">
<polygon fill="none" stroke="black" points="458.5,-307.5 458.5,-326.5 607.5,-326.5 607.5,-307.5 458.5,-307.5"/>
<text text-anchor="middle" x="533" y="-314.5" font-family="Helvetica,sans-Serif" font-size="10.00">Ogre::D3D11RenderTexture</text>
</a>
</g>
</g>
<!-- Node10&#45;&gt;Node11 -->
<g id="edge10" class="edge">
<title>Node10&#45;&gt;Node11</title>
<path fill="none" stroke="midnightblue" d="M364.92,-256C385.09,-268.87 415.93,-287.02 445,-298 454.98,-301.77 465.9,-304.89 476.53,-307.43"/>
<polygon fill="midnightblue" stroke="midnightblue" points="366.75,-253.02 356.45,-250.51 362.94,-258.89 366.75,-253.02"/>
</g>
<!-- Node12 -->
<g id="node12" class="node">
<title>Node12</title>
<g id="a_node12"><a xlink:href="class_ogre_1_1_d3_d9_render_texture.html" target="_top" xlink:title="RenderTexture implementation for D3D9.">
<polygon fill="none" stroke="black" points="461.5,-269.5 461.5,-288.5 604.5,-288.5 604.5,-269.5 461.5,-269.5"/>
<text text-anchor="middle" x="533" y="-276.5" font-family="Helvetica,sans-Serif" font-size="10.00">Ogre::D3D9RenderTexture</text>
</a>
</g>
</g>
<!-- Node10&#45;&gt;Node12 -->
<g id="edge11" class="edge">
<title>Node10&#45;&gt;Node12</title>
<path fill="none" stroke="midnightblue" d="M400.39,-252.61C427.35,-258.01 459.01,-264.36 484.53,-269.48"/>
<polygon fill="midnightblue" stroke="midnightblue" points="400.81,-249.12 390.32,-250.59 399.44,-255.99 400.81,-249.12"/>
</g>
<!-- Node13 -->
<g id="node13" class="node">
<title>Node13</title>
<g id="a_node13"><a xlink:href="class_ogre_1_1_g_l_render_texture.html" target="_top" xlink:title="Base class for GL Render Textures.">
<polygon fill="none" stroke="black" points="468.5,-231.5 468.5,-250.5 597.5,-250.5 597.5,-231.5 468.5,-231.5"/>
<text text-anchor="middle" x="533" y="-238.5" font-family="Helvetica,sans-Serif" font-size="10.00">Ogre::GLRenderTexture</text>
</a>
</g>
</g>
<!-- Node10&#45;&gt;Node13 -->
<g id="edge12" class="edge">
<title>Node10&#45;&gt;Node13</title>
<path fill="none" stroke="midnightblue" d="M409.72,-241C428.8,-241 449.52,-241 468.38,-241"/>
<polygon fill="midnightblue" stroke="midnightblue" points="409.61,-237.5 399.61,-241 409.61,-244.5 409.61,-237.5"/>
</g>
<!-- Node19 -->
<g id="node19" class="node">
<title>Node19</title>
<g id="a_node19"><a xlink:href="class_ogre_1_1_metal_depth_texture_target.html" target="_top" xlink:title=" ">
<polygon fill="none" stroke="black" points="448.5,-193.5 448.5,-212.5 617.5,-212.5 617.5,-193.5 448.5,-193.5"/>
<text text-anchor="middle" x="533" y="-200.5" font-family="Helvetica,sans-Serif" font-size="10.00">Ogre::MetalDepthTextureTarget</text>
</a>
</g>
</g>
<!-- Node10&#45;&gt;Node19 -->
<g id="edge18" class="edge">
<title>Node10&#45;&gt;Node19</title>
<path fill="none" stroke="midnightblue" d="M400.39,-229.39C427.35,-223.99 459.01,-217.64 484.53,-212.52"/>
<polygon fill="midnightblue" stroke="midnightblue" points="399.44,-226.01 390.32,-231.41 400.81,-232.88 399.44,-226.01"/>
</g>
<!-- Node20 -->
<g id="node20" class="node">
<title>Node20</title>
<g id="a_node20"><a xlink:href="class_ogre_1_1_metal_render_texture.html" target="_top" xlink:title=" ">
<polygon fill="none" stroke="black" points="461,-155.5 461,-174.5 605,-174.5 605,-155.5 461,-155.5"/>
<text text-anchor="middle" x="533" y="-162.5" font-family="Helvetica,sans-Serif" font-size="10.00">Ogre::MetalRenderTexture</text>
</a>
</g>
</g>
<!-- Node10&#45;&gt;Node20 -->
<g id="edge19" class="edge">
<title>Node10&#45;&gt;Node20</title>
<path fill="none" stroke="midnightblue" d="M364.92,-226C385.09,-213.13 415.93,-194.98 445,-184 454.98,-180.23 465.9,-177.11 476.53,-174.57"/>
<polygon fill="midnightblue" stroke="midnightblue" points="362.94,-223.11 356.45,-231.49 366.75,-228.98 362.94,-223.11"/>
</g>
<!-- Node14 -->
<g id="node14" class="node">
<title>Node14</title>
<g id="a_node14"><a xlink:href="class_ogre_1_1_g_l3_plus_f_b_o_render_texture.html" target="_top" xlink:title="RenderTexture for GL FBO.">
<polygon fill="none" stroke="black" points="658.5,-308.5 658.5,-327.5 834.5,-327.5 834.5,-308.5 658.5,-308.5"/>
<text text-anchor="middle" x="746.5" y="-315.5" font-family="Helvetica,sans-Serif" font-size="10.00">Ogre::GL3PlusFBORenderTexture</text>
</a>
</g>
</g>
<!-- Node13&#45;&gt;Node14 -->
<g id="edge13" class="edge">
<title>Node13&#45;&gt;Node14</title>
<path fill="none" stroke="midnightblue" d="M607.64,-253.63C612.28,-255.47 616.78,-257.58 621,-260 641.47,-271.72 636.51,-287.31 657,-299 663.82,-302.89 671.36,-305.99 679.07,-308.45"/>
<polygon fill="midnightblue" stroke="midnightblue" points="608.54,-250.24 597.94,-250.21 606.21,-256.84 608.54,-250.24"/>
</g>
<!-- Node15 -->
<g id="node15" class="node">
<title>Node15</title>
<g id="a_node15"><a xlink:href="class_ogre_1_1_g_l_copying_render_texture.html" target="_top" xlink:title=" ">
<polygon fill="none" stroke="black" points="662,-270.5 662,-289.5 831,-289.5 831,-270.5 662,-270.5"/>
<text text-anchor="middle" x="746.5" y="-277.5" font-family="Helvetica,sans-Serif" font-size="10.00">Ogre::GLCopyingRenderTexture</text>
</a>
</g>
</g>
<!-- Node13&#45;&gt;Node15 -->
<g id="edge14" class="edge">
<title>Node13&#45;&gt;Node15</title>
<path fill="none" stroke="midnightblue" d="M595.63,-252.36C626.83,-258.12 664.27,-265.02 693.93,-270.49"/>
<polygon fill="midnightblue" stroke="midnightblue" points="596.21,-248.91 585.74,-250.54 594.94,-255.8 596.21,-248.91"/>
</g>
<!-- Node16 -->
<g id="node16" class="node">
<title>Node16</title>
<g id="a_node16"><a xlink:href="class_ogre_1_1_g_l_e_s2_f_b_o_render_texture.html" target="_top" xlink:title="RenderTexture for GL ES 2 FBO.">
<polygon fill="none" stroke="black" points="663,-232.5 663,-251.5 830,-251.5 830,-232.5 663,-232.5"/>
<text text-anchor="middle" x="746.5" y="-239.5" font-family="Helvetica,sans-Serif" font-size="10.00">Ogre::GLES2FBORenderTexture</text>
</a>
</g>
</g>
<!-- Node13&#45;&gt;Node16 -->
<g id="edge15" class="edge">
<title>Node13&#45;&gt;Node16</title>
<path fill="none" stroke="midnightblue" d="M607.99,-241.35C625.67,-241.43 644.65,-241.52 662.7,-241.61"/>
<polygon fill="midnightblue" stroke="midnightblue" points="607.76,-237.85 597.74,-241.3 607.73,-244.85 607.76,-237.85"/>
</g>
<!-- Node17 -->
<g id="node17" class="node">
<title>Node17</title>
<g id="a_node17"><a xlink:href="class_ogre_1_1_g_l_f_b_o_render_texture.html" target="_top" xlink:title="RenderTexture for GL FBO.">
<polygon fill="none" stroke="black" points="672,-194.5 672,-213.5 821,-213.5 821,-194.5 672,-194.5"/>
<text text-anchor="middle" x="746.5" y="-201.5" font-family="Helvetica,sans-Serif" font-size="10.00">Ogre::GLFBORenderTexture</text>
</a>
</g>
</g>
<!-- Node13&#45;&gt;Node17 -->
<g id="edge16" class="edge">
<title>Node13&#45;&gt;Node17</title>
<path fill="none" stroke="midnightblue" d="M598.67,-229.69C628.15,-224.53 662.69,-218.49 690.85,-213.56"/>
<polygon fill="midnightblue" stroke="midnightblue" points="597.71,-226.3 588.47,-231.47 598.92,-233.2 597.71,-226.3"/>
</g>
<!-- Node18 -->
<g id="node18" class="node">
<title>Node18</title>
<g id="a_node18"><a xlink:href="class_ogre_1_1_g_l_p_b_render_texture.html" target="_top" xlink:title=" ">
<polygon fill="none" stroke="black" points="675.5,-156.5 675.5,-175.5 817.5,-175.5 817.5,-156.5 675.5,-156.5"/>
<text text-anchor="middle" x="746.5" y="-163.5" font-family="Helvetica,sans-Serif" font-size="10.00">Ogre::GLPBRenderTexture</text>
</a>
</g>
</g>
<!-- Node13&#45;&gt;Node18 -->
<g id="edge17" class="edge">
<title>Node13&#45;&gt;Node18</title>
<path fill="none" stroke="midnightblue" d="M607.56,-228.24C612.23,-226.43 616.75,-224.36 621,-222 641.06,-210.86 636.92,-196.11 657,-185 664.01,-181.12 671.74,-178.03 679.63,-175.58"/>
<polygon fill="midnightblue" stroke="midnightblue" points="606.15,-225.03 597.84,-231.61 608.44,-231.64 606.15,-225.03"/>
</g>
<!-- Node22 -->
<g id="node22" class="node">
<title>Node22</title>
<g id="a_node22"><a xlink:href="class_ogre_1_1_d3_d11_render_window_base.html" target="_top" xlink:title=" ">
<polygon fill="none" stroke="black" points="445,-114.5 445,-133.5 621,-133.5 621,-114.5 445,-114.5"/>
<text text-anchor="middle" x="533" y="-121.5" font-family="Helvetica,sans-Serif" font-size="10.00">Ogre::D3D11RenderWindowBase</text>
</a>
</g>
</g>
<!-- Node21&#45;&gt;Node22 -->
<g id="edge21" class="edge">
<title>Node21&#45;&gt;Node22</title>
<path fill="none" stroke="midnightblue" d="M400.39,-97.61C427.35,-103.01 459.01,-109.36 484.53,-114.48"/>
<polygon fill="midnightblue" stroke="midnightblue" points="400.81,-94.12 390.32,-95.59 399.44,-100.99 400.81,-94.12"/>
</g>
<!-- Node24 -->
<g id="node24" class="node">
<title>Node24</title>
<g id="a_node24"><a xlink:href="class_ogre_1_1_d3_d9_render_window.html" target="_top" xlink:title=" ">
<polygon fill="none" stroke="black" points="460,-76.5 460,-95.5 606,-95.5 606,-76.5 460,-76.5"/>
<text text-anchor="middle" x="533" y="-83.5" font-family="Helvetica,sans-Serif" font-size="10.00">Ogre::D3D9RenderWindow</text>
</a>
</g>
</g>
<!-- Node21&#45;&gt;Node24 -->
<g id="edge23" class="edge">
<title>Node21&#45;&gt;Node24</title>
<path fill="none" stroke="midnightblue" d="M411.37,-86C427.17,-86 444,-86 459.93,-86"/>
<polygon fill="midnightblue" stroke="midnightblue" points="411.16,-82.5 401.16,-86 411.16,-89.5 411.16,-82.5"/>
</g>
<!-- Node25 -->
<g id="node25" class="node">
<title>Node25</title>
<g id="a_node25"><a xlink:href="class_ogre_1_1_g_l_window.html" target="_top" xlink:title=" ">
<polygon fill="none" stroke="black" points="484.5,-38.5 484.5,-57.5 581.5,-57.5 581.5,-38.5 484.5,-38.5"/>
<text text-anchor="middle" x="533" y="-45.5" font-family="Helvetica,sans-Serif" font-size="10.00">Ogre::GLWindow</text>
</a>
</g>
</g>
<!-- Node21&#45;&gt;Node25 -->
<g id="edge24" class="edge">
<title>Node21&#45;&gt;Node25</title>
<path fill="none" stroke="midnightblue" d="M400.39,-74.39C427.35,-68.99 459.01,-62.64 484.53,-57.52"/>
<polygon fill="midnightblue" stroke="midnightblue" points="399.44,-71.01 390.32,-76.41 400.81,-77.88 399.44,-71.01"/>
</g>
<!-- Node26 -->
<g id="node26" class="node">
<title>Node26</title>
<g id="a_node26"><a xlink:href="class_ogre_1_1_metal_render_window.html" target="_top" xlink:title=" ">
<polygon fill="none" stroke="black" points="459.5,-0.5 459.5,-19.5 606.5,-19.5 606.5,-0.5 459.5,-0.5"/>
<text text-anchor="middle" x="533" y="-7.5" font-family="Helvetica,sans-Serif" font-size="10.00">Ogre::MetalRenderWindow</text>
</a>
</g>
</g>
<!-- Node21&#45;&gt;Node26 -->
<g id="edge25" class="edge">
<title>Node21&#45;&gt;Node26</title>
<path fill="none" stroke="midnightblue" d="M364.92,-71C385.09,-58.13 415.93,-39.98 445,-29 454.98,-25.23 465.9,-22.11 476.53,-19.57"/>
<polygon fill="midnightblue" stroke="midnightblue" points="362.94,-68.11 356.45,-76.49 366.75,-73.98 362.94,-68.11"/>
</g>
<!-- Node23 -->
<g id="node23" class="node">
<title>Node23</title>
<g id="a_node23"><a xlink:href="class_ogre_1_1_d3_d11_render_window_swap_chain_based.html" target="_top" xlink:title=" ">
<polygon fill="none" stroke="black" points="657,-107 657,-137 836,-137 836,-107 657,-107"/>
<text text-anchor="start" x="665" y="-125" font-family="Helvetica,sans-Serif" font-size="10.00">Ogre::D3D11RenderWindowSwap</text>
<text text-anchor="middle" x="746.5" y="-114" font-family="Helvetica,sans-Serif" font-size="10.00">ChainBased</text>
</a>
</g>
</g>
<!-- Node22&#45;&gt;Node23 -->
<g id="edge22" class="edge">
<title>Node22&#45;&gt;Node23</title>
<path fill="none" stroke="midnightblue" d="M631.47,-123.08C639.9,-123 648.4,-122.92 656.75,-122.84"/>
<polygon fill="midnightblue" stroke="midnightblue" points="631.21,-119.58 621.25,-123.17 631.28,-126.58 631.21,-119.58"/>
</g>
</g>
</svg>
