<?xml version="1.0" encoding="UTF-8" standalone="no"?>
<!DOCTYPE svg PUBLIC "-//W3C//DTD SVG 1.1//EN"
 "http://www.w3.org/Graphics/SVG/1.1/DTD/svg11.dtd">
<!-- Generated by graphviz version 2.43.0 (0)
 -->
<!-- Title: Ogre::HardwareBufferManager Pages: 1 -->
<svg width="718pt" height="323pt"
 viewBox="0.00 0.00 718.00 323.00" xmlns="http://www.w3.org/2000/svg" xmlns:xlink="http://www.w3.org/1999/xlink">
<g id="graph0" class="graph" transform="scale(1 1) rotate(0) translate(4 319)">
<title>Ogre::HardwareBufferManager</title>
<!-- Node1 -->
<g id="node1" class="node">
<title>Node1</title>
<g id="a_node1"><a xlink:title="Singleton wrapper for hardware buffer manager.">
<polygon fill="#bfbfbf" stroke="black" points="331,-143 331,-162 496,-162 496,-143 331,-143"/>
<text text-anchor="middle" x="413.5" y="-150" font-family="Helvetica,sans-Serif" font-size="10.00">Ogre::HardwareBufferManager</text>
</a>
</g>
</g>
<!-- Node5 -->
<g id="node5" class="node">
<title>Node5</title>
<g id="a_node5"><a xlink:href="class_ogre_1_1_d3_d11_hardware_buffer_manager.html" target="_top" xlink:title="Implementation of HardwareBufferManager for D3D11.">
<polygon fill="none" stroke="black" points="543.5,-284.5 543.5,-314.5 698.5,-314.5 698.5,-284.5 543.5,-284.5"/>
<text text-anchor="start" x="551.5" y="-302.5" font-family="Helvetica,sans-Serif" font-size="10.00">Ogre::D3D11HardwareBuffer</text>
<text text-anchor="middle" x="621" y="-291.5" font-family="Helvetica,sans-Serif" font-size="10.00">Manager</text>
</a>
</g>
</g>
<!-- Node1&#45;&gt;Node5 -->
<g id="edge4" class="edge">
<title>Node1&#45;&gt;Node5</title>
<path fill="none" stroke="midnightblue" d="M426.83,-170.68C446.1,-197.66 485.93,-248.05 532,-275.5 537.71,-278.9 543.92,-281.84 550.31,-284.36"/>
<polygon fill="midnightblue" stroke="midnightblue" points="429.5,-168.38 420.9,-162.19 423.76,-172.39 429.5,-168.38"/>
</g>
<!-- Node6 -->
<g id="node6" class="node">
<title>Node6</title>
<g id="a_node6"><a xlink:href="class_ogre_1_1_d3_d9_hardware_buffer_manager.html" target="_top" xlink:title="Implementation of HardwareBufferManager for D3D9.">
<polygon fill="none" stroke="black" points="546.5,-235.5 546.5,-265.5 695.5,-265.5 695.5,-235.5 546.5,-235.5"/>
<text text-anchor="start" x="554.5" y="-253.5" font-family="Helvetica,sans-Serif" font-size="10.00">Ogre::D3D9HardwareBuffer</text>
<text text-anchor="middle" x="621" y="-242.5" font-family="Helvetica,sans-Serif" font-size="10.00">Manager</text>
</a>
</g>
</g>
<!-- Node1&#45;&gt;Node6 -->
<g id="edge5" class="edge">
<title>Node1&#45;&gt;Node6</title>
<path fill="none" stroke="midnightblue" d="M435.01,-168.08C457.67,-184.63 495.76,-210.57 532,-226.5 539.54,-229.81 547.65,-232.77 555.78,-235.38"/>
<polygon fill="midnightblue" stroke="midnightblue" points="436.96,-165.17 426.84,-162.03 432.79,-170.79 436.96,-165.17"/>
</g>
<!-- Node7 -->
<g id="node7" class="node">
<title>Node7</title>
<g id="a_node7"><a xlink:href="class_ogre_1_1_default_hardware_buffer_manager.html" target="_top" xlink:title="DefaultHardwareBufferManager as a Singleton.">
<polygon fill="none" stroke="black" points="542,-186.5 542,-216.5 700,-216.5 700,-186.5 542,-186.5"/>
<text text-anchor="start" x="550" y="-204.5" font-family="Helvetica,sans-Serif" font-size="10.00">Ogre::DefaultHardwareBuffer</text>
<text text-anchor="middle" x="621" y="-193.5" font-family="Helvetica,sans-Serif" font-size="10.00">Manager</text>
</a>
</g>
</g>
<!-- Node1&#45;&gt;Node7 -->
<g id="edge6" class="edge">
<title>Node1&#45;&gt;Node7</title>
<path fill="none" stroke="midnightblue" d="M464.52,-164.43C492.35,-171.06 527.25,-179.39 556.94,-186.46"/>
<polygon fill="midnightblue" stroke="midnightblue" points="465.15,-160.98 454.61,-162.06 463.53,-167.79 465.15,-160.98"/>
</g>
<!-- Node8 -->
<g id="node8" class="node">
<title>Node8</title>
<g id="a_node8"><a xlink:href="class_ogre_1_1_g_l3_plus_hardware_buffer_manager.html" target="_top" xlink:title="Implementation of HardwareBufferManager for OpenGL.">
<polygon fill="none" stroke="black" points="540.5,-137.5 540.5,-167.5 701.5,-167.5 701.5,-137.5 540.5,-137.5"/>
<text text-anchor="start" x="548.5" y="-155.5" font-family="Helvetica,sans-Serif" font-size="10.00">Ogre::GL3PlusHardwareBuffer</text>
<text text-anchor="middle" x="621" y="-144.5" font-family="Helvetica,sans-Serif" font-size="10.00">Manager</text>
</a>
</g>
</g>
<!-- Node1&#45;&gt;Node8 -->
<g id="edge7" class="edge">
<title>Node1&#45;&gt;Node8</title>
<path fill="none" stroke="midnightblue" d="M506.34,-152.5C517.65,-152.5 529.15,-152.5 540.26,-152.5"/>
<polygon fill="midnightblue" stroke="midnightblue" points="506.01,-149 496.01,-152.5 506.01,-156 506.01,-149"/>
</g>
<!-- Node9 -->
<g id="node9" class="node">
<title>Node9</title>
<g id="a_node9"><a xlink:href="class_ogre_1_1_g_l_e_s2_hardware_buffer_manager.html" target="_top" xlink:title="Implementation of HardwareBufferManager for OpenGL ES.">
<polygon fill="none" stroke="black" points="544.5,-88.5 544.5,-118.5 697.5,-118.5 697.5,-88.5 544.5,-88.5"/>
<text text-anchor="start" x="552.5" y="-106.5" font-family="Helvetica,sans-Serif" font-size="10.00">Ogre::GLES2HardwareBuffer</text>
<text text-anchor="middle" x="621" y="-95.5" font-family="Helvetica,sans-Serif" font-size="10.00">Manager</text>
</a>
</g>
</g>
<!-- Node1&#45;&gt;Node9 -->
<g id="edge8" class="edge">
<title>Node1&#45;&gt;Node9</title>
<path fill="none" stroke="midnightblue" d="M464.52,-140.57C492.35,-133.94 527.25,-125.61 556.94,-118.54"/>
<polygon fill="midnightblue" stroke="midnightblue" points="463.53,-137.21 454.61,-142.94 465.15,-144.02 463.53,-137.21"/>
</g>
<!-- Node10 -->
<g id="node10" class="node">
<title>Node10</title>
<g id="a_node10"><a xlink:href="class_ogre_1_1_g_l_hardware_buffer_manager.html" target="_top" xlink:title="Implementation of HardwareBufferManager for OpenGL.">
<polygon fill="none" stroke="black" points="532,-50 532,-69 710,-69 710,-50 532,-50"/>
<text text-anchor="middle" x="621" y="-57" font-family="Helvetica,sans-Serif" font-size="10.00">Ogre::GLHardwareBufferManager</text>
</a>
</g>
</g>
<!-- Node1&#45;&gt;Node10 -->
<g id="edge9" class="edge">
<title>Node1&#45;&gt;Node10</title>
<path fill="none" stroke="midnightblue" d="M434.49,-136.82C456.96,-119.95 495.15,-93.53 532,-78.5 541.41,-74.66 551.71,-71.55 561.85,-69.04"/>
<polygon fill="midnightblue" stroke="midnightblue" points="432.24,-134.13 426.41,-142.98 436.48,-139.7 432.24,-134.13"/>
</g>
<!-- Node11 -->
<g id="node11" class="node">
<title>Node11</title>
<g id="a_node11"><a xlink:href="class_ogre_1_1_metal_hardware_buffer_manager.html" target="_top" xlink:title="Implementation of HardwareBufferManager for Metal.">
<polygon fill="none" stroke="black" points="546,-0.5 546,-30.5 696,-30.5 696,-0.5 546,-0.5"/>
<text text-anchor="start" x="554" y="-18.5" font-family="Helvetica,sans-Serif" font-size="10.00">Ogre::MetalHardwareBuffer</text>
<text text-anchor="middle" x="621" y="-7.5" font-family="Helvetica,sans-Serif" font-size="10.00">Manager</text>
</a>
</g>
</g>
<!-- Node1&#45;&gt;Node11 -->
<g id="edge10" class="edge">
<title>Node1&#45;&gt;Node11</title>
<path fill="none" stroke="midnightblue" d="M428.14,-134.95C448.25,-110.27 488.22,-65.51 532,-40.5 538.76,-36.64 546.15,-33.34 553.69,-30.53"/>
<polygon fill="midnightblue" stroke="midnightblue" points="425.39,-132.78 421.88,-142.78 430.86,-137.15 425.39,-132.78"/>
</g>
<!-- Node2 -->
<g id="node2" class="node">
<title>Node2</title>
<g id="a_node2"><a xlink:href="class_ogre_1_1_hardware_buffer_manager_base.html" target="_top" xlink:title="Base definition of a hardware buffer manager.">
<polygon fill="none" stroke="black" points="106,-165 106,-184 295,-184 295,-165 106,-165"/>
<text text-anchor="middle" x="200.5" y="-172" font-family="Helvetica,sans-Serif" font-size="10.00">Ogre::HardwareBufferManagerBase</text>
</a>
</g>
</g>
<!-- Node2&#45;&gt;Node1 -->
<g id="edge1" class="edge">
<title>Node2&#45;&gt;Node1</title>
<path fill="none" stroke="midnightblue" d="M302.98,-163.92C312.38,-162.94 321.81,-161.96 331,-161"/>
<polygon fill="midnightblue" stroke="midnightblue" points="302.4,-160.46 292.82,-164.98 303.13,-167.42 302.4,-160.46"/>
</g>
<!-- Node3 -->
<g id="node3" class="node">
<title>Node3</title>
<g id="a_node3"><a xlink:title=" ">
<polygon fill="none" stroke="#bfbfbf" points="0,-165 0,-184 70,-184 70,-165 0,-165"/>
<text text-anchor="middle" x="35" y="-172" font-family="Helvetica,sans-Serif" font-size="10.00">BufferAlloc</text>
</a>
</g>
</g>
<!-- Node3&#45;&gt;Node2 -->
<g id="edge2" class="edge">
<title>Node3&#45;&gt;Node2</title>
<path fill="none" stroke="midnightblue" d="M80.46,-174.5C88.5,-174.5 97.15,-174.5 105.99,-174.5"/>
<polygon fill="midnightblue" stroke="midnightblue" points="80.27,-171 70.27,-174.5 80.27,-178 80.27,-171"/>
</g>
<!-- Node4 -->
<g id="node4" class="node">
<title>Node4</title>
<g id="a_node4"><a xlink:href="class_ogre_1_1_singleton.html" target="_top" xlink:title=" ">
<polygon fill="none" stroke="black" points="125.5,-115.5 125.5,-145.5 275.5,-145.5 275.5,-115.5 125.5,-115.5"/>
<text text-anchor="start" x="133.5" y="-133.5" font-family="Helvetica,sans-Serif" font-size="10.00">Ogre::Singleton&lt; Hardware</text>
<text text-anchor="middle" x="200.5" y="-122.5" font-family="Helvetica,sans-Serif" font-size="10.00">BufferManager &gt;</text>
</a>
</g>
</g>
<!-- Node4&#45;&gt;Node1 -->
<g id="edge3" class="edge">
<title>Node4&#45;&gt;Node1</title>
<path fill="none" stroke="midnightblue" d="M285.74,-139.28C300.54,-140.83 315.93,-142.43 330.67,-143.97"/>
<polygon fill="midnightblue" stroke="midnightblue" points="285.9,-135.78 275.59,-138.23 285.18,-142.74 285.9,-135.78"/>
</g>
</g>
</svg>
