<?xml version="1.0" encoding="UTF-8" standalone="no"?>
<!DOCTYPE svg PUBLIC "-//W3C//DTD SVG 1.1//EN"
 "http://www.w3.org/Graphics/SVG/1.1/DTD/svg11.dtd">
<!-- Generated by graphviz version 2.43.0 (0)
 -->
<!-- Title: Ogre::RenderWindow Pages: 1 -->
<svg width="828pt" height="148pt"
 viewBox="0.00 0.00 828.00 147.50" xmlns="http://www.w3.org/2000/svg" xmlns:xlink="http://www.w3.org/1999/xlink">
<g id="graph0" class="graph" transform="scale(1 1) rotate(0) translate(4 143.5)">
<title>Ogre::RenderWindow</title>
<!-- Node1 -->
<g id="node1" class="node">
<title>Node1</title>
<g id="a_node1"><a xlink:title="Manages the target rendering window.">
<polygon fill="#bfbfbf" stroke="black" points="274,-57.5 274,-76.5 393,-76.5 393,-57.5 274,-57.5"/>
<text text-anchor="middle" x="333.5" y="-64.5" font-family="Helvetica,sans-Serif" font-size="10.00">Ogre::RenderWindow</text>
</a>
</g>
</g>
<!-- Node4 -->
<g id="node4" class="node">
<title>Node4</title>
<g id="a_node4"><a xlink:href="class_ogre_1_1_d3_d11_render_window_base.html" target="_top" xlink:title=" ">
<polygon fill="none" stroke="black" points="429,-114.5 429,-133.5 605,-133.5 605,-114.5 429,-114.5"/>
<text text-anchor="middle" x="517" y="-121.5" font-family="Helvetica,sans-Serif" font-size="10.00">Ogre::D3D11RenderWindowBase</text>
</a>
</g>
</g>
<!-- Node1&#45;&gt;Node4 -->
<g id="edge3" class="edge">
<title>Node1&#45;&gt;Node4</title>
<path fill="none" stroke="midnightblue" d="M364.81,-80.7C383.12,-88.59 407.08,-98.25 429,-105 440.67,-108.59 453.43,-111.78 465.48,-114.47"/>
<polygon fill="midnightblue" stroke="midnightblue" points="366.09,-77.44 355.53,-76.64 363.29,-83.85 366.09,-77.44"/>
</g>
<!-- Node6 -->
<g id="node6" class="node">
<title>Node6</title>
<g id="a_node6"><a xlink:href="class_ogre_1_1_d3_d9_render_window.html" target="_top" xlink:title=" ">
<polygon fill="none" stroke="black" points="444,-76.5 444,-95.5 590,-95.5 590,-76.5 444,-76.5"/>
<text text-anchor="middle" x="517" y="-83.5" font-family="Helvetica,sans-Serif" font-size="10.00">Ogre::D3D9RenderWindow</text>
</a>
</g>
</g>
<!-- Node1&#45;&gt;Node6 -->
<g id="edge5" class="edge">
<title>Node1&#45;&gt;Node6</title>
<path fill="none" stroke="midnightblue" d="M403.19,-74.19C416.49,-75.58 430.46,-77.05 443.87,-78.45"/>
<polygon fill="midnightblue" stroke="midnightblue" points="403.49,-70.7 393.18,-73.14 402.76,-77.66 403.49,-70.7"/>
</g>
<!-- Node7 -->
<g id="node7" class="node">
<title>Node7</title>
<g id="a_node7"><a xlink:href="class_ogre_1_1_g_l_window.html" target="_top" xlink:title=" ">
<polygon fill="none" stroke="black" points="468.5,-38.5 468.5,-57.5 565.5,-57.5 565.5,-38.5 468.5,-38.5"/>
<text text-anchor="middle" x="517" y="-45.5" font-family="Helvetica,sans-Serif" font-size="10.00">Ogre::GLWindow</text>
</a>
</g>
</g>
<!-- Node1&#45;&gt;Node7 -->
<g id="edge6" class="edge">
<title>Node1&#45;&gt;Node7</title>
<path fill="none" stroke="midnightblue" d="M403.34,-59.79C425.05,-57.52 448.54,-55.06 468.42,-52.98"/>
<polygon fill="midnightblue" stroke="midnightblue" points="402.76,-56.34 393.18,-60.86 403.49,-63.3 402.76,-56.34"/>
</g>
<!-- Node8 -->
<g id="node8" class="node">
<title>Node8</title>
<g id="a_node8"><a xlink:href="class_ogre_1_1_metal_render_window.html" target="_top" xlink:title=" ">
<polygon fill="none" stroke="black" points="443.5,-0.5 443.5,-19.5 590.5,-19.5 590.5,-0.5 443.5,-0.5"/>
<text text-anchor="middle" x="517" y="-7.5" font-family="Helvetica,sans-Serif" font-size="10.00">Ogre::MetalRenderWindow</text>
</a>
</g>
</g>
<!-- Node1&#45;&gt;Node8 -->
<g id="edge7" class="edge">
<title>Node1&#45;&gt;Node8</title>
<path fill="none" stroke="midnightblue" d="M364.81,-53.3C383.12,-45.41 407.08,-35.75 429,-29 440.67,-25.41 453.43,-22.22 465.48,-19.53"/>
<polygon fill="midnightblue" stroke="midnightblue" points="363.29,-50.15 355.53,-57.36 366.09,-56.56 363.29,-50.15"/>
</g>
<!-- Node2 -->
<g id="node2" class="node">
<title>Node2</title>
<g id="a_node2"><a xlink:href="class_ogre_1_1_render_target.html" target="_top" xlink:title="A &#39;canvas&#39; which can receive the results of a rendering operation.">
<polygon fill="none" stroke="black" points="128,-57.5 128,-76.5 238,-76.5 238,-57.5 128,-57.5"/>
<text text-anchor="middle" x="183" y="-64.5" font-family="Helvetica,sans-Serif" font-size="10.00">Ogre::RenderTarget</text>
</a>
</g>
</g>
<!-- Node2&#45;&gt;Node1 -->
<g id="edge1" class="edge">
<title>Node2&#45;&gt;Node1</title>
<path fill="none" stroke="midnightblue" d="M248.04,-67C256.67,-67 265.48,-67 274,-67"/>
<polygon fill="midnightblue" stroke="midnightblue" points="248.03,-63.5 238.03,-67 248.03,-70.5 248.03,-63.5"/>
</g>
<!-- Node3 -->
<g id="node3" class="node">
<title>Node3</title>
<g id="a_node3"><a xlink:title=" ">
<polygon fill="none" stroke="#bfbfbf" points="0,-57.5 0,-76.5 92,-76.5 92,-57.5 0,-57.5"/>
<text text-anchor="middle" x="46" y="-64.5" font-family="Helvetica,sans-Serif" font-size="10.00">RenderSysAlloc</text>
</a>
</g>
</g>
<!-- Node3&#45;&gt;Node2 -->
<g id="edge2" class="edge">
<title>Node3&#45;&gt;Node2</title>
<path fill="none" stroke="midnightblue" d="M102.36,-67C110.72,-67 119.33,-67 127.66,-67"/>
<polygon fill="midnightblue" stroke="midnightblue" points="102.33,-63.5 92.33,-67 102.33,-70.5 102.33,-63.5"/>
</g>
<!-- Node5 -->
<g id="node5" class="node">
<title>Node5</title>
<g id="a_node5"><a xlink:href="class_ogre_1_1_d3_d11_render_window_swap_chain_based.html" target="_top" xlink:title=" ">
<polygon fill="none" stroke="black" points="641,-109 641,-139 820,-139 820,-109 641,-109"/>
<text text-anchor="start" x="649" y="-127" font-family="Helvetica,sans-Serif" font-size="10.00">Ogre::D3D11RenderWindowSwap</text>
<text text-anchor="middle" x="730.5" y="-116" font-family="Helvetica,sans-Serif" font-size="10.00">ChainBased</text>
</a>
</g>
</g>
<!-- Node4&#45;&gt;Node5 -->
<g id="edge4" class="edge">
<title>Node4&#45;&gt;Node5</title>
<path fill="none" stroke="midnightblue" d="M615.47,-124C623.9,-124 632.4,-124 640.75,-124"/>
<polygon fill="midnightblue" stroke="midnightblue" points="615.25,-120.5 605.25,-124 615.25,-127.5 615.25,-120.5"/>
</g>
</g>
</svg>
