<?xml version="1.0" encoding="UTF-8" standalone="no"?>
<!DOCTYPE svg PUBLIC "-//W3C//DTD SVG 1.1//EN"
 "http://www.w3.org/Graphics/SVG/1.1/DTD/svg11.dtd">
<!-- Generated by graphviz version 2.43.0 (0)
 -->
<!-- Title: Ogre::WorkQueue::RequestHandler Pages: 1 -->
<svg width="364pt" height="306pt"
 viewBox="0.00 0.00 364.00 306.00" xmlns="http://www.w3.org/2000/svg" xmlns:xlink="http://www.w3.org/1999/xlink">
<g id="graph0" class="graph" transform="scale(1 1) rotate(0) translate(4 302)">
<title>Ogre::WorkQueue::RequestHandler</title>
<!-- Node1 -->
<g id="node1" class="node">
<title>Node1</title>
<g id="a_node1"><a xlink:title="Interface definition for a handler of requests.">
<polygon fill="#bfbfbf" stroke="black" points="0,-128 0,-158 148,-158 148,-128 0,-128"/>
<text text-anchor="start" x="8" y="-146" font-family="Helvetica,sans-Serif" font-size="10.00">Ogre::WorkQueue::Request</text>
<text text-anchor="middle" x="74" y="-135" font-family="Helvetica,sans-Serif" font-size="10.00">Handler</text>
</a>
</g>
</g>
<!-- Node2 -->
<g id="node2" class="node">
<title>Node2</title>
<g id="a_node2"><a xlink:href="class_ogre_1_1_lod_work_queue_worker.html" target="_top" xlink:title="Processes requests.">
<polygon fill="none" stroke="black" points="193.5,-278.5 193.5,-297.5 346.5,-297.5 346.5,-278.5 193.5,-278.5"/>
<text text-anchor="middle" x="270" y="-285.5" font-family="Helvetica,sans-Serif" font-size="10.00">Ogre::LodWorkQueueWorker</text>
</a>
</g>
</g>
<!-- Node1&#45;&gt;Node2 -->
<g id="edge1" class="edge">
<title>Node1&#45;&gt;Node2</title>
<path fill="none" stroke="#8b1a1a" d="M88.89,-166.83C106.99,-195.68 141.44,-243.56 184,-269 190.49,-272.88 197.69,-275.97 205.07,-278.43"/>
<polygon fill="#8b1a1a" stroke="#8b1a1a" points="91.8,-164.88 83.59,-158.18 85.83,-168.54 91.8,-164.88"/>
</g>
<!-- Node3 -->
<g id="node3" class="node">
<title>Node3</title>
<g id="a_node3"><a xlink:href="class_ogre_1_1_page.html" target="_top" xlink:title="Page class.">
<polygon fill="none" stroke="black" points="235.5,-240.5 235.5,-259.5 304.5,-259.5 304.5,-240.5 235.5,-240.5"/>
<text text-anchor="middle" x="270" y="-247.5" font-family="Helvetica,sans-Serif" font-size="10.00">Ogre::Page</text>
</a>
</g>
</g>
<!-- Node1&#45;&gt;Node3 -->
<g id="edge2" class="edge">
<title>Node1&#45;&gt;Node3</title>
<path fill="none" stroke="midnightblue" d="M96.59,-165.57C117.18,-185.75 150.01,-214.6 184,-231 199.93,-238.69 219.06,-243.32 235.13,-246.08"/>
<polygon fill="midnightblue" stroke="midnightblue" points="98.87,-162.89 89.32,-158.3 93.92,-167.85 98.87,-162.89"/>
</g>
<!-- Node4 -->
<g id="node4" class="node">
<title>Node4</title>
<g id="a_node4"><a xlink:href="class_ogre_1_1_resource_background_queue.html" target="_top" xlink:title="This class is used to perform Resource operations in a background thread.">
<polygon fill="none" stroke="black" points="195.5,-191 195.5,-221 344.5,-221 344.5,-191 195.5,-191"/>
<text text-anchor="start" x="203.5" y="-209" font-family="Helvetica,sans-Serif" font-size="10.00">Ogre::ResourceBackground</text>
<text text-anchor="middle" x="270" y="-198" font-family="Helvetica,sans-Serif" font-size="10.00">Queue</text>
</a>
</g>
</g>
<!-- Node1&#45;&gt;Node4 -->
<g id="edge3" class="edge">
<title>Node1&#45;&gt;Node4</title>
<path fill="none" stroke="midnightblue" d="M126.06,-161.39C144.28,-167.79 165,-174.9 184,-181 194.4,-184.34 205.57,-187.75 216.28,-190.93"/>
<polygon fill="midnightblue" stroke="midnightblue" points="127.1,-158.04 116.5,-158.01 124.77,-164.64 127.1,-158.04"/>
</g>
<!-- Node5 -->
<g id="node5" class="node">
<title>Node5</title>
<g id="a_node5"><a xlink:href="class_ogre_1_1_terrain.html" target="_top" xlink:title="The main containing class for a chunk of terrain.">
<polygon fill="none" stroke="black" points="230.5,-152.5 230.5,-171.5 309.5,-171.5 309.5,-152.5 230.5,-152.5"/>
<text text-anchor="middle" x="270" y="-159.5" font-family="Helvetica,sans-Serif" font-size="10.00">Ogre::Terrain</text>
</a>
</g>
</g>
<!-- Node1&#45;&gt;Node5 -->
<g id="edge4" class="edge">
<title>Node1&#45;&gt;Node5</title>
<path fill="none" stroke="midnightblue" d="M158.32,-151.16C183.33,-153.61 209.59,-156.18 230.25,-158.2"/>
<polygon fill="midnightblue" stroke="midnightblue" points="158.36,-147.65 148.07,-150.16 157.68,-154.61 158.36,-147.65"/>
</g>
<!-- Node6 -->
<g id="node6" class="node">
<title>Node6</title>
<g id="a_node6"><a xlink:href="class_ogre_1_1_terrain_group.html" target="_top" xlink:title="Helper class to assist you in managing multiple terrain instances that are connected to each other.">
<polygon fill="none" stroke="black" points="216,-114.5 216,-133.5 324,-133.5 324,-114.5 216,-114.5"/>
<text text-anchor="middle" x="270" y="-121.5" font-family="Helvetica,sans-Serif" font-size="10.00">Ogre::TerrainGroup</text>
</a>
</g>
</g>
<!-- Node1&#45;&gt;Node6 -->
<g id="edge5" class="edge">
<title>Node1&#45;&gt;Node6</title>
<path fill="none" stroke="midnightblue" d="M158.22,-134.85C177.79,-132.93 198.13,-130.94 215.95,-129.2"/>
<polygon fill="midnightblue" stroke="midnightblue" points="157.68,-131.39 148.07,-135.84 158.36,-138.35 157.68,-131.39"/>
</g>
<!-- Node7 -->
<g id="node7" class="node">
<title>Node7</title>
<g id="a_node7"><a xlink:href="class_ogre_1_1_terrain_lod_manager.html" target="_top" xlink:title="Terrain LOD data manager.">
<polygon fill="none" stroke="black" points="200.5,-76.5 200.5,-95.5 339.5,-95.5 339.5,-76.5 200.5,-76.5"/>
<text text-anchor="middle" x="270" y="-83.5" font-family="Helvetica,sans-Serif" font-size="10.00">Ogre::TerrainLodManager</text>
</a>
</g>
</g>
<!-- Node1&#45;&gt;Node7 -->
<g id="edge6" class="edge">
<title>Node1&#45;&gt;Node7</title>
<path fill="none" stroke="midnightblue" d="M123.97,-124.58C142.61,-117.92 164.14,-110.66 184,-105 196.07,-101.56 209.25,-98.35 221.55,-95.59"/>
<polygon fill="midnightblue" stroke="midnightblue" points="122.73,-121.3 114.51,-127.99 125.11,-127.89 122.73,-121.3"/>
</g>
<!-- Node8 -->
<g id="node8" class="node">
<title>Node8</title>
<g id="a_node8"><a xlink:href="class_ogre_1_1_terrain_paged_world_section.html" target="_top" xlink:title="A world section which includes paged terrain.">
<polygon fill="none" stroke="black" points="184,-38.5 184,-57.5 356,-57.5 356,-38.5 184,-38.5"/>
<text text-anchor="middle" x="270" y="-45.5" font-family="Helvetica,sans-Serif" font-size="10.00">Ogre::TerrainPagedWorldSection</text>
</a>
</g>
</g>
<!-- Node1&#45;&gt;Node8 -->
<g id="edge7" class="edge">
<title>Node1&#45;&gt;Node8</title>
<path fill="none" stroke="midnightblue" d="M100.01,-121.28C121.07,-104.1 152.68,-80.78 184,-67 192.72,-63.16 202.3,-60.07 211.78,-57.57"/>
<polygon fill="midnightblue" stroke="midnightblue" points="97.66,-118.68 92.21,-127.76 102.14,-124.07 97.66,-118.68"/>
</g>
<!-- Node9 -->
<g id="node9" class="node">
<title>Node9</title>
<g id="a_node9"><a xlink:href="class_ogre_1_1_volume_1_1_chunk_handler.html" target="_top" xlink:title="Handles the WorkQueue management of the chunks.">
<polygon fill="none" stroke="black" points="191,-0.5 191,-19.5 349,-19.5 349,-0.5 191,-0.5"/>
<text text-anchor="middle" x="270" y="-7.5" font-family="Helvetica,sans-Serif" font-size="10.00">Ogre::Volume::ChunkHandler</text>
</a>
</g>
</g>
<!-- Node1&#45;&gt;Node9 -->
<g id="edge8" class="edge">
<title>Node1&#45;&gt;Node9</title>
<path fill="none" stroke="midnightblue" d="M90.89,-119.45C109.88,-93.2 144.15,-51.49 184,-29 190.85,-25.13 198.42,-22.06 206.14,-19.6"/>
<polygon fill="midnightblue" stroke="midnightblue" points="87.96,-117.52 85.04,-127.71 93.68,-121.56 87.96,-117.52"/>
</g>
</g>
</svg>
