<?xml version="1.0" encoding="UTF-8" standalone="no"?>
<!DOCTYPE svg PUBLIC "-//W3C//DTD SVG 1.1//EN"
 "http://www.w3.org/Graphics/SVG/1.1/DTD/svg11.dtd">
<!-- Generated by graphviz version 2.43.0 (0)
 -->
<!-- Title: Ogre::SmallVectorTemplateCommon&lt; T &gt; Pages: 1 -->
<svg width="1044pt" height="176pt"
 viewBox="0.00 0.00 1044.00 175.50" xmlns="http://www.w3.org/2000/svg" xmlns:xlink="http://www.w3.org/1999/xlink">
<g id="graph0" class="graph" transform="scale(1 1) rotate(0) translate(4 171.5)">
<title>Ogre::SmallVectorTemplateCommon&lt; T &gt;</title>
<!-- Node1 -->
<g id="node1" class="node">
<title>Node1</title>
<g id="a_node1"><a xlink:title=" ">
<polygon fill="#bfbfbf" stroke="black" points="164,-88 164,-118 313,-118 313,-88 164,-88"/>
<text text-anchor="start" x="172" y="-106" font-family="Helvetica,sans-Serif" font-size="10.00">Ogre::SmallVectorTemplate</text>
<text text-anchor="middle" x="238.5" y="-95" font-family="Helvetica,sans-Serif" font-size="10.00">Common&lt; T &gt;</text>
</a>
</g>
</g>
<!-- Node3 -->
<g id="node3" class="node">
<title>Node3</title>
<g id="a_node3"><a xlink:href="class_ogre_1_1_small_vector_template_base.html" target="_top" xlink:title="SmallVectorTemplateBase&lt;isPodLike = false&gt; &#45; This is where we put method implementations that are des...">
<polygon fill="none" stroke="black" points="353.5,-137 353.5,-167 502.5,-167 502.5,-137 353.5,-137"/>
<text text-anchor="start" x="361.5" y="-155" font-family="Helvetica,sans-Serif" font-size="10.00">Ogre::SmallVectorTemplate</text>
<text text-anchor="middle" x="428" y="-144" font-family="Helvetica,sans-Serif" font-size="10.00">Base&lt; T &gt;</text>
</a>
</g>
</g>
<!-- Node1&#45;&gt;Node3 -->
<g id="edge2" class="edge">
<title>Node1&#45;&gt;Node3</title>
<path fill="none" stroke="midnightblue" d="M306.93,-120.62C327.45,-125.98 349.79,-131.82 369.58,-136.99"/>
<polygon fill="midnightblue" stroke="midnightblue" points="307.59,-117.18 297.03,-118.03 305.82,-123.95 307.59,-117.18"/>
</g>
<!-- Node4 -->
<g id="node4" class="node">
<title>Node4</title>
<g id="a_node4"><a xlink:href="class_ogre_1_1_small_vector_template_base_3_01_t_00_01true_01_4.html" target="_top" xlink:title="SmallVectorTemplateBase&lt;isPodLike = true&gt; &#45; This is where we put method implementations that are desi...">
<polygon fill="none" stroke="black" points="353.5,-88 353.5,-118 502.5,-118 502.5,-88 353.5,-88"/>
<text text-anchor="start" x="361.5" y="-106" font-family="Helvetica,sans-Serif" font-size="10.00">Ogre::SmallVectorTemplate</text>
<text text-anchor="middle" x="428" y="-95" font-family="Helvetica,sans-Serif" font-size="10.00">Base&lt; T, true &gt;</text>
</a>
</g>
</g>
<!-- Node1&#45;&gt;Node4 -->
<g id="edge3" class="edge">
<title>Node1&#45;&gt;Node4</title>
<path fill="none" stroke="midnightblue" d="M323.08,-103C333.17,-103 343.41,-103 353.34,-103"/>
<polygon fill="midnightblue" stroke="midnightblue" points="323.07,-99.5 313.07,-103 323.07,-106.5 323.07,-99.5"/>
</g>
<!-- Node5 -->
<g id="node5" class="node">
<title>Node5</title>
<g id="a_node5"><a xlink:href="class_ogre_1_1_small_vector_template_base.html" target="_top" xlink:title=" ">
<polygon fill="none" stroke="black" points="349,-39 349,-69 507,-69 507,-39 349,-39"/>
<text text-anchor="start" x="357" y="-57" font-family="Helvetica,sans-Serif" font-size="10.00">SmallVectorTemplateBase</text>
<text text-anchor="middle" x="428" y="-46" font-family="Helvetica,sans-Serif" font-size="10.00">&lt; T, isPodLike&lt; T &gt;::value &gt;</text>
</a>
</g>
</g>
<!-- Node1&#45;&gt;Node5 -->
<g id="edge4" class="edge">
<title>Node1&#45;&gt;Node5</title>
<path fill="none" stroke="midnightblue" d="M306.93,-85.38C327.45,-80.02 349.79,-74.18 369.58,-69.01"/>
<polygon fill="midnightblue" stroke="midnightblue" points="305.82,-82.05 297.03,-87.97 307.59,-88.82 305.82,-82.05"/>
</g>
<!-- Node2 -->
<g id="node2" class="node">
<title>Node2</title>
<g id="a_node2"><a xlink:href="class_ogre_1_1_small_vector_base.html" target="_top" xlink:title="SmallVectorBase &#45; This is all the non&#45;templated stuff common to all SmallVectors.">
<polygon fill="none" stroke="black" points="0,-93.5 0,-112.5 128,-112.5 128,-93.5 0,-93.5"/>
<text text-anchor="middle" x="64" y="-100.5" font-family="Helvetica,sans-Serif" font-size="10.00">Ogre::SmallVectorBase</text>
</a>
</g>
</g>
<!-- Node2&#45;&gt;Node1 -->
<g id="edge1" class="edge">
<title>Node2&#45;&gt;Node1</title>
<path fill="none" stroke="midnightblue" d="M138.39,-103C146.78,-103 155.34,-103 163.73,-103"/>
<polygon fill="midnightblue" stroke="midnightblue" points="138.25,-99.5 128.25,-103 138.25,-106.5 138.25,-99.5"/>
</g>
<!-- Node6 -->
<g id="node6" class="node">
<title>Node6</title>
<g id="a_node6"><a xlink:href="class_ogre_1_1_small_vector_impl.html" target="_top" xlink:title="SmallVectorImpl &#45; This class consists of common code factored out of the SmallVector class to reduce ...">
<polygon fill="none" stroke="black" points="543,-44.5 543,-63.5 698,-63.5 698,-44.5 543,-44.5"/>
<text text-anchor="middle" x="620.5" y="-51.5" font-family="Helvetica,sans-Serif" font-size="10.00">Ogre::SmallVectorImpl&lt; T &gt;</text>
</a>
</g>
</g>
<!-- Node5&#45;&gt;Node6 -->
<g id="edge5" class="edge">
<title>Node5&#45;&gt;Node6</title>
<path fill="none" stroke="midnightblue" d="M517.07,-54C525.67,-54 534.35,-54 542.82,-54"/>
<polygon fill="midnightblue" stroke="midnightblue" points="517.03,-50.5 507.03,-54 517.03,-57.5 517.03,-50.5"/>
</g>
<!-- Node7 -->
<g id="node7" class="node">
<title>Node7</title>
<g id="a_node7"><a xlink:href="class_ogre_1_1_small_vector.html" target="_top" xlink:title="SmallVector &#45; This is a &#39;vector&#39; (really, a variable&#45;sized array), optimized for the case when the ar...">
<polygon fill="none" stroke="black" points="734,-88.5 734,-107.5 867,-107.5 867,-88.5 734,-88.5"/>
<text text-anchor="middle" x="800.5" y="-95.5" font-family="Helvetica,sans-Serif" font-size="10.00">Ogre::SmallVector&lt; T &gt;</text>
</a>
</g>
</g>
<!-- Node6&#45;&gt;Node7 -->
<g id="edge6" class="edge">
<title>Node6&#45;&gt;Node7</title>
<path fill="none" stroke="midnightblue" d="M669.92,-65.97C698.53,-73.04 734.26,-81.87 760.95,-88.47"/>
<polygon fill="midnightblue" stroke="midnightblue" points="670.67,-62.55 660.12,-63.55 668.99,-69.34 670.67,-62.55"/>
</g>
<!-- Node8 -->
<g id="node8" class="node">
<title>Node8</title>
<g id="a_node8"><a xlink:href="class_ogre_1_1_small_vector_3_01_t_00_010_01_4.html" target="_top" xlink:title="Specialize SmallVector at N=0.">
<polygon fill="none" stroke="black" points="744,-39 744,-69 857,-69 857,-39 744,-39"/>
<text text-anchor="start" x="752" y="-57" font-family="Helvetica,sans-Serif" font-size="10.00">Ogre::SmallVector&lt;</text>
<text text-anchor="middle" x="800.5" y="-46" font-family="Helvetica,sans-Serif" font-size="10.00"> T, 0 &gt;</text>
</a>
</g>
</g>
<!-- Node6&#45;&gt;Node8 -->
<g id="edge7" class="edge">
<title>Node6&#45;&gt;Node8</title>
<path fill="none" stroke="midnightblue" d="M708.15,-54C720.26,-54 732.41,-54 743.74,-54"/>
<polygon fill="midnightblue" stroke="midnightblue" points="708.02,-50.5 698.02,-54 708.02,-57.5 708.02,-50.5"/>
</g>
<!-- Node9 -->
<g id="node9" class="node">
<title>Node9</title>
<g id="a_node9"><a xlink:href="class_ogre_1_1_small_vector.html" target="_top" xlink:title=" ">
<polygon fill="none" stroke="black" points="742.5,-0.5 742.5,-19.5 858.5,-19.5 858.5,-0.5 742.5,-0.5"/>
<text text-anchor="middle" x="800.5" y="-7.5" font-family="Helvetica,sans-Serif" font-size="10.00">SmallVector&lt; T, S &gt;</text>
</a>
</g>
</g>
<!-- Node6&#45;&gt;Node9 -->
<g id="edge8" class="edge">
<title>Node6&#45;&gt;Node9</title>
<path fill="none" stroke="midnightblue" d="M669.92,-42.03C698.53,-34.96 734.26,-26.13 760.95,-19.53"/>
<polygon fill="midnightblue" stroke="midnightblue" points="668.99,-38.66 660.12,-44.45 670.67,-45.45 668.99,-38.66"/>
</g>
<!-- Node10 -->
<g id="node10" class="node">
<title>Node10</title>
<g id="a_node10"><a xlink:href="struct_ogre_1_1_vector_set.html" target="_top" xlink:title="VectorSet is basically a helper to use a vector as a small set container.">
<polygon fill="none" stroke="black" points="903,-0.5 903,-19.5 1036,-19.5 1036,-0.5 903,-0.5"/>
<text text-anchor="middle" x="969.5" y="-7.5" font-family="Helvetica,sans-Serif" font-size="10.00">Ogre::VectorSet&lt; T, S &gt;</text>
</a>
</g>
</g>
<!-- Node9&#45;&gt;Node10 -->
<g id="edge9" class="edge">
<title>Node9&#45;&gt;Node10</title>
<path fill="none" stroke="midnightblue" d="M868.7,-10C879.96,-10 891.63,-10 902.84,-10"/>
<polygon fill="midnightblue" stroke="midnightblue" points="868.5,-6.5 858.5,-10 868.5,-13.5 868.5,-6.5"/>
</g>
</g>
</svg>
