<?xml version="1.0" encoding="UTF-8" standalone="no"?>
<!DOCTYPE svg PUBLIC "-//W3C//DTD SVG 1.1//EN"
 "http://www.w3.org/Graphics/SVG/1.1/DTD/svg11.dtd">
<!-- Generated by graphviz version 2.43.0 (0)
 -->
<!-- Title: Ogre::MovableObjectFactory Pages: 1 -->
<svg width="637pt" height="332pt"
 viewBox="0.00 0.00 637.00 332.00" xmlns="http://www.w3.org/2000/svg" xmlns:xlink="http://www.w3.org/1999/xlink">
<g id="graph0" class="graph" transform="scale(1 1) rotate(0) translate(4 328)">
<title>Ogre::MovableObjectFactory</title>
<!-- Node1 -->
<g id="node1" class="node">
<title>Node1</title>
<g id="a_node1"><a xlink:title="Interface definition for a factory class which produces a certain kind of MovableObject,...">
<polygon fill="#bfbfbf" stroke="black" points="119,-152.5 119,-171.5 274,-171.5 274,-152.5 119,-152.5"/>
<text text-anchor="middle" x="196.5" y="-159.5" font-family="Helvetica,sans-Serif" font-size="10.00">Ogre::MovableObjectFactory</text>
</a>
</g>
</g>
<!-- Node3 -->
<g id="node3" class="node">
<title>Node3</title>
<g id="a_node3"><a xlink:href="class_ogre_1_1_billboard_chain_factory.html" target="_top" xlink:title="Factory object for creating BillboardChain instances.">
<polygon fill="none" stroke="black" points="311,-304.5 311,-323.5 463,-323.5 463,-304.5 311,-304.5"/>
<text text-anchor="middle" x="387" y="-311.5" font-family="Helvetica,sans-Serif" font-size="10.00">Ogre::BillboardChainFactory</text>
</a>
</g>
</g>
<!-- Node1&#45;&gt;Node3 -->
<g id="edge2" class="edge">
<title>Node1&#45;&gt;Node3</title>
<path fill="none" stroke="midnightblue" d="M207.93,-180.58C225.24,-209.64 262.71,-265.56 310,-295 316.23,-298.88 323.22,-301.97 330.36,-304.43"/>
<polygon fill="midnightblue" stroke="midnightblue" points="210.9,-178.72 202.85,-171.83 204.84,-182.24 210.9,-178.72"/>
</g>
<!-- Node4 -->
<g id="node4" class="node">
<title>Node4</title>
<g id="a_node4"><a xlink:href="class_ogre_1_1_billboard_set_factory.html" target="_top" xlink:title="Factory object for creating BillboardSet instances.">
<polygon fill="none" stroke="black" points="317,-266.5 317,-285.5 457,-285.5 457,-266.5 317,-266.5"/>
<text text-anchor="middle" x="387" y="-273.5" font-family="Helvetica,sans-Serif" font-size="10.00">Ogre::BillboardSetFactory</text>
</a>
</g>
</g>
<!-- Node1&#45;&gt;Node4 -->
<g id="edge3" class="edge">
<title>Node1&#45;&gt;Node4</title>
<path fill="none" stroke="midnightblue" d="M212.93,-179.16C233.14,-200.59 270.65,-236.86 310,-257 317.51,-260.84 325.83,-263.94 334.15,-266.42"/>
<polygon fill="midnightblue" stroke="midnightblue" points="215.42,-176.7 206.06,-171.74 210.28,-181.46 215.42,-176.7"/>
</g>
<!-- Node5 -->
<g id="node5" class="node">
<title>Node5</title>
<g id="a_node5"><a xlink:href="class_ogre_1_1_entity_factory.html" target="_top" xlink:title="Factory object for creating Entity instances.">
<polygon fill="none" stroke="black" points="332,-228.5 332,-247.5 442,-247.5 442,-228.5 332,-228.5"/>
<text text-anchor="middle" x="387" y="-235.5" font-family="Helvetica,sans-Serif" font-size="10.00">Ogre::EntityFactory</text>
</a>
</g>
</g>
<!-- Node1&#45;&gt;Node5 -->
<g id="edge4" class="edge">
<title>Node1&#45;&gt;Node5</title>
<path fill="none" stroke="midnightblue" d="M222.57,-176.76C244.89,-189.4 278.77,-207.35 310,-219 319.81,-222.66 330.6,-225.84 340.88,-228.49"/>
<polygon fill="midnightblue" stroke="midnightblue" points="224.16,-173.64 213.75,-171.7 220.68,-179.71 224.16,-173.64"/>
</g>
<!-- Node6 -->
<g id="node6" class="node">
<title>Node6</title>
<g id="a_node6"><a xlink:href="class_ogre_1_1_light_factory.html" target="_top" xlink:title="Factory object for creating Light instances.">
<polygon fill="none" stroke="black" points="334.5,-190.5 334.5,-209.5 439.5,-209.5 439.5,-190.5 334.5,-190.5"/>
<text text-anchor="middle" x="387" y="-197.5" font-family="Helvetica,sans-Serif" font-size="10.00">Ogre::LightFactory</text>
</a>
</g>
</g>
<!-- Node1&#45;&gt;Node6 -->
<g id="edge5" class="edge">
<title>Node1&#45;&gt;Node6</title>
<path fill="none" stroke="midnightblue" d="M255.09,-173.61C281.9,-179.01 313.4,-185.36 338.78,-190.48"/>
<polygon fill="midnightblue" stroke="midnightblue" points="255.56,-170.13 245.07,-171.59 254.18,-177 255.56,-170.13"/>
</g>
<!-- Node7 -->
<g id="node7" class="node">
<title>Node7</title>
<g id="a_node7"><a xlink:href="class_ogre_1_1_manual_object_factory.html" target="_top" xlink:title="Factory object for creating ManualObject instances.">
<polygon fill="none" stroke="black" points="312.5,-152.5 312.5,-171.5 461.5,-171.5 461.5,-152.5 312.5,-152.5"/>
<text text-anchor="middle" x="387" y="-159.5" font-family="Helvetica,sans-Serif" font-size="10.00">Ogre::ManualObjectFactory</text>
</a>
</g>
</g>
<!-- Node1&#45;&gt;Node7 -->
<g id="edge6" class="edge">
<title>Node1&#45;&gt;Node7</title>
<path fill="none" stroke="midnightblue" d="M284.32,-162C293.72,-162 303.22,-162 312.45,-162"/>
<polygon fill="midnightblue" stroke="midnightblue" points="284.17,-158.5 274.17,-162 284.17,-165.5 284.17,-158.5"/>
</g>
<!-- Node8 -->
<g id="node8" class="node">
<title>Node8</title>
<g id="a_node8"><a xlink:href="class_ogre_1_1_particle_system_factory.html" target="_top" xlink:title="Factory object for creating ParticleSystem instances.">
<polygon fill="none" stroke="black" points="310,-114.5 310,-133.5 464,-133.5 464,-114.5 310,-114.5"/>
<text text-anchor="middle" x="387" y="-121.5" font-family="Helvetica,sans-Serif" font-size="10.00">Ogre::ParticleSystemFactory</text>
</a>
</g>
</g>
<!-- Node1&#45;&gt;Node8 -->
<g id="edge7" class="edge">
<title>Node1&#45;&gt;Node8</title>
<path fill="none" stroke="midnightblue" d="M255.09,-150.39C281.9,-144.99 313.4,-138.64 338.78,-133.52"/>
<polygon fill="midnightblue" stroke="midnightblue" points="254.18,-147 245.07,-152.41 255.56,-153.87 254.18,-147"/>
</g>
<!-- Node9 -->
<g id="node9" class="node">
<title>Node9</title>
<g id="a_node9"><a xlink:href="class_ogre_1_1_p_c_z_light_factory.html" target="_top" xlink:title="Factory object for creating PCZLight instances.">
<polygon fill="none" stroke="black" points="324.5,-76.5 324.5,-95.5 449.5,-95.5 449.5,-76.5 324.5,-76.5"/>
<text text-anchor="middle" x="387" y="-83.5" font-family="Helvetica,sans-Serif" font-size="10.00">Ogre::PCZLightFactory</text>
</a>
</g>
</g>
<!-- Node1&#45;&gt;Node9 -->
<g id="edge8" class="edge">
<title>Node1&#45;&gt;Node9</title>
<path fill="none" stroke="midnightblue" d="M222.57,-147.24C244.89,-134.6 278.77,-116.65 310,-105 319.81,-101.34 330.6,-98.16 340.88,-95.51"/>
<polygon fill="midnightblue" stroke="midnightblue" points="220.68,-144.29 213.75,-152.3 224.16,-150.36 220.68,-144.29"/>
</g>
<!-- Node10 -->
<g id="node10" class="node">
<title>Node10</title>
<g id="a_node10"><a xlink:href="class_ogre_1_1_portal_base_factory.html" target="_top" xlink:title="Factory object for creating Portal instances.">
<polygon fill="none" stroke="black" points="320,-38.5 320,-57.5 454,-57.5 454,-38.5 320,-38.5"/>
<text text-anchor="middle" x="387" y="-45.5" font-family="Helvetica,sans-Serif" font-size="10.00">Ogre::PortalBaseFactory</text>
</a>
</g>
</g>
<!-- Node1&#45;&gt;Node10 -->
<g id="edge9" class="edge">
<title>Node1&#45;&gt;Node10</title>
<path fill="none" stroke="midnightblue" d="M212.93,-144.84C233.14,-123.41 270.65,-87.14 310,-67 317.51,-63.16 325.83,-60.06 334.15,-57.58"/>
<polygon fill="midnightblue" stroke="midnightblue" points="210.28,-142.54 206.06,-152.26 215.42,-147.3 210.28,-142.54"/>
</g>
<!-- Node13 -->
<g id="node13" class="node">
<title>Node13</title>
<g id="a_node13"><a xlink:href="class_ogre_1_1_ribbon_trail_factory.html" target="_top" xlink:title="Factory object for creating RibbonTrail instances.">
<polygon fill="none" stroke="black" points="319.5,-0.5 319.5,-19.5 454.5,-19.5 454.5,-0.5 319.5,-0.5"/>
<text text-anchor="middle" x="387" y="-7.5" font-family="Helvetica,sans-Serif" font-size="10.00">Ogre::RibbonTrailFactory</text>
</a>
</g>
</g>
<!-- Node1&#45;&gt;Node13 -->
<g id="edge12" class="edge">
<title>Node1&#45;&gt;Node13</title>
<path fill="none" stroke="midnightblue" d="M207.93,-143.42C225.24,-114.36 262.71,-58.44 310,-29 316.23,-25.12 323.22,-22.03 330.36,-19.57"/>
<polygon fill="midnightblue" stroke="midnightblue" points="204.84,-141.76 202.85,-152.17 210.9,-145.28 204.84,-141.76"/>
</g>
<!-- Node2 -->
<g id="node2" class="node">
<title>Node2</title>
<g id="a_node2"><a xlink:title=" ">
<polygon fill="none" stroke="#bfbfbf" points="0,-152.5 0,-171.5 83,-171.5 83,-152.5 0,-152.5"/>
<text text-anchor="middle" x="41.5" y="-159.5" font-family="Helvetica,sans-Serif" font-size="10.00">MovableAlloc</text>
</a>
</g>
</g>
<!-- Node2&#45;&gt;Node1 -->
<g id="edge1" class="edge">
<title>Node2&#45;&gt;Node1</title>
<path fill="none" stroke="midnightblue" d="M93.26,-162C101.51,-162 110.2,-162 118.89,-162"/>
<polygon fill="midnightblue" stroke="midnightblue" points="93.1,-158.5 83.1,-162 93.1,-165.5 93.1,-158.5"/>
</g>
<!-- Node11 -->
<g id="node11" class="node">
<title>Node11</title>
<g id="a_node11"><a xlink:href="class_ogre_1_1_anti_portal_factory.html" target="_top" xlink:title="Factory object for creating AntiPortal instances.">
<polygon fill="none" stroke="black" points="500,-57.5 500,-76.5 629,-76.5 629,-57.5 500,-57.5"/>
<text text-anchor="middle" x="564.5" y="-64.5" font-family="Helvetica,sans-Serif" font-size="10.00">Ogre::AntiPortalFactory</text>
</a>
</g>
</g>
<!-- Node10&#45;&gt;Node11 -->
<g id="edge10" class="edge">
<title>Node10&#45;&gt;Node11</title>
<path fill="none" stroke="midnightblue" d="M464.62,-56.3C476.42,-57.57 488.49,-58.88 499.96,-60.12"/>
<polygon fill="midnightblue" stroke="midnightblue" points="464.67,-52.78 454.35,-55.18 463.91,-59.74 464.67,-52.78"/>
</g>
<!-- Node12 -->
<g id="node12" class="node">
<title>Node12</title>
<g id="a_node12"><a xlink:href="class_ogre_1_1_portal_factory.html" target="_top" xlink:title="Factory object for creating Portal instances.">
<polygon fill="none" stroke="black" points="509.5,-19.5 509.5,-38.5 619.5,-38.5 619.5,-19.5 509.5,-19.5"/>
<text text-anchor="middle" x="564.5" y="-26.5" font-family="Helvetica,sans-Serif" font-size="10.00">Ogre::PortalFactory</text>
</a>
</g>
</g>
<!-- Node10&#45;&gt;Node12 -->
<g id="edge11" class="edge">
<title>Node10&#45;&gt;Node12</title>
<path fill="none" stroke="midnightblue" d="M464.67,-39.7C479.72,-38.07 495.21,-36.39 509.34,-34.86"/>
<polygon fill="midnightblue" stroke="midnightblue" points="463.91,-36.26 454.35,-40.82 464.67,-43.22 463.91,-36.26"/>
</g>
</g>
</svg>
