<?xml version="1.0" encoding="UTF-8" standalone="no"?>
<!DOCTYPE svg PUBLIC "-//W3C//DTD SVG 1.1//EN"
 "http://www.w3.org/Graphics/SVG/1.1/DTD/svg11.dtd">
<!-- Generated by graphviz version 2.43.0 (0)
 -->
<!-- Title: Ogre::BillboardParticleRendererFactory Pages: 1 -->
<svg width="224pt" height="173pt"
 viewBox="0.00 0.00 224.00 173.00" xmlns="http://www.w3.org/2000/svg" xmlns:xlink="http://www.w3.org/1999/xlink">
<g id="graph0" class="graph" transform="scale(1 1) rotate(0) translate(4 169)">
<title>Ogre::BillboardParticleRendererFactory</title>
<!-- Node1 -->
<g id="node1" class="node">
<title>Node1</title>
<g id="a_node1"><a xlink:title="Factory class for BillboardParticleRenderer.">
<polygon fill="#bfbfbf" stroke="black" points="45.5,-0.5 45.5,-30.5 215.5,-30.5 215.5,-0.5 45.5,-0.5"/>
<text text-anchor="start" x="53.5" y="-18.5" font-family="Helvetica,sans-Serif" font-size="10.00">Ogre::BillboardParticleRenderer</text>
<text text-anchor="middle" x="130.5" y="-7.5" font-family="Helvetica,sans-Serif" font-size="10.00">Factory</text>
</a>
</g>
</g>
<!-- Node2 -->
<g id="node2" class="node">
<title>Node2</title>
<g id="a_node2"><a xlink:href="class_ogre_1_1_particle_system_renderer_factory.html" target="_top" xlink:title="Abstract class definition of a factory object for ParticleSystemRenderer.">
<polygon fill="none" stroke="black" points="49,-67.5 49,-97.5 212,-97.5 212,-67.5 49,-67.5"/>
<text text-anchor="start" x="57" y="-85.5" font-family="Helvetica,sans-Serif" font-size="10.00">Ogre::ParticleSystemRenderer</text>
<text text-anchor="middle" x="130.5" y="-74.5" font-family="Helvetica,sans-Serif" font-size="10.00">Factory</text>
</a>
</g>
</g>
<!-- Node2&#45;&gt;Node1 -->
<g id="edge1" class="edge">
<title>Node2&#45;&gt;Node1</title>
<path fill="none" stroke="midnightblue" d="M130.5,-57.11C130.5,-48.15 130.5,-38.32 130.5,-30.58"/>
<polygon fill="midnightblue" stroke="midnightblue" points="127,-57.4 130.5,-67.4 134,-57.4 127,-57.4"/>
</g>
<!-- Node3 -->
<g id="node3" class="node">
<title>Node3</title>
<g id="a_node3"><a xlink:href="class_ogre_1_1_factory_obj.html" target="_top" xlink:title=" ">
<polygon fill="none" stroke="black" points="0,-134.5 0,-164.5 145,-164.5 145,-134.5 0,-134.5"/>
<text text-anchor="start" x="8" y="-152.5" font-family="Helvetica,sans-Serif" font-size="10.00">Ogre::FactoryObj&lt; Particle</text>
<text text-anchor="middle" x="72.5" y="-141.5" font-family="Helvetica,sans-Serif" font-size="10.00">SystemRenderer &gt;</text>
</a>
</g>
</g>
<!-- Node3&#45;&gt;Node2 -->
<g id="edge2" class="edge">
<title>Node3&#45;&gt;Node2</title>
<path fill="none" stroke="midnightblue" d="M91.92,-126.74C100.5,-117.12 110.34,-106.09 117.94,-97.58"/>
<polygon fill="midnightblue" stroke="midnightblue" points="89.13,-124.6 85.09,-134.4 94.35,-129.26 89.13,-124.6"/>
</g>
<!-- Node4 -->
<g id="node4" class="node">
<title>Node4</title>
<g id="a_node4"><a xlink:title=" ">
<polygon fill="none" stroke="#bfbfbf" points="163,-140 163,-159 216,-159 216,-140 163,-140"/>
<text text-anchor="middle" x="189.5" y="-147" font-family="Helvetica,sans-Serif" font-size="10.00">FXAlloc</text>
</a>
</g>
</g>
<!-- Node4&#45;&gt;Node2 -->
<g id="edge3" class="edge">
<title>Node4&#45;&gt;Node2</title>
<path fill="none" stroke="midnightblue" d="M174.8,-132.3C165.11,-121.63 152.56,-107.8 143.29,-97.59"/>
<polygon fill="midnightblue" stroke="midnightblue" points="172.23,-134.68 181.54,-139.73 177.41,-129.98 172.23,-134.68"/>
</g>
</g>
</svg>
