<?xml version="1.0" encoding="UTF-8" standalone="no"?>
<!DOCTYPE svg PUBLIC "-//W3C//DTD SVG 1.1//EN"
 "http://www.w3.org/Graphics/SVG/1.1/DTD/svg11.dtd">
<!-- Generated by graphviz version 2.43.0 (0)
 -->
<!-- Title: Ogre::HlmsManager Pages: 1 -->
<svg width="376pt" height="95pt"
 viewBox="0.00 0.00 376.00 95.00" xmlns="http://www.w3.org/2000/svg" xmlns:xlink="http://www.w3.org/1999/xlink">
<g id="graph0" class="graph" transform="scale(1 1) rotate(0) translate(4 91)">
<title>Ogre::HlmsManager</title>
<!-- Node1 -->
<g id="node1" class="node">
<title>Node1</title>
<g id="a_node1"><a xlink:title=" ">
<polygon fill="#bfbfbf" stroke="black" points="99,-0.5 99,-19.5 213,-19.5 213,-0.5 99,-0.5"/>
<text text-anchor="middle" x="156" y="-7.5" font-family="Helvetica,sans-Serif" font-size="10.00">Ogre::HlmsManager</text>
</a>
</g>
</g>
<!-- Node2 -->
<g id="node2" class="node">
<title>Node2</title>
<g id="a_node2"><a xlink:title=" ">
<polygon fill="none" stroke="#bfbfbf" points="0,-62 0,-81 62,-81 62,-62 0,-62"/>
<text text-anchor="middle" x="31" y="-69" font-family="Helvetica,sans-Serif" font-size="10.00">PassAlloc</text>
</a>
</g>
</g>
<!-- Node2&#45;&gt;Node1 -->
<g id="edge1" class="edge">
<title>Node2&#45;&gt;Node1</title>
<path fill="none" stroke="midnightblue" d="M57.94,-57.67C82.2,-46.13 117.16,-29.49 138.12,-19.51"/>
<polygon fill="midnightblue" stroke="midnightblue" points="56.43,-54.52 48.91,-61.98 59.44,-60.84 56.43,-54.52"/>
</g>
<!-- Node3 -->
<g id="node3" class="node">
<title>Node3</title>
<g id="a_node3"><a xlink:href="class_ogre_1_1_render_object_listener.html" target="_top" xlink:title="Abstract interface which classes must implement if they wish to receive events from the scene manager...">
<polygon fill="none" stroke="black" points="80.5,-62 80.5,-81 231.5,-81 231.5,-62 80.5,-62"/>
<text text-anchor="middle" x="156" y="-69" font-family="Helvetica,sans-Serif" font-size="10.00">Ogre::RenderObjectListener</text>
</a>
</g>
</g>
<!-- Node3&#45;&gt;Node1 -->
<g id="edge2" class="edge">
<title>Node3&#45;&gt;Node1</title>
<path fill="none" stroke="midnightblue" d="M156,-51.82C156,-41 156,-27.9 156,-19.51"/>
<polygon fill="midnightblue" stroke="midnightblue" points="152.5,-51.98 156,-61.98 159.5,-51.98 152.5,-51.98"/>
</g>
<!-- Node4 -->
<g id="node4" class="node">
<title>Node4</title>
<g id="a_node4"><a xlink:href="class_ogre_1_1_scene_manager_1_1_listener.html" target="_top" xlink:title="Class that allows listening in on the various stages of SceneManager processing, so that custom behav...">
<polygon fill="none" stroke="black" points="250,-56.5 250,-86.5 368,-86.5 368,-56.5 250,-56.5"/>
<text text-anchor="start" x="258" y="-74.5" font-family="Helvetica,sans-Serif" font-size="10.00">Ogre::SceneManager</text>
<text text-anchor="middle" x="309" y="-63.5" font-family="Helvetica,sans-Serif" font-size="10.00">::Listener</text>
</a>
</g>
</g>
<!-- Node4&#45;&gt;Node1 -->
<g id="edge3" class="edge">
<title>Node4&#45;&gt;Node1</title>
<path fill="none" stroke="midnightblue" d="M263.12,-52.66C235.06,-41.75 200.41,-28.27 178.26,-19.66"/>
<polygon fill="midnightblue" stroke="midnightblue" points="262.15,-56.04 272.74,-56.4 264.69,-49.51 262.15,-56.04"/>
</g>
</g>
</svg>
