<?xml version="1.0" encoding="UTF-8" standalone="no"?>
<!DOCTYPE svg PUBLIC "-//W3C//DTD SVG 1.1//EN"
 "http://www.w3.org/Graphics/SVG/1.1/DTD/svg11.dtd">
<!-- Generated by graphviz version 2.43.0 (0)
 -->
<!-- Title: Ogre::RTShader::LayeredBlending Pages: 1 -->
<svg width="187pt" height="207pt"
 viewBox="0.00 0.00 187.00 207.00" xmlns="http://www.w3.org/2000/svg" xmlns:xlink="http://www.w3.org/1999/xlink">
<g id="graph0" class="graph" transform="scale(1 1) rotate(0) translate(4 203)">
<title>Ogre::RTShader::LayeredBlending</title>
<!-- Node1 -->
<g id="node1" class="node">
<title>Node1</title>
<g id="a_node1"><a xlink:title="Texturing sub render state implementation of layered blending.">
<polygon fill="#bfbfbf" stroke="black" points="0,-0.5 0,-19.5 179,-19.5 179,-0.5 0,-0.5"/>
<text text-anchor="middle" x="89.5" y="-7.5" font-family="Helvetica,sans-Serif" font-size="10.00">Ogre::RTShader::LayeredBlending</text>
</a>
</g>
</g>
<!-- Node2 -->
<g id="node2" class="node">
<title>Node2</title>
<g id="a_node2"><a xlink:href="class_ogre_1_1_r_t_shader_1_1_f_f_p_texturing.html" target="_top" xlink:title="Texturing sub render state implementation of the Fixed Function Pipeline.">
<polygon fill="none" stroke="black" points="9,-56.5 9,-75.5 170,-75.5 170,-56.5 9,-56.5"/>
<text text-anchor="middle" x="89.5" y="-63.5" font-family="Helvetica,sans-Serif" font-size="10.00">Ogre::RTShader::FFPTexturing</text>
</a>
</g>
</g>
<!-- Node2&#45;&gt;Node1 -->
<g id="edge1" class="edge">
<title>Node2&#45;&gt;Node1</title>
<path fill="none" stroke="midnightblue" d="M89.5,-45.8C89.5,-36.91 89.5,-26.78 89.5,-19.75"/>
<polygon fill="midnightblue" stroke="midnightblue" points="86,-46.08 89.5,-56.08 93,-46.08 86,-46.08"/>
</g>
<!-- Node3 -->
<g id="node3" class="node">
<title>Node3</title>
<g id="a_node3"><a xlink:href="class_ogre_1_1_r_t_shader_1_1_sub_render_state.html" target="_top" xlink:title="This class is the base interface of sub part from a shader based rendering pipeline.">
<polygon fill="none" stroke="black" points="14.5,-112.5 14.5,-142.5 164.5,-142.5 164.5,-112.5 14.5,-112.5"/>
<text text-anchor="start" x="22.5" y="-130.5" font-family="Helvetica,sans-Serif" font-size="10.00">Ogre::RTShader::SubRender</text>
<text text-anchor="middle" x="89.5" y="-119.5" font-family="Helvetica,sans-Serif" font-size="10.00">State</text>
</a>
</g>
</g>
<!-- Node3&#45;&gt;Node2 -->
<g id="edge2" class="edge">
<title>Node3&#45;&gt;Node2</title>
<path fill="none" stroke="midnightblue" d="M89.5,-102.29C89.5,-92.86 89.5,-82.65 89.5,-75.66"/>
<polygon fill="midnightblue" stroke="midnightblue" points="86,-102.4 89.5,-112.4 93,-102.4 86,-102.4"/>
</g>
<!-- Node4 -->
<g id="node4" class="node">
<title>Node4</title>
<g id="a_node4"><a xlink:title=" ">
<polygon fill="none" stroke="#bfbfbf" points="28,-179.5 28,-198.5 151,-198.5 151,-179.5 28,-179.5"/>
<text text-anchor="middle" x="89.5" y="-186.5" font-family="Helvetica,sans-Serif" font-size="10.00">RTShaderSystemAlloc</text>
</a>
</g>
</g>
<!-- Node4&#45;&gt;Node3 -->
<g id="edge3" class="edge">
<title>Node4&#45;&gt;Node3</title>
<path fill="none" stroke="midnightblue" d="M89.5,-169.23C89.5,-160.59 89.5,-150.5 89.5,-142.52"/>
<polygon fill="midnightblue" stroke="midnightblue" points="86,-169.48 89.5,-179.48 93,-169.48 86,-169.48"/>
</g>
</g>
</svg>
