<?xml version="1.0" encoding="UTF-8" standalone="no"?>
<!DOCTYPE svg PUBLIC "-//W3C//DTD SVG 1.1//EN"
 "http://www.w3.org/Graphics/SVG/1.1/DTD/svg11.dtd">
<!-- Generated by graphviz version 2.43.0 (0)
 -->
<!-- Title: Ogre::GLES2HardwarePixelBuffer Pages: 1 -->
<svg width="308pt" height="330pt"
 viewBox="0.00 0.00 308.00 330.00" xmlns="http://www.w3.org/2000/svg" xmlns:xlink="http://www.w3.org/1999/xlink">
<g id="graph0" class="graph" transform="scale(1 1) rotate(0) translate(4 326)">
<title>Ogre::GLES2HardwarePixelBuffer</title>
<!-- Node1 -->
<g id="node1" class="node">
<title>Node1</title>
<g id="a_node1"><a xlink:title=" ">
<polygon fill="#bfbfbf" stroke="black" points="75.5,-56.5 75.5,-86.5 222.5,-86.5 222.5,-56.5 75.5,-56.5"/>
<text text-anchor="start" x="83.5" y="-74.5" font-family="Helvetica,sans-Serif" font-size="10.00">Ogre::GLES2HardwarePixel</text>
<text text-anchor="middle" x="149" y="-63.5" font-family="Helvetica,sans-Serif" font-size="10.00">Buffer</text>
</a>
</g>
</g>
<!-- Node6 -->
<g id="node6" class="node">
<title>Node6</title>
<g id="a_node6"><a xlink:href="class_ogre_1_1_g_l_e_s2_render_buffer.html" target="_top" xlink:title="Renderbuffer surface.">
<polygon fill="none" stroke="black" points="0,-0.5 0,-19.5 140,-19.5 140,-0.5 0,-0.5"/>
<text text-anchor="middle" x="70" y="-7.5" font-family="Helvetica,sans-Serif" font-size="10.00">Ogre::GLES2RenderBuffer</text>
</a>
</g>
</g>
<!-- Node1&#45;&gt;Node6 -->
<g id="edge5" class="edge">
<title>Node1&#45;&gt;Node6</title>
<path fill="none" stroke="midnightblue" d="M122.03,-50.19C108.2,-39.77 92.08,-27.63 81.5,-19.66"/>
<polygon fill="midnightblue" stroke="midnightblue" points="120.18,-53.18 130.28,-56.4 124.4,-47.59 120.18,-53.18"/>
</g>
<!-- Node7 -->
<g id="node7" class="node">
<title>Node7</title>
<g id="a_node7"><a xlink:href="class_ogre_1_1_g_l_e_s2_texture_buffer.html" target="_top" xlink:title="Texture surface.">
<polygon fill="none" stroke="black" points="158,-0.5 158,-19.5 300,-19.5 300,-0.5 158,-0.5"/>
<text text-anchor="middle" x="229" y="-7.5" font-family="Helvetica,sans-Serif" font-size="10.00">Ogre::GLES2TextureBuffer</text>
</a>
</g>
</g>
<!-- Node1&#45;&gt;Node7 -->
<g id="edge6" class="edge">
<title>Node1&#45;&gt;Node7</title>
<path fill="none" stroke="midnightblue" d="M176.31,-50.19C190.32,-39.77 206.64,-27.63 217.36,-19.66"/>
<polygon fill="midnightblue" stroke="midnightblue" points="173.89,-47.62 167.96,-56.4 178.07,-53.24 173.89,-47.62"/>
</g>
<!-- Node2 -->
<g id="node2" class="node">
<title>Node2</title>
<g id="a_node2"><a xlink:href="class_ogre_1_1_g_l_hardware_pixel_buffer_common.html" target="_top" xlink:title=" ">
<polygon fill="none" stroke="black" points="70,-123.5 70,-153.5 228,-153.5 228,-123.5 70,-123.5"/>
<text text-anchor="start" x="78" y="-141.5" font-family="Helvetica,sans-Serif" font-size="10.00">Ogre::GLHardwarePixelBuffer</text>
<text text-anchor="middle" x="149" y="-130.5" font-family="Helvetica,sans-Serif" font-size="10.00">Common</text>
</a>
</g>
</g>
<!-- Node2&#45;&gt;Node1 -->
<g id="edge1" class="edge">
<title>Node2&#45;&gt;Node1</title>
<path fill="none" stroke="midnightblue" d="M149,-113.11C149,-104.15 149,-94.32 149,-86.58"/>
<polygon fill="midnightblue" stroke="midnightblue" points="145.5,-113.4 149,-123.4 152.5,-113.4 145.5,-113.4"/>
</g>
<!-- Node3 -->
<g id="node3" class="node">
<title>Node3</title>
<g id="a_node3"><a xlink:href="class_ogre_1_1_hardware_pixel_buffer.html" target="_top" xlink:title="Specialisation of HardwareBuffer for a pixel buffer.">
<polygon fill="none" stroke="black" points="76,-190.5 76,-209.5 222,-209.5 222,-190.5 76,-190.5"/>
<text text-anchor="middle" x="149" y="-197.5" font-family="Helvetica,sans-Serif" font-size="10.00">Ogre::HardwarePixelBuffer</text>
</a>
</g>
</g>
<!-- Node3&#45;&gt;Node2 -->
<g id="edge2" class="edge">
<title>Node3&#45;&gt;Node2</title>
<path fill="none" stroke="midnightblue" d="M149,-180.23C149,-171.59 149,-161.5 149,-153.52"/>
<polygon fill="midnightblue" stroke="midnightblue" points="145.5,-180.48 149,-190.48 152.5,-180.48 145.5,-180.48"/>
</g>
<!-- Node4 -->
<g id="node4" class="node">
<title>Node4</title>
<g id="a_node4"><a xlink:href="class_ogre_1_1_hardware_buffer.html" target="_top" xlink:title="Abstract class defining common features of hardware buffers.">
<polygon fill="none" stroke="black" points="88,-246.5 88,-265.5 210,-265.5 210,-246.5 88,-246.5"/>
<text text-anchor="middle" x="149" y="-253.5" font-family="Helvetica,sans-Serif" font-size="10.00">Ogre::HardwareBuffer</text>
</a>
</g>
</g>
<!-- Node4&#45;&gt;Node3 -->
<g id="edge3" class="edge">
<title>Node4&#45;&gt;Node3</title>
<path fill="none" stroke="midnightblue" d="M149,-235.8C149,-226.91 149,-216.78 149,-209.75"/>
<polygon fill="midnightblue" stroke="midnightblue" points="145.5,-236.08 149,-246.08 152.5,-236.08 145.5,-236.08"/>
</g>
<!-- Node5 -->
<g id="node5" class="node">
<title>Node5</title>
<g id="a_node5"><a xlink:title=" ">
<polygon fill="none" stroke="#bfbfbf" points="114,-302.5 114,-321.5 184,-321.5 184,-302.5 114,-302.5"/>
<text text-anchor="middle" x="149" y="-309.5" font-family="Helvetica,sans-Serif" font-size="10.00">BufferAlloc</text>
</a>
</g>
</g>
<!-- Node5&#45;&gt;Node4 -->
<g id="edge4" class="edge">
<title>Node5&#45;&gt;Node4</title>
<path fill="none" stroke="midnightblue" d="M149,-291.8C149,-282.91 149,-272.78 149,-265.75"/>
<polygon fill="midnightblue" stroke="midnightblue" points="145.5,-292.08 149,-302.08 152.5,-292.08 145.5,-292.08"/>
</g>
</g>
</svg>
