<?xml version="1.0" encoding="UTF-8" standalone="no"?>
<!DOCTYPE svg PUBLIC "-//W3C//DTD SVG 1.1//EN"
 "http://www.w3.org/Graphics/SVG/1.1/DTD/svg11.dtd">
<!-- Generated by graphviz version 2.43.0 (0)
 -->
<!-- Title: Ogre::D3D9Resource Pages: 1 -->
<svg width="554pt" height="260pt"
 viewBox="0.00 0.00 554.00 260.00" xmlns="http://www.w3.org/2000/svg" xmlns:xlink="http://www.w3.org/1999/xlink">
<g id="graph0" class="graph" transform="scale(1 1) rotate(0) translate(4 256)">
<title>Ogre::D3D9Resource</title>
<!-- Node1 -->
<g id="node1" class="node">
<title>Node1</title>
<g id="a_node1"><a xlink:title="Represents a Direct3D rendering resource.">
<polygon fill="#bfbfbf" stroke="black" points="0,-106.5 0,-125.5 118,-125.5 118,-106.5 0,-106.5"/>
<text text-anchor="middle" x="59" y="-113.5" font-family="Helvetica,sans-Serif" font-size="10.00">Ogre::D3D9Resource</text>
</a>
</g>
</g>
<!-- Node2 -->
<g id="node2" class="node">
<title>Node2</title>
<g id="a_node2"><a xlink:href="class_ogre_1_1_d3_d9_gpu_program.html" target="_top" xlink:title="Direct3D implementation of a few things common to low&#45;level vertex &amp; fragment programs.">
<polygon fill="none" stroke="black" points="175,-213.5 175,-232.5 309,-232.5 309,-213.5 175,-213.5"/>
<text text-anchor="middle" x="242" y="-220.5" font-family="Helvetica,sans-Serif" font-size="10.00">Ogre::D3D9GpuProgram</text>
</a>
</g>
</g>
<!-- Node1&#45;&gt;Node2 -->
<g id="edge1" class="edge">
<title>Node1&#45;&gt;Node2</title>
<path fill="none" stroke="midnightblue" d="M73.64,-133.54C90.35,-153.75 120.58,-186.44 154,-204 161.39,-207.88 169.53,-210.97 177.78,-213.43"/>
<polygon fill="midnightblue" stroke="midnightblue" points="76.34,-131.31 67.34,-125.72 70.89,-135.7 76.34,-131.31"/>
</g>
<!-- Node5 -->
<g id="node5" class="node">
<title>Node5</title>
<g id="a_node5"><a xlink:href="class_ogre_1_1_d3_d9_hardware_index_buffer.html" target="_top" xlink:title=" ">
<polygon fill="none" stroke="black" points="154,-175.5 154,-194.5 330,-194.5 330,-175.5 154,-175.5"/>
<text text-anchor="middle" x="242" y="-182.5" font-family="Helvetica,sans-Serif" font-size="10.00">Ogre::D3D9HardwareIndexBuffer</text>
</a>
</g>
</g>
<!-- Node1&#45;&gt;Node5 -->
<g id="edge4" class="edge">
<title>Node1&#45;&gt;Node5</title>
<path fill="none" stroke="midnightblue" d="M84.06,-130.73C102.61,-141.53 129.18,-155.85 154,-165 165.2,-169.13 177.53,-172.58 189.3,-175.39"/>
<polygon fill="midnightblue" stroke="midnightblue" points="85.79,-127.68 75.4,-125.6 82.22,-133.71 85.79,-127.68"/>
</g>
<!-- Node6 -->
<g id="node6" class="node">
<title>Node6</title>
<g id="a_node6"><a xlink:href="class_ogre_1_1_d3_d9_hardware_occlusion_query.html" target="_top" xlink:title="This is a class that is the DirectX9 implementation of hardware occlusion testing.">
<polygon fill="none" stroke="black" points="158.5,-126 158.5,-156 325.5,-156 325.5,-126 158.5,-126"/>
<text text-anchor="start" x="166.5" y="-144" font-family="Helvetica,sans-Serif" font-size="10.00">Ogre::D3D9HardwareOcclusion</text>
<text text-anchor="middle" x="242" y="-133" font-family="Helvetica,sans-Serif" font-size="10.00">Query</text>
</a>
</g>
</g>
<!-- Node1&#45;&gt;Node6 -->
<g id="edge5" class="edge">
<title>Node1&#45;&gt;Node6</title>
<path fill="none" stroke="midnightblue" d="M128.35,-125.44C138.18,-126.8 148.38,-128.21 158.45,-129.6"/>
<polygon fill="midnightblue" stroke="midnightblue" points="128.65,-121.95 118.27,-124.05 127.69,-128.88 128.65,-121.95"/>
</g>
<!-- Node7 -->
<g id="node7" class="node">
<title>Node7</title>
<g id="a_node7"><a xlink:href="class_ogre_1_1_d3_d9_hardware_vertex_buffer.html" target="_top" xlink:title="Specialisation of HardwareVertexBuffer for D3D9.">
<polygon fill="none" stroke="black" points="166,-77 166,-107 318,-107 318,-77 166,-77"/>
<text text-anchor="start" x="174" y="-95" font-family="Helvetica,sans-Serif" font-size="10.00">Ogre::D3D9HardwareVertex</text>
<text text-anchor="middle" x="242" y="-84" font-family="Helvetica,sans-Serif" font-size="10.00">Buffer</text>
</a>
</g>
</g>
<!-- Node1&#45;&gt;Node7 -->
<g id="edge6" class="edge">
<title>Node1&#45;&gt;Node7</title>
<path fill="none" stroke="midnightblue" d="M128.41,-106.93C140.68,-105.3 153.53,-103.6 165.97,-101.95"/>
<polygon fill="midnightblue" stroke="midnightblue" points="127.72,-103.49 118.27,-108.27 128.64,-110.43 127.72,-103.49"/>
</g>
<!-- Node8 -->
<g id="node8" class="node">
<title>Node8</title>
<g id="a_node8"><a xlink:href="class_ogre_1_1_d3_d9_texture.html" target="_top" xlink:title=" ">
<polygon fill="none" stroke="black" points="187.5,-38.5 187.5,-57.5 296.5,-57.5 296.5,-38.5 187.5,-38.5"/>
<text text-anchor="middle" x="242" y="-45.5" font-family="Helvetica,sans-Serif" font-size="10.00">Ogre::D3D9Texture</text>
</a>
</g>
</g>
<!-- Node1&#45;&gt;Node8 -->
<g id="edge7" class="edge">
<title>Node1&#45;&gt;Node8</title>
<path fill="none" stroke="midnightblue" d="M84.04,-101.19C102.56,-90.35 129.13,-76.01 154,-67 164.61,-63.15 176.24,-59.96 187.45,-57.35"/>
<polygon fill="midnightblue" stroke="midnightblue" points="82.18,-98.22 75.38,-106.35 85.76,-104.24 82.18,-98.22"/>
</g>
<!-- Node9 -->
<g id="node9" class="node">
<title>Node9</title>
<g id="a_node9"><a xlink:href="class_ogre_1_1_d3_d9_vertex_declaration.html" target="_top" xlink:title="Specialisation of VertexDeclaration for D3D9.">
<polygon fill="none" stroke="black" points="161.5,-0.5 161.5,-19.5 322.5,-19.5 322.5,-0.5 161.5,-0.5"/>
<text text-anchor="middle" x="242" y="-7.5" font-family="Helvetica,sans-Serif" font-size="10.00">Ogre::D3D9VertexDeclaration</text>
</a>
</g>
</g>
<!-- Node1&#45;&gt;Node9 -->
<g id="edge8" class="edge">
<title>Node1&#45;&gt;Node9</title>
<path fill="none" stroke="midnightblue" d="M73.91,-98.4C90.7,-78.39 120.86,-46.29 154,-29 161.4,-25.14 169.55,-22.06 177.81,-19.61"/>
<polygon fill="midnightblue" stroke="midnightblue" points="70.99,-96.44 67.36,-106.39 76.41,-100.87 70.99,-96.44"/>
</g>
<!-- Node3 -->
<g id="node3" class="node">
<title>Node3</title>
<g id="a_node3"><a xlink:href="class_ogre_1_1_d3_d9_gpu_fragment_program.html" target="_top" xlink:title="Direct3D implementation of low&#45;level fragment programs.">
<polygon fill="none" stroke="black" points="366,-232.5 366,-251.5 546,-251.5 546,-232.5 366,-232.5"/>
<text text-anchor="middle" x="456" y="-239.5" font-family="Helvetica,sans-Serif" font-size="10.00">Ogre::D3D9GpuFragmentProgram</text>
</a>
</g>
</g>
<!-- Node2&#45;&gt;Node3 -->
<g id="edge2" class="edge">
<title>Node2&#45;&gt;Node3</title>
<path fill="none" stroke="midnightblue" d="M319.49,-229.86C334.57,-231.21 350.52,-232.64 365.97,-234.02"/>
<polygon fill="midnightblue" stroke="midnightblue" points="319.48,-226.34 309.21,-228.93 318.85,-233.31 319.48,-226.34"/>
</g>
<!-- Node4 -->
<g id="node4" class="node">
<title>Node4</title>
<g id="a_node4"><a xlink:href="class_ogre_1_1_d3_d9_gpu_vertex_program.html" target="_top" xlink:title="Direct3D implementation of low&#45;level vertex programs.">
<polygon fill="none" stroke="black" points="373.5,-194.5 373.5,-213.5 538.5,-213.5 538.5,-194.5 373.5,-194.5"/>
<text text-anchor="middle" x="456" y="-201.5" font-family="Helvetica,sans-Serif" font-size="10.00">Ogre::D3D9GpuVertexProgram</text>
</a>
</g>
</g>
<!-- Node2&#45;&gt;Node4 -->
<g id="edge3" class="edge">
<title>Node2&#45;&gt;Node4</title>
<path fill="none" stroke="midnightblue" d="M319.36,-216.16C336.86,-214.59 355.54,-212.91 373.26,-211.33"/>
<polygon fill="midnightblue" stroke="midnightblue" points="318.85,-212.69 309.21,-217.07 319.48,-219.66 318.85,-212.69"/>
</g>
</g>
</svg>
