<?xml version="1.0" encoding="UTF-8" standalone="no"?>
<!DOCTYPE svg PUBLIC "-//W3C//DTD SVG 1.1//EN"
 "http://www.w3.org/Graphics/SVG/1.1/DTD/svg11.dtd">
<!-- Generated by graphviz version 2.43.0 (0)
 -->
<!-- Title: Ogre::RTShader::TextureAtlasSamplerFactory Pages: 1 -->
<svg width="511pt" height="88pt"
 viewBox="0.00 0.00 511.00 88.00" xmlns="http://www.w3.org/2000/svg" xmlns:xlink="http://www.w3.org/1999/xlink">
<g id="graph0" class="graph" transform="scale(1 1) rotate(0) translate(4 84)">
<title>Ogre::RTShader::TextureAtlasSamplerFactory</title>
<!-- Node1 -->
<g id="node1" class="node">
<title>Node1</title>
<g id="a_node1"><a xlink:title="A factory that enables creation of TextureAtlasSampler instances.">
<polygon fill="#bfbfbf" stroke="black" points="345,-24.5 345,-54.5 503,-54.5 503,-24.5 345,-24.5"/>
<text text-anchor="start" x="353" y="-42.5" font-family="Helvetica,sans-Serif" font-size="10.00">Ogre::RTShader::TextureAtlas</text>
<text text-anchor="middle" x="424" y="-31.5" font-family="Helvetica,sans-Serif" font-size="10.00">SamplerFactory</text>
</a>
</g>
</g>
<!-- Node2 -->
<g id="node2" class="node">
<title>Node2</title>
<g id="a_node2"><a xlink:href="class_ogre_1_1_r_t_shader_1_1_sub_render_state_factory.html" target="_top" xlink:title="Abstract factory interface for creating SubRenderState implementation instances.">
<polygon fill="none" stroke="black" points="159,-49.5 159,-79.5 309,-79.5 309,-49.5 159,-49.5"/>
<text text-anchor="start" x="167" y="-67.5" font-family="Helvetica,sans-Serif" font-size="10.00">Ogre::RTShader::SubRender</text>
<text text-anchor="middle" x="234" y="-56.5" font-family="Helvetica,sans-Serif" font-size="10.00">StateFactory</text>
</a>
</g>
</g>
<!-- Node2&#45;&gt;Node1 -->
<g id="edge1" class="edge">
<title>Node2&#45;&gt;Node1</title>
<path fill="none" stroke="midnightblue" d="M319,-53.33C327.55,-52.19 336.21,-51.04 344.7,-49.91"/>
<polygon fill="midnightblue" stroke="midnightblue" points="318.48,-49.87 309.03,-54.66 319.41,-56.81 318.48,-49.87"/>
</g>
<!-- Node3 -->
<g id="node3" class="node">
<title>Node3</title>
<g id="a_node3"><a xlink:title=" ">
<polygon fill="none" stroke="#bfbfbf" points="0,-55 0,-74 123,-74 123,-55 0,-55"/>
<text text-anchor="middle" x="61.5" y="-62" font-family="Helvetica,sans-Serif" font-size="10.00">RTShaderSystemAlloc</text>
</a>
</g>
</g>
<!-- Node3&#45;&gt;Node2 -->
<g id="edge2" class="edge">
<title>Node3&#45;&gt;Node2</title>
<path fill="none" stroke="midnightblue" d="M133.28,-64.5C141.73,-64.5 150.37,-64.5 158.87,-64.5"/>
<polygon fill="midnightblue" stroke="midnightblue" points="133.09,-61 123.09,-64.5 133.09,-68 133.09,-61"/>
</g>
<!-- Node4 -->
<g id="node4" class="node">
<title>Node4</title>
<g id="a_node4"><a xlink:href="class_ogre_1_1_singleton.html" target="_top" xlink:title=" ">
<polygon fill="none" stroke="black" points="164.5,-0.5 164.5,-30.5 303.5,-30.5 303.5,-0.5 164.5,-0.5"/>
<text text-anchor="start" x="172.5" y="-18.5" font-family="Helvetica,sans-Serif" font-size="10.00">Ogre::Singleton&lt; Texture</text>
<text text-anchor="middle" x="234" y="-7.5" font-family="Helvetica,sans-Serif" font-size="10.00">AtlasSamplerFactory &gt;</text>
</a>
</g>
</g>
<!-- Node4&#45;&gt;Node1 -->
<g id="edge3" class="edge">
<title>Node4&#45;&gt;Node1</title>
<path fill="none" stroke="midnightblue" d="M313.86,-25.57C324.15,-26.88 334.69,-28.23 344.97,-29.54"/>
<polygon fill="midnightblue" stroke="midnightblue" points="314.03,-22.06 303.67,-24.27 313.15,-29 314.03,-22.06"/>
</g>
</g>
</svg>
