<?xml version="1.0" encoding="UTF-8" standalone="no"?>
<!DOCTYPE svg PUBLIC "-//W3C//DTD SVG 1.1//EN"
 "http://www.w3.org/Graphics/SVG/1.1/DTD/svg11.dtd">
<!-- Generated by graphviz version 2.43.0 (0)
 -->
<!-- Title: Ogre::ParticleEmitterFactory Pages: 1 -->
<svg width="444pt" height="230pt"
 viewBox="0.00 0.00 444.00 230.00" xmlns="http://www.w3.org/2000/svg" xmlns:xlink="http://www.w3.org/1999/xlink">
<g id="graph0" class="graph" transform="scale(1 1) rotate(0) translate(4 226)">
<title>Ogre::ParticleEmitterFactory</title>
<!-- Node1 -->
<g id="node1" class="node">
<title>Node1</title>
<g id="a_node1"><a xlink:title="Abstract class defining the interface to be implemented by creators of ParticleEmitter subclasses.">
<polygon fill="#bfbfbf" stroke="black" points="89,-104.5 89,-123.5 242,-123.5 242,-104.5 89,-104.5"/>
<text text-anchor="middle" x="165.5" y="-111.5" font-family="Helvetica,sans-Serif" font-size="10.00">Ogre::ParticleEmitterFactory</text>
</a>
</g>
</g>
<!-- Node3 -->
<g id="node3" class="node">
<title>Node3</title>
<g id="a_node3"><a xlink:href="class_ogre_1_1_box_emitter_factory.html" target="_top" xlink:title="Factory class for particle emitter of type &quot;Box&quot;.">
<polygon fill="none" stroke="black" points="289,-202.5 289,-221.5 425,-221.5 425,-202.5 289,-202.5"/>
<text text-anchor="middle" x="357" y="-209.5" font-family="Helvetica,sans-Serif" font-size="10.00">Ogre::BoxEmitterFactory</text>
</a>
</g>
</g>
<!-- Node1&#45;&gt;Node3 -->
<g id="edge2" class="edge">
<title>Node1&#45;&gt;Node3</title>
<path fill="none" stroke="midnightblue" d="M184.82,-130.33C205.87,-148.26 242.14,-176.65 278,-193 286.37,-196.82 295.61,-199.93 304.71,-202.44"/>
<polygon fill="midnightblue" stroke="midnightblue" points="186.88,-127.48 177.03,-123.58 182.29,-132.77 186.88,-127.48"/>
</g>
<!-- Node4 -->
<g id="node4" class="node">
<title>Node4</title>
<g id="a_node4"><a xlink:href="class_ogre_1_1_cylinder_emitter_factory.html" target="_top" xlink:title="Factory class for particle emitter of type &quot;Cylinder&quot;.">
<polygon fill="none" stroke="black" points="278,-164.5 278,-183.5 436,-183.5 436,-164.5 278,-164.5"/>
<text text-anchor="middle" x="357" y="-171.5" font-family="Helvetica,sans-Serif" font-size="10.00">Ogre::CylinderEmitterFactory</text>
</a>
</g>
</g>
<!-- Node1&#45;&gt;Node4 -->
<g id="edge3" class="edge">
<title>Node1&#45;&gt;Node4</title>
<path fill="none" stroke="midnightblue" d="M199.69,-127.33C221.69,-135.88 251.31,-146.87 278,-155 289.2,-158.41 301.45,-161.63 312.85,-164.41"/>
<polygon fill="midnightblue" stroke="midnightblue" points="200.75,-123.98 190.16,-123.59 198.19,-130.5 200.75,-123.98"/>
</g>
<!-- Node5 -->
<g id="node5" class="node">
<title>Node5</title>
<g id="a_node5"><a xlink:href="class_ogre_1_1_ellipsoid_emitter_factory.html" target="_top" xlink:title="Factory class for particle emitter of type &quot;Ellipsoid&quot;.">
<polygon fill="none" stroke="black" points="278,-126.5 278,-145.5 436,-145.5 436,-126.5 278,-126.5"/>
<text text-anchor="middle" x="357" y="-133.5" font-family="Helvetica,sans-Serif" font-size="10.00">Ogre::EllipsoidEmitterFactory</text>
</a>
</g>
</g>
<!-- Node1&#45;&gt;Node5 -->
<g id="edge4" class="edge">
<title>Node1&#45;&gt;Node5</title>
<path fill="none" stroke="midnightblue" d="M252.21,-123.95C260.78,-124.95 269.44,-125.95 277.93,-126.94"/>
<polygon fill="midnightblue" stroke="midnightblue" points="252.55,-120.47 242.21,-122.79 251.74,-127.42 252.55,-120.47"/>
</g>
<!-- Node6 -->
<g id="node6" class="node">
<title>Node6</title>
<g id="a_node6"><a xlink:href="class_ogre_1_1_hollow_ellipsoid_emitter_factory.html" target="_top" xlink:title="Factory class for particle emitter of type &quot;HollowEllipsoid&quot;.">
<polygon fill="none" stroke="black" points="278.5,-77 278.5,-107 435.5,-107 435.5,-77 278.5,-77"/>
<text text-anchor="start" x="286.5" y="-95" font-family="Helvetica,sans-Serif" font-size="10.00">Ogre::HollowEllipsoidEmitter</text>
<text text-anchor="middle" x="357" y="-84" font-family="Helvetica,sans-Serif" font-size="10.00">Factory</text>
</a>
</g>
</g>
<!-- Node1&#45;&gt;Node6 -->
<g id="edge5" class="edge">
<title>Node1&#45;&gt;Node6</title>
<path fill="none" stroke="midnightblue" d="M252.3,-104.04C260.94,-103.04 269.69,-102.02 278.24,-101.03"/>
<polygon fill="midnightblue" stroke="midnightblue" points="251.74,-100.58 242.21,-105.21 252.55,-107.53 251.74,-100.58"/>
</g>
<!-- Node7 -->
<g id="node7" class="node">
<title>Node7</title>
<g id="a_node7"><a xlink:href="class_ogre_1_1_point_emitter_factory.html" target="_top" xlink:title="Factory class for particle emitter of type &quot;Point&quot;.">
<polygon fill="none" stroke="black" points="286,-38.5 286,-57.5 428,-57.5 428,-38.5 286,-38.5"/>
<text text-anchor="middle" x="357" y="-45.5" font-family="Helvetica,sans-Serif" font-size="10.00">Ogre::PointEmitterFactory</text>
</a>
</g>
</g>
<!-- Node1&#45;&gt;Node7 -->
<g id="edge6" class="edge">
<title>Node1&#45;&gt;Node7</title>
<path fill="none" stroke="midnightblue" d="M195.89,-100.09C218.09,-89.95 249.5,-76.41 278,-67 288.72,-63.46 300.47,-60.26 311.51,-57.53"/>
<polygon fill="midnightblue" stroke="midnightblue" points="194.29,-96.97 186.68,-104.34 197.22,-103.33 194.29,-96.97"/>
</g>
<!-- Node8 -->
<g id="node8" class="node">
<title>Node8</title>
<g id="a_node8"><a xlink:href="class_ogre_1_1_ring_emitter_factory.html" target="_top" xlink:title="Factory class for particle emitter of type &quot;Ring&quot;.">
<polygon fill="none" stroke="black" points="287.5,-0.5 287.5,-19.5 426.5,-19.5 426.5,-0.5 287.5,-0.5"/>
<text text-anchor="middle" x="357" y="-7.5" font-family="Helvetica,sans-Serif" font-size="10.00">Ogre::RingEmitterFactory</text>
</a>
</g>
</g>
<!-- Node1&#45;&gt;Node8 -->
<g id="edge7" class="edge">
<title>Node1&#45;&gt;Node8</title>
<path fill="none" stroke="midnightblue" d="M183.33,-97.53C203.96,-78.27 240.76,-46.77 278,-29 286.05,-25.16 294.95,-22.05 303.77,-19.55"/>
<polygon fill="midnightblue" stroke="midnightblue" points="180.85,-95.06 176.01,-104.49 185.67,-100.14 180.85,-95.06"/>
</g>
<!-- Node2 -->
<g id="node2" class="node">
<title>Node2</title>
<g id="a_node2"><a xlink:title=" ">
<polygon fill="none" stroke="#bfbfbf" points="0,-104.5 0,-123.5 53,-123.5 53,-104.5 0,-104.5"/>
<text text-anchor="middle" x="26.5" y="-111.5" font-family="Helvetica,sans-Serif" font-size="10.00">FXAlloc</text>
</a>
</g>
</g>
<!-- Node2&#45;&gt;Node1 -->
<g id="edge1" class="edge">
<title>Node2&#45;&gt;Node1</title>
<path fill="none" stroke="midnightblue" d="M63.51,-114C71.4,-114 80.04,-114 88.83,-114"/>
<polygon fill="midnightblue" stroke="midnightblue" points="63.27,-110.5 53.27,-114 63.27,-117.5 63.27,-110.5"/>
</g>
</g>
</svg>
