<?xml version="1.0" encoding="UTF-8" standalone="no"?>
<!DOCTYPE svg PUBLIC "-//W3C//DTD SVG 1.1//EN"
 "http://www.w3.org/Graphics/SVG/1.1/DTD/svg11.dtd">
<!-- Generated by graphviz version 2.43.0 (0)
 -->
<!-- Title: Ogre::TerrainPagedWorldSection Pages: 1 -->
<svg width="471pt" height="127pt"
 viewBox="0.00 0.00 471.00 126.50" xmlns="http://www.w3.org/2000/svg" xmlns:xlink="http://www.w3.org/1999/xlink">
<g id="graph0" class="graph" transform="scale(1 1) rotate(0) translate(4 122.5)">
<title>Ogre::TerrainPagedWorldSection</title>
<!-- Node1 -->
<g id="node1" class="node">
<title>Node1</title>
<g id="a_node1"><a xlink:title="A world section which includes paged terrain.">
<polygon fill="#bfbfbf" stroke="black" points="291,-55 291,-74 463,-74 463,-55 291,-55"/>
<text text-anchor="middle" x="377" y="-62" font-family="Helvetica,sans-Serif" font-size="10.00">Ogre::TerrainPagedWorldSection</text>
</a>
</g>
</g>
<!-- Node2 -->
<g id="node2" class="node">
<title>Node2</title>
<g id="a_node2"><a xlink:href="class_ogre_1_1_paged_world_section.html" target="_top" xlink:title="Represents a section of the PagedWorld which uses a given PageStrategy, and which is made up of a gen...">
<polygon fill="none" stroke="black" points="108,-99 108,-118 247,-118 247,-99 108,-99"/>
<text text-anchor="middle" x="177.5" y="-106" font-family="Helvetica,sans-Serif" font-size="10.00">Ogre::PagedWorldSection</text>
</a>
</g>
</g>
<!-- Node2&#45;&gt;Node1 -->
<g id="edge1" class="edge">
<title>Node2&#45;&gt;Node1</title>
<path fill="none" stroke="midnightblue" d="M231.39,-96.72C263.28,-89.61 303.36,-80.68 333.23,-74.03"/>
<polygon fill="midnightblue" stroke="midnightblue" points="230.35,-93.36 221.35,-98.95 231.88,-100.19 230.35,-93.36"/>
</g>
<!-- Node3 -->
<g id="node3" class="node">
<title>Node3</title>
<g id="a_node3"><a xlink:title=" ">
<polygon fill="none" stroke="#bfbfbf" points="0,-99 0,-118 64,-118 64,-99 0,-99"/>
<text text-anchor="middle" x="32" y="-106" font-family="Helvetica,sans-Serif" font-size="10.00">PageAlloc</text>
</a>
</g>
</g>
<!-- Node3&#45;&gt;Node2 -->
<g id="edge2" class="edge">
<title>Node3&#45;&gt;Node2</title>
<path fill="none" stroke="midnightblue" d="M74.22,-108.5C84.71,-108.5 96.27,-108.5 107.72,-108.5"/>
<polygon fill="midnightblue" stroke="midnightblue" points="74.14,-105 64.14,-108.5 74.14,-112 74.14,-105"/>
</g>
<!-- Node4 -->
<g id="node4" class="node">
<title>Node4</title>
<g id="a_node4"><a xlink:href="class_ogre_1_1_work_queue_1_1_request_handler.html" target="_top" xlink:title="Interface definition for a handler of requests.">
<polygon fill="none" stroke="black" points="103.5,-49.5 103.5,-79.5 251.5,-79.5 251.5,-49.5 103.5,-49.5"/>
<text text-anchor="start" x="111.5" y="-67.5" font-family="Helvetica,sans-Serif" font-size="10.00">Ogre::WorkQueue::Request</text>
<text text-anchor="middle" x="177.5" y="-56.5" font-family="Helvetica,sans-Serif" font-size="10.00">Handler</text>
</a>
</g>
</g>
<!-- Node4&#45;&gt;Node1 -->
<g id="edge3" class="edge">
<title>Node4&#45;&gt;Node1</title>
<path fill="none" stroke="midnightblue" d="M262.02,-64.5C271.56,-64.5 281.29,-64.5 290.86,-64.5"/>
<polygon fill="midnightblue" stroke="midnightblue" points="261.76,-61 251.76,-64.5 261.76,-68 261.76,-61"/>
</g>
<!-- Node5 -->
<g id="node5" class="node">
<title>Node5</title>
<g id="a_node5"><a xlink:href="class_ogre_1_1_work_queue_1_1_response_handler.html" target="_top" xlink:title="Interface definition for a handler of responses.">
<polygon fill="none" stroke="black" points="100,-0.5 100,-30.5 255,-30.5 255,-0.5 100,-0.5"/>
<text text-anchor="start" x="108" y="-18.5" font-family="Helvetica,sans-Serif" font-size="10.00">Ogre::WorkQueue::Response</text>
<text text-anchor="middle" x="177.5" y="-7.5" font-family="Helvetica,sans-Serif" font-size="10.00">Handler</text>
</a>
</g>
</g>
<!-- Node5&#45;&gt;Node1 -->
<g id="edge4" class="edge">
<title>Node5&#45;&gt;Node1</title>
<path fill="none" stroke="midnightblue" d="M249.05,-33C278.89,-40.41 312.47,-48.74 337.6,-54.97"/>
<polygon fill="midnightblue" stroke="midnightblue" points="249.65,-29.55 239.1,-30.53 247.96,-36.34 249.65,-29.55"/>
</g>
</g>
</svg>
