<?xml version="1.0" encoding="UTF-8" standalone="no"?>
<!DOCTYPE svg PUBLIC "-//W3C//DTD SVG 1.1//EN"
 "http://www.w3.org/Graphics/SVG/1.1/DTD/svg11.dtd">
<!-- Generated by graphviz version 2.43.0 (0)
 -->
<!-- Title: Ogre::SceneManagerFactory Pages: 1 -->
<svg width="495pt" height="165pt"
 viewBox="0.00 0.00 495.00 165.00" xmlns="http://www.w3.org/2000/svg" xmlns:xlink="http://www.w3.org/1999/xlink">
<g id="graph0" class="graph" transform="scale(1 1) rotate(0) translate(4 161)">
<title>Ogre::SceneManagerFactory</title>
<!-- Node1 -->
<g id="node1" class="node">
<title>Node1</title>
<g id="a_node1"><a xlink:title="Class which will create instances of a given SceneManager.">
<polygon fill="#bfbfbf" stroke="black" points="125,-68.5 125,-87.5 278,-87.5 278,-68.5 125,-68.5"/>
<text text-anchor="middle" x="201.5" y="-75.5" font-family="Helvetica,sans-Serif" font-size="10.00">Ogre::SceneManagerFactory</text>
</a>
</g>
</g>
<!-- Node3 -->
<g id="node3" class="node">
<title>Node3</title>
<g id="a_node3"><a xlink:href="class_ogre_1_1_bsp_scene_manager_factory.html" target="_top" xlink:title="Factory for BspSceneManager.">
<polygon fill="none" stroke="black" points="315,-137.5 315,-156.5 486,-156.5 486,-137.5 315,-137.5"/>
<text text-anchor="middle" x="400.5" y="-144.5" font-family="Helvetica,sans-Serif" font-size="10.00">Ogre::BspSceneManagerFactory</text>
</a>
</g>
</g>
<!-- Node1&#45;&gt;Node3 -->
<g id="edge2" class="edge">
<title>Node1&#45;&gt;Node3</title>
<path fill="none" stroke="midnightblue" d="M230.13,-92.29C252.32,-103.29 284.53,-118.23 314,-128 324.97,-131.64 336.96,-134.79 348.4,-137.42"/>
<polygon fill="midnightblue" stroke="midnightblue" points="231.48,-89.05 220.98,-87.69 228.34,-95.3 231.48,-89.05"/>
</g>
<!-- Node4 -->
<g id="node4" class="node">
<title>Node4</title>
<g id="a_node4"><a xlink:href="class_ogre_1_1_default_scene_manager_factory.html" target="_top" xlink:title="Factory for default scene manager.">
<polygon fill="none" stroke="black" points="323.5,-88 323.5,-118 477.5,-118 477.5,-88 323.5,-88"/>
<text text-anchor="start" x="331.5" y="-106" font-family="Helvetica,sans-Serif" font-size="10.00">Ogre::DefaultSceneManager</text>
<text text-anchor="middle" x="400.5" y="-95" font-family="Helvetica,sans-Serif" font-size="10.00">Factory</text>
</a>
</g>
</g>
<!-- Node1&#45;&gt;Node4 -->
<g id="edge3" class="edge">
<title>Node1&#45;&gt;Node4</title>
<path fill="none" stroke="midnightblue" d="M287.48,-88.78C299.41,-90.3 311.61,-91.85 323.36,-93.34"/>
<polygon fill="midnightblue" stroke="midnightblue" points="287.9,-85.31 277.54,-87.52 287.02,-92.25 287.9,-85.31"/>
</g>
<!-- Node5 -->
<g id="node5" class="node">
<title>Node5</title>
<g id="a_node5"><a xlink:href="class_ogre_1_1_octree_scene_manager_factory.html" target="_top" xlink:title="Factory for OctreeSceneManager.">
<polygon fill="none" stroke="black" points="325.5,-39 325.5,-69 475.5,-69 475.5,-39 325.5,-39"/>
<text text-anchor="start" x="333.5" y="-57" font-family="Helvetica,sans-Serif" font-size="10.00">Ogre::OctreeSceneManager</text>
<text text-anchor="middle" x="400.5" y="-46" font-family="Helvetica,sans-Serif" font-size="10.00">Factory</text>
</a>
</g>
</g>
<!-- Node1&#45;&gt;Node5 -->
<g id="edge4" class="edge">
<title>Node1&#45;&gt;Node5</title>
<path fill="none" stroke="midnightblue" d="M288.38,-67.54C300.72,-66.03 313.32,-64.5 325.4,-63.03"/>
<polygon fill="midnightblue" stroke="midnightblue" points="287.61,-64.11 278.1,-68.79 288.45,-71.05 287.61,-64.11"/>
</g>
<!-- Node6 -->
<g id="node6" class="node">
<title>Node6</title>
<g id="a_node6"><a xlink:href="class_ogre_1_1_p_c_z_scene_manager_factory.html" target="_top" xlink:title="Factory for PCZSceneManager.">
<polygon fill="none" stroke="black" points="314,-0.5 314,-19.5 487,-19.5 487,-0.5 314,-0.5"/>
<text text-anchor="middle" x="400.5" y="-7.5" font-family="Helvetica,sans-Serif" font-size="10.00">Ogre::PCZSceneManagerFactory</text>
</a>
</g>
</g>
<!-- Node1&#45;&gt;Node6 -->
<g id="edge5" class="edge">
<title>Node1&#45;&gt;Node6</title>
<path fill="none" stroke="midnightblue" d="M230.56,-63.84C252.75,-53.09 284.77,-38.57 314,-29 325.13,-25.36 337.3,-22.19 348.87,-19.53"/>
<polygon fill="midnightblue" stroke="midnightblue" points="228.83,-60.79 221.39,-68.33 231.91,-67.07 228.83,-60.79"/>
</g>
<!-- Node2 -->
<g id="node2" class="node">
<title>Node2</title>
<g id="a_node2"><a xlink:title=" ">
<polygon fill="none" stroke="#bfbfbf" points="0,-68.5 0,-87.5 89,-87.5 89,-68.5 0,-68.5"/>
<text text-anchor="middle" x="44.5" y="-75.5" font-family="Helvetica,sans-Serif" font-size="10.00">SceneMgtAlloc</text>
</a>
</g>
</g>
<!-- Node2&#45;&gt;Node1 -->
<g id="edge1" class="edge">
<title>Node2&#45;&gt;Node1</title>
<path fill="none" stroke="midnightblue" d="M99.34,-78C107.62,-78 116.3,-78 124.95,-78"/>
<polygon fill="midnightblue" stroke="midnightblue" points="99.09,-74.5 89.09,-78 99.09,-81.5 99.09,-74.5"/>
</g>
</g>
</svg>
