<?xml version="1.0" encoding="UTF-8" standalone="no"?>
<!DOCTYPE svg PUBLIC "-//W3C//DTD SVG 1.1//EN"
 "http://www.w3.org/Graphics/SVG/1.1/DTD/svg11.dtd">
<!-- Generated by graphviz version 2.43.0 (0)
 -->
<!-- Title: Ogre::ParticleAffectorFactory Pages: 1 -->
<svg width="449pt" height="410pt"
 viewBox="0.00 0.00 449.00 409.50" xmlns="http://www.w3.org/2000/svg" xmlns:xlink="http://www.w3.org/1999/xlink">
<g id="graph0" class="graph" transform="scale(1 1) rotate(0) translate(4 405.5)">
<title>Ogre::ParticleAffectorFactory</title>
<!-- Node1 -->
<g id="node1" class="node">
<title>Node1</title>
<g id="a_node1"><a xlink:title="Abstract class defining the interface to be implemented by creators of ParticleAffector subclasses.">
<polygon fill="#bfbfbf" stroke="black" points="89,-180.5 89,-199.5 244,-199.5 244,-180.5 89,-180.5"/>
<text text-anchor="middle" x="166.5" y="-187.5" font-family="Helvetica,sans-Serif" font-size="10.00">Ogre::ParticleAffectorFactory</text>
</a>
</g>
</g>
<!-- Node3 -->
<g id="node3" class="node">
<title>Node3</title>
<g id="a_node3"><a xlink:href="class_ogre_1_1_colour_fader_affector_factory.html" target="_top" xlink:title="Factory class for ColourFaderAffector.">
<polygon fill="none" stroke="black" points="289.5,-371 289.5,-401 431.5,-401 431.5,-371 289.5,-371"/>
<text text-anchor="start" x="297.5" y="-389" font-family="Helvetica,sans-Serif" font-size="10.00">Ogre::ColourFaderAffector</text>
<text text-anchor="middle" x="360.5" y="-378" font-family="Helvetica,sans-Serif" font-size="10.00">Factory</text>
</a>
</g>
</g>
<!-- Node1&#45;&gt;Node3 -->
<g id="edge2" class="edge">
<title>Node1&#45;&gt;Node3</title>
<path fill="none" stroke="midnightblue" d="M174.97,-209.62C189.58,-245.35 225.37,-321.12 280,-362 284.62,-365.45 289.73,-368.42 295.08,-370.95"/>
<polygon fill="midnightblue" stroke="midnightblue" points="178.06,-207.9 171.12,-199.89 171.55,-210.48 178.06,-207.9"/>
</g>
<!-- Node4 -->
<g id="node4" class="node">
<title>Node4</title>
<g id="a_node4"><a xlink:href="class_ogre_1_1_colour_fader_affector_factory2.html" target="_top" xlink:title="Factory class for ColourFaderAffector.">
<polygon fill="none" stroke="black" points="289.5,-322 289.5,-352 431.5,-352 431.5,-322 289.5,-322"/>
<text text-anchor="start" x="297.5" y="-340" font-family="Helvetica,sans-Serif" font-size="10.00">Ogre::ColourFaderAffector</text>
<text text-anchor="middle" x="360.5" y="-329" font-family="Helvetica,sans-Serif" font-size="10.00">Factory2</text>
</a>
</g>
</g>
<!-- Node1&#45;&gt;Node4 -->
<g id="edge3" class="edge">
<title>Node1&#45;&gt;Node4</title>
<path fill="none" stroke="midnightblue" d="M179.21,-208.04C197.54,-234.84 235.52,-285.02 280,-313 285.37,-316.38 291.24,-319.3 297.29,-321.83"/>
<polygon fill="midnightblue" stroke="midnightblue" points="182.04,-205.98 173.58,-199.61 176.23,-209.87 182.04,-205.98"/>
</g>
<!-- Node5 -->
<g id="node5" class="node">
<title>Node5</title>
<g id="a_node5"><a xlink:href="class_ogre_1_1_colour_image_affector_factory.html" target="_top" xlink:title="Factory class for ColourImageAffector.">
<polygon fill="none" stroke="black" points="287.5,-273 287.5,-303 433.5,-303 433.5,-273 287.5,-273"/>
<text text-anchor="start" x="295.5" y="-291" font-family="Helvetica,sans-Serif" font-size="10.00">Ogre::ColourImageAffector</text>
<text text-anchor="middle" x="360.5" y="-280" font-family="Helvetica,sans-Serif" font-size="10.00">Factory</text>
</a>
</g>
</g>
<!-- Node1&#45;&gt;Node5 -->
<g id="edge4" class="edge">
<title>Node1&#45;&gt;Node5</title>
<path fill="none" stroke="midnightblue" d="M187.75,-205.93C209.49,-222.4 245.57,-247.9 280,-264 287.05,-267.3 294.67,-270.27 302.29,-272.91"/>
<polygon fill="midnightblue" stroke="midnightblue" points="189.68,-203.01 179.62,-199.69 185.42,-208.56 189.68,-203.01"/>
</g>
<!-- Node6 -->
<g id="node6" class="node">
<title>Node6</title>
<g id="a_node6"><a xlink:href="class_ogre_1_1_colour_interpolator_affector_factory.html" target="_top" xlink:title="Factory class for ColourInterpolatorAffector.">
<polygon fill="none" stroke="black" points="293.5,-224 293.5,-254 427.5,-254 427.5,-224 293.5,-224"/>
<text text-anchor="start" x="301.5" y="-242" font-family="Helvetica,sans-Serif" font-size="10.00">Ogre::ColourInterpolator</text>
<text text-anchor="middle" x="360.5" y="-231" font-family="Helvetica,sans-Serif" font-size="10.00">AffectorFactory</text>
</a>
</g>
</g>
<!-- Node1&#45;&gt;Node6 -->
<g id="edge5" class="edge">
<title>Node1&#45;&gt;Node6</title>
<path fill="none" stroke="midnightblue" d="M214.92,-202.1C240.8,-208.71 273.09,-216.95 300.58,-223.96"/>
<polygon fill="midnightblue" stroke="midnightblue" points="215.53,-198.65 204.98,-199.56 213.8,-205.43 215.53,-198.65"/>
</g>
<!-- Node7 -->
<g id="node7" class="node">
<title>Node7</title>
<g id="a_node7"><a xlink:href="class_ogre_1_1_deflector_plane_affector_factory.html" target="_top" xlink:title="Factory class for DeflectorPlaneAffector.">
<polygon fill="none" stroke="black" points="283,-175 283,-205 438,-205 438,-175 283,-175"/>
<text text-anchor="start" x="291" y="-193" font-family="Helvetica,sans-Serif" font-size="10.00">Ogre::DeflectorPlaneAffector</text>
<text text-anchor="middle" x="360.5" y="-182" font-family="Helvetica,sans-Serif" font-size="10.00">Factory</text>
</a>
</g>
</g>
<!-- Node1&#45;&gt;Node7 -->
<g id="edge6" class="edge">
<title>Node1&#45;&gt;Node7</title>
<path fill="none" stroke="midnightblue" d="M254.45,-190C263.94,-190 273.55,-190 282.91,-190"/>
<polygon fill="midnightblue" stroke="midnightblue" points="254.21,-186.5 244.21,-190 254.21,-193.5 254.21,-186.5"/>
</g>
<!-- Node8 -->
<g id="node8" class="node">
<title>Node8</title>
<g id="a_node8"><a xlink:href="class_ogre_1_1_direction_randomiser_affector_factory.html" target="_top" xlink:title="Factory class for DirectionRandomiserAffector.">
<polygon fill="none" stroke="black" points="286,-126 286,-156 435,-156 435,-126 286,-126"/>
<text text-anchor="start" x="294" y="-144" font-family="Helvetica,sans-Serif" font-size="10.00">Ogre::DirectionRandomiser</text>
<text text-anchor="middle" x="360.5" y="-133" font-family="Helvetica,sans-Serif" font-size="10.00">AffectorFactory</text>
</a>
</g>
</g>
<!-- Node1&#45;&gt;Node8 -->
<g id="edge7" class="edge">
<title>Node1&#45;&gt;Node8</title>
<path fill="none" stroke="midnightblue" d="M214.92,-177.9C240.8,-171.29 273.09,-163.05 300.58,-156.04"/>
<polygon fill="midnightblue" stroke="midnightblue" points="213.8,-174.57 204.98,-180.44 215.53,-181.35 213.8,-174.57"/>
</g>
<!-- Node9 -->
<g id="node9" class="node">
<title>Node9</title>
<g id="a_node9"><a xlink:href="class_ogre_1_1_linear_force_affector_factory.html" target="_top" xlink:title="Factory class for LinearForceAffector.">
<polygon fill="none" stroke="black" points="290.5,-77 290.5,-107 430.5,-107 430.5,-77 290.5,-77"/>
<text text-anchor="start" x="298.5" y="-95" font-family="Helvetica,sans-Serif" font-size="10.00">Ogre::LinearForceAffector</text>
<text text-anchor="middle" x="360.5" y="-84" font-family="Helvetica,sans-Serif" font-size="10.00">Factory</text>
</a>
</g>
</g>
<!-- Node1&#45;&gt;Node9 -->
<g id="edge8" class="edge">
<title>Node1&#45;&gt;Node9</title>
<path fill="none" stroke="midnightblue" d="M187.75,-174.07C209.49,-157.6 245.57,-132.1 280,-116 287.05,-112.7 294.67,-109.73 302.29,-107.09"/>
<polygon fill="midnightblue" stroke="midnightblue" points="185.42,-171.44 179.62,-180.31 189.68,-176.99 185.42,-171.44"/>
</g>
<!-- Node10 -->
<g id="node10" class="node">
<title>Node10</title>
<g id="a_node10"><a xlink:href="class_ogre_1_1_rotation_affector_factory.html" target="_top" xlink:title="Factory class for RotationAffector.">
<polygon fill="none" stroke="black" points="280,-38.5 280,-57.5 441,-57.5 441,-38.5 280,-38.5"/>
<text text-anchor="middle" x="360.5" y="-45.5" font-family="Helvetica,sans-Serif" font-size="10.00">Ogre::RotationAffectorFactory</text>
</a>
</g>
</g>
<!-- Node1&#45;&gt;Node10 -->
<g id="edge9" class="edge">
<title>Node1&#45;&gt;Node10</title>
<path fill="none" stroke="midnightblue" d="M179.01,-171.63C197.07,-144.39 234.72,-93.67 280,-67 286.6,-63.11 293.96,-60.02 301.45,-57.56"/>
<polygon fill="midnightblue" stroke="midnightblue" points="175.96,-169.9 173.46,-180.2 181.83,-173.71 175.96,-169.9"/>
</g>
<!-- Node11 -->
<g id="node11" class="node">
<title>Node11</title>
<g id="a_node11"><a xlink:href="class_ogre_1_1_scale_affector_factory.html" target="_top" xlink:title="Factory class for ScaleAffector.">
<polygon fill="none" stroke="black" points="287.5,-0.5 287.5,-19.5 433.5,-19.5 433.5,-0.5 287.5,-0.5"/>
<text text-anchor="middle" x="360.5" y="-7.5" font-family="Helvetica,sans-Serif" font-size="10.00">Ogre::ScaleAffectorFactory</text>
</a>
</g>
</g>
<!-- Node1&#45;&gt;Node11 -->
<g id="edge10" class="edge">
<title>Node1&#45;&gt;Node11</title>
<path fill="none" stroke="midnightblue" d="M175.32,-170.85C190.3,-136.72 226.36,-65.52 280,-29 285.75,-25.09 292.21,-21.98 298.9,-19.5"/>
<polygon fill="midnightblue" stroke="midnightblue" points="172.05,-169.6 171.36,-180.18 178.49,-172.34 172.05,-169.6"/>
</g>
<!-- Node2 -->
<g id="node2" class="node">
<title>Node2</title>
<g id="a_node2"><a xlink:title=" ">
<polygon fill="none" stroke="#bfbfbf" points="0,-180.5 0,-199.5 53,-199.5 53,-180.5 0,-180.5"/>
<text text-anchor="middle" x="26.5" y="-187.5" font-family="Helvetica,sans-Serif" font-size="10.00">FXAlloc</text>
</a>
</g>
</g>
<!-- Node2&#45;&gt;Node1 -->
<g id="edge1" class="edge">
<title>Node2&#45;&gt;Node1</title>
<path fill="none" stroke="midnightblue" d="M63.17,-190C71.19,-190 80,-190 88.98,-190"/>
<polygon fill="midnightblue" stroke="midnightblue" points="63.13,-186.5 53.13,-190 63.13,-193.5 63.13,-186.5"/>
</g>
</g>
</svg>
