<?xml version="1.0" encoding="UTF-8" standalone="no"?>
<!DOCTYPE svg PUBLIC "-//W3C//DTD SVG 1.1//EN"
 "http://www.w3.org/Graphics/SVG/1.1/DTD/svg11.dtd">
<!-- Generated by graphviz version 2.43.0 (0)
 -->
<!-- Title: Ogre::ResourceManager Pages: 1 -->
<svg width="693pt" height="439pt"
 viewBox="0.00 0.00 693.00 439.00" xmlns="http://www.w3.org/2000/svg" xmlns:xlink="http://www.w3.org/1999/xlink">
<g id="graph0" class="graph" transform="scale(1 1) rotate(0) translate(4 435)">
<title>Ogre::ResourceManager</title>
<!-- Node1 -->
<g id="node1" class="node">
<title>Node1</title>
<g id="a_node1"><a xlink:title="Defines a generic resource handler.">
<polygon fill="#bfbfbf" stroke="black" points="143,-269.5 143,-288.5 277,-288.5 277,-269.5 143,-269.5"/>
<text text-anchor="middle" x="210" y="-276.5" font-family="Helvetica,sans-Serif" font-size="10.00">Ogre::ResourceManager</text>
</a>
</g>
</g>
<!-- Node4 -->
<g id="node4" class="node">
<title>Node4</title>
<g id="a_node4"><a xlink:href="class_ogre_1_1_compositor_manager.html" target="_top" xlink:title="Class for managing Compositor settings for Ogre.">
<polygon fill="none" stroke="black" points="318,-411.5 318,-430.5 463,-430.5 463,-411.5 318,-411.5"/>
<text text-anchor="middle" x="390.5" y="-418.5" font-family="Helvetica,sans-Serif" font-size="10.00">Ogre::CompositorManager</text>
</a>
</g>
</g>
<!-- Node1&#45;&gt;Node4 -->
<g id="edge3" class="edge">
<title>Node1&#45;&gt;Node4</title>
<path fill="none" stroke="midnightblue" d="M221.24,-297.7C237.17,-324.97 270.53,-375.32 313,-402 319.14,-405.86 326.02,-408.93 333.06,-411.38"/>
<polygon fill="midnightblue" stroke="midnightblue" points="224.16,-295.75 216.17,-288.78 218.07,-299.2 224.16,-295.75"/>
</g>
<!-- Node5 -->
<g id="node5" class="node">
<title>Node5</title>
<g id="a_node5"><a xlink:href="class_ogre_1_1_font_manager.html" target="_top" xlink:title="Manages Font resources, parsing .fontdef files and generally organising them.">
<polygon fill="none" stroke="black" points="335.5,-373.5 335.5,-392.5 445.5,-392.5 445.5,-373.5 335.5,-373.5"/>
<text text-anchor="middle" x="390.5" y="-380.5" font-family="Helvetica,sans-Serif" font-size="10.00">Ogre::FontManager</text>
</a>
</g>
</g>
<!-- Node1&#45;&gt;Node5 -->
<g id="edge4" class="edge">
<title>Node1&#45;&gt;Node5</title>
<path fill="none" stroke="midnightblue" d="M226.63,-296.02C245.32,-315.36 278.46,-346.49 313,-364 320.57,-367.84 328.96,-370.93 337.33,-373.41"/>
<polygon fill="midnightblue" stroke="midnightblue" points="228.95,-293.39 219.54,-288.53 223.87,-298.2 228.95,-293.39"/>
</g>
<!-- Node6 -->
<g id="node6" class="node">
<title>Node6</title>
<g id="a_node6"><a xlink:href="class_ogre_1_1_gpu_program_manager.html" target="_top" xlink:title=" ">
<polygon fill="none" stroke="black" points="316,-335.5 316,-354.5 465,-354.5 465,-335.5 316,-335.5"/>
<text text-anchor="middle" x="390.5" y="-342.5" font-family="Helvetica,sans-Serif" font-size="10.00">Ogre::GpuProgramManager</text>
</a>
</g>
</g>
<!-- Node1&#45;&gt;Node6 -->
<g id="edge5" class="edge">
<title>Node1&#45;&gt;Node6</title>
<path fill="none" stroke="midnightblue" d="M239.02,-293.18C259.23,-303.02 287.34,-315.93 313,-325 324.13,-328.93 336.42,-332.48 347.83,-335.46"/>
<polygon fill="midnightblue" stroke="midnightblue" points="240.3,-289.91 229.78,-288.62 237.21,-296.18 240.3,-289.91"/>
</g>
<!-- Node9 -->
<g id="node9" class="node">
<title>Node9</title>
<g id="a_node9"><a xlink:href="class_ogre_1_1_high_level_gpu_program_manager.html" target="_top" xlink:title="This ResourceManager manages high&#45;level vertex and fragment programs.">
<polygon fill="none" stroke="black" points="313,-286 313,-316 468,-316 468,-286 313,-286"/>
<text text-anchor="start" x="321" y="-304" font-family="Helvetica,sans-Serif" font-size="10.00">Ogre::HighLevelGpuProgram</text>
<text text-anchor="middle" x="390.5" y="-293" font-family="Helvetica,sans-Serif" font-size="10.00">Manager</text>
</a>
</g>
</g>
<!-- Node1&#45;&gt;Node9 -->
<g id="edge8" class="edge">
<title>Node1&#45;&gt;Node9</title>
<path fill="none" stroke="midnightblue" d="M287.4,-288.42C295.83,-289.46 304.42,-290.51 312.85,-291.55"/>
<polygon fill="midnightblue" stroke="midnightblue" points="287.57,-284.91 277.21,-287.16 286.71,-291.86 287.57,-284.91"/>
</g>
<!-- Node10 -->
<g id="node10" class="node">
<title>Node10</title>
<g id="a_node10"><a xlink:href="class_ogre_1_1_material_manager.html" target="_top" xlink:title="Class for managing Material settings for Ogre.">
<polygon fill="none" stroke="black" points="326,-247.5 326,-266.5 455,-266.5 455,-247.5 326,-247.5"/>
<text text-anchor="middle" x="390.5" y="-254.5" font-family="Helvetica,sans-Serif" font-size="10.00">Ogre::MaterialManager</text>
</a>
</g>
</g>
<!-- Node1&#45;&gt;Node10 -->
<g id="edge9" class="edge">
<title>Node1&#45;&gt;Node10</title>
<path fill="none" stroke="midnightblue" d="M287.38,-269.59C300.17,-268.01 313.33,-266.39 325.77,-264.86"/>
<polygon fill="midnightblue" stroke="midnightblue" points="286.71,-266.14 277.21,-270.84 287.57,-273.09 286.71,-266.14"/>
</g>
<!-- Node11 -->
<g id="node11" class="node">
<title>Node11</title>
<g id="a_node11"><a xlink:href="class_ogre_1_1_mesh_manager.html" target="_top" xlink:title="Handles the management of mesh resources.">
<polygon fill="none" stroke="black" points="333,-209.5 333,-228.5 448,-228.5 448,-209.5 333,-209.5"/>
<text text-anchor="middle" x="390.5" y="-216.5" font-family="Helvetica,sans-Serif" font-size="10.00">Ogre::MeshManager</text>
</a>
</g>
</g>
<!-- Node1&#45;&gt;Node11 -->
<g id="edge10" class="edge">
<title>Node1&#45;&gt;Node11</title>
<path fill="none" stroke="midnightblue" d="M241.43,-265.48C261.49,-256.88 288.5,-245.92 313,-238 323.81,-234.5 335.65,-231.28 346.72,-228.51"/>
<polygon fill="midnightblue" stroke="midnightblue" points="239.96,-262.3 232.17,-269.48 242.74,-268.72 239.96,-262.3"/>
</g>
<!-- Node12 -->
<g id="node12" class="node">
<title>Node12</title>
<g id="a_node12"><a xlink:href="class_ogre_1_1_skeleton_manager.html" target="_top" xlink:title="Handles the management of skeleton resources.">
<polygon fill="none" stroke="black" points="325,-171.5 325,-190.5 456,-190.5 456,-171.5 325,-171.5"/>
<text text-anchor="middle" x="390.5" y="-178.5" font-family="Helvetica,sans-Serif" font-size="10.00">Ogre::SkeletonManager</text>
</a>
</g>
</g>
<!-- Node1&#45;&gt;Node12 -->
<g id="edge11" class="edge">
<title>Node1&#45;&gt;Node12</title>
<path fill="none" stroke="midnightblue" d="M227.77,-262.38C246.83,-244.4 279.67,-216.15 313,-200 320.88,-196.18 329.6,-193.08 338.25,-190.59"/>
<polygon fill="midnightblue" stroke="midnightblue" points="225.26,-259.94 220.47,-269.39 230.11,-264.98 225.26,-259.94"/>
</g>
<!-- Node13 -->
<g id="node13" class="node">
<title>Node13</title>
<g id="a_node13"><a xlink:href="class_ogre_1_1_texture_manager.html" target="_top" xlink:title="Class for loading &amp; managing textures.">
<polygon fill="none" stroke="black" points="328,-133.5 328,-152.5 453,-152.5 453,-133.5 328,-133.5"/>
<text text-anchor="middle" x="390.5" y="-140.5" font-family="Helvetica,sans-Serif" font-size="10.00">Ogre::TextureManager</text>
</a>
</g>
</g>
<!-- Node1&#45;&gt;Node13 -->
<g id="edge12" class="edge">
<title>Node1&#45;&gt;Node13</title>
<path fill="none" stroke="midnightblue" d="M221.93,-260.49C238.33,-234.4 271.82,-187.17 313,-162 319.31,-158.15 326.35,-155.07 333.55,-152.62"/>
<polygon fill="midnightblue" stroke="midnightblue" points="218.73,-259.01 216.5,-269.37 224.7,-262.66 218.73,-259.01"/>
</g>
<!-- Node2 -->
<g id="node2" class="node">
<title>Node2</title>
<g id="a_node2"><a xlink:href="class_ogre_1_1_script_loader.html" target="_top" xlink:title="Abstract class defining the interface used by classes which wish to perform script loading to define ...">
<polygon fill="none" stroke="black" points="0,-288.5 0,-307.5 107,-307.5 107,-288.5 0,-288.5"/>
<text text-anchor="middle" x="53.5" y="-295.5" font-family="Helvetica,sans-Serif" font-size="10.00">Ogre::ScriptLoader</text>
</a>
</g>
</g>
<!-- Node2&#45;&gt;Node1 -->
<g id="edge1" class="edge">
<title>Node2&#45;&gt;Node1</title>
<path fill="none" stroke="midnightblue" d="M117.34,-290.27C125.74,-289.24 134.38,-288.18 142.84,-287.14"/>
<polygon fill="midnightblue" stroke="midnightblue" points="116.74,-286.82 107.24,-291.51 117.59,-293.77 116.74,-286.82"/>
</g>
<!-- Node3 -->
<g id="node3" class="node">
<title>Node3</title>
<g id="a_node3"><a xlink:title=" ">
<polygon fill="none" stroke="#bfbfbf" points="10.5,-250.5 10.5,-269.5 96.5,-269.5 96.5,-250.5 10.5,-250.5"/>
<text text-anchor="middle" x="53.5" y="-257.5" font-family="Helvetica,sans-Serif" font-size="10.00">ResourceAlloc</text>
</a>
</g>
</g>
<!-- Node3&#45;&gt;Node1 -->
<g id="edge2" class="edge">
<title>Node3&#45;&gt;Node1</title>
<path fill="none" stroke="midnightblue" d="M106.65,-266.41C118.24,-267.84 130.67,-269.37 142.74,-270.85"/>
<polygon fill="midnightblue" stroke="midnightblue" points="107.07,-262.94 96.72,-265.19 106.22,-269.89 107.07,-262.94"/>
</g>
<!-- Node7 -->
<g id="node7" class="node">
<title>Node7</title>
<g id="a_node7"><a xlink:href="class_ogre_1_1_d3_d9_gpu_program_manager.html" target="_top" xlink:title=" ">
<polygon fill="none" stroke="black" points="506.5,-358.5 506.5,-377.5 682.5,-377.5 682.5,-358.5 506.5,-358.5"/>
<text text-anchor="middle" x="594.5" y="-365.5" font-family="Helvetica,sans-Serif" font-size="10.00">Ogre::D3D9GpuProgramManager</text>
</a>
</g>
</g>
<!-- Node6&#45;&gt;Node7 -->
<g id="edge6" class="edge">
<title>Node6&#45;&gt;Node7</title>
<path fill="none" stroke="midnightblue" d="M475.28,-354.54C486.75,-355.85 498.53,-357.19 510.01,-358.49"/>
<polygon fill="midnightblue" stroke="midnightblue" points="475.62,-351.06 465.28,-353.4 474.82,-358.01 475.62,-351.06"/>
</g>
<!-- Node8 -->
<g id="node8" class="node">
<title>Node8</title>
<g id="a_node8"><a xlink:href="class_ogre_1_1_g_l_gpu_program_manager.html" target="_top" xlink:title=" ">
<polygon fill="none" stroke="black" points="513.5,-320.5 513.5,-339.5 675.5,-339.5 675.5,-320.5 513.5,-320.5"/>
<text text-anchor="middle" x="594.5" y="-327.5" font-family="Helvetica,sans-Serif" font-size="10.00">Ogre::GLGpuProgramManager</text>
</a>
</g>
</g>
<!-- Node6&#45;&gt;Node8 -->
<g id="edge7" class="edge">
<title>Node6&#45;&gt;Node8</title>
<path fill="none" stroke="midnightblue" d="M475.31,-338.78C487.92,-337.84 500.91,-336.88 513.45,-335.94"/>
<polygon fill="midnightblue" stroke="midnightblue" points="475,-335.29 465.28,-339.52 475.52,-342.27 475,-335.29"/>
</g>
<!-- Node14 -->
<g id="node14" class="node">
<title>Node14</title>
<g id="a_node14"><a xlink:href="class_ogre_1_1_d3_d11_texture_manager.html" target="_top" xlink:title=" ">
<polygon fill="none" stroke="black" points="515.5,-266.5 515.5,-285.5 673.5,-285.5 673.5,-266.5 515.5,-266.5"/>
<text text-anchor="middle" x="594.5" y="-273.5" font-family="Helvetica,sans-Serif" font-size="10.00">Ogre::D3D11TextureManager</text>
</a>
</g>
</g>
<!-- Node13&#45;&gt;Node14 -->
<g id="edge13" class="edge">
<title>Node13&#45;&gt;Node14</title>
<path fill="none" stroke="midnightblue" d="M461.86,-157.31C464.02,-158.73 466.07,-160.29 468,-162 501.77,-191.98 469.73,-227.61 504,-257 508.46,-260.83 513.5,-263.94 518.86,-266.48"/>
<polygon fill="midnightblue" stroke="midnightblue" points="463.55,-154.24 453.11,-152.46 460.16,-160.37 463.55,-154.24"/>
</g>
<!-- Node15 -->
<g id="node15" class="node">
<title>Node15</title>
<g id="a_node15"><a xlink:href="class_ogre_1_1_d3_d9_texture_manager.html" target="_top" xlink:title=" ">
<polygon fill="none" stroke="black" points="518.5,-228.5 518.5,-247.5 670.5,-247.5 670.5,-228.5 518.5,-228.5"/>
<text text-anchor="middle" x="594.5" y="-235.5" font-family="Helvetica,sans-Serif" font-size="10.00">Ogre::D3D9TextureManager</text>
</a>
</g>
</g>
<!-- Node13&#45;&gt;Node15 -->
<g id="edge14" class="edge">
<title>Node13&#45;&gt;Node15</title>
<path fill="none" stroke="midnightblue" d="M459.55,-156.79C462.5,-158.35 465.34,-160.08 468,-162 492.29,-179.54 479.41,-201.88 504,-219 509.47,-222.81 515.56,-225.89 521.91,-228.36"/>
<polygon fill="midnightblue" stroke="midnightblue" points="460.95,-153.58 450.39,-152.63 458.05,-159.96 460.95,-153.58"/>
</g>
<!-- Node16 -->
<g id="node16" class="node">
<title>Node16</title>
<g id="a_node16"><a xlink:href="class_ogre_1_1_default_texture_manager.html" target="_top" xlink:title="Specialisation of TextureManager for offline processing. Cannot be used with an active RenderSystem.">
<polygon fill="none" stroke="black" points="514,-190.5 514,-209.5 675,-209.5 675,-190.5 514,-190.5"/>
<text text-anchor="middle" x="594.5" y="-197.5" font-family="Helvetica,sans-Serif" font-size="10.00">Ogre::DefaultTextureManager</text>
</a>
</g>
</g>
<!-- Node13&#45;&gt;Node16 -->
<g id="edge15" class="edge">
<title>Node13&#45;&gt;Node16</title>
<path fill="none" stroke="midnightblue" d="M447.81,-155.32C454.69,-157.31 461.56,-159.54 468,-162 484.9,-168.45 486.99,-174.84 504,-181 514.45,-184.79 525.88,-187.92 536.97,-190.48"/>
<polygon fill="midnightblue" stroke="midnightblue" points="448.34,-151.84 437.77,-152.58 446.49,-158.59 448.34,-151.84"/>
</g>
<!-- Node17 -->
<g id="node17" class="node">
<title>Node17</title>
<g id="a_node17"><a xlink:href="class_ogre_1_1_g_l3_plus_texture_manager.html" target="_top" xlink:title="GL3Plus&#45;specific implementation of a TextureManager.">
<polygon fill="none" stroke="black" points="512.5,-152.5 512.5,-171.5 676.5,-171.5 676.5,-152.5 512.5,-152.5"/>
<text text-anchor="middle" x="594.5" y="-159.5" font-family="Helvetica,sans-Serif" font-size="10.00">Ogre::GL3PlusTextureManager</text>
</a>
</g>
</g>
<!-- Node13&#45;&gt;Node17 -->
<g id="edge16" class="edge">
<title>Node13&#45;&gt;Node17</title>
<path fill="none" stroke="midnightblue" d="M463.46,-149.77C479.33,-151.26 496.24,-152.85 512.43,-154.38"/>
<polygon fill="midnightblue" stroke="midnightblue" points="463.49,-146.26 453.2,-148.8 462.83,-153.23 463.49,-146.26"/>
</g>
<!-- Node18 -->
<g id="node18" class="node">
<title>Node18</title>
<g id="a_node18"><a xlink:href="class_ogre_1_1_g_l_e_s2_texture_manager.html" target="_top" xlink:title="GL ES&#45;specific implementation of a TextureManager.">
<polygon fill="none" stroke="black" points="517,-114.5 517,-133.5 672,-133.5 672,-114.5 517,-114.5"/>
<text text-anchor="middle" x="594.5" y="-121.5" font-family="Helvetica,sans-Serif" font-size="10.00">Ogre::GLES2TextureManager</text>
</a>
</g>
</g>
<!-- Node13&#45;&gt;Node18 -->
<g id="edge17" class="edge">
<title>Node13&#45;&gt;Node18</title>
<path fill="none" stroke="midnightblue" d="M463.26,-136.25C480.63,-134.62 499.25,-132.86 516.83,-131.21"/>
<polygon fill="midnightblue" stroke="midnightblue" points="462.83,-132.77 453.2,-137.2 463.49,-139.74 462.83,-132.77"/>
</g>
<!-- Node19 -->
<g id="node19" class="node">
<title>Node19</title>
<g id="a_node19"><a xlink:href="class_ogre_1_1_g_l_texture_manager.html" target="_top" xlink:title="GL&#45;specific implementation of a TextureManager.">
<polygon fill="none" stroke="black" points="526,-76.5 526,-95.5 663,-95.5 663,-76.5 526,-76.5"/>
<text text-anchor="middle" x="594.5" y="-83.5" font-family="Helvetica,sans-Serif" font-size="10.00">Ogre::GLTextureManager</text>
</a>
</g>
</g>
<!-- Node13&#45;&gt;Node19 -->
<g id="edge18" class="edge">
<title>Node13&#45;&gt;Node19</title>
<path fill="none" stroke="midnightblue" d="M426.74,-129.92C448.75,-122.04 477.79,-112.18 504,-105 516.72,-101.52 530.59,-98.29 543.54,-95.53"/>
<polygon fill="midnightblue" stroke="midnightblue" points="425.37,-126.69 417.15,-133.38 427.75,-133.27 425.37,-126.69"/>
</g>
<!-- Node20 -->
<g id="node20" class="node">
<title>Node20</title>
<g id="a_node20"><a xlink:href="class_ogre_1_1_g_l_texture_manager_common.html" target="_top" xlink:title=" ">
<polygon fill="none" stroke="black" points="504,-38.5 504,-57.5 685,-57.5 685,-38.5 504,-38.5"/>
<text text-anchor="middle" x="594.5" y="-45.5" font-family="Helvetica,sans-Serif" font-size="10.00">Ogre::GLTextureManagerCommon</text>
</a>
</g>
</g>
<!-- Node13&#45;&gt;Node20 -->
<g id="edge19" class="edge">
<title>Node13&#45;&gt;Node20</title>
<path fill="none" stroke="midnightblue" d="M410.38,-126.86C431.71,-109.46 468.15,-82.23 504,-67 513.06,-63.15 522.99,-60.05 532.82,-57.56"/>
<polygon fill="midnightblue" stroke="midnightblue" points="407.92,-124.35 402.46,-133.43 412.39,-129.73 407.92,-124.35"/>
</g>
<!-- Node21 -->
<g id="node21" class="node">
<title>Node21</title>
<g id="a_node21"><a xlink:href="class_ogre_1_1_metal_texture_manager.html" target="_top" xlink:title=" ">
<polygon fill="none" stroke="black" points="518.5,-0.5 518.5,-19.5 670.5,-19.5 670.5,-0.5 518.5,-0.5"/>
<text text-anchor="middle" x="594.5" y="-7.5" font-family="Helvetica,sans-Serif" font-size="10.00">Ogre::MetalTextureManager</text>
</a>
</g>
</g>
<!-- Node13&#45;&gt;Node21 -->
<g id="edge20" class="edge">
<title>Node13&#45;&gt;Node21</title>
<path fill="none" stroke="midnightblue" d="M404.05,-124.75C422.72,-99.11 460.33,-52.89 504,-29 511.11,-25.11 518.93,-22.02 526.91,-19.56"/>
<polygon fill="midnightblue" stroke="midnightblue" points="401,-123.01 398.06,-133.19 406.7,-127.07 401,-123.01"/>
</g>
</g>
</svg>
