<?xml version="1.0" encoding="UTF-8" standalone="no"?>
<!DOCTYPE svg PUBLIC "-//W3C//DTD SVG 1.1//EN"
 "http://www.w3.org/Graphics/SVG/1.1/DTD/svg11.dtd">
<!-- Generated by graphviz version 2.43.0 (0)
 -->
<!-- Title: Ogre::HardwareIndexBuffer Pages: 1 -->
<svg width="633pt" height="313pt"
 viewBox="0.00 0.00 633.00 313.00" xmlns="http://www.w3.org/2000/svg" xmlns:xlink="http://www.w3.org/1999/xlink">
<g id="graph0" class="graph" transform="scale(1 1) rotate(0) translate(4 309)">
<title>Ogre::HardwareIndexBuffer</title>
<!-- Node1 -->
<g id="node1" class="node">
<title>Node1</title>
<g id="a_node1"><a xlink:title="Specialisation of HardwareBuffer for vertex index buffers, still abstract.">
<polygon fill="#bfbfbf" stroke="black" points="264,-143 264,-162 413,-162 413,-143 264,-143"/>
<text text-anchor="middle" x="338.5" y="-150" font-family="Helvetica,sans-Serif" font-size="10.00">Ogre::HardwareIndexBuffer</text>
</a>
</g>
</g>
<!-- Node4 -->
<g id="node4" class="node">
<title>Node4</title>
<g id="a_node4"><a xlink:href="class_ogre_1_1_d3_d11_hardware_index_buffer.html" target="_top" xlink:title=" ">
<polygon fill="none" stroke="black" points="460.5,-274.5 460.5,-304.5 613.5,-304.5 613.5,-274.5 460.5,-274.5"/>
<text text-anchor="start" x="468.5" y="-292.5" font-family="Helvetica,sans-Serif" font-size="10.00">Ogre::D3D11HardwareIndex</text>
<text text-anchor="middle" x="537" y="-281.5" font-family="Helvetica,sans-Serif" font-size="10.00">Buffer</text>
</a>
</g>
</g>
<!-- Node1&#45;&gt;Node4 -->
<g id="edge3" class="edge">
<title>Node1&#45;&gt;Node4</title>
<path fill="none" stroke="midnightblue" d="M352.19,-170.39C370.68,-195.17 407.41,-239.67 449,-264.5 455.48,-268.37 462.58,-271.66 469.86,-274.47"/>
<polygon fill="midnightblue" stroke="midnightblue" points="354.95,-168.24 346.22,-162.23 349.3,-172.37 354.95,-168.24"/>
</g>
<!-- Node5 -->
<g id="node5" class="node">
<title>Node5</title>
<g id="a_node5"><a xlink:href="class_ogre_1_1_d3_d9_hardware_index_buffer.html" target="_top" xlink:title=" ">
<polygon fill="none" stroke="black" points="449,-236 449,-255 625,-255 625,-236 449,-236"/>
<text text-anchor="middle" x="537" y="-243" font-family="Helvetica,sans-Serif" font-size="10.00">Ogre::D3D9HardwareIndexBuffer</text>
</a>
</g>
</g>
<!-- Node1&#45;&gt;Node5 -->
<g id="edge4" class="edge">
<title>Node1&#45;&gt;Node5</title>
<path fill="none" stroke="midnightblue" d="M358.22,-168.45C379.05,-185.37 414.34,-211.65 449,-226.5 457.95,-230.33 467.77,-233.43 477.48,-235.92"/>
<polygon fill="midnightblue" stroke="midnightblue" points="360.42,-165.72 350.48,-162.05 355.96,-171.12 360.42,-165.72"/>
</g>
<!-- Node6 -->
<g id="node6" class="node">
<title>Node6</title>
<g id="a_node6"><a xlink:href="class_ogre_1_1_default_hardware_index_buffer.html" target="_top" xlink:title="Specialisation of HardwareIndexBuffer for emulation.">
<polygon fill="none" stroke="black" points="459,-186.5 459,-216.5 615,-216.5 615,-186.5 459,-186.5"/>
<text text-anchor="start" x="467" y="-204.5" font-family="Helvetica,sans-Serif" font-size="10.00">Ogre::DefaultHardwareIndex</text>
<text text-anchor="middle" x="537" y="-193.5" font-family="Helvetica,sans-Serif" font-size="10.00">Buffer</text>
</a>
</g>
</g>
<!-- Node1&#45;&gt;Node6 -->
<g id="edge5" class="edge">
<title>Node1&#45;&gt;Node6</title>
<path fill="none" stroke="midnightblue" d="M387.68,-164.51C414.23,-171.14 447.44,-179.42 475.7,-186.46"/>
<polygon fill="midnightblue" stroke="midnightblue" points="388.4,-161.09 377.85,-162.06 386.71,-167.88 388.4,-161.09"/>
</g>
<!-- Node7 -->
<g id="node7" class="node">
<title>Node7</title>
<g id="a_node7"><a xlink:href="class_ogre_1_1_g_l3_plus_hardware_index_buffer.html" target="_top" xlink:title=" ">
<polygon fill="none" stroke="black" points="457.5,-137.5 457.5,-167.5 616.5,-167.5 616.5,-137.5 457.5,-137.5"/>
<text text-anchor="start" x="465.5" y="-155.5" font-family="Helvetica,sans-Serif" font-size="10.00">Ogre::GL3PlusHardwareIndex</text>
<text text-anchor="middle" x="537" y="-144.5" font-family="Helvetica,sans-Serif" font-size="10.00">Buffer</text>
</a>
</g>
</g>
<!-- Node1&#45;&gt;Node7 -->
<g id="edge6" class="edge">
<title>Node1&#45;&gt;Node7</title>
<path fill="none" stroke="midnightblue" d="M423.44,-152.5C434.66,-152.5 446.13,-152.5 457.26,-152.5"/>
<polygon fill="midnightblue" stroke="midnightblue" points="423.23,-149 413.23,-152.5 423.23,-156 423.23,-149"/>
</g>
<!-- Node8 -->
<g id="node8" class="node">
<title>Node8</title>
<g id="a_node8"><a xlink:href="class_ogre_1_1_g_l_e_s2_hardware_index_buffer.html" target="_top" xlink:title=" ">
<polygon fill="none" stroke="black" points="461.5,-88.5 461.5,-118.5 612.5,-118.5 612.5,-88.5 461.5,-88.5"/>
<text text-anchor="start" x="469.5" y="-106.5" font-family="Helvetica,sans-Serif" font-size="10.00">Ogre::GLES2HardwareIndex</text>
<text text-anchor="middle" x="537" y="-95.5" font-family="Helvetica,sans-Serif" font-size="10.00">Buffer</text>
</a>
</g>
</g>
<!-- Node1&#45;&gt;Node8 -->
<g id="edge7" class="edge">
<title>Node1&#45;&gt;Node8</title>
<path fill="none" stroke="midnightblue" d="M387.68,-140.49C414.23,-133.86 447.44,-125.58 475.7,-118.54"/>
<polygon fill="midnightblue" stroke="midnightblue" points="386.71,-137.12 377.85,-142.94 388.4,-143.91 386.71,-137.12"/>
</g>
<!-- Node9 -->
<g id="node9" class="node">
<title>Node9</title>
<g id="a_node9"><a xlink:href="class_ogre_1_1_g_l_hardware_index_buffer.html" target="_top" xlink:title=" ">
<polygon fill="none" stroke="black" points="456,-50 456,-69 618,-69 618,-50 456,-50"/>
<text text-anchor="middle" x="537" y="-57" font-family="Helvetica,sans-Serif" font-size="10.00">Ogre::GLHardwareIndexBuffer</text>
</a>
</g>
</g>
<!-- Node1&#45;&gt;Node9 -->
<g id="edge8" class="edge">
<title>Node1&#45;&gt;Node9</title>
<path fill="none" stroke="midnightblue" d="M358.22,-136.55C379.05,-119.63 414.34,-93.35 449,-78.5 457.95,-74.67 467.77,-71.57 477.48,-69.08"/>
<polygon fill="midnightblue" stroke="midnightblue" points="355.96,-133.88 350.48,-142.95 360.42,-139.28 355.96,-133.88"/>
</g>
<!-- Node10 -->
<g id="node10" class="node">
<title>Node10</title>
<g id="a_node10"><a xlink:href="class_ogre_1_1_metal_hardware_index_buffer.html" target="_top" xlink:title="Specialisation of HardwareIndexBuffer for Metal.">
<polygon fill="none" stroke="black" points="463,-0.5 463,-30.5 611,-30.5 611,-0.5 463,-0.5"/>
<text text-anchor="start" x="471" y="-18.5" font-family="Helvetica,sans-Serif" font-size="10.00">Ogre::MetalHardwareIndex</text>
<text text-anchor="middle" x="537" y="-7.5" font-family="Helvetica,sans-Serif" font-size="10.00">Buffer</text>
</a>
</g>
</g>
<!-- Node1&#45;&gt;Node10 -->
<g id="edge9" class="edge">
<title>Node1&#45;&gt;Node10</title>
<path fill="none" stroke="midnightblue" d="M352.19,-134.61C370.68,-109.83 407.41,-65.33 449,-40.5 455.48,-36.63 462.58,-33.34 469.86,-30.53"/>
<polygon fill="midnightblue" stroke="midnightblue" points="349.3,-132.63 346.22,-142.77 354.95,-136.76 349.3,-132.63"/>
</g>
<!-- Node2 -->
<g id="node2" class="node">
<title>Node2</title>
<g id="a_node2"><a xlink:href="class_ogre_1_1_hardware_buffer.html" target="_top" xlink:title="Abstract class defining common features of hardware buffers.">
<polygon fill="none" stroke="black" points="106,-143 106,-162 228,-162 228,-143 106,-143"/>
<text text-anchor="middle" x="167" y="-150" font-family="Helvetica,sans-Serif" font-size="10.00">Ogre::HardwareBuffer</text>
</a>
</g>
</g>
<!-- Node2&#45;&gt;Node1 -->
<g id="edge1" class="edge">
<title>Node2&#45;&gt;Node1</title>
<path fill="none" stroke="midnightblue" d="M238.36,-152.5C246.76,-152.5 255.36,-152.5 263.8,-152.5"/>
<polygon fill="midnightblue" stroke="midnightblue" points="238.24,-149 228.24,-152.5 238.24,-156 238.24,-149"/>
</g>
<!-- Node3 -->
<g id="node3" class="node">
<title>Node3</title>
<g id="a_node3"><a xlink:title=" ">
<polygon fill="none" stroke="#bfbfbf" points="0,-143 0,-162 70,-162 70,-143 0,-143"/>
<text text-anchor="middle" x="35" y="-150" font-family="Helvetica,sans-Serif" font-size="10.00">BufferAlloc</text>
</a>
</g>
</g>
<!-- Node3&#45;&gt;Node2 -->
<g id="edge2" class="edge">
<title>Node3&#45;&gt;Node2</title>
<path fill="none" stroke="midnightblue" d="M80.3,-152.5C88.55,-152.5 97.3,-152.5 105.93,-152.5"/>
<polygon fill="midnightblue" stroke="midnightblue" points="80.16,-149 70.16,-152.5 80.16,-156 80.16,-149"/>
</g>
</g>
</svg>
