<?xml version="1.0" encoding="UTF-8" standalone="no"?>
<!DOCTYPE svg PUBLIC "-//W3C//DTD SVG 1.1//EN"
 "http://www.w3.org/Graphics/SVG/1.1/DTD/svg11.dtd">
<!-- Generated by graphviz version 2.43.0 (0)
 -->
<!-- Title: Ogre::VectorIterator&lt; T &gt; Pages: 1 -->
<svg width="162pt" height="173pt"
 viewBox="0.00 0.00 162.00 173.00" xmlns="http://www.w3.org/2000/svg" xmlns:xlink="http://www.w3.org/1999/xlink">
<g id="graph0" class="graph" transform="scale(1 1) rotate(0) translate(4 169)">
<title>Ogre::VectorIterator&lt; T &gt;</title>
<!-- Node1 -->
<g id="node1" class="node">
<title>Node1</title>
<g id="a_node1"><a xlink:title="Concrete IteratorWrapper for nonconst access to the underlying container.">
<polygon fill="#bfbfbf" stroke="black" points="6.5,-0.5 6.5,-19.5 147.5,-19.5 147.5,-0.5 6.5,-0.5"/>
<text text-anchor="middle" x="77" y="-7.5" font-family="Helvetica,sans-Serif" font-size="10.00">Ogre::VectorIterator&lt; T &gt;</text>
</a>
</g>
</g>
<!-- Node2 -->
<g id="node2" class="node">
<title>Node2</title>
<g id="a_node2"><a xlink:href="class_ogre_1_1_vector_iterator_wrapper.html" target="_top" xlink:title=" ">
<polygon fill="none" stroke="black" points="0,-56.5 0,-86.5 154,-86.5 154,-56.5 0,-56.5"/>
<text text-anchor="start" x="8" y="-74.5" font-family="Helvetica,sans-Serif" font-size="10.00">Ogre::VectorIteratorWrapper</text>
<text text-anchor="middle" x="77" y="-63.5" font-family="Helvetica,sans-Serif" font-size="10.00">&lt; T, T::iterator &gt;</text>
</a>
</g>
</g>
<!-- Node2&#45;&gt;Node1 -->
<g id="edge1" class="edge">
<title>Node2&#45;&gt;Node1</title>
<path fill="none" stroke="midnightblue" d="M77,-46.29C77,-36.86 77,-26.65 77,-19.66"/>
<polygon fill="midnightblue" stroke="midnightblue" points="73.5,-46.4 77,-56.4 80.5,-46.4 73.5,-46.4"/>
</g>
<!-- Node3 -->
<g id="node3" class="node">
<title>Node3</title>
<g id="a_node3"><a xlink:href="class_ogre_1_1_iterator_wrapper.html" target="_top" xlink:title=" ">
<polygon fill="none" stroke="black" points="15.5,-123.5 15.5,-164.5 138.5,-164.5 138.5,-123.5 15.5,-123.5"/>
<text text-anchor="start" x="23.5" y="-152.5" font-family="Helvetica,sans-Serif" font-size="10.00">Ogre::IteratorWrapper</text>
<text text-anchor="start" x="23.5" y="-141.5" font-family="Helvetica,sans-Serif" font-size="10.00">&lt; T, T::iterator, T::</text>
<text text-anchor="middle" x="77" y="-130.5" font-family="Helvetica,sans-Serif" font-size="10.00">value_type &gt;</text>
</a>
</g>
</g>
<!-- Node3&#45;&gt;Node2 -->
<g id="edge2" class="edge">
<title>Node3&#45;&gt;Node2</title>
<path fill="none" stroke="midnightblue" d="M77,-113.08C77,-104.01 77,-94.45 77,-86.89"/>
<polygon fill="midnightblue" stroke="midnightblue" points="73.5,-113.36 77,-123.36 80.5,-113.36 73.5,-113.36"/>
</g>
</g>
</svg>
