<?xml version="1.0" encoding="UTF-8" standalone="no"?>
<!DOCTYPE svg PUBLIC "-//W3C//DTD SVG 1.1//EN"
 "http://www.w3.org/Graphics/SVG/1.1/DTD/svg11.dtd">
<!-- Generated by graphviz version 2.43.0 (0)
 -->
<!-- Title: Graphical Class Hierarchy Pages: 1 -->
<svg width="302pt" height="192pt"
 viewBox="0.00 0.00 302.00 191.50" xmlns="http://www.w3.org/2000/svg" xmlns:xlink="http://www.w3.org/1999/xlink">
<g id="graph0" class="graph" transform="scale(1 1) rotate(0) translate(4 187.5)">
<title>Graphical Class Hierarchy</title>
<!-- Node1220 -->
<g id="node1" class="node">
<title>Node1220</title>
<g id="a_node1"><a xlink:title=" ">
<polygon fill="none" stroke="#bfbfbf" points="0,-88 0,-107 96,-107 96,-88 0,-88"/>
<text text-anchor="middle" x="48" y="-95" font-family="Helvetica,sans-Serif" font-size="10.00">GpuParamsAlloc</text>
</a>
</g>
</g>
<!-- Node0 -->
<g id="node2" class="node">
<title>Node0</title>
<g id="a_node2"><a xlink:href="struct_ogre_1_1_gpu_logical_buffer_struct.html" target="_top" xlink:title="Container struct to allow params to safely &amp; update shared list of logical buffer assignments.">
<polygon fill="none" stroke="black" points="134,-164 134,-183 292,-183 292,-164 134,-164"/>
<text text-anchor="middle" x="213" y="-171" font-family="Helvetica,sans-Serif" font-size="10.00">Ogre::GpuLogicalBufferStruct</text>
</a>
</g>
</g>
<!-- Node1220&#45;&gt;Node0 -->
<g id="edge1" class="edge">
<title>Node1220&#45;&gt;Node0</title>
<path fill="none" stroke="midnightblue" d="M68.06,-113.64C84.14,-126.48 108.27,-143.97 132,-154.5 140.61,-158.32 150.1,-161.43 159.44,-163.95"/>
<polygon fill="midnightblue" stroke="midnightblue" points="69.97,-110.68 60.01,-107.07 65.54,-116.1 69.97,-110.68"/>
</g>
<!-- Node1222 -->
<g id="node3" class="node">
<title>Node1222</title>
<g id="a_node3"><a xlink:href="struct_ogre_1_1_gpu_named_constants.html" target="_top" xlink:title="Struct collecting together the information for named constants.">
<polygon fill="none" stroke="black" points="138.5,-126 138.5,-145 287.5,-145 287.5,-126 138.5,-126"/>
<text text-anchor="middle" x="213" y="-133" font-family="Helvetica,sans-Serif" font-size="10.00">Ogre::GpuNamedConstants</text>
</a>
</g>
</g>
<!-- Node1220&#45;&gt;Node1222 -->
<g id="edge2" class="edge">
<title>Node1220&#45;&gt;Node1222</title>
<path fill="none" stroke="midnightblue" d="M100.03,-109.4C122.94,-114.74 149.6,-120.95 171.16,-125.98"/>
<polygon fill="midnightblue" stroke="midnightblue" points="100.67,-105.95 90.13,-107.09 99.08,-112.77 100.67,-105.95"/>
</g>
<!-- Node1223 -->
<g id="node4" class="node">
<title>Node1223</title>
<g id="a_node4"><a xlink:href="class_ogre_1_1_gpu_program_parameters.html" target="_top" xlink:title="Collects together the program parameters used for a GpuProgram.">
<polygon fill="none" stroke="black" points="132,-88 132,-107 294,-107 294,-88 132,-88"/>
<text text-anchor="middle" x="213" y="-95" font-family="Helvetica,sans-Serif" font-size="10.00">Ogre::GpuProgramParameters</text>
</a>
</g>
</g>
<!-- Node1220&#45;&gt;Node1223 -->
<g id="edge3" class="edge">
<title>Node1220&#45;&gt;Node1223</title>
<path fill="none" stroke="midnightblue" d="M106.36,-97.5C114.6,-97.5 123.21,-97.5 131.79,-97.5"/>
<polygon fill="midnightblue" stroke="midnightblue" points="106.15,-94 96.15,-97.5 106.15,-101 106.15,-94"/>
</g>
<!-- Node1224 -->
<g id="node5" class="node">
<title>Node1224</title>
<g id="a_node5"><a xlink:href="class_ogre_1_1_gpu_shared_parameters.html" target="_top" xlink:title="A group of manually updated parameters that are shared between many parameter sets.">
<polygon fill="none" stroke="black" points="135.5,-50 135.5,-69 290.5,-69 290.5,-50 135.5,-50"/>
<text text-anchor="middle" x="213" y="-57" font-family="Helvetica,sans-Serif" font-size="10.00">Ogre::GpuSharedParameters</text>
</a>
</g>
</g>
<!-- Node1220&#45;&gt;Node1224 -->
<g id="edge4" class="edge">
<title>Node1220&#45;&gt;Node1224</title>
<path fill="none" stroke="midnightblue" d="M100.03,-85.6C122.94,-80.26 149.6,-74.05 171.16,-69.02"/>
<polygon fill="midnightblue" stroke="midnightblue" points="99.08,-82.23 90.13,-87.91 100.67,-89.05 99.08,-82.23"/>
</g>
<!-- Node1225 -->
<g id="node6" class="node">
<title>Node1225</title>
<g id="a_node6"><a xlink:href="class_ogre_1_1_gpu_shared_parameters_usage.html" target="_top" xlink:title="This class records the usage of a set of shared parameters in a concrete set of GpuProgramParameters.">
<polygon fill="none" stroke="black" points="135.5,-0.5 135.5,-30.5 290.5,-30.5 290.5,-0.5 135.5,-0.5"/>
<text text-anchor="start" x="143.5" y="-18.5" font-family="Helvetica,sans-Serif" font-size="10.00">Ogre::GpuSharedParameters</text>
<text text-anchor="middle" x="213" y="-7.5" font-family="Helvetica,sans-Serif" font-size="10.00">Usage</text>
</a>
</g>
</g>
<!-- Node1220&#45;&gt;Node1225 -->
<g id="edge5" class="edge">
<title>Node1220&#45;&gt;Node1225</title>
<path fill="none" stroke="midnightblue" d="M68.82,-81.36C85.01,-68.81 108.92,-51.72 132,-40.5 139.59,-36.81 147.85,-33.51 156.08,-30.61"/>
<polygon fill="midnightblue" stroke="midnightblue" points="66.35,-78.85 60.67,-87.79 70.69,-84.34 66.35,-78.85"/>
</g>
</g>
</svg>
