<?xml version="1.0" encoding="UTF-8" standalone="no"?>
<!DOCTYPE svg PUBLIC "-//W3C//DTD SVG 1.1//EN"
 "http://www.w3.org/Graphics/SVG/1.1/DTD/svg11.dtd">
<!-- Generated by graphviz version 2.43.0 (0)
 -->
<!-- Title: Graphical Class Hierarchy Pages: 1 -->
<svg width="785pt" height="264pt"
 viewBox="0.00 0.00 785.00 264.00" xmlns="http://www.w3.org/2000/svg" xmlns:xlink="http://www.w3.org/1999/xlink">
<g id="graph0" class="graph" transform="scale(1 1) rotate(0) translate(4 260)">
<title>Graphical Class Hierarchy</title>
<!-- Node1195 -->
<g id="node1" class="node">
<title>Node1195</title>
<g id="a_node1"><a xlink:title=" ">
<polygon fill="none" stroke="#bfbfbf" points="51.5,-118 51.5,-137 109.5,-137 109.5,-118 51.5,-118"/>
<text text-anchor="middle" x="80.5" y="-125" font-family="Helvetica,sans-Serif" font-size="10.00">LodAlloc</text>
</a>
</g>
</g>
<!-- Node1196 -->
<g id="node2" class="node">
<title>Node1196</title>
<g id="a_node2"><a xlink:href="class_ogre_1_1_lod_strategy.html" target="_top" xlink:title="Strategy for determining level of detail.">
<polygon fill="none" stroke="black" points="218.5,-118 218.5,-137 322.5,-137 322.5,-118 218.5,-118"/>
<text text-anchor="middle" x="270.5" y="-125" font-family="Helvetica,sans-Serif" font-size="10.00">Ogre::LodStrategy</text>
</a>
</g>
</g>
<!-- Node1195&#45;&gt;Node1196 -->
<g id="edge1" class="edge">
<title>Node1195&#45;&gt;Node1196</title>
<path fill="none" stroke="midnightblue" d="M119.99,-127.5C148.42,-127.5 187.41,-127.5 218.45,-127.5"/>
<polygon fill="midnightblue" stroke="midnightblue" points="119.65,-124 109.65,-127.5 119.65,-131 119.65,-124"/>
</g>
<!-- Node167 -->
<g id="node9" class="node">
<title>Node167</title>
<g id="a_node9"><a xlink:href="class_ogre_1_1_lod_strategy_manager.html" target="_top" xlink:title="Manager for LOD strategies.">
<polygon fill="none" stroke="black" points="197,-77 197,-96 344,-96 344,-77 197,-77"/>
<text text-anchor="middle" x="270.5" y="-84" font-family="Helvetica,sans-Serif" font-size="10.00">Ogre::LodStrategyManager</text>
</a>
</g>
</g>
<!-- Node1195&#45;&gt;Node167 -->
<g id="edge8" class="edge">
<title>Node1195&#45;&gt;Node167</title>
<path fill="none" stroke="midnightblue" d="M119.56,-119.2C150.31,-112.49 193.61,-103.05 225.78,-96.03"/>
<polygon fill="midnightblue" stroke="midnightblue" points="118.67,-115.81 109.65,-121.36 120.16,-122.65 118.67,-115.81"/>
</g>
<!-- Node1197 -->
<g id="node3" class="node">
<title>Node1197</title>
<g id="a_node3"><a xlink:href="class_ogre_1_1_distance_lod_strategy_base.html" target="_top" xlink:title="Level of detail strategy based on distance from camera.">
<polygon fill="none" stroke="black" points="384.5,-187 384.5,-206 555.5,-206 555.5,-187 384.5,-187"/>
<text text-anchor="middle" x="470" y="-194" font-family="Helvetica,sans-Serif" font-size="10.00">Ogre::DistanceLodStrategyBase</text>
</a>
</g>
</g>
<!-- Node1196&#45;&gt;Node1197 -->
<g id="edge2" class="edge">
<title>Node1196&#45;&gt;Node1197</title>
<path fill="none" stroke="midnightblue" d="M297.93,-141.69C319.5,-152.78 351.03,-167.86 380,-177.5 391.09,-181.19 403.21,-184.33 414.83,-186.94"/>
<polygon fill="midnightblue" stroke="midnightblue" points="299.54,-138.58 289.05,-137.07 296.3,-144.79 299.54,-138.58"/>
</g>
<!-- Node1198 -->
<g id="node6" class="node">
<title>Node1198</title>
<g id="a_node6"><a xlink:href="class_ogre_1_1_pixel_count_lod_strategy_base.html" target="_top" xlink:title="Abstract base class for level of detail strategy based on pixel count approximations from bounding sp...">
<polygon fill="none" stroke="black" points="380,-50 380,-69 560,-69 560,-50 380,-50"/>
<text text-anchor="middle" x="470" y="-57" font-family="Helvetica,sans-Serif" font-size="10.00">Ogre::PixelCountLodStrategyBase</text>
</a>
</g>
</g>
<!-- Node1196&#45;&gt;Node1198 -->
<g id="edge5" class="edge">
<title>Node1196&#45;&gt;Node1198</title>
<path fill="none" stroke="midnightblue" d="M321.3,-114.78C329.07,-112.12 336.87,-109.03 344,-105.5 361.68,-96.74 362.01,-87.61 380,-79.5 389.53,-75.21 400.06,-71.8 410.44,-69.1"/>
<polygon fill="midnightblue" stroke="midnightblue" points="319.99,-111.53 311.54,-117.92 322.13,-118.19 319.99,-111.53"/>
</g>
<!-- Node207 -->
<g id="node4" class="node">
<title>Node207</title>
<g id="a_node4"><a xlink:href="class_ogre_1_1_distance_lod_box_strategy.html" target="_top" xlink:title="Level of detail strategy based on distance from camera to an object&#39;s bounding box.">
<polygon fill="none" stroke="black" points="603.5,-209 603.5,-228 769.5,-228 769.5,-209 603.5,-209"/>
<text text-anchor="middle" x="686.5" y="-216" font-family="Helvetica,sans-Serif" font-size="10.00">Ogre::DistanceLodBoxStrategy</text>
</a>
</g>
</g>
<!-- Node1197&#45;&gt;Node207 -->
<g id="edge3" class="edge">
<title>Node1197&#45;&gt;Node207</title>
<path fill="none" stroke="midnightblue" d="M565.78,-206.22C578.34,-207.51 591.12,-208.82 603.44,-210.08"/>
<polygon fill="midnightblue" stroke="midnightblue" points="566.08,-202.73 555.78,-205.19 565.37,-209.7 566.08,-202.73"/>
</g>
<!-- Node205 -->
<g id="node5" class="node">
<title>Node205</title>
<g id="a_node5"><a xlink:href="class_ogre_1_1_distance_lod_sphere_strategy.html" target="_top" xlink:title="Level of detail strategy based on distance from camera to an object&#39;s bounding sphere.">
<polygon fill="none" stroke="black" points="596,-157 596,-176 777,-176 777,-157 596,-157"/>
<text text-anchor="middle" x="686.5" y="-164" font-family="Helvetica,sans-Serif" font-size="10.00">Ogre::DistanceLodSphereStrategy</text>
</a>
</g>
</g>
<!-- Node1197&#45;&gt;Node205 -->
<g id="edge4" class="edge">
<title>Node1197&#45;&gt;Node205</title>
<path fill="none" stroke="midnightblue" d="M549.29,-185.55C571.65,-182.42 595.83,-179.04 617.51,-176.01"/>
<polygon fill="midnightblue" stroke="midnightblue" points="548.58,-182.12 539.16,-186.97 549.55,-189.05 548.58,-182.12"/>
</g>
<!-- Node219 -->
<g id="node7" class="node">
<title>Node219</title>
<g id="a_node7"><a xlink:href="class_ogre_1_1_absolute_pixel_count_lod_strategy.html" target="_top" xlink:title=" ">
<polygon fill="none" stroke="black" points="616.5,-69.5 616.5,-99.5 756.5,-99.5 756.5,-69.5 616.5,-69.5"/>
<text text-anchor="start" x="624.5" y="-87.5" font-family="Helvetica,sans-Serif" font-size="10.00">Ogre::AbsolutePixelCount</text>
<text text-anchor="middle" x="686.5" y="-76.5" font-family="Helvetica,sans-Serif" font-size="10.00">LodStrategy</text>
</a>
</g>
</g>
<!-- Node1198&#45;&gt;Node219 -->
<g id="edge6" class="edge">
<title>Node1198&#45;&gt;Node219</title>
<path fill="none" stroke="midnightblue" d="M563.12,-70.24C580.93,-72.31 599.32,-74.46 616.26,-76.43"/>
<polygon fill="midnightblue" stroke="midnightblue" points="563.04,-66.7 552.71,-69.02 562.23,-73.66 563.04,-66.7"/>
</g>
<!-- Node1 -->
<g id="node8" class="node">
<title>Node1</title>
<g id="a_node8"><a xlink:href="class_ogre_1_1_screen_ratio_pixel_count_lod_strategy.html" target="_top" xlink:title=" ">
<polygon fill="none" stroke="black" points="608.5,-10.5 608.5,-40.5 764.5,-40.5 764.5,-10.5 608.5,-10.5"/>
<text text-anchor="start" x="616.5" y="-28.5" font-family="Helvetica,sans-Serif" font-size="10.00">Ogre::ScreenRatioPixelCount</text>
<text text-anchor="middle" x="686.5" y="-17.5" font-family="Helvetica,sans-Serif" font-size="10.00">LodStrategy</text>
</a>
</g>
</g>
<!-- Node1198&#45;&gt;Node1 -->
<g id="edge7" class="edge">
<title>Node1198&#45;&gt;Node1</title>
<path fill="none" stroke="midnightblue" d="M541.05,-48.4C562.52,-44.99 586.26,-41.23 608.19,-37.75"/>
<polygon fill="midnightblue" stroke="midnightblue" points="540.36,-44.96 531.04,-49.98 541.46,-51.88 540.36,-44.96"/>
</g>
<!-- Node218 -->
<g id="node10" class="node">
<title>Node218</title>
<g id="a_node10"><a xlink:href="class_ogre_1_1_singleton.html" target="_top" xlink:title=" ">
<polygon fill="none" stroke="black" points="397,-88.5 397,-118.5 543,-118.5 543,-88.5 397,-88.5"/>
<text text-anchor="start" x="405" y="-106.5" font-family="Helvetica,sans-Serif" font-size="10.00">Ogre::Singleton&lt; Absolute</text>
<text text-anchor="middle" x="470" y="-95.5" font-family="Helvetica,sans-Serif" font-size="10.00">PixelCountLodStrategy &gt;</text>
</a>
</g>
</g>
<!-- Node218&#45;&gt;Node219 -->
<g id="edge9" class="edge">
<title>Node218&#45;&gt;Node219</title>
<path fill="none" stroke="midnightblue" d="M553.12,-96.23C573.94,-94.38 596.1,-92.42 616.21,-90.64"/>
<polygon fill="midnightblue" stroke="midnightblue" points="552.67,-92.75 543.02,-97.12 553.29,-99.72 552.67,-92.75"/>
</g>
<!-- Node206 -->
<g id="node11" class="node">
<title>Node206</title>
<g id="a_node11"><a xlink:href="class_ogre_1_1_singleton.html" target="_top" xlink:title=" ">
<polygon fill="none" stroke="black" points="397,-225.5 397,-255.5 543,-255.5 543,-225.5 397,-225.5"/>
<text text-anchor="start" x="405" y="-243.5" font-family="Helvetica,sans-Serif" font-size="10.00">Ogre::Singleton&lt; Distance</text>
<text text-anchor="middle" x="470" y="-232.5" font-family="Helvetica,sans-Serif" font-size="10.00">LodBoxStrategy &gt;</text>
</a>
</g>
</g>
<!-- Node206&#45;&gt;Node207 -->
<g id="edge10" class="edge">
<title>Node206&#45;&gt;Node207</title>
<path fill="none" stroke="midnightblue" d="M553.14,-232.08C569.58,-230.39 586.86,-228.62 603.31,-226.93"/>
<polygon fill="midnightblue" stroke="midnightblue" points="552.61,-228.61 543.02,-233.11 553.33,-235.57 552.61,-228.61"/>
</g>
<!-- Node204 -->
<g id="node12" class="node">
<title>Node204</title>
<g id="a_node12"><a xlink:href="class_ogre_1_1_singleton.html" target="_top" xlink:title=" ">
<polygon fill="none" stroke="black" points="397,-137.5 397,-167.5 543,-167.5 543,-137.5 397,-137.5"/>
<text text-anchor="start" x="405" y="-155.5" font-family="Helvetica,sans-Serif" font-size="10.00">Ogre::Singleton&lt; Distance</text>
<text text-anchor="middle" x="470" y="-144.5" font-family="Helvetica,sans-Serif" font-size="10.00">LodSphereStrategy &gt;</text>
</a>
</g>
</g>
<!-- Node204&#45;&gt;Node205 -->
<g id="edge11" class="edge">
<title>Node204&#45;&gt;Node205</title>
<path fill="none" stroke="midnightblue" d="M553.07,-157.86C567.04,-158.77 581.61,-159.72 595.76,-160.64"/>
<polygon fill="midnightblue" stroke="midnightblue" points="553.23,-154.36 543.02,-157.2 552.77,-161.34 553.23,-154.36"/>
</g>
<!-- Node166 -->
<g id="node13" class="node">
<title>Node166</title>
<g id="a_node13"><a xlink:href="class_ogre_1_1_singleton.html" target="_top" xlink:title=" ">
<polygon fill="none" stroke="black" points="0,-68.5 0,-98.5 161,-98.5 161,-68.5 0,-68.5"/>
<text text-anchor="start" x="8" y="-86.5" font-family="Helvetica,sans-Serif" font-size="10.00">Ogre::Singleton&lt; LodStrategy</text>
<text text-anchor="middle" x="80.5" y="-75.5" font-family="Helvetica,sans-Serif" font-size="10.00">Manager &gt;</text>
</a>
</g>
</g>
<!-- Node166&#45;&gt;Node167 -->
<g id="edge12" class="edge">
<title>Node166&#45;&gt;Node167</title>
<path fill="none" stroke="midnightblue" d="M171.25,-84.93C179.82,-85.07 188.43,-85.21 196.81,-85.34"/>
<polygon fill="midnightblue" stroke="midnightblue" points="171.28,-81.43 161.23,-84.77 171.17,-88.43 171.28,-81.43"/>
</g>
<!-- Node0 -->
<g id="node14" class="node">
<title>Node0</title>
<g id="a_node14"><a xlink:href="class_ogre_1_1_singleton.html" target="_top" xlink:title=" ">
<polygon fill="none" stroke="black" points="389.5,-0.5 389.5,-30.5 550.5,-30.5 550.5,-0.5 389.5,-0.5"/>
<text text-anchor="start" x="397.5" y="-18.5" font-family="Helvetica,sans-Serif" font-size="10.00">Ogre::Singleton&lt; ScreenRatio</text>
<text text-anchor="middle" x="470" y="-7.5" font-family="Helvetica,sans-Serif" font-size="10.00">PixelCountLodStrategy &gt;</text>
</a>
</g>
</g>
<!-- Node0&#45;&gt;Node1 -->
<g id="edge13" class="edge">
<title>Node0&#45;&gt;Node1</title>
<path fill="none" stroke="midnightblue" d="M560.83,-19.69C576.57,-20.42 592.83,-21.18 608.2,-21.9"/>
<polygon fill="midnightblue" stroke="midnightblue" points="560.72,-16.18 550.57,-19.21 560.39,-23.17 560.72,-16.18"/>
</g>
</g>
</svg>
