<?xml version="1.0" encoding="UTF-8" standalone="no"?>
<!DOCTYPE svg PUBLIC "-//W3C//DTD SVG 1.1//EN"
 "http://www.w3.org/Graphics/SVG/1.1/DTD/svg11.dtd">
<!-- Generated by graphviz version 2.43.0 (0)
 -->
<!-- Title: Graphical Class Hierarchy Pages: 1 -->
<svg width="311pt" height="104pt"
 viewBox="0.00 0.00 311.00 104.00" xmlns="http://www.w3.org/2000/svg" xmlns:xlink="http://www.w3.org/1999/xlink">
<g id="graph0" class="graph" transform="scale(1 1) rotate(0) translate(4 100)">
<title>Graphical Class Hierarchy</title>
<!-- Node524 -->
<g id="node1" class="node">
<title>Node524</title>
<g id="a_node1"><a xlink:title=" ">
<polygon fill="none" stroke="#bfbfbf" points="37,-38.5 37,-57.5 112,-57.5 112,-38.5 37,-38.5"/>
<text text-anchor="middle" x="74.5" y="-45.5" font-family="Helvetica,sans-Serif" font-size="10.00">ProfilerAlloc</text>
</a>
</g>
</g>
<!-- Node525 -->
<g id="node2" class="node">
<title>Node525</title>
<g id="a_node2"><a xlink:href="class_ogre_1_1_profile.html" target="_top" xlink:title="An individual profile that will be processed by the Profiler.">
<polygon fill="none" stroke="black" points="205.5,-76.5 205.5,-95.5 282.5,-95.5 282.5,-76.5 205.5,-76.5"/>
<text text-anchor="middle" x="244" y="-83.5" font-family="Helvetica,sans-Serif" font-size="10.00">Ogre::Profile</text>
</a>
</g>
</g>
<!-- Node524&#45;&gt;Node525 -->
<g id="edge1" class="edge">
<title>Node524&#45;&gt;Node525</title>
<path fill="none" stroke="midnightblue" d="M122.01,-58.55C148.32,-64.52 180.78,-71.89 205.46,-77.48"/>
<polygon fill="midnightblue" stroke="midnightblue" points="122.79,-55.14 112.26,-56.34 121.24,-61.97 122.79,-55.14"/>
</g>
<!-- Node526 -->
<g id="node3" class="node">
<title>Node526</title>
<g id="a_node3"><a xlink:href="class_ogre_1_1_profile_instance.html" target="_top" xlink:title="Represents an individual profile call.">
<polygon fill="none" stroke="black" points="185,-38.5 185,-57.5 303,-57.5 303,-38.5 185,-38.5"/>
<text text-anchor="middle" x="244" y="-45.5" font-family="Helvetica,sans-Serif" font-size="10.00">Ogre::ProfileInstance</text>
</a>
</g>
</g>
<!-- Node524&#45;&gt;Node526 -->
<g id="edge2" class="edge">
<title>Node524&#45;&gt;Node526</title>
<path fill="none" stroke="midnightblue" d="M122.37,-48C141.78,-48 164.48,-48 184.93,-48"/>
<polygon fill="midnightblue" stroke="midnightblue" points="122.26,-44.5 112.26,-48 122.26,-51.5 122.26,-44.5"/>
</g>
<!-- Node1 -->
<g id="node4" class="node">
<title>Node1</title>
<g id="a_node4"><a xlink:href="class_ogre_1_1_profiler.html" target="_top" xlink:title="The profiler allows you to measure the performance of your code.">
<polygon fill="none" stroke="black" points="204,-0.5 204,-19.5 284,-19.5 284,-0.5 204,-0.5"/>
<text text-anchor="middle" x="244" y="-7.5" font-family="Helvetica,sans-Serif" font-size="10.00">Ogre::Profiler</text>
</a>
</g>
</g>
<!-- Node524&#45;&gt;Node1 -->
<g id="edge3" class="edge">
<title>Node524&#45;&gt;Node1</title>
<path fill="none" stroke="midnightblue" d="M122.18,-37.41C147.94,-31.57 179.56,-24.39 203.99,-18.85"/>
<polygon fill="midnightblue" stroke="midnightblue" points="121.24,-34.03 112.26,-39.66 122.79,-40.86 121.24,-34.03"/>
</g>
<!-- Node0 -->
<g id="node5" class="node">
<title>Node0</title>
<g id="a_node5"><a xlink:href="class_ogre_1_1_singleton.html" target="_top" xlink:title=" ">
<polygon fill="none" stroke="black" points="0,-0.5 0,-19.5 149,-19.5 149,-0.5 0,-0.5"/>
<text text-anchor="middle" x="74.5" y="-7.5" font-family="Helvetica,sans-Serif" font-size="10.00">Ogre::Singleton&lt; Profiler &gt;</text>
</a>
</g>
</g>
<!-- Node0&#45;&gt;Node1 -->
<g id="edge4" class="edge">
<title>Node0&#45;&gt;Node1</title>
<path fill="none" stroke="midnightblue" d="M159.61,-10C175.09,-10 190.55,-10 203.88,-10"/>
<polygon fill="midnightblue" stroke="midnightblue" points="159.46,-6.5 149.46,-10 159.46,-13.5 159.46,-6.5"/>
</g>
</g>
</svg>
