<?xml version="1.0" encoding="UTF-8" standalone="no"?>
<!DOCTYPE svg PUBLIC "-//W3C//DTD SVG 1.1//EN"
 "http://www.w3.org/Graphics/SVG/1.1/DTD/svg11.dtd">
<!-- Generated by graphviz version 2.43.0 (0)
 -->
<!-- Title: Graphical Class Hierarchy Pages: 1 -->
<svg width="535pt" height="192pt"
 viewBox="0.00 0.00 535.00 192.00" xmlns="http://www.w3.org/2000/svg" xmlns:xlink="http://www.w3.org/1999/xlink">
<g id="graph0" class="graph" transform="scale(1 1) rotate(0) translate(4 188)">
<title>Graphical Class Hierarchy</title>
<!-- Node275 -->
<g id="node1" class="node">
<title>Node275</title>
<g id="a_node1"><a xlink:title=" ">
<polygon fill="none" stroke="#bfbfbf" points="0,-44.5 0,-63.5 116,-63.5 116,-44.5 0,-44.5"/>
<text text-anchor="middle" x="58" y="-51.5" font-family="Helvetica,sans-Serif" font-size="10.00">ScriptTranslatorAlloc</text>
</a>
</g>
</g>
<!-- Node0 -->
<g id="node2" class="node">
<title>Node0</title>
<g id="a_node2"><a xlink:href="class_ogre_1_1_script_translator.html" target="_top" xlink:title="This class translates script AST (abstract syntax tree) into Ogre resources.">
<polygon fill="none" stroke="black" points="173,-88.5 173,-107.5 295,-107.5 295,-88.5 173,-88.5"/>
<text text-anchor="middle" x="234" y="-95.5" font-family="Helvetica,sans-Serif" font-size="10.00">Ogre::ScriptTranslator</text>
</a>
</g>
</g>
<!-- Node275&#45;&gt;Node0 -->
<g id="edge1" class="edge">
<title>Node275&#45;&gt;Node0</title>
<path fill="none" stroke="midnightblue" d="M106.7,-66.06C134.6,-73.12 169.34,-81.9 195.32,-88.47"/>
<polygon fill="midnightblue" stroke="midnightblue" points="107.31,-62.61 96.76,-63.55 105.59,-69.39 107.31,-62.61"/>
</g>
<!-- Node281 -->
<g id="node7" class="node">
<title>Node281</title>
<g id="a_node7"><a xlink:href="class_ogre_1_1_script_translator_manager.html" target="_top" xlink:title="The ScriptTranslatorManager manages the lifetime and access to script translators.">
<polygon fill="none" stroke="black" points="152,-25.5 152,-44.5 316,-44.5 316,-25.5 152,-25.5"/>
<text text-anchor="middle" x="234" y="-32.5" font-family="Helvetica,sans-Serif" font-size="10.00">Ogre::ScriptTranslatorManager</text>
</a>
</g>
</g>
<!-- Node275&#45;&gt;Node281 -->
<g id="edge6" class="edge">
<title>Node275&#45;&gt;Node281</title>
<path fill="none" stroke="midnightblue" d="M126.5,-46.63C134.85,-45.72 143.46,-44.78 151.99,-43.85"/>
<polygon fill="midnightblue" stroke="midnightblue" points="126.02,-43.16 116.46,-47.73 126.78,-50.12 126.02,-43.16"/>
</g>
<!-- Node1 -->
<g id="node3" class="node">
<title>Node1</title>
<g id="a_node3"><a xlink:href="struct_ogre_1_1_element_translator.html" target="_top" xlink:title="[font_translator]">
<polygon fill="none" stroke="black" points="372.5,-164.5 372.5,-183.5 506.5,-183.5 506.5,-164.5 372.5,-164.5"/>
<text text-anchor="middle" x="439.5" y="-171.5" font-family="Helvetica,sans-Serif" font-size="10.00">Ogre::ElementTranslator</text>
</a>
</g>
</g>
<!-- Node0&#45;&gt;Node1 -->
<g id="edge2" class="edge">
<title>Node0&#45;&gt;Node1</title>
<path fill="none" stroke="midnightblue" d="M260.36,-112.54C283.56,-125.31 319.18,-143.58 352,-155 362.6,-158.69 374.19,-161.82 385.34,-164.41"/>
<polygon fill="midnightblue" stroke="midnightblue" points="261.95,-109.42 251.51,-107.61 258.54,-115.53 261.95,-109.42"/>
</g>
<!-- Node2 -->
<g id="node4" class="node">
<title>Node2</title>
<g id="a_node4"><a xlink:href="struct_ogre_1_1_font_translator.html" target="_top" xlink:title="[font_translator]">
<polygon fill="none" stroke="black" points="382,-126.5 382,-145.5 497,-145.5 497,-126.5 382,-126.5"/>
<text text-anchor="middle" x="439.5" y="-133.5" font-family="Helvetica,sans-Serif" font-size="10.00">Ogre::FontTranslator</text>
</a>
</g>
</g>
<!-- Node0&#45;&gt;Node2 -->
<g id="edge3" class="edge">
<title>Node0&#45;&gt;Node2</title>
<path fill="none" stroke="midnightblue" d="M296.15,-109.42C325.26,-114.86 359.69,-121.28 387.39,-126.46"/>
<polygon fill="midnightblue" stroke="midnightblue" points="296.56,-105.94 286.09,-107.54 295.28,-112.82 296.56,-105.94"/>
</g>
<!-- Node3 -->
<g id="node5" class="node">
<title>Node3</title>
<g id="a_node5"><a xlink:href="struct_ogre_1_1_overlay_translator.html" target="_top" xlink:title=" ">
<polygon fill="none" stroke="black" points="373.5,-88.5 373.5,-107.5 505.5,-107.5 505.5,-88.5 373.5,-88.5"/>
<text text-anchor="middle" x="439.5" y="-95.5" font-family="Helvetica,sans-Serif" font-size="10.00">Ogre::OverlayTranslator</text>
</a>
</g>
</g>
<!-- Node0&#45;&gt;Node3 -->
<g id="edge4" class="edge">
<title>Node0&#45;&gt;Node3</title>
<path fill="none" stroke="midnightblue" d="M305.53,-98C327.58,-98 351.8,-98 373.45,-98"/>
<polygon fill="midnightblue" stroke="midnightblue" points="305.23,-94.5 295.23,-98 305.23,-101.5 305.23,-94.5"/>
</g>
<!-- Node4 -->
<g id="node6" class="node">
<title>Node4</title>
<g id="a_node6"><a xlink:href="class_ogre_1_1_r_t_shader_1_1_s_g_script_translator.html" target="_top" xlink:title="This class responsible for translating core features of the RT Shader System for Ogre material script...">
<polygon fill="none" stroke="black" points="370,-39 370,-69 509,-69 509,-39 370,-39"/>
<text text-anchor="start" x="378" y="-57" font-family="Helvetica,sans-Serif" font-size="10.00">Ogre::RTShader::SGScript</text>
<text text-anchor="middle" x="439.5" y="-46" font-family="Helvetica,sans-Serif" font-size="10.00">Translator</text>
</a>
</g>
</g>
<!-- Node0&#45;&gt;Node4 -->
<g id="edge5" class="edge">
<title>Node0&#45;&gt;Node4</title>
<path fill="none" stroke="midnightblue" d="M289.07,-86.31C313.78,-80.97 343.34,-74.58 369.62,-68.89"/>
<polygon fill="midnightblue" stroke="midnightblue" points="288.19,-82.92 279.16,-88.45 289.67,-89.76 288.19,-82.92"/>
</g>
<!-- Node282 -->
<g id="node8" class="node">
<title>Node282</title>
<g id="a_node8"><a xlink:href="class_ogre_1_1_overlay_translator_manager.html" target="_top" xlink:title=" ">
<polygon fill="none" stroke="black" points="352,-0.5 352,-19.5 527,-19.5 527,-0.5 352,-0.5"/>
<text text-anchor="middle" x="439.5" y="-7.5" font-family="Helvetica,sans-Serif" font-size="10.00">Ogre::OverlayTranslatorManager</text>
</a>
</g>
</g>
<!-- Node281&#45;&gt;Node282 -->
<g id="edge7" class="edge">
<title>Node281&#45;&gt;Node282</title>
<path fill="none" stroke="midnightblue" d="M322.63,-24.23C335.35,-22.67 348.36,-21.07 360.86,-19.54"/>
<polygon fill="midnightblue" stroke="midnightblue" points="322.01,-20.78 312.52,-25.48 322.87,-27.73 322.01,-20.78"/>
</g>
</g>
</svg>
