<?xml version="1.0" encoding="UTF-8" standalone="no"?>
<!DOCTYPE svg PUBLIC "-//W3C//DTD SVG 1.1//EN"
 "http://www.w3.org/Graphics/SVG/1.1/DTD/svg11.dtd">
<!-- Generated by graphviz version 2.43.0 (0)
 -->
<!-- Title: Graphical Class Hierarchy Pages: 1 -->
<svg width="571pt" height="382pt"
 viewBox="0.00 0.00 571.00 382.00" xmlns="http://www.w3.org/2000/svg" xmlns:xlink="http://www.w3.org/1999/xlink">
<g id="graph0" class="graph" transform="scale(1 1) rotate(0) translate(4 378)">
<title>Graphical Class Hierarchy</title>
<!-- Node0 -->
<g id="node1" class="node">
<title>Node0</title>
<g id="a_node1"><a xlink:href="class_ogre_1_1_script_compiler_event.html" target="_top" xlink:title="This struct is a base class for events which can be thrown by the compilers and caught by subscribers...">
<polygon fill="none" stroke="black" points="0,-177 0,-196 146,-196 146,-177 0,-177"/>
<text text-anchor="middle" x="73" y="-184" font-family="Helvetica,sans-Serif" font-size="10.00">Ogre::ScriptCompilerEvent</text>
</a>
</g>
</g>
<!-- Node1 -->
<g id="node2" class="node">
<title>Node1</title>
<g id="a_node2"><a xlink:href="class_ogre_1_1_create_compositor_script_compiler_event.html" target="_top" xlink:title=" ">
<polygon fill="none" stroke="black" points="194.5,-343.5 194.5,-373.5 356.5,-373.5 356.5,-343.5 194.5,-343.5"/>
<text text-anchor="start" x="202.5" y="-361.5" font-family="Helvetica,sans-Serif" font-size="10.00">Ogre::CreateCompositorScript</text>
<text text-anchor="middle" x="275.5" y="-350.5" font-family="Helvetica,sans-Serif" font-size="10.00">CompilerEvent</text>
</a>
</g>
</g>
<!-- Node0&#45;&gt;Node1 -->
<g id="edge1" class="edge">
<title>Node0&#45;&gt;Node1</title>
<path fill="none" stroke="midnightblue" d="M82.42,-205.32C97.6,-237.03 132.63,-300.93 182,-334.5 187.08,-337.95 192.62,-340.91 198.38,-343.44"/>
<polygon fill="midnightblue" stroke="midnightblue" points="85.59,-203.83 78.2,-196.23 79.24,-206.78 85.59,-203.83"/>
</g>
<!-- Node2 -->
<g id="node3" class="node">
<title>Node2</title>
<g id="a_node3"><a xlink:href="class_ogre_1_1_create_gpu_program_script_compiler_event.html" target="_top" xlink:title=" ">
<polygon fill="none" stroke="black" points="192,-294.5 192,-324.5 359,-324.5 359,-294.5 192,-294.5"/>
<text text-anchor="start" x="200" y="-312.5" font-family="Helvetica,sans-Serif" font-size="10.00">Ogre::CreateGpuProgramScript</text>
<text text-anchor="middle" x="275.5" y="-301.5" font-family="Helvetica,sans-Serif" font-size="10.00">CompilerEvent</text>
</a>
</g>
</g>
<!-- Node0&#45;&gt;Node2 -->
<g id="edge2" class="edge">
<title>Node0&#45;&gt;Node2</title>
<path fill="none" stroke="midnightblue" d="M88.2,-203.99C107.23,-226.26 143.13,-264.37 182,-285.5 188.27,-288.91 195.04,-291.85 201.97,-294.38"/>
<polygon fill="midnightblue" stroke="midnightblue" points="90.65,-201.46 81.55,-196.04 85.28,-205.95 90.65,-201.46"/>
</g>
<!-- Node4 -->
<g id="node5" class="node">
<title>Node4</title>
<g id="a_node5"><a xlink:href="class_ogre_1_1_create_gpu_shared_parameters_script_compiler_event.html" target="_top" xlink:title=" ">
<polygon fill="none" stroke="black" points="182,-245.5 182,-275.5 369,-275.5 369,-245.5 182,-245.5"/>
<text text-anchor="start" x="190" y="-263.5" font-family="Helvetica,sans-Serif" font-size="10.00">Ogre::CreateGpuSharedParameters</text>
<text text-anchor="middle" x="275.5" y="-252.5" font-family="Helvetica,sans-Serif" font-size="10.00">ScriptCompilerEvent</text>
</a>
</g>
</g>
<!-- Node0&#45;&gt;Node4 -->
<g id="edge4" class="edge">
<title>Node0&#45;&gt;Node4</title>
<path fill="none" stroke="midnightblue" d="M101.09,-200.7C122.6,-211.56 153.66,-226.36 182,-236.5 191.06,-239.74 200.76,-242.75 210.35,-245.46"/>
<polygon fill="midnightblue" stroke="midnightblue" points="102.42,-197.45 91.93,-196.02 99.24,-203.68 102.42,-197.45"/>
</g>
<!-- Node5 -->
<g id="node6" class="node">
<title>Node5</title>
<g id="a_node6"><a xlink:href="class_ogre_1_1_create_material_script_compiler_event.html" target="_top" xlink:title=" ">
<polygon fill="none" stroke="black" points="202.5,-196.5 202.5,-226.5 348.5,-226.5 348.5,-196.5 202.5,-196.5"/>
<text text-anchor="start" x="210.5" y="-214.5" font-family="Helvetica,sans-Serif" font-size="10.00">Ogre::CreateMaterialScript</text>
<text text-anchor="middle" x="275.5" y="-203.5" font-family="Helvetica,sans-Serif" font-size="10.00">CompilerEvent</text>
</a>
</g>
</g>
<!-- Node0&#45;&gt;Node5 -->
<g id="edge5" class="edge">
<title>Node0&#45;&gt;Node5</title>
<path fill="none" stroke="midnightblue" d="M156.08,-196.73C171.42,-198.65 187.35,-200.63 202.36,-202.51"/>
<polygon fill="midnightblue" stroke="midnightblue" points="156.46,-193.25 146.1,-195.49 155.59,-200.2 156.46,-193.25"/>
</g>
<!-- Node6 -->
<g id="node7" class="node">
<title>Node6</title>
<g id="a_node7"><a xlink:href="class_ogre_1_1_create_particle_system_script_compiler_event.html" target="_top" xlink:title=" ">
<polygon fill="none" stroke="black" points="200,-147.5 200,-177.5 351,-177.5 351,-147.5 200,-147.5"/>
<text text-anchor="start" x="208" y="-165.5" font-family="Helvetica,sans-Serif" font-size="10.00">Ogre::CreateParticleSystem</text>
<text text-anchor="middle" x="275.5" y="-154.5" font-family="Helvetica,sans-Serif" font-size="10.00">ScriptCompilerEvent</text>
</a>
</g>
</g>
<!-- Node0&#45;&gt;Node6 -->
<g id="edge6" class="edge">
<title>Node0&#45;&gt;Node6</title>
<path fill="none" stroke="midnightblue" d="M156.07,-176.68C170.61,-174.94 185.68,-173.13 200,-171.42"/>
<polygon fill="midnightblue" stroke="midnightblue" points="155.61,-173.21 146.1,-177.87 156.45,-180.16 155.61,-173.21"/>
</g>
<!-- Node7 -->
<g id="node8" class="node">
<title>Node7</title>
<g id="a_node8"><a xlink:href="class_ogre_1_1_pre_apply_texture_aliases_script_compiler_event.html" target="_top" xlink:title=" ">
<polygon fill="none" stroke="black" points="195,-98.5 195,-128.5 356,-128.5 356,-98.5 195,-98.5"/>
<text text-anchor="start" x="203" y="-116.5" font-family="Helvetica,sans-Serif" font-size="10.00">Ogre::PreApplyTextureAliases</text>
<text text-anchor="middle" x="275.5" y="-105.5" font-family="Helvetica,sans-Serif" font-size="10.00">ScriptCompilerEvent</text>
</a>
</g>
</g>
<!-- Node0&#45;&gt;Node7 -->
<g id="edge7" class="edge">
<title>Node0&#45;&gt;Node7</title>
<path fill="none" stroke="midnightblue" d="M102.35,-172.46C123.85,-162.16 154.33,-148.32 182,-138.5 192.03,-134.94 202.83,-131.6 213.38,-128.58"/>
<polygon fill="midnightblue" stroke="midnightblue" points="100.62,-169.4 93.14,-176.91 103.67,-175.7 100.62,-169.4"/>
</g>
<!-- Node8 -->
<g id="node9" class="node">
<title>Node8</title>
<g id="a_node9"><a xlink:href="class_ogre_1_1_process_name_exclusion_script_compiler_event.html" target="_top" xlink:title=" ">
<polygon fill="none" stroke="black" points="196,-49.5 196,-79.5 355,-79.5 355,-49.5 196,-49.5"/>
<text text-anchor="start" x="204" y="-67.5" font-family="Helvetica,sans-Serif" font-size="10.00">Ogre::ProcessNameExclusion</text>
<text text-anchor="middle" x="275.5" y="-56.5" font-family="Helvetica,sans-Serif" font-size="10.00">ScriptCompilerEvent</text>
</a>
</g>
</g>
<!-- Node0&#45;&gt;Node8 -->
<g id="edge8" class="edge">
<title>Node0&#45;&gt;Node8</title>
<path fill="none" stroke="midnightblue" d="M88.61,-169.1C107.83,-147.31 143.69,-110.33 182,-89.5 189.02,-85.69 196.65,-82.42 204.43,-79.64"/>
<polygon fill="midnightblue" stroke="midnightblue" points="85.76,-167.05 81.86,-176.9 91.05,-171.62 85.76,-167.05"/>
</g>
<!-- Node9 -->
<g id="node10" class="node">
<title>Node9</title>
<g id="a_node10"><a xlink:href="class_ogre_1_1_process_resource_name_script_compiler_event.html" target="_top" xlink:title=" ">
<polygon fill="none" stroke="black" points="196.5,-0.5 196.5,-30.5 354.5,-30.5 354.5,-0.5 196.5,-0.5"/>
<text text-anchor="start" x="204.5" y="-18.5" font-family="Helvetica,sans-Serif" font-size="10.00">Ogre::ProcessResourceName</text>
<text text-anchor="middle" x="275.5" y="-7.5" font-family="Helvetica,sans-Serif" font-size="10.00">ScriptCompilerEvent</text>
</a>
</g>
</g>
<!-- Node0&#45;&gt;Node9 -->
<g id="edge9" class="edge">
<title>Node0&#45;&gt;Node9</title>
<path fill="none" stroke="midnightblue" d="M82.73,-167.58C98.17,-136.24 133.34,-73.72 182,-40.5 187.63,-36.65 193.83,-33.4 200.28,-30.65"/>
<polygon fill="midnightblue" stroke="midnightblue" points="79.41,-166.39 78.25,-176.93 85.73,-169.42 79.41,-166.39"/>
</g>
<!-- Node3 -->
<g id="node4" class="node">
<title>Node3</title>
<g id="a_node4"><a xlink:href="class_ogre_1_1_create_high_level_gpu_program_script_compiler_event.html" target="_top" xlink:title=" ">
<polygon fill="none" stroke="black" points="405,-294.5 405,-324.5 563,-324.5 563,-294.5 405,-294.5"/>
<text text-anchor="start" x="413" y="-312.5" font-family="Helvetica,sans-Serif" font-size="10.00">Ogre::CreateHighLevelGpu</text>
<text text-anchor="middle" x="484" y="-301.5" font-family="Helvetica,sans-Serif" font-size="10.00">ProgramScriptCompilerEvent</text>
</a>
</g>
</g>
<!-- Node2&#45;&gt;Node3 -->
<g id="edge3" class="edge">
<title>Node2&#45;&gt;Node3</title>
<path fill="none" stroke="midnightblue" d="M369.03,-309.5C381.04,-309.5 393.25,-309.5 404.99,-309.5"/>
<polygon fill="midnightblue" stroke="midnightblue" points="369,-306 359,-309.5 369,-313 369,-306"/>
</g>
</g>
</svg>
