<?xml version="1.0" encoding="UTF-8" standalone="no"?>
<!DOCTYPE svg PUBLIC "-//W3C//DTD SVG 1.1//EN"
 "http://www.w3.org/Graphics/SVG/1.1/DTD/svg11.dtd">
<!-- Generated by graphviz version 2.43.0 (0)
 -->
<!-- Title: Graphical Class Hierarchy Pages: 1 -->
<svg width="493pt" height="294pt"
 viewBox="0.00 0.00 493.00 294.00" xmlns="http://www.w3.org/2000/svg" xmlns:xlink="http://www.w3.org/1999/xlink">
<g id="graph0" class="graph" transform="scale(1 1) rotate(0) translate(4 290)">
<title>Graphical Class Hierarchy</title>
<!-- Node16 -->
<g id="node1" class="node">
<title>Node16</title>
<g id="a_node1"><a xlink:title=" ">
<polygon fill="none" stroke="#bfbfbf" points="0,-133.5 0,-152.5 71,-152.5 71,-133.5 0,-133.5"/>
<text text-anchor="middle" x="35.5" y="-140.5" font-family="Helvetica,sans-Serif" font-size="10.00">UtilityAlloc</text>
</a>
</g>
</g>
<!-- Node0 -->
<g id="node2" class="node">
<title>Node0</title>
<g id="a_node2"><a xlink:href="class_ogre_1_1_config_dialog.html" target="_top" xlink:title="Defines the behaviour of an automatic renderer configuration dialog.">
<polygon fill="none" stroke="black" points="143,-266.5 143,-285.5 251,-285.5 251,-266.5 143,-266.5"/>
<text text-anchor="middle" x="197" y="-273.5" font-family="Helvetica,sans-Serif" font-size="10.00">Ogre::ConfigDialog</text>
</a>
</g>
</g>
<!-- Node16&#45;&gt;Node0 -->
<g id="edge1" class="edge">
<title>Node16&#45;&gt;Node0</title>
<path fill="none" stroke="midnightblue" d="M42.93,-162.24C52.59,-188.04 73.39,-233.33 107,-257 117.46,-264.37 130.21,-268.98 142.76,-271.83"/>
<polygon fill="midnightblue" stroke="midnightblue" points="46.22,-161.04 39.57,-152.8 39.63,-163.39 46.22,-161.04"/>
</g>
<!-- Node19 -->
<g id="node4" class="node">
<title>Node19</title>
<g id="a_node4"><a xlink:href="class_ogre_1_1_volume_1_1_dual_grid_generator.html" target="_top" xlink:title="Class for the generation of the DualGrid.">
<polygon fill="none" stroke="black" points="107,-228.5 107,-247.5 287,-247.5 287,-228.5 107,-228.5"/>
<text text-anchor="middle" x="197" y="-235.5" font-family="Helvetica,sans-Serif" font-size="10.00">Ogre::Volume::DualGridGenerator</text>
</a>
</g>
</g>
<!-- Node16&#45;&gt;Node19 -->
<g id="edge3" class="edge">
<title>Node16&#45;&gt;Node19</title>
<path fill="none" stroke="midnightblue" d="M48.22,-161.02C60.66,-178.61 81.95,-204.77 107,-219 113.87,-222.9 121.45,-226 129.2,-228.47"/>
<polygon fill="midnightblue" stroke="midnightblue" points="51.08,-158.99 42.55,-152.7 45.29,-162.93 51.08,-158.99"/>
</g>
<!-- Node20 -->
<g id="node5" class="node">
<title>Node20</title>
<g id="a_node5"><a xlink:href="class_ogre_1_1_volume_1_1_iso_surface.html" target="_top" xlink:title="Abstract IsoSurface.">
<polygon fill="none" stroke="black" points="127,-190.5 127,-209.5 267,-209.5 267,-190.5 127,-190.5"/>
<text text-anchor="middle" x="197" y="-197.5" font-family="Helvetica,sans-Serif" font-size="10.00">Ogre::Volume::IsoSurface</text>
</a>
</g>
</g>
<!-- Node16&#45;&gt;Node20 -->
<g id="edge4" class="edge">
<title>Node16&#45;&gt;Node20</title>
<path fill="none" stroke="midnightblue" d="M59.88,-157.78C73.24,-165.66 90.56,-174.96 107,-181 117.23,-184.76 128.41,-187.88 139.29,-190.42"/>
<polygon fill="midnightblue" stroke="midnightblue" points="61.68,-154.78 51.32,-152.6 58.06,-160.77 61.68,-154.78"/>
</g>
<!-- Node22 -->
<g id="node7" class="node">
<title>Node22</title>
<g id="a_node7"><a xlink:href="class_ogre_1_1_volume_1_1_mesh_builder.html" target="_top" xlink:title="Class to build up a mesh with vertices and indices.">
<polygon fill="none" stroke="black" points="122.5,-152.5 122.5,-171.5 271.5,-171.5 271.5,-152.5 122.5,-152.5"/>
<text text-anchor="middle" x="197" y="-159.5" font-family="Helvetica,sans-Serif" font-size="10.00">Ogre::Volume::MeshBuilder</text>
</a>
</g>
</g>
<!-- Node16&#45;&gt;Node22 -->
<g id="edge6" class="edge">
<title>Node16&#45;&gt;Node22</title>
<path fill="none" stroke="midnightblue" d="M81.07,-148.31C93.95,-149.84 108.35,-151.56 122.49,-153.24"/>
<polygon fill="midnightblue" stroke="midnightblue" points="81.45,-144.83 71.11,-147.12 80.62,-151.78 81.45,-144.83"/>
</g>
<!-- Node23 -->
<g id="node8" class="node">
<title>Node23</title>
<g id="a_node8"><a xlink:href="class_ogre_1_1_volume_1_1_octree_node.html" target="_top" xlink:title="A node in the volume octree.">
<polygon fill="none" stroke="black" points="124,-114.5 124,-133.5 270,-133.5 270,-114.5 124,-114.5"/>
<text text-anchor="middle" x="197" y="-121.5" font-family="Helvetica,sans-Serif" font-size="10.00">Ogre::Volume::OctreeNode</text>
</a>
</g>
</g>
<!-- Node16&#45;&gt;Node23 -->
<g id="edge7" class="edge">
<title>Node16&#45;&gt;Node23</title>
<path fill="none" stroke="midnightblue" d="M81.32,-137.66C94.53,-136.09 109.33,-134.32 123.8,-132.6"/>
<polygon fill="midnightblue" stroke="midnightblue" points="80.62,-134.22 71.11,-138.88 81.45,-141.17 80.62,-134.22"/>
</g>
<!-- Node24 -->
<g id="node9" class="node">
<title>Node24</title>
<g id="a_node9"><a xlink:href="class_ogre_1_1_work_queue.html" target="_top" xlink:title="Interface to a general purpose request / response style background work queue.">
<polygon fill="none" stroke="black" points="146,-76.5 146,-95.5 248,-95.5 248,-76.5 146,-76.5"/>
<text text-anchor="middle" x="197" y="-83.5" font-family="Helvetica,sans-Serif" font-size="10.00">Ogre::WorkQueue</text>
</a>
</g>
</g>
<!-- Node16&#45;&gt;Node24 -->
<g id="edge8" class="edge">
<title>Node16&#45;&gt;Node24</title>
<path fill="none" stroke="midnightblue" d="M59.88,-128.22C73.24,-120.34 90.56,-111.04 107,-105 119.31,-100.47 132.99,-96.89 145.86,-94.1"/>
<polygon fill="midnightblue" stroke="midnightblue" points="58.06,-125.23 51.32,-133.4 61.68,-131.22 58.06,-125.23"/>
</g>
<!-- Node26 -->
<g id="node11" class="node">
<title>Node26</title>
<g id="a_node11"><a xlink:href="class_ogre_1_1_work_queue_1_1_request.html" target="_top" xlink:title="General purpose request structure.">
<polygon fill="none" stroke="black" points="123,-38.5 123,-57.5 271,-57.5 271,-38.5 123,-38.5"/>
<text text-anchor="middle" x="197" y="-45.5" font-family="Helvetica,sans-Serif" font-size="10.00">Ogre::WorkQueue::Request</text>
</a>
</g>
</g>
<!-- Node16&#45;&gt;Node26 -->
<g id="edge10" class="edge">
<title>Node16&#45;&gt;Node26</title>
<path fill="none" stroke="midnightblue" d="M48.22,-124.98C60.66,-107.39 81.95,-81.23 107,-67 113.87,-63.1 121.45,-60 129.2,-57.53"/>
<polygon fill="midnightblue" stroke="midnightblue" points="45.29,-123.07 42.55,-133.3 51.08,-127.01 45.29,-123.07"/>
</g>
<!-- Node27 -->
<g id="node12" class="node">
<title>Node27</title>
<g id="a_node12"><a xlink:href="struct_ogre_1_1_work_queue_1_1_response.html" target="_top" xlink:title="General purpose response structure.">
<polygon fill="none" stroke="black" points="119.5,-0.5 119.5,-19.5 274.5,-19.5 274.5,-0.5 119.5,-0.5"/>
<text text-anchor="middle" x="197" y="-7.5" font-family="Helvetica,sans-Serif" font-size="10.00">Ogre::WorkQueue::Response</text>
</a>
</g>
</g>
<!-- Node16&#45;&gt;Node27 -->
<g id="edge11" class="edge">
<title>Node16&#45;&gt;Node27</title>
<path fill="none" stroke="midnightblue" d="M42.93,-123.76C52.59,-97.96 73.39,-52.67 107,-29 112.43,-25.18 118.47,-22.1 124.77,-19.62"/>
<polygon fill="midnightblue" stroke="midnightblue" points="39.63,-122.61 39.57,-133.2 46.22,-124.96 39.63,-122.61"/>
</g>
<!-- Node1 -->
<g id="node3" class="node">
<title>Node1</title>
<g id="a_node3"><a xlink:href="class_ogre_bites_1_1_config_dialog.html" target="_top" xlink:title=" ">
<polygon fill="none" stroke="black" points="337.5,-266.5 337.5,-285.5 470.5,-285.5 470.5,-266.5 337.5,-266.5"/>
<text text-anchor="middle" x="404" y="-273.5" font-family="Helvetica,sans-Serif" font-size="10.00">OgreBites::ConfigDialog</text>
</a>
</g>
</g>
<!-- Node0&#45;&gt;Node1 -->
<g id="edge2" class="edge">
<title>Node0&#45;&gt;Node1</title>
<path fill="none" stroke="midnightblue" d="M261.18,-276C285.35,-276 312.94,-276 337.33,-276"/>
<polygon fill="midnightblue" stroke="midnightblue" points="261.06,-272.5 251.06,-276 261.06,-279.5 261.06,-272.5"/>
</g>
<!-- Node21 -->
<g id="node6" class="node">
<title>Node21</title>
<g id="a_node6"><a xlink:href="class_ogre_1_1_volume_1_1_iso_surface_m_c.html" target="_top" xlink:title="Marching Cubes implementation like at http://local.wasp.uwa.edu.au/~pbourke/geometry/polygonise/.">
<polygon fill="none" stroke="black" points="326.5,-190.5 326.5,-209.5 481.5,-209.5 481.5,-190.5 326.5,-190.5"/>
<text text-anchor="middle" x="404" y="-197.5" font-family="Helvetica,sans-Serif" font-size="10.00">Ogre::Volume::IsoSurfaceMC</text>
</a>
</g>
</g>
<!-- Node20&#45;&gt;Node21 -->
<g id="edge5" class="edge">
<title>Node20&#45;&gt;Node21</title>
<path fill="none" stroke="midnightblue" d="M277.54,-200C293.61,-200 310.47,-200 326.43,-200"/>
<polygon fill="midnightblue" stroke="midnightblue" points="277.12,-196.5 267.12,-200 277.12,-203.5 277.12,-196.5"/>
</g>
<!-- Node25 -->
<g id="node10" class="node">
<title>Node25</title>
<g id="a_node10"><a xlink:href="class_ogre_1_1_default_work_queue_base.html" target="_top" xlink:title="Base for a general purpose request / response style background work queue.">
<polygon fill="none" stroke="black" points="323,-76.5 323,-95.5 485,-95.5 485,-76.5 323,-76.5"/>
<text text-anchor="middle" x="404" y="-83.5" font-family="Helvetica,sans-Serif" font-size="10.00">Ogre::DefaultWorkQueueBase</text>
</a>
</g>
</g>
<!-- Node24&#45;&gt;Node25 -->
<g id="edge9" class="edge">
<title>Node24&#45;&gt;Node25</title>
<path fill="none" stroke="midnightblue" d="M258.41,-86C278.52,-86 301.24,-86 322.62,-86"/>
<polygon fill="midnightblue" stroke="midnightblue" points="258.15,-82.5 248.15,-86 258.15,-89.5 258.15,-82.5"/>
</g>
</g>
</svg>
