<?xml version="1.0" encoding="UTF-8" standalone="no"?>
<!DOCTYPE svg PUBLIC "-//W3C//DTD SVG 1.1//EN"
 "http://www.w3.org/Graphics/SVG/1.1/DTD/svg11.dtd">
<!-- Generated by graphviz version 2.43.0 (0)
 -->
<!-- Title: Graphical Class Hierarchy Pages: 1 -->
<svg width="649pt" height="370pt"
 viewBox="0.00 0.00 649.00 370.00" xmlns="http://www.w3.org/2000/svg" xmlns:xlink="http://www.w3.org/1999/xlink">
<g id="graph0" class="graph" transform="scale(1 1) rotate(0) translate(4 366)">
<title>Graphical Class Hierarchy</title>
<!-- Node84 -->
<g id="node1" class="node">
<title>Node84</title>
<g id="a_node1"><a xlink:title=" ">
<polygon fill="none" stroke="#bfbfbf" points="0,-171.5 0,-190.5 65,-190.5 65,-171.5 0,-171.5"/>
<text text-anchor="middle" x="32.5" y="-178.5" font-family="Helvetica,sans-Serif" font-size="10.00">exception</text>
</a>
</g>
</g>
<!-- Node0 -->
<g id="node2" class="node">
<title>Node0</title>
<g id="a_node2"><a xlink:href="class_ogre_1_1_exception.html" target="_top" xlink:title="When thrown, provides information about an error that has occurred inside the engine.">
<polygon fill="none" stroke="black" points="101,-171.5 101,-190.5 195,-190.5 195,-171.5 101,-171.5"/>
<text text-anchor="middle" x="148" y="-178.5" font-family="Helvetica,sans-Serif" font-size="10.00">Ogre::Exception</text>
</a>
</g>
</g>
<!-- Node84&#45;&gt;Node0 -->
<g id="edge1" class="edge">
<title>Node84&#45;&gt;Node0</title>
<path fill="none" stroke="midnightblue" d="M75.29,-181C83.56,-181 92.29,-181 100.7,-181"/>
<polygon fill="midnightblue" stroke="midnightblue" points="75.12,-177.5 65.12,-181 75.12,-184.5 75.12,-177.5"/>
</g>
<!-- Node1 -->
<g id="node3" class="node">
<title>Node1</title>
<g id="a_node3"><a xlink:href="class_ogre_1_1_file_not_found_exception.html" target="_top" xlink:title=" ">
<polygon fill="none" stroke="black" points="243,-342.5 243,-361.5 401,-361.5 401,-342.5 243,-342.5"/>
<text text-anchor="middle" x="322" y="-349.5" font-family="Helvetica,sans-Serif" font-size="10.00">Ogre::FileNotFoundException</text>
</a>
</g>
</g>
<!-- Node0&#45;&gt;Node1 -->
<g id="edge2" class="edge">
<title>Node0&#45;&gt;Node1</title>
<path fill="none" stroke="midnightblue" d="M153.76,-200.45C162.85,-233.25 185.91,-299.28 231,-333 236.12,-336.83 241.83,-339.92 247.83,-342.42"/>
<polygon fill="midnightblue" stroke="midnightblue" points="157.12,-199.48 151.2,-190.69 150.35,-201.25 157.12,-199.48"/>
</g>
<!-- Node2 -->
<g id="node4" class="node">
<title>Node2</title>
<g id="a_node4"><a xlink:href="class_ogre_1_1_internal_error_exception.html" target="_top" xlink:title=" ">
<polygon fill="none" stroke="black" points="244.5,-304.5 244.5,-323.5 399.5,-323.5 399.5,-304.5 244.5,-304.5"/>
<text text-anchor="middle" x="322" y="-311.5" font-family="Helvetica,sans-Serif" font-size="10.00">Ogre::InternalErrorException</text>
</a>
</g>
</g>
<!-- Node0&#45;&gt;Node2 -->
<g id="edge3" class="edge">
<title>Node0&#45;&gt;Node2</title>
<path fill="none" stroke="midnightblue" d="M157.19,-199.94C169.36,-225.73 194.76,-271.38 231,-295 236.89,-298.84 243.41,-301.92 250.17,-304.38"/>
<polygon fill="midnightblue" stroke="midnightblue" points="160.37,-198.48 153.04,-190.82 153.99,-201.37 160.37,-198.48"/>
</g>
<!-- Node3 -->
<g id="node5" class="node">
<title>Node3</title>
<g id="a_node5"><a xlink:href="class_ogre_1_1_invalid_call_exception.html" target="_top" xlink:title=" ">
<polygon fill="none" stroke="black" points="249,-266.5 249,-285.5 395,-285.5 395,-266.5 249,-266.5"/>
<text text-anchor="middle" x="322" y="-273.5" font-family="Helvetica,sans-Serif" font-size="10.00">Ogre::InvalidCallException</text>
</a>
</g>
</g>
<!-- Node0&#45;&gt;Node3 -->
<g id="edge4" class="edge">
<title>Node0&#45;&gt;Node3</title>
<path fill="none" stroke="midnightblue" d="M162.87,-198.51C177.79,-216.09 203.15,-242.58 231,-257 238.52,-260.89 246.78,-263.99 255.15,-266.45"/>
<polygon fill="midnightblue" stroke="midnightblue" points="165.49,-196.18 156.42,-190.69 160.09,-200.63 165.49,-196.18"/>
</g>
<!-- Node4 -->
<g id="node6" class="node">
<title>Node4</title>
<g id="a_node6"><a xlink:href="class_ogre_1_1_invalid_parameters_exception.html" target="_top" xlink:title=" ">
<polygon fill="none" stroke="black" points="231,-228.5 231,-247.5 413,-247.5 413,-228.5 231,-228.5"/>
<text text-anchor="middle" x="322" y="-235.5" font-family="Helvetica,sans-Serif" font-size="10.00">Ogre::InvalidParametersException</text>
</a>
</g>
</g>
<!-- Node0&#45;&gt;Node4 -->
<g id="edge5" class="edge">
<title>Node0&#45;&gt;Node4</title>
<path fill="none" stroke="midnightblue" d="M175.88,-195.33C191.59,-203.23 212.01,-212.69 231,-219 242.21,-222.73 254.46,-225.89 266.22,-228.5"/>
<polygon fill="midnightblue" stroke="midnightblue" points="177.26,-192.11 166.76,-190.66 174.06,-198.34 177.26,-192.11"/>
</g>
<!-- Node5 -->
<g id="node7" class="node">
<title>Node5</title>
<g id="a_node7"><a xlink:href="class_ogre_1_1_invalid_state_exception.html" target="_top" xlink:title=" ">
<polygon fill="none" stroke="black" points="246,-190.5 246,-209.5 398,-209.5 398,-190.5 246,-190.5"/>
<text text-anchor="middle" x="322" y="-197.5" font-family="Helvetica,sans-Serif" font-size="10.00">Ogre::InvalidStateException</text>
</a>
</g>
</g>
<!-- Node0&#45;&gt;Node5 -->
<g id="edge6" class="edge">
<title>Node0&#45;&gt;Node5</title>
<path fill="none" stroke="midnightblue" d="M205.25,-187.21C218.23,-188.65 232.24,-190.2 245.88,-191.7"/>
<polygon fill="midnightblue" stroke="midnightblue" points="205.42,-183.71 195.09,-186.09 204.65,-190.67 205.42,-183.71"/>
</g>
<!-- Node6 -->
<g id="node8" class="node">
<title>Node6</title>
<g id="a_node8"><a xlink:href="class_ogre_1_1_i_o_exception.html" target="_top" xlink:title=" ">
<polygon fill="none" stroke="black" points="270,-152.5 270,-171.5 374,-171.5 374,-152.5 270,-152.5"/>
<text text-anchor="middle" x="322" y="-159.5" font-family="Helvetica,sans-Serif" font-size="10.00">Ogre::IOException</text>
</a>
</g>
</g>
<!-- Node0&#45;&gt;Node6 -->
<g id="edge7" class="edge">
<title>Node0&#45;&gt;Node6</title>
<path fill="none" stroke="midnightblue" d="M205.1,-174.8C225.97,-172.5 249.53,-169.89 269.93,-167.64"/>
<polygon fill="midnightblue" stroke="midnightblue" points="204.65,-171.33 195.09,-175.91 205.42,-178.29 204.65,-171.33"/>
</g>
<!-- Node7 -->
<g id="node9" class="node">
<title>Node7</title>
<g id="a_node9"><a xlink:href="class_ogre_1_1_item_identity_exception.html" target="_top" xlink:title=" ">
<polygon fill="none" stroke="black" points="245,-114.5 245,-133.5 399,-133.5 399,-114.5 245,-114.5"/>
<text text-anchor="middle" x="322" y="-121.5" font-family="Helvetica,sans-Serif" font-size="10.00">Ogre::ItemIdentityException</text>
</a>
</g>
</g>
<!-- Node0&#45;&gt;Node7 -->
<g id="edge8" class="edge">
<title>Node0&#45;&gt;Node7</title>
<path fill="none" stroke="midnightblue" d="M175.88,-166.67C191.59,-158.77 212.01,-149.31 231,-143 242.21,-139.27 254.46,-136.11 266.22,-133.5"/>
<polygon fill="midnightblue" stroke="midnightblue" points="174.06,-163.66 166.76,-171.34 177.26,-169.89 174.06,-163.66"/>
</g>
<!-- Node8 -->
<g id="node10" class="node">
<title>Node8</title>
<g id="a_node10"><a xlink:href="class_ogre_1_1_rendering_a_p_i_exception.html" target="_top" xlink:title=" ">
<polygon fill="none" stroke="black" points="242.5,-76.5 242.5,-95.5 401.5,-95.5 401.5,-76.5 242.5,-76.5"/>
<text text-anchor="middle" x="322" y="-83.5" font-family="Helvetica,sans-Serif" font-size="10.00">Ogre::RenderingAPIException</text>
</a>
</g>
</g>
<!-- Node0&#45;&gt;Node8 -->
<g id="edge9" class="edge">
<title>Node0&#45;&gt;Node8</title>
<path fill="none" stroke="midnightblue" d="M162.87,-163.49C177.79,-145.91 203.15,-119.42 231,-105 238.52,-101.11 246.78,-98.01 255.15,-95.55"/>
<polygon fill="midnightblue" stroke="midnightblue" points="160.09,-161.37 156.42,-171.31 165.49,-165.82 160.09,-161.37"/>
</g>
<!-- Node10 -->
<g id="node12" class="node">
<title>Node10</title>
<g id="a_node12"><a xlink:href="class_ogre_1_1_runtime_assertion_exception.html" target="_top" xlink:title=" ">
<polygon fill="none" stroke="black" points="231.5,-38.5 231.5,-57.5 412.5,-57.5 412.5,-38.5 231.5,-38.5"/>
<text text-anchor="middle" x="322" y="-45.5" font-family="Helvetica,sans-Serif" font-size="10.00">Ogre::RuntimeAssertionException</text>
</a>
</g>
</g>
<!-- Node0&#45;&gt;Node10 -->
<g id="edge11" class="edge">
<title>Node0&#45;&gt;Node10</title>
<path fill="none" stroke="midnightblue" d="M157.19,-162.06C169.36,-136.27 194.76,-90.62 231,-67 236.89,-63.16 243.41,-60.08 250.17,-57.62"/>
<polygon fill="midnightblue" stroke="midnightblue" points="153.99,-160.63 153.04,-171.18 160.37,-163.52 153.99,-160.63"/>
</g>
<!-- Node11 -->
<g id="node13" class="node">
<title>Node11</title>
<g id="a_node13"><a xlink:href="class_ogre_1_1_unimplemented_exception.html" target="_top" xlink:title="Template struct which creates a distinct type for each exception code.">
<polygon fill="none" stroke="black" points="235.5,-0.5 235.5,-19.5 408.5,-19.5 408.5,-0.5 235.5,-0.5"/>
<text text-anchor="middle" x="322" y="-7.5" font-family="Helvetica,sans-Serif" font-size="10.00">Ogre::UnimplementedException</text>
</a>
</g>
</g>
<!-- Node0&#45;&gt;Node11 -->
<g id="edge12" class="edge">
<title>Node0&#45;&gt;Node11</title>
<path fill="none" stroke="midnightblue" d="M153.76,-161.55C162.85,-128.75 185.91,-62.72 231,-29 236.12,-25.17 241.83,-22.08 247.83,-19.58"/>
<polygon fill="midnightblue" stroke="midnightblue" points="150.35,-160.75 151.2,-171.31 157.12,-162.52 150.35,-160.75"/>
</g>
<!-- Node9 -->
<g id="node11" class="node">
<title>Node9</title>
<g id="a_node11"><a xlink:href="class_ogre_1_1_d3_d11_rendering_a_p_i_exception.html" target="_top" xlink:title=" ">
<polygon fill="none" stroke="black" points="449,-76.5 449,-95.5 641,-95.5 641,-76.5 449,-76.5"/>
<text text-anchor="middle" x="545" y="-83.5" font-family="Helvetica,sans-Serif" font-size="10.00">Ogre::D3D11RenderingAPIException</text>
</a>
</g>
</g>
<!-- Node8&#45;&gt;Node9 -->
<g id="edge10" class="edge">
<title>Node8&#45;&gt;Node9</title>
<path fill="none" stroke="midnightblue" d="M411.67,-86C423.84,-86 436.39,-86 448.68,-86"/>
<polygon fill="midnightblue" stroke="midnightblue" points="411.54,-82.5 401.54,-86 411.54,-89.5 411.54,-82.5"/>
</g>
</g>
</svg>
