<?xml version="1.0" encoding="UTF-8" standalone="no"?>
<!DOCTYPE svg PUBLIC "-//W3C//DTD SVG 1.1//EN"
 "http://www.w3.org/Graphics/SVG/1.1/DTD/svg11.dtd">
<!-- Generated by graphviz version 2.43.0 (0)
 -->
<!-- Title: Graphical Class Hierarchy Pages: 1 -->
<svg width="422pt" height="66pt"
 viewBox="0.00 0.00 422.00 66.00" xmlns="http://www.w3.org/2000/svg" xmlns:xlink="http://www.w3.org/1999/xlink">
<g id="graph0" class="graph" transform="scale(1 1) rotate(0) translate(4 62)">
<title>Graphical Class Hierarchy</title>
<!-- Node0 -->
<g id="node1" class="node">
<title>Node0</title>
<g id="a_node1"><a xlink:href="class_ogre_1_1_transform_base.html" target="_top" xlink:title=" ">
<polygon fill="none" stroke="black" points="0,-14 0,-44 119,-44 119,-14 0,-14"/>
<text text-anchor="start" x="8" y="-32" font-family="Helvetica,sans-Serif" font-size="10.00">Ogre::TransformBase</text>
<text text-anchor="middle" x="59.5" y="-21" font-family="Helvetica,sans-Serif" font-size="10.00">&lt; 4, Real &gt;</text>
</a>
</g>
</g>
<!-- Node1 -->
<g id="node2" class="node">
<title>Node1</title>
<g id="a_node2"><a xlink:href="struct_ogre_1_1_transform_base_real.html" target="_top" xlink:title=" ">
<polygon fill="none" stroke="black" points="155,-19.5 155,-38.5 295,-38.5 295,-19.5 155,-19.5"/>
<text text-anchor="middle" x="225" y="-26.5" font-family="Helvetica,sans-Serif" font-size="10.00">Ogre::TransformBaseReal</text>
</a>
</g>
</g>
<!-- Node0&#45;&gt;Node1 -->
<g id="edge1" class="edge">
<title>Node0&#45;&gt;Node1</title>
<path fill="none" stroke="midnightblue" d="M129.3,-29C137.79,-29 146.48,-29 154.97,-29"/>
<polygon fill="midnightblue" stroke="midnightblue" points="129.07,-25.5 119.07,-29 129.07,-32.5 129.07,-25.5"/>
</g>
<!-- Node2 -->
<g id="node3" class="node">
<title>Node2</title>
<g id="a_node3"><a xlink:href="class_ogre_1_1_affine3.html" target="_top" xlink:title="Transform specialization for 3D Affine &#45; encapsulating a 3x4 Matrix.">
<polygon fill="none" stroke="black" points="332.5,-38.5 332.5,-57.5 412.5,-57.5 412.5,-38.5 332.5,-38.5"/>
<text text-anchor="middle" x="372.5" y="-45.5" font-family="Helvetica,sans-Serif" font-size="10.00">Ogre::Affine3</text>
</a>
</g>
</g>
<!-- Node1&#45;&gt;Node2 -->
<g id="edge2" class="edge">
<title>Node1&#45;&gt;Node2</title>
<path fill="none" stroke="midnightblue" d="M305.49,-39.38C314.82,-40.6 323.99,-41.8 332.4,-42.89"/>
<polygon fill="midnightblue" stroke="midnightblue" points="305.71,-35.88 295.34,-38.05 304.8,-42.82 305.71,-35.88"/>
</g>
<!-- Node3 -->
<g id="node4" class="node">
<title>Node3</title>
<g id="a_node4"><a xlink:href="class_ogre_1_1_matrix4.html" target="_top" xlink:title="Transform specialization for projective &#45; encapsulating a 4x4 Matrix.">
<polygon fill="none" stroke="black" points="331,-0.5 331,-19.5 414,-19.5 414,-0.5 331,-0.5"/>
<text text-anchor="middle" x="372.5" y="-7.5" font-family="Helvetica,sans-Serif" font-size="10.00">Ogre::Matrix4</text>
</a>
</g>
</g>
<!-- Node1&#45;&gt;Node3 -->
<g id="edge3" class="edge">
<title>Node1&#45;&gt;Node3</title>
<path fill="none" stroke="midnightblue" d="M305.31,-18.64C314.11,-17.49 322.79,-16.36 330.81,-15.31"/>
<polygon fill="midnightblue" stroke="midnightblue" points="304.8,-15.18 295.34,-19.95 305.71,-22.12 304.8,-15.18"/>
</g>
</g>
</svg>
