<?xml version="1.0" encoding="UTF-8" standalone="no"?>
<!DOCTYPE svg PUBLIC "-//W3C//DTD SVG 1.1//EN"
 "http://www.w3.org/Graphics/SVG/1.1/DTD/svg11.dtd">
<!-- Generated by graphviz version 2.43.0 (0)
 -->
<!-- Title: Graphical Class Hierarchy Pages: 1 -->
<svg width="203pt" height="66pt"
 viewBox="0.00 0.00 203.00 66.00" xmlns="http://www.w3.org/2000/svg" xmlns:xlink="http://www.w3.org/1999/xlink">
<g id="graph0" class="graph" transform="scale(1 1) rotate(0) translate(4 62)">
<title>Graphical Class Hierarchy</title>
<!-- Node1217 -->
<g id="node1" class="node">
<title>Node1217</title>
<g id="a_node1"><a xlink:title=" ">
<polygon fill="none" stroke="#bfbfbf" points="0,-38.5 0,-57.5 71,-57.5 71,-38.5 0,-38.5"/>
<text text-anchor="middle" x="35.5" y="-45.5" font-family="Helvetica,sans-Serif" font-size="10.00">ImageAlloc</text>
</a>
</g>
</g>
<!-- Node1218 -->
<g id="node2" class="node">
<title>Node1218</title>
<g id="a_node2"><a xlink:href="class_ogre_1_1_image.html" target="_top" xlink:title="Class representing an image file.">
<polygon fill="none" stroke="black" points="112.5,-38.5 112.5,-57.5 189.5,-57.5 189.5,-38.5 112.5,-38.5"/>
<text text-anchor="middle" x="151" y="-45.5" font-family="Helvetica,sans-Serif" font-size="10.00">Ogre::Image</text>
</a>
</g>
</g>
<!-- Node1217&#45;&gt;Node1218 -->
<g id="edge1" class="edge">
<title>Node1217&#45;&gt;Node1218</title>
<path fill="none" stroke="midnightblue" d="M81.24,-48C91.55,-48 102.41,-48 112.38,-48"/>
<polygon fill="midnightblue" stroke="midnightblue" points="81.17,-44.5 71.17,-48 81.17,-51.5 81.17,-44.5"/>
</g>
<!-- Node1 -->
<g id="node3" class="node">
<title>Node1</title>
<g id="a_node3"><a xlink:href="class_ogre_1_1_pixel_box.html" target="_top" xlink:title="A primitive describing a volume (3D), image (2D) or line (1D) of pixels in memory.">
<polygon fill="none" stroke="black" points="107,-0.5 107,-19.5 195,-19.5 195,-0.5 107,-0.5"/>
<text text-anchor="middle" x="151" y="-7.5" font-family="Helvetica,sans-Serif" font-size="10.00">Ogre::PixelBox</text>
</a>
</g>
</g>
<!-- Node1217&#45;&gt;Node1 -->
<g id="edge2" class="edge">
<title>Node1217&#45;&gt;Node1</title>
<path fill="none" stroke="midnightblue" d="M74.81,-35.17C90.04,-30.08 107.26,-24.31 121.37,-19.59"/>
<polygon fill="midnightblue" stroke="midnightblue" points="73.51,-31.92 65.14,-38.41 75.73,-38.56 73.51,-31.92"/>
</g>
<!-- Node0 -->
<g id="node4" class="node">
<title>Node0</title>
<g id="a_node4"><a xlink:href="struct_ogre_1_1_box.html" target="_top" xlink:title="Structure used to define a box in a 3&#45;D integer space.">
<polygon fill="none" stroke="black" points="3,-0.5 3,-19.5 68,-19.5 68,-0.5 3,-0.5"/>
<text text-anchor="middle" x="35.5" y="-7.5" font-family="Helvetica,sans-Serif" font-size="10.00">Ogre::Box</text>
</a>
</g>
</g>
<!-- Node0&#45;&gt;Node1 -->
<g id="edge3" class="edge">
<title>Node0&#45;&gt;Node1</title>
<path fill="none" stroke="midnightblue" d="M78.27,-10C87.53,-10 97.36,-10 106.68,-10"/>
<polygon fill="midnightblue" stroke="midnightblue" points="78.12,-6.5 68.12,-10 78.12,-13.5 78.12,-6.5"/>
</g>
</g>
</svg>
