<?xml version="1.0" encoding="UTF-8" standalone="no"?>
<!DOCTYPE svg PUBLIC "-//W3C//DTD SVG 1.1//EN"
 "http://www.w3.org/Graphics/SVG/1.1/DTD/svg11.dtd">
<!-- Generated by graphviz version 2.43.0 (0)
 -->
<!-- Title: Graphical Class Hierarchy Pages: 1 -->
<svg width="471pt" height="294pt"
 viewBox="0.00 0.00 471.00 294.00" xmlns="http://www.w3.org/2000/svg" xmlns:xlink="http://www.w3.org/1999/xlink">
<g id="graph0" class="graph" transform="scale(1 1) rotate(0) translate(4 290)">
<title>Graphical Class Hierarchy</title>
<!-- Node1404 -->
<g id="node1" class="node">
<title>Node1404</title>
<g id="a_node1"><a xlink:title=" ">
<polygon fill="none" stroke="#bfbfbf" points="0,-171.5 0,-190.5 91,-190.5 91,-171.5 0,-171.5"/>
<text text-anchor="middle" x="45.5" y="-178.5" font-family="Helvetica,sans-Serif" font-size="10.00">AnimationAlloc</text>
</a>
</g>
</g>
<!-- Node0 -->
<g id="node2" class="node">
<title>Node0</title>
<g id="a_node2"><a xlink:href="class_ogre_1_1_animation.html" target="_top" xlink:title="An animation sequence.">
<polygon fill="none" stroke="black" points="147.5,-266.5 147.5,-285.5 243.5,-285.5 243.5,-266.5 147.5,-266.5"/>
<text text-anchor="middle" x="195.5" y="-273.5" font-family="Helvetica,sans-Serif" font-size="10.00">Ogre::Animation</text>
</a>
</g>
</g>
<!-- Node1404&#45;&gt;Node0 -->
<g id="edge1" class="edge">
<title>Node1404&#45;&gt;Node0</title>
<path fill="none" stroke="midnightblue" d="M60.49,-198.42C75.27,-215.71 100.13,-241.77 127,-257 133.78,-260.84 141.39,-263.95 148.99,-266.45"/>
<polygon fill="midnightblue" stroke="midnightblue" points="63.17,-196.17 54.08,-190.73 57.79,-200.65 63.17,-196.17"/>
</g>
<!-- Node1406 -->
<g id="node3" class="node">
<title>Node1406</title>
<g id="a_node3"><a xlink:href="class_ogre_1_1_animation_state.html" target="_top" xlink:title="Represents the state of an animation and the weight of its influence.">
<polygon fill="none" stroke="black" points="134.5,-228.5 134.5,-247.5 256.5,-247.5 256.5,-228.5 134.5,-228.5"/>
<text text-anchor="middle" x="195.5" y="-235.5" font-family="Helvetica,sans-Serif" font-size="10.00">Ogre::AnimationState</text>
</a>
</g>
</g>
<!-- Node1404&#45;&gt;Node1406 -->
<g id="edge2" class="edge">
<title>Node1404&#45;&gt;Node1406</title>
<path fill="none" stroke="midnightblue" d="M73.63,-195.19C89.01,-202.89 108.78,-212.19 127,-219 136.35,-222.5 146.64,-225.7 156.3,-228.44"/>
<polygon fill="midnightblue" stroke="midnightblue" points="75.17,-192.05 64.67,-190.65 72,-198.29 75.17,-192.05"/>
</g>
<!-- Node1407 -->
<g id="node4" class="node">
<title>Node1407</title>
<g id="a_node4"><a xlink:href="class_ogre_1_1_animation_state_set.html" target="_top" xlink:title="Class encapsulating a set of AnimationState objects.">
<polygon fill="none" stroke="black" points="127,-190.5 127,-209.5 264,-209.5 264,-190.5 127,-190.5"/>
<text text-anchor="middle" x="195.5" y="-197.5" font-family="Helvetica,sans-Serif" font-size="10.00">Ogre::AnimationStateSet</text>
</a>
</g>
</g>
<!-- Node1404&#45;&gt;Node1407 -->
<g id="edge3" class="edge">
<title>Node1404&#45;&gt;Node1407</title>
<path fill="none" stroke="midnightblue" d="M101.28,-188.03C109.63,-189.1 118.32,-190.22 126.91,-191.32"/>
<polygon fill="midnightblue" stroke="midnightblue" points="101.67,-184.55 91.31,-186.75 100.78,-191.5 101.67,-184.55"/>
</g>
<!-- Node1408 -->
<g id="node5" class="node">
<title>Node1408</title>
<g id="a_node5"><a xlink:href="class_ogre_1_1_animation_track.html" target="_top" xlink:title="A &#39;track&#39; in an animation sequence, i.e.">
<polygon fill="none" stroke="black" points="134.5,-152.5 134.5,-171.5 256.5,-171.5 256.5,-152.5 134.5,-152.5"/>
<text text-anchor="middle" x="195.5" y="-159.5" font-family="Helvetica,sans-Serif" font-size="10.00">Ogre::AnimationTrack</text>
</a>
</g>
</g>
<!-- Node1404&#45;&gt;Node1408 -->
<g id="edge4" class="edge">
<title>Node1404&#45;&gt;Node1408</title>
<path fill="none" stroke="midnightblue" d="M101.38,-173.96C112.1,-172.58 123.39,-171.13 134.27,-169.73"/>
<polygon fill="midnightblue" stroke="midnightblue" points="100.78,-170.5 91.31,-175.25 101.67,-177.45 100.78,-170.5"/>
</g>
<!-- Node1412 -->
<g id="node9" class="node">
<title>Node1412</title>
<g id="a_node9"><a xlink:href="class_ogre_1_1_key_frame.html" target="_top" xlink:title="A key frame in an animation sequence defined by an AnimationTrack.">
<polygon fill="none" stroke="black" points="148,-95.5 148,-114.5 243,-114.5 243,-95.5 148,-95.5"/>
<text text-anchor="middle" x="195.5" y="-102.5" font-family="Helvetica,sans-Serif" font-size="10.00">Ogre::KeyFrame</text>
</a>
</g>
</g>
<!-- Node1404&#45;&gt;Node1412 -->
<g id="edge8" class="edge">
<title>Node1404&#45;&gt;Node1412</title>
<path fill="none" stroke="midnightblue" d="M74.26,-166.74C103.98,-151.48 150.3,-127.7 175.91,-114.55"/>
<polygon fill="midnightblue" stroke="midnightblue" points="72.54,-163.69 65.24,-171.37 75.74,-169.92 72.54,-163.69"/>
</g>
<!-- Node1417 -->
<g id="node14" class="node">
<title>Node1417</title>
<g id="a_node14"><a xlink:href="class_ogre_1_1_pose.html" target="_top" xlink:title="A pose is a linked set of vertex offsets applying to one set of vertex data.">
<polygon fill="none" stroke="black" points="161,-57.5 161,-76.5 230,-76.5 230,-57.5 161,-57.5"/>
<text text-anchor="middle" x="195.5" y="-64.5" font-family="Helvetica,sans-Serif" font-size="10.00">Ogre::Pose</text>
</a>
</g>
</g>
<!-- Node1404&#45;&gt;Node1417 -->
<g id="edge13" class="edge">
<title>Node1404&#45;&gt;Node1417</title>
<path fill="none" stroke="midnightblue" d="M57.22,-162.71C70.77,-141.18 96.11,-105.85 127,-86 137.14,-79.48 149.53,-75.17 160.92,-72.32"/>
<polygon fill="midnightblue" stroke="midnightblue" points="54.22,-160.91 51.99,-171.27 60.19,-164.56 54.22,-160.91"/>
</g>
<!-- Node1409 -->
<g id="node6" class="node">
<title>Node1409</title>
<g id="a_node6"><a xlink:href="class_ogre_1_1_node_animation_track.html" target="_top" xlink:title="Specialised AnimationTrack for dealing with node transforms.">
<polygon fill="none" stroke="black" points="308,-228.5 308,-247.5 455,-247.5 455,-228.5 308,-228.5"/>
<text text-anchor="middle" x="381.5" y="-235.5" font-family="Helvetica,sans-Serif" font-size="10.00">Ogre::NodeAnimationTrack</text>
</a>
</g>
</g>
<!-- Node1408&#45;&gt;Node1409 -->
<g id="edge5" class="edge">
<title>Node1408&#45;&gt;Node1409</title>
<path fill="none" stroke="midnightblue" d="M252.64,-175.21C256.59,-176.92 260.42,-178.84 264,-181 283.91,-193.03 279.83,-207.4 300,-219 306.72,-222.87 314.19,-225.95 321.79,-228.4"/>
<polygon fill="midnightblue" stroke="midnightblue" points="253.85,-171.92 243.26,-171.59 251.34,-178.46 253.85,-171.92"/>
</g>
<!-- Node1410 -->
<g id="node7" class="node">
<title>Node1410</title>
<g id="a_node7"><a xlink:href="class_ogre_1_1_numeric_animation_track.html" target="_top" xlink:title="Specialised AnimationTrack for dealing with generic animable values.">
<polygon fill="none" stroke="black" points="300,-190.5 300,-209.5 463,-209.5 463,-190.5 300,-190.5"/>
<text text-anchor="middle" x="381.5" y="-197.5" font-family="Helvetica,sans-Serif" font-size="10.00">Ogre::NumericAnimationTrack</text>
</a>
</g>
</g>
<!-- Node1408&#45;&gt;Node1410 -->
<g id="edge6" class="edge">
<title>Node1408&#45;&gt;Node1410</title>
<path fill="none" stroke="midnightblue" d="M253.06,-173.68C279.15,-179.07 309.74,-185.39 334.4,-190.48"/>
<polygon fill="midnightblue" stroke="midnightblue" points="253.43,-170.18 242.93,-171.59 252.02,-177.04 253.43,-170.18"/>
</g>
<!-- Node1411 -->
<g id="node8" class="node">
<title>Node1411</title>
<g id="a_node8"><a xlink:href="class_ogre_1_1_vertex_animation_track.html" target="_top" xlink:title="Specialised AnimationTrack for dealing with changing vertex position information.">
<polygon fill="none" stroke="black" points="305,-152.5 305,-171.5 458,-171.5 458,-152.5 305,-152.5"/>
<text text-anchor="middle" x="381.5" y="-159.5" font-family="Helvetica,sans-Serif" font-size="10.00">Ogre::VertexAnimationTrack</text>
</a>
</g>
</g>
<!-- Node1408&#45;&gt;Node1411 -->
<g id="edge7" class="edge">
<title>Node1408&#45;&gt;Node1411</title>
<path fill="none" stroke="midnightblue" d="M267.03,-162C279.46,-162 292.43,-162 304.98,-162"/>
<polygon fill="midnightblue" stroke="midnightblue" points="266.75,-158.5 256.75,-162 266.75,-165.5 266.75,-158.5"/>
</g>
<!-- Node1413 -->
<g id="node10" class="node">
<title>Node1413</title>
<g id="a_node10"><a xlink:href="class_ogre_1_1_numeric_key_frame.html" target="_top" xlink:title="Specialised KeyFrame which stores any numeric value.">
<polygon fill="none" stroke="black" points="313.5,-114.5 313.5,-133.5 449.5,-133.5 449.5,-114.5 313.5,-114.5"/>
<text text-anchor="middle" x="381.5" y="-121.5" font-family="Helvetica,sans-Serif" font-size="10.00">Ogre::NumericKeyFrame</text>
</a>
</g>
</g>
<!-- Node1412&#45;&gt;Node1413 -->
<g id="edge9" class="edge">
<title>Node1412&#45;&gt;Node1413</title>
<path fill="none" stroke="midnightblue" d="M253.36,-110.87C272.29,-112.83 293.55,-115.02 313.19,-117.05"/>
<polygon fill="midnightblue" stroke="midnightblue" points="253.71,-107.39 243.41,-109.84 252.99,-114.35 253.71,-107.39"/>
</g>
<!-- Node1414 -->
<g id="node11" class="node">
<title>Node1414</title>
<g id="a_node11"><a xlink:href="class_ogre_1_1_transform_key_frame.html" target="_top" xlink:title="Specialised KeyFrame which stores a full transform.">
<polygon fill="none" stroke="black" points="310,-76.5 310,-95.5 453,-95.5 453,-76.5 310,-76.5"/>
<text text-anchor="middle" x="381.5" y="-83.5" font-family="Helvetica,sans-Serif" font-size="10.00">Ogre::TransformKeyFrame</text>
</a>
</g>
</g>
<!-- Node1412&#45;&gt;Node1414 -->
<g id="edge10" class="edge">
<title>Node1412&#45;&gt;Node1414</title>
<path fill="none" stroke="midnightblue" d="M253.6,-99.1C271.34,-97.27 291.12,-95.23 309.68,-93.31"/>
<polygon fill="midnightblue" stroke="midnightblue" points="252.99,-95.65 243.41,-100.16 253.71,-102.61 252.99,-95.65"/>
</g>
<!-- Node1415 -->
<g id="node12" class="node">
<title>Node1415</title>
<g id="a_node12"><a xlink:href="class_ogre_1_1_vertex_morph_key_frame.html" target="_top" xlink:title="Specialised KeyFrame which stores absolute vertex positions for a complete buffer,...">
<polygon fill="none" stroke="black" points="303,-38.5 303,-57.5 460,-57.5 460,-38.5 303,-38.5"/>
<text text-anchor="middle" x="381.5" y="-45.5" font-family="Helvetica,sans-Serif" font-size="10.00">Ogre::VertexMorphKeyFrame</text>
</a>
</g>
</g>
<!-- Node1412&#45;&gt;Node1415 -->
<g id="edge11" class="edge">
<title>Node1412&#45;&gt;Node1415</title>
<path fill="none" stroke="midnightblue" d="M245.63,-92.49C251.88,-90.51 258.14,-88.34 264,-86 280.8,-79.29 283.06,-73.35 300,-67 309.82,-63.32 320.58,-60.19 330.95,-57.6"/>
<polygon fill="midnightblue" stroke="midnightblue" points="244.44,-89.19 235.87,-95.43 246.46,-95.9 244.44,-89.19"/>
</g>
<!-- Node1416 -->
<g id="node13" class="node">
<title>Node1416</title>
<g id="a_node13"><a xlink:href="class_ogre_1_1_vertex_pose_key_frame.html" target="_top" xlink:title="Specialised KeyFrame which references a Mesh::Pose at a certain influence level, which stores offsets...">
<polygon fill="none" stroke="black" points="307,-0.5 307,-19.5 456,-19.5 456,-0.5 307,-0.5"/>
<text text-anchor="middle" x="381.5" y="-7.5" font-family="Helvetica,sans-Serif" font-size="10.00">Ogre::VertexPoseKeyFrame</text>
</a>
</g>
</g>
<!-- Node1412&#45;&gt;Node1416 -->
<g id="edge12" class="edge">
<title>Node1412&#45;&gt;Node1416</title>
<path fill="none" stroke="midnightblue" d="M252.78,-92.74C256.75,-90.81 260.54,-88.58 264,-86 288.02,-68.08 275.61,-46.4 300,-29 305.38,-25.16 311.42,-22.09 317.72,-19.64"/>
<polygon fill="midnightblue" stroke="midnightblue" points="251.15,-89.62 243.27,-96.71 253.84,-96.08 251.15,-89.62"/>
</g>
</g>
</svg>
