<?xml version="1.0" encoding="UTF-8" standalone="no"?>
<!DOCTYPE svg PUBLIC "-//W3C//DTD SVG 1.1//EN"
 "http://www.w3.org/Graphics/SVG/1.1/DTD/svg11.dtd">
<!-- Generated by graphviz version 2.43.0 (0)
 -->
<!-- Title: Graphical Class Hierarchy Pages: 1 -->
<svg width="1034pt" height="288pt"
 viewBox="0.00 0.00 1034.00 287.50" xmlns="http://www.w3.org/2000/svg" xmlns:xlink="http://www.w3.org/1999/xlink">
<g id="graph0" class="graph" transform="scale(1 1) rotate(0) translate(4 283.5)">
<title>Graphical Class Hierarchy</title>
<!-- Node0 -->
<g id="node1" class="node">
<title>Node0</title>
<g id="a_node1"><a xlink:href="class_ogre_1_1_small_vector_base.html" target="_top" xlink:title="SmallVectorBase &#45; This is all the non&#45;templated stuff common to all SmallVectors.">
<polygon fill="none" stroke="black" points="0,-71.5 0,-90.5 128,-90.5 128,-71.5 0,-71.5"/>
<text text-anchor="middle" x="64" y="-78.5" font-family="Helvetica,sans-Serif" font-size="10.00">Ogre::SmallVectorBase</text>
</a>
</g>
</g>
<!-- Node1 -->
<g id="node2" class="node">
<title>Node1</title>
<g id="a_node2"><a xlink:href="class_ogre_1_1_small_vector_template_common.html" target="_top" xlink:title=" ">
<polygon fill="none" stroke="black" points="164,-172 164,-202 313,-202 313,-172 164,-172"/>
<text text-anchor="start" x="172" y="-190" font-family="Helvetica,sans-Serif" font-size="10.00">Ogre::SmallVectorTemplate</text>
<text text-anchor="middle" x="238.5" y="-179" font-family="Helvetica,sans-Serif" font-size="10.00">Common&lt; T &gt;</text>
</a>
</g>
</g>
<!-- Node0&#45;&gt;Node1 -->
<g id="edge1" class="edge">
<title>Node0&#45;&gt;Node1</title>
<path fill="none" stroke="midnightblue" d="M89.13,-95.83C121.89,-115.96 180.09,-151.72 213.02,-171.96"/>
<polygon fill="midnightblue" stroke="midnightblue" points="90.96,-92.85 80.61,-90.59 87.3,-98.81 90.96,-92.85"/>
</g>
<!-- Node10 -->
<g id="node11" class="node">
<title>Node10</title>
<g id="a_node11"><a xlink:href="class_ogre_1_1_small_vector_template_common.html" target="_top" xlink:title=" ">
<polygon fill="none" stroke="black" points="164,-66 164,-96 313,-96 313,-66 164,-66"/>
<text text-anchor="start" x="172" y="-84" font-family="Helvetica,sans-Serif" font-size="10.00">Ogre::SmallVectorTemplate</text>
<text text-anchor="middle" x="238.5" y="-73" font-family="Helvetica,sans-Serif" font-size="10.00">Common&lt; Edge &gt;</text>
</a>
</g>
</g>
<!-- Node0&#45;&gt;Node10 -->
<g id="edge10" class="edge">
<title>Node0&#45;&gt;Node10</title>
<path fill="none" stroke="midnightblue" d="M138.39,-81C146.78,-81 155.34,-81 163.73,-81"/>
<polygon fill="midnightblue" stroke="midnightblue" points="138.25,-77.5 128.25,-81 138.25,-84.5 138.25,-77.5"/>
</g>
<!-- Node15 -->
<g id="node16" class="node">
<title>Node15</title>
<g id="a_node16"><a xlink:href="class_ogre_1_1_small_vector_template_common.html" target="_top" xlink:title=" ">
<polygon fill="none" stroke="black" points="164,-12 164,-42 313,-42 313,-12 164,-12"/>
<text text-anchor="start" x="172" y="-30" font-family="Helvetica,sans-Serif" font-size="10.00">Ogre::SmallVectorTemplate</text>
<text text-anchor="middle" x="238.5" y="-19" font-family="Helvetica,sans-Serif" font-size="10.00">Common&lt; Triangle * &gt;</text>
</a>
</g>
</g>
<!-- Node0&#45;&gt;Node15 -->
<g id="edge15" class="edge">
<title>Node0&#45;&gt;Node15</title>
<path fill="none" stroke="midnightblue" d="M105.05,-68.46C130.23,-60.58 162.88,-50.36 189.46,-42.04"/>
<polygon fill="midnightblue" stroke="midnightblue" points="103.94,-65.14 95.44,-71.47 106.03,-71.82 103.94,-65.14"/>
</g>
<!-- Node2 -->
<g id="node3" class="node">
<title>Node2</title>
<g id="a_node3"><a xlink:href="class_ogre_1_1_small_vector_template_base.html" target="_top" xlink:title="SmallVectorTemplateBase&lt;isPodLike = false&gt; &#45; This is where we put method implementations that are des...">
<polygon fill="none" stroke="black" points="349.5,-249 349.5,-279 498.5,-279 498.5,-249 349.5,-249"/>
<text text-anchor="start" x="357.5" y="-267" font-family="Helvetica,sans-Serif" font-size="10.00">Ogre::SmallVectorTemplate</text>
<text text-anchor="middle" x="424" y="-256" font-family="Helvetica,sans-Serif" font-size="10.00">Base&lt; T, isPodLike &gt;</text>
</a>
</g>
</g>
<!-- Node1&#45;&gt;Node2 -->
<g id="edge2" class="edge">
<title>Node1&#45;&gt;Node2</title>
<path fill="none" stroke="midnightblue" d="M276.99,-206.73C297.88,-217.31 324.53,-230.16 349,-240 356.77,-243.12 365.12,-246.14 373.3,-248.92"/>
<polygon fill="midnightblue" stroke="midnightblue" points="278.33,-203.48 267.83,-202.04 275.14,-209.71 278.33,-203.48"/>
</g>
<!-- Node3 -->
<g id="node4" class="node">
<title>Node3</title>
<g id="a_node4"><a xlink:href="class_ogre_1_1_small_vector_template_base_3_01_t_00_01true_01_4.html" target="_top" xlink:title="SmallVectorTemplateBase&lt;isPodLike = true&gt; &#45; This is where we put method implementations that are desi...">
<polygon fill="none" stroke="black" points="349.5,-200 349.5,-230 498.5,-230 498.5,-200 349.5,-200"/>
<text text-anchor="start" x="357.5" y="-218" font-family="Helvetica,sans-Serif" font-size="10.00">Ogre::SmallVectorTemplate</text>
<text text-anchor="middle" x="424" y="-207" font-family="Helvetica,sans-Serif" font-size="10.00">Base&lt; T, true &gt;</text>
</a>
</g>
</g>
<!-- Node1&#45;&gt;Node3 -->
<g id="edge3" class="edge">
<title>Node1&#45;&gt;Node3</title>
<path fill="none" stroke="midnightblue" d="M322.97,-199.74C331.79,-201.08 340.71,-202.44 349.4,-203.77"/>
<polygon fill="midnightblue" stroke="midnightblue" points="323.49,-196.28 313.08,-198.23 322.44,-203.2 323.49,-196.28"/>
</g>
<!-- Node4 -->
<g id="node5" class="node">
<title>Node4</title>
<g id="a_node5"><a xlink:href="class_ogre_1_1_small_vector_template_base.html" target="_top" xlink:title=" ">
<polygon fill="none" stroke="black" points="349.5,-139.5 349.5,-180.5 498.5,-180.5 498.5,-139.5 349.5,-139.5"/>
<text text-anchor="start" x="357.5" y="-168.5" font-family="Helvetica,sans-Serif" font-size="10.00">Ogre::SmallVectorTemplate</text>
<text text-anchor="start" x="357.5" y="-157.5" font-family="Helvetica,sans-Serif" font-size="10.00">Base&lt; T, isPodLike&lt; T &gt;</text>
<text text-anchor="middle" x="424" y="-146.5" font-family="Helvetica,sans-Serif" font-size="10.00">::value &gt;</text>
</a>
</g>
</g>
<!-- Node1&#45;&gt;Node4 -->
<g id="edge4" class="edge">
<title>Node1&#45;&gt;Node4</title>
<path fill="none" stroke="midnightblue" d="M322.97,-174.72C331.79,-173.42 340.71,-172.11 349.4,-170.83"/>
<polygon fill="midnightblue" stroke="midnightblue" points="322.46,-171.26 313.08,-176.17 323.48,-178.18 322.46,-171.26"/>
</g>
<!-- Node5 -->
<g id="node6" class="node">
<title>Node5</title>
<g id="a_node6"><a xlink:href="class_ogre_1_1_small_vector_impl.html" target="_top" xlink:title="SmallVectorImpl &#45; This class consists of common code factored out of the SmallVector class to reduce ...">
<polygon fill="none" stroke="black" points="535,-157.5 535,-176.5 690,-176.5 690,-157.5 535,-157.5"/>
<text text-anchor="middle" x="612.5" y="-164.5" font-family="Helvetica,sans-Serif" font-size="10.00">Ogre::SmallVectorImpl&lt; T &gt;</text>
</a>
</g>
</g>
<!-- Node4&#45;&gt;Node5 -->
<g id="edge5" class="edge">
<title>Node4&#45;&gt;Node5</title>
<path fill="none" stroke="midnightblue" d="M508.85,-163.15C517.54,-163.47 526.35,-163.8 534.96,-164.13"/>
<polygon fill="midnightblue" stroke="midnightblue" points="508.83,-159.64 498.71,-162.77 508.57,-166.64 508.83,-159.64"/>
</g>
<!-- Node6 -->
<g id="node7" class="node">
<title>Node6</title>
<g id="a_node7"><a xlink:href="class_ogre_1_1_small_vector.html" target="_top" xlink:title="SmallVector &#45; This is a &#39;vector&#39; (really, a variable&#45;sized array), optimized for the case when the ar...">
<polygon fill="none" stroke="black" points="726,-205 726,-235 839,-235 839,-205 726,-205"/>
<text text-anchor="start" x="734" y="-223" font-family="Helvetica,sans-Serif" font-size="10.00">Ogre::SmallVector&lt;</text>
<text text-anchor="middle" x="782.5" y="-212" font-family="Helvetica,sans-Serif" font-size="10.00"> T, N &gt;</text>
</a>
</g>
</g>
<!-- Node5&#45;&gt;Node6 -->
<g id="edge6" class="edge">
<title>Node5&#45;&gt;Node6</title>
<path fill="none" stroke="midnightblue" d="M653.47,-179.61C677.59,-187.22 708.45,-196.96 733.83,-204.96"/>
<polygon fill="midnightblue" stroke="midnightblue" points="654.51,-176.27 643.92,-176.6 652.41,-182.94 654.51,-176.27"/>
</g>
<!-- Node7 -->
<g id="node8" class="node">
<title>Node7</title>
<g id="a_node8"><a xlink:href="class_ogre_1_1_small_vector_3_01_t_00_010_01_4.html" target="_top" xlink:title="Specialize SmallVector at N=0.">
<polygon fill="none" stroke="black" points="726,-156 726,-186 839,-186 839,-156 726,-156"/>
<text text-anchor="start" x="734" y="-174" font-family="Helvetica,sans-Serif" font-size="10.00">Ogre::SmallVector&lt;</text>
<text text-anchor="middle" x="782.5" y="-163" font-family="Helvetica,sans-Serif" font-size="10.00"> T, 0 &gt;</text>
</a>
</g>
</g>
<!-- Node5&#45;&gt;Node7 -->
<g id="edge7" class="edge">
<title>Node5&#45;&gt;Node7</title>
<path fill="none" stroke="midnightblue" d="M700.23,-169.06C708.84,-169.27 717.41,-169.47 725.58,-169.67"/>
<polygon fill="midnightblue" stroke="midnightblue" points="700.21,-165.56 690.13,-168.82 700.04,-172.56 700.21,-165.56"/>
</g>
<!-- Node8 -->
<g id="node9" class="node">
<title>Node8</title>
<g id="a_node9"><a xlink:href="class_ogre_1_1_small_vector.html" target="_top" xlink:title=" ">
<polygon fill="none" stroke="black" points="726,-107 726,-137 839,-137 839,-107 726,-107"/>
<text text-anchor="start" x="734" y="-125" font-family="Helvetica,sans-Serif" font-size="10.00">Ogre::SmallVector&lt;</text>
<text text-anchor="middle" x="782.5" y="-114" font-family="Helvetica,sans-Serif" font-size="10.00"> T, S &gt;</text>
</a>
</g>
</g>
<!-- Node5&#45;&gt;Node8 -->
<g id="edge8" class="edge">
<title>Node5&#45;&gt;Node8</title>
<path fill="none" stroke="midnightblue" d="M658.89,-154.84C679.49,-149.32 704.05,-142.75 725.76,-136.93"/>
<polygon fill="midnightblue" stroke="midnightblue" points="657.88,-151.49 649.13,-157.46 659.69,-158.25 657.88,-151.49"/>
</g>
<!-- Node9 -->
<g id="node10" class="node">
<title>Node9</title>
<g id="a_node10"><a xlink:href="struct_ogre_1_1_vector_set.html" target="_top" xlink:title="VectorSet is basically a helper to use a vector as a small set container.">
<polygon fill="none" stroke="black" points="884,-112.5 884,-131.5 1017,-131.5 1017,-112.5 884,-112.5"/>
<text text-anchor="middle" x="950.5" y="-119.5" font-family="Helvetica,sans-Serif" font-size="10.00">Ogre::VectorSet&lt; T, S &gt;</text>
</a>
</g>
</g>
<!-- Node8&#45;&gt;Node9 -->
<g id="edge9" class="edge">
<title>Node8&#45;&gt;Node9</title>
<path fill="none" stroke="midnightblue" d="M849.48,-122C860.79,-122 872.55,-122 883.86,-122"/>
<polygon fill="midnightblue" stroke="midnightblue" points="849.24,-118.5 839.24,-122 849.24,-125.5 849.24,-118.5"/>
</g>
<!-- Node11 -->
<g id="node12" class="node">
<title>Node11</title>
<g id="a_node12"><a xlink:href="class_ogre_1_1_small_vector_template_base.html" target="_top" xlink:title=" ">
<polygon fill="none" stroke="black" points="349.5,-60.5 349.5,-101.5 498.5,-101.5 498.5,-60.5 349.5,-60.5"/>
<text text-anchor="start" x="357.5" y="-89.5" font-family="Helvetica,sans-Serif" font-size="10.00">Ogre::SmallVectorTemplate</text>
<text text-anchor="start" x="357.5" y="-78.5" font-family="Helvetica,sans-Serif" font-size="10.00">Base&lt; Edge, isPodLike&lt;</text>
<text text-anchor="middle" x="424" y="-67.5" font-family="Helvetica,sans-Serif" font-size="10.00"> Edge &gt;::value &gt;</text>
</a>
</g>
</g>
<!-- Node10&#45;&gt;Node11 -->
<g id="edge11" class="edge">
<title>Node10&#45;&gt;Node11</title>
<path fill="none" stroke="midnightblue" d="M323.26,-81C331.98,-81 340.8,-81 349.4,-81"/>
<polygon fill="midnightblue" stroke="midnightblue" points="323.08,-77.5 313.08,-81 323.08,-84.5 323.08,-77.5"/>
</g>
<!-- Node12 -->
<g id="node13" class="node">
<title>Node12</title>
<g id="a_node13"><a xlink:href="class_ogre_1_1_small_vector_impl.html" target="_top" xlink:title=" ">
<polygon fill="none" stroke="black" points="549.5,-61 549.5,-91 675.5,-91 675.5,-61 549.5,-61"/>
<text text-anchor="start" x="557.5" y="-79" font-family="Helvetica,sans-Serif" font-size="10.00">Ogre::SmallVectorImpl</text>
<text text-anchor="middle" x="612.5" y="-68" font-family="Helvetica,sans-Serif" font-size="10.00">&lt; Edge &gt;</text>
</a>
</g>
</g>
<!-- Node11&#45;&gt;Node12 -->
<g id="edge12" class="edge">
<title>Node11&#45;&gt;Node12</title>
<path fill="none" stroke="midnightblue" d="M509.04,-78.75C522.64,-78.38 536.5,-78.01 549.45,-77.66"/>
<polygon fill="midnightblue" stroke="midnightblue" points="508.61,-75.26 498.71,-79.02 508.8,-82.25 508.61,-75.26"/>
</g>
<!-- Node13 -->
<g id="node14" class="node">
<title>Node13</title>
<g id="a_node14"><a xlink:href="class_ogre_1_1_small_vector.html" target="_top" xlink:title=" ">
<polygon fill="none" stroke="black" points="726,-58 726,-88 839,-88 839,-58 726,-58"/>
<text text-anchor="start" x="734" y="-76" font-family="Helvetica,sans-Serif" font-size="10.00">Ogre::SmallVector&lt;</text>
<text text-anchor="middle" x="782.5" y="-65" font-family="Helvetica,sans-Serif" font-size="10.00"> Edge, S &gt;</text>
</a>
</g>
</g>
<!-- Node12&#45;&gt;Node13 -->
<g id="edge13" class="edge">
<title>Node12&#45;&gt;Node13</title>
<path fill="none" stroke="midnightblue" d="M685.73,-74.71C699.14,-74.47 712.96,-74.22 725.78,-74"/>
<polygon fill="midnightblue" stroke="midnightblue" points="685.52,-71.21 675.58,-74.89 685.64,-78.21 685.52,-71.21"/>
</g>
<!-- Node14 -->
<g id="node15" class="node">
<title>Node14</title>
<g id="a_node15"><a xlink:href="struct_ogre_1_1_vector_set.html" target="_top" xlink:title=" ">
<polygon fill="none" stroke="black" points="875,-63.5 875,-82.5 1026,-82.5 1026,-63.5 875,-63.5"/>
<text text-anchor="middle" x="950.5" y="-70.5" font-family="Helvetica,sans-Serif" font-size="10.00">Ogre::VectorSet&lt; Edge, 8 &gt;</text>
</a>
</g>
</g>
<!-- Node13&#45;&gt;Node14 -->
<g id="edge14" class="edge">
<title>Node13&#45;&gt;Node14</title>
<path fill="none" stroke="midnightblue" d="M849.29,-73C857.65,-73 866.25,-73 874.74,-73"/>
<polygon fill="midnightblue" stroke="midnightblue" points="849.24,-69.5 839.24,-73 849.24,-76.5 849.24,-69.5"/>
</g>
<!-- Node16 -->
<g id="node17" class="node">
<title>Node16</title>
<g id="a_node17"><a xlink:href="class_ogre_1_1_small_vector_template_base.html" target="_top" xlink:title=" ">
<polygon fill="none" stroke="black" points="349,-0.5 349,-41.5 499,-41.5 499,-0.5 349,-0.5"/>
<text text-anchor="start" x="357" y="-29.5" font-family="Helvetica,sans-Serif" font-size="10.00">Ogre::SmallVectorTemplate</text>
<text text-anchor="start" x="357" y="-18.5" font-family="Helvetica,sans-Serif" font-size="10.00">Base&lt; Triangle *, isPodLike</text>
<text text-anchor="middle" x="424" y="-7.5" font-family="Helvetica,sans-Serif" font-size="10.00">&lt; Triangle * &gt;::value &gt;</text>
</a>
</g>
</g>
<!-- Node15&#45;&gt;Node16 -->
<g id="edge16" class="edge">
<title>Node15&#45;&gt;Node16</title>
<path fill="none" stroke="midnightblue" d="M323.09,-24.27C331.66,-23.99 340.34,-23.7 348.81,-23.43"/>
<polygon fill="midnightblue" stroke="midnightblue" points="322.96,-20.77 313.08,-24.59 323.19,-27.77 322.96,-20.77"/>
</g>
<!-- Node17 -->
<g id="node18" class="node">
<title>Node17</title>
<g id="a_node18"><a xlink:href="class_ogre_1_1_small_vector_impl.html" target="_top" xlink:title=" ">
<polygon fill="none" stroke="black" points="549.5,-6 549.5,-36 675.5,-36 675.5,-6 549.5,-6"/>
<text text-anchor="start" x="557.5" y="-24" font-family="Helvetica,sans-Serif" font-size="10.00">Ogre::SmallVectorImpl</text>
<text text-anchor="middle" x="612.5" y="-13" font-family="Helvetica,sans-Serif" font-size="10.00">&lt; Triangle * &gt;</text>
</a>
</g>
</g>
<!-- Node16&#45;&gt;Node17 -->
<g id="edge17" class="edge">
<title>Node16&#45;&gt;Node17</title>
<path fill="none" stroke="midnightblue" d="M509.42,-21C522.81,-21 536.45,-21 549.21,-21"/>
<polygon fill="midnightblue" stroke="midnightblue" points="509.25,-17.5 499.25,-21 509.25,-24.5 509.25,-17.5"/>
</g>
<!-- Node18 -->
<g id="node19" class="node">
<title>Node18</title>
<g id="a_node19"><a xlink:href="class_ogre_1_1_small_vector.html" target="_top" xlink:title=" ">
<polygon fill="none" stroke="black" points="726,-6 726,-36 839,-36 839,-6 726,-6"/>
<text text-anchor="start" x="734" y="-24" font-family="Helvetica,sans-Serif" font-size="10.00">Ogre::SmallVector&lt;</text>
<text text-anchor="middle" x="782.5" y="-13" font-family="Helvetica,sans-Serif" font-size="10.00"> Triangle *, S &gt;</text>
</a>
</g>
</g>
<!-- Node17&#45;&gt;Node18 -->
<g id="edge18" class="edge">
<title>Node17&#45;&gt;Node18</title>
<path fill="none" stroke="midnightblue" d="M685.73,-21C699.14,-21 712.96,-21 725.78,-21"/>
<polygon fill="midnightblue" stroke="midnightblue" points="685.58,-17.5 675.58,-21 685.58,-24.5 685.58,-17.5"/>
</g>
<!-- Node19 -->
<g id="node20" class="node">
<title>Node19</title>
<g id="a_node20"><a xlink:href="struct_ogre_1_1_vector_set.html" target="_top" xlink:title=" ">
<polygon fill="none" stroke="black" points="879.5,-6 879.5,-36 1021.5,-36 1021.5,-6 879.5,-6"/>
<text text-anchor="start" x="887.5" y="-24" font-family="Helvetica,sans-Serif" font-size="10.00">Ogre::VectorSet&lt; Triangle</text>
<text text-anchor="middle" x="950.5" y="-13" font-family="Helvetica,sans-Serif" font-size="10.00"> *, 7 &gt;</text>
</a>
</g>
</g>
<!-- Node18&#45;&gt;Node19 -->
<g id="edge19" class="edge">
<title>Node18&#45;&gt;Node19</title>
<path fill="none" stroke="midnightblue" d="M849.39,-21C859.27,-21 869.5,-21 879.46,-21"/>
<polygon fill="midnightblue" stroke="midnightblue" points="849.24,-17.5 839.24,-21 849.24,-24.5 849.24,-17.5"/>
</g>
</g>
</svg>
