<?xml version="1.0" encoding="UTF-8" standalone="no"?>
<!DOCTYPE svg PUBLIC "-//W3C//DTD SVG 1.1//EN"
 "http://www.w3.org/Graphics/SVG/1.1/DTD/svg11.dtd">
<!-- Generated by graphviz version 2.43.0 (0)
 -->
<!-- Title: Graphical Class Hierarchy Pages: 1 -->
<svg width="559pt" height="205pt"
 viewBox="0.00 0.00 559.00 204.50" xmlns="http://www.w3.org/2000/svg" xmlns:xlink="http://www.w3.org/1999/xlink">
<g id="graph0" class="graph" transform="scale(1 1) rotate(0) translate(4 200.5)">
<title>Graphical Class Hierarchy</title>
<!-- Node325 -->
<g id="node1" class="node">
<title>Node325</title>
<g id="a_node1"><a xlink:title=" ">
<polygon fill="none" stroke="#bfbfbf" points="19.5,-66 19.5,-85 156.5,-85 156.5,-66 19.5,-66"/>
<text text-anchor="middle" x="88" y="-73" font-family="Helvetica,sans-Serif" font-size="10.00">SceneCtlAllocatedObject</text>
</a>
</g>
</g>
<!-- Node326 -->
<g id="node2" class="node">
<title>Node326</title>
<g id="a_node2"><a xlink:href="class_ogre_1_1_p_c_zone.html" target="_top" xlink:title="Portal&#45;Connected Zone datastructure for managing scene nodes.">
<polygon fill="none" stroke="black" points="251,-139 251,-158 334,-158 334,-139 251,-139"/>
<text text-anchor="middle" x="292.5" y="-146" font-family="Helvetica,sans-Serif" font-size="10.00">Ogre::PCZone</text>
</a>
</g>
</g>
<!-- Node325&#45;&gt;Node326 -->
<g id="edge1" class="edge">
<title>Node325&#45;&gt;Node326</title>
<path fill="none" stroke="midnightblue" d="M124.89,-88.44C165.05,-102.91 229.16,-126.03 265.02,-138.95"/>
<polygon fill="midnightblue" stroke="midnightblue" points="126.07,-85.14 115.47,-85.04 123.69,-91.73 126.07,-85.14"/>
</g>
<!-- Node329 -->
<g id="node5" class="node">
<title>Node329</title>
<g id="a_node5"><a xlink:href="class_ogre_1_1_p_c_zone_factory.html" target="_top" xlink:title="Factory for PCZones.">
<polygon fill="none" stroke="black" points="233,-82 233,-101 352,-101 352,-82 233,-82"/>
<text text-anchor="middle" x="292.5" y="-89" font-family="Helvetica,sans-Serif" font-size="10.00">Ogre::PCZoneFactory</text>
</a>
</g>
</g>
<!-- Node325&#45;&gt;Node329 -->
<g id="edge4" class="edge">
<title>Node325&#45;&gt;Node329</title>
<path fill="none" stroke="midnightblue" d="M166.95,-81.66C188.79,-83.38 212.15,-85.23 232.67,-86.85"/>
<polygon fill="midnightblue" stroke="midnightblue" points="166.96,-78.15 156.71,-80.85 166.4,-85.13 166.96,-78.15"/>
</g>
<!-- Node1 -->
<g id="node8" class="node">
<title>Node1</title>
<g id="a_node8"><a xlink:href="class_ogre_1_1_p_c_zone_factory_manager.html" target="_top" xlink:title=" ">
<polygon fill="none" stroke="black" points="212,-6 212,-25 373,-25 373,-6 212,-6"/>
<text text-anchor="middle" x="292.5" y="-13" font-family="Helvetica,sans-Serif" font-size="10.00">Ogre::PCZoneFactoryManager</text>
</a>
</g>
</g>
<!-- Node325&#45;&gt;Node1 -->
<g id="edge7" class="edge">
<title>Node325&#45;&gt;Node1</title>
<path fill="none" stroke="midnightblue" d="M125.21,-62.5C149.58,-53.99 182.51,-42.92 212,-34.5 223.73,-31.15 236.56,-27.9 248.41,-25.07"/>
<polygon fill="midnightblue" stroke="midnightblue" points="123.94,-59.24 115.66,-65.86 126.26,-65.85 123.94,-59.24"/>
</g>
<!-- Node332 -->
<g id="node9" class="node">
<title>Node332</title>
<g id="a_node9"><a xlink:href="class_ogre_1_1_zone_data.html" target="_top" xlink:title=" ">
<polygon fill="none" stroke="black" points="245.5,-44 245.5,-63 339.5,-63 339.5,-44 245.5,-44"/>
<text text-anchor="middle" x="292.5" y="-51" font-family="Helvetica,sans-Serif" font-size="10.00">Ogre::ZoneData</text>
</a>
</g>
</g>
<!-- Node325&#45;&gt;Node332 -->
<g id="edge8" class="edge">
<title>Node325&#45;&gt;Node332</title>
<path fill="none" stroke="midnightblue" d="M166.74,-67.05C193.24,-64.17 222.02,-61.05 245.25,-58.52"/>
<polygon fill="midnightblue" stroke="midnightblue" points="166.27,-63.58 156.71,-68.14 167.03,-70.54 166.27,-63.58"/>
</g>
<!-- Node327 -->
<g id="node3" class="node">
<title>Node327</title>
<g id="a_node3"><a xlink:href="class_ogre_1_1_default_zone.html" target="_top" xlink:title=" ">
<polygon fill="none" stroke="black" points="426.5,-177 426.5,-196 533.5,-196 533.5,-177 426.5,-177"/>
<text text-anchor="middle" x="480" y="-184" font-family="Helvetica,sans-Serif" font-size="10.00">Ogre::DefaultZone</text>
</a>
</g>
</g>
<!-- Node326&#45;&gt;Node327 -->
<g id="edge2" class="edge">
<title>Node326&#45;&gt;Node327</title>
<path fill="none" stroke="midnightblue" d="M344.06,-158.86C371.65,-164.51 405.58,-171.46 432.5,-176.98"/>
<polygon fill="midnightblue" stroke="midnightblue" points="344.71,-155.42 334.21,-156.84 343.3,-162.27 344.71,-155.42"/>
</g>
<!-- Node328 -->
<g id="node4" class="node">
<title>Node328</title>
<g id="a_node4"><a xlink:href="class_ogre_1_1_octree_zone.html" target="_top" xlink:title=" ">
<polygon fill="none" stroke="black" points="428.5,-139 428.5,-158 531.5,-158 531.5,-139 428.5,-139"/>
<text text-anchor="middle" x="480" y="-146" font-family="Helvetica,sans-Serif" font-size="10.00">Ogre::OctreeZone</text>
</a>
</g>
</g>
<!-- Node326&#45;&gt;Node328 -->
<g id="edge3" class="edge">
<title>Node326&#45;&gt;Node328</title>
<path fill="none" stroke="midnightblue" d="M344.31,-148.5C370.49,-148.5 402.31,-148.5 428.45,-148.5"/>
<polygon fill="midnightblue" stroke="midnightblue" points="344.21,-145 334.21,-148.5 344.21,-152 344.21,-145"/>
</g>
<!-- Node330 -->
<g id="node6" class="node">
<title>Node330</title>
<g id="a_node6"><a xlink:href="class_ogre_1_1_default_zone_factory.html" target="_top" xlink:title=" ">
<polygon fill="none" stroke="black" points="409,-101 409,-120 551,-120 551,-101 409,-101"/>
<text text-anchor="middle" x="480" y="-108" font-family="Helvetica,sans-Serif" font-size="10.00">Ogre::DefaultZoneFactory</text>
</a>
</g>
</g>
<!-- Node329&#45;&gt;Node330 -->
<g id="edge5" class="edge">
<title>Node329&#45;&gt;Node330</title>
<path fill="none" stroke="midnightblue" d="M362.47,-98.56C377.55,-100.11 393.54,-101.75 408.67,-103.3"/>
<polygon fill="midnightblue" stroke="midnightblue" points="362.5,-95.05 352.19,-97.51 361.78,-102.01 362.5,-95.05"/>
</g>
<!-- Node331 -->
<g id="node7" class="node">
<title>Node331</title>
<g id="a_node7"><a xlink:href="class_ogre_1_1_octree_zone_factory.html" target="_top" xlink:title="Factory for OctreeZone.">
<polygon fill="none" stroke="black" points="411,-63 411,-82 549,-82 549,-63 411,-63"/>
<text text-anchor="middle" x="480" y="-70" font-family="Helvetica,sans-Serif" font-size="10.00">Ogre::OctreeZoneFactory</text>
</a>
</g>
</g>
<!-- Node329&#45;&gt;Node331 -->
<g id="edge6" class="edge">
<title>Node329&#45;&gt;Node331</title>
<path fill="none" stroke="midnightblue" d="M362.45,-84.44C378.31,-82.81 395.16,-81.09 410.98,-79.47"/>
<polygon fill="midnightblue" stroke="midnightblue" points="361.78,-80.99 352.19,-85.49 362.5,-87.95 361.78,-80.99"/>
</g>
<!-- Node333 -->
<g id="node10" class="node">
<title>Node333</title>
<g id="a_node10"><a xlink:href="class_ogre_1_1_octree_zone_data.html" target="_top" xlink:title=" ">
<polygon fill="none" stroke="black" points="417,-25 417,-44 543,-44 543,-25 417,-25"/>
<text text-anchor="middle" x="480" y="-32" font-family="Helvetica,sans-Serif" font-size="10.00">Ogre::OctreeZoneData</text>
</a>
</g>
</g>
<!-- Node332&#45;&gt;Node333 -->
<g id="edge9" class="edge">
<title>Node332&#45;&gt;Node333</title>
<path fill="none" stroke="midnightblue" d="M349.94,-47.72C371.08,-45.55 395.2,-43.08 416.83,-40.87"/>
<polygon fill="midnightblue" stroke="midnightblue" points="349.42,-44.25 339.83,-48.75 350.14,-51.22 349.42,-44.25"/>
</g>
<!-- Node0 -->
<g id="node11" class="node">
<title>Node0</title>
<g id="a_node11"><a xlink:href="class_ogre_1_1_singleton.html" target="_top" xlink:title=" ">
<polygon fill="none" stroke="black" points="0,-0.5 0,-30.5 176,-30.5 176,-0.5 0,-0.5"/>
<text text-anchor="start" x="8" y="-18.5" font-family="Helvetica,sans-Serif" font-size="10.00">Ogre::Singleton&lt; PCZoneFactory</text>
<text text-anchor="middle" x="88" y="-7.5" font-family="Helvetica,sans-Serif" font-size="10.00">Manager &gt;</text>
</a>
</g>
</g>
<!-- Node0&#45;&gt;Node1 -->
<g id="edge10" class="edge">
<title>Node0&#45;&gt;Node1</title>
<path fill="none" stroke="midnightblue" d="M186.14,-15.5C194.76,-15.5 203.42,-15.5 211.88,-15.5"/>
<polygon fill="midnightblue" stroke="midnightblue" points="186.05,-12 176.05,-15.5 186.05,-19 186.05,-12"/>
</g>
</g>
</svg>
