<?xml version="1.0" encoding="UTF-8" standalone="no"?>
<!DOCTYPE svg PUBLIC "-//W3C//DTD SVG 1.1//EN"
 "http://www.w3.org/Graphics/SVG/1.1/DTD/svg11.dtd">
<!-- Generated by graphviz version 2.43.0 (0)
 -->
<!-- Title: Graphical Class Hierarchy Pages: 1 -->
<svg width="546pt" height="180pt"
 viewBox="0.00 0.00 546.00 180.00" xmlns="http://www.w3.org/2000/svg" xmlns:xlink="http://www.w3.org/1999/xlink">
<g id="graph0" class="graph" transform="scale(1 1) rotate(0) translate(4 176)">
<title>Graphical Class Hierarchy</title>
<!-- Node0 -->
<g id="node1" class="node">
<title>Node0</title>
<g id="a_node1"><a xlink:href="class_ogre_1_1_singleton.html" target="_top" xlink:title=" ">
<polygon fill="none" stroke="black" points="0,-76.5 0,-95.5 188,-95.5 188,-76.5 0,-76.5"/>
<text text-anchor="middle" x="94" y="-83.5" font-family="Helvetica,sans-Serif" font-size="10.00">Ogre::Singleton&lt; GLRTTManager &gt;</text>
</a>
</g>
</g>
<!-- Node1 -->
<g id="node2" class="node">
<title>Node1</title>
<g id="a_node2"><a xlink:href="class_ogre_1_1_g_l_r_t_t_manager.html" target="_top" xlink:title="Manager/factory for RenderTextures.">
<polygon fill="none" stroke="black" points="224,-76.5 224,-95.5 343,-95.5 343,-76.5 224,-76.5"/>
<text text-anchor="middle" x="283.5" y="-83.5" font-family="Helvetica,sans-Serif" font-size="10.00">Ogre::GLRTTManager</text>
</a>
</g>
</g>
<!-- Node0&#45;&gt;Node1 -->
<g id="edge1" class="edge">
<title>Node0&#45;&gt;Node1</title>
<path fill="none" stroke="midnightblue" d="M198.42,-86C207.1,-86 215.67,-86 223.82,-86"/>
<polygon fill="midnightblue" stroke="midnightblue" points="198.2,-82.5 188.2,-86 198.2,-89.5 198.2,-82.5"/>
</g>
<!-- Node2 -->
<g id="node3" class="node">
<title>Node2</title>
<g id="a_node3"><a xlink:href="class_ogre_1_1_g_l3_plus_f_b_o_manager.html" target="_top" xlink:title="Factory for GL Frame Buffer Objects, and related things.">
<polygon fill="none" stroke="black" points="384.5,-152.5 384.5,-171.5 532.5,-171.5 532.5,-152.5 384.5,-152.5"/>
<text text-anchor="middle" x="458.5" y="-159.5" font-family="Helvetica,sans-Serif" font-size="10.00">Ogre::GL3PlusFBOManager</text>
</a>
</g>
</g>
<!-- Node1&#45;&gt;Node2 -->
<g id="edge2" class="edge">
<title>Node1&#45;&gt;Node2</title>
<path fill="none" stroke="midnightblue" d="M305.87,-101.5C324.4,-114.29 352.35,-132.04 379,-143 388.08,-146.73 398.06,-149.84 407.77,-152.4"/>
<polygon fill="midnightblue" stroke="midnightblue" points="307.78,-98.56 297.58,-95.68 303.75,-104.29 307.78,-98.56"/>
</g>
<!-- Node3 -->
<g id="node4" class="node">
<title>Node3</title>
<g id="a_node4"><a xlink:href="class_ogre_1_1_g_l_copying_r_t_t_manager.html" target="_top" xlink:title="Simple, copying manager/factory for RenderTextures.">
<polygon fill="none" stroke="black" points="379,-114.5 379,-133.5 538,-133.5 538,-114.5 379,-114.5"/>
<text text-anchor="middle" x="458.5" y="-121.5" font-family="Helvetica,sans-Serif" font-size="10.00">Ogre::GLCopyingRTTManager</text>
</a>
</g>
</g>
<!-- Node1&#45;&gt;Node3 -->
<g id="edge3" class="edge">
<title>Node1&#45;&gt;Node3</title>
<path fill="none" stroke="midnightblue" d="M338.01,-97.75C362.47,-103.13 391.07,-109.41 414.16,-114.48"/>
<polygon fill="midnightblue" stroke="midnightblue" points="338.67,-94.32 328.16,-95.59 337.17,-101.15 338.67,-94.32"/>
</g>
<!-- Node4 -->
<g id="node5" class="node">
<title>Node4</title>
<g id="a_node5"><a xlink:href="class_ogre_1_1_g_l_e_s2_f_b_o_manager.html" target="_top" xlink:title="Factory for GL ES 2 Frame Buffer Objects, and related things.">
<polygon fill="none" stroke="black" points="388.5,-76.5 388.5,-95.5 528.5,-95.5 528.5,-76.5 388.5,-76.5"/>
<text text-anchor="middle" x="458.5" y="-83.5" font-family="Helvetica,sans-Serif" font-size="10.00">Ogre::GLES2FBOManager</text>
</a>
</g>
</g>
<!-- Node1&#45;&gt;Node4 -->
<g id="edge4" class="edge">
<title>Node1&#45;&gt;Node4</title>
<path fill="none" stroke="midnightblue" d="M353.09,-86C364.65,-86 376.65,-86 388.22,-86"/>
<polygon fill="midnightblue" stroke="midnightblue" points="353.07,-82.5 343.07,-86 353.07,-89.5 353.07,-82.5"/>
</g>
<!-- Node5 -->
<g id="node6" class="node">
<title>Node5</title>
<g id="a_node6"><a xlink:href="class_ogre_1_1_g_l_f_b_o_manager.html" target="_top" xlink:title="Factory for GL Frame Buffer Objects, and related things.">
<polygon fill="none" stroke="black" points="397.5,-38.5 397.5,-57.5 519.5,-57.5 519.5,-38.5 397.5,-38.5"/>
<text text-anchor="middle" x="458.5" y="-45.5" font-family="Helvetica,sans-Serif" font-size="10.00">Ogre::GLFBOManager</text>
</a>
</g>
</g>
<!-- Node1&#45;&gt;Node5 -->
<g id="edge5" class="edge">
<title>Node1&#45;&gt;Node5</title>
<path fill="none" stroke="midnightblue" d="M338.01,-74.25C362.47,-68.87 391.07,-62.59 414.16,-57.52"/>
<polygon fill="midnightblue" stroke="midnightblue" points="337.17,-70.85 328.16,-76.41 338.67,-77.68 337.17,-70.85"/>
</g>
<!-- Node6 -->
<g id="node7" class="node">
<title>Node6</title>
<g id="a_node7"><a xlink:href="class_ogre_1_1_g_l_p_b_r_t_t_manager.html" target="_top" xlink:title="Manager for rendertextures and PBuffers (offscreen rendering contexts)">
<polygon fill="none" stroke="black" points="392.5,-0.5 392.5,-19.5 524.5,-19.5 524.5,-0.5 392.5,-0.5"/>
<text text-anchor="middle" x="458.5" y="-7.5" font-family="Helvetica,sans-Serif" font-size="10.00">Ogre::GLPBRTTManager</text>
</a>
</g>
</g>
<!-- Node1&#45;&gt;Node6 -->
<g id="edge6" class="edge">
<title>Node1&#45;&gt;Node6</title>
<path fill="none" stroke="midnightblue" d="M305.87,-70.5C324.4,-57.71 352.35,-39.96 379,-29 388.08,-25.27 398.06,-22.16 407.77,-19.6"/>
<polygon fill="midnightblue" stroke="midnightblue" points="303.75,-67.71 297.58,-76.32 307.78,-73.44 303.75,-67.71"/>
</g>
</g>
</svg>
