<?xml version="1.0" encoding="UTF-8" standalone="no"?>
<!DOCTYPE svg PUBLIC "-//W3C//DTD SVG 1.1//EN"
 "http://www.w3.org/Graphics/SVG/1.1/DTD/svg11.dtd">
<!-- Generated by graphviz version 2.43.0 (0)
 -->
<!-- Title: Graphical Class Hierarchy Pages: 1 -->
<svg width="490pt" height="382pt"
 viewBox="0.00 0.00 490.00 381.50" xmlns="http://www.w3.org/2000/svg" xmlns:xlink="http://www.w3.org/1999/xlink">
<g id="graph0" class="graph" transform="scale(1 1) rotate(0) translate(4 377.5)">
<title>Graphical Class Hierarchy</title>
<!-- Node1260 -->
<g id="node1" class="node">
<title>Node1260</title>
<g id="a_node1"><a xlink:title=" ">
<polygon fill="none" stroke="#bfbfbf" points="0,-161 0,-180 76,-180 76,-161 0,-161"/>
<text text-anchor="middle" x="38" y="-168" font-family="Helvetica,sans-Serif" font-size="10.00">FactoryAlloc</text>
</a>
</g>
</g>
<!-- Node0 -->
<g id="node2" class="node">
<title>Node0</title>
<g id="a_node2"><a xlink:href="class_ogre_1_1_high_level_gpu_program_factory.html" target="_top" xlink:title="Interface definition for factories of HighLevelGpuProgram.">
<polygon fill="none" stroke="black" points="112,-177.5 112,-207.5 267,-207.5 267,-177.5 112,-177.5"/>
<text text-anchor="start" x="120" y="-195.5" font-family="Helvetica,sans-Serif" font-size="10.00">Ogre::HighLevelGpuProgram</text>
<text text-anchor="middle" x="189.5" y="-184.5" font-family="Helvetica,sans-Serif" font-size="10.00">Factory</text>
</a>
</g>
</g>
<!-- Node1260&#45;&gt;Node0 -->
<g id="edge1" class="edge">
<title>Node1260&#45;&gt;Node0</title>
<path fill="none" stroke="midnightblue" d="M86.39,-177.47C94.56,-178.68 103.24,-179.95 111.96,-181.24"/>
<polygon fill="midnightblue" stroke="midnightblue" points="86.74,-173.99 76.34,-175.99 85.72,-180.91 86.74,-173.99"/>
</g>
<!-- Node1272 -->
<g id="node13" class="node">
<title>Node1272</title>
<g id="a_node13"><a xlink:href="class_ogre_1_1_instance_manager.html" target="_top" xlink:title="This is the main starting point for the new instancing system.">
<polygon fill="none" stroke="black" points="124.5,-139 124.5,-158 254.5,-158 254.5,-139 124.5,-139"/>
<text text-anchor="middle" x="189.5" y="-146" font-family="Helvetica,sans-Serif" font-size="10.00">Ogre::InstanceManager</text>
</a>
</g>
</g>
<!-- Node1260&#45;&gt;Node1272 -->
<g id="edge12" class="edge">
<title>Node1260&#45;&gt;Node1272</title>
<path fill="none" stroke="midnightblue" d="M86.57,-163.5C98.57,-161.73 111.65,-159.81 124.32,-157.94"/>
<polygon fill="midnightblue" stroke="midnightblue" points="85.72,-160.09 76.34,-165.01 86.74,-167.01 85.72,-160.09"/>
</g>
<!-- Node1 -->
<g id="node3" class="node">
<title>Node1</title>
<g id="a_node3"><a xlink:href="class_ogre_1_1_cg_program_factory.html" target="_top" xlink:title="Factory class for Cg programs.">
<polygon fill="none" stroke="black" points="325,-354 325,-373 460,-373 460,-354 325,-354"/>
<text text-anchor="middle" x="392.5" y="-361" font-family="Helvetica,sans-Serif" font-size="10.00">Ogre::CgProgramFactory</text>
</a>
</g>
</g>
<!-- Node0&#45;&gt;Node1 -->
<g id="edge2" class="edge">
<title>Node0&#45;&gt;Node1</title>
<path fill="none" stroke="midnightblue" d="M201.68,-217.19C218.52,-251.45 253.77,-312.77 303,-344.5 309.6,-348.76 317,-352.08 324.64,-354.66"/>
<polygon fill="midnightblue" stroke="midnightblue" points="204.7,-215.4 197.23,-207.89 198.39,-218.42 204.7,-215.4"/>
</g>
<!-- Node2 -->
<g id="node4" class="node">
<title>Node2</title>
<g id="a_node4"><a xlink:href="class_ogre_1_1_d3_d11_h_l_s_l_program_factory.html" target="_top" xlink:title="Factory class for D3D11 HLSL programs.">
<polygon fill="none" stroke="black" points="303,-316 303,-335 482,-335 482,-316 303,-316"/>
<text text-anchor="middle" x="392.5" y="-323" font-family="Helvetica,sans-Serif" font-size="10.00">Ogre::D3D11HLSLProgramFactory</text>
</a>
</g>
</g>
<!-- Node0&#45;&gt;Node2 -->
<g id="edge3" class="edge">
<title>Node0&#45;&gt;Node2</title>
<path fill="none" stroke="midnightblue" d="M207.04,-216.11C226.77,-242.4 262.26,-284.15 303,-306.5 310.03,-310.35 317.77,-313.43 325.66,-315.88"/>
<polygon fill="midnightblue" stroke="midnightblue" points="209.7,-213.82 200.96,-207.83 204.06,-217.96 209.7,-213.82"/>
</g>
<!-- Node3 -->
<g id="node5" class="node">
<title>Node3</title>
<g id="a_node5"><a xlink:href="class_ogre_1_1_d3_d9_h_l_s_l_program_factory.html" target="_top" xlink:title="Factory class for D3D9 HLSL programs.">
<polygon fill="none" stroke="black" points="306,-278 306,-297 479,-297 479,-278 306,-278"/>
<text text-anchor="middle" x="392.5" y="-285" font-family="Helvetica,sans-Serif" font-size="10.00">Ogre::D3D9HLSLProgramFactory</text>
</a>
</g>
</g>
<!-- Node0&#45;&gt;Node3 -->
<g id="edge4" class="edge">
<title>Node0&#45;&gt;Node3</title>
<path fill="none" stroke="midnightblue" d="M216.4,-214.26C238.18,-231.46 270.84,-254.8 303,-268.5 311.96,-272.32 321.78,-275.4 331.5,-277.88"/>
<polygon fill="midnightblue" stroke="midnightblue" points="218.31,-211.3 208.33,-207.76 213.93,-216.76 218.31,-211.3"/>
</g>
<!-- Node4 -->
<g id="node6" class="node">
<title>Node4</title>
<g id="a_node6"><a xlink:href="class_ogre_1_1_g_l_s_l_1_1_g_l_s_l_program_factory.html" target="_top" xlink:title="Factory class for GLSL programs.">
<polygon fill="none" stroke="black" points="304.5,-240 304.5,-259 480.5,-259 480.5,-240 304.5,-240"/>
<text text-anchor="middle" x="392.5" y="-247" font-family="Helvetica,sans-Serif" font-size="10.00">Ogre::GLSL::GLSLProgramFactory</text>
</a>
</g>
</g>
<!-- Node0&#45;&gt;Node4 -->
<g id="edge5" class="edge">
<title>Node0&#45;&gt;Node4</title>
<path fill="none" stroke="midnightblue" d="M240.8,-210.86C260.1,-217.54 282.43,-224.84 303,-230.5 315.58,-233.96 329.3,-237.18 342.11,-239.94"/>
<polygon fill="midnightblue" stroke="midnightblue" points="241.89,-207.53 231.3,-207.53 239.58,-214.14 241.89,-207.53"/>
</g>
<!-- Node5 -->
<g id="node7" class="node">
<title>Node5</title>
<g id="a_node7"><a xlink:href="class_ogre_1_1_g_l_s_l_e_s_cg_program_factory.html" target="_top" xlink:title="Factory class for GLSL ES programs.">
<polygon fill="none" stroke="black" points="307,-202 307,-221 478,-221 478,-202 307,-202"/>
<text text-anchor="middle" x="392.5" y="-209" font-family="Helvetica,sans-Serif" font-size="10.00">Ogre::GLSLESCgProgramFactory</text>
</a>
</g>
</g>
<!-- Node0&#45;&gt;Node5 -->
<g id="edge6" class="edge">
<title>Node0&#45;&gt;Node5</title>
<path fill="none" stroke="midnightblue" d="M277.2,-200.7C287,-201.62 296.99,-202.57 306.76,-203.49"/>
<polygon fill="midnightblue" stroke="midnightblue" points="277.35,-197.19 267.06,-199.74 276.69,-204.16 277.35,-197.19"/>
</g>
<!-- Node6 -->
<g id="node8" class="node">
<title>Node6</title>
<g id="a_node8"><a xlink:href="class_ogre_1_1_g_l_s_l_e_s_program_factory.html" target="_top" xlink:title="Factory class for GLSL ES programs.">
<polygon fill="none" stroke="black" points="313.5,-164 313.5,-183 471.5,-183 471.5,-164 313.5,-164"/>
<text text-anchor="middle" x="392.5" y="-171" font-family="Helvetica,sans-Serif" font-size="10.00">Ogre::GLSLESProgramFactory</text>
</a>
</g>
</g>
<!-- Node0&#45;&gt;Node6 -->
<g id="edge7" class="edge">
<title>Node0&#45;&gt;Node6</title>
<path fill="none" stroke="midnightblue" d="M277.13,-184.31C289.22,-183.17 301.57,-182 313.48,-180.87"/>
<polygon fill="midnightblue" stroke="midnightblue" points="276.69,-180.84 267.06,-185.26 277.35,-187.81 276.69,-180.84"/>
</g>
<!-- Node7 -->
<g id="node9" class="node">
<title>Node7</title>
<g id="a_node9"><a xlink:href="class_ogre_1_1_g_l_s_l_shader_factory.html" target="_top" xlink:title="Factory class for GLSL shaders.">
<polygon fill="none" stroke="black" points="323,-126 323,-145 462,-145 462,-126 323,-126"/>
<text text-anchor="middle" x="392.5" y="-133" font-family="Helvetica,sans-Serif" font-size="10.00">Ogre::GLSLShaderFactory</text>
</a>
</g>
</g>
<!-- Node0&#45;&gt;Node7 -->
<g id="edge8" class="edge">
<title>Node0&#45;&gt;Node7</title>
<path fill="none" stroke="midnightblue" d="M247.22,-174.18C253.9,-171.96 260.61,-169.7 267,-167.5 283.09,-161.97 286.65,-159.18 303,-154.5 315.24,-150.99 328.59,-147.81 341.13,-145.08"/>
<polygon fill="midnightblue" stroke="midnightblue" points="245.9,-170.93 237.51,-177.39 248.1,-177.57 245.9,-170.93"/>
</g>
<!-- Node8 -->
<g id="node10" class="node">
<title>Node8</title>
<g id="a_node10"><a xlink:href="class_ogre_1_1_metal_program_factory.html" target="_top" xlink:title="Factory class for Metal programs.">
<polygon fill="none" stroke="black" points="317.5,-88 317.5,-107 467.5,-107 467.5,-88 317.5,-88"/>
<text text-anchor="middle" x="392.5" y="-95" font-family="Helvetica,sans-Serif" font-size="10.00">Ogre::MetalProgramFactory</text>
</a>
</g>
</g>
<!-- Node0&#45;&gt;Node8 -->
<g id="edge9" class="edge">
<title>Node0&#45;&gt;Node8</title>
<path fill="none" stroke="midnightblue" d="M259.1,-172.66C261.85,-171.07 264.5,-169.35 267,-167.5 289.32,-151.02 279.85,-131.79 303,-116.5 308.9,-112.6 315.46,-109.49 322.27,-107"/>
<polygon fill="midnightblue" stroke="midnightblue" points="257.32,-169.64 250.04,-177.34 260.53,-175.86 257.32,-169.64"/>
</g>
<!-- Node9 -->
<g id="node11" class="node">
<title>Node9</title>
<g id="a_node11"><a xlink:href="class_ogre_1_1_s_p_i_r_v_shader_factory.html" target="_top" xlink:title=" ">
<polygon fill="none" stroke="black" points="321,-50 321,-69 464,-69 464,-50 321,-50"/>
<text text-anchor="middle" x="392.5" y="-57" font-family="Helvetica,sans-Serif" font-size="10.00">Ogre::SPIRVShaderFactory</text>
</a>
</g>
</g>
<!-- Node0&#45;&gt;Node9 -->
<g id="edge10" class="edge">
<title>Node0&#45;&gt;Node9</title>
<path fill="none" stroke="midnightblue" d="M261.61,-171.97C263.5,-170.58 265.3,-169.09 267,-167.5 298.19,-138.38 270.34,-105.95 303,-78.5 308.29,-74.05 314.38,-70.57 320.83,-67.86"/>
<polygon fill="midnightblue" stroke="midnightblue" points="259.46,-169.19 252.88,-177.49 263.2,-175.1 259.46,-169.19"/>
</g>
<!-- Node10 -->
<g id="node12" class="node">
<title>Node10</title>
<g id="a_node12"><a xlink:href="class_ogre_1_1_unified_high_level_gpu_program_factory.html" target="_top" xlink:title="Factory class for Unified programs.">
<polygon fill="none" stroke="black" points="318,-0.5 318,-30.5 467,-30.5 467,-0.5 318,-0.5"/>
<text text-anchor="start" x="326" y="-18.5" font-family="Helvetica,sans-Serif" font-size="10.00">Ogre::UnifiedHighLevelGpu</text>
<text text-anchor="middle" x="392.5" y="-7.5" font-family="Helvetica,sans-Serif" font-size="10.00">ProgramFactory</text>
</a>
</g>
</g>
<!-- Node0&#45;&gt;Node10 -->
<g id="edge11" class="edge">
<title>Node0&#45;&gt;Node10</title>
<path fill="none" stroke="midnightblue" d="M262.62,-171.56C264.16,-170.29 265.62,-168.94 267,-167.5 307.65,-125.2 261.5,-81.97 303,-40.5 307.29,-36.21 312.26,-32.65 317.61,-29.68"/>
<polygon fill="midnightblue" stroke="midnightblue" points="260.61,-168.7 254.44,-177.32 264.63,-174.43 260.61,-168.7"/>
</g>
</g>
</svg>
