<?xml version="1.0" encoding="UTF-8" standalone="no"?>
<!DOCTYPE svg PUBLIC "-//W3C//DTD SVG 1.1//EN"
 "http://www.w3.org/Graphics/SVG/1.1/DTD/svg11.dtd">
<!-- Generated by graphviz version 2.43.0 (0)
 -->
<!-- Title: Graphical Class Hierarchy Pages: 1 -->
<svg width="720pt" height="165pt"
 viewBox="0.00 0.00 720.00 165.00" xmlns="http://www.w3.org/2000/svg" xmlns:xlink="http://www.w3.org/1999/xlink">
<g id="graph0" class="graph" transform="scale(1 1) rotate(0) translate(4 161)">
<title>Graphical Class Hierarchy</title>
<!-- Node1402 -->
<g id="node1" class="node">
<title>Node1402</title>
<g id="a_node1"><a xlink:title=" ">
<polygon fill="none" stroke="#bfbfbf" points="40,-50 40,-69 117,-69 117,-50 40,-50"/>
<text text-anchor="middle" x="78.5" y="-57" font-family="Helvetica,sans-Serif" font-size="10.00">ArchiveAlloc</text>
</a>
</g>
</g>
<!-- Node1403 -->
<g id="node2" class="node">
<title>Node1403</title>
<g id="a_node2"><a xlink:href="class_ogre_1_1_archive.html" target="_top" xlink:title="Archive&#45;handling class.">
<polygon fill="none" stroke="black" points="214,-50 214,-69 297,-69 297,-50 214,-50"/>
<text text-anchor="middle" x="255.5" y="-57" font-family="Helvetica,sans-Serif" font-size="10.00">Ogre::Archive</text>
</a>
</g>
</g>
<!-- Node1402&#45;&gt;Node1403 -->
<g id="edge1" class="edge">
<title>Node1402&#45;&gt;Node1403</title>
<path fill="none" stroke="midnightblue" d="M127.12,-59.5C154.31,-59.5 188.05,-59.5 213.97,-59.5"/>
<polygon fill="midnightblue" stroke="midnightblue" points="127.04,-56 117.04,-59.5 127.04,-63 127.04,-56"/>
</g>
<!-- Node1255 -->
<g id="node3" class="node">
<title>Node1255</title>
<g id="a_node3"><a xlink:href="class_ogre_1_1_archive_factory.html" target="_top" xlink:title="Abstract factory class, archive codec plugins can register concrete subclasses of this.">
<polygon fill="none" stroke="black" points="196.5,-88 196.5,-107 314.5,-107 314.5,-88 196.5,-88"/>
<text text-anchor="middle" x="255.5" y="-95" font-family="Helvetica,sans-Serif" font-size="10.00">Ogre::ArchiveFactory</text>
</a>
</g>
</g>
<!-- Node1402&#45;&gt;Node1255 -->
<g id="edge2" class="edge">
<title>Node1402&#45;&gt;Node1255</title>
<path fill="none" stroke="midnightblue" d="M127.06,-69.83C153.08,-75.48 185.1,-82.43 210.53,-87.95"/>
<polygon fill="midnightblue" stroke="midnightblue" points="127.56,-66.35 117.04,-67.65 126.07,-73.19 127.56,-66.35"/>
</g>
<!-- Node1 -->
<g id="node8" class="node">
<title>Node1</title>
<g id="a_node8"><a xlink:href="class_ogre_1_1_archive_manager.html" target="_top" xlink:title="This class manages the available ArchiveFactory plugins.">
<polygon fill="none" stroke="black" points="193,-9 193,-28 318,-28 318,-9 193,-9"/>
<text text-anchor="middle" x="255.5" y="-16" font-family="Helvetica,sans-Serif" font-size="10.00">Ogre::ArchiveManager</text>
</a>
</g>
</g>
<!-- Node1402&#45;&gt;Node1 -->
<g id="edge7" class="edge">
<title>Node1402&#45;&gt;Node1</title>
<path fill="none" stroke="midnightblue" d="M127.08,-48.35C154.17,-42.01 187.77,-34.13 213.66,-28.07"/>
<polygon fill="midnightblue" stroke="midnightblue" points="125.98,-45.02 117.04,-50.7 127.58,-51.83 125.98,-45.02"/>
</g>
<!-- Node1256 -->
<g id="node4" class="node">
<title>Node1256</title>
<g id="a_node4"><a xlink:href="class_ogre_1_1_a_p_k_file_system_archive_factory.html" target="_top" xlink:title=" ">
<polygon fill="none" stroke="black" points="362,-126.5 362,-156.5 518,-156.5 518,-126.5 362,-126.5"/>
<text text-anchor="start" x="370" y="-144.5" font-family="Helvetica,sans-Serif" font-size="10.00">Ogre::APKFileSystemArchive</text>
<text text-anchor="middle" x="440" y="-133.5" font-family="Helvetica,sans-Serif" font-size="10.00">Factory</text>
</a>
</g>
</g>
<!-- Node1255&#45;&gt;Node1256 -->
<g id="edge3" class="edge">
<title>Node1255&#45;&gt;Node1256</title>
<path fill="none" stroke="midnightblue" d="M306.09,-109.46C327.8,-114.69 353.51,-120.89 376.51,-126.43"/>
<polygon fill="midnightblue" stroke="midnightblue" points="306.64,-105.99 296.1,-107.05 305,-112.79 306.64,-105.99"/>
</g>
<!-- Node1257 -->
<g id="node5" class="node">
<title>Node1257</title>
<g id="a_node5"><a xlink:href="class_ogre_1_1_file_system_archive_factory.html" target="_top" xlink:title="Specialisation of the ArchiveFactory to allow reading of files from filesystem folders / directories.">
<polygon fill="none" stroke="black" points="354,-88 354,-107 526,-107 526,-88 354,-88"/>
<text text-anchor="middle" x="440" y="-95" font-family="Helvetica,sans-Serif" font-size="10.00">Ogre::FileSystemArchiveFactory</text>
</a>
</g>
</g>
<!-- Node1255&#45;&gt;Node1257 -->
<g id="edge4" class="edge">
<title>Node1255&#45;&gt;Node1257</title>
<path fill="none" stroke="midnightblue" d="M324.82,-97.5C334.24,-97.5 344.02,-97.5 353.7,-97.5"/>
<polygon fill="midnightblue" stroke="midnightblue" points="324.75,-94 314.75,-97.5 324.75,-101 324.75,-94"/>
</g>
<!-- Node1258 -->
<g id="node6" class="node">
<title>Node1258</title>
<g id="a_node6"><a xlink:href="class_ogre_1_1_zip_archive_factory.html" target="_top" xlink:title="Specialisation to allow reading of files from a zip format source archive.">
<polygon fill="none" stroke="black" points="373,-50 373,-69 507,-69 507,-50 373,-50"/>
<text text-anchor="middle" x="440" y="-57" font-family="Helvetica,sans-Serif" font-size="10.00">Ogre::ZipArchiveFactory</text>
</a>
</g>
</g>
<!-- Node1255&#45;&gt;Node1258 -->
<g id="edge5" class="edge">
<title>Node1255&#45;&gt;Node1258</title>
<path fill="none" stroke="midnightblue" d="M312.6,-85.82C338.48,-80.43 368.81,-74.11 393.28,-69.02"/>
<polygon fill="midnightblue" stroke="midnightblue" points="311.63,-82.45 302.55,-87.91 313.06,-89.3 311.63,-82.45"/>
</g>
<!-- Node1259 -->
<g id="node7" class="node">
<title>Node1259</title>
<g id="a_node7"><a xlink:href="class_ogre_1_1_embedded_zip_archive_factory.html" target="_top" xlink:title="Specialisation of ZipArchiveFactory for embedded Zip files.">
<polygon fill="none" stroke="black" points="562,-44.5 562,-74.5 712,-74.5 712,-44.5 562,-44.5"/>
<text text-anchor="start" x="570" y="-62.5" font-family="Helvetica,sans-Serif" font-size="10.00">Ogre::EmbeddedZipArchive</text>
<text text-anchor="middle" x="637" y="-51.5" font-family="Helvetica,sans-Serif" font-size="10.00">Factory</text>
</a>
</g>
</g>
<!-- Node1258&#45;&gt;Node1259 -->
<g id="edge6" class="edge">
<title>Node1258&#45;&gt;Node1259</title>
<path fill="none" stroke="midnightblue" d="M517.04,-59.5C531.71,-59.5 547.05,-59.5 561.66,-59.5"/>
<polygon fill="midnightblue" stroke="midnightblue" points="517.02,-56 507.02,-59.5 517.02,-63 517.02,-56"/>
</g>
<!-- Node1254 -->
<g id="node9" class="node">
<title>Node1254</title>
<g id="a_node9"><a xlink:href="class_ogre_1_1_factory_obj.html" target="_top" xlink:title=" ">
<polygon fill="none" stroke="black" points="0,-88 0,-107 157,-107 157,-88 0,-88"/>
<text text-anchor="middle" x="78.5" y="-95" font-family="Helvetica,sans-Serif" font-size="10.00">Ogre::FactoryObj&lt; Archive &gt;</text>
</a>
</g>
</g>
<!-- Node1254&#45;&gt;Node1255 -->
<g id="edge8" class="edge">
<title>Node1254&#45;&gt;Node1255</title>
<path fill="none" stroke="midnightblue" d="M167.32,-97.5C177.21,-97.5 187.1,-97.5 196.48,-97.5"/>
<polygon fill="midnightblue" stroke="midnightblue" points="167.02,-94 157.02,-97.5 167.02,-101 167.02,-94"/>
</g>
<!-- Node0 -->
<g id="node10" class="node">
<title>Node0</title>
<g id="a_node10"><a xlink:href="class_ogre_1_1_singleton.html" target="_top" xlink:title=" ">
<polygon fill="none" stroke="black" points="8.5,-0.5 8.5,-30.5 148.5,-30.5 148.5,-0.5 8.5,-0.5"/>
<text text-anchor="start" x="16.5" y="-18.5" font-family="Helvetica,sans-Serif" font-size="10.00">Ogre::Singleton&lt; Archive</text>
<text text-anchor="middle" x="78.5" y="-7.5" font-family="Helvetica,sans-Serif" font-size="10.00">Manager &gt;</text>
</a>
</g>
</g>
<!-- Node0&#45;&gt;Node1 -->
<g id="edge9" class="edge">
<title>Node0&#45;&gt;Node1</title>
<path fill="none" stroke="midnightblue" d="M158.69,-16.86C170.18,-17.05 181.86,-17.25 192.93,-17.44"/>
<polygon fill="midnightblue" stroke="midnightblue" points="158.72,-13.36 148.66,-16.69 158.6,-20.36 158.72,-13.36"/>
</g>
</g>
</svg>
