<?xml version="1.0" encoding="UTF-8" standalone="no"?>
<!DOCTYPE svg PUBLIC "-//W3C//DTD SVG 1.1//EN"
 "http://www.w3.org/Graphics/SVG/1.1/DTD/svg11.dtd">
<!-- Generated by graphviz version 2.43.0 (0)
 -->
<!-- Title: Graphical Class Hierarchy Pages: 1 -->
<svg width="440pt" height="173pt"
 viewBox="0.00 0.00 440.00 172.50" xmlns="http://www.w3.org/2000/svg" xmlns:xlink="http://www.w3.org/1999/xlink">
<g id="graph0" class="graph" transform="scale(1 1) rotate(0) translate(4 168.5)">
<title>Graphical Class Hierarchy</title>
<!-- Node73 -->
<g id="node1" class="node">
<title>Node73</title>
<g id="a_node1"><a xlink:title=" ">
<polygon fill="none" stroke="#bfbfbf" points="0,-50 0,-69 76,-69 76,-50 0,-50"/>
<text text-anchor="middle" x="38" y="-57" font-family="Helvetica,sans-Serif" font-size="10.00">StreamAlloc</text>
</a>
</g>
</g>
<!-- Node0 -->
<g id="node2" class="node">
<title>Node0</title>
<g id="a_node2"><a xlink:href="class_ogre_1_1_data_stream.html" target="_top" xlink:title="General purpose class used for encapsulating the reading and writing of data.">
<polygon fill="none" stroke="black" points="123.5,-88 123.5,-107 227.5,-107 227.5,-88 123.5,-88"/>
<text text-anchor="middle" x="175.5" y="-95" font-family="Helvetica,sans-Serif" font-size="10.00">Ogre::DataStream</text>
</a>
</g>
</g>
<!-- Node73&#45;&gt;Node0 -->
<g id="edge1" class="edge">
<title>Node73&#45;&gt;Node0</title>
<path fill="none" stroke="midnightblue" d="M82.92,-71.82C101.54,-77.04 122.91,-83.03 140.32,-87.91"/>
<polygon fill="midnightblue" stroke="midnightblue" points="83.77,-68.42 73.19,-69.09 81.88,-75.16 83.77,-68.42"/>
</g>
<!-- Node79 -->
<g id="node7" class="node">
<title>Node79</title>
<g id="a_node7"><a xlink:href="class_ogre_1_1_stream_serialiser.html" target="_top" xlink:title="Utility class providing helper methods for reading / writing structured data held in a DataStream.">
<polygon fill="none" stroke="black" points="112,-50 112,-69 239,-69 239,-50 112,-50"/>
<text text-anchor="middle" x="175.5" y="-57" font-family="Helvetica,sans-Serif" font-size="10.00">Ogre::StreamSerialiser</text>
</a>
</g>
</g>
<!-- Node73&#45;&gt;Node79 -->
<g id="edge6" class="edge">
<title>Node73&#45;&gt;Node79</title>
<path fill="none" stroke="midnightblue" d="M86.26,-59.5C94.57,-59.5 103.33,-59.5 111.98,-59.5"/>
<polygon fill="midnightblue" stroke="midnightblue" points="86.03,-56 76.03,-59.5 86.03,-63 86.03,-56"/>
</g>
<!-- Node80 -->
<g id="node8" class="node">
<title>Node80</title>
<g id="a_node8"><a xlink:href="struct_ogre_1_1_stream_serialiser_1_1_chunk.html" target="_top" xlink:title="Definition of a chunk of data in a file.">
<polygon fill="none" stroke="black" points="112,-0.5 112,-30.5 239,-30.5 239,-0.5 112,-0.5"/>
<text text-anchor="start" x="120" y="-18.5" font-family="Helvetica,sans-Serif" font-size="10.00">Ogre::StreamSerialiser</text>
<text text-anchor="middle" x="175.5" y="-7.5" font-family="Helvetica,sans-Serif" font-size="10.00">::Chunk</text>
</a>
</g>
</g>
<!-- Node73&#45;&gt;Node80 -->
<g id="edge7" class="edge">
<title>Node73&#45;&gt;Node80</title>
<path fill="none" stroke="midnightblue" d="M78.24,-46.76C93.83,-41.7 111.88,-35.83 128.11,-30.57"/>
<polygon fill="midnightblue" stroke="midnightblue" points="76.83,-43.54 68.4,-49.95 78.99,-50.19 76.83,-43.54"/>
</g>
<!-- Node1 -->
<g id="node3" class="node">
<title>Node1</title>
<g id="a_node3"><a xlink:href="class_ogre_1_1_deflate_stream.html" target="_top" xlink:title="Stream which compresses / uncompresses data using the &#39;deflate&#39; compression algorithm.">
<polygon fill="none" stroke="black" points="295.5,-145 295.5,-164 411.5,-164 411.5,-145 295.5,-145"/>
<text text-anchor="middle" x="353.5" y="-152" font-family="Helvetica,sans-Serif" font-size="10.00">Ogre::DeflateStream</text>
</a>
</g>
</g>
<!-- Node0&#45;&gt;Node1 -->
<g id="edge2" class="edge">
<title>Node0&#45;&gt;Node1</title>
<path fill="none" stroke="midnightblue" d="M208.32,-110.97C227.44,-118.76 252.37,-128.39 275,-135.5 285.97,-138.95 297.97,-142.15 309.19,-144.92"/>
<polygon fill="midnightblue" stroke="midnightblue" points="209.48,-107.66 198.9,-107.09 206.81,-114.13 209.48,-107.66"/>
</g>
<!-- Node2 -->
<g id="node4" class="node">
<title>Node2</title>
<g id="a_node4"><a xlink:href="class_ogre_1_1_file_handle_data_stream.html" target="_top" xlink:title="Common subclass of DataStream for handling data from C&#45;style file handles.">
<polygon fill="none" stroke="black" points="275.5,-107 275.5,-126 431.5,-126 431.5,-107 275.5,-107"/>
<text text-anchor="middle" x="353.5" y="-114" font-family="Helvetica,sans-Serif" font-size="10.00">Ogre::FileHandleDataStream</text>
</a>
</g>
</g>
<!-- Node0&#45;&gt;Node2 -->
<g id="edge3" class="edge">
<title>Node0&#45;&gt;Node2</title>
<path fill="none" stroke="midnightblue" d="M238.18,-104.16C250.14,-105.45 262.82,-106.82 275.21,-108.16"/>
<polygon fill="midnightblue" stroke="midnightblue" points="238.2,-100.64 227.88,-103.05 237.45,-107.6 238.2,-100.64"/>
</g>
<!-- Node3 -->
<g id="node5" class="node">
<title>Node3</title>
<g id="a_node5"><a xlink:href="class_ogre_1_1_file_stream_data_stream.html" target="_top" xlink:title="Common subclass of DataStream for handling data from std::basic_istream.">
<polygon fill="none" stroke="black" points="275,-69 275,-88 432,-88 432,-69 275,-69"/>
<text text-anchor="middle" x="353.5" y="-76" font-family="Helvetica,sans-Serif" font-size="10.00">Ogre::FileStreamDataStream</text>
</a>
</g>
</g>
<!-- Node0&#45;&gt;Node3 -->
<g id="edge4" class="edge">
<title>Node0&#45;&gt;Node3</title>
<path fill="none" stroke="midnightblue" d="M238.11,-90.85C249.99,-89.57 262.57,-88.21 274.88,-86.88"/>
<polygon fill="midnightblue" stroke="midnightblue" points="237.45,-87.4 227.88,-91.95 238.2,-94.36 237.45,-87.4"/>
</g>
<!-- Node4 -->
<g id="node6" class="node">
<title>Node4</title>
<g id="a_node6"><a xlink:href="class_ogre_1_1_memory_data_stream.html" target="_top" xlink:title="Common subclass of DataStream for handling data from chunks of memory.">
<polygon fill="none" stroke="black" points="281,-31 281,-50 426,-50 426,-31 281,-31"/>
<text text-anchor="middle" x="353.5" y="-38" font-family="Helvetica,sans-Serif" font-size="10.00">Ogre::MemoryDataStream</text>
</a>
</g>
</g>
<!-- Node0&#45;&gt;Node4 -->
<g id="edge5" class="edge">
<title>Node0&#45;&gt;Node4</title>
<path fill="none" stroke="midnightblue" d="M221.96,-84.8C227.75,-82.85 233.56,-80.74 239,-78.5 255.73,-71.62 258.09,-65.92 275,-59.5 284.71,-55.81 295.39,-52.65 305.62,-50.03"/>
<polygon fill="midnightblue" stroke="midnightblue" points="220.73,-81.51 212.28,-87.9 222.87,-88.18 220.73,-81.51"/>
</g>
</g>
</svg>
